<?xml version="1.0" encoding="utf-8"?>
<!-- Generator: Adobe Illustrator 19.2.1, SVG Export Plug-In . SVG Version: 6.00 Build 0)  -->
<svg version="1.1" id="Layer_1" xmlns="http://www.w3.org/2000/svg" xmlns:xlink="http://www.w3.org/1999/xlink" x="0px" y="0px"
	 viewBox="0 0 284.1 66.2" style="enable-background:new 0 0 284.1 66.2;" xml:space="preserve">
<style type="text/css">
	.st0{fill:url(#SVGID_1_);}
	.st1{opacity:0.3;fill:url(#SVGID_2_);}
	.st2{fill:#FFFFFF;}
	.st3{fill:#F68E1E;}
	.st4{fill:#FBB116;}
</style>
<g>
	<g>
		<linearGradient id="SVGID_1_" gradientUnits="userSpaceOnUse" x1="29.6363" y1="32.5801" x2="29.6363" y2="66.2344">
			<stop  offset="0" style="stop-color:#FFCA27"/>
			<stop  offset="1" style="stop-color:#FBB116"/>
		</linearGradient>
		<path class="st0" d="M57.8,33.3c-1.6,0.7-3.9,1.3-6.7,1.8c-5.8,1.1-13.4,1.6-21.6,1.6c-8.2,0-15.8-0.6-21.6-1.7
			c-2.9-0.5-5.1-1.2-6.7-1.9C0.7,33,0.3,32.8,0,32.6c0.6,12,7.9,21.4,17.9,25.7c0.8,0.4,1.4,7.9,2.9,7.9c1.2,0,3-5.8,3.8-5.7
			c0.9,0.2,1.8,0.3,2.7,0.4c0.8,0.1,1.5,0.1,2.3,0.1c0.8,0,1.5,0,2.3-0.1c0.5,0,1.7-0.2,2.1-0.2c0.8-0.1,2.6,5.5,3.5,5.5
			c1.4,0,2.2-7.2,3.1-7.5c10.5-4.1,18-12.7,18.5-26.1C58.9,32.8,58.4,33.1,57.8,33.3z"/>
		<linearGradient id="SVGID_2_" gradientUnits="userSpaceOnUse" x1="0.2979" y1="16.4094" x2="58.9746" y2="16.4094">
			<stop  offset="0" style="stop-color:#FFCA27"/>
			<stop  offset="1" style="stop-color:#FBB116"/>
		</linearGradient>
		<path class="st1" d="M51.1,9.2C46.1,3.8,39.3,0.6,31.9,0c-0.7-0.1-4,0-4.6,0C20,0.6,13.2,3.8,8.1,9.2C3.3,14.4,0.5,20.3,0.3,27h0
			l0,1c0,0.1,0,0.2,0,0.2c0.2,0.5,1.9,1.8,8.1,2.9c5.7,1,13.2,1.6,21.3,1.6c8.1,0,15.6-0.6,21.3-1.6c6.2-1.1,7.9-2.4,8.1-2.9
			c0-0.1,0-0.2,0-0.3l0-1h0C58.7,20.3,56,14.4,51.1,9.2z"/>
		<path class="st2" d="M24.7,45.1c0-2.1-1.5-3.7-3.4-3.7c-1.9,0-3.5,1.7-3.5,3.7c0,0.4,0,1.7,0,2.1c0,2.1,1.5,3.7,3.4,3.7
			c1.9,0,3.4-1.7,3.4-3.7C24.7,46.8,24.7,45.4,24.7,45.1z"/>
		<path class="st2" d="M40.7,45.1c0-2.1-1.9-3.7-3.6-3.7c-1.7,0-3.4,1.7-3.4,3.7c0,0.4-0.1,1.7-0.1,2.1c0,2.1,1.9,3.7,3.6,3.7
			c1.7,0,3.6-1.7,3.6-3.7C40.7,46.8,40.7,45.4,40.7,45.1z"/>
		<path class="st3" d="M38.7,46.6c0-0.9-0.8-1.6-1.6-1.6c-0.7,0-1.4,0.7-1.4,1.6c0,0.2-0.1,0.7-0.1,0.9c0,0.9,0.8,1.6,1.5,1.6
			c0.7,0,1.5-0.7,1.5-1.6C38.7,47.3,38.7,46.7,38.7,46.6z"/>
		<path class="st3" d="M22.7,46.6c0-0.9-0.8-1.6-1.6-1.6c-0.7,0-1.4,0.7-1.4,1.6c0,0.2-0.1,0.7-0.1,0.9c0,0.9,0.8,1.6,1.5,1.6
			c0.7,0,1.5-0.7,1.5-1.6C22.7,47.3,22.7,46.7,22.7,46.6z"/>
	</g>
	<g>
		<path class="st4" d="M88.1,46l-6.8-11.2V46h-5.5V20.7h6.7c3,0,5.4,0.8,7.3,2.4c1.9,1.6,2.8,3.8,2.8,6.5c0,3.1-1.4,5.4-4.3,6.9
			l5.8,9.4H88.1z M82.5,25.6h-1.2v8.2h1.2c1.4,0,2.6-0.4,3.4-1.1c0.8-0.7,1.3-1.7,1.3-3c0-1.3-0.4-2.3-1.3-3
			C85.1,26,84,25.6,82.5,25.6z"/>
		<path class="st4" d="M104.2,46V20.7h12.5v4.9h-7v4.9h6.5v4.9h-6.5v5.8h7V46H104.2z"/>
		<path class="st4" d="M129.9,42.8c-2.5-2.5-3.7-5.6-3.7-9.4c0-3.8,1.2-6.9,3.7-9.4c2.5-2.5,5.6-3.8,9.5-3.8c1.4,0,2.7,0.2,3.9,0.5
			c1.3,0.3,2.2,0.7,2.7,1l0.9,0.5l-2.7,4.3c-0.1-0.1-0.3-0.3-0.6-0.4c-0.2-0.2-0.8-0.4-1.6-0.7c-0.8-0.3-1.7-0.4-2.5-0.4
			c-2.3,0-4.2,0.8-5.6,2.3c-1.5,1.5-2.2,3.5-2.2,6c0,2.4,0.7,4.4,2.2,6c1.5,1.5,3.3,2.3,5.6,2.3c0.9,0,1.7-0.1,2.5-0.4
			c0.8-0.2,1.4-0.5,1.7-0.7l0.5-0.4l2.7,4.3c-0.2,0.2-0.5,0.4-0.9,0.6c-0.4,0.2-1.3,0.5-2.6,0.9c-1.3,0.4-2.7,0.6-4,0.6
			C135.6,46.5,132.4,45.3,129.9,42.8z"/>
		<path class="st4" d="M155.1,46l10.5-26.1L176.2,46h-5.4l-1.3-3.2h-7.6l-1.3,3.2H155.1z M167.8,38.4l-2.1-5.5l-2.1,5.5H167.8z"/>
		<path class="st4" d="M194,41.7c1,0,1.7-0.2,2.3-0.7c0.5-0.5,0.8-1.1,0.8-1.9c0-0.7-0.3-1.4-0.8-1.9c-0.6-0.5-1.3-1-2.1-1.3
			c-0.8-0.4-1.8-0.7-2.8-1.2c-1-0.4-1.9-0.9-2.8-1.4c-0.8-0.5-1.5-1.3-2.1-2.3s-0.8-2.1-0.8-3.5c0-2.1,0.7-3.9,2.2-5.2
			c1.5-1.4,3.4-2.1,5.8-2.1c1.1,0,2.1,0.1,3.1,0.4c1,0.3,1.8,0.6,2.4,1c0.6,0.4,1.2,0.8,1.7,1.2c0.5,0.4,0.8,0.7,1.1,1l0.4,0.4
			l-3.5,3.3c-0.2-0.2-0.4-0.4-0.7-0.7c-0.3-0.3-0.9-0.7-1.8-1.1c-0.9-0.5-1.8-0.7-2.6-0.7c-0.8,0-1.3,0.2-1.8,0.6
			c-0.4,0.4-0.7,1-0.7,1.7c0,0.7,0.3,1.2,0.8,1.7c0.6,0.5,1.2,0.9,2.1,1.2c0.8,0.3,1.7,0.7,2.7,1.1c1,0.5,1.9,1,2.8,1.5
			c0.9,0.5,1.6,1.3,2.2,2.3c0.6,1,0.9,2.2,0.9,3.6c0,2.3-0.8,4.2-2.3,5.6c-1.6,1.4-3.6,2.1-6.2,2.1c-1.2,0-2.3-0.1-3.4-0.4
			c-1.1-0.3-2-0.7-2.7-1.1c-0.7-0.4-1.4-0.9-1.9-1.3c-0.6-0.4-1-0.8-1.2-1.1l-0.4-0.4l3.7-3.7c0.1,0.1,0.2,0.2,0.3,0.4
			s0.4,0.4,0.7,0.8c0.4,0.4,0.8,0.7,1.2,1c0.4,0.3,1,0.5,1.7,0.8C192.7,41.6,193.4,41.7,194,41.7z"/>
		<path class="st4" d="M211.1,25.6v-4.9h14.5v4.9h-4.5V46h-5.5V25.6H211.1z"/>
		<path class="st4" d="M235.6,46v-3.7h2.3V46H235.6z"/>
		<path class="st4" d="M260.1,19.7l9.4,26.3h-2.6l-1.9-5.5h-9.6l-1.9,5.5h-2.6L260.1,19.7z M260.1,26.6l-4,11.7h8.1L260.1,26.6z"/>
		<path class="st4" d="M281.7,46V20.7h2.5V46H281.7z"/>
	</g>
</g>
</svg>
