<?xml version="1.0" encoding="UTF-8"?>
<svg width="1177px" height="644px" viewBox="0 0 1177 644" version="1.1" xmlns="http://www.w3.org/2000/svg" xmlns:xlink="http://www.w3.org/1999/xlink">
    <!-- Generator: Sketch 63.1 (92452) - https://sketch.com -->
    <title>undraw_checking_boxes_2ibd</title>
    <desc>Created with Sketch.</desc>
    <g id="illustrations" stroke="none" stroke-width="1" fill="none" fill-rule="evenodd">
        <g id="Bitflow" transform="translate(-1307.000000, -580.000000)">
            <g id="undraw_checking_boxes_2ibd" transform="translate(1295.000000, 451.000000)">
                <path d="M470.33,256.92 L419.33,320.09 L459.98,249.66 C453.77348,245.84542 447.175752,242.707477 440.3,240.3 C444.03463,202.549809 426.375311,165.874431 394.534905,145.25374 C362.694498,124.633049 322.004261,123.51971 289.083918,142.36846 C256.163574,161.21721 236.525204,196.872074 238.19,234.77 L330.31,240.83 L239.81,248.96 C244.964822,276.404402 261.198669,300.512822 284.69,315.61 L335.12,282.89 L293.18,320.49 C297.340583,322.631175 301.64417,324.482251 306.06,326.03 C301.484681,372.568761 329.350847,416.194353 373.5,431.61 C370.02504,466.72089 385.061756,501.111867 413.196828,522.40195 C441.331901,543.692033 478.515015,548.816307 511.36,535.93 C512.257445,539.899158 513.844883,543.6799 516.05,547.1 C519.189939,552.136467 523.619624,556.241608 528.88,558.99 C529.56732,571.024858 536.46523,581.835751 547.09,587.53 C547.792197,599.557502 554.686357,610.358731 565.3,616.06 C565.989542,628.093941 572.881647,638.905458 583.5,644.61 C583.783626,650.536047 585.640616,656.2796 588.88,661.25 C597.11,674.14 611.77,679.5 621.62,673.25 C631.47,667 632.78,651.42 624.55,638.52 C621.412296,633.483792 616.991046,629.373168 611.74,626.61 C611.045203,614.561695 604.136895,603.740952 593.5,598.04 C592.799572,586.009181 585.900234,575.205773 575.28,569.51 C574.589285,557.478783 567.691848,546.672418 557.07,540.98 C556.783859,535.052926 554.923355,529.309179 551.68,524.34 C549.546784,520.945485 546.839839,517.947543 543.68,515.48 C569.517795,491.23493 580.815027,455.254968 573.473562,420.592049 C566.132096,385.92913 541.218379,357.6185 507.77,345.93 C511.122371,311.846186 497.044794,278.372919 470.34,256.93 L470.33,256.92 Z" id="Path" fill="#F2F2F2" fill-rule="nonzero"></path>
                <path d="M679.57,206.21 L670.47,211.98 L676,201.93 C674.43798,200.667139 672.49839,199.963113 670.49,199.93 L670.35,199.93 C669.717113,199.938858 669.084674,199.892011 668.46,199.79 L665.37,201.79 L666.7,199.38 C664.514576,198.618652 662.624945,197.187432 661.3,195.29 L655.78,198.79 L659.27,192.45 C656.295714,188.611891 651.754091,186.313543 646.9,186.19 C641.15,186.19 636.04,189.61 632.74,194.93 C630.7433,198.155549 627.171186,200.063729 623.38,199.93 L623.07,199.93 C616.73,199.93 611.59,207.12 611.59,215.93 C611.59,224.74 616.73,231.98 623.07,231.98 C624.464596,231.975148 625.837191,231.632 627.07,230.98 C631.436595,228.858348 636.514252,228.759646 640.96,230.71 C644.718861,232.383276 649.011139,232.383276 652.77,230.71 C657.182027,228.799157 662.206271,228.897671 666.54,230.98 C667.772665,231.632375 669.145355,231.975547 670.54,231.98 C676.88,231.98 682.02008,224.8 682.02008,215.93 C682.02955,212.536034 681.187151,209.193944 679.57,206.21 Z" id="Path" fill="#F2F2F2" fill-rule="nonzero"></path>
                <path d="M662.42,229.7 C659.109694,229.074801 655.688268,229.447224 652.59,230.77 C648.831139,232.443276 644.538861,232.443276 640.78,230.77 C636.330861,228.819279 631.250028,228.917972 626.88,231.04 C625.648206,231.694646 624.274945,232.037961 622.88,232.04 C617.24,232.04 612.56,226.37 611.58,218.89 C612.701563,218.077677 613.658539,217.059618 614.4,215.89 C617.7,210.57 622.82,207.16 628.56,207.16 C634.3,207.16 639.35,210.53 642.65,215.79 C644.652595,219.026348 648.204459,220.976837 652.01,220.93 L652.16,220.93 C656.65,220.86 660.5,224.46 662.42,229.7 Z" id="Path" fill="#000000" fill-rule="nonzero" opacity="0.03"></path>
                <path d="M1016.57,167.21 L1007.47,172.98 L1013,162.93 C1011.43798,161.667139 1009.49839,160.963113 1007.49,160.93 L1007.35,160.93 C1006.71711,160.938858 1006.08467,160.892011 1005.46,160.79 L1002.37,162.79 L1003.7,160.38 C1001.51458,159.618652 999.624945,158.187432 998.3,156.29 L992.78,159.79 L996.27,153.45 C993.295714,149.611891 988.754091,147.313543 983.9,147.19 C978.15,147.19 973.04,150.61 969.74,155.93 C967.7433,159.155549 964.171186,161.063729 960.38,160.93 L960.07,160.93 C953.73,160.93 948.59,168.12 948.59,176.93 C948.59,185.74 953.73,192.98 960.07,192.98 C961.464596,192.975148 962.837191,192.632 964.07,191.98 C968.436595,189.858348 973.514252,189.759646 977.96,191.71 C981.718861,193.383276 986.011139,193.383276 989.77,191.71 C994.182027,189.799157 999.206271,189.897671 1003.54,191.98 C1004.77266,192.632375 1006.14535,192.975547 1007.54,192.98 C1013.88,192.98 1019.02008,185.8 1019.02008,176.93 C1019.02955,173.536034 1018.18715,170.193944 1016.57,167.21 Z" id="Path" fill="#F2F2F2" fill-rule="nonzero"></path>
                <path d="M999.42,190.7 C996.109694,190.074801 992.688268,190.447224 989.59,191.77 C985.831139,193.443276 981.538861,193.443276 977.78,191.77 C973.330861,189.819279 968.250028,189.917972 963.88,192.04 C962.648206,192.694646 961.274945,193.037961 959.88,193.04 C954.24,193.04 949.56,187.37 948.58,179.89 C949.701563,179.077677 950.658539,178.059618 951.4,176.89 C954.7,171.57 959.82,168.16 965.56,168.16 C971.3,168.16 976.35,171.53 979.65,176.79 C981.652595,180.026348 985.204459,181.976837 989.01,181.93 L989.16,181.93 C993.65,181.86 997.5,185.46 999.42,190.7 Z" id="Path" fill="#000000" fill-rule="nonzero" opacity="0.03"></path>
                <path d="M791.84,261.61 L806.5,270.93 L797.62,254.78 C800.137972,252.775683 803.251914,251.66733 806.47,251.63 L806.7,251.63 C807.704524,251.645039 808.708416,251.57142 809.7,251.41 L814.65,254.55 L812.5,250.69 C816.006783,249.456912 819.038896,247.155724 821.17,244.11 L830.04,249.73 L824.5,239.54 C829.69,233.32 836.68,229.54 844.37,229.54 C853.6,229.54 861.81,235.02 867.12,243.54 C870.304635,248.736838 876.027691,251.831103 882.12,251.65 L882.62,251.65 C892.8,251.65 901.05,263.19 901.05,277.43 C901.05,291.67 892.8,303.22 882.62,303.22 C880.377996,303.211297 878.171567,302.658832 876.19,301.61 C869.176148,298.202246 861.019955,298.045044 853.88,301.18 C847.834875,303.88209 840.925125,303.88209 834.88,301.18 C827.79294,298.110071 819.722395,298.266957 812.76,301.61 C810.798361,302.631015 808.621421,303.169251 806.41,303.18 C796.22,303.18 787.97,291.64 787.97,277.39 C787.915327,271.888581 789.246208,266.46189 791.84,261.61 Z" id="Path" fill="#F2F2F2" fill-rule="nonzero"></path>
                <path d="M819.39,299.38 C824.710837,298.377309 830.209548,298.975903 835.19,301.1 C841.235125,303.80209 848.144875,303.80209 854.19,301.1 C861.333347,297.964678 869.492714,298.12187 876.51,301.53 C878.487999,302.578763 880.691181,303.131275 882.93,303.14 C891.98,303.14 899.5,294.03 901.07,282.01 C899.264206,280.688383 897.729632,279.031587 896.55,277.13 C891.24,268.59 883.03,263.13 873.8,263.13 C864.57,263.13 856.47,268.55 851.16,277.01 C847.946501,282.193632 842.258588,285.321984 836.16,285.26 L835.93,285.26 C828.67,285.19 822.43,290.97 819.39,299.38 Z" id="Path" fill="#000000" fill-rule="nonzero" opacity="0.03"></path>
                <ellipse id="Oval" fill="#3F3D56" fill-rule="nonzero" cx="600.5" cy="751.22" rx="588.5" ry="21"></ellipse>
                <rect id="Rectangle" fill="#F2F2F2" fill-rule="nonzero" x="183.5" y="284.97" width="834" height="456" rx="20.42"></rect>
                <path d="M1017.5,305.39 L1017.5,316.97 L183.5,316.97 L183.5,305.39 C183.5,294.112345 192.642345,284.97 203.92,284.97 L997.08,284.97 C1008.35765,284.97 1017.5,294.112345 1017.5,305.39 Z" id="Path" fill="#3F3D56" fill-rule="nonzero"></path>
                <circle id="Oval" fill="#4285F4" fill-rule="nonzero" cx="205" cy="301.47" r="6"></circle>
                <circle id="Oval" fill="#4285F4" fill-rule="nonzero" cx="220" cy="301.47" r="6"></circle>
                <circle id="Oval" fill="#4285F4" fill-rule="nonzero" cx="235" cy="301.47" r="6"></circle>
                <g id="Group" transform="translate(0.500000, 0.610000)"></g>
                <g id="Group" transform="translate(0.500000, 0.610000)"></g>
                <rect id="Rectangle" fill="#FFFFFF" fill-rule="nonzero" x="310.5" y="369.97" width="96" height="78" rx="9.29"></rect>
                <rect id="Rectangle" fill="#4285F4" fill-rule="nonzero" x="422.5" y="369.97" width="96" height="78" rx="9.29"></rect>
                <rect id="Rectangle" fill="#FFFFFF" fill-rule="nonzero" x="534.5" y="369.97" width="96" height="78" rx="9.29"></rect>
                <rect id="Rectangle" fill="#FFFFFF" fill-rule="nonzero" x="646.5" y="369.97" width="96" height="78" rx="9.29"></rect>
                <rect id="Rectangle" fill="#4285F4" fill-rule="nonzero" x="758.5" y="369.97" width="96" height="78" rx="9.29"></rect>
                <rect id="Rectangle" fill="#FFFFFF" fill-rule="nonzero" x="310.5" y="500.97" width="96" height="78" rx="9.29"></rect>
                <rect id="Rectangle" fill="#FFFFFF" fill-rule="nonzero" x="422.5" y="500.97" width="96" height="78" rx="9.29"></rect>
                <rect id="Rectangle" fill="#4285F4" fill-rule="nonzero" x="534.5" y="500.97" width="96" height="78" rx="9.29"></rect>
                <rect id="Rectangle" fill="#FFFFFF" fill-rule="nonzero" x="646.5" y="500.97" width="96" height="78" rx="9.29"></rect>
                <rect id="Rectangle" fill="#FFFFFF" fill-rule="nonzero" x="758.5" y="500.97" width="96" height="78" rx="9.29"></rect>
                <rect id="Rectangle" fill="#FFFFFF" fill-rule="nonzero" x="310.5" y="631.97" width="96" height="78" rx="9.29"></rect>
                <rect id="Rectangle" fill="#FFFFFF" fill-rule="nonzero" x="422.5" y="631.97" width="96" height="78" rx="9.29"></rect>
                <rect id="Rectangle" fill="#FFFFFF" fill-rule="nonzero" x="534.5" y="631.97" width="96" height="78" rx="9.29"></rect>
                <rect id="Rectangle" fill="#4285F4" fill-rule="nonzero" opacity="0.3" x="646.5" y="631.97" width="96" height="78" rx="9.29"></rect>
                <rect id="Rectangle" fill="#FFFFFF" fill-rule="nonzero" x="758.5" y="631.97" width="96" height="78" rx="9.29"></rect>
                <path d="M540.72,355.61 L535.66,350.52 C535.156615,350.011285 534.470672,349.72504 533.755,349.72504 C533.039328,349.72504 532.353385,350.011285 531.85,350.52 L500.09,382.01 L486.66,368.47 C486.160432,367.965565 485.479945,367.681764 484.77,367.681764 C484.060055,367.681764 483.379568,367.965565 482.88,368.47 L477.77,373.52 C476.725426,374.579105 476.725426,376.280895 477.77,377.34 L498.16,397.89 C499.219105,398.934574 500.920895,398.934574 501.98,397.89 L540.72,359.43 C541.231809,358.926237 541.520027,358.238141 541.520027,357.52 C541.520027,356.801859 541.231809,356.113763 540.72,355.61 L540.72,355.61 Z" id="Path" fill="#3ACC6C" fill-rule="nonzero"></path>
                <path d="M880.72,355.61 L875.66,350.52 C875.156615,350.011285 874.470672,349.72504 873.755,349.72504 C873.039328,349.72504 872.353385,350.011285 871.85,350.52 L840.09,382.01 L826.66,368.47 C826.160432,367.965565 825.479945,367.681764 824.77,367.681764 C824.060055,367.681764 823.379568,367.965565 822.88,368.47 L817.77,373.52 C816.725426,374.579105 816.725426,376.280895 817.77,377.34 L838.16,397.89 C839.219105,398.934574 840.920895,398.934574 841.98,397.89 L880.72,359.43 C881.231809,358.926237 881.520027,358.238141 881.520027,357.52 C881.520027,356.801859 881.231809,356.113763 880.72,355.61 L880.72,355.61 Z" id="Path" fill="#3ACC6C" fill-rule="nonzero"></path>
                <path d="M652.72,485.61 L647.66,480.52 C647.156615,480.011285 646.470672,479.72504 645.755,479.72504 C645.039328,479.72504 644.353385,480.011285 643.85,480.52 L612.09,512.01 L598.66,498.47 C598.160432,497.965565 597.479945,497.681764 596.77,497.681764 C596.060055,497.681764 595.379568,497.965565 594.88,498.47 L589.77,503.52 C588.725426,504.579105 588.725426,506.280895 589.77,507.34 L610.16,527.89 C611.219105,528.934574 612.920895,528.934574 613.98,527.89 L652.72,489.43 C653.231809,488.926237 653.520027,488.238141 653.520027,487.52 C653.520027,486.801859 653.231809,486.113763 652.72,485.61 L652.72,485.61 Z" id="Path" fill="#3ACC6C" fill-rule="nonzero"></path>
                <path d="M763.72,621.61 L758.66,616.52 C758.156615,616.011285 757.470672,615.72504 756.755,615.72504 C756.039328,615.72504 755.353385,616.011285 754.85,616.52 L723.09,648.01 L709.66,634.47 C709.160432,633.965565 708.479945,633.681764 707.77,633.681764 C707.060055,633.681764 706.379568,633.965565 705.88,634.47 L700.77,639.47 C699.725426,640.529105 699.725426,642.230895 700.77,643.29 L721.16,663.84 C722.219105,664.884574 723.920895,664.884574 724.98,663.84 L763.72,625.38 C764.753281,624.335734 764.753281,622.654266 763.72,621.61 Z" id="Path" fill="#3ACC6C" fill-rule="nonzero"></path>
                <path d="M1024.4,747.39 C1021.4,741.88 1024.8,735.12 1028.69,730.21 C1032.58,725.3 1037.3,720.21 1037.2,713.92 C1037.05,704.92 1027.5,699.6 1019.87,694.83 C1014.20445,691.29341 1008.98089,687.093753 1004.31,682.32 C1002.35246,680.484577 1000.7343,678.317999 999.53,675.92 C997.95,672.4 997.99,668.4 998.09,664.55 C998.43,651.71 999.066667,638.88 1000,626.06" id="Path" stroke="#3F3D56" stroke-width="4"></path>
                <path d="M985.5,625.36 C985.716086,620.582714 988.355703,616.246201 992.5,613.86 L995.64,620.08 L995.54,612.55 C997.041997,612.109797 998.606365,611.920586 1000.17,611.99 C1007.88364,612.367008 1013.8351,618.919112 1013.47099,626.633373 C1013.10688,634.347634 1006.56473,640.31004 998.849872,639.958823 C991.135014,639.607606 985.16168,633.075435 985.5,625.36 L985.5,625.36 Z" id="Path" fill="#57B894" fill-rule="nonzero"></path>
                <path d="M1010.5,720.35 C1013.53407,726.230638 1020.27113,729.183899 1026.65175,727.430287 C1033.03237,725.676675 1037.31384,719.695144 1036.91636,713.089883 C1036.51887,706.484622 1031.55099,701.059689 1025.00612,700.083894 C1018.46126,699.108099 1012.12697,702.847955 1009.82,709.05 L1018.59,716.18 L1008.94,713.95 C1008.94356,716.177046 1009.47836,718.371111 1010.5,720.35 Z" id="Path" fill="#57B894" fill-rule="nonzero"></path>
                <path d="M1017.5,693.1 C1024.64375,693.46983 1030.91729,688.394786 1032.04785,681.331375 C1033.17841,674.267963 1028.8023,667.488356 1021.9,665.61 L1021.98,671.39 L1018.8,665.1 L1018.8,665.1 C1015.0809,664.91811 1011.44256,666.225278 1008.68957,668.732431 C1005.93658,671.239584 1004.29577,674.74015 1004.13,678.46 C1004.04784,680.079487 1004.25093,681.700812 1004.73,683.25 C1006.47807,688.901574 1011.58978,692.844431 1017.5,693.1 Z" id="Path" fill="#57B894" fill-rule="nonzero"></path>
                <path d="M983.38,670.43 C989.285778,670.647067 994.69181,667.132317 996.889852,661.646522 C999.087895,656.160728 997.604491,649.885526 993.182778,645.964584 C988.761065,642.043642 982.353475,641.32153 977.17,644.16 L979.65,650.96 L974.55,646.06 C971.816954,648.56309 970.187912,652.04773 970.02,655.75 C969.95342,657.050054 970.071257,658.352986 970.37,659.62 C971.793683,665.731976 977.110658,670.149847 983.38,670.43 L983.38,670.43 Z" id="Path" fill="#57B894" fill-rule="nonzero"></path>
                <path d="M987.38,629.1 C990.62,629.45 993.77,630.46 997.02,630.66 C1000.27,630.86 1003.84,630.09 1005.9,627.56 C1007,626.2 1007.56,624.48 1008.49,622.99 C1009.37821,621.605781 1010.59411,620.462002 1012.03,619.66 C1014.34022,624.489131 1013.69436,630.212905 1010.36611,634.405804 C1007.03787,638.598703 1001.60999,640.526596 996.382587,639.372514 C991.155189,638.218433 987.043539,634.184444 985.79,628.98 C986.323333,629 986.853333,629.04 987.38,629.1 Z" id="Path" fill="#000000" fill-rule="nonzero" opacity="0.1"></path>
                <path d="M983.38,670.43 C988.304004,670.67984 992.996436,668.321217 995.73366,664.220506 C998.470885,660.119795 998.849336,654.881589 996.73,650.43 C995.616399,651.178692 994.658692,652.136399 993.91,653.25 C992.91,654.76 992.3,656.51 991.13,657.89 C988.94,660.46 985.21,661.3 981.82,661.15 C978.43,661 975.16,660.03 971.82,659.72 C971.35,659.72 970.88,659.65 970.4,659.64 C971.828319,665.733766 977.127842,670.139147 983.38,670.43 L983.38,670.43 Z" id="Path" fill="#000000" fill-rule="nonzero" opacity="0.1"></path>
                <path d="M1017.5,693.1 C1022.37665,693.346904 1027.02962,691.035129 1029.77856,686.999537 C1032.5275,682.963944 1032.97521,677.787653 1030.96,673.34 C1029.79563,674.100447 1028.77912,675.066131 1027.96,676.19 C1026.87,677.73 1026.19,679.5 1024.96,680.92 C1022.59,683.56 1018.61,684.49 1015.03,684.41 C1011.45,684.33 1008.2,683.48 1004.75,683.21 C1006.48169,688.870676 1011.58651,692.830415 1017.5,693.1 Z" id="Path" fill="#000000" fill-rule="nonzero" opacity="0.1"></path>
                <path d="M1010.5,720.35 C1013.66183,727.416483 1021.95352,730.58183 1029.02,727.42 C1036.08648,724.25817 1039.25183,715.966483 1036.09,708.9 C1034.92926,709.65444 1033.89061,710.581808 1033.01,711.65 C1031.67,713.27 1030.79,715.12 1029.25,716.65 C1026.38,719.47 1021.75,720.65 1017.62,720.74 C1015.24103,720.751269 1012.8635,720.621039 1010.5,720.35 L1010.5,720.35 Z" id="Path" fill="#000000" fill-rule="nonzero" opacity="0.1"></path>
                <path d="M1045.57,741.04 C1045.57,741.04 1034.49,740.7 1031.15,738.32 C1027.81,735.94 1014.15,733.11 1013.29,736.92 C1012.43,740.73 996.64,755.92 1009.14,755.98 C1021.64,756.04 1038.2,753.98 1041.54,751.98 C1044.88,749.98 1045.57,741.04 1045.57,741.04 Z" id="Path" fill="#656380" fill-rule="nonzero"></path>
                <path d="M1008.92,754.66 C1021.43,754.76 1037.98,752.71 1041.31,750.66 C1043.85,749.11 1044.86,743.57 1045.2,741.01 L1045.57,741.01 C1045.57,741.01 1044.87,749.95 1041.57,752.01 C1038.27,754.07 1021.68,756.09 1009.17,756.01 C1005.56,756.01 1004.32,754.7 1004.39,752.8 C1004.86,753.92 1006.23,754.61 1008.92,754.66 Z" id="Path" fill="#000000" fill-rule="nonzero" opacity="0.2"></path>
                <path d="M196.29,742.47 C191.9,734.35 196.88,724.39 202.6,717.14 C208.32,709.89 215.3,702.36 215.16,693.14 C214.94,679.87 200.86,672.04 189.6,665 C181.251721,659.78115 173.551353,653.591317 166.66,646.56 C163.793173,643.846372 161.424014,640.651392 159.66,637.12 C157.33,631.93 157.4,626.03 157.55,620.34 C158.03,601.406667 158.963333,582.49 160.35,563.59" id="Path" stroke="#3F3D56" stroke-width="4"></path>
                <path d="M138.91,562.54 C139.222765,555.480631 143.118385,549.069639 149.24,545.54 L153.88,554.71 L153.74,543.61 C162.37723,541.066537 171.667977,544.398094 176.720753,551.850638 C181.773528,559.303181 181.42929,569.167195 175.869277,576.249369 C170.309264,583.331543 160.80887,586.00732 152.369963,582.867928 C143.931055,579.728537 138.489409,571.494111 138.91,562.5 L138.91,562.54 Z" id="Path" fill="#57B894" fill-rule="nonzero"></path>
                <path d="M175.82,702.61 C180.29528,711.309808 190.252486,715.685877 199.68785,713.099625 C209.123214,710.513373 215.457436,701.671792 214.871253,691.905975 C214.285069,682.140158 206.938722,674.11974 197.261743,672.680688 C187.584765,671.241635 178.222503,676.777336 174.82,685.95 L187.74,696.46 L173.5,693.17 C173.509578,696.456639 174.305036,699.693329 175.82,702.61 L175.82,702.61 Z" id="Path" fill="#57B894" fill-rule="nonzero"></path>
                <path d="M186.04,662.43 C196.542626,662.904983 205.733215,655.4317 207.410177,645.052945 C209.087138,634.674189 202.717783,624.686787 192.6,621.83 L192.71,630.35 L188.02,621.08 L187.97,621.08 C180.51248,620.615865 173.383622,624.206766 169.317535,630.475495 C165.251448,636.744224 164.879287,644.717723 168.343786,651.33794 C171.808285,657.958157 178.57167,662.197475 186.04,662.43 L186.04,662.43 Z" id="Path" fill="#57B894" fill-rule="nonzero"></path>
                <path d="M135.8,629 C147.215956,629.525938 156.900295,620.705313 157.44,609.29 C157.59687,605.904765 156.909587,602.533643 155.44,599.48 C152.994023,594.286737 148.498548,590.344549 143.030345,588.597683 C137.562142,586.850817 131.613769,587.456624 126.61,590.27 L130.26,600.27 L122.74,593.05 C116.584066,598.697191 114.425919,607.491146 117.268136,615.346596 C120.110353,623.202046 127.395803,628.579169 135.74,628.98 L135.8,629 Z" id="Path" fill="#57B894" fill-rule="nonzero"></path>
                <path d="M141.7,568.05 C146.47,568.58 151.12,570.05 155.91,570.36 C160.7,570.67 165.97,569.51 169,565.78 C170.63,563.78 171.45,561.24 172.83,559.05 C174.137738,557.010846 175.926961,555.324649 178.04,554.14 C181.678405,561.302851 180.843649,569.924036 175.898614,576.255786 C170.953579,582.587535 162.791488,585.486143 154.960536,583.691536 C147.129583,581.89693 141.044278,575.73327 139.35,567.88 C140.13,567.91 140.92,567.97 141.7,568.05 Z" id="Path" fill="#000000" fill-rule="nonzero" opacity="0.1"></path>
                <path d="M135.8,629 C147.215956,629.525938 156.900295,620.705313 157.44,609.29 C157.59687,605.904765 156.909587,602.533643 155.44,599.48 C153.798729,600.586259 152.386259,601.998729 151.28,603.64 C149.81,605.87 148.91,608.44 147.18,610.48 C143.96,614.27 138.45,615.48 133.46,615.28 C128.47,615.08 123.64,613.64 118.67,613.18 C117.98,613.12 117.28,613.07 116.58,613.05 C118.693169,622.070114 126.544918,628.586003 135.8,629 L135.8,629 Z" id="Path" fill="#000000" fill-rule="nonzero" opacity="0.1"></path>
                <path d="M186.04,662.43 C193.222581,662.768671 200.065918,659.35388 204.114094,653.411116 C208.162271,647.468353 208.834676,639.849958 205.89,633.29 C204.188321,634.414517 202.707179,635.841429 201.52,637.5 C199.91,639.77 198.91,642.38 197.02,644.5 C193.53,648.39 187.66,649.76 182.37,649.64 C177.25,649.52 172.31,648.27 167.22,647.88 C169.804417,656.208562 177.329036,662.025948 186.04,662.43 Z" id="Path" fill="#000000" fill-rule="nonzero" opacity="0.1"></path>
                <path d="M175.82,702.61 C180.85359,712.381823 192.647053,716.515364 202.679743,712.024186 C212.712433,707.533008 217.4853,695.983477 213.55,685.72 C211.847111,686.825273 210.314346,688.172759 209,689.72 C207,692.12 205.74,694.84 203.46,697.08 C199.23,701.23 192.4,702.94 186.32,703.08 C182.813799,703.130178 179.307695,702.973238 175.82,702.61 L175.82,702.61 Z" id="Path" fill="#000000" fill-rule="nonzero" opacity="0.1"></path>
                <path d="M227.5,733.12 C227.5,733.12 211.17,732.62 206.24,729.12 C201.31,725.62 181.12,721.43 179.9,727.05 C178.68,732.67 155.35,755.05 173.79,755.16 C192.23,755.27 216.64,752.29 221.55,749.29 C226.46,746.29 227.5,733.12 227.5,733.12 Z" id="Path" fill="#656380" fill-rule="nonzero"></path>
                <path d="M173.5,753.19 C191.94,753.34 216.35,750.32 221.26,747.33 C225,745.05 226.5,736.87 226.99,733.1 L227.54,733.1 C227.54,733.1 226.54,746.27 221.59,749.26 C216.64,752.25 192.27,755.26 173.83,755.13 C168.51,755.13 166.67,753.19 166.77,750.39 C167.5,752.1 169.5,753.16 173.5,753.19 Z" id="Path" fill="#000000" fill-rule="nonzero" opacity="0.2"></path>
                <path d="M873.26,692.61 C873.0926,693.029555 872.984884,693.470518 872.94,693.92 C871.35,704.39 862.2,712.12 858.86,722.17 C856.718603,728.703224 857.140417,735.80614 860.04,742.04 C860.561403,742.913328 860.872916,743.89579 860.95,744.91 C860.95,745.91 860.15,747 859.14,746.91 C856.72,746.75 854.81,744.91 852.79,743.61 C850.263811,742.05328 848.068753,740.014527 846.33,737.61 C844.588894,735.169709 843.900732,732.132428 844.42,729.18 C845.62,723.72 849.79,718.85 851.09,713.41 L854.5,699.3 C854.964791,696.639836 855.913845,694.087559 857.3,691.77 C857.835359,690.853532 858.668134,690.14779 859.66,689.77 C860.241972,689.628093 860.842998,689.580821 861.44,689.63 C865.39,689.8 869.5,691.28 873.26,692.61 Z" id="Path" fill="#FFC1C7" fill-rule="nonzero"></path>
                <path d="M859.25,740.38 C859.610097,740.300749 859.98551,740.328557 860.33,740.46 C860.787719,740.772947 861.137105,741.22016 861.33,741.74 C862.408324,743.739882 864.044705,745.383212 866.04,746.47 C866.846954,746.827832 867.617239,747.26321 868.34,747.77 C869.070326,748.294597 869.487539,749.151574 869.45,750.05 C869.29,751.36 867.86,752.05 866.6,752.44 C863.895272,753.230564 861.060943,753.478653 858.26,753.17 C857.211259,753.108819 856.188024,752.822313 855.26,752.33 C854.350893,751.700784 853.567434,750.90715 852.95,749.99 C850.759439,746.961423 848.281247,744.15169 845.55,741.6 C844.160257,740.504638 842.862584,739.297267 841.67,737.99 C840.472257,736.660449 839.881728,734.892483 840.04,733.11 C840.43,730.51 842.89,728.81 844.44,726.68 C846.93,729.88 849.44,733.13 850.96,736.89 C851.459921,738.401353 852.081973,739.86953 852.82,741.28 C853.53,742.45 854.55,743.8 855.82,743.04 C857.09,742.28 857.4,740.7 859.25,740.38 Z" id="Path" fill="#FF6584" fill-rule="nonzero"></path>
                <path d="M889.31,615.88 C890.057525,617.758755 890.362071,619.784498 890.2,621.8 L890.11,636.73 C890.167206,639.633982 890.013469,642.538286 889.65,645.42 C888.86,650.61 886.73,655.52 885.8,660.69 C884.92,665.54 885.09,670.58 883.66,675.3 C881.44,682.61 875.56,688.4 873.49,695.76 C873.413511,696.20569 873.208439,696.619311 872.9,696.95 C872.657846,697.143985 872.367475,697.26843 872.06,697.31 C870.404142,697.46372 868.738256,697.152016 867.25,696.41 L856.5,692.19 C855.76,692.51 855.25,691.66 855.29,690.84 C855.41628,690.035938 855.790333,689.291327 856.36,688.71 C857.669261,687.039561 858.827168,685.25585 859.82,683.38 C862.82082,677.371725 864.524361,670.799462 864.82,664.09 C865.091897,657.417743 864.894745,650.734626 864.23,644.09 C863.863333,639.276667 863.496667,634.47 863.13,629.67 C862.96,627.38 862.83,624.9 864.13,622.99 C865.43,621.08 867.64,620.29 869.77,619.63 C876.128006,617.67484 882.679913,616.417437 889.31,615.88 Z" id="Path" fill="#3C354C" fill-rule="nonzero"></path>
                <path d="M889.31,615.88 C890.057525,617.758755 890.362071,619.784498 890.2,621.8 L890.11,636.73 C890.167206,639.633982 890.013469,642.538286 889.65,645.42 C888.86,650.61 886.73,655.52 885.8,660.69 C884.92,665.54 885.09,670.58 883.66,675.3 C881.44,682.61 875.56,688.4 873.49,695.76 C873.413511,696.20569 873.208439,696.619311 872.9,696.95 C872.657846,697.143985 872.367475,697.26843 872.06,697.31 C870.404142,697.46372 868.738256,697.152016 867.25,696.41 L856.5,692.19 C855.76,692.51 855.25,691.66 855.29,690.84 C855.41628,690.035938 855.790333,689.291327 856.36,688.71 C857.669261,687.039561 858.827168,685.25585 859.82,683.38 C862.82082,677.371725 864.524361,670.799462 864.82,664.09 C865.091897,657.417743 864.894745,650.734626 864.23,644.09 C863.863333,639.276667 863.496667,634.47 863.13,629.67 C862.96,627.38 862.83,624.9 864.13,622.99 C865.43,621.08 867.64,620.29 869.77,619.63 C876.128006,617.67484 882.679913,616.417437 889.31,615.88 Z" id="Path" fill="#000000" fill-rule="nonzero" opacity="0.1"></path>
                <path d="M912.85,638.5 C911.368471,640.643778 910.162347,642.965316 909.26,645.41 C908.711525,647.249117 908.30697,649.128121 908.05,651.03 C906.65,659.86 905.24,668.77 905.78,677.69 C904.010874,678.109838 902.147944,677.647831 900.78,676.45 C899.433584,675.258283 898.32417,673.823169 897.51,672.22 C896.494348,670.488668 895.595674,668.691321 894.82,666.84 C893.10364,662.683958 892.236606,658.226383 892.27,653.73 C892.242221,653.364008 892.304001,652.996758 892.45,652.66 C892.590178,652.421829 892.769333,652.208871 892.98,652.03 C898.85,646.47 902.23,638.84 905.46,631.43 C906.617505,629.008119 907.515827,626.470696 908.14,623.86 C908.67,621.22 908.71,618.3 910.38,616.19 C911.88,614.31 914.38,613.52 916.72,613.19 C918.421731,612.888314 920.168691,612.959966 921.84,613.4 C923.66,613.96 927.97,616.09 928.22,618.24 C928.47,620.39 924.63,623.14 923.38,624.57 C919.541401,628.95555 916.022369,633.610832 912.85,638.5 Z" id="Path" fill="#FFC1C7" fill-rule="nonzero"></path>
                <path d="M909.28,677.61 C910.56,679.76 912.35,682.16 911.44,684.48 C910.53,686.8 907.2,687.32 905.2,685.89 C904.625235,685.450269 904.101924,684.947085 903.64,684.39 C898.117037,678.224294 893.10075,671.622859 888.64,664.65 C886.98,662.06 885.36,659.3 885.08,656.24 C885.027992,655.900147 885.076662,655.552504 885.22,655.24 C885.415986,654.953922 885.685429,654.725932 886,654.58 C888.73066,653.034613 891.63852,651.825802 894.66,650.98 C894.58748,654.40513 895.474202,657.782295 897.22,660.73 C898.496679,662.864938 899.600211,665.098755 900.52,667.41 C901.2,669.09 901.9,669.22 903.65,669.24 C905.06,669.24 906.07,669.07 906.75,670.5 C907.83,672.74 907.91,675.31 909.28,677.61 Z" id="Path" fill="#FF6584" fill-rule="nonzero"></path>
                <path d="M871.8,590.61 C884.66,590.81 897.5,591.71 910.33,592.61 L918.67,593.2 C921.127453,593.27194 923.567758,593.634461 925.94,594.28 C928.199942,595.097433 930.360306,596.167552 932.38,597.47 C933.072582,597.821203 933.685333,598.311404 934.18,598.91 C934.564432,599.519184 934.822856,600.199246 934.94,600.91 C935.412274,602.401383 935.572266,603.974065 935.41,605.53 C935.16268,606.642792 934.747961,607.711621 934.18,608.7 L928.34,620.24 C926.47,619.63 925.02,618.41 923.19,617.69 C920.986853,616.946673 918.692105,616.509257 916.37,616.39 L910.29,615.79 C910.09049,615.423585 910.030116,614.997413 910.12,614.59 C904.78,616.45 899.46,618.18 894.12,620.04 C884.32,623.45 874.5,626.87 865.06,631.19 C863.66,631.83 862.06,632.5 860.63,631.96 C860.114613,631.740343 859.643581,631.428581 859.24,631.04 C856.902823,628.815469 855.38728,625.865446 854.94,622.67 C854.496575,619.498328 854.543794,616.277311 855.08,613.12 C855.98,606.61 857.95,599.8 862.93,595.51 C865.56,593.18 868.32,590.52 871.8,590.61 Z" id="Path" fill="#3C354C" fill-rule="nonzero"></path>
                <path d="M922.96,601.85 C920.085125,603.246326 917.323432,604.864558 914.7,606.69 C914.306521,606.947703 913.941185,607.246004 913.61,607.58 C913.367021,607.857843 913.143174,608.151851 912.94,608.46 C911.648868,610.135516 910.69153,612.043402 910.12,614.08" id="Path" stroke="#000000" opacity="0.1"></path>
                <path d="M790.6,586.26 C788.8,587.77 787.74,589.95 786.47,591.93 C783.42,596.73 779.04,600.59 776.03,605.42 C774.74,607.5 773.67,609.8 771.83,611.42 C769.63,613.42 766.59,614.11 763.65,614.34 C761,614.53 758.2,614.4 755.86,615.67 C753.86,616.77 752.46,618.76 751.18,620.67 L751.18,620.73 C750.63287,621.550418 750.680849,622.630868 751.298548,623.39956 C751.916246,624.168251 752.961037,624.447693 753.88,624.09 C756.030633,623.257933 758.248794,622.612224 760.51,622.16 C762.506323,621.855751 764.478105,621.407923 766.41,620.82 C768.266629,620.077438 770.037029,619.135236 771.69,618.01 C773.143168,617.143615 774.530283,616.170963 775.84,615.1 C777.45,613.73 778.84,612.1 780.36,610.65 C782.587442,608.815356 784.925151,607.118847 787.36,605.57 C793.761092,601.08643 799.100045,595.252497 803,588.48 C803.468468,587.816318 803.716807,587.022336 803.710136,586.21 C803.56791,585.463727 803.221764,584.771436 802.71,584.21 C800.94,581.96 799.33,580.12 796.87,582.21 C794.93,583.82 792.5,584.61 790.6,586.26 Z" id="Path" fill="#FFC1C7" fill-rule="nonzero"></path>
                <path d="M840.91,537.53 C840.930063,538.169929 841.154327,538.786656 841.55,539.29 C842.21,539.96 843.3,539.82 844.24,539.76 C846.838978,539.499865 849.420854,540.395842 851.3,542.21 C853.01,544 853.68,546.53 854.08,548.98 C854.531645,551.0165 854.469789,553.133347 853.9,555.14 C852.951268,557.459989 851.120604,559.308635 848.81,560.28 C846.523099,561.237522 844.100474,561.831369 841.63,562.04 C839.579013,562.400026 837.480987,562.400026 835.43,562.04 C833,561.48 830.89,560.04 828.7,558.83 C827.167526,558.099674 825.687336,557.264352 824.27,556.33 C822.841231,555.377016 821.812661,553.932036 821.38,552.27 C821.121527,551.411097 821.410365,550.481278 822.11,549.92 C822.465444,549.754449 822.842509,549.639983 823.23,549.58 C824.887744,549.160209 826.19085,547.880031 826.64,546.23 C827.31,543.64 825.7,541.03 825.54,538.36 C825.460185,537.585837 825.624524,536.806097 826.01,536.13 C826.591139,535.392031 827.372145,534.836649 828.26,534.53 L833.26,532.29 C834.766954,531.459139 836.342801,530.759878 837.97,530.2 C839.56,529.79 839.67,530.89 839.97,532.2 C840.34,533.99 840.67,535.76 840.91,537.53 Z" id="Path" fill="#FFC1C7" fill-rule="nonzero"></path>
                <path d="M840.91,537.53 C840.930063,538.169929 841.154327,538.786656 841.55,539.29 C842.21,539.96 843.3,539.82 844.24,539.76 C846.838978,539.499865 849.420854,540.395842 851.3,542.21 C853.01,544 853.68,546.53 854.08,548.98 C854.531645,551.0165 854.469789,553.133347 853.9,555.14 C852.951268,557.459989 851.120604,559.308635 848.81,560.28 C846.523099,561.237522 844.100474,561.831369 841.63,562.04 C839.579013,562.400026 837.480987,562.400026 835.43,562.04 C833,561.48 830.89,560.04 828.7,558.83 C827.167526,558.099674 825.687336,557.264352 824.27,556.33 C822.841231,555.377016 821.812661,553.932036 821.38,552.27 C821.121527,551.411097 821.410365,550.481278 822.11,549.92 C822.465444,549.754449 822.842509,549.639983 823.23,549.58 C824.887744,549.160209 826.19085,547.880031 826.64,546.23 C827.31,543.64 825.7,541.03 825.54,538.36 C825.460185,537.585837 825.624524,536.806097 826.01,536.13 C826.591139,535.392031 827.372145,534.836649 828.26,534.53 L833.26,532.29 C834.766954,531.459139 836.342801,530.759878 837.97,530.2 C839.56,529.79 839.67,530.89 839.97,532.2 C840.34,533.99 840.67,535.76 840.91,537.53 Z" id="Path" fill="#000000" fill-rule="nonzero" opacity="0.1"></path>
                <circle id="Oval" fill="#FFC1C7" fill-rule="nonzero" cx="827.9" cy="529.24" r="12.47"></circle>
                <path d="M842.39,540.61 C844.240315,539.773646 846.224454,539.272532 848.25,539.13 C850.300166,539.005289 852.300028,539.796443 853.71,541.29 C854.88,542.66 855.27,544.51 856.2,546.04 C858.04,549.04 861.63,550.41 864.5,552.46 C865.1765,552.903603 865.760605,553.474124 866.22,554.14 C867.22,555.66 866.95,557.61 866.93,559.41 C867.027769,563.865362 868.293268,568.217023 870.6,572.03 C872.908467,575.828587 875.552352,579.412892 878.5,582.74 C879.193372,583.502554 879.772712,584.36146 880.22,585.29 C880.92,586.97 880.72,589 881.76,590.49 C879.258181,590.178288 876.718305,590.522911 874.39,591.49 C870.78,592.98 870.61,598.26 868.91,601.78 C865.77,608.29 861.41,614.12 857.26,620.04 C856.168086,621.452653 855.242019,622.986032 854.5,624.61 C853.76,623.04 854.27,621.17 854.18,619.44 C853.98,615.57 851.74,612.1 851.11,608.28 C850.894846,606.367471 850.78468,604.444587 850.78,602.52 C850.610799,599.605506 849.979597,596.736406 848.91,594.02 C847.67338,591.120301 846.187824,588.333211 844.47,585.69 C843.666929,584.122648 842.522089,582.755675 841.12,581.69 C839.46,580.61 837.17,580.3 836.12,578.62 C835.865477,578.035154 835.528745,577.489648 835.12,577 C834.770785,576.737053 834.378176,576.537363 833.96,576.41 C831.916339,575.448716 829.938667,574.35298 828.04,573.13 C826.04,572.04 823.77,571.23 821.56,571.72 C817.463332,576.474516 812.821413,580.730447 807.73,584.4 C806.15,585.56 804.45,586.75 803.67,588.55 C801.180186,587.358391 798.948103,585.690274 797.1,583.64 C796.807044,583.352645 796.569724,583.013617 796.4,582.64 C795.89,581.18 797.4,579.87 798.6,578.95 C803.092,575.562953 806.537296,570.977312 808.54,565.72 C809.83,562.33 810.68,558.43 813.62,556.3 C814.551613,555.765399 815.432,555.146116 816.25,554.45 C816.9741,553.447955 817.641802,552.406341 818.25,551.33 C819.552243,549.642356 821.740191,548.901213 823.8,549.45 C824.941524,549.896522 826.047959,550.428012 827.11,551.04 C829.88,552.29 833.06,552.04 836.11,551.7 L847.82,550.51 C848.211278,549.17989 847.885865,547.742019 846.96,546.71 C846.479214,546.256712 845.960671,545.845223 845.41,545.48 C843.876811,544.249103 842.811088,542.530536 842.39,540.61 L842.39,540.61 Z" id="Path" fill="#FF6584" fill-rule="nonzero"></path>
                <path d="M834.5,507.69 C837.366185,508.754849 839.645342,510.986751 840.77,513.83 C841.12172,515.031325 841.562955,516.204609 842.09,517.34 C843.023926,518.672885 844.115131,519.888321 845.34,520.96 C846.46,522.15 847.42,523.7 847.16,525.31 C847.06,525.91 846.8,526.47 846.72,527.06 C846.37,529.65 849.31,531.43 850.21,533.88 C851.38,537.1 848.83,540.94 850.39,543.98 C850.98,545.12 852.05,545.98 852.72,546.98 C853.39,547.98 853.46,549.78 852.33,550.39 C850.57,551.34 848.53,548.56 846.66,549.29 C846.18,549.48 845.81,549.89 845.34,550.1 C844.03,550.69 842.5,549.53 842.07,548.16 C841.796782,546.750176 841.824042,545.298572 842.15,543.9 C842.471504,542.484845 842.181016,540.999724 841.35,539.81 C840.59,538.94 839.35,538.6 838.56,537.81 C837.12,536.35 837.39,534 837.56,531.96 C837.87,527.84 837.13,523.33 834.18,520.43 C834.051802,520.263306 833.85951,520.15809 833.65,520.14 C833.437869,520.178786 833.248409,520.296751 833.12,520.47 C831.776736,521.877443 830.273146,523.122604 828.64,524.18 C828.179124,524.533495 827.620337,524.736055 827.04,524.76 C826.47,524.76 825.9,524.18 826.04,523.63 C824.623727,524.285874 823.352315,525.217337 822.3,526.37 C822.071634,525.826608 821.969078,525.238617 822,524.65 C821.451445,525.742494 820.78047,526.769085 820,527.71 C819.203828,528.563988 818.468683,529.472896 817.8,530.43 C817.130993,531.402941 816.926028,532.621753 817.24,533.76 C818.36,536.97 824.07,536.23 825.31,539.4 C825.58,540.11 825.57,540.89 825.85,541.59 C826.4,542.95 827.85,543.59 829.05,544.49 C830.25,545.39 831.29,546.92 830.57,548.19 C829.94,549.28 828.47,549.4 827.25,549.68 C825.142056,550.202695 823.337206,551.559941 822.25,553.44 C821.964729,554.122985 821.522833,554.729307 820.96,555.21 C820.455374,555.468835 819.89712,555.605829 819.33,555.61 C817.63,555.75 815.68,555.79 814.51,554.61 C812.94,552.96 813.68,549.96 812.08,548.34 C811.71,547.98 811.25,547.72 810.9,547.34 C810.163796,546.389003 809.842861,545.18099 810.01,543.99 C810.17,540.66 811.4,537.4 811.21,534.07 C810.915126,531.867007 810.491062,529.683244 809.94,527.53 C808.950257,522.443143 810.252666,517.17863 813.5,513.14 C816.22,509.95 819.77,508.7 823.79,508.14 C827.37,507.61 830.83,506.36 834.5,507.69 Z" id="Path" fill="#3C354C" fill-rule="nonzero"></path>
            </g>
        </g>
    </g>
</svg>