<?xml version="1.0" encoding="UTF-8"?>
<svg width="1420px" height="1123px" viewBox="0 0 1420 1123" version="1.1" xmlns="http://www.w3.org/2000/svg" xmlns:xlink="http://www.w3.org/1999/xlink">
    <!-- Generator: Sketch 63.1 (92452) - https://sketch.com -->
    <title>undraw_uploading_go67</title>
    <desc>Created with Sketch.</desc>
    <defs>
        <linearGradient x1="49.98833%" y1="100.00047%" x2="49.98833%" y2="-0.00720250172%" id="linearGradient-1">
            <stop stop-color="#808080" stop-opacity="0.25" offset="0%"></stop>
            <stop stop-color="#808080" stop-opacity="0.12" offset="54%"></stop>
            <stop stop-color="#808080" stop-opacity="0.1" offset="100%"></stop>
        </linearGradient>
    </defs>
    <g id="illustrations" stroke="none" stroke-width="1" fill="none" fill-rule="evenodd">
        <g id="Bitflow" transform="translate(-533.000000, -1422.000000)">
            <g id="undraw_uploading_go67" transform="translate(533.000000, 1422.000000)">
                <path d="M1379.42449,416.452454 C1398.08274,363.415542 1400.99982,281.488512 1385.60301,227.122701 C1336.12343,52.460771 1107.29276,-51.60434 886.651283,26.1477953 C684.351413,97.4359491 634.820381,391.556715 479.486727,359.582474 C114.142922,284.380596 -17.4463928,537.075036 1.82535037,742.781745 C14.2734162,875.656319 129.116224,1040.002 374.432176,1022.74551 C446.658664,1017.6642 517.59087,1034.8938 578.715029,1069.19553 C683.10067,1127.77465 849.01419,1141.50917 1021.37537,1095.53539 C1280.63158,1026.3827 1456.24628,848.35243 1413.626,697.894905 C1410.11917,685.504646 1405.23889,673.6905 1399.09204,662.479352 C1357.80167,587.146889 1350.62572,498.31035 1379.42449,416.452454 Z" id="Fill-3" fill-opacity="0.75" fill="#7191F8" opacity="0.676106771"></path>
                <path d="M873.24,415.4 C808.52,413.15 746.88,392.26 688.01,369.4 C629.14,346.54 570.85,321.21 507.68,309.15 C467.05,301.36 420.59,300.26 387.85,322.04 C356.35,343.04 346.17,379.19 340.69,412.76 C336.58,438.03 334.15,464.61 345.44,488.26 C353.27,504.68 367.18,518.48 376.8,534.21 C410.26,588.93 386.61,656.41 350.34,709.84 C333.34,734.9 313.6,758.84 300.47,785.5 C287.34,812.16 281.27,842.75 292.75,869.97 C304.14,896.97 331.27,917.21 360.65,931.46 C420.34,960.4 490.65,968.69 559.27,973.38 C711.09,983.77 863.73,979.27 1015.95,974.77 C1072.29,973.1 1128.87,971.41 1184.29,962.7 C1215.07,957.86 1246.85,950.18 1269.19,931.7 C1297.55,908.17 1304.58,868.32 1285.58,838.82 C1253.7,789.33 1165.58,777.03 1143.27,723.92 C1131,694.69 1143.6,662.12 1161.42,635.01 C1199.66,576.84 1263.75,525.82 1267.13,459.33 C1269.45,413.67 1238.64,367.94 1191,346.33 C1141.06,323.68 1071.82,326.53 1035,364.02 C997.04,402.53 930.38,417.38 873.24,415.4 Z" id="Path" fill="#6C63FF" fill-rule="nonzero" opacity="0.1"></path>
                <g id="Group" opacity="0.1" transform="translate(279.000000, 623.000000)" fill="#6C63FF" fill-rule="nonzero">
                    <path d="M86.35,9.36 C86.35,9.36 11.61,-22.08 1.78,34.61 C1.78,34.61 -3.33,43.45 3.78,50.75 C3.78,50.75 5.31,46.83 12.53,50.88 C15.1087757,52.3062227 17.8480095,53.4207149 20.69,54.2 C24.5281007,55.2587239 28.606349,55.0411238 32.31,53.58 L32.31,53.58 C32.31,53.58 56.9,52.25 77.58,20.08 C77.58,20.08 86.45,14.6 86.89,12.54 L72.07,13.54 C72.07,13.54 73.21,24.39 67.07,30.9 C67.07,30.9 72.51,14.06 69.9,13.59 C69.37,13.49 62.07,14.45 62.07,14.45 C62.07,14.45 63.96,33.32 54.07,43.08 C54.07,43.08 63.25,23.89 59.26,14.79 L48.32,16.9 C48.32,16.9 51.32,36.75 40.5,48.29 C40.5,48.29 49.4,27.89 45.96,17.53 L35.49,21.05 C35.49,21.05 38.01,40.46 28.96,50.05 C28.96,50.05 36.86,25.44 33.14,22.05 C33.14,22.05 23.72,25.87 21.71,28.05 C21.71,28.05 23.2,42.05 17.45,47.1 C17.45,47.1 20.98,30.1 19.23,29.4 C19.23,29.4 8.29,37.64 4.95,44.75 C4.95,44.75 9.11,33.89 17.86,27.75 C17.86,27.75 10.51,26.51 4.86,29.58 C4.86,29.58 8.64,22.37 20.51,25.79 C20.51,25.79 29.3,19.7 31.06,19.79 C31.06,19.79 19.83,14.79 11.72,15.41 C11.72,15.41 20.42,10.41 33.8,18.76 L44.25,14.99 C44.25,14.99 29.75,7.56 22.49,7.59 C22.49,7.59 32.15,3.85 46.96,14.25 L57.66,12.07 C57.66,12.07 45.66,4.72 37.57,3.01 C37.57,3.01 47.27,1.47 60.75,11.56 L68.06,10.95 C68.06,10.95 59.21,5.73 56.53,4.46 C53.85,3.19 53.97,2.37 53.97,2.37 C60.3453079,3.47873758 66.286663,6.33862063 71.13,10.63 C71.13,10.63 86.29,10.29 86.35,9.36 Z" id="Path"></path>
                </g>
                <g id="Group" opacity="0.1" transform="translate(289.000000, 535.000000)" fill="#6C63FF" fill-rule="nonzero">
                    <path d="M73.61,41 C73.61,41 47.1,-20.27 8.98,7.83 C8.98,7.83 0.92,10.17 0.979666667,18.53 C0.979666667,18.53 4.12,17.07 6.11,23.6 C6.8396871,25.9162875 7.84701023,28.1357561 9.11,30.21 C10.7792464,33.0292036 13.3256191,35.2243525 16.36,36.46 L16.36,36.46 C16.36,36.46 31.73,49.68 62.36,42.35 C62.36,42.35 70.76,44.14 72.19,43.18 L62.83,35.31 C62.83,35.31 57.32,42.41 49.94,42.75 C49.94,42.75 62.77,35.85 61.49,34.08 C61.23,33.72 56.34,30.14 56.34,30.14 C56.34,30.14 46.72,42.42 35.34,42.61 C35.34,42.61 51.73,36.43 54.54,28.76 L46.84,23.76 C46.84,23.76 37.3,37.25 24.31,37.95 C24.31,37.95 41.22,30.9 45.08,22.78 L36.85,18.91 C36.85,18.91 27.29,31.91 16.48,32.4 C16.48,32.4 35.2,22.28 34.91,18.15 C34.91,18.15 27.14,15.05 24.67,15.23 C24.67,15.23 17.6,24.38 11.29,24.12 C11.29,24.12 23.08,16.03 22.44,14.62 C22.44,14.62 11.24,13.28 5.21,15.62 C5.21,15.62 13.87,11.54 22.56,12.88 C22.56,12.88 18.9,7.95 13.81,6.58 C13.81,6.58 20.17,4.45 25.27,13.23 C25.27,13.23 33.95,14.63 34.97,15.67 C34.97,15.67 31.16,6.28 25.97,2.05 C25.97,2.05 33.97,4.05 37.17,16.62 L45.53,20.33 C45.53,20.33 41.15,7.65 36.81,3.54 C36.81,3.54 44.68,6.82 47.56,21.44 L55.16,26.23 C55.16,26.23 52.22,15.03 48.39,9.4 C48.39,9.4 55.03,14.02 57.28,27.69 L61.98,31.49 C61.98,31.49 59.69,23.35 58.82,21.07 C57.95,18.79 58.49,18.37 58.49,18.37 C61.6488945,22.6579351 63.5500383,27.7415036 63.98,33.05 C63.98,33.05 73.02,41.51 73.61,41 Z" id="Path"></path>
                </g>
                <path d="M1212.27,971.15 C1211.27,967.53 1210.27,963.86 1208.27,960.71 C1206.41478,958.036624 1204.20832,955.624994 1201.71,953.54 C1194.46,946.95 1185.55,940.26 1175.94,941.93 C1172.95961,942.58126 1170.08044,943.630679 1167.38,945.05 C1165.98,945.7 1164.57,946.35 1163.13,946.9 C1159.07295,948.594747 1154.58933,948.986146 1150.3,948.02 C1148.1,947.43 1146.05,946.37 1143.88,945.71 C1142.84598,945.401393 1141.78943,945.174035 1140.72,945.03 C1142.81499,944.081499 1144.8519,943.009618 1146.82,941.82 C1157.61,935.15 1166.22,923.15 1165.01,910.45 C1164.61,906.15 1163.13,902.04 1161.67,897.99 C1160.39,894.45 1159.10667,890.906667 1157.82,887.36 C1156.16,882.75 1154.45,878.06 1151.41,874.23 C1148.03,869.97 1143.23,867.08 1138.27,864.92 C1127.61,860.29 1115.96,858.66 1104.46,857.08 L1103.66,856.97 L1103.66,732.73 C1103.67332,730.599618 1102.83634,728.551918 1101.33461,727.040796 C1099.83287,725.529673 1097.79042,724.679958 1095.66,724.68 L1080.53,724.68 C1079.86333,720.6 1079.19667,716.523333 1078.53,712.45 C1076.62,700.84 1074.65,689 1069.3,678.54 C1065.8,671.69 1060.22,665.17 1052.71,663.82 C1051.23164,663.682078 1049.77859,663.345723 1048.39,662.82 C1046.19,661.74 1044.99,659.34 1043.29,657.56 C1038.93,652.99 1031.84,652.92 1025.99,650.56 C1020.83,648.51 1016.61,644.64 1011.91,641.67 C1007.21,638.7 1001.36,636.58 996.15,638.52 C996.15,638.9 996.08,639.27 996.04,639.65 L992.7,638.15 C989.1,636.49 985.42,634.77 982.53,632.03 C978.81,628.52 976.83,623.89 975.29,618.95 C975.13,618.43 974.98,617.95 974.83,617.4 C981.220507,610.869897 985.547049,602.602862 987.27,593.63 C987.54,594.5 987.82,595.38 988.09,596.26 C988.335934,597.154585 988.670943,598.022258 989.09,598.85 C989.228827,599.123546 989.385846,599.387471 989.56,599.64 C989.889948,600.130874 990.302768,600.560612 990.78,600.91 C991.253637,601.254817 991.808125,601.471791 992.39,601.54 C992.668614,601.579394 992.951386,601.579394 993.23,601.54 C994.764561,601.215701 996.029782,600.134992 996.59,598.67 C996.749472,598.276851 996.866795,597.867897 996.94,597.45 C996.978647,597.198311 997.002023,596.944514 997.01,596.69 C997.01,596.61 997.01,596.53 997.01,596.45 C997.01,596.37 997.01,596.1 997.01,595.93 C997.01,595.76 997.01,595.74 997.01,595.65 C997.01,595.56 997.01,595.31 997.01,595.15 L997.01,594.89 C997.01,594.69 996.95,594.49 996.91,594.3 C996.87,594.11 996.91,594.19 996.91,594.14 C996.86,593.88 996.8,593.63 996.75,593.37 C996.745175,593.313436 996.745175,593.256564 996.75,593.2 L996.6,592.57 L996.51,592.19 L996.51,592.09 L996.51,592.09 C996.41,591.7 996.32,591.3 996.23,590.9 C995.503122,587.426054 995.317598,583.860625 995.68,580.33 C996.282461,575.150849 997.238018,570.018902 998.54,564.97 L998.75,564.06 L998.99,563 C999.15,562.28 999.3,561.56 999.45,560.84 L999.45,560.84 C999.58,560.23 999.7,559.61 999.81,558.99 C999.92,558.37 1000,557.9 1000.08,557.35 C1000.08,557.28 1000.08,557.22 1000.08,557.15 C1000.69102,553.422834 1000.85552,549.636112 1000.57,545.87 L1000.57,545.87 C1000.1,540.64 998.48,535.69 994.92,531.74 C992.41,528.95 989.11,526.89 986.78,523.96 C984.59,521.21 983.36,517.83 981.1,515.14 C974.85,507.68 958.82,501.93 948.98,500.93 C937.71,499.79 919.5,502.67 910.42,509.33 C907.06,511.79 904.76,515.33 902.42,518.7 C898.12,524.96 893.23,531.2 886.34,534.7 C883.73,536.02 880.75,537.02 879.02,539.32 C877.974751,540.879264 877.291411,542.652532 877.02,544.51 C875.690715,551.02725 875.000777,557.658694 874.96,564.31 C874.810552,567.219339 875.183094,570.131939 876.06,572.91 C876.2,573.29 876.37,573.68 876.55,574.05 L876.55,574.05 C876.71,574.38 876.89,574.71 877.08,575.05 L877.2,575.26 C878.40692,576.992468 879.480029,578.814412 880.41,580.71 C880.630217,581.244117 880.79118,581.80078 880.89,582.37 C881.06144,583.838264 880.966588,585.325414 880.61,586.76 L880.61,586.76 C880.61,586.98 880.53,587.19 880.48,587.4 L880.39,587.86 C880.39,588 880.39,588.15 880.31,588.29 C880.23,588.723333 880.16,589.153333 880.1,589.58 C880.1,589.88 880.04,590.19 880.03,590.5 C879.959122,591.738572 880.196183,592.975411 880.72,594.1 C880.85152,594.368048 881.008935,594.622592 881.19,594.86 C881.548285,595.339516 882.009622,595.732507 882.54,596.01 C883.731441,596.457691 884.97458,596.753357 886.24,596.89 C889.98,597.73 892.32,600.59 893.84,604.1 C894.177034,604.887844 894.474079,605.692201 894.73,606.51 C895.353709,608.561811 895.821705,610.657761 896.13,612.78 C897.83,612.69 898.82,611.19 899.42,609.55 C899.607606,609.009287 899.764522,608.45841 899.89,607.9 C900.12,606.85 900.35,605.8 900.59,604.75 C904.537317,613.125361 910.895587,620.131297 918.85,624.87 C919.13,625.69 919.4,626.52 919.65,627.36 C920.96,631.89 921.59,636.64 919.32,640.6 C917.7,643.41 914.97,645.15 911.93,646.35 C911.492564,645.762336 910.928676,645.280468 910.28,644.94 C907.64,643.62 904.48,645.23 902.28,647.2 C898.28,650.82 895.02,656.01 889.75,657.2 C887.85,657.64 885.75,657.55 884.16,658.71 C883.113002,659.694691 882.237649,660.847183 881.57,662.12 C879.247461,665.452393 875.388975,667.374099 871.33,667.22 C869.5,667.13 867.33,666.71 866.08,668.05 C865.15,669.05 865.08,670.64 864.08,671.59 C862.73,672.91 860.54,672.26 858.66,672.18 C855.914779,672.187151 853.293219,673.322557 851.41,675.32 C851.291916,671.285283 849.747054,667.423128 847.05,664.42 C844.35,661.64 840.6,660.21 837.4,658.03 C829.4,652.59 825.4,643.03 821.23,634.27 C817.06,625.51 811.56,616.27 802.46,613.08 C800.37,612.34 797.46,612.28 796.52,614.31 C796.20033,615.157241 796.14798,616.082097 796.37,616.96 C797.25,621.62 800.57,625.36 803.44,629.11 C808.27,635.43 812.32,643.16 811.15,651.06 C809.78,660.41 801.45,667.67 800.45,677.06 C800.01,681.2 801.06,685.36 801.05,689.52 C801.05,692.12 800.64,694.75 801.2,697.28 C801.794756,699.202117 802.499246,701.088547 803.31,702.93 C804.211242,705.951729 804.675941,709.086766 804.69,712.24 C805.396667,725.493333 806.1,738.75 806.8,752.01 C807.33,761.9 805.17,771.66 802.99,781.39 C800.287112,787.157632 798.18924,793.189854 796.73,799.39 C794.27,810.22 794.2,821.76 797.73,832.3 C799.62,838.03 802.52,843.4 804.07,849.23 C804.07,849.36 804.13,849.48 804.16,849.6 C804.31,850.84 804.48,852.08 804.71,853.31 C804.994301,854.731257 805.364989,856.133859 805.82,857.51 C806.273677,859.880321 807.012374,862.187071 808.02,864.38 C809.422459,867.165565 811.4817,869.568013 814.02,871.38 C812.58,874.2 810.25,876.47 808.7,879.23 C806,884.01 805.89,889.88 806.87,895.3 C808.76,905.76 814.41,915.11 821.87,922.71 C821.536944,922.690783 821.203056,922.690783 820.87,922.71 C818.429629,922.979883 816.086738,923.819077 814.03,925.16 C798.24,934.39 789.21,954.16 792.51,972.26 C793.16,975.8 794.29,979.38 796.65,982.07 C798.614846,984.211591 801.140224,985.760073 803.94,986.54 C805.688647,987.066231 807.489146,987.40152 809.31,987.54 C821.62,988.54 833.54,982.83 845.88,982.35 C849.971209,982.285355 854.062471,982.475724 858.13,982.92 C864.07,983.413333 870.023333,983.726667 875.99,983.86 C885.68,984.09 891.14,981.51 897.33,974.26 C898.85119,972.460837 900.119574,970.462376 901.1,968.32 C906.36,968.02 912.17,967.56 916.38,967.21 L916.44,967.8 C916.67,969.8 917.02,972.1 918.62,973.37 C919.523492,973.982339 920.545576,974.397987 921.62,974.59 C931.73,977.08 941.96,979.59 952.36,979.59 C957.244062,979.488544 962.118493,979.111276 966.96,978.46 L985.26,976.35 C990.585396,977.035388 995.841612,978.179644 1000.97,979.77 C1006.25,981.57 1011.19,984.24 1016.35,986.34 C1028.35,991.21 1041.27,992.95 1054.06,994.65 C1056.24,994.94 1058.74,995.14 1060.36,993.65 C1062.44,991.65 1061.74,988.3 1061.16,985.5 C1060.92,984.36 1060.74,983.2 1060.59,982.04 C1069.22306,984.309187 1077.66814,987.241225 1085.85,990.81 L1087.29,991.44 C1087.7,993.62 1089.72,995.37 1091.65,997.72 C1092.28359,998.708824 1093.02477,999.624409 1093.86,1000.45 C1094.81159,1001.07716 1095.89763,1001.47115 1097.03,1001.6 C1110.5446,1004.11626 1124.3437,1004.7389 1138.03,1003.45 C1140.82974,1003.06935 1143.66075,1002.97219 1146.48,1003.16 C1148.54984,1003.44036 1150.59103,1003.90214 1152.58,1004.54 L1164.16,1007.85 C1172.69,1010.3 1181.44,1012.77 1190.29,1012.22 C1192.08728,1012.10227 1193.87267,1011.84483 1195.63,1011.45 C1202.63,1009.83 1209.16,1005.91 1212.52,999.61 C1217.03,991.04 1214.84,980.51 1212.27,971.15 Z M872.61,814.74 C872.253463,819.076135 871.122226,823.313194 869.27,827.25 C868.03,829.76 866.43,832.07 865.27,834.59 C864.17,836.87 863.35,841.18 862.86,845.91 C862.26,845.81 861.65,845.72 861.05,845.65 C861.94,842.53 862.61,839.33 863.5,836.2 C865.61,828.76 869.08,821.73 872.61,814.74 Z" id="Shape" fill="url(#linearGradient-1)" fill-rule="nonzero"></path>
                <path d="M888.02,968.54 C885.91,963.74 883.91,958.22 886.02,953.42 C887.397292,950.593189 889.763289,948.369509 892.67,947.17 C895.546349,945.997099 898.578152,945.249255 901.67,944.95 C911.374439,943.677149 921.194393,943.542905 930.93,944.55 C931.64,950.17 930.14,955.87 928.85,961.3 C927.68,966.3 927.01,967.04 921.85,967.3 C918.51,967.48 888.81,970.31 888.02,968.54 Z" id="Path" fill="#FBBEBE" fill-rule="nonzero"></path>
                <ellipse id="Oval" fill="#464353" fill-rule="nonzero" cx="977.07" cy="896.16" rx="143" ry="40"></ellipse>
                <ellipse id="Oval" fill="#000000" fill-rule="nonzero" opacity="0.1" cx="977.07" cy="896.16" rx="143" ry="40"></ellipse>
                <path d="M1002.71,685 C997.808302,694.471641 989.667316,701.867375 979.77,705.84 C973.942529,707.963892 967.810177,709.132281 961.61,709.3 C954.82,709.61 947.89,709.17 941.51,706.85 C932.95,703.75 925.84,697.41 920.51,690.02 C915.18,682.63 911.51,674.19 908.32,665.68 C906.64,661.25 905.04,656.53 905.83,651.85 C910.98,650.68 916.62,648.96 919.28,644.39 C921.55,640.47 920.92,635.77 919.61,631.29 C919.24,630.02 918.81,628.76 918.38,627.550005 C917.38,624.65 913.93,619.14 916.33,616.66 C917.86,615.09 924.27,614.29 926.48,613.27 C933.29,610.13 939.57,605.59 947.05,604.1 C953.52,602.81 960.2,604.02 966.66,605.36 C967.516887,605.48462 968.339909,605.7805 969.08,606.23 C969.923842,606.941148 970.54811,607.87755 970.88,608.93 C972.72,613.41 973.8,618.36 975.28,623.03 C976.82,627.92 978.8,632.51 982.51,635.98 C985.4,638.69 989.08,640.39 992.68,642.04 L1001.54,646.1 C1003.11601,646.690105 1004.54546,647.614643 1005.73,648.81 C1006.88864,650.402567 1007.58114,652.28619 1007.73,654.25 C1009.31751,664.772781 1007.56163,675.528422 1002.71,685 L1002.71,685 Z" id="Path" fill="#FBBEBE" fill-rule="nonzero"></path>
                <path d="M975.24,623.03 C960.735105,638.118312 937.873127,641.512882 919.61,631.29 C919.24,630.02 918.81,628.76 918.38,627.550005 C917.38,624.65 913.93,619.14 916.33,616.66 C917.86,615.09 924.27,614.29 926.48,613.27 C933.29,610.13 939.57,605.59 947.05,604.1 C953.52,602.81 960.2,604.02 966.66,605.36 C967.516887,605.48462 968.339909,605.7805 969.08,606.23 C969.923842,606.941148 970.54811,607.87755 970.88,608.93 C972.68,613.41 973.76,618.36 975.24,623.03 Z" id="Path" fill="#000000" fill-rule="nonzero" opacity="0.1"></path>
                <circle id="Oval" fill="#FBBEBE" fill-rule="nonzero" cx="942.07" cy="589.16" r="46"></circle>
                <path d="M1082.22,738.45 L1078.44,715.55 C1076.53,704.06 1074.56,692.35 1069.22,682 C1065.71,675.22 1060.14,668.76 1052.63,667.42 C1051.15067,667.288149 1049.6968,666.951605 1048.31,666.42 C1046.11,665.36 1044.91,662.98 1043.22,661.22 C1038.86,656.7 1031.76,656.63 1025.92,654.33 C1020.76,652.33 1016.54,648.48 1011.84,645.54 C1007.14,642.6 1001.29,640.54 996.09,642.42 C995.25,651.37 994.36,660.52 990.56,668.67 C985.550798,679.415667 975.956104,687.323955 964.451721,690.189374 C952.947337,693.054792 940.764205,690.570748 931.3,683.43 C922.39,676.72 916.68,666.37 914.02,655.54 C913.37,652.9 912.63,649.87 910.2,648.66 C907.57,647.34 904.41,648.94 902.2,650.88 C898.15,654.47 894.93,659.61 889.67,660.82 C887.77,661.26 885.67,661.17 884.09,662.32 C883.039922,663.289069 882.160913,664.4284 881.49,665.69 C879.151667,668.994099 875.305164,670.89667 871.26,670.75 C869.43,670.66 867.26,670.24 866.01,671.57 C865.08,672.57 865.01,674.13 864.01,675.06 C862.66,676.37 860.47,675.73 858.59,675.66 C855.03,675.51 851.72,677.79 849.68,680.66 C847.64,683.53 846.68,687.08 845.68,690.52 C856.61,714.86 866.61,739.23 877.54,763.57 C878.052082,764.487389 878.323841,765.519384 878.33,766.57 C878.110803,767.660443 877.645663,768.686488 876.97,769.57 C871.61,778.18 871.78,789.01 872.37,799.13 C872.96,809.25 873.68,819.94 869.16,829.01 C867.93,831.5 866.33,833.78 865.16,836.27 C862.42,841.91 861.43,859.95 863.03,866.01 L1089.03,866.01 C1084.72,854.16 1086.36,830.38 1087.26,817.8 C1087.89,809 1086.26,800.21 1085.56,791.41 C1084.09,773.44 1085.19,756.39 1082.22,738.45 Z" id="Path" fill="#F86D70" fill-rule="nonzero"></path>
                <path d="M1093.79,859.01 C1097.12,857.74 1100.79,858.2 1104.36,858.68 C1115.85,860.25 1127.51,861.86 1138.16,866.45 C1143.16,868.59 1147.92,871.45 1151.3,875.66 C1154.3,879.45 1156.05,884.09 1157.71,888.66 L1161.55,899.15 C1163.01,903.15 1164.49,907.23 1164.9,911.48 C1166.1,924.07 1157.49,935.94 1146.66,942.48 C1135.83,949.02 1123.08,951.35 1110.66,953.79 C1098.24,956.23 1085.77,958.93 1073.4,961.79 C1067.63041,963.287283 1061.77669,964.439326 1055.87,965.24 C1042.63,966.74 1028.79,964.53 1016.21,968.91 C1011.21,970.66 1006.3,973.26 1001.11,974.47 C997.667603,975.225224 994.185431,975.786111 990.68,976.15 L966.87,978.87 C962.028265,979.517572 957.153855,979.891499 952.27,979.99 C941.87,979.99 931.64,977.53 921.54,975.07 C920.466186,974.8816 919.444038,974.469333 918.54,973.86 C916.94,972.6 916.59,970.37 916.36,968.35 C915.34,959.41 914.446667,950.46 913.68,941.5 C913.44,938.59 913.26,935.44 914.85,932.99 C916.85,929.99 920.75,929.05 924.31,928.47 C939.405583,926.000489 954.698009,924.939259 969.99,925.3 C975.8,919.49 985.38,919.46 992.99,916.3 C995.789573,915.014338 998.499078,913.540982 1001.1,911.89 C1014.7068,903.950753 1029.91213,899.144213 1045.61,897.82 C1048.68551,897.726139 1051.741,897.290119 1054.72,896.52 C1060.61,894.69 1065.98,889.71 1072.03,890.93 C1072.78,888.86 1073.3,886.09 1075.03,884.67 C1075.89,883.94 1076.95,883.45 1077.74,882.67 C1079.41,880.98 1079.56,878.32 1079.31,875.96 C1079.06,873.6 1078.5,871.18 1079.11,868.88 C1079.3638,868.009223 1079.73737,867.177939 1080.22,866.41 C1083.23,861.15 1087.76,858.51 1093.79,859.01 Z" id="Path" fill="#464353" fill-rule="nonzero"></path>
                <path d="M1093.79,859.01 C1097.12,857.74 1100.79,858.2 1104.36,858.68 C1115.85,860.25 1127.51,861.86 1138.16,866.45 C1143.16,868.59 1147.92,871.45 1151.3,875.66 C1154.3,879.45 1156.05,884.09 1157.71,888.66 L1161.55,899.15 C1163.01,903.15 1164.49,907.23 1164.9,911.48 C1166.1,924.07 1157.49,935.94 1146.66,942.48 C1135.83,949.02 1123.08,951.35 1110.66,953.79 C1098.24,956.23 1085.77,958.93 1073.4,961.79 C1067.63041,963.287283 1061.77669,964.439326 1055.87,965.24 C1042.63,966.74 1028.79,964.53 1016.21,968.91 C1011.21,970.66 1006.3,973.26 1001.11,974.47 C997.667603,975.225224 994.185431,975.786111 990.68,976.15 L966.87,978.87 C962.028265,979.517572 957.153855,979.891499 952.27,979.99 C941.87,979.99 931.64,977.53 921.54,975.07 C920.466186,974.8816 919.444038,974.469333 918.54,973.86 C916.94,972.6 916.59,970.37 916.36,968.35 C915.34,959.41 914.446667,950.46 913.68,941.5 C913.44,938.59 913.26,935.44 914.85,932.99 C916.85,929.99 920.75,929.05 924.31,928.47 C939.405583,926.000489 954.698009,924.939259 969.99,925.3 C975.8,919.49 985.38,919.46 992.99,916.3 C995.789573,915.014338 998.499078,913.540982 1001.1,911.89 C1014.7068,903.950753 1029.91213,899.144213 1045.61,897.82 C1048.68551,897.726139 1051.741,897.290119 1054.72,896.52 C1060.61,894.69 1065.98,889.71 1072.03,890.93 C1072.78,888.86 1073.3,886.09 1075.03,884.67 C1075.89,883.94 1076.95,883.45 1077.74,882.67 C1079.41,880.98 1079.56,878.32 1079.31,875.96 C1079.06,873.6 1078.5,871.18 1079.11,868.88 C1079.3638,868.009223 1079.73737,867.177939 1080.22,866.41 C1083.23,861.15 1087.76,858.51 1093.79,859.01 Z" id="Path" fill="#000000" fill-rule="nonzero" opacity="0.05"></path>
                <path d="M897.22,974.72 C891.03,981.89 885.58,984.45 875.89,984.22 C869.93,984.08 863.976667,983.77 858.03,983.29 C853.965449,982.850477 849.877808,982.660121 845.79,982.72 C833.45,983.2 821.54,988.85 809.23,987.86 C807.409775,987.716734 805.609783,987.381539 803.86,986.86 C801.082891,986.086714 798.573739,984.560458 796.61,982.45 C794.25,979.78 793.12,976.24 792.47,972.74 C789.18,954.8 798.2,935.26 813.99,926.13 C816.05019,924.799479 818.392146,923.967468 820.83,923.699864 C823.220528,923.690209 825.583632,924.209273 827.75,925.22 L827.9,925.28 C834.315111,927.919589 840.141391,931.808309 845.04,936.72 C845.783205,937.571155 846.669981,938.285315 847.66,938.83 C848.647992,939.203134 849.693948,939.399462 850.75,939.41 L863.89,940.24 C866.116212,940.306437 868.328873,940.611516 870.49,941.15 C872.872477,941.98178 875.191833,942.984383 877.43,944.15 C884.5,947.31 892.34,948.15 899.98,949.37 C900.716234,949.410685 901.418806,949.691714 901.98,950.17 C902.284912,950.549246 902.497198,950.994363 902.6,951.47 C904.76572,959.632762 902.751276,968.338306 897.22,974.72 L897.22,974.72 Z" id="Path" fill="#3F3D56" fill-rule="nonzero"></path>
                <path d="M827.86,925.28 C822.761973,930.147987 818.33928,935.677194 814.71,941.72 C808.886025,951.692737 805.22668,962.779803 803.97,974.26 C803.49344,978.447981 803.456572,982.674343 803.86,986.87 C801.081768,986.093907 798.572499,984.564118 796.61,982.45 C794.25,979.78 793.12,976.24 792.47,972.74 C789.18,954.8 798.2,935.26 813.99,926.13 C816.05019,924.799479 818.392146,923.967468 820.83,923.699864 C823.220528,923.690209 825.583632,924.209273 827.75,925.22 L827.86,925.28 Z" id="Path" fill="#000000" fill-rule="nonzero" opacity="0.1"></path>
                <path d="M1082.35,950.15 C1089.7,949.95 1097.95,949.58 1103.35,954.53 C1108.5,959.21 1109.18,966.93 1109.52,973.88 L1109.91,981.95 C1110.03,984.41 1110.13,986.95 1109.14,989.23 C1107.38,993.23 1102.55,995.16 1098.14,994.93 C1093.73,994.7 1089.68,992.77 1085.65,991.03 C1074.70906,986.316576 1063.31711,982.728112 1051.65,980.32 C1052.03,974.74 1052.66333,969.186667 1053.55,963.66 C1054.16,959.83 1054.26,953.42 1056.82,950.24 C1059.53,946.88 1063.06,948.7 1066.74,949.32 C1071.90352,950.107963 1077.13204,950.385968 1082.35,950.15 L1082.35,950.15 Z" id="Path" fill="#FBBEBE" fill-rule="nonzero"></path>
                <path d="M888.13,869.07 C888.13,870.07 886.56,869.07 886.42,868 C885.32,859.91 878.9,853.24 871.42,850 C863.94,846.76 855.42,846.59 847.32,847.36 C835.07,848.52 821.37,853.21 816.84,864.66 C815.78,867.34 815.3,870.24 814,872.81 C812.56,875.63 810.21,877.88 808.65,880.62 C805.96,885.36 805.85,891.17 806.82,896.53 C809.43,910.83 819.21,923.06 831.06,931.53 C842.91,940 856.76,945.06 870.57,949.62 C907.086624,961.663471 944.552224,970.611728 982.57,976.37 C988.73,977.3 994.95,978.16 1000.85,980.14 C1006.13,981.91 1011.07,984.56 1016.23,986.64 C1028.23,991.46 1041.14,993.18 1053.93,994.87 C1056.11,995.15 1058.61,995.35 1060.22,993.87 C1062.3,991.94 1061.61,988.58 1061.02,985.81 C1058.84828,975.286626 1060.66222,964.33172 1066.11,955.07 C1068.25,951.47 1071.03,947.78 1070.63,943.61 C1070.15,938.75 1065.31,935.31 1060.49,934.53 C1055.67,933.75 1050.77,934.9 1045.93,935.53 C1044.26,935.75 1042.44,935.89 1040.93,935.04 C1040.21066,934.55428 1039.55839,933.975979 1038.99,933.32 C1032.14974,926.721296 1021.83747,925.279839 1013.45,929.75 C1011.66,930.75 1008.95,928.52 1007.09,927.68 L986.08,918.15 C961.92,907.22 937.64,896.24 912.08,889.32 C910.04063,888.919122 908.102395,888.113224 906.38,886.95 C905.11,885.95 904.2,884.59 903.03,883.48 C900.48,881.07 896.93,880.11 893.87,878.4 C890.81,876.69 887.41,872.5 888.13,869.07 Z" id="Path" fill="#464353" fill-rule="nonzero"></path>
                <path d="M1212.32,999.76 C1208.96,1005.99 1202.44,1009.87 1195.44,1011.47 C1193.68332,1011.86645 1191.89753,1012.12061 1190.1,1012.23 C1181.25,1012.78 1172.51,1010.33 1163.98,1007.91 L1152.4,1004.63 C1150.40923,1004.00334 1148.36843,1003.54834 1146.3,1003.27 C1143.48408,1003.08191 1140.65636,1003.17907 1137.86,1003.56 C1124.1737,1004.83327 1110.37722,1004.21411 1096.86,1001.72 C1095.72916,1001.59793 1094.64307,1001.21077 1093.69,1000.59 C1092.85503,999.7715 1092.11379,998.862565 1091.48,997.88 C1088.33,994.09 1084.94,991.88 1088.67,986.88 C1090.82,983.98 1094.81,982.53 1096.48,979.2 C1098.15,975.87 1097.08,971.14 1096.09,967.7 C1094.74,962.95 1090.3,960.9 1088.71,956.54 C1087.52,953.25 1089.52,949.43 1092.53,947.64 C1095.54,945.85 1099.26,945.71 1102.73,946.17 C1106.2,946.63 1109.6,947.61 1113.09,947.88 C1123.35,948.7 1133.84,943.41 1143.69,946.39 C1145.86,947.05 1147.91,948.1 1150.11,948.68 C1154.39898,949.639367 1158.87952,949.251728 1162.94,947.57 C1164.38,947.03 1165.79,946.38 1167.19,945.74 C1169.88993,944.334428 1172.76529,943.295266 1175.74,942.65 C1185.35,941 1194.26,947.65 1201.51,954.14 C1203.99874,956.205509 1206.20142,958.593149 1208.06,961.24 C1210.06,964.36 1211.12,967.99 1212.06,971.57 C1214.71,980.84 1216.9,991.26 1212.32,999.76 Z" id="Path" fill="#3F3D56" fill-rule="nonzero"></path>
                <path d="M1212.32,999.76 C1208.96,1005.99 1202.44,1009.87 1195.44,1011.47 C1198.16294,1006.17966 1199.39038,1000.24648 1198.99,994.31 C1198.39,984.8 1194.21,975.84 1188.88,967.94 C1185.60098,963.076919 1181.87118,958.533518 1177.74,954.37 C1174.56,951.17 1170.65,948.63 1167.23,945.7 C1169.92993,944.294428 1172.80529,943.255266 1175.78,942.61 C1185.39,940.96 1194.3,947.61 1201.55,954.1 C1204.03874,956.165509 1206.24142,958.553149 1208.1,961.2 C1210.1,964.32 1211.16,967.95 1212.1,971.53 C1214.71,980.84 1216.9,991.26 1212.32,999.76 Z" id="Path" fill="#000000" fill-rule="nonzero" opacity="0.1"></path>
                <path d="M910.29,514.5 C906.93,516.93 904.63,520.42 902.29,523.77 C897.98,529.96 893.1,536.14 886.21,539.59 C883.6,540.9 880.62,541.89 878.89,544.17 C877.863165,545.711948 877.196685,547.465305 876.94,549.3 C875.620116,555.751189 874.930208,562.315366 874.88,568.9 C874.88,572.18 875.02,575.56 876.47,578.54 C877.84,581.34 880.31,583.71 880.82,586.76 C881.21,589.14 880.33,591.51 880.02,593.9 C879.71,596.29 880.25,599.12 882.46,600.26 C883.650781,600.707931 884.894381,601.000345 886.16,601.13 C892.81,602.61 895.04,610.41 896.05,616.86 C898.31,616.73 899.33,614.14 899.8,612.03 L906.73,581.22 C907.48,577.88 908.73,574.01 912.06,572.84 C914.29,572.07 916.73,572.79 919.06,572.99 C928.21,573.74 935.95,566.67 944.9,564.72 C947.765287,564.145173 950.694235,563.953496 953.61,564.15 C960.67,564.5 968.88,567.4 970.38,573.99 C970.63,575.06 970.78,576.34 971.78,576.87 C972.78,577.4 973.78,576.95 974.88,576.87 C979.36,576.42 982,581.46 983.29,585.58 L987.99,600.58 C988.69,602.85 989.87,605.52 992.33,605.81 C994.6,606.09 996.53,603.94 996.87,601.81 C997.21,599.68 996.47,597.47 995.98,595.33 C993.77,585.48 997.15,575.4 999.21,565.53 C1001.27,555.66 1001.64,544.32 994.73,536.72 C992.22,533.97 988.92,531.92 986.58,529.02 C984.4,526.3 983.17,522.96 980.91,520.29 C974.66,512.92 958.63,507.23 948.8,506.29 C937.61,505.06 919.37,507.91 910.29,514.5 Z" id="Path" fill="#3F3D56" fill-rule="nonzero"></path>
                <g id="Group" opacity="0.1" transform="translate(874.000000, 550.000000)" fill="#000000" fill-rule="nonzero">
                    <path d="M118.37,48.8 C115.91,48.5 114.73,45.8 114.03,43.57 C112.463333,38.5633333 110.896667,33.5633333 109.33,28.57 C108.04,24.44 105.4,19.4 100.92,19.86 C99.92,19.97 98.74,20.38 97.82,19.86 C96.9,19.34 96.67,18.05 96.42,16.98 C94.92,10.38 86.71,7.49 79.65,7.14 C76.7342327,6.94852185 73.8059447,7.14015493 70.94,7.71 C61.94,9.71 54.25,16.71 45.1,15.98 C42.74,15.79 40.3,15.07 38.1,15.84 C34.73,17 33.52,20.84 32.77,24.22 L25.84,55.02 C25.37,57.14 24.35,59.73 22.09,59.85 C21.09,53.41 18.85,45.61 12.2,44.13 C10.936018,43.9907189 9.69360538,43.698584 8.5,43.26 C7.62999976,42.7847875 6.94890554,42.0260556 6.57,41.11 C6.39,42.04 6.18,42.97 6.06,43.9 C5.76,46.28 6.29,49.12 8.5,50.26 C9.69078101,50.7079308 10.9343812,51.0003449 12.2,51.13 C18.85,52.61 21.08,60.41 22.09,66.86 C24.35,66.73 25.37,64.14 25.84,62.03 L32.77,31.22 C33.52,27.88 34.77,24.01 38.1,22.84 C40.33,22.07 42.77,22.79 45.1,22.99 C54.25,23.74 61.99,16.67 70.94,14.72 C73.7922464,14.1487071 76.707509,13.9570462 79.61,14.15 C86.67,14.5 94.88,17.4 96.38,23.99 C96.63,25.06 96.78,26.34 97.78,26.87 C98.78,27.4 99.78,26.95 100.88,26.87 C105.36,26.42 108,31.46 109.29,35.58 C110.85,40.5866667 112.416667,45.5866667 113.99,50.58 C114.69,52.85 115.87,55.52 118.33,55.81 C120.6,56.09 122.53,53.94 122.87,51.81 C123.023663,50.0177308 122.819715,48.2127916 122.27,46.5 C121.543516,47.9744395 120.011862,48.877723 118.37,48.8 Z" id="Path"></path>
                    <path d="M6.83,29.76 C6.32,26.71 3.83,24.34 2.48,21.54 C1.61204917,19.651458 1.10985575,17.6155388 1,15.54 C1,16.66 0.9,17.78 0.89,18.91 C0.89,22.19 1.03,25.57 2.48,28.55 C3.59,30.82 5.42,32.82 6.34,35.13 C6.82507222,33.3840566 6.99106584,31.564902 6.83,29.76 Z" id="Path"></path>
                    <path d="M125.25,8.48 C123.43,17.2 120.59,26.08 121.47,34.82 C122.04,28.37 123.92,21.88 125.25,15.48 C126.358404,10.623168 126.749221,5.6301413 126.41,0.66 C126.192439,3.28896183 125.804963,5.90108758 125.25,8.48 L125.25,8.48 Z" id="Path"></path>
                </g>
                <path d="M884.77,782.65 C883.56,802.51 868.99,818.92 863.44,838.02 C862.06,842.8 861.23,847.76 859.25,852.31 C855.25,861.46 847.02,868.1 838.25,872.78 C835.050249,874.629464 831.550341,875.902158 827.91,876.54 C819.716158,877.497528 811.786008,873.279532 808,865.95 C805.71,861.3 805.39,855.95 804,850.95 C802.45,845.18 799.55,839.86 797.66,834.19 C794.18,823.76 794.25,812.34 796.66,801.62 C798.94352,792.297611 802.557254,783.352525 807.39,775.06 C808.09,773.83 808.8,772.61 809.53,771.4 C811.592797,767.90197 813.908991,764.559699 816.46,761.4 C822.46,754.17 830.17,748.61 837.8,743.13 C838.382627,742.649958 839.06639,742.308076 839.8,742.13 L839.92,742.13 C840.780308,742.099768 841.633064,742.30001 842.39,742.71 C852.971451,747.284741 863.127667,752.786164 872.74,759.15 C876.18,761.44 881.61,764 883.41,767.9 C885.21,771.8 885.03,778.41 884.77,782.65 Z" id="Path" fill="#FBBEBE" fill-rule="nonzero"></path>
                <path d="M845.07,691.26 C844.095875,692.279733 843.34042,693.487781 842.85,694.81 C834.766633,713.027313 829.992095,732.538581 828.75,752.43 C828.771747,753.399899 828.548166,754.359579 828.1,755.22 C827.658057,755.79249 827.166123,756.324582 826.63,756.81 C825.645972,757.976369 825.188693,759.498063 825.366775,761.013654 C825.544857,762.529245 826.342409,763.903496 827.57,764.81 C829.22,761.7 833.17,760.69 836.68,760.42 C853.49,759.09 869.91,766.91 886.77,766.32 C885.58,762.21 883.87,758.26 882.9,754.1 C878.61,735.63 889.31,715.52 882.75,697.73 C881.44,694.17 879.25,690.67 875.8,689.11 C874.371552,688.533014 872.876659,688.136615 871.35,687.93 C867.09,687.16 858.61,683.87 854.49,685.19 C852.97,685.68 852.37,687.11 851.11,687.97 C849.24,689.2 846.7,689.63 845.07,691.26 Z" id="Path" fill="#F86D70" fill-rule="nonzero"></path>
                <path d="M851.96,856.61 C846.730983,865.47918 837.254908,870.979094 826.96,871.12 C824.220109,871.19185 821.495372,870.691179 818.96,869.65 C812.57,866.83 808.96,859.85 807.62,852.99 C806.28,846.13 806.7,839.05 805.75,832.12 C804.99,826.6 803.37,821.24 802.53,815.73 C800.47,802.1 804.53,788.64 807.42,775.07 C808.12,773.84 808.83,772.62 809.56,771.41 C811.622797,767.91197 813.938991,764.569699 816.49,761.41 C822.49,754.18 830.2,748.62 837.83,743.14 L829.83,743.14 C830.223865,742.851872 830.741263,742.795007 831.188304,742.990717 C831.635345,743.186426 831.944532,743.605159 832,744.09 C832.79,751.09 842.66,758.09 844.81,764.89 C846.14,769.07 847.74,773.17 848.81,777.43 C849.653421,781.058239 850.29441,784.730576 850.73,788.43 C852.15,798.783333 853.563333,809.116667 854.97,819.43 C856.74,832.02 858.26,845.63 851.96,856.61 Z" id="Path" fill="#000000" fill-rule="nonzero" opacity="0.1"></path>
                <path d="M838.72,725.31 L848.37,695.04 C849.81,690.51 851.27,685.91 851.44,681.15 C851.61,676.39 850.36,671.4 847.03,668 C844.33,665.25 840.59,663.83 837.39,661.68 C829.39,656.29 825.39,646.85 821.22,638.16 C817.05,629.47 811.56,620.38 802.46,617.16 C800.36,616.42 797.46,616.36 796.52,618.37 C796.194868,619.205643 796.142364,620.12271 796.37,620.99 C797.25,625.61 800.56,629.3 803.44,632.99 C808.27,639.24 812.31,646.89 811.15,654.71 C809.77,663.97 801.45,671.15 800.45,680.46 C800.01,684.56 801.06,688.67 801.05,692.8 C801.05,695.36 800.63,697.97 801.2,700.47 C801.791597,702.402985 802.496141,704.29958 803.31,706.15 C804.200692,709.139857 804.665267,712.24039 804.69,715.36 L806.8,754.72 C807.94,776.01 796.39,796.72 799.57,817.72 C800.41,823.23 802.03,828.59 802.79,834.11 C803.79,841.04 803.32,848.11 804.66,854.98 C806,861.85 809.66,868.82 816,871.64 C818.535372,872.681179 821.260109,873.18185 824,873.11 C834.294908,872.969094 843.770983,867.46918 849,858.6 C855.3,847.6 853.78,834.01 852.06,821.47 L847.82,790.47 C847.38441,786.770576 846.743421,783.098239 845.9,779.47 C844.84,775.21 843.24,771.11 841.9,766.93 C837.61,753.26 834.4,738.89 838.72,725.31 Z" id="Path" fill="#FBBEBE" fill-rule="nonzero"></path>
                <rect id="Rectangle" fill="#3F3D56" fill-rule="nonzero" x="880.57" y="727.66" width="223" height="142" rx="7.97"></rect>
                <rect id="Rectangle" fill="#000000" fill-rule="nonzero" opacity="0.2" x="880.57" y="727.66" width="223" height="142" rx="7.97"></rect>
                <circle id="Oval" fill="#FFFFFF" fill-rule="nonzero" cx="991.57" cy="798.66" r="6"></circle>
                <path d="M728.44,915 L740.55,915 C754.357119,915 765.55,926.192881 765.55,940 L765.55,977.11 L703.44,977.11 L703.44,940 C703.44,926.192881 714.632881,915 728.44,915 Z" id="Path" fill="#3F3D56" fill-rule="nonzero"></path>
                <path d="M728.44,915 L740.55,915 C754.357119,915 765.55,926.192881 765.55,940 L765.55,977.11 L703.44,977.11 L703.44,940 C703.44,926.192881 714.632881,915 728.44,915 Z" id="Path" fill="#000000" fill-rule="nonzero" opacity="0.1"></path>
                <circle id="Oval" fill="#3F3D56" fill-rule="nonzero" cx="732.02" cy="923.7" r="4.97"></circle>
                <circle id="Oval" fill="#3F3D56" fill-rule="nonzero" cx="732.02" cy="917.49" r="4.97"></circle>
                <circle id="Oval" fill="#3F3D56" fill-rule="nonzero" cx="732.02" cy="911.28" r="4.97"></circle>
                <circle id="Oval" fill="#3F3D56" fill-rule="nonzero" cx="732.02" cy="905.07" r="4.97"></circle>
                <circle id="Oval" fill="#3F3D56" fill-rule="nonzero" cx="732.02" cy="898.86" r="4.97"></circle>
                <circle id="Oval" fill="#3F3D56" fill-rule="nonzero" cx="732.02" cy="892.65" r="4.97"></circle>
                <circle id="Oval" fill="#3F3D56" fill-rule="nonzero" cx="732.02" cy="886.44" r="4.97"></circle>
                <circle id="Oval" fill="#3F3D56" fill-rule="nonzero" cx="739.47" cy="888.92" r="4.97"></circle>
                <circle id="Oval" fill="#3F3D56" fill-rule="nonzero" cx="744.44" cy="886.44" r="4.97"></circle>
                <circle id="Oval" fill="#3F3D56" fill-rule="nonzero" cx="749.41" cy="883.95" r="4.97"></circle>
                <circle id="Oval" fill="#3F3D56" fill-rule="nonzero" cx="732.02" cy="880.22" r="4.97"></circle>
                <circle id="Oval" fill="#3F3D56" fill-rule="nonzero" cx="732.02" cy="874.01" r="4.97"></circle>
                <circle id="Oval" fill="#3F3D56" fill-rule="nonzero" cx="732.02" cy="867.8" r="4.97"></circle>
                <circle id="Oval" fill="#3F3D56" fill-rule="nonzero" cx="732.02" cy="861.59" r="4.97"></circle>
                <path d="M752.61,845.56 C751.38,845.74 750.14,845.87 748.9,845.95 C750.052798,844.944142 751.122908,843.847279 752.1,842.67 C751.408079,840.582979 750.396001,838.616173 749.1,836.84 C747.868102,837.531991 746.506097,837.961022 745.1,838.1 C743.87,838.28 742.63,838.42 741.39,838.5 C743.05639,836.914254 744.641737,835.245467 746.14,833.5 C738.730854,826.836205 727.669739,826.264402 719.612955,832.128688 C711.556171,837.992974 708.700487,848.694389 712.76438,857.793091 C716.828274,866.891794 726.703681,871.906926 736.447832,869.820507 C746.191983,867.734088 753.14803,859.115003 753.130035,849.15 C753.130035,847.932941 753.023275,846.718226 752.81,845.52 L752.61,845.56 Z" id="Path" fill="#6C63FF" fill-rule="nonzero"></path>
                <path d="M769.22,870.25 C767.950621,871.027095 766.521353,871.505797 765.04,871.65 C763.81,871.83 762.57,871.96 761.33,872.04 C762.647933,870.857855 763.877864,869.581133 765.01,868.22 C758.800574,866.601043 752.378586,869.970877 750.182595,876.000439 C747.986605,882.030001 750.737276,888.740553 756.533482,891.494095 C762.329688,894.247637 769.269271,892.140531 772.555935,886.629104 C775.8426,881.117677 774.397753,874.010629 769.22,870.22 L769.22,870.25 Z" id="Path" fill="#6C63FF" fill-rule="nonzero"></path>
                <circle id="Oval" fill="#3F3D56" fill-rule="nonzero" cx="724.56" cy="888.92" r="4.97"></circle>
                <circle id="Oval" fill="#3F3D56" fill-rule="nonzero" cx="719.59" cy="886.44" r="4.97"></circle>
                <circle id="Oval" fill="#3F3D56" fill-rule="nonzero" cx="714.62" cy="883.95" r="4.97"></circle>
                <path d="M694.81,870.25 C696.078634,871.028692 697.50828,871.507521 698.99,871.65 C700.22,871.83 701.46,871.96 702.7,872.04 C701.379581,870.860434 700.149466,869.583521 699.02,868.22 C705.229426,866.601043 711.651414,869.970877 713.847405,876.000439 C716.043395,882.030001 713.292724,888.740553 707.496518,891.494095 C701.700312,894.247637 694.760729,892.140531 691.474065,886.629104 C688.1874,881.117677 689.632247,874.010629 694.81,870.22 L694.81,870.25 Z" id="Path" fill="#6C63FF" fill-rule="nonzero"></path>
                <path d="M728.44,918.73 L740.55,918.73 C754.357119,918.73 765.55,929.922881 765.55,943.73 L765.55,976.6 C765.55,978.941687 763.651687,980.84 761.31,980.84 L707.68,980.84 C705.338313,980.84 703.44,978.941687 703.44,976.6 L703.44,943.73 C703.44,929.922881 714.632881,918.73 728.44,918.73 Z" id="Path" fill="#3F3D56" fill-rule="nonzero"></path>
                <g id="Group" opacity="0.1" transform="translate(711.000000, 828.000000)" fill="#000000" fill-rule="nonzero">
                    <path d="M41.99,18.92 C41.4868418,19.4575115 40.9525912,19.9650496 40.39,20.44 C40.96,20.44 41.52,20.35 42.09,20.29 C42.07,19.83 42.04,19.37 41.99,18.92 Z" id="Path"></path>
                    <path d="M32.93,12.98 C34.18,12.9 35.41,12.77 36.65,12.59 C37.7624956,12.4490282 38.8497398,12.1528131 39.88,11.71 C39.3741996,10.7102708 38.7924949,9.75079243 38.14,8.84 C37.5180045,9.2186737 36.8443051,9.50499595 36.14,9.69 C35.1593956,10.8704672 34.0859754,11.9706394 32.93,12.98 L32.93,12.98 Z" id="Path"></path>
                    <path d="M2.38,23.65 C2.36483524,15.926935 6.57421654,8.81387751 13.3514032,5.11040565 C20.1285899,1.4069338 28.3884333,1.70603955 34.88,5.89 L35.2,5.55 C29.5408336,0.514733142 21.6167978,-1.10059161 14.4382173,1.31768429 C7.25963677,3.73596019 1.9282053,9.81670499 0.469322702,17.2498563 C-0.989559896,24.6830075 1.64800045,32.3278028 7.38,37.28 C4.14589584,33.4755939 2.37322179,28.6432844 2.38,23.65 Z" id="Path"></path>
                </g>
                <g id="Group" opacity="0.1" transform="translate(749.000000, 867.000000)" fill="#000000" fill-rule="nonzero">
                    <path d="M12.33,7.52 C13.57,7.44 14.81,7.31 16.04,7.13 C17.5223131,6.99031773 18.9525768,6.51128205 20.22,5.73 C23.059527,7.82125029 24.8771141,11.0202036 25.22,14.53 C25.268504,14.0950427 25.2918761,13.6576494 25.29,13.22 C25.3091137,9.28104607 23.4526313,5.56808144 20.29,3.22 C19.0206206,3.99709464 17.5913526,4.47579684 16.11,4.62 L15.11,4.74 C14.2566379,5.73718111 13.3271811,6.66663787 12.33,7.52 Z" id="Path"></path>
                    <path d="M12.83,3.28 C13.2447799,3.28473354 13.6588838,3.31478947 14.07,3.37 C14.72,2.68 15.36,1.94 16.01,1.22 C12.2837899,0.224678348 8.30660376,1.0198774 5.2495704,3.37144152 C2.19253705,5.72300564 0.403772736,9.3631531 0.409983794,13.22 C0.409983794,13.64 0.409983794,14.05 0.47,14.46 C1.10697033,8.11189901 6.45002223,3.27894429 12.83,3.28 Z" id="Path"></path>
                </g>
                <g id="Group" opacity="0.1" transform="translate(689.000000, 867.000000)" fill="#000000" fill-rule="nonzero">
                    <path d="M13.7,7.52 C12.46,7.44 11.22,7.31 9.99,7.13 C8.50731217,6.99209091 7.07665438,6.51292323 5.81,5.73 C2.97047303,7.82125029 1.15288589,11.0202036 0.81,14.53 C0.761496009,14.0950427 0.738123851,13.6576494 0.74,13.22 C0.720886343,9.28104607 2.57736866,5.56808144 5.74,3.22 C7.00863422,3.99869175 8.43828031,4.47752058 9.92,4.62 L10.92,4.74 C11.7679719,5.7421547 12.6978453,6.67202807 13.7,7.52 Z" id="Path"></path>
                    <path d="M13.2,3.28 C12.7818989,3.28474761 12.3644687,3.31480258 11.95,3.37 C11.31,2.68 10.67,1.94 10.02,1.22 C13.7462101,0.224678348 17.7233962,1.0198774 20.7804296,3.37144152 C23.837463,5.72300564 25.6262273,9.3631531 25.6200162,13.22 C25.6200162,13.64 25.6200162,14.05 25.56,14.46 C24.9230297,8.11189901 19.5799778,3.27894429 13.2,3.28 Z" id="Path"></path>
                </g>
                <rect id="Rectangle" fill="#FFE15F" fill-rule="nonzero" x="437.11" y="483.65" width="226" height="88"></rect>
                <rect id="Rectangle" stroke="#3F3D56" stroke-width="9" x="437.11" y="483.65" width="371" height="88" rx="12"></rect>
                <path d="M606.54,518.15 C610.073617,511.31843 617.538781,507.466126 625.15417,508.544391 C632.769558,509.622656 638.871827,515.395977 640.37,522.94 C646.699456,523.306637 651.636553,528.55999 651.610107,534.9 C651.62106,541.584275 646.214264,547.01345 639.53,547.030091 L639.53,547.030091 L608.11,547.030091 C600.398728,547.057078 594.019095,541.036053 593.600503,533.336103 C593.181912,525.636154 598.871237,518.959025 606.54,518.15 Z M626.48,517.98 L618.74,517.98 L618.74,527.16 L610.53,527.16 L622.61,539.25 L634.69,527.16 L626.48,527.16 L626.48,517.98 Z" id="Shape" fill="#7191F8" fill-rule="nonzero"></path>
            </g>
        </g>
    </g>
</svg>