<?xml version="1.0" encoding="UTF-8"?>
<svg width="163px" height="163px" viewBox="0 0 163 163" version="1.1" xmlns="http://www.w3.org/2000/svg" xmlns:xlink="http://www.w3.org/1999/xlink">
    <!-- Generator: Sketch 61 (89581) - https://sketch.com -->
    <title>Group</title>
    <desc>Created with Sketch.</desc>
    <g id="logos_old" stroke="none" stroke-width="1" fill="none" fill-rule="evenodd">
        <g id="album_256" transform="translate(-47.000000, -47.000000)">
            <g id="Group" transform="translate(47.000000, 47.000000)">
                <rect id="Rectangle" stroke="#F8F8F8" stroke-width="8" fill="#5FCDFF" x="4" y="4" width="155" height="155" rx="16"></rect>
                <polygon id="Triangle" fill="#CDFF5F" points="74 117 114 155 34 155"></polygon>
                <path d="M133,108 L155,130 L155,147 C155,151.418278 151.418278,155 147,155 L86,155 L133,108 Z" id="Combined-Shape" fill="#CDFF5F"></path>
                <circle id="Oval" fill="#FFE15F" cx="38.5" cy="41.5" r="15.5"></circle>
                <path d="M67.6,85 C65.0594902,85 63,82.9106622 63,80.3333333 C63,77.7560045 65.0594902,75.6666667 67.6,75.6666667 L68.4165,75.6666667 C69.1755,72.9716667 71.625,71 74.5,71 C77.993201,71 80.825,73.8728395 80.825,77.4166667 L80.825,78 L82.55,78 C84.4553824,78 86,79.5670034 86,81.5 C86,83.4329966 84.4553824,85 82.55,85 L67.6,85 Z" id="Path" fill="#FFFFFF"></path>
                <path d="M98.4,93 C95.4176624,93 93,90.6121853 93,87.6666667 C93,84.721148 95.4176624,82.3333333 98.4,82.3333333 L99.3585,82.3333333 C100.2495,79.2533333 103.125,77 106.5,77 C110.600714,77 113.925,80.2832452 113.925,84.3333333 L113.925,85 L115.95,85 C118.186753,85 120,86.790861 120,89 C120,91.209139 118.186753,93 115.95,93 L98.4,93 Z" id="Path" fill="#FFFFFF"></path>
                <path d="M130,78 C128.343146,78 127,76.6568542 127,75 C127,73.3431458 128.343146,72 130,72 L130.5325,72 C131.0275,70.2675 132.625,69 134.5,69 C136.778175,69 138.625,70.8468254 138.625,73.125 L138.625,73.5 L139.75,73.5 C140.992641,73.5 142,74.5073593 142,75.75 C142,76.9926407 140.992641,78 139.75,78 L130,78 Z" id="Path" fill="#FFFFFF"></path>
            </g>
        </g>
    </g>
</svg>