<?xml version="1.0" encoding="UTF-8"?>
<svg width="164px" height="164px" viewBox="0 0 164 164" version="1.1" xmlns="http://www.w3.org/2000/svg" xmlns:xlink="http://www.w3.org/1999/xlink">
    <!-- Generator: Sketch 61 (89581) - https://sketch.com -->
    <title>Group</title>
    <desc>Created with Sketch.</desc>
    <g id="logos_old" stroke="none" stroke-width="1" fill="none" fill-rule="evenodd">
        <g id="playlist_256" transform="translate(-46.000000, -46.000000)">
            <g id="Group" transform="translate(46.295736, 46.295736)">
                <rect id="Rectangle" stroke="#F8F8F8" stroke-width="2" fill="#5FCDFF" x="1" y="1" width="161" height="161" rx="8"></rect>
                <path d="M65.5679002,56.2738735 L65.5679002,100.020028 C63.3619184,98.4294536 60.5338911,97.4724106 57.4542638,97.4724106 C50.4238365,97.4724106 44.7042638,102.458939 44.7042638,108.588337 C44.7042638,114.717736 50.4238365,119.704264 57.4542638,119.704264 C64.4846911,119.704264 70.2042638,114.717736 70.2042638,108.588337 L70.2042638,70.6069793 L108.0679,61.313298 L108.0679,89.5885355 C105.861918,87.9979614 103.033891,87.0409185 99.9542638,87.0409185 C92.9238365,87.0409185 87.2042638,92.0274465 87.2042638,98.1568451 C87.2042638,104.286244 92.9238365,109.272772 99.9542638,109.272772 C106.984691,109.272772 112.704264,104.286244 112.704264,98.1568451 L112.704264,44.7042638 L65.5679002,56.2738735 Z" id="Path" fill="#FFE15F" fill-rule="nonzero"></path>
            </g>
        </g>
    </g>
</svg>