<?xml version="1.0" encoding="UTF-8"?>
<svg width="256px" height="256px" viewBox="0 0 256 256" version="1.1" xmlns="http://www.w3.org/2000/svg" xmlns:xlink="http://www.w3.org/1999/xlink">
    <!-- Generator: Sketch 54.1 (76490) - https://sketchapp.com -->
    <title>playlist_256</title>
    <desc>Created with Sketch.</desc>
    <g id="playlist_256" stroke="none" stroke-width="1" fill="none" fill-rule="evenodd">
        <rect id="Rectangle" stroke="#F8F8F8" stroke-width="2" fill="#5FCDFF" x="47.2957362" y="47.2957362" width="161" height="161" rx="8"></rect>
        <path d="M111.863636,102.56961 L111.863636,146.315764 C109.657655,144.72519 106.829627,143.768147 103.75,143.768147 C96.7195727,143.768147 91,148.754675 91,154.884073 C91,161.013472 96.7195727,166 103.75,166 C110.780427,166 116.5,161.013472 116.5,154.884073 L116.5,116.902715 L154.363636,107.609034 L154.363636,135.884272 C152.157655,134.293698 149.329627,133.336655 146.25,133.336655 C139.219573,133.336655 133.5,138.323183 133.5,144.452581 C133.5,150.58198 139.219573,155.568508 146.25,155.568508 C153.280427,155.568508 159,150.58198 159,144.452581 L159,91 L111.863636,102.56961 Z" id="Path" fill="#FFE15F" fill-rule="nonzero"></path>
    </g>
</svg>