<?xml version="1.0" encoding="UTF-8"?>
<svg width="256px" height="256px" viewBox="0 0 256 256" version="1.1" xmlns="http://www.w3.org/2000/svg" xmlns:xlink="http://www.w3.org/1999/xlink">
    <!-- Generator: Sketch 54.1 (76490) - https://sketchapp.com -->
    <title>arcade_256</title>
    <desc>Created with Sketch.</desc>
    <g id="arcade_256" stroke="none" stroke-width="1" fill="none" fill-rule="evenodd">
        <g id="arcade" transform="translate(13.000000, 13.000000)">
            <circle id="Combined-Shape" fill="#7D6EF3" cx="115" cy="115" r="115"></circle>
            <path d="M65.8205163,145.144771 C65.3063335,144.392152 65.0183618,143.467338 65,142.509701 L65,137.983582 C65,137.983582 65,135.348512 67.2866848,136.433541 C67.2866848,136.433541 95.9240489,151.329434 100.51087,153.778498 C104.882946,156.250213 109.713091,157.452817 114.580707,157.281591 C119.425746,157.304213 124.22031,156.147442 128.650543,153.887001 L161.713315,136.278537 C164,135.147007 164,137.828578 164,137.828578 L164,142.354697 C163.979712,143.311921 163.691952,144.236055 163.179484,144.989767 C162.372418,146.121296 161.054212,147.624836 157.287908,149.515886 C154.355571,151.220931 131.596332,162.908239 128.327717,164.597784 C123.922162,166.945299 119.110626,168.106165 114.25788,167.992373 C108.797253,167.993026 103.413861,166.505869 98.5470109,163.652259 C92.6554348,160.459175 74.3350543,151.019426 71.3758152,149.515886 C67.784375,147.593835 66.8024457,146.431305 65.8205163,145.144771 Z M71.7118644,116.062259 L100.465492,101.079669 C103.320446,99.581731 106.342737,98.5452984 109.445966,98 L109.445966,125.054893 C109.445966,126.933491 111.728,128.42713 114.506712,128.42713 C117.285424,128.42713 119.245288,126.887296 119.245288,125.054893 L119.245288,98.0769917 C122.452286,98.6216757 125.581079,99.6574721 128.547932,101.156661 L157.288136,116.139251 C159.744678,117.44811 164,119.696269 164,123.453465 C164,127.210661 159.758102,129.258641 157.288136,130.752281 L128.547932,145.627082 C119.597619,150.124306 109.415805,150.124306 100.465492,145.627082 L71.7118644,130.675289 C69.2687458,129.366429 65,127.118271 65,123.376473 C65,119.634675 69.4298305,117.371118 71.7118644,116.062259 Z M79.0418037,120.475786 C76.3193988,122.426274 76.3193988,125.569623 79.0418037,127.536231 C82.1554987,129.487923 85.8445013,129.487923 88.9581963,127.536231 C91.6806012,125.569623 91.6806012,122.426274 88.9581963,120.475786 C85.847663,118.508071 82.152337,118.508071 79.0418037,120.475786 Z M114.834663,94.9965865 C107.103478,94.8922394 100.910034,87.6456713 101.000989,78.8106547 C101.091944,69.9756381 107.432857,62.8975865 115.16405,63.0011215 C122.895244,63.1046565 129.089271,70.3505741 128.999026,79.1856002 C128.988799,83.4408227 127.482522,87.5128169 124.818808,90.4861903 C122.155095,93.4595637 118.557461,95.0848157 114.834663,94.9965865 Z" id="Shape" fill="#FFFFFF" fill-rule="nonzero"></path>
        </g>
    </g>
</svg>