<?xml version="1.0" encoding="UTF-8"?>
<svg width="981px" height="703px" viewBox="0 0 981 703" version="1.1" xmlns="http://www.w3.org/2000/svg" xmlns:xlink="http://www.w3.org/1999/xlink">
    <!-- Generator: Sketch 63.1 (92452) - https://sketch.com -->
    <title>undraw_social_influencer_sgsv</title>
    <desc>Created with Sketch.</desc>
    <g id="illustrations" stroke="none" stroke-width="1" fill="none" fill-rule="evenodd">
        <g id="Gallery" transform="translate(-1255.000000, -2153.000000)">
            <g id="undraw_social_influencer_sgsv" transform="translate(1255.000000, 2153.000000)">
                <path d="M980.21666,422.94865 C980.21666,545.78808 907.19057,588.67902 817.10833,588.67902 C727.02609,588.67902 654,545.78811 654,422.94865 C654,300.10919 817.10833,143.83814 817.10833,143.83814 C817.10833,143.83814 980.21666,300.10926 980.21666,422.94865 Z" id="Path" fill="#F2F2F2" fill-rule="nonzero"></path>
                <polygon id="Path" fill="#3F3D56" fill-rule="nonzero" points="811.167 569.888 812.837 467.083 882.358 339.898 813.099 450.956 813.85 404.73 861.763 312.713 814.048 392.497 814.048 392.498 815.399 309.358 866.706 236.101 815.611 296.285 816.455 143.838 811.152 345.65 811.588 337.325 759.424 257.48 810.751 353.307 805.891 446.158 805.746 443.694 745.61 359.668 805.564 452.4 804.956 464.012 804.847 464.187 804.897 465.14 792.566 700.713 809.041 700.713 811.018 579.035 870.825 486.53"></polygon>
                <path d="M88.21666,626.45765 C88.21666,659.67632 68.46866,671.27504 44.10833,671.27504 C19.748,671.27504 0,659.67632 0,626.45765 C0,593.23898 44.10833,550.97955 44.10833,550.97955 C44.10833,550.97955 88.21666,593.23894 88.21666,626.45765 Z" id="Path" fill="#F2F2F2" fill-rule="nonzero"></path>
                <polygon id="Path" fill="#3F3D56" fill-rule="nonzero" points="42.502 666.194 42.953 638.393 61.753 603.999 43.024 634.031 43.227 621.531 56.184 596.647 43.281 618.223 43.281 618.223 43.646 595.74 57.521 575.93 43.704 592.205 43.932 550.98 42.498 605.554 42.615 603.303 28.509 581.711 42.389 607.625 41.075 632.734 41.036 632.068 24.774 609.345 40.986 634.422 40.822 637.562 40.793 637.609 40.806 637.867 37.471 701.572 41.927 701.572 42.461 668.667 58.635 643.652"></polygon>
                <line x1="6.21666" y1="701.68689" x2="894.21666" y2="701.68689" id="Path" stroke="#3F3D56" stroke-width="2"></line>
                <path d="M894.68998,671.79805 C894.68998,694.2666 881.33354,702.11179 864.8561,702.11179 C864.474393,702.11179 864.09329,702.10755 863.71279,702.09907 C862.94934,702.0827 862.19317,702.04636 861.4461,701.99546 C846.57553,700.94301 835.02223,692.6943 835.02223,671.79805 C835.02223,650.1729 862.6567,622.88563 864.73249,620.86615 L864.73613,620.86253 C864.81613,620.78437 864.85613,620.74619 864.85613,620.74619 C864.85613,620.74619 894.68998,649.32949 894.68998,671.79805 Z" id="Path" fill="#4285F4" fill-rule="nonzero"></path>
                <path d="M863.76913,698.67452 L874.68075,683.42765 L863.74186,700.34865 L863.71279,702.0991 C862.94934,702.08273 862.19317,702.04639 861.4461,701.99549 L862.62217,679.51602 L862.61307,679.34152 L862.63307,679.3088 L862.74395,677.18573 L851.77776,660.22295 L862.77847,675.5934 L862.80394,676.04418 L863.69277,659.05963 L854.30438,641.53156 L863.80729,656.07856 L864.73249,620.86611 L864.73613,620.74611 L864.73613,620.86245 L864.58163,648.6296 L873.92824,637.6216 L864.54347,651.02166 L864.29626,666.22852 L873.02303,651.63423 L864.25992,668.46611 L864.12177,676.92022 L876.79111,656.60744 L864.07451,679.87035 L863.76913,698.67452 Z" id="Path" fill="#3F3D56" fill-rule="nonzero"></path>
                <rect id="Rectangle" fill="#3F3D56" fill-rule="nonzero" x="568.5742" y="159.10277" width="10.31185" height="85.02017" rx="2.29166"></rect>
                <rect id="Rectangle" fill="#3F3D56" fill-rule="nonzero" x="225.75772" y="92.49662" width="5.78726" height="27.98931" rx="1.50327"></rect>
                <rect id="Rectangle" fill="#3F3D56" fill-rule="nonzero" x="225.54727" y="143.74022" width="6.52383" height="48.71824" rx="1.6946"></rect>
                <rect id="Rectangle" fill="#3F3D56" fill-rule="nonzero" x="225.6525" y="209.50458" width="6.20816" height="49.13913" rx="1.6126"></rect>
                <rect id="Rectangle" fill="#3F3D56" fill-rule="nonzero" x="229.03552" y="0" width="345.10432" height="701.37379" rx="35.69395"></rect>
                <rect id="Rectangle" fill="#E6E8EC" fill-rule="nonzero" x="368.29776" y="20.94499" width="48.19213" height="9.78574" rx="2.54189"></rect>
                <circle id="Oval" fill="#E6E8EC" fill-rule="nonzero" cx="429.32709" cy="25.83786" r="5.55051"></circle>
                <path d="M552.82824,45.68 L552.82824,655.7 C552.825208,670.835252 540.553492,683.1 525.41824,683.1 L277.75824,683.1 C262.622988,683.1 250.351272,670.835252 250.34824,655.7 L250.34824,45.68 C250.34824,38.4102241 253.235244,31.4380196 258.375752,26.2975118 C263.51626,21.157004 270.488464,18.2699999 277.75824,18.2699999 L314.81824,18.2699999 L314.81824,23.03 C314.821817,35.4935849 324.924655,45.5964232 337.38824,45.6 L463.33824,45.6 C475.803293,45.5999669 485.908207,35.4950531 485.90824,23.03 L485.90824,18.2699999 L525.41824,18.2699999 C532.688016,18.2699999 539.66022,21.157004 544.800728,26.2975118 C549.941236,31.4380196 552.82824,38.4102241 552.82824,45.68 L552.82824,45.68 Z" id="Path" fill="#FFFFFF" fill-rule="nonzero"></path>
                <rect id="Rectangle" fill="#F2F2F2" fill-rule="nonzero" x="249.99823" y="159.68689" width="303" height="348"></rect>
                <path d="M271.99823,555.84074 L270.40302,554.40174 C264.73812,549.20069 260.99823,545.82496 260.99823,541.61984 C260.969888,540.003404 261.596986,538.444315 262.736688,537.29769 C263.87639,536.151066 265.431652,535.514538 267.04823,535.53309 C268.959474,535.54327 270.769605,536.393161 271.99823,537.85721 C273.226827,536.393126 275.036976,535.543226 276.94823,535.53309 C278.564808,535.514538 280.12007,536.151066 281.259772,537.29769 C282.399474,538.444315 283.026572,540.003404 282.99823,541.61984 C282.99823,545.82502 279.25823,549.20075 273.59344,554.40174 L271.99823,555.84074 Z" id="Path" fill="#FF6584" fill-rule="nonzero"></path>
                <path d="M329.83156,550.52023 L332.91489,551.40118 C334.032333,548.159585 336.675463,545.676886 339.980593,544.764346 C343.285723,543.851806 346.828256,544.626656 349.45061,546.8357 L344.74227,551.40118 L356.49827,551.40118 L356.49827,539.97265 L351.76017,544.51432 C348.319676,541.496641 343.593762,540.408303 339.179924,541.617195 C334.766087,542.826088 331.254281,546.170631 329.83156,550.52027 L329.83156,550.52023 Z" id="Path" fill="#F2F2F2" fill-rule="nonzero"></path>
                <circle id="Oval" fill="#4285F4" fill-rule="nonzero" cx="269.99823" cy="119.68689" r="14"></circle>
                <rect id="Rectangle" fill="#4285F4" fill-rule="nonzero" x="294.99823" y="111.68689" width="130" height="16"></rect>
                <rect id="Rectangle" fill="#F2F2F2" fill-rule="nonzero" x="260.99823" y="579.68689" width="130" height="16"></rect>
                <rect id="Rectangle" fill="#F2F2F2" fill-rule="nonzero" x="260.99823" y="614.56702" width="275" height="16"></rect>
                <path d="M316.99823,554.82879 L313.55338,548.80027 C315.256494,544.710524 313.689821,539.990929 309.879096,537.731505 C306.068371,535.472082 301.175801,536.361917 298.404658,539.818416 C295.633515,543.274916 295.828952,548.243904 298.86301,551.472078 C301.897069,554.700252 306.844414,555.203071 310.46591,552.65133 L316.99823,554.82879 Z" id="Path" fill="#F2F2F2" fill-rule="nonzero"></path>
                <path d="M375.86095,241.30285 L375.86081,241.30285 C365.467559,243.429727 356.344887,249.598196 350.499679,258.451263 C344.65447,267.30433 342.565533,278.116799 344.69241,288.51005 L352.94771,328.85057 L362.19104,326.95901 L362.84328,322.68401 L364.77858,326.42953 L420.97284,314.92992 L421.62508,310.65492 L423.56038,314.40044 L431.32344,312.8118 L423.06815,272.47128 C420.94128,262.078024 414.772814,252.955345 405.919746,247.11013 C397.066678,241.264914 386.254205,239.175973 375.86095,241.30285 L375.86095,241.30285 Z" id="Path" fill="#2F2E41" fill-rule="nonzero"></path>
                <polygon id="Path" fill="#9F616A" fill-rule="nonzero" points="445.498 365.067 493.498 394.067 487.498 408.067 442.498 387.067"></polygon>
                <path d="M384.49823,398.06702 C384.49823,398.06702 287.49823,398.06702 271.49823,423.06702 C255.49823,448.06702 268.49823,483.06702 318.49823,491.06702 C368.49823,499.06702 520.49823,503.06702 532.49823,473.06702 C544.49823,443.06702 535.49823,426.06702 535.49823,426.06702 C535.49823,426.06702 483.49823,390.06702 384.49823,398.06702 Z" id="Path" fill="#4285F4" fill-rule="nonzero"></path>
                <path d="M470.49823,422.06702 L523.49823,442.06702 C523.49823,442.06702 545.49823,426.06702 534.49823,408.06702 C523.49823,390.06702 473.49823,286.06702 473.49823,286.06702 C473.49823,286.06702 459.49823,266.06702 477.49823,255.06702 C495.49823,244.06702 502.49823,262.06702 502.49823,262.06702 C502.49823,262.06702 501.49823,266.06702 508.49823,263.06702 C515.49823,260.06702 528.49823,270.06702 521.49823,286.06702 C514.49823,302.06702 509.49823,306.06702 524.49823,305.06702 C529.91489,304.70591 534.67955,300.82402 538.55676,296.0111 C545.98822,286.78627 542.67053,279.35615 542.10833,267.52365 C541.14526,247.254 539.57047,234.03765 534.49823,226.06702 C527.49823,215.06702 517.49823,206.06702 491.49823,211.06702 C465.49823,216.06702 427.49823,241.06702 436.49823,277.06702 C445.49823,313.06702 465.49823,353.06702 465.49823,353.06702 C465.49823,353.06702 479.49823,409.06702 470.49823,422.06702 Z" id="Path" fill="#4285F4" fill-rule="nonzero"></path>
                <path d="M470.49823,422.06702 C461.85823,424.44702 451.00823,425.60702 439.3283,425.96702 C418.94818,426.59702 396.00824,424.79702 377.68817,422.75702 C357.89825,420.54702 343.49823,418.06702 343.49823,418.06702 C350.18817,411.82702 360.46823,409.35702 372.54828,408.45702 C387.54828,407.33696 405.32828,408.61702 422.49828,408.06702 C428.827981,407.845523 435.162827,408.321726 441.38828,409.48702 C460.32833,413.09699 470.49823,422.06702 470.49823,422.06702 Z" id="Path" fill="#000000" fill-rule="nonzero" opacity="0.1"></path>
                <circle id="Oval" fill="#9F616A" fill-rule="nonzero" cx="383.99823" cy="286.56702" r="28"></circle>
                <path d="M380.49823,309.06702 C380.49823,309.06702 385.49823,328.06702 380.49823,329.06702 C375.49823,330.06702 363.49823,335.06702 363.49823,335.06702 L378.49823,341.06702 L406.49823,367.06702 L430.49823,379.06702 L442.49823,375.06702 L442.49823,353.06702 L424.49823,325.06702 C424.49823,325.06702 412.49823,329.06702 409.49823,316.06702 C406.49823,303.06702 400.49823,298.06702 400.49823,298.06702 L380.49823,309.06702 Z" id="Path" fill="#9F616A" fill-rule="nonzero"></path>
                <path d="M373.49823,336.06702 L361.49823,336.06702 C361.49823,336.06702 340.49823,343.06702 328.49823,359.06702 C316.49823,375.06702 297.49823,391.06702 297.49823,391.06702 C297.49823,391.06702 284.49823,409.06702 291.49823,434.06702 C298.49823,459.06702 308.49823,477.06702 317.49823,472.06702 C326.49823,467.06702 304.49823,431.06702 304.49823,431.06702 L310.49823,409.06702 C310.49823,409.06702 341.49823,373.06702 354.49823,374.06702 C367.49823,375.06702 368.49823,386.06702 368.49823,386.06702 L396.49823,394.06702 L405.49823,375.06702 L400.49823,355.06702 L373.49823,336.06702 Z" id="Path" fill="#9F616A" fill-rule="nonzero"></path>
                <path d="M445.49823,399.06702 C443.607221,402.311578 442.221335,405.825189 441.38823,409.48702 C440.13989,414.895467 439.449631,420.417702 439.32829,425.96702 C418.94817,426.59702 396.00823,424.79702 377.68816,422.75702 C376.06829,418.43702 374.28826,413.46702 372.54827,408.45702 C367.8582,394.91702 363.49827,381.09702 363.49827,379.06702 C363.49827,375.06702 384.49827,382.06702 389.49827,381.06702 C394.49827,380.06702 396.49827,364.06702 389.49827,356.06702 C382.49827,348.06702 361.99827,334.56702 361.99827,334.56702 L368.99827,332.56702 C368.99827,332.56702 384.49827,344.06702 416.49827,363.06702 C448.49827,382.06702 435.49827,352.06702 435.49827,352.06702 L416.99827,323.56702 L424.99827,323.56702 C424.99827,323.56702 440.49827,350.06702 448.49827,362.06702 C456.49827,374.06702 453.49823,386.06702 445.49823,399.06702 Z" id="Path" fill="#3F3D56" fill-rule="nonzero"></path>
                <rect id="Rectangle" fill="#2F2E41" fill-rule="nonzero" transform="translate(381.639588, 269.541167) rotate(-11.565350) translate(-381.639588, -269.541167) " x="355.757233" y="253.658812" width="51.76471" height="31.76471"></rect>
                <circle id="Oval" fill="#3F3D56" fill-rule="nonzero" cx="512.99823" cy="237.56702" r="15"></circle>
                <circle id="Oval" fill="#FFFFFF" fill-rule="nonzero" cx="512.99823" cy="237.56702" r="8"></circle>
                <path d="M72.73575,410.71184 L71.7137,418.6032 C71.3677,421.27471 71.02151,423.94812 70.83521,426.63549 C70.21547,435.57512 71.3708,444.55069 71.06673,453.50661 C70.83261,460.40201 69.73405,467.29211 70.26473,474.17105 C70.73409,480.2553 72.46589,486.16205 74.1878,492.01638 L76.64903,500.38432 C76.6898356,500.891184 76.9646718,501.350027 77.3922878,501.625201 C77.8199039,501.900374 78.3513823,501.960399 78.8296,501.78753 L89.72134,500.80029 C89.02381,497.60229 88.24804,494.2687 87.87317,491.01702 C87.57669,488.44539 87.39854,485.86181 87.2126,483.27984 C86.63298,475.23143 85.97679,467.18876 85.3206,459.14623 L84.16787,445.01777 C83.66787,438.8892 83.16187,432.72466 81.61893,426.77246 C80.081354,420.74683 77.0226749,415.216796 72.73575,410.71184 L72.73575,410.71184 Z" id="Path" fill="#4285F4" fill-rule="nonzero"></path>
                <path d="M72.73575,410.71184 L71.7137,418.6032 C71.3677,421.27471 71.02151,423.94812 70.83521,426.63549 C70.21547,435.57512 71.3708,444.55069 71.06673,453.50661 C70.83261,460.40201 69.73405,467.29211 70.26473,474.17105 C70.73409,480.2553 72.46589,486.16205 74.1878,492.01638 L76.64903,500.38432 C76.6898356,500.891184 76.9646718,501.350027 77.3922878,501.625201 C77.8199039,501.900374 78.3513823,501.960399 78.8296,501.78753 L89.72134,500.80029 C89.02381,497.60229 88.24804,494.2687 87.87317,491.01702 C87.57669,488.44539 87.39854,485.86181 87.2126,483.27984 C86.63298,475.23143 85.97679,467.18876 85.3206,459.14623 L84.16787,445.01777 C83.66787,438.8892 83.16187,432.72466 81.61893,426.77246 C80.081354,420.74683 77.0226749,415.216796 72.73575,410.71184 L72.73575,410.71184 Z" id="Path" fill="#000000" fill-rule="nonzero" opacity="0.1"></path>
                <path d="M92.13921,681.30034 C91.497869,682.556939 90.939696,683.854277 90.46829,685.18399 C89.21776,688.8551 89.02877,692.78999 88.85085,696.6642 C88.7654749,697.411804 88.8348501,698.168979 89.05466,698.88862 C89.58915,700.28121 91.13005,700.98682 92.57051,701.3742 C98.60297,702.99647 104.96364,701.46959 111.18558,700.91299 C117.29258,700.36667 123.51358,700.76181 129.49515,699.41487 C130.379178,699.248152 131.233633,698.951394 132.03069,698.53426 C133.547043,697.548452 134.678244,696.07115 135.23452,694.35019 C135.416467,693.910037 135.538831,693.447561 135.59837,692.97502 C135.79586,690.93671 134.01927,689.16561 132.08412,688.49562 C130.14897,687.82563 128.04493,687.93631 126.0078,687.72698 C117.392394,686.841682 110.442427,680.28636 109.05556,671.73735 C108.98336,671.29235 98.98265,671.55492 97.93005,672.13235 C96.69799,672.80827 95.95229,674.49556 95.25821,675.63542 C94.13675,677.47714 93.0970833,679.365447 92.13921,681.30034 Z" id="Path" fill="#3F3D56" fill-rule="nonzero"></path>
                <path d="M92.13921,681.30034 C91.497869,682.556939 90.939696,683.854277 90.46829,685.18399 C89.21776,688.8551 89.02877,692.78999 88.85085,696.6642 C88.7654749,697.411804 88.8348501,698.168979 89.05466,698.88862 C89.58915,700.28121 91.13005,700.98682 92.57051,701.3742 C98.60297,702.99647 104.96364,701.46959 111.18558,700.91299 C117.29258,700.36667 123.51358,700.76181 129.49515,699.41487 C130.379178,699.248152 131.233633,698.951394 132.03069,698.53426 C133.547043,697.548452 134.678244,696.07115 135.23452,694.35019 C135.416467,693.910037 135.538831,693.447561 135.59837,692.97502 C135.79586,690.93671 134.01927,689.16561 132.08412,688.49562 C130.14897,687.82563 128.04493,687.93631 126.0078,687.72698 C117.392394,686.841682 110.442427,680.28636 109.05556,671.73735 C108.98336,671.29235 98.98265,671.55492 97.93005,672.13235 C96.69799,672.80827 95.95229,674.49556 95.25821,675.63542 C94.13675,677.47714 93.0970833,679.365447 92.13921,681.30034 Z" id="Path" fill="#000000" fill-rule="nonzero" opacity="0.1"></path>
                <path d="M108.72067,682.24815 C108.079333,683.504751 107.52116,684.802089 107.04975,686.1318 C105.79923,689.80292 105.61023,693.7378 105.43231,697.61201 C105.346934,698.359614 105.416309,699.116789 105.63612,699.83643 C106.17061,701.22903 107.71151,701.93463 109.15197,702.32201 C115.18443,703.94428 121.5451,702.41741 127.76704,701.8608 C133.87404,701.31448 140.09504,701.70963 146.07661,700.36268 C146.960641,700.195971 147.815096,699.899213 148.61215,699.48207 C150.128502,698.496266 151.259704,697.018967 151.81598,695.29801 C151.997936,694.857856 152.120301,694.395376 152.17983,693.92283 C152.37732,691.88453 150.60073,690.11343 148.66558,689.44344 C146.73043,688.77345 144.62639,688.88413 142.58926,688.6748 C133.973849,687.789505 127.02388,681.234176 125.63702,672.68516 C125.56482,672.24016 115.56411,672.50274 114.51151,673.08016 C113.27945,673.75609 112.53375,675.44338 111.83967,676.58323 C110.71821,678.42495 109.678543,680.313257 108.72067,682.24815 Z" id="Path" fill="#3F3D56" fill-rule="nonzero"></path>
                <path d="M151.96916,583.53365 C152.09807,603.61565 146.25777,623.24441 139.40775,642.12148 C136.69575,649.5942 133.817953,657.001813 130.77436,664.34432 C128.97246,668.69603 126.94219,673.52309 128.87301,677.81952 C123.31639,675.70452 117.62708,674.45533 111.76091,675.4318 C113.99391,670.8811 113.78385,665.5824 113.88334,660.5158 C114.077284,653.636348 114.8178,646.783199 116.09789,640.02111 C118.062962,629.73199 121.43419,619.762121 126.11676,610.3919 C127.06611,608.416212 127.720375,606.311894 128.05864,604.14621 C128.666636,599.329974 128.386889,594.443092 127.23326,589.7277 C125.092763,579.281843 121.029473,569.324792 115.25038,560.36378 C115.23198,560.56278 115.21359,560.76543 115.19146,560.9644 C114.841947,563.950854 114.338911,566.917334 113.68435,569.85206 C112.3726,576.07195 110.84341,582.29553 111.07191,588.54857 C111.317816,595.180895 110.906793,601.821278 109.84485,608.37265 C109.507615,610.946679 108.837535,613.466016 107.85142,615.86746 C107.21023,617.30453 106.37383,618.65683 105.86897,620.14546 C105.368171,621.866445 105.106558,623.648154 105.09149,625.44046 C104.34349,640.56275 105.08049,659.91346 108.17195,674.73733 C102.962263,674.497573 97.7852392,675.676884 93.1934,678.1494 C89.457,667.60729 87.07665,652.63405 85.29692,641.53184 C83.2815361,628.416549 83.6911834,615.042686 86.50549,602.07533 C87.3808322,597.748682 87.7089099,593.329171 87.48201,588.9207 C87.08401,580.13991 84.92476,571.5507 82.78024,563.02784 C81.6895733,558.7019 80.5988667,554.374747 79.50812,550.04638 C77.9568533,543.881767 76.40312,537.71592 74.84692,531.54884 C73.81517,527.44771 72.7724,523.25811 73.09666,519.03907 C73.3245153,516.726052 73.8102282,514.445756 74.54475,512.24066 C76.8660227,504.736614 80.3365261,497.637756 84.83264,491.19695 C102.73692,492.20289 120.85864,490.52632 138.73709,489.15189 C139.606424,488.979894 140.508651,489.133327 141.27226,489.58302 C141.879211,490.202033 142.240625,491.020456 142.28926,491.88602 C144.529593,504.572687 146.768703,517.259353 149.00659,529.94602 C150.096399,535.243844 150.736136,540.624357 150.91896,546.03002 C150.95216,551.41715 150.07882,556.78586 150.28151,562.1693 C150.55417,569.42095 151.9249,576.2783 151.96916,583.53365 Z" id="Path" fill="#2F2E41" fill-rule="nonzero"></path>
                <path d="M115.19146,560.9644 C114.841947,563.950854 114.338911,566.917334 113.68435,569.85206 C109.78957,563.11631 105.59261,556.55006 102.00735,549.6448 C101.08247,547.86505 100.20185,546.06319 99.31745,544.26502 C98.43683,542.466853 97.5561633,540.668693 96.67545,538.87054 C96.18166,537.86089 95.68427,536.84754 95.23838,535.81216 C94.5100487,534.320703 93.9513929,532.752221 93.5729,531.13616 C94.87728,530.89666 98.09039,534.41192 99.0558,535.32943 C101.036138,537.282228 102.905987,539.343988 104.65663,541.5051 C106.774819,543.902218 108.71918,546.44749 110.47489,549.12151 C112.718669,552.767407 114.314416,556.774185 115.19146,560.9644 L115.19146,560.9644 Z" id="Path" fill="#000000" fill-rule="nonzero" opacity="0.1"></path>
                <path d="M130.11108,376.11428 C130.11108,376.11428 120.16221,391.95879 122.00459,395.27508 C123.84697,398.59137 90.68405,392.32726 90.68405,392.32726 C90.68405,392.32726 108.73942,376.48276 106.89705,369.85017 C105.05468,363.21758 130.11108,376.11428 130.11108,376.11428 Z" id="Path" fill="#EFB7B9" fill-rule="nonzero"></path>
                <circle id="Oval" fill="#EFB7B9" fill-rule="nonzero" cx="121.26764" cy="358.42738" r="22.47709"></circle>
                <path d="M130.44422,392.72823 C128.038405,389.380483 124.772348,386.745349 120.99165,385.10167 C118.815298,384.322706 116.565258,383.767457 114.27637,383.44452 L105.30878,381.868 C103.11094,381.48162 100.7587,381.112 98.71978,382.01892 C97.6776018,382.545051 96.728812,383.238618 95.91122,384.07198 C92.79422,386.95829 89.77376,390.13298 85.86595,391.79898 C84.79606,392.25509 83.67715,392.58898 82.60895,393.04898 C78.23658,394.93175 74.9675,398.86282 73.11008,403.24598 C71.16153,407.8442 71.10508,412.82835 71.2589,417.81998 C71.2540366,419.542513 71.4234018,421.261122 71.76441,422.94957 C72.2168382,424.556441 72.7853017,426.128354 73.46532,427.65292 C74.7037437,430.909061 75.7409115,434.238224 76.57096,437.62159 C78.8941667,446.51487 80.8256033,455.498383 82.36527,464.57213 C82.4994851,465.876545 82.8831073,467.143018 83.49527,468.30266 C84.3606108,469.456693 85.4076702,470.462495 86.59554,471.28077 C87.5361501,472.060038 88.4055764,472.921432 89.19354,473.85477 C89.5779975,474.2532 89.8597644,474.73917 90.01454,475.27077 C90.30546,476.61226 89.11989,477.76163 88.15765,478.74057 C86.1587354,480.779775 84.7138491,483.295787 83.96001,486.05001 C83.4903403,486.614819 83.2520816,487.336588 83.2932,488.07001 C83.485702,488.577924 83.5573919,489.123661 83.5026,489.66406 C83.3180417,490.1574 83.029816,490.605416 82.65737,490.97788 C81.7902153,492.107047 81.4505033,493.554585 81.7248,494.95163 C88.6920001,497.978761 96.14814,499.724217 103.73504,500.10415 C105.5929,500.19072 107.45804,500.19147 109.30404,500.41896 C110.62054,500.58121 111.92111,500.85814 113.23862,501.0119 C115.155268,501.191564 117.081913,501.240727 119.00523,501.15905 C129.00968,500.96084 139.30766,500.70176 148.49436,496.73528 C149.35979,492.02352 147.49536,487.22248 146.32592,482.57684 C144.46599,475.18851 143.99736,467.52599 142.61354,460.03384 C141.66641,454.90598 140.29072,449.85959 139.50194,444.70499 C138.71316,439.55039 138.52814,434.20619 139.94521,429.18783 C141.20094,424.74083 141.57999,420.21324 142.88156,415.77947 C144.18313,411.3457 145.09527,406.5388 143.62593,402.15777 C141.80398,396.72572 136.16597,392.42824 130.44422,392.72823 Z" id="Path" fill="#4285F4" fill-rule="nonzero"></path>
                <path d="M141.48266,346.51165 C142.57566,342.52034 140.4262,338.366 137.85457,335.12379 C135.09146,331.64016 131.52131,328.49689 127.16185,327.62197 C123.61904,326.91097 119.94802,327.76933 116.34585,327.48363 C113.153,327.2304 110.09363,326.08546 106.91722,325.67463 C104.04392,325.3661 101.141053,325.476204 98.29938,326.0015 C95.5980224,326.395564 92.9580333,327.132925 90.44345,328.1957 C80.87531,332.4352 75.26901,342.90576 73.96816,353.2899 C72.66731,363.67404 74.94837,374.1359 77.21591,384.35261 L79.26563,393.58787 C81.39905,403.20027 83.53963,412.86278 84.11045,422.69252 C84.68127,432.52226 83.61619,442.61336 79.57259,451.59105 C92.6463991,444.568616 102.776038,433.100016 108.12991,419.25895 C109.58391,415.45764 110.66027,411.51358 112.27079,407.77589 C113.65642,404.56011 115.43033,401.51431 116.65852,398.23517 C118.04361,394.530617 118.70868,390.595682 118.61801,386.6417 C118.54815,383.67019 118.05089,380.71264 118.13756,377.74157 C118.22423,374.7705 118.9799,371.66987 121.03379,369.52131 C122.85948,367.61146 125.45368,366.69385 127.80633,365.49147 C131.506095,363.591657 134.738224,360.894583 137.26969,357.5947 C138.75101,355.66463 138.82992,354.84041 139.20669,352.61406 C139.57317,350.4482 140.90712,348.61333 141.48266,346.51165 Z" id="Path" fill="#2F2E41" fill-rule="nonzero"></path>
                <path d="M141.51374,515.37027 C141.74145,517.68113 141.32168,520.04973 141.82705,522.31613 C142.20687,524.01944 143.08942,525.56724 143.6083,527.23346 C144.123634,529.164354 144.388698,531.153468 144.39698,533.15193 C144.47198,534.82787 144.34337,536.86561 142.86103,537.65113 C142.21003,537.99613 141.42903,538.00267 140.75146,538.29207 C140.07389,538.58147 139.49246,539.40293 139.88046,540.02927 C140.20678,540.55595 140.94733,540.56227 141.55426,540.68682 C142.16119,540.81137 142.82906,541.44025 142.47684,541.94998 C142.33535,542.116535 142.14688,542.236504 141.93609,542.29419 C141.315534,542.480877 140.728013,542.763523 140.19485,543.13187 C139.655957,543.515855 139.378869,544.170317 139.47821,544.82452 C139.552073,545.137463 139.76589,545.398978 140.057918,545.533548 C140.349945,545.668117 140.687664,545.660756 140.97355,545.51359 C140.701591,546.094412 140.55305,546.725325 140.53731,547.36647 C142.90912,548.38632 145.57898,547.05292 147.8112,545.75571 C148.779205,545.219022 149.713773,544.624127 150.60976,543.9743 C154.259245,541.156189 156.278681,536.715461 156.00384,532.11275 C155.900391,530.971817 155.72543,529.838502 155.47999,528.71949 C155.133903,526.773554 154.677057,524.848953 154.11168,522.95507 C153.47361,520.95737 152.59655,519.04561 151.8443,517.08807 C150.24143,512.91694 149.20957,508.54986 147.7663,504.32084 C147.724465,503.912356 147.514262,503.539794 147.186254,503.29277 C146.858247,503.045746 146.44212,502.946618 146.03797,503.01923 C144.411594,502.934567 142.781503,503.084591 141.1979,503.46468 C140.2409,503.74407 138.67111,504.35891 138.24215,505.36126 C137.85565,506.26441 138.50346,507.07314 138.91444,507.84675 C140.260315,510.162414 141.143128,512.717662 141.51374,515.37027 Z" id="Path" fill="#EFB7B9" fill-rule="nonzero"></path>
                <path d="M139.99313,402.44948 C140.472785,402.937151 140.874398,403.495849 141.18382,404.10589 C144.37739,409.91008 144.4179,416.85756 144.568,423.48062 C144.737,430.93599 145.145,438.38362 145.553,445.82974 L146.77312,468.09828 C146.88969,470.22576 147.00655,472.35636 147.30493,474.46604 C148.74023,474.82822 148.79958,476.68273 148.63328,478.15365 C147.6058,487.24122 145.04928,496.59615 147.72667,505.34094 C147.828958,505.791478 148.044408,506.208505 148.35267,506.55263 C147.00326,506.126729 145.55838,506.10716 144.19793,506.49636 C142.86335,506.77769 141.58015,507.26582 140.25027,507.56857 C138.55809,507.9538 136.63975,508.11915 135.48521,509.41487 C134.180694,505.485229 133.141888,501.472317 132.37582,497.40329 C131.74197,493.70544 131.56943,489.86059 130.06282,486.42461 C129.45441,485.03709 128.6416,483.75084 127.8999,482.42976 C123.99778,475.47953 122.08732,467.6182 120.22012,459.86928 C119.381818,456.194972 119.180856,452.403974 119.626,448.66163 C119.89119,446.954123 120.046904,445.231404 120.09219,443.50402 C119.973316,441.681617 119.734505,439.869025 119.37731,438.07802 C118.589042,432.824668 118.958268,427.462516 120.45915,422.36679 C121.85743,417.6345 123.08346,412.656 126.0077,408.68126 C128.93194,404.70652 135.05904,402.51654 139.99313,402.44948 Z" id="Path" fill="#000000" fill-rule="nonzero" opacity="0.1"></path>
                <path d="M141.09856,401.71252 C141.578213,402.200193 141.979826,402.75889 142.28925,403.36893 C145.48282,409.17312 145.52333,416.12061 145.67343,422.74367 C145.84243,430.19903 146.25043,437.64667 146.65843,445.09278 L147.87855,467.36132 C147.99512,469.48881 148.11198,471.61941 148.41036,473.72909 C149.84566,474.09127 149.90501,475.94578 149.73871,477.4167 C148.71123,486.50426 146.15471,495.85919 148.83211,504.60398 C148.934389,505.054522 149.14984,505.471551 149.45811,505.81567 C148.108699,505.389772 146.663819,505.370207 145.30337,505.75941 C143.96879,506.04073 142.68559,506.52887 141.35571,506.83162 C139.66353,507.21684 137.74519,507.38219 136.59065,508.67792 C135.286134,504.748275 134.247328,500.735361 133.48126,496.66633 C132.84741,492.96849 132.67487,489.12363 131.16826,485.68766 C130.55985,484.30014 129.74704,483.01389 129.00534,481.69281 C125.10322,474.74257 123.19276,466.88125 121.32556,459.13233 C120.487258,455.458019 120.286296,451.667017 120.73144,447.92467 C120.996635,446.217164 121.15235,444.494444 121.19763,442.76706 C121.078755,440.944657 120.839945,439.132065 120.48275,437.34106 C119.694487,432.087708 120.063713,426.725557 121.56459,421.62983 C122.96288,416.89754 124.1889,411.91904 127.11314,407.9443 C130.03738,403.96956 136.16447,401.77958 141.09856,401.71252 Z" id="Path" fill="#4285F4" fill-rule="nonzero"></path>
                <g id="Group" opacity="0.1" transform="translate(79.000000, 325.000000)" fill="#000000" fill-rule="nonzero">
                    <path d="M58.85459,10.12379 C56.09146,6.64017 52.5213,3.49689 48.16183,2.62198 C44.61902,1.91098 40.94801,2.76934 37.34591,2.48365 C34.15305,2.23041 31.09368,1.08546 27.91728,0.67465 C25.0439841,0.366108892 22.1411184,0.476213142 19.29945,1.00152 C16.5980688,1.39557363 13.9580558,2.13293236 11.44345,3.19571 C10.084666,3.80072477 8.78785771,4.53628474 7.57129,5.39203 C9.81300166,4.54350049 12.1387776,3.93634709 14.5092,3.58086 C17.3508684,3.05555314 20.2537341,2.94544889 23.12703,3.25399 C26.30343,3.66481 29.3628,4.80976 32.55566,5.06299 C36.15776,5.34868 39.82877,4.49028 43.37158,5.20132 C47.73105,6.07623 51.30121,9.21951 54.06434,12.70312 C56.63594,15.94536 58.78545,20.0997 57.69243,24.091 C57.11686,26.19268 55.78293,28.02753 55.41643,30.19341 C55.03967,32.41974 54.96078,33.24398 53.47949,35.17403 C51.5729105,37.6562701 49.2666662,39.8040378 46.6552,41.52938 C47.37588,41.18614 48.10185,40.85149 48.80633,40.49147 C52.5060798,38.5916298 55.738204,35.8945566 58.26969,32.59469 C59.75098,30.66469 59.82987,29.8404 60.20663,27.61407 C60.57312,25.44819 61.90705,23.61334 62.48263,21.51167 C63.5757,17.52036 61.42619,13.36602 58.85459,10.12379 Z" id="Path"></path>
                    <path d="M42.03383,44.5213 C42.4201154,44.1216297 42.8406325,43.7565272 43.29057,43.43017 C41.14277,44.46991 38.88342,45.38528 37.24363,47.10064 C35.18975,49.2492 34.43408,52.34984 34.34736,55.32091 C34.26064,58.29198 34.75794,61.24953 34.82784,64.22103 C34.9185181,68.1750107 34.2534411,72.1099451 32.86833,75.81449 C31.64019,79.09365 29.86627,82.13943 28.48061,85.35522 C26.87014,89.0929 25.79377,93.03696 24.33974,96.83822 C19.6954519,108.835582 11.448057,119.099298 0.73194,126.21765 C0.67742,126.34159 0.62831,126.46749 0.57262,126.591 C13.6464465,119.568584 23.7760912,108.099973 29.12994,94.25889 C30.58394,90.45757 31.66034,86.51352 33.27081,82.77583 C34.65647,79.56004 36.43039,76.51426 37.65853,73.2351 C39.0436418,69.5305553 39.7087188,65.5956208 39.61804,61.64164 C39.54814,58.67014 39.05093,55.71259 39.13756,52.74152 C39.22419,49.77045 39.97995,46.66986 42.03383,44.5213 Z" id="Path"></path>
                </g>
                <path d="M614.66539,699.88658 C613.59548,701.17804 611.76339,701.43791 610.1058,701.60837 C607.964236,701.918877 605.792249,701.960362 603.64039,701.73186 C601.08383,701.35129 599.55239,702.80479 597.21666,701.68686 C595.80408,701.01077 593.62924,702.36294 592.21666,701.68686 C590.2802,700.76003 583.59289,700.5682 582.41401,698.7593 C581.23513,696.9504 581.35501,694.0925 583.21919,693.02488 C583.747763,692.773757 584.293406,692.560266 584.85205,692.386 C587.97305,691.144 594.29522,681.77485 597.61549,681.29508 C599.262938,681.218521 600.898984,681.604028 602.33893,682.40808 C605.61273,683.86134 611.39393,685.00923 612.82234,688.69768 C613.93515,691.57124 616.98018,697.07783 614.66539,699.88658 Z" id="Path" fill="#2F2E41" fill-rule="nonzero"></path>
                <path d="M638.18491,699.14518 C639.25481,700.43664 641.08691,700.69651 642.74449,700.86696 C644.886057,701.177472 647.058048,701.218957 649.20991,700.99045 C651.76647,700.60989 654.88099,702.80479 657.21666,701.6869 C658.62924,701.01081 660.80408,701.36298 662.21666,700.6869 C664.15312,699.76007 673.25741,701.82684 674.43629,700.0179 C675.61517,698.20896 675.49529,695.3511 673.6311,694.28347 C673.102533,694.032345 672.556893,693.818857 671.99825,693.6446 C668.87725,692.4026 658.55508,681.03345 655.2348,680.55368 C653.587355,680.47711 651.951309,680.862618 650.51137,681.66668 C647.23756,683.11993 641.45637,684.26783 640.02796,687.95627 C638.91515,690.82983 635.87011,696.33643 638.18491,699.14518 Z" id="Path" fill="#2F2E41" fill-rule="nonzero"></path>
                <path d="M648.52509,494.94945 C649.548286,496.915248 650.441978,498.945784 651.20046,501.02809 C660.27839,525.04344 661.03846,551.2869 661.41339,576.958 C661.38215,581.131979 661.62052,585.303618 662.12701,589.44687 C662.50744,592.0741 663.10816,594.7298 662.7206,597.35598 C662.3855,599.62673 661.31711,601.86631 661.7432,604.12175 C661.93433,605.13348 662.41927,606.07161 662.60994,607.08342 C662.757605,608.192639 662.727128,609.318326 662.51966,610.41793 L661.30266,619.47356 C660.60937,624.63215 659.0093,629.60063 659.0964,634.80487 C659.15581,638.35474 659.21561,641.91097 659.6109,645.43926 C660.01227,649.0218 660.75935,652.57683 660.79764,656.18158 C660.82633,658.88109 660.45664,661.56651 660.21796,664.25558 C659.880931,668.05307 659.804489,671.86919 659.98917,675.67713 C660.13154,678.61106 660.46808,681.65786 662.02393,684.14936 C660.28068,686.64936 658.55493,688.88908 655.76369,690.11301 C650.09188,692.60001 643.584,691.75636 637.45514,690.8665 C637.79477,689.73526 638.3204,688.45376 637.83037,687.37909 C637.54182,686.858945 637.188143,686.377703 636.77789,685.947 C635.44016,684.044248 634.511548,681.884758 634.05071,679.60493 C633.30891,676.90132 632.56613,673.99104 634.08971,671.39627 C634.614609,670.472389 634.846253,669.41077 634.75392,668.35221 C633.48502,651.32788 629.69737,633.71407 633.18548,617.00621 C633.5578,615.22284 634.0013,613.44979 634.20935,611.63988 C634.396902,609.03646 634.428058,606.424132 634.30265,603.81698 L634.22983,600.1877 C634.0482,596.31505 634.20536,592.34614 633.42864,588.51556 C632.87238,585.77219 631.83364,583.01572 633.11391,580.22034 C633.680016,578.921087 633.609909,577.432487 632.9242,576.19219 C630.231848,571.475396 628.066423,566.476799 626.46698,561.28655 C626.134979,559.836054 625.680161,558.416437 625.10745,557.04306 C624.326414,555.59588 623.428747,554.214753 622.42336,552.91339 C619.38636,548.50906 617.57009,543.39852 615.78719,538.35446 C615.97698,537.89146 615.83119,537.24793 615.33525,537.31452 C614.84507,537.439401 614.424412,537.753561 614.16551,538.18812 C611.72277,541.47148 611.51764,545.85147 611.40787,549.94236 C611.222461,553.74332 611.287421,557.552362 611.60233,561.34479 C611.81133,563.33165 612.15767,565.30291 612.33582,567.29279 C612.569815,571.005505 612.510933,574.730885 612.15972,578.43435 L610.91248,596.65825 C610.743359,598.164908 610.834179,599.689417 611.18098,601.16534 C611.981629,603.719354 612.371603,606.384313 612.33633,609.06065 C612.008171,620.06894 612.959907,631.078088 615.1724,641.86674 C615.7814,644.84539 616.48568,647.80542 617.00255,650.80143 C618.22063,657.86199 618.38749,665.05619 618.55142,672.21918 C618.65222,676.62367 618.72418,681.18595 616.98912,685.23555 C616.311186,686.483902 615.813476,687.82198 615.51082,689.20992 C615.504676,689.925649 615.409522,690.637834 615.22755,691.33007 C614.71829,692.64073 613.19015,693.19901 611.81624,693.49822 C609.23477,694.05977 606.586137,694.248401 603.95114,694.05836 C603.332475,694.048105 602.722303,693.912602 602.15745,693.66003 C601.17467,693.15085 600.65286,692.07162 599.90545,691.25525 C598.29316,689.49425 595.61295,688.9549 594.14409,687.0726 C592.30746,684.71901 593.07864,681.30819 594.17185,678.53015 C595.26506,675.75211 596.61841,672.73506 595.67735,669.90187 C594.56812,666.56241 590.63635,664.76438 589.58085,661.40756 C592.59336,647.87006 585.19535,633.86873 585.82939,620.01456 C585.97707,616.78763 586.53717,613.58376 586.54839,610.35348 C586.57728,602.03236 582.97304,593.93584 583.56592,585.63582 C585.07258,564.54335 577.88876,543.48682 574.84541,522.56075 C574.268405,519.437256 574.052986,516.257708 574.20341,513.08493 C574.65506,507.847 577.08679,502.97217 580.01115,498.60319 C582.10645,495.47282 584.62615,492.40892 588.09681,490.94461 C590.95493,489.73873 594.1575,489.74383 597.2595,489.76786 C604.99892,489.82781 612.7385,489.88776 620.47691,490.02691 C625.7431,489.952791 631.002836,490.423478 636.17219,491.43146 C640.3581,492.38913 644.2744,494.34091 648.52509,494.94945 Z" id="Path" fill="#2F2E41" fill-rule="nonzero"></path>
                <path d="M523.47933,398.79324 C522.72993,395.12437 524.14645,391.19964 523.03833,387.62273 C522.63876,386.33291 521.65708,384.99235 520.30733,385.02973 C518.99571,385.06607 518.10842,386.34998 516.94573,386.95808 C515.07163,387.93825 512.79528,387.04803 510.92234,386.06564 C509.0494,385.08325 506.96134,383.97164 504.93001,384.56048 C504.69096,385.83295 505.5498,387.04614 506.48479,387.94176 C507.520087,388.724054 508.377064,389.717698 508.99879,390.85668 C509.303291,392.088039 509.419064,393.358494 509.34215,394.62461 C509.55483,397.53102 511.39564,400.0333 513.2346,402.29398 C516.197725,405.936549 519.344311,409.425956 522.66215,412.74866 C522.65656,412.74305 527.69554,406.50722 527.59878,405.41796 C527.50752,404.39073 525.8121,403.42949 525.1962,402.60122 C524.352801,401.472437 523.766789,400.172674 523.47933,398.79324 L523.47933,398.79324 Z" id="Path" fill="#A1616A" fill-rule="nonzero"></path>
                <path d="M673.54027,475.59289 C673.989525,476.758734 674.326166,477.9649 674.54559,479.19489 C675.84547,485.49549 676.66494,491.88389 677.47277,498.2663 C677.68836,499.96962 677.90343,501.6756 677.96997,503.39122 C678.198495,507.464896 677.360439,511.527726 675.53857,515.17846 C673.685974,518.838424 670.536145,521.676805 666.70374,523.13972 C665.52325,523.5593 663.87321,523.63564 663.35774,522.49378 C663.174226,521.965594 663.178312,521.390306 663.36931,520.86478 C663.83517,519.16503 664.78354,517.63978 665.39874,515.98823 C666.31153,513.521044 666.463779,510.836879 665.83583,508.2823 C665.59345,507.30561 665.08238,506.21557 664.09509,506.02077 C664.587822,508.273383 664.172832,510.629429 662.94009,512.57812 C662.659413,513.121159 662.175594,513.531345 661.59395,513.71939 C660.753397,513.803512 659.966269,513.295533 659.69666,512.49496 C659.455703,511.709415 659.403252,510.878142 659.54356,510.06854 C659.860196,505.974433 660.483501,501.909846 661.40823,497.90899 C662.50885,493.51742 664.25348,489.18477 664.14153,484.65876 C664.04007,480.55716 662.40606,476.53052 662.86373,472.45327 C662.870046,472.201309 662.951293,471.956943 663.0971,471.75136 C663.240522,471.608066 663.415467,471.500297 663.60796,471.43666 C664.753131,470.963207 665.931073,470.573271 667.13255,470.26991 C667.84222,470.09066 670.26649,469.24891 670.94647,469.6254 C671.49747,469.9304 671.66732,471.75723 671.94247,472.37562 C672.42952,473.47041 673.07867,474.48548 673.54027,475.59289 Z" id="Path" fill="#A1616A" fill-rule="nonzero"></path>
                <circle id="Oval" fill="#A1616A" fill-rule="nonzero" cx="592.60749" cy="337.34715" r="16.74728"></circle>
                <path d="M607.61333,349.46718 C607.611212,350.53445 607.695965,351.600121 607.86675,352.65364 C608.097612,353.719378 608.424411,354.762047 608.84315,355.7689 C609.403066,357.406071 610.192754,358.955383 611.18854,360.37039 C612.200613,361.794292 613.715296,362.781107 615.42672,363.13156 C603.979751,368.496781 591.760194,372.02831 579.21592,373.59671 C581.192309,372.281842 582.836665,370.526338 584.01964,368.46829 C584.647039,367.146851 585.075616,365.739912 585.29147,364.29311 C586.359913,358.238847 585.817287,352.010057 583.71804,346.23175 C583.51004,345.66193 583.30675,344.96269 583.7005,344.50126 C583.868094,344.330719 584.070937,344.198869 584.29483,344.11494 C589.268767,342.009158 594.640297,341.007375 600.03891,341.17869 C601.41859,341.18825 602.7977,341.24927 604.17373,341.34859 C604.9138,341.40201 606.54857,341.24637 607.13688,341.78841 C607.83913,342.43541 607.4872,344.44311 607.50922,345.32036 L607.61333,349.46718 Z" id="Path" fill="#A1616A" fill-rule="nonzero"></path>
                <path d="M616.47392,361.65102 C611.405188,355.154322 602.560035,352.950398 595.03561,356.30929 C587.06401,360.11471 583.13906,369.25242 576.12817,374.62596 C574.533504,375.819022 572.8344,376.865706 571.05154,377.75327 C569.999128,378.334757 568.876529,378.778966 567.71118,379.07504 C566.40066,379.36395 565.03255,379.3238 563.72781,379.63778 C561.241947,380.367934 559.124337,382.011479 557.80017,384.23841 C557.143809,385.402767 556.416237,386.52552 555.6216,387.60027 C554.88885,388.46994 553.97884,389.17263 553.20411,390.00512 C550.41622,393.00087 549.6593,397.3022 549.02371,401.34483 C546.842307,403.641466 544.462031,405.740646 541.91071,407.61783 C541.108635,408.235028 540.218068,408.727738 539.26905,409.07934 C536.81598,409.87419 534.11163,408.86281 532.02113,407.35313 C529.93063,405.84345 528.22784,403.85323 526.16713,402.30307 C524.27303,405.00997 522.29407,407.7259 520.27593,410.34163 C519.971122,410.839591 519.507173,411.220105 518.95919,411.42157 C518.58003,412.69648 519.48919,414.01721 520.16935,415.16024 L523.82126,421.29705 C525.028372,423.530746 526.509017,425.605384 528.229,427.47305 C529.9739,429.351125 532.357008,430.510233 534.91169,430.72341 C536.524347,430.708667 538.121104,430.402998 539.62519,429.8211 C546.58375,427.48056 552.97279,423.74535 559.59256,420.57073 C560.791654,419.88542 562.13502,419.491497 563.51432,419.42073 C564.931319,419.383012 566.199248,420.295684 566.61325,421.65138 C567.37257,425.48484 568.12672,429.30438 569.17044,433.07032 C570.154773,436.622007 571.06919,440.192087 571.91369,443.78056 C572.477681,445.976325 572.880566,448.210347 573.11913,450.4648 C573.22827,451.74491 573.23999,453.0311 573.25164,454.3158 L573.39246,469.84134 C573.40762,471.51278 572.45472,472.55543 571.72136,474.05748 C570.597419,476.38821 570.428057,479.065706 571.24936,481.51948 C571.66125,482.73048 572.30572,483.84941 572.76213,485.0443 C573.86561,487.93322 573.82293,491.11456 573.76545,494.20651 L573.63375,501.29133 C573.600165,501.584605 573.653194,501.881296 573.78629,502.14478 C574.2188,502.82031 575.261,502.42468 575.92029,501.96778 L579.23309,499.67187 C583.665297,500.282873 588.142992,500.499236 592.61346,500.31841 C605.32766,500.13447 618.04499,500.6403 630.72946,501.52826 C634.96164,501.82452 639.33632,502.14555 643.337,500.73359 C645.367,500.01713 647.23738,498.87186 649.31216,498.29768 C650.168574,498.164073 650.981153,497.829477 651.68333,497.3213 C652.8444,496.2473 652.53588,494.36211 652.0624,492.85302 C651.648153,491.53272 651.177793,490.231807 650.65132,488.95028 C650.109238,487.772237 649.667404,486.550604 649.33051,485.29835 C648.69504,482.4722 649.31316,479.20704 647.55375,476.90585 C643.61556,471.75495 646.40302,463.83005 644.75038,457.56029 C644.21565,455.5316 643.42538,453.57576 642.92422,451.53851 C642.60964,450.25964 642.41075,448.9556 642.21222,447.65365 C641.693949,444.83741 641.436817,441.979332 641.4441,439.11581 C641.4921,437.68301 641.6724,436.25832 641.85255,434.83607 L643.10355,424.95948 C644.667815,427.880059 645.754904,431.032027 646.32363,434.29596 C647.462206,439.170962 648.864217,443.980659 650.52349,448.70388 C651.46672,451.55227 652.41008,454.40106 653.42882,457.22332 C654.074065,458.829647 654.570925,460.491664 654.91318,462.18857 C655.13863,463.55731 655.14493,464.95243 655.3033,466.33057 C655.646122,469.285611 656.680102,472.11837 658.3215,474.59942 C658.62501,475.174651 659.126998,475.620162 659.73421,475.85319 C660.144282,475.929128 660.566174,475.911979 660.96873,475.80301 C665.389919,474.930059 669.669086,473.449659 673.68454,471.40391 C674.539708,471.050878 675.282214,470.470983 675.83191,469.72682 C676.91291,467.96974 675.70435,465.77395 675.17891,463.77902 C674.6157,461.64058 674.74691,459.06774 673.06291,457.63459 C667.19821,452.64378 670.10939,442.51085 667.1741,435.39137 C666.65889,434.14174 666.05852,432.92597 665.61424,431.64937 C665.27458,430.67337 665.02829,429.66793 664.7804,428.66473 C662.73136,420.372317 660.538293,412.117283 658.2012,403.89963 C655.778,395.37933 656.03739,386.50456 652.98686,378.18821 C652.413388,376.445101 651.664495,374.764691 650.75169,373.17281 C649.719363,371.50956 648.340041,370.088847 646.70803,369.00781 C642.28074,366.0805 637.81163,363.58743 632.61144,362.52535 C627.41125,361.46327 621.78142,361.62759 616.47392,361.65102 Z" id="Path" fill="#D0CDE1" fill-rule="nonzero"></path>
                <path d="M577.38851,341.44565 C575.13723,340.23306 575.73032,336.94089 575.34772,334.41259 C574.56057,329.21088 568.68226,326.12495 567.30228,321.04824 C568.887633,321.243048 570.49631,321.015294 571.96528,320.38806 C572.248796,318.702448 571.915102,316.971126 571.0254,315.51164 C575.85995,313.54764 579.77257,309.69372 584.68148,307.92374 C590.85468,305.69789 597.7294,307.06397 603.95676,309.13347 C607.06382,310.16602 610.29718,311.50636 612.17564,314.18804 C614.23891,317.13355 614.20764,321.01034 614.0968,324.6049 C613.92296,330.24243 613.70055,336.08216 611.19054,341.13307 C607.99474,347.56398 598.94696,353.5204 591.47154,351.77825 C588.36254,351.05371 587.44754,349.10167 586.13713,346.39996 C585.32153,344.7184 585.01513,342.76626 583.17873,341.89167 C581.38407,341.03694 579.21004,342.42674 577.38851,341.44565 Z" id="Path" fill="#2F2E41" fill-rule="nonzero"></path>
                <g id="Group" opacity="0.1" transform="translate(570.000000, 461.000000)" fill="#000000" fill-rule="nonzero">
                    <path d="M75.29868,0.52216 C75.3194867,0.966966667 75.3319767,1.41459333 75.33615,1.86504 C75.31503,1.42134 75.30373,0.97318 75.29868,0.52216 Z" id="Path"></path>
                    <path d="M2.76217,17.34538 C3.86567,20.2343 3.823,23.41564 3.76546,26.50758 C3.75044,27.3146867 3.73542333,28.1217933 3.72041,28.9289 C3.650096,27.2615779 3.32699963,25.6146003 2.76217,24.04429 C2.30572,22.84939 1.66135,21.73043 1.24935,20.51947 C0.542614901,18.4029081 0.568485847,16.1101259 1.3228,14.01005 C1.73509,15.14804 2.32996,16.21382 2.76217,17.34538 Z" id="Path"></path>
                </g>
                <g id="Group" opacity="0.1" transform="translate(571.000000, 315.000000)" fill="#000000" fill-rule="nonzero">
                    <path d="M0.96525,2.95207 L0.94904,2.95839 C0.796506365,2.09232127 0.483248235,1.26244499 0.02544,0.51161 C0.30944,0.39623 0.58953,0.27324 0.86756,0.14561 C1.08774104,1.06511449 1.12096157,2.01948107 0.96525,2.95207 L0.96525,2.95207 Z" id="Path"></path>
                </g>
                <path d="M44.21666,283.81165 L40.26947,280.25087 C26.25223,267.38139 16.99823,259.02847 16.99823,248.62331 C16.9280864,244.623594 18.4797671,240.765773 21.2998423,237.928551 C24.1199174,235.091329 27.9682621,233.516293 31.96833,233.56219 C36.6975169,233.587377 41.1765109,235.690352 44.21662,239.313 C47.2566804,235.690283 51.7357111,233.587293 56.46492,233.56219 C60.4649878,233.516282 64.3133366,235.091309 67.1334192,237.928523 C69.9535019,240.765737 71.5051929,244.623554 71.43506,248.62327 C71.43506,259.02856 62.18092,267.38148 48.16382,280.25083 L44.21666,283.81165 Z" id="Path" fill="#FF6584" fill-rule="nonzero"></path>
                <path d="M51.21666,274.81165 L47.26947,271.25087 C33.25223,258.38139 23.99823,250.02847 23.99823,239.62331 C23.9280864,235.623594 25.4797671,231.765773 28.2998423,228.928551 C31.1199174,226.091329 34.9682621,224.516293 38.96833,224.56219 C43.6975169,224.587377 48.1765109,226.690352 51.21662,230.313 C54.2566804,226.690283 58.7357111,224.587293 63.46492,224.56219 C67.4649878,224.516282 71.3133366,226.091309 74.1334192,228.928523 C76.9535019,231.765737 78.5051929,235.623554 78.43506,239.62327 C78.43506,250.02856 69.18092,258.38148 55.16382,271.25083 L51.21666,274.81165 Z" id="Path" stroke="#3F3D56" stroke-width="2"></path>
            </g>
        </g>
    </g>
</svg>