<svg width="75" height="96" viewBox="0 0 75 96" xmlns="http://www.w3.org/2000/svg">
  <g fill-rule="nonzero" fill="none">
    <path d="M5.208 62.609A5.212 5.212 0 0 1 0 57.39V34.435a5.212 5.212 0 0 1 5.208-5.218 5.212 5.212 0 0 1 5.209 5.218V57.39a5.212 5.212 0 0 1-5.209 5.218zM69.792 62.609a5.212 5.212 0 0 1-5.209-5.218V34.435a5.212 5.212 0 0 1 5.209-5.218A5.212 5.212 0 0 1 75 34.435V57.39a5.212 5.212 0 0 1-5.208 5.218zM12.5 29.217v43.826a4.17 4.17 0 0 0 4.167 4.174h4.166v13.566A5.212 5.212 0 0 0 26.042 96a5.212 5.212 0 0 0 5.208-5.217V77.217h12.5v13.566A5.212 5.212 0 0 0 48.958 96a5.212 5.212 0 0 0 5.209-5.217V77.217h4.166a4.17 4.17 0 0 0 4.167-4.174V29.217h-50zM49.717 7.396l4.252-5.549a1.045 1.045 0 0 0-.192-1.463 1.039 1.039 0 0 0-1.46.192l-4.49 5.858A24.82 24.82 0 0 0 37.5 4.174c-3.69 0-7.177.824-10.327 2.262L22.683.578c-.348-.455-1-.54-1.46-.192a1.045 1.045 0 0 0-.192 1.463l4.252 5.55c-7.04 3.969-11.977 11.24-12.679 19.731h49.792c-.702-8.491-5.64-15.762-12.68-19.734z" fill="#79C257"/>
    <ellipse fill="#F9FAFC" cx="26.042" cy="15.652" rx="3.125" ry="3.13"/>
    <ellipse fill="#F9FAFC" cx="48.958" cy="15.652" rx="3.125" ry="3.13"/>
  </g>
</svg>