<svg width="79" height="96" viewBox="0 0 79 96" xmlns="http://www.w3.org/2000/svg">
  <g fill="#B3B3B3" fill-rule="nonzero">
    <path d="M78.996 71.43c-2.16 4.802-3.191 6.946-5.973 11.188-3.875 5.925-9.343 13.305-16.118 13.367-6.019.057-7.565-3.931-15.736-3.883C33 92.15 31.296 96.056 25.278 96c-6.775-.062-11.952-6.725-15.831-12.654-10.844-16.57-11.977-36.015-5.29-46.352C8.91 29.645 16.412 25.35 23.462 25.35c7.179 0 11.692 3.95 17.63 3.95 5.758 0 9.265-3.956 17.566-3.956 6.275 0 12.923 3.429 17.661 9.354-15.523 8.537-13 30.782 2.678 36.732zM53.236 14.976C56.252 11.09 58.539 5.608 57.707 0c-4.927.338-10.685 3.485-14.05 7.586-3.053 3.721-5.575 9.241-4.594 14.607 5.374.169 10.94-3.056 14.173-7.217z"/>
  </g>
</svg>
