<?xml version="1.0" standalone="no"?>
<!DOCTYPE svg PUBLIC "-//W3C//DTD SVG 20010904//EN"
 "http://www.w3.org/TR/2001/REC-SVG-20010904/DTD/svg10.dtd">
<svg version="1.0" xmlns="http://www.w3.org/2000/svg"
 width="728.000000pt" height="508.000000pt" viewBox="0 0 728.000000 508.000000"
 preserveAspectRatio="xMidYMid meet">
<metadata>
Created by potrace 1.15, written by Peter Selinger 2001-2017
</metadata>
<g transform="translate(0.000000,508.000000) scale(0.100000,-0.100000)"
fill="#000000" stroke="none">
<path d="M1370 4458 c-109 -17 -222 -95 -266 -185 -18 -37 -19 -94 -22 -1721
l-2 -1684 26 -51 c50 -102 159 -173 288 -188 108 -12 4417 -11 4495 2 127 20
224 88 279 194 l26 50 0 1665 0 1665 -25 55 c-50 106 -157 182 -284 199 -89
13 -4437 12 -4515 -1z m858 -682 c26 -24 99 -88 162 -142 63 -54 120 -104 127
-110 7 -6 76 -67 155 -135 78 -68 169 -149 203 -179 83 -76 141 -126 276 -243
l117 -101 -47 -41 c-25 -23 -158 -140 -296 -260 -317 -276 -510 -445 -643
-563 -58 -51 -109 -91 -113 -90 -23 8 -358 311 -353 319 3 6 38 38 78 72 95
82 351 306 440 385 39 35 97 84 128 110 31 26 59 53 62 59 3 8 -93 99 -231
220 -130 115 -278 244 -328 288 -50 44 -107 93 -126 109 l-34 29 60 53 c33 29
114 100 179 158 66 58 124 106 128 106 5 0 30 -20 56 -44z m2375 -1555 l128
-1 -3 -157 -3 -158 -725 0 -725 0 -3 150 c-1 82 -1 154 1 160 4 9 653 12 1330
6z"/>
</g>
</svg>
