<?xml version="1.0" encoding="utf-8"?>
<!-- Generator: Adobe Illustrator 22.1.0, SVG Export Plug-In . SVG Version: 6.00 Build 0)  -->
<svg version="1.1"
	 id="svg27450" inkscape:export-filename="./tux-large.png" inkscape:export-xdpi="300" inkscape:export-ydpi="300" inkscape:version="0.91 r13725" sodipodi:docname="Tux.svg" xmlns:cc="http://creativecommons.org/ns#" xmlns:dc="http://purl.org/dc/elements/1.1/" xmlns:inkscape="http://www.inkscape.org/namespaces/inkscape" xmlns:rdf="http://www.w3.org/1999/02/22-rdf-syntax-ns#" xmlns:sodipodi="http://sodipodi.sourceforge.net/DTD/sodipodi-0.dtd" xmlns:svg="http://www.w3.org/2000/svg"
	 xmlns="http://www.w3.org/2000/svg" xmlns:xlink="http://www.w3.org/1999/xlink" x="0px" y="0px" viewBox="0 0 630 730"
	 style="enable-background:new 0 0 630 730;" xml:space="preserve">
<style type="text/css">
	.st0{fill:#FCC624;}
	.st1{fill:#F5F5F5;}
	.st2{fill:#E09D00;}
	.st3{fill:#2E3336;}
	.st4{fill:#D9DADB;}
	.st5{fill:#6E6F70;}
</style>
<title  id="title20046">Tux</title>
<sodipodi:namedview  bordercolor="#666666" borderopacity="0.41176471" fit-margin-bottom="0" fit-margin-left="0" fit-margin-right="0" fit-margin-top="0" id="base" inkscape:current-layer="layer1" inkscape:cx="290.37865" inkscape:cy="316.23933" inkscape:document-units="px" inkscape:guide-bbox="true" inkscape:object-paths="true" inkscape:pageopacity="0.0" inkscape:pageshadow="2" inkscape:showpageshadow="false" inkscape:window-height="1056" inkscape:window-maximized="1" inkscape:window-width="1871" inkscape:window-x="49" inkscape:window-y="24" inkscape:zoom="0.60398774" pagecolor="#ffffff" showborder="true" showgrid="false" showguides="true">
	</sodipodi:namedview>
<defs>
	
	<inkscape:path-effect  effect="spiro" id="path-effect4669-1" is_visible="true"></inkscape:path-effect>
	<inkscape:path-effect  effect="spiro" id="path-effect4669-4-3" is_visible="true"></inkscape:path-effect>
	<inkscape:path-effect  effect="spiro" id="path-effect14972-2-2" is_visible="true"></inkscape:path-effect>
	<inkscape:path-effect  effect="spiro" id="path-effect15017-9" is_visible="true"></inkscape:path-effect>
	<inkscape:path-effect  effect="spiro" id="path-effect29716-6-1" is_visible="true"></inkscape:path-effect>
	<inkscape:path-effect  effect="spiro" id="path-effect29716-0-0" is_visible="true"></inkscape:path-effect>
	<inkscape:path-effect  effect="spiro" id="path-effect29716-0-8-3" is_visible="true"></inkscape:path-effect>
	<inkscape:path-effect  effect="spiro" id="path-effect14300-7" is_visible="true"></inkscape:path-effect>
	<inkscape:path-effect  effect="spiro" id="path-effect14300-2-7" is_visible="true"></inkscape:path-effect>
	<inkscape:path-effect  effect="spiro" id="path-effect14300-2-2-0" is_visible="true"></inkscape:path-effect>
	<inkscape:path-effect  effect="spiro" id="path-effect4582-3" is_visible="true"></inkscape:path-effect>
	<inkscape:path-effect  effect="spiro" id="path-effect4500-7" is_visible="true"></inkscape:path-effect>
	<inkscape:path-effect  effect="spiro" id="path-effect29707-7-6" is_visible="true"></inkscape:path-effect>
	<inkscape:path-effect  effect="spiro" id="path-effect29553-7" is_visible="true"></inkscape:path-effect>
	<inkscape:path-effect  effect="spiro" id="path-effect28463-4" is_visible="true"></inkscape:path-effect>
	<inkscape:path-effect  effect="spiro" id="path-effect28489-4" is_visible="true"></inkscape:path-effect>
	<inkscape:path-effect  effect="spiro" id="path-effect28273-54-7" is_visible="true"></inkscape:path-effect>
	<inkscape:path-effect  effect="spiro" id="path-effect28273-44" is_visible="true"></inkscape:path-effect>
	<inkscape:path-effect  effect="spiro" id="path-effect28384-7" is_visible="true"></inkscape:path-effect>
	<inkscape:path-effect  effect="spiro" id="path-effect29455-3" is_visible="true"></inkscape:path-effect>
	<inkscape:path-effect  effect="spiro" id="path-effect28974-8" is_visible="true"></inkscape:path-effect>
	<inkscape:path-effect  effect="spiro" id="path-effect28881-6" is_visible="true"></inkscape:path-effect>
	<inkscape:path-effect  effect="spiro" id="path-effect28851-0" is_visible="true"></inkscape:path-effect>
	<inkscape:path-effect  effect="spiro" id="path-effect28273-4-2" is_visible="true"></inkscape:path-effect>
	<inkscape:path-effect  effect="spiro" id="path-effect28797-81" is_visible="true"></inkscape:path-effect>
	<inkscape:path-effect  effect="spiro" id="path-effect28797-8-1" is_visible="true"></inkscape:path-effect>
	<inkscape:path-effect  effect="spiro" id="path-effect28463-0-7" is_visible="true"></inkscape:path-effect>
	<inkscape:path-effect  effect="spiro" id="path-effect28463-8-0" is_visible="true"></inkscape:path-effect>
	<inkscape:path-effect  effect="spiro" id="path-effect29721-2" is_visible="true"></inkscape:path-effect>
	<inkscape:path-effect  effect="spiro" id="path-effect28714-5" is_visible="true"></inkscape:path-effect>
	<inkscape:path-effect  effect="spiro" id="path-effect29678-4-6" is_visible="true"></inkscape:path-effect>
	<inkscape:path-effect  effect="spiro" id="path-effect29678-1" is_visible="true"></inkscape:path-effect>
	<inkscape:path-effect  effect="spiro" id="path-effect29672-0" is_visible="true"></inkscape:path-effect>
</defs>
<g>
	<path id="path3248" inkscape:connector-curvature="0" d="M234.8,70.2c-6.3,12.3-10.4,27.4-10.8,45.9c-1.5,78.5,3.5,66.4,0.4,102.4
		c-1.1,13.3-9.1,32.7-18.8,52.1c-11.2,22.2-24.6,44.3-33,57.3c-15.7,24.5-34.2,50.1-47.1,76c-7.4,14.7-13,29.6-15.3,44.5
		c-1.5,10-1.7,22.8-1.4,34.9c-9.1,7.8-13.8,21-23.1,31c-6,6.5-17.7,8.6-30.6,11c-11.1,2.1-22.8,6.4-26.9,12.9
		c-0.5,0.7-0.9,1.5-1.2,2.3c-9.3,17.8,2.1,48.3-3.5,70.9c-2.4,9.6-6.4,18.6-6.5,26.9c0,4.3,1,8.8,4,13.9c3.3,5.7,10.5,9.7,20.8,13.2
		c9.6,3.3,22,6.2,36.4,9.5l5,1.2c6.5,1.5,13,3.1,19.5,4.4c4.3,0.9,6.7,1.3,8.9,1.7c9.2,1.6,12.7,2.3,37.3,11.8
		c5.9,2.3,12.5,4.7,19.4,6.8c13.7,4.2,29.3,7.3,43.6,4.7c7.3-1.3,14.1-4,20.2-8.7c6.3-4.9,12.4-11.5,16.7-18.1
		c1.2-1.8,2.2-3.6,3.1-5.5c0.8-1.6,1.5-3.2,2.1-4.9c0.6-1.5,1.1-3.1,1.4-4.7c5.8-2.9,20.1-7.2,54.1-7.5
		c51.3-0.5,85.5,17.9,85.5,17.9l0-0.4c0.4,2.4,1,4.6,1.6,6.8c1,3.1,2.3,6,4,8.8c1.8,2.8,4,5.4,6.8,7.9c3,2.8,6.7,5.4,10.9,7.5
		c3.9,2,8.3,3.7,13.1,5c4.4,1.1,9.1,1.9,14.1,2.1c4.7,0.2,9.6,0,14.7-0.7c8.6-1.2,15.3-3.9,21-7.5c5.6-3.4,10.2-7.5,14.8-11.7
		l0.1-0.1l0,0c3.1-2.8,6.2-5.6,9.6-8.1c2.3-1.7,4.4-3.3,6.5-4.9c3-2.3,4.7-3.6,6.4-4.9c5.1-3.9,10.3-8,15.5-11.9
		c5.4-4,11.2-8,17.4-12c4.7-3,10.1-6.4,15.2-9.8c5.3-3.4,10.8-7.1,16-10.6c9.3-6.3,22.2-14,27-24.1c1.6-3.1,2.5-6.5,2.3-10.1
		c-0.8-11.5-14.5-21.9-26.7-32.3c-5.9-5-11.9-10-15-15.2c-2.5-4.1-5.6-10.4-6.4-14.9c-2.4-12.6-2.4-21.9-8.4-30.2
		c-5.5-7.6-10.3-9.8-18.8-10.8c-1.3-0.1-2.5-0.3-3.6-0.5c5.5-20.1,6.7-32.9,5.7-49.7c-2.3-38.5-27.7-82.3-56.5-126.6
		c-17-27.8-34.8-53.9-46-72.2c-6.1-10.2-9.6-16.9-12.8-25.7c-3.7-10.2-5-35-5.4-75c1.5-61.2-17.6-89.5-40.8-107.2
		c-23.2-17.6-57.1-17.4-69.4-16.3l0,0l0,0v0C298.2,19.6,255,29.9,234.8,70.2L234.8,70.2z"/>
	<path id="path3250" inkscape:connector-curvature="0" class="st0" d="M80.8,525.7c-12.2,5.8-40.2,5.7-47,17.2
		c-7.5,12.7-2.6,26.8-2.6,43c0,11.5-0.2,24.3-5,37.8c-4,11.2-5.4,15.2,0.4,25c5.7,9.9,30.6,14.6,64.3,22.6
		c33.7,7.9,23,2.1,60.7,16.7c23.4,9,56.3,20.1,77.7,3.6c7.9-6.1,20.8-19.9,21.6-33.4c0.5-7.7-0.3-15.9-2.1-20.9
		c-6.2-16.6-18.5-23.7-30.2-41c-21.4-32.2-44.2-62.8-62.4-89.6c-12.8-19-23.2-23.6-31.9-22.1C97.3,489.4,106,513.7,80.8,525.7
		L80.8,525.7L80.8,525.7L80.8,525.7L80.8,525.7z"/>
	<path id="path3252" inkscape:connector-curvature="0" class="st0" d="M422.1,498.2c-11.8,8.3-9.3,33.1-10,46.1
		c-1.1,20-1.2,42.3-1.9,51.1c-1.1,14.7-12.4,47.8-11,63.5c1.3,15.6,2.5,24.8,12.3,33.7c9.8,9,27.1,15.6,48.5,12.6
		c21.4-3.1,29.4-16.2,43.3-26.5c13.8-10.3,28.1-22.5,46.3-34.1c18.3-11.6,47.7-30.7,51.9-35.8c4.2-5.2,7.1-9.6,4-16.4
		c-3-6.8-13.7-17.3-25.4-26.8c-30.4-24.9-17.3-48-30-60.3c-3.9-4.1-6.7-6.4-11.2-7.3c-24.2-4.9-30.9,4.5-45.1,3.2
		c-15.4-1.5-9.6,1.8-41.1-2.3C442,497.7,429.6,493.4,422.1,498.2L422.1,498.2L422.1,498.2z"/>
	<path id="path3254" inkscape:connector-curvature="0" class="st1" d="M224,308.3c-10.8,23.5-10.3,15.5-17.6,40
		c-10.1,9.1-21.2,33.5-28.5,54.5c-9.3,30.5-15.3,52.4-12.6,92.7c2.3,2.6,4.3,5,6.5,7.4c5.2,5.8,11.3,11.8,24.9,22
		c23.2,17.5,39.5,26.7,42.7,38.1c4.3,15.2-5.3,25.2-17.2,31.3c8.7,8.6,36.6,26.4,87.3,24.1c44.7-1.9,72.7-18.7,96.7-47.6
		c0.2-6.7,0.9-17.8,1.2-29.8c0.3-11.5,0.4-23,2.2-31.9c0.4-2.1,1.2-4.1,1.9-5.8c2.9-7.1,10.8-12,18.3-12.3c4-0.2,8.1-0.5,12.1,0.3
		c6.1-47,1.3-79.4-22.7-129.1c-1.9-3.5-10.7-18.3-16-22.5c-4.1-20.1-4.7-19.1-13-37.5c-12.6-27.9-17.1-60.1-20.9-79
		c-2.6,1.3-7.2,3.2-14.2,8.6c-5.1,3.9-14.4,12-21.6,17c-4.7,3.2-9.8,6-14.9,8.2c-7.3,3.1-14.4,5-19.7,5.2c-19.2,1-28.3-3.7-37-12.7
		c-3.7-3.8-6.4-7.9-11.1-13c-2-2.2-4.9-5.2-7.8-7.3C242.8,231.8,234.8,284.9,224,308.3L224,308.3z M368.2,219.1c0,0,0.1-0.1,0.1-0.2
		C368.2,219,368.2,219,368.2,219.1z M310,168.2c-0.6-5.2-0.8-14.8,2.9-26.8c5.7-18.5,26.1-30.9,43.4-22.1
		c17.3,8.7,20.5,31.4,16.4,44.1c-2.6,7.8-8.6,17-13.2,22.8c-3.5-1.4-7.9-3-13.4-4.9c3.1-1.8,5.9-4.6,8-8.4
		c5.7-10.3,3.7-23.8-4.5-30.1c-8.2-6.3-19.5-2.9-25.2,7.4c-4,7.2-4.2,16-1.2,22.7C318.3,171,314.1,169.4,310,168.2L310,168.2
		L310,168.2L310,168.2L310,168.2z M246.5,123.8c16.2-5.6,25.9,7.8,29.9,27.1c1.2,5.9,1.3,11.8,0.6,17.3c-0.5,0.1-0.9,0.3-1.4,0.5
		c-1.9,0.7-3.9,1.7-6.2,2.8c0.4-1.2,0.6-2.6,0.8-4c1.3-10.8-3.9-21.9-11.5-24.9s-14.9,3.4-16.2,14.2c-1.2,10.3,3.4,21,10.6,24.5
		c-0.9,0.6-1.8,1.2-2.8,1.9c-1.2,0.8-2.4,1.7-3.5,2.6c-5.6-5.4-9.4-14.1-11.6-23.2C231.3,145.9,235.5,127.6,246.5,123.8L246.5,123.8
		L246.5,123.8L246.5,123.8L246.5,123.8z"/>
	<path id="path3256" inkscape:connector-curvature="0" class="st2" d="M411.1,573.1c0.6,11.4,2.3,23.8,1.6,34.7
		c-1.5,24.4-0.9,57,7.5,67.3c15.3,19.1,35.7,18.4,62.2,9.1c13.9-4.9,23.4-10.7,41.1-21.3c0.9-0.5,1.7-1,2.6-1.5
		c-8,6.1-15.4,12-22.6,17.4c-13.9,10.3-21.9,23.4-43.3,26.5c-21.4,3.1-38.7-3.6-48.5-12.6c-9.8-9-11-18.1-12.3-33.7
		c-0.5-5.9,0.8-14.3,2.6-23.2c3.1-14.8,7.7-31.1,8.4-40.2C410.6,590.9,410.8,582.7,411.1,573.1L411.1,573.1z"/>
	<path id="path3258" inkscape:connector-curvature="0" class="st2" d="M23.7,631.2c1.2,5.2,4.6,14.9,13.2,19.7
		c12,6.7,50.5,13.5,89.9,20.5s53.4,20.5,81.8,13.5c55-13.5,26-65.4,29.4-64.1l1,0.4c3.9,4.8,7.2,9.8,9.6,16.3
		c1.9,5,2.6,13.2,2.1,20.9c-0.8,13.5-13.7,27.3-21.6,33.4c-21.4,16.5-54.3,5.4-77.7-3.6c-37.7-14.6-27-8.7-60.7-16.7
		c-33.7-8-58.5-12.7-64.3-22.6C22.3,641.4,22,637.4,23.7,631.2L23.7,631.2z M232.2,696.8l-0.2,0.3l-0.2,0
		C231.9,697,232,696.9,232.2,696.8L232.2,696.8z"/>
	<path id="path3260" inkscape:connector-curvature="0" class="st2" d="M428.6,496.1c-2.7,66.5,26.3,79.5,58.3,50.5
		c7.1-6.5,14.4-20.2,21.5-30c1.2-1.7,2.3-3.6,3.2-5.6c-3.1,5.1-6.7,10.3-11.1,15.1c-14,15.5-37.6,25.8-53.2,18.6
		c-13.5-6.2-18.6-32.5-18-48.7C429.1,496.1,428.8,496.1,428.6,496.1L428.6,496.1z"/>
	<path id="path3262" inkscape:connector-curvature="0" sodipodi:nodetypes="ccssscccccccccccscccscccccsssccc" class="st0" d="
		M241.2,222.5c0.3,0.3,0.2,0.8,0.5,1.1c3.6,3.5,7.7,7,11.4,11.1c4.2,4.7,8,9.9,11.5,13.1c6.5,5.9,12.7,9,21.7,10.1
		c17.5,2.1,30.5-2.7,45.2-12.3c6.9-4.5,16.5-12.9,22.1-17c9.2-6.9,11.9-6.3,14.6-9.8c2.8-3.6,4.2-13,3.4-17.5
		c-0.7-3.4-1.9-5.7-5.6-8.1c-4.2-2.6-11.4-5.4-23.9-9.6c-6.4-2.4-13-4.7-18.6-6.8h0c-12.7-4.9-20.9-8-32.5-7.7
		c-6.5,0.5-10.2,1.4-15.2,3.4l-0.1,0.1c-9,4.3-15.6,8.3-23,13.5c-5.9,4.1-11.9,9.5-15.4,15.1c-2.1,3.3-5.4,10.1-2.3,14
		c0.4,0.2,7.8,4,15.7,8.6c12.7,7.4,27.2,11.3,40.1,10.6c10.3-0.6,21.8-3.8,30.1-7.7c8.3-4,18.6-10.3,28.6-17.9
		c1.5-1.1,4.5-4,6.3-4.9c1.6-0.8,6.9-0.3,6.6,1.4c-0.2,1.4-6.3,3.8-8.6,5.5c-10.9,8-23.1,15.9-31,19.5c-8.2,3.7-21.9,8-31.2,8.6
		c-8.5,0.5-15.7-0.4-23.1-2.9c-7.1-2.4-11.4-4.5-19-8.8C246.8,225.7,244.5,224.5,241.2,222.5L241.2,222.5z"/>
	<path id="path3264" inkscape:connector-curvature="0" sodipodi:nodetypes="cssccccccccccscccccsccccccccc" class="st2" d="
		M364.9,219.2c-0.2,0-6.6,3.1-14.9,9c-7.3,5.2-16,13.2-24.6,16.9c-18.4,7.7-29.7,8.1-37.5,6.5c-7.8-1.6-9.8-6.5-11.9-12.8
		c-0.1-0.3-0.3-0.6-0.5-1c-2.4-0.5-4.8-1.1-7.2-1.9c-7.1-2.4-11.4-4.5-19-8.8c-2.4-1.4-4.8-2.5-8-4.6c0.3,0.3,0.2,0.8,0.5,1.1
		c3.6,3.5,7.7,7,11.4,11.1c2.2,2.5,4.4,5.2,6.4,7.6l9.8,9.2c5,3.5,10.2,5.5,17.1,6.4c17.5,2.1,30.5-2.7,45.2-12.3
		c6.9-4.5,16.5-12.9,22.1-17c6.6-5,9.9-6.1,12.2-7.6L364.9,219.2z M250.3,223.6c0.2-4.2,2.3-16.1,16.8-32.7
		c14.4-16.3,18.2-20.3,19.2-21.3c-0.7,0.1-1.5,0.2-2.2,0.4l-5,1.2c-8.3,3.1-17.1,8.3-23.5,12.7c-1.1,0.7-2,1.4-3.1,2.1
		c-5.9,4.1-11.9,9.5-15.4,15.1c-2.1,3.3-5.4,10.1-2.3,14C234.8,215.1,242.5,219,250.3,223.6L250.3,223.6z"/>
	<path id="path3266" inkscape:connector-curvature="0" class="st3" d="M296.6,177.3c-0.6-0.6,6.9-2.2,9.9,0.1c3,2.3,2.8,4.1,1.9,5.1
		C307.5,183.5,298.7,178.1,296.6,177.3L296.6,177.3L296.6,177.3z"/>
	<path id="path3268" inkscape:connector-curvature="0" class="st4" d="M305.1,602.5c36.1-1.6,73.9-17.2,101.9-50.5
		c-0.3,7.7-0.7,14.4-0.8,19c-23.9,28.9-52,45.7-96.7,47.6c-50.8,2.2-78.6-15.5-87.3-24.1c5.8-3,11-6.8,14.3-11.8
		C236.4,582.7,264.3,604.3,305.1,602.5z M407.7,551c0.4-0.4,0.7-0.9,1.1-1.3C408.5,550.2,408.1,550.6,407.7,551z"/>
	<path id="path3270" inkscape:connector-curvature="0" class="st4" d="M316.8,133.6c0,0,13.4-7.6,31.8-3.5
		c14.7,3.3,23,16.8,25.7,22.2c0-12.2-5-26.5-18-33c-13.9-7-29.9-0.4-38.5,12.1L316.8,133.6L316.8,133.6z"/>
	<path id="path3272" inkscape:connector-curvature="0" class="st4" d="M234.3,142.9c3.1-3.7,9.5-9.2,19.8-9.3
		c11.5-0.1,18.6,9.1,21.5,13.9c-4.4-17.4-13.9-28.9-29.1-23.7l0,0l0,0l0,0C239.9,126.1,235.7,133.6,234.3,142.9L234.3,142.9z"/>
	<path id="path3274" inkscape:connector-curvature="0" class="st4" d="M240,247.9c2.7,0.6,6.5,2.8,11.4,9.1
		c9.7,12.7,20.3,20.9,37,21.9c18.4,1.2,37-11.8,46.5-19.7c5.9-4.9,16.5-13.7,25.7-18.8c4.2-2.3,9-3.4,11.2-3.9
		c-0.9-4.9-1.7-9.4-2.5-13.3c-2.6,1.3-7.2,3.2-14.2,8.6c-5.1,3.9-14.4,12-21.6,17c-4.7,3.2-9.8,6-14.9,8.2c-7.3,3.1-14.4,5-19.7,5.2
		c-19.2,1-28.3-3.7-37-12.7c-3.7-3.8-6.4-7.9-11.1-13c-2-2.2-4.9-5.2-7.8-7.3C242.9,230.2,241.8,237.7,240,247.9z"/>
	<path id="path3276" inkscape:connector-curvature="0" class="st5" d="M172.7,357.9c-24.4,26.2-32.5,62.6-28.8,93.2
		c2.7,22.2,16.1,39.8,30.6,55.1c0.4,0.4-9.7-7.1-11.5-8.6c-40-34.3-31.1-102.3,8.7-140.3C173,356,174.6,356,172.7,357.9z"/>
	<path id="path3278" inkscape:connector-curvature="0" class="st3" d="M283.4,177.3c-1-1.5-5.3-0.7-7.3,0c-2,0.8-3.6,2.9-2.8,4.4
		c0.4,0.8,1.4,1.1,2.1,1c1.1-0.2,2.3-1.4,3.7-2.5C280.7,178.9,282.9,177.9,283.4,177.3L283.4,177.3L283.4,177.3z"/>
	<path id="path3280" inkscape:connector-curvature="0" class="st5" d="M436.2,349.5c24.5,25.5,34,54.9,33.2,83
		c-0.4,13.1-5.9,29.6-8.7,39.8c-5.7,20.5,4.8,5.4,7.3-1.4c4.3-11.7,7.3-30.2,6.8-43.9c-1.2-32.8-16.8-60.1-38-77.7
		C435.7,348.5,434.7,348,436.2,349.5z"/>
	<path id="path3282" inkscape:connector-curvature="0" d="M520.6,494.8c0.4-0.8,1.3-3.9,1.3-4.5c1.6-15.8-29.4-19.3-53.5-18.5
		c-10.9,0.4-19.5,1.6-24.6,3.1c-8.9,2.6-13.2,8.5-14.2,16c-2,15.1,2.5,46.9,17.6,53.9c15.6,7.2,39.3-3.1,53.2-18.6
		C510,515.7,516,503.5,520.6,494.8z"/>
	<path id="path3284" inkscape:connector-curvature="0" class="st5" d="M435.8,487.2c-3.9,4.6,20.9,1.1,37.6,4.2
		c9.3,1.7,17,7,22.9,7.2c17.3,0.6,19.8-9.2,6.1-16.7C485.1,472.4,444.6,476.8,435.8,487.2z"/>
	<path id="path3286" inkscape:connector-curvature="0" class="st5" d="M345.6,59.2c2.7,8.3-3,13.2,4,16.9c4.9,2.6,10-1.5,18.9,0
		c15.6,2.7,26.2,11.5,22.4-2.5c-1.4-5.2-7.2-12.5-13.7-18.2c-11.9-10.4-28-17.8-36.9-12.7C335.7,45.4,342.6,49.9,345.6,59.2
		L345.6,59.2z"/>
	<path id="path3288" inkscape:connector-curvature="0" class="st5" d="M411,240.3c-0.3-2.2-2.7-5-5.1-7.4
		c-4.4-4.2-10.5-7.2-13.8-5.1c-6.1,3.7,0.6,21,5.6,22.8C405.6,253.4,411.8,246.3,411,240.3z"/>
	<path id="path3290" inkscape:connector-curvature="0" class="st5" d="M263.9,162.7c-0.7-0.2-0.1-2.6-3.2-6.1
		c-3.1-3.6-5.9-3.7-5.1-6.2c0.7-2.5,5.2,0,7.7,4.3C265.8,159,264.7,162.9,263.9,162.7L263.9,162.7z"/>
	<path id="path3292" inkscape:connector-curvature="0" class="st5" d="M349.9,163.2c-0.9-0.3,0-3.2-3.7-7.8c-3.7-4.6-7.4-4.8-6.4-8
		c1-3.1,6.8,0.2,9.7,5.7C352.4,158.7,350.8,163.6,349.9,163.2L349.9,163.2z"/>
</g>
</svg>
