<?xml version="1.0" encoding="UTF-8"?>
<svg width="1746px" height="1280px" viewBox="0 0 1746 1280" version="1.1" xmlns="http://www.w3.org/2000/svg" xmlns:xlink="http://www.w3.org/1999/xlink">
    <!-- Generator: Sketch 63.1 (92452) - https://sketch.com -->
    <title>undraw_hire_te5y</title>
    <desc>Created with Sketch.</desc>
    <g id="illustrations" stroke="none" stroke-width="1" fill="none" fill-rule="evenodd">
        <g id="Contacts" transform="translate(-645.000000, -1698.000000)">
            <g id="undraw_hire_te5y" transform="translate(645.000000, 1698.000000)">
                <path d="M1720.29205,755.096679 C1669.52233,669.232429 1660.69895,567.976178 1696.10927,474.674212 C1719.05103,414.222523 1722.63781,320.841759 1703.70623,258.875385 C1642.86726,59.7950017 1361.50222,-58.8188382 1090.20644,29.8033642 C841.463076,111.057894 780.560835,446.297947 589.566074,409.853577 C140.347565,324.138169 -21.4516915,612.160326 2.24440968,846.625676 C17.5502709,998.07666 158.758399,1185.39853 460.393366,1165.72952 C549.201428,1159.93782 636.41807,1179.57619 711.574958,1218.67345 C839.92519,1285.44216 1043.92872,1301.09683 1255.86014,1248.69573 C1574.63573,1169.8752 1790.56761,966.955575 1738.16267,795.463471 C1733.85075,781.341004 1727.85007,767.875192 1720.29205,755.096679" id="Fill-3" fill="#7191F8" opacity="0.676106771"></path>
                <ellipse id="Oval" fill="#3F3D56" fill-rule="nonzero" cx="1224.58312" cy="1026.29544" rx="389" ry="35"></ellipse>
                <rect id="Rectangle" fill="#3F3D56" fill-rule="nonzero" opacity="0.3" transform="translate(1245.560265, 555.989540) rotate(-180.000000) translate(-1245.560265, -555.989540) " x="1034.44482" y="413" width="422.23089" height="285.97908"></rect>
                <rect id="Rectangle" fill="#F2F2F2" fill-rule="nonzero" x="1304.70254" y="439.20227" width="125.02227" height="136.25181"></rect>
                <rect id="Rectangle" fill="#F2F2F2" fill-rule="nonzero" transform="translate(1167.327765, 443.319770) rotate(-180.000000) translate(-1167.327765, -443.319770) " x="1107.06254" y="439.20227" width="120.53045" height="8.235"></rect>
                <rect id="Rectangle" fill="#F2F2F2" fill-rule="nonzero" transform="translate(1326.038665, 600.533400) rotate(-180.000000) translate(-1326.038665, -600.533400) " x="1304.70253" y="596.4159" width="42.67227" height="8.235"></rect>
                <rect id="Rectangle" fill="#F2F2F2" fill-rule="nonzero" transform="translate(1367.213670, 615.506130) rotate(-180.000000) translate(-1367.213670, -615.506130) " x="1306.19981" y="611.38863" width="122.02772" height="8.235"></rect>
                <rect id="Rectangle" fill="#F2F2F2" fill-rule="nonzero" transform="translate(1169.199355, 473.265220) rotate(-180.000000) translate(-1169.199355, -473.265220) " x="1082.35754" y="469.14772" width="173.68363" height="8.235"></rect>
                <rect id="Rectangle" fill="#F2F2F2" fill-rule="nonzero" transform="translate(1169.199355, 496.472950) rotate(-180.000000) translate(-1169.199355, -496.472950) " x="1082.35754" y="492.35545" width="173.68363" height="8.235"></rect>
                <rect id="Rectangle" fill="#F2F2F2" fill-rule="nonzero" transform="translate(1169.199355, 519.680680) rotate(-180.000000) translate(-1169.199355, -519.680680) " x="1082.35754" y="515.56318" width="173.68363" height="8.235"></rect>
                <rect id="Rectangle" fill="#F2F2F2" fill-rule="nonzero" transform="translate(1169.199355, 542.888400) rotate(-180.000000) translate(-1169.199355, -542.888400) " x="1082.35754" y="538.7709" width="173.68363" height="8.235"></rect>
                <rect id="Rectangle" fill="#F2F2F2" fill-rule="nonzero" transform="translate(1169.199355, 566.096130) rotate(-180.000000) translate(-1169.199355, -566.096130) " x="1082.35754" y="561.97863" width="173.68363" height="8.235"></rect>
                <rect id="Rectangle" fill="#F2F2F2" fill-rule="nonzero" transform="translate(1169.199355, 589.303850) rotate(-180.000000) translate(-1169.199355, -589.303850) " x="1082.35754" y="585.18635" width="173.68363" height="8.235"></rect>
                <rect id="Rectangle" fill="#F2F2F2" fill-rule="nonzero" transform="translate(1169.199355, 612.511590) rotate(-180.000000) translate(-1169.199355, -612.511590) " x="1082.35754" y="608.39409" width="173.68363" height="8.235"></rect>
                <path d="M1323.47811,517.00479 C1325.32823,515.687992 1327.37012,514.664004 1329.53198,513.96884 C1343.23857,508.868848 1357.60036,505.742519 1372.18663,504.68361 C1384.86986,503.78422 1398.61623,504.85246 1408.5225,512.82361 C1410.06335,513.954236 1411.32429,515.423286 1412.20828,517.11772 C1413.45456,519.80712 1413.07687,522.93327 1412.67341,525.86982 C1412.58297,527.008874 1412.29581,528.123638 1411.82469,529.16463 C1410.49164,531.70276 1407.20961,532.59189 1404.35892,532.28754 C1401.50823,531.98319 1398.83328,530.77704 1396.02145,530.21781 C1394.28108,529.914469 1392.52134,529.735257 1390.75554,529.68153 L1373.12039,528.72681 C1362.15421,528.13312 1351.04354,527.54932 1340.28663,529.76252 C1336.9752,530.357739 1333.77544,531.460358 1330.80029,533.03146 C1328.34337,534.41088 1326.68894,536.39025 1324.4092,533.8424 C1320.40403,529.36622 1318.18708,521.13925 1323.47811,517.00479 Z" id="Path" fill="#2F2E41" fill-rule="nonzero"></path>
                <path d="M1350.80556,524.80334 C1350.80556,524.80334 1374.52556,514.17025 1383.52276,526.4392 C1392.51996,538.70816 1378.61518,533.80058 1378.61518,533.80058 L1363.07451,538.70816 L1345.89798,535.43644 L1350.80556,524.80334 Z" id="Path" fill="#F2F2F2" fill-rule="nonzero"></path>
                <path d="M1352.03244,517.03301 C1352.03244,517.03301 1355.30416,532.57368 1352.85037,536.66333 C1350.39658,540.75298 1366.75518,546.47849 1366.75518,546.47849 L1382.29585,539.93505 C1382.29585,539.93505 1378.2062,514.57922 1382.29585,509.67164 L1352.03244,517.03301 Z" id="Path" fill="#FFB9B9" fill-rule="nonzero"></path>
                <path d="M1352.03244,517.03301 C1352.03244,517.03301 1355.30416,532.57368 1352.85037,536.66333 C1350.39658,540.75298 1366.75518,546.47849 1366.75518,546.47849 L1382.29585,539.93505 C1382.29585,539.93505 1378.2062,514.57922 1382.29585,509.67164 L1352.03244,517.03301 Z" id="Path" fill="#000000" fill-rule="nonzero" opacity="0.1"></path>
                <path d="M1389.65722,501.49234 C1389.64614,515.039654 1378.66663,526.019156 1365.11932,526.030275 C1363.65719,526.03274 1362.1979,525.901328 1360.75974,525.63765 C1347.98215,523.330147 1339.21424,511.46758 1340.75731,498.575323 C1342.30038,485.683067 1353.62018,476.224796 1366.58142,476.99797 C1379.54265,477.771144 1389.65775,488.508067 1389.65722,501.49234 L1389.65722,501.49234 Z" id="Path" fill="#FFB9B9" fill-rule="nonzero"></path>
                <path d="M1404.47332,576.20272 L1326.21832,576.20272 L1327.99258,568.49922 L1335.67358,535.02772 L1344.55239,529.03114 L1344.55989,529.02365 L1348.72984,526.20127 L1350.80358,524.80133 C1350.80358,524.80133 1352.03126,525.3628 1353.4462,526.12643 C1353.85789,526.35843 1354.2772,526.59807 1354.69645,526.85258 C1354.70395,526.84518 1354.70395,526.85258 1354.70395,526.85258 C1355.38263,527.246809 1356.02853,527.694948 1356.6354,528.19267 C1356.74771,528.29749 1356.84504,528.38732 1356.9424,528.48467 C1358.49953,530.0418 1363.04371,538.30677 1370.56005,534.07696 C1370.93961,533.868397 1371.30702,533.638464 1371.66053,533.38827 C1373.61973,532.032378 1375.48784,530.549375 1377.25282,528.94882 C1378.83252,527.50391 1379.85815,526.38845 1380.69662,525.61733 C1381.07251,525.242464 1381.50128,524.924663 1381.96926,524.67404 C1382.32242,524.48875 1382.7159,524.393628 1383.1147,524.397046 C1385.57025,524.397046 1388.84178,529.30066 1388.84178,529.30066 L1388.93911,529.58514 L1388.9466,529.60762 L1399.27033,560.6011 L1404.47332,576.20272 Z" id="Path" fill="#F2F2F2" fill-rule="nonzero"></path>
                <path d="M1326.21834,576.20281 L1349.93514,576.20281 C1349.98798,573.461039 1349.84538,570.719078 1349.50842,567.99767 C1348.78224,562.52514 1347.00049,557.25474 1345.87753,551.84958 C1344.8893,547.11295 1344.40995,542.284295 1344.44764,537.44582 C1344.45513,536.77953 1344.4701,536.10576 1344.52999,535.43199 C1344.58884,533.889206 1345.03418,532.385901 1345.82513,531.05999 C1346.38661,530.19906 1347.1577,529.4654 1347.75661,528.6419 C1347.96482,528.372304 1348.14776,528.084108 1348.30312,527.78096 L1348.30312,527.77348 C1348.3781,527.624736 1348.44556,527.47232 1348.50525,527.31681 C1348.63724,526.958806 1348.713,526.582526 1348.72984,526.20134 C1348.86459,523.73084 1346.62617,521.35018 1344.20808,520.33203 C1340.81411,519.057628 1337.10035,518.908029 1333.61487,519.90531 C1330.16018,520.90389 1326.82224,522.269185 1323.65801,523.97789 C1322.58746,524.50194 1321.5244,525.04096 1320.49876,525.63989 C1319.27411,526.334307 1318.14853,527.190455 1317.15236,528.18526 C1314.607,530.81297 1313.49153,534.4738 1312.59316,538.01485 C1311.73645,540.72161 1311.44345,543.575204 1311.73223,546.39958 C1311.73972,546.48942 1311.76223,546.58674 1311.77715,546.67658 C1312.66803,551.34058 1316.4711,554.8442 1318.4999,559.14137 C1320.85062,564.12729 1320.69341,569.93671 1319.75761,575.37181 C1319.7127,575.64881 1319.66029,575.92581 1319.60789,576.20281 L1326.21834,576.20281 L1326.21834,576.20281 Z" id="Path" fill="#2F2E41" fill-rule="nonzero"></path>
                <path d="M1422.76245,546.24978 C1419.78588,556.038664 1417.62495,566.057204 1416.30181,576.20272 L1382.49327,576.20272 C1381.60994,573.792133 1380.72907,571.37902 1379.85066,568.96338 C1379.14948,567.14059 1378.54719,565.281282 1378.04642,563.39357 C1377.51114,561.198696 1377.25706,558.944678 1377.29029,556.68572 C1377.29029,556.14672 1377.31277,555.60024 1377.35773,555.06124 C1377.36523,555.052647 1377.36523,555.039833 1377.35773,555.03124 C1377.56302,552.182259 1378.22263,549.384443 1379.31157,546.74379 C1379.81143,545.543377 1380.38654,544.375701 1381.03347,543.24772 C1382.60568,540.40286 1384.50715,537.72278 1386.19908,534.93787 C1387.2534,533.235974 1388.17208,531.453703 1388.9466,529.60758 C1388.94558,529.599339 1388.94834,529.591078 1388.9541,529.5851 C1389.96412,527.230919 1390.49108,524.697878 1390.50374,522.13621 C1390.45137,518.8347 1384.86657,513.07764 1390.93791,513.63162 C1399.22537,514.38026 1406.34491,519.14916 1412.83552,524.58426 C1414.56492,526.03657 1416.25684,527.54134 1417.9113,529.02363 C1420.47167,531.32948 1423.17424,533.8448 1423.9453,537.20617 C1424.06897,537.742132 1424.14167,538.288588 1424.16244,538.83824 C1424.11796,541.370117 1423.6446,543.876133 1422.76245,546.24978 L1422.76245,546.24978 Z" id="Path" fill="#2F2E41" fill-rule="nonzero"></path>
                <path d="M1372.08884,537.221 C1371.23738,534.921391 1369.93197,532.81659 1368.2503,531.03188 C1366.55419,529.597993 1364.54621,528.580701 1362.3868,528.06129 C1359.58883,527.26197 1356.69508,526.847229 1353.78524,526.82849 C1350.32124,526.80691 1346.30469,527.73609 1344.83368,530.87234 C1343.66555,533.36282 1344.57113,536.31192 1345.74725,538.79863 C1346.24973,540.086772 1347.08679,541.217528 1348.17207,542.07425 C1349.66589,543.08355 1351.59788,543.05156 1353.36873,543.38962 C1356.1145,544.086768 1358.71494,545.265149 1361.04935,546.87007 L1367.11655,550.53746 L1377.53784,556.83673 C1377.26323,556.67073 1377.36084,549.52423 1377.04077,548.353 C1376.00969,544.58004 1373.68849,540.79393 1372.08884,537.221 Z" id="Path" fill="#FFB9B9" fill-rule="nonzero"></path>
                <path d="M1389.03998,488.70449 C1388.60347,487.237103 1387.64182,485.981882 1386.33862,485.17849 C1386.40588,483.606578 1386.21317,482.034344 1385.76826,480.52521 C1384.28226,476.13208 1380.76198,476.38389 1377.44049,474.44161 C1375.99943,473.59892 1376.08849,472.85412 1375.33825,471.47002 C1374.35524,469.6556 1372.8829,468.153368 1371.0886,467.1341 C1368.95766,465.77641 1366.70825,464.37818 1364.18736,464.20635 C1358.88969,463.84526 1354.8279,468.82812 1349.76446,470.42735 C1347.53262,471.13221 1345.13446,471.16126 1342.89083,471.82763 C1340.6472,472.494 1338.40883,474.08512 1338.07441,476.40157 C1337.92005,477.47101 1338.19241,478.56811 1338.03582,479.63725 C1337.72455,481.76225 1335.86025,483.25044 1334.61223,484.99825 C1331.85242,488.86325 1332.16808,494.32342 1334.3751,498.52869 C1334.84018,499.39884 1335.37226,500.23148 1335.96653,501.01907 C1336.15063,503.00674 1336.72143,504.939269 1337.64682,506.70799 C1339.85382,510.91326 1343.6516,514.05568 1347.61882,516.66643 C1347.2939,515.271774 1347.09694,513.850376 1347.03038,512.41992 C1346.97439,511.943209 1347.0364,511.460044 1347.21095,511.01292 C1347.65277,510.08935 1348.8202,509.84373 1349.71032,509.33792 C1351.55396,508.29024 1352.27694,505.97169 1352.33025,503.85183 C1352.38356,501.73197 1351.93432,499.60862 1352.15642,497.49983 C1352.17392,496.519127 1352.60556,495.591617 1353.34458,494.94669 C1354.025,494.558529 1354.80229,494.373209 1355.58465,494.41262 C1359.36209,494.25851 1363.30891,494.18912 1366.64084,492.40279 C1367.7154,491.689084 1368.87048,491.104771 1370.08209,490.66199 C1372.9137,489.92359 1375.80775,491.90826 1377.43967,494.33729 C1379.07159,496.76632 1379.88522,499.65688 1381.39088,502.16613 C1382.89654,504.67538 1385.49771,506.91306 1388.40888,506.61577 C1388.74049,506.616513 1389.05671,506.4759 1389.27828,506.22917 C1389.40386,506.003585 1389.4596,505.745783 1389.43843,505.48847 L1389.60108,494.36055 C1389.73626,492.457018 1389.54652,490.544362 1389.03998,488.70449 L1389.03998,488.70449 Z" id="Path" fill="#2F2E41" fill-rule="nonzero"></path>
                <path d="M1324.32427,563.01925 C1324.85577,567.39875 1325.17769,571.79324 1325.29004,576.20272 L1304.70256,576.20272 L1304.70256,558.90172 C1304.80738,558.48244 1304.91964,558.07072 1305.05439,557.65896 C1306.34207,553.69115 1309.04468,550.36724 1311.38783,546.91604 C1311.50023,546.74378 1311.61995,546.57161 1311.73226,546.39944 C1312.72879,544.943543 1313.58603,543.397052 1314.29263,541.78044 C1314.62948,540.98684 1315.16848,537.14633 1315.73745,536.81698 C1318.17801,535.40204 1320.16192,541.45098 1320.49877,542.79857 C1321.69656,547.59736 1322.73727,552.44101 1323.52329,557.32963 C1323.83024,559.22369 1324.09723,561.12023 1324.32427,563.01925 Z" id="Path" fill="#2F2E41" fill-rule="nonzero"></path>
                <path d="M1428.36223,576.20272 L1381.10091,576.20272 C1380.69662,575.25194 1380.29982,574.30116 1379.88054,573.35787 C1376.93325,566.691807 1373.12252,560.442072 1368.54626,554.76926 C1367.79141,554.019259 1367.30017,553.044667 1367.14626,551.99176 C1367.1303,551.554584 1367.23664,551.121626 1367.45332,550.74159 C1368.17198,549.4015 1370.07354,548.6154 1371.61569,547.97917 C1373.20962,547.337311 1374.67524,546.414265 1375.94269,545.25403 C1377.06375,544.24528 1377.92203,542.978473 1378.44321,541.5633 C1378.58221,541.148278 1378.68734,540.722671 1378.75757,540.29066 C1378.97471,540.57505 1379.19934,540.86712 1379.41647,541.15152 C1379.94797,541.85528 1380.48697,542.55152 1381.03347,543.24774 C1386.27392,549.97797 1392.03098,556.61088 1399.27033,560.60108 C1401.16159,561.654964 1403.15909,562.505703 1405.22945,563.13908 C1405.63019,563.315076 1406.08636,563.315076 1406.4871,563.13908 C1406.79262,562.888316 1406.9886,562.528534 1407.03359,562.13585 C1407.6775,559.44077 1407.90204,556.66327 1408.37368,553.93085 C1409.24025,548.959178 1410.90635,544.16068 1413.30726,539.72175 C1414.64726,537.22875 1419.00426,528.11789 1421.7668,533.85987 C1422.5603,535.514317 1423.35886,537.1738 1424.16249,538.83832 C1424.66402,539.89392 1425.17304,540.94194 1425.68215,541.99763 C1427.56086,545.346454 1428.41714,549.172379 1428.14515,553.00255 C1428.22003,560.743383 1428.29239,568.476773 1428.36223,576.20272 Z" id="Path" fill="#2F2E41" fill-rule="nonzero"></path>
                <path d="M1326.21834,576.20272 L1330.31339,576.20272 L1327.99261,568.49925 L1324.64621,557.39698 C1324.685,559.276581 1324.57737,561.15635 1324.3243,563.01924 C1323.81907,566.869369 1322.71788,570.617448 1321.06024,574.129 C1320.73833,574.81026 1320.39395,575.499 1320.11696,576.20272 L1326.21834,576.20272 Z" id="Path" fill="#000000" fill-rule="nonzero" opacity="0.1"></path>
                <path d="M1409.63165,552.52819 C1409.05502,554.07888 1409.57865,555.79382 1410.02311,557.38745 C1411.31087,562.009945 1411.91208,566.796642 1411.80748,571.59402 C1411.84546,571.764479 1411.79484,571.942594 1411.67288,572.067592 C1411.55092,572.19259 1411.3741,572.247581 1411.20276,572.2138 C1409.31483,572.32945 1407.15343,572.34168 1405.87255,570.94992 L1409.63165,552.52819 Z" id="Path" fill="#000000" fill-rule="nonzero" opacity="0.1"></path>
                <rect id="Rectangle" fill="#3F3D56" fill-rule="nonzero" opacity="0.3" x="545" y="415.9435" width="422.23089" height="285.97908"></rect>
                <rect id="Rectangle" fill="#F2F2F2" fill-rule="nonzero" x="571.95091" y="442.14577" width="125.02227" height="136.25181"></rect>
                <rect id="Rectangle" fill="#F2F2F2" fill-rule="nonzero" x="774.08272" y="442.14577" width="120.53045" height="8.235"></rect>
                <rect id="Rectangle" fill="#F2F2F2" fill-rule="nonzero" x="573.44818" y="599.3594" width="42.67227" height="8.235"></rect>
                <rect id="Rectangle" fill="#F2F2F2" fill-rule="nonzero" x="573.44818" y="614.33213" width="122.02772" height="8.235"></rect>
                <rect id="Rectangle" fill="#F2F2F2" fill-rule="nonzero" x="745.63454" y="472.09123" width="173.68363" height="8.235"></rect>
                <rect id="Rectangle" fill="#F2F2F2" fill-rule="nonzero" x="745.63454" y="495.29895" width="173.68363" height="8.235"></rect>
                <rect id="Rectangle" fill="#F2F2F2" fill-rule="nonzero" x="745.63454" y="518.50668" width="173.68363" height="8.235"></rect>
                <rect id="Rectangle" fill="#F2F2F2" fill-rule="nonzero" x="745.63454" y="541.71441" width="173.68363" height="8.235"></rect>
                <rect id="Rectangle" fill="#F2F2F2" fill-rule="nonzero" x="745.63454" y="564.92213" width="173.68363" height="8.235"></rect>
                <rect id="Rectangle" fill="#F2F2F2" fill-rule="nonzero" x="745.63454" y="588.12986" width="173.68363" height="8.235"></rect>
                <rect id="Rectangle" fill="#F2F2F2" fill-rule="nonzero" x="745.63454" y="611.33758" width="173.68363" height="8.235"></rect>
                <path d="M693.57438,579.14622 L677.32147,579.14622 C676.071257,575.784853 674.960777,572.38105 673.99003,568.93481 C673.349646,564.882826 671.502479,561.118047 668.68967,558.13195 C667.830856,557.174535 667.066218,556.136657 666.40634,555.03268 C665.012958,552.314229 664.510098,549.226317 664.96897,546.20623 C665.062485,545.365628 665.202445,544.530845 665.38821,543.70571 C666.09942,540.50911 667.28973,537.43971 668.28543,534.32537 C668.714817,533.035012 669.842193,532.10229 671.19014,531.92219 C672.261633,531.74276 673.362023,531.869924 674.36435,532.28901 C674.586035,532.37928 674.799038,532.489552 675.00072,532.61846 C676.77498,533.68905 677.69579,535.87501 678.43693,537.8739 C681.828263,546.97734 685.217097,556.080753 688.60343,565.18414 C689.26223,566.950907 689.921033,568.722673 690.57984,570.49944 C691.55306,573.10468 692.51878,575.70992 693.34231,578.36761 C693.42465,578.62972 693.49949,578.88413 693.57438,579.14622 Z" id="Path" fill="#D0CDE1" fill-rule="nonzero"></path>
                <path d="M625.91372,459.32756 C621.87272,460.69226 618.21172,463.8842 617.38423,468.06838 C617.00064,470.00794 617.23582,472.02421 616.91302,473.97481 C616.16438,478.49866 612.6133,481.95356 609.33802,485.16266 C606.06274,488.37176 602.68042,492.10066 602.44138,496.67977 C602.17962,501.69404 605.81613,506.3916 605.18686,511.37312 C604.45578,517.16061 598.34299,520.91081 596.83186,526.54518 C595.82286,530.30751 597.05929,534.36027 599.09354,537.68218 C602.97003,544.0124 609.59612,548.30998 616.65241,550.61384 C623.7087,552.9177 631.22381,553.40238 638.64626,553.48015 C647.68396,553.57485 657.49653,552.79895 664.28701,546.83415 C668.165794,543.396502 670.601706,538.619659 671.10634,533.46139 C671.75143,526.55208 668.86767,519.41291 670.85682,512.76474 C672.10868,508.58074 675.24805,504.7596 674.77954,500.41755 C674.32145,496.17211 670.61354,493.16286 668.06977,489.73313 C665.69477,486.53089 664.25356,482.74921 662.84111,479.02092 L658.00833,466.26437 C657.05833,463.75665 656.01504,461.1192 653.89784,459.47329 C649.93423,456.39206 643.56091,456.99745 638.92621,457.63295 C634.62663,458.22253 630.04856,457.93117 625.91372,459.32756 Z" id="Path" fill="#2F2E41" fill-rule="nonzero"></path>
                <path d="M629.65221,501.36779 C629.65221,501.36779 630.12521,515.55879 628.70615,516.97787 C627.28709,518.39695 634.38256,527.85762 634.38256,527.85762 L647.15445,527.38462 L653.7769,522.18126 L648.10051,514.61273 C648.10051,514.61273 645.73535,502.31388 647.62751,499.47573 C649.51967,496.63758 629.65221,501.36779 629.65221,501.36779 Z" id="Path" fill="#A0616A" fill-rule="nonzero"></path>
                <path d="M629.65221,501.36779 C629.65221,501.36779 630.12521,515.55879 628.70615,516.97787 C627.28709,518.39695 634.38256,527.85762 634.38256,527.85762 L647.15445,527.38462 L653.7769,522.18126 L648.10051,514.61273 C648.10051,514.61273 645.73535,502.31388 647.62751,499.47573 C649.51967,496.63758 629.65221,501.36779 629.65221,501.36779 Z" id="Path" fill="#000000" fill-rule="nonzero" opacity="0.1"></path>
                <circle id="Oval" fill="#A0616A" fill-rule="nonzero" cx="637.45725" cy="489.77848" r="17.02918"></circle>
                <path d="M646.18569,579.14625 L659.99056,579.14625 C660.50712,578.21043 660.99373,577.23722 661.55521,576.35381 L661.55521,576.34632 C662.169008,575.278 663.031997,574.373916 664.07063,573.71112 C664.73099,573.408723 665.35611,573.034657 665.93473,572.59566 C666.488472,571.995108 666.880097,571.263389 667.07266,570.46953 C668.023504,567.499224 668.54779,564.408957 668.62982,561.29125 C668.65228,560.24316 668.62982,559.18009 668.68972,558.132 C668.719239,557.313013 668.824495,556.498516 669.00414,555.69893 C669.477961,554.073202 670.165207,552.51746 671.04792,551.07236 C672.919507,547.666067 674.79609,544.259773 676.67767,540.85348 C677.016833,539.893899 677.147007,538.872915 677.05947,537.85893 C677.019012,536.491094 676.599118,535.16143 675.84668,534.01843 C675.58468,533.54679 675.30017,533.07514 675.00068,532.61848 C673.845855,530.775968 672.500932,529.059683 670.98799,527.4978 C667.777972,524.131277 663.881946,521.493929 659.5638,519.76439 C659.022098,519.582041 658.506251,519.330407 658.02909,519.01575 C657.46601,518.539945 656.989798,517.970008 656.62166,517.33132 C655.12439,515.07793 653.29771,512.54005 650.59514,512.68232 C649.70659,512.236402 648.676115,512.166267 647.73534,512.48768 C647.593176,512.524686 647.453211,512.569674 647.31611,512.62243 C646.283244,513.079725 645.280548,513.602332 644.31411,514.18708 C641.827764,515.477744 639.010146,515.98909 636.22883,515.65441 C635.902622,515.631513 635.583151,515.550375 635.28555,515.41484 C634.969837,515.214642 634.678416,514.978494 634.41713,514.71113 C633.026259,513.572117 631.130351,513.268998 629.45368,513.91757 C628.68036,514.193066 627.996971,514.674543 627.47728,515.31003 C626.98318,515.9314 626.6388,516.68003 626.09228,517.26397 C624.67736,518.77622 622.34161,518.83611 620.27537,518.82862 C615.98398,518.708739 611.693678,519.103336 607.49615,520.00398 C603.809639,520.821969 600.36458,522.488108 597.43448,524.87012 L597.42699,524.87761 C597.02273,525.22198 596.64841,525.57384 596.27409,525.94816 C595.422601,526.750151 594.744821,527.718407 594.28272,528.79297 C593.71372,530.2603 593.78862,531.91479 593.27206,533.40457 C592.70306,535.07403 591.4379,536.43657 590.92883,538.1135 C590.53954,539.38618 590.59194,540.79361 589.94812,541.9465 C589.97806,541.96896 590.00052,541.99142 590.03047,542.01388 C592.75547,544.40952 595.08376,547.55379 597.81628,549.92697 C599.402169,551.135199 600.743633,552.634198 601.76908,554.34397 C601.966412,554.728057 602.129257,555.128904 602.2557,555.54179 C602.563102,556.972921 602.698813,558.435593 602.65996,559.89885 C603.00433,566.8986 606.79996,573.24704 611.04469,578.81685 C611.12704,578.92915 611.20939,579.04144 611.29922,579.14625 L646.18569,579.14625 Z" id="Path" fill="#D0CDE1" fill-rule="nonzero"></path>
                <path d="M601.76911,554.3439 C601.125243,558.813233 600.476413,563.280103 599.82262,567.74451 C599.525303,570.135426 599.080272,572.505645 598.49008,574.84157 C598.10077,576.28638 597.5992,577.70141 597.24731,579.14622 L577.75284,579.14622 C577.762771,578.33699 577.82529,577.52926 577.94,576.72814 C578.441963,573.850252 579.257858,571.036054 580.37307,568.33596 C582.641463,562.212067 584.90734,556.083217 587.1707,549.94941 C588.13642,547.33667 588.9674,544.60413 590.03049,542.01379 C590.21765,541.53474 590.41975,541.0556 590.63689,540.59145 C591.76729,538.10593 594.90408,539.12416 597.22489,539.49845 C597.862011,539.577584 598.483155,539.75432 599.0665,540.02245 C599.771959,540.411097 600.367057,540.972679 600.7959,541.65445 C602.9969,544.91109 602.51775,549.21575 601.94878,553.10862 C601.888873,553.52042 601.828983,553.93218 601.76911,554.3439 Z" id="Path" fill="#D0CDE1" fill-rule="nonzero"></path>
                <path d="M661.55519,576.35383 C661.58512,576.45855 661.90703,577.57401 662.43858,579.14622 L646.18567,579.14622 C654.241,577.76122 661.55519,576.34633 661.55519,576.34633 L661.55519,576.35383 Z" id="Path" fill="#2F2E41" fill-rule="nonzero"></path>
                <ellipse id="Oval" fill="#2F2E41" fill-rule="nonzero" cx="638.87635" cy="479.84479" rx="18.44828" ry="9.93369"></ellipse>
                <rect id="Rectangle" fill="#3F3D56" fill-rule="nonzero" x="815.48911" y="521.22219" width="422.23089" height="285.97908"></rect>
                <ellipse id="Oval" fill="#000000" fill-rule="nonzero" opacity="0.1" cx="1176.33182" cy="782.49627" rx="49.41" ry="5.24045"></ellipse>
                <rect id="Rectangle" fill="#F2F2F2" fill-rule="nonzero" x="842.44002" y="547.42446" width="125.02227" height="136.25181"></rect>
                <path d="M882.6984,609.98213 C883.535633,610.236615 884.436079,609.864566 884.8495,609.09333 C886.57869,606.36885 883.39503,602.85579 884.08439,599.70338 C884.63667,597.17784 887.50652,595.67885 888.09329,593.1611 C888.66344,590.71469 886.90661,587.95716 888.09405,585.74357 C889.02434,584.00934 891.34812,583.55297 893.29252,583.85678 C895.23692,584.16059 897.08252,585.01535 899.04683,585.13512 C901.66436,585.2947 904.15949,584.14244 906.71898,583.57152 C909.27847,583.0006 912.40043,583.22413 913.90613,585.37117 C915.83947,588.128 913.8783,591.9668 914.55148,595.266 C915.08603,597.88579 917.27921,600.055 917.32633,602.72841 C917.34308,603.6786 914.84518,602.91314 914.97795,603.85415 C915.11072,604.79516 913.93011,603.96661 914.87385,603.85482 C915.664642,603.661124 916.239101,602.977848 916.2941,602.16554 C916.40631,601.38177 917.87923,601.12054 917.86223,600.32891 C917.82241,598.47374 921.17647,599.7246 921.72883,597.95312 C922.999129,593.823453 922.738491,589.374296 920.99469,585.4212 C920.096053,583.806304 919.378526,582.097095 918.85516,580.32466 C918.36243,577.86486 919.13772,575.22423 918.32505,572.85085 C917.22986,569.65237 913.60585,568.02185 910.24132,567.69073 C906.87679,567.35961 903.45773,567.95233 900.1124,567.46401 C897.11555,567.02655 894.21427,565.72773 891.19151,565.91592 C887.56451,566.14172 884.40826,568.47868 881.89405,571.10261 C879.37984,573.72654 877.24705,576.7445 874.39165,578.99237 C873.517452,579.593922 872.710893,580.288278 871.98605,581.06332 C870.5317,582.83563 870.38419,585.36039 870.78877,587.61705 C871.19335,589.87371 872.07368,592.02632 872.44539,594.28863 C872.79471,596.41463 872.68694,598.58675 872.83739,600.73605 C872.872587,602.903836 873.528874,605.016033 874.72839,606.82205 C875.778643,608.247744 877.427782,609.109318 879.19791,609.1571 C879.80313,609.1711 880.31429,608.62723 880.92514,608.76904 C881.68871,608.94632 882.0207,609.67141 882.6984,609.98213 Z" id="Path" fill="#2F2E41" fill-rule="nonzero"></path>
                <path d="M855.20426,684.42495 C855.7508,676.93105 856.16254,671.33127 856.16254,671.33127 L859.69608,662.01827 L871.03794,684.42495 L855.20426,684.42495 Z" id="Path" fill="#575A89" fill-rule="nonzero"></path>
                <path d="M855.20426,684.42495 C855.7508,676.93105 856.16254,671.33127 856.16254,671.33127 L859.69608,662.01827 L871.03794,684.42495 L855.20426,684.42495 Z" id="Path" fill="#000000" fill-rule="nonzero" opacity="0.1"></path>
                <path d="M881.48817,610.74439 C881.48817,610.74439 892.06389,637.66439 885.97484,642.79202 C879.88579,647.91965 919.94533,634.13916 919.94533,634.13916 L918.9839,630.61393 C918.9839,630.61393 905.84437,625.4863 912.2539,610.74439 C918.66343,596.00248 881.48817,610.74439 881.48817,610.74439 Z" id="Path" fill="#A0616A" fill-rule="nonzero"></path>
                <path d="M881.48817,610.74439 C881.48817,610.74439 892.06389,637.66439 885.97484,642.79202 C879.88579,647.91965 919.94533,634.13916 919.94533,634.13916 L918.9839,630.61393 C918.9839,630.61393 905.84437,625.4863 912.2539,610.74439 C918.66343,596.00248 881.48817,610.74439 881.48817,610.74439 Z" id="Path" fill="#000000" fill-rule="nonzero" opacity="0.1"></path>
                <circle id="Oval" fill="#A0616A" fill-rule="nonzero" cx="896.55056" cy="599.20725" r="22.43334"></circle>
                <path d="M951.02971,647.59949 C951.02971,647.59949 950.93988,649.38124 950.78265,652.49555 C950.46074,658.83655 949.88432,670.71738 949.30786,684.42491 L862.34628,684.42491 C860.073939,681.381503 858.213696,678.051184 856.81385,674.52042 C856.435199,673.496857 856.215549,672.421338 856.16254,671.33127 C855.6834,662.83422 863.29702,650.97584 868.67222,649.8454 C874.75864,648.55772 886.29515,636.38488 886.29515,636.38488 C886.370196,637.326873 886.924509,638.164029 887.76245,638.60088 L887.76245,638.60838 C888.692839,639.089041 889.733386,639.316257 890.77945,639.26718 C894.53762,639.26718 911.06745,631.63857 916.37533,629.1456 C917.41595,628.65902 918.02233,628.36704 918.02233,628.36704 C924.143726,631.008942 930.467602,633.154459 936.93285,634.78286 C943.485635,636.417291 948.780656,641.231436 951.02971,647.59949 L951.02971,647.59949 Z" id="Path" fill="#575A89" fill-rule="nonzero"></path>
                <path d="M878.85269,607.7388 C879.689922,607.993278 880.590363,607.621225 881.00378,606.84999 C882.73297,604.12552 879.54931,600.61245 880.23868,597.46005 C880.79096,594.9345 883.6608,593.43552 884.24757,590.91777 C884.81772,588.47136 883.0609,585.71377 884.24833,583.50024 C885.17863,581.766 887.50241,581.30964 889.44681,581.61345 C891.39121,581.91726 893.23681,582.77202 895.20112,582.89178 C897.81864,583.05137 900.31377,581.8991 902.87326,581.32819 C905.43275,580.75728 908.55471,580.9808 910.06041,583.12784 C911.99376,585.88467 910.03258,589.72346 910.70577,593.02267 C911.24032,595.64246 917.33077,597.48126 917.88312,595.70978 C919.153416,591.580115 918.892774,587.130962 917.14897,583.17787 C916.250341,581.56297 915.532814,579.853762 915.00944,578.08133 C914.51671,575.62153 915.292,572.9809 914.47933,570.60751 C913.38414,567.40904 909.76013,565.77851 906.3956,565.44739 C903.03107,565.11627 899.61201,565.709 896.26668,565.22067 C893.26983,564.78322 890.36855,563.4844 887.34579,563.67259 C883.71879,563.89839 880.56254,566.23534 878.04833,568.85928 C875.53412,571.48322 873.40133,574.50116 870.54593,576.74904 C869.671737,577.350591 868.865182,578.044944 868.14034,578.81998 C866.68599,580.59229 866.53847,583.11705 866.94305,585.37372 C867.34763,587.63039 868.22797,589.78298 868.59967,592.04529 C868.94899,594.17134 868.84123,596.34342 868.99167,598.49271 C869.026865,600.660497 869.683152,602.772694 870.88267,604.57871 C871.932919,606.00441 873.58206,606.865988 875.35219,606.91377 C875.9574,606.92777 876.46857,606.3839 877.07941,606.52571 C877.84299,606.70299 878.17499,607.42808 878.85269,607.7388 Z" id="Path" fill="#2F2E41" fill-rule="nonzero"></path>
                <path d="M962.14699,684.42491 L936.7682,684.42491 C934.8367,670.26068 933.2421,655.45267 933.2421,655.45267 L938.37029,653.20677 L948.79129,647.59949 C948.79129,647.59949 949.55491,649.41117 950.78264,652.49555 C953.40288,659.09104 958.15674,671.50344 962.14699,684.42491 Z" id="Path" fill="#000000" fill-rule="nonzero" opacity="0.1"></path>
                <path d="M964.3854,684.42491 L935.74256,684.42491 C931.4978,668.92813 927.31291,652.08381 927.31291,652.08381 L938.21305,644.07339 L951.0297,647.59949 C951.0297,647.59949 958.53106,665.45444 964.3854,684.42491 Z" id="Path" fill="#575A89" fill-rule="nonzero"></path>
                <rect id="Rectangle" fill="#FFC107" fill-rule="nonzero" x="1044.57183" y="547.42446" width="120.53045" height="8.235"></rect>
                <rect id="Rectangle" fill="#FFC107" fill-rule="nonzero" x="843.93729" y="704.63809" width="42.67227" height="8.235"></rect>
                <rect id="Rectangle" fill="#FFC107" fill-rule="nonzero" x="843.93729" y="719.61081" width="122.02772" height="8.235"></rect>
                <rect id="Rectangle" fill="#F2F2F2" fill-rule="nonzero" x="1016.12365" y="577.36991" width="173.68363" height="8.235"></rect>
                <rect id="Rectangle" fill="#F2F2F2" fill-rule="nonzero" x="1016.12365" y="600.57764" width="173.68363" height="8.235"></rect>
                <rect id="Rectangle" fill="#F2F2F2" fill-rule="nonzero" x="1016.12365" y="623.78536" width="173.68363" height="8.235"></rect>
                <rect id="Rectangle" fill="#F2F2F2" fill-rule="nonzero" x="1016.12365" y="646.99309" width="173.68363" height="8.235"></rect>
                <rect id="Rectangle" fill="#F2F2F2" fill-rule="nonzero" x="1016.12365" y="670.20082" width="173.68363" height="8.235"></rect>
                <rect id="Rectangle" fill="#F2F2F2" fill-rule="nonzero" x="1016.12365" y="693.40854" width="173.68363" height="8.235"></rect>
                <rect id="Rectangle" fill="#F2F2F2" fill-rule="nonzero" x="1016.12365" y="716.61627" width="173.68363" height="8.235"></rect>
                <path d="M1572.58312,990.61903 C1572.58312,1044.15249 1497.96383,1027.5941 1406.60005,1027.5941 C1315.23627,1027.5941 1241.72556,1044.15249 1241.72556,990.61903 C1241.72556,937.08557 1316.33464,925.44248 1407.69842,925.44248 C1499.0622,925.44248 1572.58312,937.08556 1572.58312,990.61903 Z" id="Path" fill="#000000" fill-rule="nonzero" opacity="0.1"></path>
                <path d="M1572.58312,980.61903 C1572.58312,1034.15249 1497.96383,1017.5941 1406.60005,1017.5941 C1315.23627,1017.5941 1241.72556,1034.15249 1241.72556,980.61903 C1241.72556,927.08557 1316.33464,915.44248 1407.69842,915.44248 C1499.0622,915.44248 1572.58312,927.08556 1572.58312,980.61903 Z" id="Path" fill="#3F3D56" fill-rule="nonzero"></path>
                <path d="M1260.65422,812.90948 L1257.27322,816.83548 C1257.27322,816.83548 1216.16156,820.69572 1217.83005,827.36959 C1219.49854,834.04346 1267.32812,818.47106 1267.32812,818.47106 L1260.65422,812.90948 Z" id="Path" fill="#FFC1C7" fill-rule="nonzero"></path>
                <path d="M1335.1794,809.57253 C1335.1794,809.57253 1291.24292,825.14496 1267.32812,818.47106 L1278.45128,840.71739 C1278.45128,840.71739 1335.1794,839.04891 1345.19028,829.03807 C1355.20116,819.02723 1335.1794,809.57253 1335.1794,809.57253 Z" id="Path" fill="#FFC107" fill-rule="nonzero"></path>
                <path d="M1335.1794,809.57253 C1335.1794,809.57253 1291.24292,825.14496 1267.32812,818.47106 L1278.45128,840.71739 C1278.45128,840.71739 1335.1794,839.04891 1345.19028,829.03807 C1355.20116,819.02723 1335.1794,809.57253 1335.1794,809.57253 Z" id="Path" fill="#000000" fill-rule="nonzero" opacity="0.1"></path>
                <circle id="Oval" fill="#FFC1C7" fill-rule="nonzero" cx="1305.42495" cy="660.80025" r="29.47638"></circle>
                <path d="M1330.55905,688.47322 C1331.5738,690.410303 1332.85971,692.192719 1334.3779,693.7666 C1338.41543,698.159233 1343.23318,701.764327 1348.58639,704.39872 C1331.85614,707.798801 1314.95776,710.311588 1297.96206,711.92655 C1299.75665,705.6075 1297.39446,698.84868 1294.22006,693.09764 C1291.04566,687.3466 1286.99906,681.98636 1285.01231,675.72505 L1304.93572,676.26059 C1308.55061,676.35775 1312.17725,676.46606 1315.79149,676.28908 C1318.49282,676.15681 1322.99317,674.53851 1325.51457,675.13456 C1330.84515,676.39465 1328.23205,683.74536 1330.55905,688.47322 Z" id="Path" fill="#FFC1C7" fill-rule="nonzero"></path>
                <path d="M1397.46911,826.81344 L1414.15385,846.83513 C1414.15385,846.83513 1441.96176,911.90562 1381.34056,918.57952 C1320.71936,925.25342 1275.67056,913.5741 1275.67056,913.5741 C1275.67056,913.5741 1251.19956,901.89478 1250.64345,910.7933 C1250.08734,919.69182 1247.86266,944.71895 1234.51486,969.1899 L1222.83554,995.88549 C1222.83554,995.88549 1216.7178,1002.00323 1218.38628,1010.3456 C1220.05476,1018.68797 1181.12369,1021.46876 1181.67985,1010.3456 C1181.67985,1010.3456 1187.24143,1000.89091 1187.24143,995.32933 C1187.24143,989.76775 1196.13996,976.41996 1196.13996,976.41996 L1212.26854,896.33319 C1212.26854,896.33319 1211.15622,855.1775 1248.97497,862.96371 C1286.79372,870.74992 1340.74106,861.29524 1340.74106,861.29524 L1352.97653,818.47106 L1397.46911,826.81344 Z" id="Path" fill="#2F2E41" fill-rule="nonzero"></path>
                <path d="M1397.46911,826.81344 L1414.15385,846.83513 C1414.15385,846.83513 1441.96176,911.90562 1381.34056,918.57952 C1320.71936,925.25342 1275.67056,913.5741 1275.67056,913.5741 C1275.67056,913.5741 1251.19956,901.89478 1250.64345,910.7933 C1250.08734,919.69182 1247.86266,944.71895 1234.51486,969.1899 L1222.83554,995.88549 C1222.83554,995.88549 1216.7178,1002.00323 1218.38628,1010.3456 C1220.05476,1018.68797 1181.12369,1021.46876 1181.67985,1010.3456 C1181.67985,1010.3456 1187.24143,1000.89091 1187.24143,995.32933 C1187.24143,989.76775 1196.13996,976.41996 1196.13996,976.41996 L1212.26854,896.33319 C1212.26854,896.33319 1211.15622,855.1775 1248.97497,862.96371 C1286.79372,870.74992 1340.74106,861.29524 1340.74106,861.29524 L1352.97653,818.47106 L1397.46911,826.81344 Z" id="Path" fill="#000000" fill-rule="nonzero" opacity="0.1"></path>
                <path d="M1334.90133,825.34859 C1334.90133,825.34859 1385.78979,806.23559 1414.15385,846.83513 C1414.15385,846.83513 1421.38391,909.68099 1392.46369,912.46178 C1363.54347,915.24257 1325.72469,914.68641 1316.82619,905.23172 C1307.92769,895.77703 1251.75569,869.08145 1251.75569,869.08145 C1251.75569,869.08145 1223.79424,854.81908 1218.30944,873.3515 C1212.82464,891.88392 1212.26844,896.33319 1212.26844,896.33319 C1212.26844,896.33319 1183.34822,917.46719 1171.6689,921.36031 C1171.6689,921.36031 1163.88269,932.48347 1159.43342,932.48347 C1154.98415,932.48347 1127.73242,938.60121 1130.5132,918.02336 L1175.56201,876.86766 L1220.61081,832.93117 C1220.61081,832.93117 1233.40245,814.0218 1266.21581,824.03264 C1287.99276,830.513651 1310.08153,835.896631 1332.39862,840.16123 L1334.90133,825.34859 Z" id="Path" fill="#2F2E41" fill-rule="nonzero"></path>
                <path d="M1216.71773,1009.23328 C1216.71773,1009.23328 1227.28473,1035.92887 1218.38621,1039.26582 C1209.48769,1042.60277 1190.5783,1040.37814 1190.5783,1040.37814 C1190.5783,1040.37814 1168.33198,1037.59735 1162.7704,1038.1535 C1157.20882,1038.70965 1134.40634,1034.2604 1137.74329,1025.36187 C1141.08024,1016.46334 1158.32114,1018.68797 1158.32114,1018.68797 L1173.89356,1011.45792 C1173.89356,1011.45792 1175.56204,1005.89634 1179.45514,1008.12092 C1183.34824,1010.3455 1194.47141,1018.68797 1216.71773,1009.23328 Z" id="Path" fill="#CBCEDA" fill-rule="nonzero"></path>
                <path d="M1158.87729,930.25884 C1158.87729,930.25884 1170.55661,956.39827 1151.64724,954.17363 C1132.73787,951.94899 1118.27775,948.0559 1112.71617,947.49974 C1107.36642,946.96474 1092.23925,941.79838 1094.55973,931.5056 C1094.68459,930.839863 1094.73517,930.162326 1094.71056,929.48543 C1094.71056,928.10372 1096.58756,925.39243 1111.60386,925.80957 C1111.60386,925.80957 1122.72702,925.80957 1127.17628,918.02336 C1127.17628,918.02336 1143.86103,939.15737 1158.87729,930.25884 Z" id="Path" fill="#CBCEDA" fill-rule="nonzero"></path>
                <path d="M1285.12518,707.79561 C1285.12518,707.79561 1325.16856,682.76849 1358.53804,707.79561 C1391.90752,732.82273 1414.15385,846.83513 1414.15385,846.83513 L1336.84785,829.59423 C1336.84785,829.59423 1333.51085,816.24643 1329.06164,814.0218 C1324.61243,811.79717 1324.05621,802.34248 1324.05621,802.34248 C1324.05621,802.34248 1300.14142,795.11242 1301.80989,767.30448 C1303.47836,739.49654 1285.12518,707.79561 1285.12518,707.79561 Z" id="Path" fill="#FFC107" fill-rule="nonzero"></path>
                <path d="M1305.70303,708.90792 L1285.12518,708.90792 C1285.12518,708.90792 1272.8897,722.81192 1271.22118,757.84983 L1264.54733,785.65772 C1264.54733,785.65772 1250.64333,819.0272 1258.98575,824.58878 C1267.32817,830.15036 1283.4567,829.59421 1286.79365,818.47104 C1290.1306,807.34787 1312.93308,742.83355 1312.93308,742.83355 L1305.70303,708.90792 Z" id="Path" fill="#FFC107" fill-rule="nonzero"></path>
                <path d="M1299.80541,622.43916 C1310.20963,618.172602 1322.12965,620.12694 1330.62675,627.49245 C1341.30775,637.02445 1343.46275,652.57426 1346.16287,666.63313 C1348.86299,680.692 1354.29487,696.34821 1367.54505,701.76813 C1361.57259,702.565962 1355.51025,702.389567 1349.59428,701.24582 L1369.61772,719.18992 L1335.8872,708.19552 C1325.30097,704.74496 1314.18291,701.25107 1303.22038,703.19978 C1285.05958,706.42807 1272.41617,723.50065 1254.97303,729.49843 L1256.91139,720.03978 L1245.20867,719.95008 C1248.01222,717.875757 1250.30545,715.18903 1251.91373,712.0945 C1250.79922,710.740994 1249.18442,709.896097 1247.43702,709.75219 C1242.55877,679.32373 1260.62772,649.24491 1284.17519,629.36519 C1288.80685,625.45494 1293.93198,621.69919 1299.91408,620.72108 C1305.89618,619.74297 1312.87954,622.41785 1314.95977,628.11126" id="Path" fill="#2F2E41" fill-rule="nonzero"></path>
                <path d="M789.48756,901.3072 C789.48756,965.32333 829.64791,1017.12437 879.2784,1017.12437" id="Path" fill="#3F3D56" fill-rule="nonzero"></path>
                <path d="M879.2784,1017.12437 C879.2784,952.38896 924.09502,900.00589 979.47976,900.00589" id="Path" fill="#FFC107" fill-rule="nonzero"></path>
                <path d="M822.02047,907.11037 C822.02047,967.91889 847.62997,1017.12437 879.2784,1017.12437" id="Path" fill="#FFC107" fill-rule="nonzero"></path>
                <path d="M879.2784,1017.12437 C879.2784,934.4069 931.0794,867.47298 995.09556,867.47298" id="Path" fill="#3F3D56" fill-rule="nonzero"></path>
                <path d="M860.38872,1017.9409 C860.38872,1017.9409 873.12254,1017.54871 876.96019,1014.81597 C880.79784,1012.08323 896.54801,1008.82018 897.50004,1013.2029 C898.45207,1017.58562 916.6366,1035.00054 902.26018,1035.1165 C887.88376,1035.23246 868.85578,1032.87715 865.02551,1030.54399 C861.19524,1028.21083 860.38872,1017.9409 860.38872,1017.9409 Z" id="Path" fill="#A8A8A8" fill-rule="nonzero"></path>
                <path d="M902.51674,1033.59086 C888.14032,1033.70686 869.11235,1031.35153 865.28208,1029.01835 C862.36513,1027.24152 861.20275,1020.86582 860.81383,1017.92435 C860.54448,1017.93593 860.38872,1017.94092 860.38872,1017.94092 C860.38872,1017.94092 861.19525,1028.21083 865.02553,1030.54401 C868.85581,1032.87719 887.88377,1035.23251 902.26019,1035.11651 C906.41009,1035.08304 907.84354,1033.60657 907.76483,1031.41978 C907.18831,1032.74095 905.60556,1033.56596 902.51674,1033.59086 Z" id="Path" fill="#000000" fill-rule="nonzero" opacity="0.2"></path>
            </g>
        </g>
    </g>
</svg>