<?xml version="1.0" encoding="UTF-8"?>
<svg width="997px" height="449px" viewBox="0 0 997 449" version="1.1" xmlns="http://www.w3.org/2000/svg" xmlns:xlink="http://www.w3.org/1999/xlink">
    <!-- Generator: Sketch 64 (93537) - https://sketch.com -->
    <title>apps_architecture</title>
    <desc>Created with Sketch.</desc>
    <g id="architecture" stroke="none" stroke-width="1" fill="none" fill-rule="evenodd">
        <g id="apps_architecture">
            <rect id="Rectangle" fill="#FFFFFF" fill-rule="nonzero" x="0" y="0" width="997" height="449"></rect>
            <g id="Flutter" transform="translate(82.000000, 54.000000)">
                <rect id="Rectangle" stroke="#979797" fill="#FFFFFF" fill-rule="nonzero" x="0.5" y="0.5" width="215" height="97" rx="8"></rect>
                <g id="Group" transform="translate(85.000000, 40.000000)" fill="#000000" font-family="Helvetica" font-size="16" font-weight="normal">
                    <text id="Flutter">
                        <tspan x="0.828125" y="15">Flutter</tspan>
                    </text>
                </g>
            </g>
            <g id="Electron" transform="translate(82.000000, 253.000000)">
                <rect id="Rectangle" stroke="#979797" fill="#FFFFFF" fill-rule="nonzero" x="0.5" y="0.5" width="215" height="97" rx="8"></rect>
                <g id="Electron-(Vue,-Types" transform="translate(16.000000, 40.000000)" fill="#000000" font-family="Helvetica" font-size="16" font-weight="normal">
                    <text id="Electron-(Vue,-Typescript)">
                        <tspan x="0.3945312" y="15">Electron (Vue, Typescript)</tspan>
                    </text>
                </g>
            </g>
            <g id="neon_bindings" transform="translate(385.000000, 253.000000)">
                <rect id="Rectangle" stroke="#979797" fill="#FFFFFF" fill-rule="nonzero" x="0.5" y="0.5" width="215" height="97" rx="8"></rect>
                <g id="Neon-bindings" transform="translate(0.000000, 40.000000)" fill="#000000" font-family="Helvetica" font-size="16" font-weight="normal">
                    <text id="HTTP-server-over-Uni">
                        <tspan x="0.8515625" y="15">HTTP server over Unix socket</tspan>
                    </text>
                </g>
            </g>
            <g id="ffi" transform="translate(385.000000, 54.000000)">
                <rect id="Rectangle" stroke="#979797" fill="#FFFFFF" fill-rule="nonzero" x="0.5" y="0.5" width="215" height="97" rx="8"></rect>
                <g id="FFI" transform="translate(96.000000, 40.000000)" fill="#000000" font-family="Helvetica" font-size="16" font-weight="normal">
                    <text>
                        <tspan x="0.0039062" y="15">FFI</tspan>
                    </text>
                </g>
            </g>
            <polygon id="Line" fill="#000000" fill-rule="nonzero" points="601.168055 103.126085 610.508301 106.869051 607.517 109.524 683.23 194.811 686.22217 192.155938 688.831945 201.873915 679.491699 198.130949 682.482 195.475 606.769 110.188 603.77783 112.844062"></polygon>
            <polygon id="Line" fill="#000000" fill-rule="nonzero" points="689.326321 201.621167 686.862032 211.377051 683.831 208.766 607.926 296.886 610.95696 299.496734 601.673679 303.378833 604.137968 293.622949 607.168 296.233 683.073 208.113 680.04304 205.503266"></polygon>
            <polygon id="Line" fill="#000000" fill-rule="nonzero" points="377 298 386 302.5 377 307 377 303 306 303 306 307 297 302.5 306 298 306 302 377 302"></polygon>
            <polygon id="Line" fill="#000000" fill-rule="nonzero" points="376 99 385 103.5 376 108 376 104 305 104 305 108 296 103.5 305 99 305 103 376 103"></polygon>
            <g id="core" transform="translate(688.000000, 152.000000)">
                <rect id="Rectangle" stroke="#979797" fill="#FFFFFF" fill-rule="nonzero" x="0.5" y="0.5" width="215" height="97" rx="8"></rect>
                <g id="Core-(Rust)" transform="translate(67.000000, 40.000000)" fill="#000000" font-family="Helvetica" font-size="16" font-weight="normal">
                    <text id="Core-(Go)">
                        <tspan x="0.1601562" y="15">Core (Go)</tspan>
                    </text>
                </g>
            </g>
            <text id="Android,-IOS" fill="#000000" font-family="Helvetica" font-size="16" font-weight="normal">
                <tspan x="144.699219" y="179">Android, IOS</tspan>
            </text>
            <text id="Linux,-MacOS" fill="#000000" font-family="Helvetica" font-size="16" font-weight="normal">
                <tspan x="139" y="378">Linux, MacOS</tspan>
            </text>
        </g>
    </g>
</svg>