<?xml version="1.0" encoding="UTF-8"?>
<svg width="984px" height="657px" viewBox="0 0 984 657" version="1.1" xmlns="http://www.w3.org/2000/svg" xmlns:xlink="http://www.w3.org/1999/xlink">
    <!-- Generator: Sketch 63.1 (92452) - https://sketch.com -->
    <title>architecture</title>
    <desc>Created with Sketch.</desc>
    <defs>
        <path d="M8.99965202,0.000122821405 L8.999,30.999 L3,27.7682809 L3,3.18707774 L6.01783458,1.55958355 C8.10368894,0.43450535 8.7570718,0.0858003092 8.99965202,0.000122821405 Z" id="path-1"></path>
        <filter x="-41.7%" y="-10.3%" width="266.7%" height="120.4%" filterUnits="objectBoundingBox" id="filter-2">
            <feMorphology radius="1" operator="erode" in="SourceAlpha" result="shadowSpreadOuter1"></feMorphology>
            <feOffset dx="3" dy="0" in="shadowSpreadOuter1" result="shadowOffsetOuter1"></feOffset>
            <feGaussianBlur stdDeviation="2" in="shadowOffsetOuter1" result="shadowBlurOuter1"></feGaussianBlur>
            <feColorMatrix values="0 0 0 0 0   0 0 0 0 0   0 0 0 0 0  0 0 0 0.5 0" type="matrix" in="shadowBlurOuter1"></feColorMatrix>
        </filter>
        <linearGradient x1="50%" y1="0%" x2="50%" y2="99.8152449%" id="linearGradient-3">
            <stop stop-color="#FFC82E" offset="0%"></stop>
            <stop stop-color="#FFE7A2" offset="100%"></stop>
        </linearGradient>
        <polygon id="path-4" points="10.8537685 14.0527667 16.5659425 10.7705364 16.7551028 22.8893108 16.7121723 22.9135979 16.2536688 23.1729881 11.0705041 26.1650665"></polygon>
        <filter x="-118.6%" y="-58.5%" width="337.2%" height="190.9%" filterUnits="objectBoundingBox" id="filter-5">
            <feOffset dx="0" dy="-2" in="SourceAlpha" result="shadowOffsetOuter1"></feOffset>
            <feGaussianBlur stdDeviation="2" in="shadowOffsetOuter1" result="shadowBlurOuter1"></feGaussianBlur>
            <feColorMatrix values="0 0 0 0 0   0 0 0 0 0   0 0 0 0 0  0 0 0 0.5 0" type="matrix" in="shadowBlurOuter1"></feColorMatrix>
        </filter>
        <linearGradient x1="-62.3795815%" y1="0%" x2="113.873538%" y2="0%" id="linearGradient-6">
            <stop stop-color="#4285F4" offset="0%"></stop>
            <stop stop-color="#73A7FF" offset="100%"></stop>
        </linearGradient>
        <path d="M18.93801,6.78125 L19,13.2409448 L10.1662965,18.2565157 C9.60033856,18.5791798 9.11512691,18.8553726 8.71066155,19.0850942 C7.69404522,19.662495 7.66691709,19.6740468 8.62927715,19.1197495 L3.06314471,22.28125 L3,15.9060084 L8.592,12.71425 L8.59262185,12.7069427 L18.93801,6.78125 Z" id="path-7"></path>
        <filter x="-68.8%" y="-64.5%" width="187.5%" height="183.9%" filterUnits="objectBoundingBox" id="filter-8">
            <feMorphology radius="1.5" operator="erode" in="SourceAlpha" result="shadowSpreadOuter1"></feMorphology>
            <feOffset dx="0" dy="1" in="shadowSpreadOuter1" result="shadowOffsetOuter1"></feOffset>
            <feGaussianBlur stdDeviation="4" in="shadowOffsetOuter1" result="shadowBlurOuter1"></feGaussianBlur>
            <feColorMatrix values="0 0 0 0 0   0 0 0 0 0   0 0 0 0 0  0 0 0 0.5 0" type="matrix" in="shadowBlurOuter1"></feColorMatrix>
        </filter>
    </defs>
    <g id="architecture" stroke="none" stroke-width="1" fill="none" fill-rule="evenodd">
        <rect fill="#FFFFFF" x="0" y="0" width="984" height="657"></rect>
        <g id="Postgresql" transform="translate(307.000000, 535.000000)" fill-rule="nonzero">
            <path d="M68.4846537,59.1638438 C69.0019806,54.8256698 68.8472737,54.1892064 72.0551917,54.8916245 L72.8696542,54.9641748 C75.3367797,55.0771223 78.5643431,54.5643241 80.4592985,53.6772326 C84.540615,51.7703157 86.9602643,48.5847011 82.9362467,49.421502 C73.7561496,51.3284189 73.1250435,48.1988657 73.1250435,48.1988657 C82.8191933,33.7127282 86.8718604,15.3245424 83.3741738,10.8231304 C73.8347309,-1.4543473 57.3211972,4.35132003 57.0445255,4.50219153 L56.9561215,4.51950466 C55.1422031,4.13944038 53.1130046,3.91354534 50.8325097,3.87644579 C46.6783418,3.80801773 43.5260855,4.97376803 41.1350856,6.79989032 C41.1350856,6.79989032 11.6761006,-5.42399913 13.0463621,22.1722949 C13.3377677,28.0430925 21.4013555,66.5944714 31.0185612,54.9501594 C34.5334375,50.6927799 37.9304418,47.0924747 37.9304418,47.0924747 C39.6174842,48.2211255 41.63686,48.7965807 43.755281,48.5896477 L43.918992,48.4494938 C43.8682416,48.9779563 43.8903426,49.4948767 43.985295,50.106607 C41.5075282,52.8956687 42.2360424,53.3853828 37.282146,54.4118037 C32.2709508,55.4522399 35.215294,57.3039197 37.1364432,57.7878627 C39.4676885,58.3756845 44.8578749,59.2075388 48.5012643,54.0704878 L48.35638,54.6566607 C49.3288237,55.4398734 49.2625207,60.2850746 49.400038,63.7468748 C49.5375553,67.2086751 49.7683879,70.4388092 50.4690711,72.3449016 C51.1697544,74.2493452 51.9964953,79.1555545 58.5064652,77.7507182 C63.9465834,76.5750747 68.1056626,74.8849841 68.4846537,59.1638438" id="Path" fill="#000000"></path>
            <path d="M55.9440156,81 C53.0395018,81 51.1488432,79.8836176 49.999587,78.8049952 C48.2657953,77.178853 47.5780579,75.0831734 47.1677272,73.8313476 L46.99022,73.3084538 C46.1629537,71.0880021 45.8830702,67.8915366 45.7171215,63.7756975 C45.6923531,63.1584037 45.6741895,62.5205882 45.6552004,61.8450127 C45.6411649,61.3516702 45.623827,60.7327347 45.5990586,60.083427 C44.5670397,60.5751277 43.4623667,60.9223555 42.2990751,61.1210059 C40.2515496,61.4690545 38.0504598,61.3557745 35.7552499,60.7852703 C34.1362187,60.3830443 32.4536151,59.549041 31.495076,58.260276 C28.7003689,60.6941538 26.0344578,60.3633434 24.5822008,59.882314 C22.0203172,59.0327141 19.7275841,56.6464468 17.5719031,52.5847851 C16.0370847,49.6928622 14.5518031,45.9234299 13.1573392,41.3832013 C10.7300309,33.4757664 9.18778188,25.1472256 9.05072978,22.4137305 C8.6197587,13.8545253 10.9364346,7.73412312 15.9363596,4.22326472 C23.8251118,-1.31678282 35.7758902,1.94042693 40.1326611,3.41963358 C43.0594666,1.66543569 46.5031071,0.810910648 50.3950566,0.873296722 C52.485514,0.906952367 54.4752464,1.09000624 56.3237986,1.41671226 C58.2516098,0.814194126 62.0609978,-0.0510022157 66.4210711,0.00235429493 C74.454306,0.0975751446 81.1112404,3.21031189 85.6711126,9.00400807 C88.9248616,13.1379063 87.3165634,21.8177793 86.0674078,26.6247905 C84.3113245,33.3846499 81.2326058,40.5762867 77.4512887,46.8362367 C78.4783539,46.8436245 79.9652867,46.7204941 82.0805125,46.2870751 C86.2531712,45.4300874 87.4726047,47.6546435 87.8036763,48.6503581 C89.1304398,52.6455294 83.3635184,55.6638662 81.5645031,56.4937651 C79.2593858,57.5584327 75.5020115,58.2060987 72.4241185,58.06573 L72.2895432,58.0567004 L71.481266,57.9861057 L71.4011814,58.6559351 L71.3243992,59.3118097 C71.1179954,67.2446916 69.9778209,72.2684123 67.6322485,75.588829 C65.1743923,79.0684943 61.7571715,80.044508 58.7478045,80.685607 C57.7232162,80.9047792 56.7902711,81 55.9440156,81 L55.9440156,81 Z M49.8328128,52.1267399 C51.7077846,53.6182596 51.872082,56.4248121 52.0182159,61.6701675 C52.0363794,62.3244004 52.0537173,62.9441568 52.0768346,63.5228697 C52.1478375,65.274605 52.3137861,69.3773103 52.9594171,71.1109864 C53.0510604,71.3556055 53.1327963,71.6051498 53.2186602,71.867828 C53.9385966,74.061191 54.300216,75.1603351 57.4136105,74.4970727 C60.0283335,73.9405232 61.3716092,73.4406138 62.4234429,71.9515567 C63.952482,69.7861032 64.8078192,65.4330328 64.9646861,59.0089089 L68.1449554,59.0860707 L64.9861521,58.7092916 L65.078621,57.9253613 C65.3816217,55.3412645 65.5995841,53.4729657 67.3375039,52.2383782 C68.7311422,51.2475888 70.3204512,51.3436305 71.5861191,51.5701905 C70.1957833,50.5268655 69.8110467,49.3004866 69.7086704,48.7981145 L69.443648,47.4994992 L70.1883528,46.3995342 C74.4815513,40.0657059 78.0226144,32.2814015 79.9033656,25.0421543 C81.8353049,17.6034358 81.2458157,13.6525914 80.6571521,12.9056003 C72.858392,2.99688584 59.33234,7.08727803 57.9205382,7.55271098 L57.6811098,7.68076661 L56.4839679,7.90322221 L55.8705359,7.77680832 C54.1805018,7.42793883 52.3030531,7.23503452 50.2893779,7.20219975 C47.1264465,7.14966411 44.5752959,7.89255091 42.4831872,9.47108275 L41.0317559,10.5653017 L39.3466755,9.8749505 C35.7486449,8.41216124 25.1774693,5.4709862 19.5996138,9.39884625 C16.5035572,11.5790754 15.0934066,15.8517006 15.4071404,22.0976958 C15.5103422,24.1597197 16.9204928,31.9653668 19.2437737,39.537066 C22.456242,49.9998673 25.3756169,53.4746075 26.5942248,53.8792961 C26.8064079,53.9507117 27.3587444,53.5238596 27.9077784,52.8688059 C31.4793893,48.5978224 34.8759698,45.0377119 35.0188012,44.8874928 L36.8607485,42.9609123 L39.0874324,44.4319102 C39.984876,45.0253988 40.9747885,45.3611344 41.9919462,45.4243413 L47.3031281,40.9210518 L46.5336549,48.7275198 C46.5163169,48.9031858 46.5080608,49.141238 46.5774125,49.5845074 L46.8085847,51.0645349 L45.8071136,52.1792756 L45.6915275,52.3081521 L48.6092512,53.6478109 L49.8328128,52.1267399 L49.8328128,52.1267399 Z" id="Shape" fill="#000000"></path>
            <path d="M82.937163,49.4168758 C73.7565566,51.3235862 73.1254718,48.1935475 73.1254718,48.1935475 C82.8184765,33.7089782 86.8701884,15.3219587 83.3734382,10.8218583 C73.8334982,-1.45429032 57.320521,4.35157286 57.0446772,4.50242803 L56.9554576,4.51809059 C55.1416003,4.13971615 53.1124702,3.91384556 50.8312336,3.87675003 C46.6772057,3.80832938 43.5258741,4.97312913 41.1349548,6.79905373 C41.1349548,6.79905373 11.6761439,-5.42268807 13.0463593,22.1706185 C13.3377551,28.0407806 21.4010712,66.5879861 31.0179528,54.9449346 C34.5327106,50.6880161 37.9287819,47.0881006 37.9287819,47.0881006 C39.6157675,48.2166292 41.6350752,48.7920221 43.7526063,48.5851115 L43.9171304,48.4449728 C43.8663817,48.9733781 43.8893004,49.4902425 43.9826126,50.1019066 C41.5057479,52.8906664 42.2326004,53.3803275 37.280508,54.4066372 C32.2686631,55.4469608 35.2129071,57.2984401 37.1356286,57.7823308 C39.4659769,58.3700889 44.8568001,59.2018532 48.4992483,54.0653583 L48.3535504,54.6514677 C49.3243242,55.4345957 50.0061577,59.7450967 49.8915638,63.6524929 C49.77697,67.5598891 49.7008469,70.2423083 50.4661703,72.3377938 C51.2314936,74.4324549 51.9935429,79.1477094 58.504112,77.7430252 C63.9440469,76.5683333 66.7630562,73.5256752 67.1559495,68.4510062 C67.4342489,64.8428473 68.0636967,65.3761987 68.1038045,62.1497116 L68.6096546,60.6222 C69.1916278,55.7305356 68.7021483,54.1527389 72.0540191,54.8872305 L72.8684541,54.9589485 C75.3354965,55.0727081 78.5637696,54.5591411 80.4586612,53.6721457 C84.5398402,51.7646109 86.9602265,48.5801654 82.937163,49.4168758 L82.937163,49.4168758 Z" id="Path" fill="#336791"></path>
            <path d="M55.7685253,79 C50.348501,79.0008203 48.6320101,74.6933921 47.9290662,72.9321946 C46.9016239,70.3515111 46.6792974,60.3339311 46.9081629,52.1185639 C46.9245104,51.5361464 47.4043105,51.0759546 47.9879174,51.0940013 C48.5674374,51.1104075 49.0243509,51.5952085 49.0088207,52.1776259 C48.7448081,61.6529835 49.119984,70.2391291 49.8801442,72.1488021 C51.0677924,75.1281545 52.8684731,77.7342674 57.9615467,76.6399789 C62.7963293,75.5990102 64.6068185,73.7590633 65.4127518,69.0685521 C66.0323233,65.4682279 67.2551187,55.2267043 67.405516,53.2054697 C67.4488369,52.6246928 67.9507062,52.1882899 68.5310435,52.2325864 C69.1097462,52.2760627 69.5437732,52.7821916 69.5004522,53.3621481 C69.3435159,55.4654134 68.1256247,65.68807 67.4823494,69.4270259 C66.5301056,74.9681947 64.0689847,77.4816131 58.4012953,78.7014085 C57.439243,78.9073054 56.5638327,79 55.7685253,79 L55.7685253,79 Z M26.383019,57.9632512 C25.8656196,57.9640663 25.3964454,57.8689107 24.9902092,57.7327399 C21.4697682,56.5539598 18.1168894,50.8003317 15.0239363,40.6301747 C12.6698917,32.8881242 11.1781794,24.8081075 11.0473991,22.1823072 C10.6591452,14.3976008 12.657631,8.88924426 16.9856402,5.81145517 C25.5484775,-0.277678199 39.9539227,5.52106675 40.5628683,5.77043986 C41.0998847,5.99110224 41.3573584,6.60633194 41.137484,7.14527315 C40.9184271,7.68339406 40.3045773,7.94261083 39.7683782,7.72194845 L39.7683782,7.72276876 C39.6294242,7.66534732 25.8157596,2.11187394 18.1961749,7.53491862 C14.4950936,10.168922 12.7957677,15.0612286 13.1447875,22.0781283 C13.2551333,24.289674 14.6487605,32.1769187 17.033048,40.0157653 C19.7941462,49.0940947 22.9369592,54.8239339 25.6547364,55.7328332 C26.0805896,55.8763868 27.3785837,56.3103288 29.2356633,54.0708928 C32.7274962,49.8545186 35.9356993,46.4896223 35.967577,46.4559897 C36.3689089,46.0351726 37.0342535,46.0220477 37.4527503,46.4239978 C37.8712471,46.8267682 37.8859599,47.4944975 37.484628,47.9144943 C37.4527503,47.9473065 34.2935897,51.2621641 30.8507995,55.4186559 C29.2201332,57.3857504 27.6564917,57.9632512 26.383019,57.9632512 L26.383019,57.9632512 Z M72.0907187,49.0801495 C71.8888266,49.0801495 71.6844825,49.0219077 71.5046596,48.8996821 C71.0232248,48.5748408 70.8957141,47.9194161 71.2202126,47.4362557 C81.0050279,32.8643353 84.4396444,15.2581021 81.497906,11.4863339 C77.79519,6.73840124 72.5664318,4.25779511 65.957942,4.11588213 C61.0643083,4.00924232 57.174413,5.26349059 56.5393114,5.48251236 L56.379923,5.54731655 C55.7407344,5.74911189 55.2503085,5.39720051 55.0655814,4.98622707 C54.8465244,4.49978546 55.0263473,3.92475077 55.4808087,3.64830756 L55.763621,3.53182407 L55.7497256,3.5359256 L55.7644384,3.53100377 C56.8441929,3.13479584 60.7929392,1.94535177 65.6849382,2.0019529 C72.9980067,2.07906169 79.0384198,4.90993859 83.1530936,10.1861485 C85.1000847,12.6831607 85.1041716,18.4359685 83.1653543,25.9688409 C81.1889376,33.6485481 77.4698741,41.90329 72.9628595,48.6150358 C72.7601501,48.9177288 72.4282952,49.0801495 72.0907187,49.0801495 L72.0907187,49.0801495 Z M72.5901358,55.8255278 C70.919418,55.8255278 69.421984,55.5901 68.5253219,55.0503384 C67.6033211,54.4966317 67.4275851,53.7427703 67.4046986,53.3432811 C67.1529466,48.9103461 69.5903636,48.1384379 70.8335934,47.7865265 C70.6603096,47.5240285 70.4134619,47.214773 70.1592577,46.8956739 C69.4342447,45.9867746 68.4419495,44.7415497 67.676885,42.8794545 C67.557548,42.589066 67.1815548,41.9123134 66.7467104,41.1297412 C64.3902137,36.8895781 59.4875888,28.0655437 62.6369409,23.5464765 C64.0951407,21.4555159 66.9968277,20.6327487 71.273342,21.0921202 C70.0153995,17.2457041 64.024029,5.2126316 49.8098498,4.97884432 C45.5341528,4.90665737 42.0276072,6.22653014 39.3932024,8.89580671 C33.4941954,14.875019 33.7083481,25.693218 33.7108002,25.8006781 C33.7263304,26.3830956 33.2677821,26.8670763 32.6882621,26.8818418 C32.1079247,26.8998885 31.6256725,26.4380561 31.6109597,25.8556386 C31.5978817,25.3757595 31.37719,14.0235411 37.9006727,7.41187268 C40.9535743,4.31767747 44.9717977,2.79026721 49.8441796,2.86983692 C58.9399465,3.01995297 64.7931803,7.65960517 68.1027382,11.5265289 C71.7090038,15.7396218 73.4778067,20.3874771 73.6232998,21.9378559 C73.7320109,23.0912065 72.9072779,23.3225329 72.7405331,23.3561655 L72.3620877,23.3651888 C68.1648588,22.6908971 65.4724203,23.1584717 64.3591534,24.7556079 C61.9634225,28.1910506 66.6012174,36.5376668 68.5817209,40.1027178 C69.087677,41.0116171 69.452227,41.6686824 69.6189718,42.074734 C70.2696036,43.6579251 71.1180405,44.7218623 71.7997326,45.5766214 C72.3988696,46.3288423 72.9187212,46.9801654 73.105083,47.7463315 C73.1909076,47.8980881 74.4153377,49.7142462 81.6777288,48.2098045 C83.4980265,47.833284 84.5892243,48.1556643 84.922714,49.1679222 C85.5790674,51.1604461 81.8967858,53.4835535 79.8582485,54.4342884 C78.0289597,55.2865866 75.1133773,55.8255278 72.5901358,55.8255278 L72.5901358,55.8255278 Z M69.4996348,53.1693762 C69.7293176,53.4031635 70.8818187,53.8051135 73.2693757,53.7025752 C75.3912854,53.6107009 77.6300799,53.1472279 78.973847,52.5221545 C80.6919727,51.7215356 81.8379347,50.8265815 82.4321674,50.2154533 L82.1019473,50.276156 C77.4584308,51.2383752 74.1742116,51.1104075 72.3408359,49.8947136 C72.2092383,49.8085814 72.0923534,49.7183477 71.9852771,49.6297547 C71.7866546,49.7085041 71.6027448,49.7601834 71.4719646,49.7970971 C70.4314441,50.0899465 69.3557765,50.3926395 69.4996348,53.1693762 L69.4996348,53.1693762 Z M39.5043656,59.0583548 C38.3510472,59.0583548 37.1372429,58.9016763 35.8972826,58.5891396 C34.613184,58.2667593 32.447136,57.296337 32.4806484,55.7024819 C32.5174304,53.913394 35.1093316,53.3769137 36.0860966,53.1751183 C39.6106246,52.4466864 39.8403074,52.1546573 40.942131,50.7511133 C41.26336,50.3417805 41.6630572,49.8323703 42.20743,49.2212421 C43.0166329,48.3131631 43.9010343,47.852151 44.8361132,47.852151 C45.486745,47.852151 46.0213093,48.074454 46.3735986,48.2204685 C47.4983088,48.6880431 48.4366571,49.8184251 48.8224589,51.1719304 C49.1706613,52.3925461 49.0047339,53.5672247 48.3549195,54.4794053 C46.2232013,57.475984 43.1629433,59.0583548 39.5043656,59.0583548 L39.5043656,59.0583548 Z M34.7496859,55.7935359 C35.066828,56.0388075 35.7011123,56.36693 36.4065083,56.5449364 C37.4805411,56.8139969 38.5218789,56.950988 39.5043656,56.950988 C42.4975987,56.950988 44.8998686,55.7065834 46.645785,53.254688 C47.0095176,52.7428169 46.9008065,52.0939547 46.8035387,51.751887 C46.5991945,51.0365799 46.092421,50.386077 45.5701174,50.1678756 C45.2864877,50.0497515 45.0519006,49.9595178 44.8361132,49.9595178 C44.7200457,49.9595178 44.3677564,49.9595178 43.7735236,50.6264268 C43.2716544,51.1891569 42.9111913,51.6485284 42.591597,52.05458 C41.2200391,53.8026526 40.5914765,54.395734 36.5094977,55.2398292 C35.513933,55.4465464 35.0030726,55.6549041 34.7496859,55.7935359 Z M42.8270015,50.9307604 C42.3169585,50.9307604 41.8698535,50.557521 41.7897506,50.0366266 C41.7627771,49.8619013 41.7456122,49.6855355 41.7374385,49.5083493 C39.0613475,49.4574903 36.4800722,48.3057804 34.5208204,46.2533741 C32.043352,43.6587454 30.9153722,40.0641634 31.42705,36.3916522 C31.9828661,32.4033232 31.7752524,28.8825687 31.6632718,26.9909425 C31.6322115,26.4651262 31.6101424,26.0853244 31.6117771,25.8220061 C31.6134119,25.4889617 31.6199509,24.6038513 34.5665935,23.1051517 C35.6144703,22.5719527 37.7159456,21.6417254 40.0111391,21.4030163 C43.8152098,21.0092693 46.3221038,22.7089438 47.0724556,26.1903236 C49.0979148,35.5910333 47.2326614,39.7491658 45.870912,42.7851192 C45.6167078,43.3494899 45.3772165,43.8843296 45.1859504,44.4011226 L45.0167534,44.8580331 C44.297462,46.7939559 43.6754384,48.4665604 43.8667045,49.7167071 C43.9541638,50.2925621 43.5610057,50.8298627 42.9880247,50.9192761 L42.8270015,50.9307604 L42.8270015,50.9307604 Z M33.718974,26.1132148 L33.7606602,26.8662559 C33.8767277,28.8308894 34.0925151,32.4878147 33.5072735,36.6845016 C33.0855071,39.7130723 34.0075079,42.6702764 36.037054,44.7956899 C37.6407469,46.4756771 39.7528481,47.4026232 41.922983,47.4026232 L41.9679387,47.4026232 C42.2115169,46.3747794 42.6144836,45.2903345 43.0485105,44.1213981 L43.2168901,43.6677688 C43.4334949,43.0837107 43.6868817,42.5185197 43.9549812,41.9205164 C45.2660533,38.9969449 46.897537,35.3580664 45.0183882,26.6357499 C44.6456644,24.9090052 43.7432807,23.9090519 42.2597421,23.5792888 C39.2125621,22.9033564 34.6720351,25.2034952 33.718974,26.1132148 L33.718974,26.1132148 Z M40.0585469,25.6661479 C40.0062348,26.0385669 40.7394216,27.0335984 41.6941175,27.166488 C42.647996,27.300198 43.4645552,26.5225476 43.51605,26.1501286 C43.5675447,25.7768892 42.8351753,25.3667361 41.879662,25.2330262 C40.9257835,25.0993163 40.1092243,25.2929085 40.0585469,25.6661479 L40.0585469,25.6661479 Z M41.9139918,27.5339852 L41.6458923,27.5151182 C41.0532943,27.4322673 40.4541572,27.0573873 40.0446515,26.5118836 C39.9007932,26.3207523 39.6653888,25.9483332 39.7119793,25.6169295 C39.7790041,25.1304879 40.36915,24.8400995 41.2919682,24.8400995 C41.4987645,24.8400995 41.7129172,24.8556853 41.929522,24.8852163 C42.433026,24.9557627 42.9013828,25.1017772 43.2471331,25.2953695 C43.8462701,25.631695 43.8904084,26.0057547 43.863435,26.2001673 C43.7890537,26.7358273 42.9373473,27.5339852 41.9139918,27.5339852 L41.9139918,27.5339852 Z M40.4067494,25.7284912 C40.4369923,25.9581769 41.0034343,26.7169602 41.7423427,26.8194985 L41.9131744,26.8318031 C42.5948665,26.8318031 43.1049095,26.2928619 43.164578,26.116496 C43.10164,25.9967313 42.6635262,25.6973195 41.8314368,25.5824767 C41.647527,25.5562268 41.4652521,25.5430978 41.2911508,25.5430978 C40.7582213,25.5422816 40.4729569,25.6628667 40.4067494,25.7284912 L40.4067494,25.7284912 Z M69.1138331,24.905724 C69.1653278,25.2789633 68.4337757,26.2739948 67.4782625,26.4068844 C66.5235666,26.5397741 65.7070074,25.762944 65.6546953,25.3897047 C65.6040179,25.0172856 66.3363874,24.6063122 67.2910832,24.4734226 C68.2457791,24.3388924 69.061521,24.5341252 69.1138331,24.905724 Z M67.2583882,26.5971955 C66.3388395,26.5971955 65.5468016,25.8794275 65.4814114,25.4143139 C65.4062128,24.8556853 66.322492,24.4307667 67.2673793,24.2995177 C67.474993,24.2699866 67.6809719,24.2552211 67.8795944,24.2552211 C68.6945189,24.2552211 69.2339874,24.4955709 69.2879343,24.8819351 C69.3230815,25.1329488 69.1318153,25.5193131 68.8015952,25.8671229 C68.584173,26.0968087 68.1264421,26.4946572 67.5036012,26.5807894 L67.2583882,26.5971955 Z M67.878777,24.6063122 C67.696502,24.6063122 67.5068707,24.6202574 67.3147872,24.6465072 C66.3649955,24.7785765 65.8001883,25.1616595 65.8271617,25.3667361 C65.8590394,25.5915 66.4647155,26.2461044 67.2575708,26.2461044 L67.4529238,26.2321592 C67.9711406,26.159152 68.3602118,25.8203655 68.5457563,25.6243123 C68.8367424,25.3166974 68.9528099,25.0279496 68.9389145,24.9286926 C68.9217496,24.7999045 68.5719124,24.6063122 67.878777,24.6063122 L67.878777,24.6063122 Z M70.4894779,46.3058737 C70.2884032,46.3058737 70.0856938,46.2484523 69.905871,46.1278672 C69.4236188,45.803026 69.2944733,45.1492419 69.617337,44.6652612 C71.8536794,41.3126695 71.4441738,37.8928127 71.0485635,34.5869785 C70.8793665,33.1776923 70.7052653,31.7216487 70.7510384,30.3230265 C70.7968115,28.8850297 70.9782691,27.6988668 71.1548224,26.550438 C71.3632535,25.1911906 71.5602412,23.9057707 71.4785036,22.3816416 C71.4466259,21.8008648 71.8912788,21.3045795 72.4707988,21.2717673 C73.0519535,21.2405956 73.5448316,21.6868422 73.5767093,22.2684394 C73.6698903,24.0107699 73.4467464,25.4643525 73.230959,26.8711778 C73.0642142,27.956443 72.8917477,29.0786219 72.8500615,30.3902916 C72.8100101,31.6281338 72.9677637,32.9430847 73.1345086,34.3343241 C73.5562749,37.8509771 74.0328055,41.8368452 71.3632535,45.8374788 C71.1605441,46.1409921 70.8278718,46.3058737 70.4894779,46.3058737 Z" id="Shape" fill="#FFFFFF"></path>
            <path d="M0,81.2781411 C0.900032938,81.1283728 2.07674572,81 3.57625165,81 C5.41666667,81 6.76630435,81.4279094 7.62269433,82.1981463 C8.41485507,82.8828013 8.88586957,83.9311793 8.88586957,85.2157304 C8.88586957,86.5208541 8.49967062,87.5478366 7.77173913,88.2966781 C6.78689065,89.3450561 5.18115942,89.8799428 3.3613307,89.8799428 C2.80467721,89.8799428 2.29084321,89.8585474 1.86347167,89.75157 L1.86347167,95.5291697 L0,95.5291697 L0,81.2781411 L0,81.2781411 Z M1.86347167,88.2316688 C2.27025692,88.3386461 2.78409091,88.381437 3.40497365,88.381437 C5.65217391,88.381437 7.02322134,87.2902681 7.02322134,85.3004894 C7.02322134,83.3962926 5.67440711,82.4762874 3.61907115,82.4762874 C2.80550066,82.4762874 2.18461792,82.5404738 1.86347167,82.6260557 L1.86347167,88.2316688 Z M20.1688076,90.2642384 C20.1688076,94.0940275 17.5131752,95.763697 15.0082345,95.763697 C12.2035573,95.763697 10.0411726,93.7097319 10.0411726,90.4354021 C10.0411726,86.969336 12.3106061,84.9367662 15.1795125,84.9367662 C18.1562912,84.9359435 20.1688076,87.0977089 20.1688076,90.2642384 L20.1688076,90.2642384 Z M11.9474638,90.3712157 C11.9474638,92.6391355 13.2534585,94.3507731 15.094697,94.3507731 C16.8931159,94.3507731 18.2411067,92.660531 18.2411067,90.3284248 C18.2411067,88.5739963 17.3641304,86.3488674 15.136693,86.3488674 C12.9092556,86.3488674 11.9474638,88.4028325 11.9474638,90.3712157 Z M22.2875494,93.6019317 C22.8442029,93.9656546 23.8290514,94.3507731 24.7710804,94.3507731 C26.1413043,94.3507731 26.7835968,93.6661181 26.7835968,92.8102993 C26.7835968,91.9116895 26.2491765,91.4195937 24.8567194,90.9061025 C22.9940711,90.2428429 22.1162714,89.2158604 22.1162714,87.9749231 C22.1162714,86.3060765 23.4650856,84.9367664 25.6916996,84.9367664 C26.7407773,84.9367664 27.66222,85.236303 28.2402833,85.5786305 L27.7692688,86.9479406 C27.3624835,86.6911949 26.6131423,86.3488674 25.6497036,86.3488674 C24.5363966,86.3488674 23.9155138,86.9907315 23.9155138,87.7609684 C23.9155138,88.6167872 24.53722,89.0019057 25.8860343,89.5153969 C27.6844532,90.200052 28.6050725,91.0986617 28.6050725,92.6391355 C28.6050725,94.4577504 27.192029,95.7414786 24.7299078,95.7414786 C23.595191,95.7414786 22.5461133,95.4633375 21.8181818,95.0354281 L22.2875494,93.6019317 L22.2875494,93.6019317 Z M33.2929842,82.1973234 L33.2929842,85.1712937 L35.9897892,85.1712937 L35.9897892,86.6047902 L33.2929842,86.6047902 L33.2929842,92.1890078 C33.2929842,93.4727359 33.6561265,94.2001819 34.7060277,94.2001819 C35.1984519,94.2001819 35.5624177,94.1359955 35.7979249,94.0718091 L35.8835639,95.4839101 C35.5204216,95.6336784 34.9415349,95.7406557 34.2144269,95.7406557 C33.3366271,95.7406557 32.6292819,95.4625146 32.1796772,94.9490233 C31.6452569,94.3927411 31.4517457,93.4727359 31.4517457,92.2531942 L31.4517457,86.6047902 L29.8460145,86.6047902 L29.8460145,85.1712937 L31.4517457,85.1712937 L31.4517457,82.6894192 L33.2929842,82.1973234 L33.2929842,82.1973234 Z M46.909585,85.1721166 C46.865942,85.920958 46.823946,86.7553814 46.823946,88.0177141 L46.823946,94.029841 C46.823946,96.4047382 46.3529315,97.8596301 45.3466733,98.7590628 C44.340415,99.7004634 42.884552,100 41.5785573,100 C40.3367918,100 38.9665679,99.7004634 38.1307642,99.1441812 L38.6017787,97.7106847 C39.2868906,98.1385941 40.3573781,98.5237126 41.6419631,98.5237126 C43.5688406,98.5237126 44.9818841,97.5181255 44.9818841,94.9078782 L44.9818841,93.7525228 L44.9390646,93.7525228 C44.3610013,94.715319 43.2476943,95.4855559 41.6419631,95.4855559 C39.0727931,95.4855559 37.2315547,93.303218 37.2315547,90.4354021 C37.2315547,86.9265451 39.5223979,84.9367664 41.8988801,84.9367664 C43.6981225,84.9367664 44.682971,85.8781671 45.1325758,86.7339859 L45.1753953,86.7339859 L45.2610343,85.1721166 L46.909585,85.1721166 L46.909585,85.1721166 Z M44.9612978,89.2586513 C44.9612978,88.9377193 44.939888,88.6595782 44.854249,88.4028325 C44.511693,87.3116636 43.5910738,86.4130538 42.2208498,86.4130538 C40.4216074,86.4130538 39.1378458,87.9321322 39.1378458,90.3284248 C39.1378458,92.3609944 40.1655138,94.0512365 42.1994401,94.0512365 C43.3555665,94.0512365 44.4046443,93.3237905 44.8114295,92.1256442 C44.9184783,91.8047122 44.9621212,91.4409892 44.9621212,91.1200572 L44.9621212,89.2586513 L44.9612978,89.2586513 Z M49.8204875,88.4028325 C49.8204875,87.1832907 49.7990777,86.1349127 49.7348485,85.1721166 L51.3842227,85.1721166 L51.4476285,87.2046862 L51.5332675,87.2046862 C52.0042819,85.8139807 53.1389987,84.9367664 54.4021739,84.9367664 C54.6162714,84.9367664 54.7653162,84.9581619 54.9365942,85.0009528 L54.9365942,86.7767768 C54.7447299,86.7339859 54.5512187,86.7125904 54.2951252,86.7125904 C52.9677207,86.7125904 52.0248682,87.7181775 51.7687747,89.1302785 C51.7259552,89.3870241 51.6831357,89.6865607 51.6831357,90.0074927 L51.6831357,95.5275239 L49.8204875,95.5275239 L49.8204875,88.4028325 Z M57.6572793,90.6921478 C57.7000988,93.2382087 59.3264163,94.2865867 61.2104743,94.2865867 C62.560112,94.2865867 63.372859,94.0512365 64.0793808,93.7516999 L64.400527,95.0996145 C63.7368248,95.3991511 62.602108,95.7414786 60.9535573,95.7414786 C57.7635046,95.7414786 55.8580369,93.6447226 55.8580369,90.520984 C55.8580369,87.3972454 57.6992754,84.9359435 60.7180501,84.9359435 C64.1007905,84.9359435 65,87.9099138 65,89.8141106 C65,90.1992291 64.9571805,90.4987656 64.9357708,90.6913249 L57.6572793,90.6913249 L57.6572793,90.6921478 Z M63.1809947,89.3442332 C63.201581,88.1460869 62.687747,86.284681 60.5690053,86.284681 C58.6635375,86.284681 57.8285573,88.0391095 57.6778656,89.3442332 L63.1809947,89.3442332 L63.1809947,89.3442332 Z" id="Shape" fill="#000000"></path>
            <path d="M66.4709551,93.5548469 C67.3043731,94.0752551 68.5224454,94.5089286 69.8046269,94.5089286 C71.7065294,94.5089286 72.8177533,93.4897959 72.8177533,92.0153061 C72.8177533,90.6492347 72.0484444,89.8686224 70.1038025,89.1096939 C67.7531366,88.2640306 66.2999976,87.0280612 66.2999976,84.9681122 C66.2999976,82.6913265 68.1591607,81 70.9585902,81 C72.4330988,81 73.5015834,81.3469388 74.1426741,81.7155612 L73.6298015,83.255102 C73.1596683,82.994898 72.1980322,82.5612245 70.8944811,82.5612245 C68.9284696,82.5612245 68.1805304,83.7538265 68.1805304,84.7512755 C68.1805304,86.1173469 69.0558658,86.7895408 71.0440689,87.5701531 C73.4802137,88.5250687 74.7196558,89.7168367 74.7196558,91.8635204 C74.7196558,94.1186224 73.0741896,96.0701531 69.6764087,96.0701531 C68.2873788,96.0701531 66.7701308,95.6581633 66,95.1377551 L66.4709551,93.5548469 L66.4709551,93.5548469 Z M89.1441971,98 C87.1995552,97.4795918 85.2976527,96.8941327 83.6308168,96.3086735 C83.3316412,96.2002551 83.0324655,96.0918367 82.7546595,96.0918367 C79.335509,95.9617347 76.4078613,93.4030612 76.4078613,88.6977041 C76.4078613,84.0140306 79.2286605,81 83.1179443,81 C87.0285977,81 89.5724128,84.0790816 89.5724128,88.3941327 C89.5724128,92.1454082 87.8628375,94.5522959 85.4694322,95.3979592 L85.4694322,95.4846939 C86.9012014,95.8533163 88.4611889,96.2002551 89.6792612,96.4170918 L89.1441971,98 L89.1441971,98 Z M87.6055793,88.4808673 C87.6055793,85.5535714 86.1105229,82.5387068 83.0538352,82.5387068 C79.9124906,82.5387068 78.3738729,85.4876864 78.3952426,88.6543367 C78.3738729,91.755102 80.0620785,94.5522959 82.9683564,94.5522959 C85.9395654,94.5522959 87.6055793,91.8201531 87.6055793,88.4808673 L87.6055793,88.4808673 Z M91.985544,81.2385204 L93.845529,81.2385204 L93.845529,94.2704082 L100,94.2704082 L100,95.8533163 L91.985544,95.8533163 L91.985544,81.2385204 Z" id="Shape" fill="#336791"></path>
        </g>
        <path id="Line" d="M360.005032,468.500025 L364.414225,477.544859 L360.414,477.504 L359.921,526.505 L363.92104,526.54572 L359.330689,535.499975 L354.921496,526.455141 L358.921,526.495 L359.414,477.494 L355.414681,477.45428 L360.005032,468.500025 Z" fill="#000000" fill-rule="nonzero"></path>
        <path id="Line" d="M532.071982,376.241543 L542.10243,377.041608 L540.034,380.465 L785.482,528.678 L787.549802,525.254059 L792.928018,533.758457 L782.89757,532.958392 L784.965,529.534 L539.517,381.321 L537.450198,384.745941 L532.071982,376.241543 Z" fill="#000000" fill-rule="nonzero"></path>
        <path id="Line" d="M672.354662,278.499531 L670.669,282.126 L785.501,335.466 L787.186721,331.83803 L793.453469,339.710632 L783.395338,340.000469 L785.08,336.373 L670.248,283.033 L668.563279,286.66197 L662.296531,278.789368 L672.354662,278.499531 Z" fill="#000000" fill-rule="nonzero"></path>
        <path id="Line" d="M783.440345,335.521586 L792.994783,338.677963 L784.737019,344.427687 L784.161,340.469 L539.982,376.019 L540.559655,379.978414 L531.005217,376.822037 L539.262981,371.072313 L539.838,375.03 L784.017,339.48 L783.440345,335.521586 Z" fill="#000000" fill-rule="nonzero"></path>
        <path id="Line" d="M662.772906,278.554547 L670.869671,284.528859 L667.306,286.345 L789.584,526.2 L793.148484,524.383454 L793.227094,534.445453 L785.130329,528.471141 L788.693,526.654 L666.415,286.799 L662.851516,288.616546 L662.772906,278.554547 Z" fill="#000000" fill-rule="nonzero"></path>
        <path id="Line" d="M662.904769,278.206466 L658.260745,287.133002 L655.912,283.894 L538.674,368.914 L541.022874,372.152832 L531.095231,373.793534 L535.739255,364.866998 L538.087,368.105 L655.325,283.085 L652.977126,279.847168 L662.904769,278.206466 Z" fill="#000000" fill-rule="nonzero"></path>
        <path id="Line" d="M421.132598,69.1608599 L430.79809,71.9587654 L428.085,74.897 L571.593,207.367 L574.306431,204.428004 L577.867402,213.83914 L568.20191,211.041235 L570.914,208.102 L427.406,75.632 L424.693569,78.5719964 L421.132598,69.1608599 Z" fill="#000000" fill-rule="nonzero"></path>
        <g id="Blob-storage" transform="translate(577.000000, 149.000000)">
            <rect id="Rectangle" stroke="#979797" fill="#FFFFFF" x="0.5" y="0.5" width="169" height="128" rx="8"></rect>
            <text id="dede" font-family="Helvetica" font-size="16" font-weight="normal" fill="#000000">
                <tspan x="68.9882812" y="33">Blob </tspan>
                <tspan x="58.3164062" y="52">storage</tspan>
            </text>
            <text id="dede" font-family="Helvetica" font-size="16" font-weight="normal" fill="#000000">
                <tspan x="19.625" y="120">S3 compatible API</tspan>
            </text>
        </g>
        <g id="App" transform="translate(295.000000, 22.000000)">
            <rect id="Rectangle" stroke="#979797" fill="#FFFFFF" x="0.5" y="0.5" width="123" height="94" rx="8"></rect>
            <text font-family="Helvetica" font-size="16" font-weight="normal" fill="#000000">
                <tspan x="43.765625" y="26">Apps</tspan>
            </text>
            <g id="Group" transform="translate(14.000000, 48.000000)">
                <path d="M10.8045994,2.05686681 L16.4416753,-1.2884393 L16.4458887,-1.09342976 L16.6312847,10.881421 C12.9928681,13.0821447 11.1731551,14.1755915 11.1721457,14.1617614 C11.1633262,14.0400756 11.0408108,10.0051107 10.8045994,2.05686681 Z" id="Rectangle" fill="#4285F4" transform="translate(13.717942, 6.436661) rotate(121.000000) translate(-13.717942, -6.436661) "></path>
                <polygon id="Rectangle" fill="#EDB722" transform="translate(13.711899, 24.528348) rotate(59.000000) translate(-13.711899, -24.528348) " points="11.0358922 16.7707332 16.6573867 20.1522353 16.323975 32.2859638 10.7664109 28.9466424"></polygon>
                <g id="Combined-Shape">
                    <use fill="black" fill-opacity="1" filter="url(#filter-2)" xlink:href="#path-1"></use>
                    <use fill="#DB4437" fill-rule="evenodd" xlink:href="#path-1"></use>
                </g>
                <g id="Rectangle" transform="translate(13.804436, 18.467801) rotate(121.000000) translate(-13.804436, -18.467801) ">
                    <use fill="black" fill-opacity="1" filter="url(#filter-5)" xlink:href="#path-4"></use>
                    <use fill="url(#linearGradient-3)" fill-rule="evenodd" xlink:href="#path-4"></use>
                </g>
                <g id="Combined-Shape">
                    <use fill="black" fill-opacity="1" filter="url(#filter-8)" xlink:href="#path-7"></use>
                    <use fill="url(#linearGradient-6)" fill-rule="evenodd" xlink:href="#path-7"></use>
                </g>
                <polygon id="Path-7" fill="#FFFFFF" points="8 18.5616647 8.28196626 18.40625 8.72134302 18.6756332 9.30637811 19.0158049 13 21.2632895 8 24.21875"></polygon>
                <polygon id="Path-7" fill="#FFFFFF" points="8 6.78125 9.30637811 7.57539147 13 9.72324614 8 12.59375"></polygon>
                <polygon id="Path-7" fill="#FFFFFF" transform="translate(16.500000, 15.500000) scale(-1, -1) translate(-16.500000, -15.500000) " points="14 12.59375 15.0574724 13.2013489 19 15.5 14.0783308 18.40625"></polygon>
                <path d="M19.2804708,6.600093 C19.8663316,6.0712518 20.3195864,5.8087208 20.6402354,5.8125 C20.9608844,5.81638879 21.4141393,6.08975892 22,6.63261039 L22,14.304216 C20.80647,14.5313036 19.9452858,14.5880353 19.4164473,14.474411 C18.8876088,14.3607867 18.8624418,14.1136168 19.3409461,13.7329013 L19.2804708,6.600093 Z" id="Rectangle" fill="#FFFFFF"></path>
                <path d="M18.5597252,18.1278135 C18.2748577,17.0180945 18.3352385,16.4650733 18.7408678,16.46875 C19.1464971,16.4724757 20.2328745,17.0359605 22,18.1592044 L22,25.5650524 C20.4601033,26.0414404 19.422077,26.2299227 18.8859211,26.1304994 C18.3497651,26.031076 18.0544581,25.5953439 18,24.823303 L18.5207976,24.5719196 L18.5597252,18.1278135 Z" id="Rectangle" fill="#FFFFFF"></path>
                <path d="M0,14.3530437 C0.617699714,13.8222483 1.09558701,13.5587747 1.4336619,13.5626229 C1.77173679,13.566471 2.29365243,13.8299446 2.99940884,14.3530437 L2.99940884,14.9843483 L2.99940884,15.0167192 L2.99940884,21.6896719 C3.00081122,21.7064884 2.99925835,21.791963 2.99940884,21.809564 C2.99963237,21.8357063 2.99963237,21.8735754 2.99940884,21.9231714 L2.99940884,22.1094894 L2.99940884,22.28125 L0.0637618478,21.5122092 L0,14.3530437 Z" id="Rectangle" fill="#FFFFFF"></path>
            </g>
            <text id="Bloom" font-family="Helvetica" font-size="16" font-weight="normal" fill="#000000">
                <tspan x="51.3242188" y="71">Bloom</tspan>
            </text>
        </g>
        <g id="Load-balancer" transform="translate(297.000000, 165.000000)">
            <rect id="Rectangle" stroke="#979797" fill="#FFFFFF" x="0.5" y="0.5" width="123" height="79" rx="8"></rect>
            <text id="dede" font-family="Helvetica" font-size="16" font-weight="normal" fill="#000000">
                <tspan x="35.2109375" y="22">Reverse </tspan>
                <tspan x="45.4375" y="41">proxy</tspan>
            </text>
            <text id="dede" font-family="Helvetica" font-size="16" font-weight="normal" fill="#000000">
                <tspan x="9.03125" y="75">TLS termination</tspan>
            </text>
        </g>
        <g id="Phaser-worker" transform="translate(792.000000, 469.000000)">
            <rect id="Rectangle" stroke="#979797" fill="#FFFFFF" x="0.5" y="0.5" width="169" height="128" rx="8"></rect>
            <g id="Rust_programming_language_black_logo" transform="translate(59.000000, 65.000000)" fill="#000000" fill-rule="nonzero">
                <path d="M52.6379366,25.8498173 L50.4128927,24.4724837 C50.3941566,24.2557562 50.3728885,24.0395351 50.3495949,23.8243267 L52.2616946,22.0408822 C52.4561454,21.8596008 52.5432431,21.5912233 52.4905794,21.3314541 C52.4394348,21.0706722 52.2566307,20.8559702 52.007997,20.763304 L49.5636896,19.8493014 C49.5024173,19.6376376 49.4381067,19.427493 49.372277,19.2183611 L50.8969942,17.1007107 C51.0524536,16.8855023 51.0843557,16.6054782 50.9830792,16.3598875 C50.8818027,16.1153095 50.6605137,15.9401046 50.398714,15.8970629 L47.821228,15.4777863 C47.7209643,15.2823265 47.6166495,15.0899049 47.511322,14.8990024 L48.5944738,12.5215828 C48.7053715,12.2795367 48.6825843,11.9979935 48.5347207,11.7782278 C48.3873634,11.5574493 48.1377169,11.4283243 47.8713598,11.4384517 L45.2553887,11.5295988 C45.1201847,11.3604703 44.9824487,11.192861 44.8421808,11.0282899 L45.4432566,8.48022272 C45.5040225,8.2214663 45.4275587,7.95055693 45.2391845,7.76269268 C45.0523294,7.5753348 44.7809085,7.49785979 44.5221471,7.55862451 L41.9745377,8.15918246 C41.809457,8.01942361 41.6418445,7.88118388 41.4722064,7.74598238 L41.5638616,5.13006129 C41.5739893,4.86522839 41.4448618,4.61356119 41.2240791,4.46671312 C41.00279,4.31885231 40.7227606,4.29657191 40.4812157,4.40645478 L38.1042571,5.49009224 C37.9123382,5.38476673 37.7199129,5.28045397 37.5254621,5.17968581 L37.1051647,2.60174266 C37.0626286,2.34045438 36.8874203,2.11866316 36.6423313,2.01738863 C36.3977486,1.91560772 36.1172128,1.94852195 35.9020003,2.10347198 L33.7827903,3.62816002 C33.5741608,3.5618252 33.3645185,3.49802225 33.1528507,3.43725753 L32.2388306,0.992490389 C32.1461627,0.743355046 31.9314565,0.56055452 31.6706697,0.50890451 C31.4103891,0.457760873 31.1425129,0.544350596 30.9617344,0.737784947 L29.1782559,2.65136718 C28.9630434,2.62756767 28.7463117,2.60579364 28.5300865,2.5880706 L27.1527266,0.362562815 C27.0134714,0.137226987 26.7668632,0 26.5015189,0 C26.2361746,0 25.9895664,0.137226987 25.8508176,0.362562815 L24.4734577,2.5880706 C24.2567261,2.60579364 24.0399944,2.62756767 23.8247819,2.65136718 L22.040797,0.737784947 C21.8600185,0.544350596 21.5916359,0.457760873 21.3318618,0.50890451 C21.0710749,0.561060893 20.8563688,0.743355046 20.7637008,0.992490389 L19.8496807,3.43725753 C19.6380129,3.49802225 19.4283706,3.56233157 19.2192347,3.62816002 L17.1005311,2.10347198 C16.8853186,1.94801557 16.6047828,1.91510135 16.3596937,2.01738863 C16.1151111,2.11866316 15.9393964,2.34045438 15.8968603,2.60174266 L15.4765629,5.17968581 C15.2821121,5.28045397 15.0896869,5.38426036 14.897768,5.49009224 L12.5208093,4.40645478 C12.279265,4.29606554 11.9977164,4.31885231 11.7779465,4.46671312 C11.5571638,4.61356119 11.4280363,4.86522839 11.4381639,5.13006129 L11.5293127,7.74598238 C11.360181,7.88118388 11.1925685,8.01942361 11.0269815,8.15918246 L8.479372,7.55862451 C8.22061064,7.49836616 7.94918971,7.5753348 7.76182825,7.76269268 C7.57345403,7.95055693 7.4969903,8.2214663 7.55775618,8.48022272 L8.15781923,11.0282899 C8.01856409,11.1933674 7.8808281,11.3604703 7.74562402,11.5295988 L5.12965294,11.4384517 C4.86582775,11.4308561 4.61364935,11.5574493 4.46629209,11.7782278 C4.31842845,11.9979935 4.29614763,12.2795367 4.4060326,12.5215828 L5.48969077,14.8990024 C5.38436324,15.0899049 5.28004849,15.2823265 5.1792784,15.4777863 L2.60179238,15.8970629 C2.33999272,15.9395982 2.11921002,16.1148031 2.01742718,16.3598875 C1.91615071,16.6054782 1.94906556,16.8855023 2.10351217,17.1007107 L3.62822935,19.2183611 C3.56189326,19.427493 3.49758271,19.6376376 3.43681683,19.8493014 L0.992002971,20.763304 C0.743875633,20.8559702 0.561071614,21.0706722 0.509420617,21.3314541 C0.45776962,21.5917297 0.544360998,21.8596008 0.738305427,22.0408822 L2.65091146,23.8243267 C2.62711149,24.0395351 2.60584344,24.2562625 2.58761367,24.4724837 L0.362569744,25.8498173 C0.13722961,25.9890697 0,26.2351669 0,26.5010125 C0,26.7668581 0.13722961,27.0129552 0.362569744,27.1517013 L2.58761367,28.5290349 C2.60584344,28.7457624 2.62711149,28.9619836 2.65091146,29.1771919 L0.738305427,30.9611428 C0.544360998,31.1419178 0.45776962,31.4102953 0.509420617,31.6700645 C0.561071614,31.9308464 0.743875633,32.145042 0.992002971,32.2382146 L3.43681683,33.1522172 C3.49758271,33.363881 3.56189326,33.5740256 3.62822935,33.7831575 L2.10351217,35.9013143 C1.94855918,36.1170291 1.91564433,36.3970531 2.01742718,36.6416311 C2.11921002,36.8872219 2.3404991,37.0624268 2.60229876,37.1044557 L5.1792784,37.5237323 C5.28004849,37.7191921 5.38335048,37.9116137 5.48969077,38.103529 L4.4060326,40.4799358 C4.29564125,40.7214761 4.31842845,41.0025129 4.46629209,41.2232913 C4.61415573,41.4445762 4.86582775,41.5737012 5.12965294,41.5630674 L7.74461125,41.4714139 C7.8808281,41.6415552 8.01805771,41.8081518 8.15781923,41.9737356 L7.55775618,44.5223091 C7.4969903,44.7805592 7.57345403,45.0504558 7.76182825,45.2383201 C7.94868333,45.4271971 8.22061064,45.5026466 8.479372,45.4418819 L11.0269815,44.8418303 C11.1925685,44.9826019 11.360181,45.1193225 11.5293127,45.2540176 L11.4381639,47.8704451 C11.4280363,48.135278 11.5571638,48.3864388 11.7779465,48.5342996 C11.9977164,48.6816541 12.279265,48.7039345 12.5208093,48.5935452 L14.897768,47.5104141 C15.0891805,47.6167524 15.2816058,47.7200524 15.4765629,47.8208206 L15.8968603,50.3972446 C15.9393964,50.6595456 16.1146047,50.8813368 16.3596937,50.982105 C16.6042764,51.0838859 16.8853186,51.0509717 17.1005311,50.896528 L19.2182219,49.3708272 C19.4273578,49.4371621 19.6375065,49.5019778 19.8491743,49.5627425 L20.7631944,52.0064969 C20.8558624,52.2546195 21.0705685,52.4384327 21.3313554,52.48907 C21.5916359,52.5417328 21.8595121,52.4546367 22.0402906,52.2601896 L23.8242756,50.3476201 C24.039488,50.3724323 24.2562197,50.3931936 24.4729513,50.4124358 L25.8503112,52.6374372 C25.98906,52.8617603 26.2356682,53 26.5010125,53 C26.7663568,53 27.012965,52.8622666 27.1522202,52.6374372 L28.5295801,50.4124358 C28.7463117,50.3931936 28.962537,50.3724323 29.1777495,50.3476201 L30.961228,52.2601896 C31.1420065,52.4546367 31.4103891,52.5417328 31.6701633,52.48907 C31.9309502,52.4379264 32.1456563,52.2546195 32.2383242,52.0064969 L33.1523443,49.5627425 C33.3640121,49.5019778 33.5741608,49.4371621 33.7832967,49.3708272 L35.901494,50.896528 C36.1167065,51.0509717 36.3972423,51.0838859 36.6418249,50.982105 C36.886914,50.8813368 37.0621222,50.6590393 37.1046584,50.3972446 L37.5249557,47.8208206 C37.7194065,47.7200524 37.9118318,47.6152333 38.1037507,47.5104141 L40.4807093,48.5935452 C40.7222542,48.7039345 41.0032964,48.6816541 41.2235727,48.5342996 C41.4443554,48.3864388 41.5729765,48.1357844 41.5633552,47.8704451 L41.4722064,45.2540176 C41.6413381,45.1188161 41.8089507,44.9826019 41.9740313,44.8418303 L44.5216408,45.4418819 C44.7804021,45.5026466 45.0518231,45.4271971 45.2386781,45.2383201 C45.4270524,45.0504558 45.5035161,44.7805592 45.4427502,44.5223091 L44.8426872,41.9737356 C44.9824487,41.8081518 45.1201847,41.6415552 45.2548824,41.4714139 L47.8708534,41.5630674 C48.1346786,41.5737012 48.386857,41.4445762 48.5342143,41.2232913 C48.6820779,41.0025129 48.7048651,40.7214761 48.5939674,40.4799358 L47.5108156,38.103529 C47.6166495,37.9116137 47.7204579,37.7191921 47.8207216,37.5237323 L50.3982076,37.1044557 C50.6605137,37.0624268 50.8812964,36.8872219 50.9825728,36.6416311 C51.0838493,36.3970531 51.0519472,36.1170291 50.8964878,35.9013143 L49.3717707,33.7831575 C49.4376004,33.5740256 49.5019109,33.363881 49.5631832,33.1522172 L52.0074906,32.2382146 C52.2561244,32.145042 52.4394348,31.9308464 52.490073,31.6700645 C52.5427368,31.4097889 52.455639,31.1419178 52.2611882,30.9611428 L50.3490885,29.1771919 C50.3723821,28.9619836 50.3936502,28.7452561 50.4123863,28.5290349 L52.6374303,27.1517013 C52.8627704,27.0129552 53,26.7663518 53,26.5010125 C53,26.2356732 52.8632768,25.9890697 52.6379366,25.8498173 L52.6379366,25.8498173 Z M37.7457384,44.3076071 C36.8960288,44.1243002 36.3557189,43.2867599 36.5380165,42.4345347 C36.7198078,41.5833223 37.5568578,41.0415036 38.4060609,41.2248105 C39.2557705,41.4065982 39.7970932,42.2456577 39.6147955,43.0963638 C39.4324979,43.9470698 38.5949415,44.4893949 37.7457384,44.3076071 Z M36.9897096,39.1942556 C36.2144382,39.0281654 35.4518265,39.5213724 35.2857331,40.298148 L34.4957766,43.9845414 C32.0580521,45.0909656 29.3509322,45.705702 26.4999997,45.705702 C23.5837439,45.705702 20.8178837,45.0605833 18.3366103,43.9070664 L17.5471603,40.220673 C17.3810669,39.4449101 16.6184551,38.9506904 15.8436901,39.117287 L12.5891709,39.8160813 C11.9850568,39.1942556 11.4229725,38.5319202 10.9064625,37.8326196 L26.7420505,37.8326196 C26.9213098,37.8326196 27.0408161,37.8002117 27.0408161,37.6371597 L27.0408161,32.0356655 C27.0408161,31.8726135 26.9213098,31.8402057 26.7420505,31.8402057 L22.1106778,31.8402057 L22.1106778,28.2895207 L27.1198117,28.2895207 C27.5770749,28.2895207 29.5646256,28.4201648 30.2001354,30.9606364 C30.3991436,31.7419694 30.8361516,34.2834537 31.1349172,35.0971946 C31.43267,36.0096781 32.6449492,37.8326196 33.9367305,37.8326196 L41.8276868,37.8326196 C41.9173165,37.8326196 42.0130227,37.8224921 42.1137928,37.8042627 C41.5663935,38.5481241 40.9658241,39.2519821 40.3191734,39.9097602 L36.9897096,39.1942556 L36.9897096,39.1942556 Z M15.0876613,44.2306385 C14.2379518,44.4139454 13.4014082,43.8721267 13.2186042,43.0209142 C13.0368129,42.1681827 13.5771229,41.3311487 14.4268324,41.1478418 C15.2765419,40.966054 16.1135919,41.5078728 16.2958895,42.3590852 C16.4776808,43.2097912 15.9368645,44.0483443 15.0876613,44.2306385 Z M9.08044782,19.8715818 C9.43288992,20.6670932 9.07437123,21.5993253 8.27985737,21.9512543 C7.4853435,22.304196 6.55562556,21.9451778 6.20318346,21.14916 C5.85074136,20.3531422 6.20926005,19.4224293 7.00377391,19.0694875 C7.79879416,18.7170522 8.72800573,19.075564 9.08044782,19.8715818 Z M7.23417787,24.2481606 L10.6244075,22.741702 C11.3485342,22.4201553 11.6756572,21.5714748 11.3541045,20.8458428 L10.6558032,19.2669729 L13.4019146,19.2669729 L13.4019146,31.6447458 L7.86158557,31.6447458 C7.38102875,29.9554867 7.12328014,28.1725486 7.12328014,26.3298585 C7.12328014,25.6265069 7.16125882,24.9312573 7.23417787,24.2481606 L7.23417787,24.2481606 Z M22.1116905,23.0460319 L22.1116905,19.397617 L28.6511119,19.397617 C28.9888689,19.397617 31.0361726,19.7880303 31.0361726,21.3187948 C31.0361726,22.5897902 29.465881,23.0455255 28.1746061,23.0455255 L22.1116905,23.0455255 L22.1116905,23.0460319 Z M45.8772262,26.3298585 C45.8772262,26.8139508 45.8595029,27.2929793 45.8240561,27.7684632 L43.8359991,27.7684632 C43.6369908,27.7684632 43.5569824,27.8991074 43.5569824,28.0940608 L43.5569824,29.0070507 C43.5569824,31.1560962 42.3452095,31.6234782 41.2833258,31.7424758 C40.2720798,31.8564096 39.1509493,31.3191482 39.012707,30.7003609 C38.4161886,27.3451357 37.4221601,26.6286184 35.8523749,25.3905373 C37.8004277,24.1534689 39.8274761,22.3285019 39.8274761,19.8857602 C39.8274761,17.2480651 38.0191848,15.5866565 36.7866503,14.7719029 C35.0573546,13.632058 33.1427231,13.403684 32.6262131,13.403684 L12.0655716,13.403684 C14.8537127,10.2920241 18.6323376,8.08778392 22.9062044,7.28568965 L25.3297502,9.82818671 C25.8776559,10.4019069 26.785093,10.4231746 27.3583178,9.87477299 L30.0699951,7.28113229 C35.7521112,8.33894475 40.5627432,11.8759577 43.335187,16.7285268 L41.4787894,20.9212923 C41.1582494,21.6469243 41.4853723,22.4956049 42.2089927,22.8171515 L45.7830391,24.4046297 C45.8448178,25.0391147 45.8772262,25.6801824 45.8772262,26.3298585 Z M25.330763,5.12297207 C25.958677,4.52140137 26.9547311,4.54520088 27.5558069,5.17411571 C28.1558699,5.80454966 28.1330827,6.8015974 27.5036495,7.40266173 C26.8757354,8.00423243 25.8796814,7.98093929 25.2786056,7.35101172 C24.6790489,6.72159052 24.7018361,5.72454278 25.330763,5.12297207 L25.330763,5.12297207 Z M43.7529524,19.9480441 C44.1048881,19.1525326 45.0346061,18.7935144 45.8291199,19.1464562 C46.6236338,19.4988915 46.9821525,20.4306172 46.6297104,21.2261286 C46.2777747,22.0221464 45.3480567,22.3811646 44.5530365,22.0282229 C43.7595354,21.6757875 43.4010167,20.7445682 43.7529524,19.9480441 L43.7529524,19.9480441 Z" id="path3"></path>
            </g>
            <text id="dede" font-family="Helvetica" font-size="16" font-weight="normal" fill="#000000">
                <tspan x="59.6523438" y="24">Phaser </tspan>
                <tspan x="59.3632812" y="43">Worker</tspan>
            </text>
            <g id="logo" transform="translate(10.000000, 46.000000)" fill="#2D313C">
                <g id="Group" transform="translate(24.000000, 20.500000) scale(-1, 1) rotate(-180.000000) translate(-24.000000, -20.500000) ">
                    <path d="M19.1037036,40.6805017 C13.3190439,39.8752425 7.19411004,36.7735033 3.97697308,33.0156271 C2.86334875,31.7033528 1.13104424,28.840209 1.3475823,28.6314381 C1.40945032,28.5717893 2.39933862,28.8998579 3.54389696,29.3472241 C5.0287294,29.913888 5.80207963,30.420903 6.20422175,31.0472157 C7.10130801,32.4787876 9.85443483,34.7454431 11.5867393,35.4910535 C16.0412367,37.4594649 21.0525462,36.8331522 25.2286374,33.731413 C26.0329216,33.1349247 27.0228099,32.6577341 27.424952,32.6577341 C28.2292363,32.6577341 28.2911043,32.9858027 28.6313784,38.2050753 L28.7860484,40.6506773 L27.8270942,40.8296237 C26.5278658,41.0682191 21.3309522,40.9787458 19.1037036,40.6805017 Z" id="Shape" fill-rule="nonzero"></path>
                    <path d="M29.5593987,37.5489381 C29.4356626,35.9085953 29.3119266,30.0331856 29.3119266,24.4560201 C29.3119266,18.8788545 29.4356626,13.0034448 29.5593987,11.363102 L29.8068708,8.44030936 L31.0442311,8.58943144 C31.7247793,8.67890468 32.4671955,8.9175 32.6527996,9.09644649 C33.1477437,9.57363712 33.1477437,39.338403 32.6527996,39.8155936 C32.4671955,39.9945401 31.7247793,40.2331355 31.0442311,40.3226087 L29.8068708,40.4717308 L29.5593987,37.5489381 Z" id="Shape" fill-rule="nonzero"></path>
                    <path d="M33.4570838,23.949005 L33.4570838,20.9665635 L35.8178372,21.6895797 C37.0796191,22.0812134 38.5449143,22.4125958 39.033346,22.4125958 C40.8242623,22.4125958 41.1905861,22.7138525 41.1905861,24.0996334 C41.1905861,25.3950372 41.1498835,25.4251629 39.8881015,25.4251629 C39.1554539,25.4251629 36.7241458,26.0126805 35.3809585,26.4043142 C34.0377713,26.8260736 33.6198944,26.9314465 33.5791918,26.9314465 C33.4977865,26.9314465 33.4570838,25.6059169 33.4570838,23.949005 Z" id="Combined-Shape" fill-rule="nonzero"></path>
                    <path d="M35.7462005,30.7743809 C35.6224645,29.9190812 35.4987284,26.8570243 35.4987284,23.949005 C35.4987284,21.0409857 35.6224645,17.9774574 35.7462005,17.1221576 L35.9936726,15.5981689 L37.231033,15.6759234 C37.9115812,15.7225761 38.6539974,15.8469834 38.8396014,15.9402888 C39.3345456,16.1891033 39.3345456,31.7089067 38.8396014,31.9577212 C38.6539974,32.0510267 37.9115812,32.1754339 37.231033,32.2220866 L35.9936726,32.2998411" id="Shape"></path>
                    <path d="M13.0406378,35.0138629 C10.7515211,34.2384281 8.64800847,32.6875585 7.34878009,30.8384448 C6.85027886,30.1097627 5.13718968,27.4350461 5.17604277,24.4560201 C5.21193039,21.7043685 6.96382101,18.630913 7.37971409,18.0437709 C11.3392673,12.585903 19.3511756,11.6613462 24.7027592,16.1051839 C25.6617135,16.8806187 26.2494597,17.1490385 27.0846779,17.1490385 L28.1983023,17.1490385 L28.1983023,24.4560201 L28.1983023,31.7630017 L26.9918759,31.7630017 C26.2803937,31.7630017 25.6307795,31.9419482 25.3833074,32.2401923 C24.6099572,33.1349247 22.3208405,34.4770234 20.557602,35.0735117 C18.3303533,35.7892977 15.2988204,35.7892977 13.0406378,35.0138629 Z M18.6087594,33.8507107 C20.8978761,33.4331689 22.7539167,32.4489632 24.2078151,30.9577425 C29.4356626,25.4998746 26.6825358,16.970092 19.1037036,15.1508027 C14.6801403,14.1069482 10.1947089,16.1648328 8.02932829,20.2507776 C7.19411004,21.8314716 7.070374,22.368311 7.03943999,24.4560201 C7.03943999,26.4840803 7.16317603,27.110393 7.90559225,28.4823161 C9.4213587,31.3752843 11.8651454,33.2542224 14.9585463,33.8208863 C16.8145869,34.1787793 16.7836529,34.1787793 18.6087594,33.8507107 Z" id="Shape" fill-rule="nonzero"></path>
                    <path d="M15.9793686,27.8560033 C14.8348103,26.1858361 13.844922,24.664791 13.783054,24.4560201 C13.690252,24.2472492 14.1542621,24.0086538 14.9894804,23.8297074 L16.3505768,23.5612876 L15.7009626,20.6683194 C15.2988204,19.057801 15.0204144,17.7455268 15.0822824,17.7455268 C15.1750844,17.7455268 19.8461198,24.813913 19.8461198,24.9928595 C19.8461198,25.0525084 19.3202416,25.2314548 18.7015615,25.3507525 C18.0519473,25.4700502 17.4332671,25.6191722 17.3404651,25.6788211 C17.216729,25.7384699 17.4023331,26.8717977 17.7116732,28.2138963 C18.0519473,29.555995 18.2684853,30.7191472 18.1756833,30.778796 C18.1138153,30.8682692 17.123927,29.555995 15.9793686,27.8560033 Z" id="Shape" fill-rule="nonzero" transform="translate(16.808732, 24.264320) scale(1, -1) translate(-16.808732, -24.264320) "></path>
                    <path d="M43.2360186,27.0805686 C41.6893181,26.3051338 41.0706379,24.5753177 41.8130542,23.0542726 C43.0194805,20.638495 46.6387596,20.7279682 47.7214499,23.2332191 C48.2473281,24.4560201 47.999856,25.5595234 46.9790337,26.5139047 C45.8654094,27.5577592 44.597115,27.7367057 43.2360186,27.0805686 Z" id="Shape" fill-rule="nonzero"></path>
                    <path d="M4.99779539,18.6104348 C4.99779539,18.3718395 4.53378525,18.3121906 3.60576497,18.4016639 C2.83241474,18.4911371 2.21373456,18.4613127 2.21373456,18.3420151 C2.21373456,17.7455268 4.96686138,14.6437876 6.7300999,13.2718645 C10.1947089,10.5578428 11.4011353,6.6806689 9.97817087,2.74384615 L9.35949068,1.04385452 L10.1019069,0.56666388 C10.6277851,0.238595318 11.6486074,0.0596488294 13.1025058,0.0298244147 L15.3606885,0 L15.4225565,1.8192893 C15.4844245,4.17541806 15.9484346,5.6666388 17.000191,7.15785953 C17.8972772,8.41048495 17.9591452,8.41048495 20.402932,8.02276756 C21.1453482,7.9034699 21.3928203,7.72452341 21.3928203,7.24733278 C21.3928203,6.91926421 21.5474903,6.11400502 21.7640284,5.48769231 C22.0424344,4.56313545 22.1971045,4.38418896 22.5373786,4.6526087 C22.8467187,4.92102843 22.9085867,5.39821906 22.7539167,6.44207358 L22.5373786,7.9034699 L24.9811653,7.9034699 C26.3422617,7.9034699 27.7342921,7.99294314 28.1055002,8.08241639 C28.8788505,8.29118729 28.8788505,8.23153846 28.3220383,14.4350167 L28.1364343,16.3139548 L27.208414,16.1350084 C26.6825358,16.0455351 25.5998455,15.4788712 24.7955613,14.9122074 C19.3202416,11.0350334 12.6694297,11.4227508 7.93652626,15.896413 C7.13224202,16.6718478 6.29702377,17.6560535 6.0495517,18.1332441 C5.58554156,18.9385033 4.99779539,19.2367475 4.99779539,18.6104348 Z" id="Shape" fill-rule="nonzero"></path>
                    <path d="M6.26466887,19.1952077 C5.30353037,20.8309118 5.14949271,20.8389846 4.57437573,22.3192918 C4.39527245,22.78029 4.10887591,23.4856181 3.96303873,24.4555336 C3.81720155,25.4254491 3.8670412,25.1868717 3.83383088,26.0421655 C3.7618092,27.8970018 4.39546536,28.8575239 5.20200524,30.6617368 C5.29540909,30.8706793 6.15858068,32.3122108 7.01766575,33.563244 C7.10561476,33.6913188 6.64772081,33.3965386 5.6439839,32.6789033 C4.99321733,32.7675429 4.54016285,32.8359416 4.28482047,32.8840992 C4.02947809,32.9322569 3.57175719,33.0235422 2.91165777,33.1579553 C2.7601518,33.031301 2.49191264,32.6081747 2.1069403,31.8885766 C1.19935716,30.1921039 0.658499633,27.6165573 0.561255497,26.5001337 C0.460664744,25.3452888 1.00032523,21.7098853 1.42249772,21.5918277 C1.4974038,21.5708807 1.57731553,21.4515016 1.66223293,21.2336903 C1.84748291,21.4028266 1.98571718,21.4505591 2.07693573,21.3768876 C2.29430953,21.2013285 2.50490935,21.0314695 2.70873865,20.8673725 C7.26668961,17.1978985 8.27482946,15.7742355 6.26466887,19.1952077 Z" id="Path-2" transform="translate(3.899464, 25.420590) scale(-1, 1) rotate(-177.000000) translate(-3.899464, -25.420590) "></path>
                </g>
            </g>
        </g>
        <g id="Bitflow-worker" transform="translate(792.000000, 274.000000)">
            <rect id="Rectangle" stroke="#979797" fill="#FFFFFF" x="0.5" y="0.5" width="169" height="128" rx="8"></rect>
            <g id="Rust_programming_language_black_logo" transform="translate(59.000000, 65.000000)" fill="#000000" fill-rule="nonzero">
                <path d="M52.6379366,25.8498173 L50.4128927,24.4724837 C50.3941566,24.2557562 50.3728885,24.0395351 50.3495949,23.8243267 L52.2616946,22.0408822 C52.4561454,21.8596008 52.5432431,21.5912233 52.4905794,21.3314541 C52.4394348,21.0706722 52.2566307,20.8559702 52.007997,20.763304 L49.5636896,19.8493014 C49.5024173,19.6376376 49.4381067,19.427493 49.372277,19.2183611 L50.8969942,17.1007107 C51.0524536,16.8855023 51.0843557,16.6054782 50.9830792,16.3598875 C50.8818027,16.1153095 50.6605137,15.9401046 50.398714,15.8970629 L47.821228,15.4777863 C47.7209643,15.2823265 47.6166495,15.0899049 47.511322,14.8990024 L48.5944738,12.5215828 C48.7053715,12.2795367 48.6825843,11.9979935 48.5347207,11.7782278 C48.3873634,11.5574493 48.1377169,11.4283243 47.8713598,11.4384517 L45.2553887,11.5295988 C45.1201847,11.3604703 44.9824487,11.192861 44.8421808,11.0282899 L45.4432566,8.48022272 C45.5040225,8.2214663 45.4275587,7.95055693 45.2391845,7.76269268 C45.0523294,7.5753348 44.7809085,7.49785979 44.5221471,7.55862451 L41.9745377,8.15918246 C41.809457,8.01942361 41.6418445,7.88118388 41.4722064,7.74598238 L41.5638616,5.13006129 C41.5739893,4.86522839 41.4448618,4.61356119 41.2240791,4.46671312 C41.00279,4.31885231 40.7227606,4.29657191 40.4812157,4.40645478 L38.1042571,5.49009224 C37.9123382,5.38476673 37.7199129,5.28045397 37.5254621,5.17968581 L37.1051647,2.60174266 C37.0626286,2.34045438 36.8874203,2.11866316 36.6423313,2.01738863 C36.3977486,1.91560772 36.1172128,1.94852195 35.9020003,2.10347198 L33.7827903,3.62816002 C33.5741608,3.5618252 33.3645185,3.49802225 33.1528507,3.43725753 L32.2388306,0.992490389 C32.1461627,0.743355046 31.9314565,0.56055452 31.6706697,0.50890451 C31.4103891,0.457760873 31.1425129,0.544350596 30.9617344,0.737784947 L29.1782559,2.65136718 C28.9630434,2.62756767 28.7463117,2.60579364 28.5300865,2.5880706 L27.1527266,0.362562815 C27.0134714,0.137226987 26.7668632,0 26.5015189,0 C26.2361746,0 25.9895664,0.137226987 25.8508176,0.362562815 L24.4734577,2.5880706 C24.2567261,2.60579364 24.0399944,2.62756767 23.8247819,2.65136718 L22.040797,0.737784947 C21.8600185,0.544350596 21.5916359,0.457760873 21.3318618,0.50890451 C21.0710749,0.561060893 20.8563688,0.743355046 20.7637008,0.992490389 L19.8496807,3.43725753 C19.6380129,3.49802225 19.4283706,3.56233157 19.2192347,3.62816002 L17.1005311,2.10347198 C16.8853186,1.94801557 16.6047828,1.91510135 16.3596937,2.01738863 C16.1151111,2.11866316 15.9393964,2.34045438 15.8968603,2.60174266 L15.4765629,5.17968581 C15.2821121,5.28045397 15.0896869,5.38426036 14.897768,5.49009224 L12.5208093,4.40645478 C12.279265,4.29606554 11.9977164,4.31885231 11.7779465,4.46671312 C11.5571638,4.61356119 11.4280363,4.86522839 11.4381639,5.13006129 L11.5293127,7.74598238 C11.360181,7.88118388 11.1925685,8.01942361 11.0269815,8.15918246 L8.479372,7.55862451 C8.22061064,7.49836616 7.94918971,7.5753348 7.76182825,7.76269268 C7.57345403,7.95055693 7.4969903,8.2214663 7.55775618,8.48022272 L8.15781923,11.0282899 C8.01856409,11.1933674 7.8808281,11.3604703 7.74562402,11.5295988 L5.12965294,11.4384517 C4.86582775,11.4308561 4.61364935,11.5574493 4.46629209,11.7782278 C4.31842845,11.9979935 4.29614763,12.2795367 4.4060326,12.5215828 L5.48969077,14.8990024 C5.38436324,15.0899049 5.28004849,15.2823265 5.1792784,15.4777863 L2.60179238,15.8970629 C2.33999272,15.9395982 2.11921002,16.1148031 2.01742718,16.3598875 C1.91615071,16.6054782 1.94906556,16.8855023 2.10351217,17.1007107 L3.62822935,19.2183611 C3.56189326,19.427493 3.49758271,19.6376376 3.43681683,19.8493014 L0.992002971,20.763304 C0.743875633,20.8559702 0.561071614,21.0706722 0.509420617,21.3314541 C0.45776962,21.5917297 0.544360998,21.8596008 0.738305427,22.0408822 L2.65091146,23.8243267 C2.62711149,24.0395351 2.60584344,24.2562625 2.58761367,24.4724837 L0.362569744,25.8498173 C0.13722961,25.9890697 0,26.2351669 0,26.5010125 C0,26.7668581 0.13722961,27.0129552 0.362569744,27.1517013 L2.58761367,28.5290349 C2.60584344,28.7457624 2.62711149,28.9619836 2.65091146,29.1771919 L0.738305427,30.9611428 C0.544360998,31.1419178 0.45776962,31.4102953 0.509420617,31.6700645 C0.561071614,31.9308464 0.743875633,32.145042 0.992002971,32.2382146 L3.43681683,33.1522172 C3.49758271,33.363881 3.56189326,33.5740256 3.62822935,33.7831575 L2.10351217,35.9013143 C1.94855918,36.1170291 1.91564433,36.3970531 2.01742718,36.6416311 C2.11921002,36.8872219 2.3404991,37.0624268 2.60229876,37.1044557 L5.1792784,37.5237323 C5.28004849,37.7191921 5.38335048,37.9116137 5.48969077,38.103529 L4.4060326,40.4799358 C4.29564125,40.7214761 4.31842845,41.0025129 4.46629209,41.2232913 C4.61415573,41.4445762 4.86582775,41.5737012 5.12965294,41.5630674 L7.74461125,41.4714139 C7.8808281,41.6415552 8.01805771,41.8081518 8.15781923,41.9737356 L7.55775618,44.5223091 C7.4969903,44.7805592 7.57345403,45.0504558 7.76182825,45.2383201 C7.94868333,45.4271971 8.22061064,45.5026466 8.479372,45.4418819 L11.0269815,44.8418303 C11.1925685,44.9826019 11.360181,45.1193225 11.5293127,45.2540176 L11.4381639,47.8704451 C11.4280363,48.135278 11.5571638,48.3864388 11.7779465,48.5342996 C11.9977164,48.6816541 12.279265,48.7039345 12.5208093,48.5935452 L14.897768,47.5104141 C15.0891805,47.6167524 15.2816058,47.7200524 15.4765629,47.8208206 L15.8968603,50.3972446 C15.9393964,50.6595456 16.1146047,50.8813368 16.3596937,50.982105 C16.6042764,51.0838859 16.8853186,51.0509717 17.1005311,50.896528 L19.2182219,49.3708272 C19.4273578,49.4371621 19.6375065,49.5019778 19.8491743,49.5627425 L20.7631944,52.0064969 C20.8558624,52.2546195 21.0705685,52.4384327 21.3313554,52.48907 C21.5916359,52.5417328 21.8595121,52.4546367 22.0402906,52.2601896 L23.8242756,50.3476201 C24.039488,50.3724323 24.2562197,50.3931936 24.4729513,50.4124358 L25.8503112,52.6374372 C25.98906,52.8617603 26.2356682,53 26.5010125,53 C26.7663568,53 27.012965,52.8622666 27.1522202,52.6374372 L28.5295801,50.4124358 C28.7463117,50.3931936 28.962537,50.3724323 29.1777495,50.3476201 L30.961228,52.2601896 C31.1420065,52.4546367 31.4103891,52.5417328 31.6701633,52.48907 C31.9309502,52.4379264 32.1456563,52.2546195 32.2383242,52.0064969 L33.1523443,49.5627425 C33.3640121,49.5019778 33.5741608,49.4371621 33.7832967,49.3708272 L35.901494,50.896528 C36.1167065,51.0509717 36.3972423,51.0838859 36.6418249,50.982105 C36.886914,50.8813368 37.0621222,50.6590393 37.1046584,50.3972446 L37.5249557,47.8208206 C37.7194065,47.7200524 37.9118318,47.6152333 38.1037507,47.5104141 L40.4807093,48.5935452 C40.7222542,48.7039345 41.0032964,48.6816541 41.2235727,48.5342996 C41.4443554,48.3864388 41.5729765,48.1357844 41.5633552,47.8704451 L41.4722064,45.2540176 C41.6413381,45.1188161 41.8089507,44.9826019 41.9740313,44.8418303 L44.5216408,45.4418819 C44.7804021,45.5026466 45.0518231,45.4271971 45.2386781,45.2383201 C45.4270524,45.0504558 45.5035161,44.7805592 45.4427502,44.5223091 L44.8426872,41.9737356 C44.9824487,41.8081518 45.1201847,41.6415552 45.2548824,41.4714139 L47.8708534,41.5630674 C48.1346786,41.5737012 48.386857,41.4445762 48.5342143,41.2232913 C48.6820779,41.0025129 48.7048651,40.7214761 48.5939674,40.4799358 L47.5108156,38.103529 C47.6166495,37.9116137 47.7204579,37.7191921 47.8207216,37.5237323 L50.3982076,37.1044557 C50.6605137,37.0624268 50.8812964,36.8872219 50.9825728,36.6416311 C51.0838493,36.3970531 51.0519472,36.1170291 50.8964878,35.9013143 L49.3717707,33.7831575 C49.4376004,33.5740256 49.5019109,33.363881 49.5631832,33.1522172 L52.0074906,32.2382146 C52.2561244,32.145042 52.4394348,31.9308464 52.490073,31.6700645 C52.5427368,31.4097889 52.455639,31.1419178 52.2611882,30.9611428 L50.3490885,29.1771919 C50.3723821,28.9619836 50.3936502,28.7452561 50.4123863,28.5290349 L52.6374303,27.1517013 C52.8627704,27.0129552 53,26.7663518 53,26.5010125 C53,26.2356732 52.8632768,25.9890697 52.6379366,25.8498173 L52.6379366,25.8498173 Z M37.7457384,44.3076071 C36.8960288,44.1243002 36.3557189,43.2867599 36.5380165,42.4345347 C36.7198078,41.5833223 37.5568578,41.0415036 38.4060609,41.2248105 C39.2557705,41.4065982 39.7970932,42.2456577 39.6147955,43.0963638 C39.4324979,43.9470698 38.5949415,44.4893949 37.7457384,44.3076071 Z M36.9897096,39.1942556 C36.2144382,39.0281654 35.4518265,39.5213724 35.2857331,40.298148 L34.4957766,43.9845414 C32.0580521,45.0909656 29.3509322,45.705702 26.4999997,45.705702 C23.5837439,45.705702 20.8178837,45.0605833 18.3366103,43.9070664 L17.5471603,40.220673 C17.3810669,39.4449101 16.6184551,38.9506904 15.8436901,39.117287 L12.5891709,39.8160813 C11.9850568,39.1942556 11.4229725,38.5319202 10.9064625,37.8326196 L26.7420505,37.8326196 C26.9213098,37.8326196 27.0408161,37.8002117 27.0408161,37.6371597 L27.0408161,32.0356655 C27.0408161,31.8726135 26.9213098,31.8402057 26.7420505,31.8402057 L22.1106778,31.8402057 L22.1106778,28.2895207 L27.1198117,28.2895207 C27.5770749,28.2895207 29.5646256,28.4201648 30.2001354,30.9606364 C30.3991436,31.7419694 30.8361516,34.2834537 31.1349172,35.0971946 C31.43267,36.0096781 32.6449492,37.8326196 33.9367305,37.8326196 L41.8276868,37.8326196 C41.9173165,37.8326196 42.0130227,37.8224921 42.1137928,37.8042627 C41.5663935,38.5481241 40.9658241,39.2519821 40.3191734,39.9097602 L36.9897096,39.1942556 L36.9897096,39.1942556 Z M15.0876613,44.2306385 C14.2379518,44.4139454 13.4014082,43.8721267 13.2186042,43.0209142 C13.0368129,42.1681827 13.5771229,41.3311487 14.4268324,41.1478418 C15.2765419,40.966054 16.1135919,41.5078728 16.2958895,42.3590852 C16.4776808,43.2097912 15.9368645,44.0483443 15.0876613,44.2306385 Z M9.08044782,19.8715818 C9.43288992,20.6670932 9.07437123,21.5993253 8.27985737,21.9512543 C7.4853435,22.304196 6.55562556,21.9451778 6.20318346,21.14916 C5.85074136,20.3531422 6.20926005,19.4224293 7.00377391,19.0694875 C7.79879416,18.7170522 8.72800573,19.075564 9.08044782,19.8715818 Z M7.23417787,24.2481606 L10.6244075,22.741702 C11.3485342,22.4201553 11.6756572,21.5714748 11.3541045,20.8458428 L10.6558032,19.2669729 L13.4019146,19.2669729 L13.4019146,31.6447458 L7.86158557,31.6447458 C7.38102875,29.9554867 7.12328014,28.1725486 7.12328014,26.3298585 C7.12328014,25.6265069 7.16125882,24.9312573 7.23417787,24.2481606 L7.23417787,24.2481606 Z M22.1116905,23.0460319 L22.1116905,19.397617 L28.6511119,19.397617 C28.9888689,19.397617 31.0361726,19.7880303 31.0361726,21.3187948 C31.0361726,22.5897902 29.465881,23.0455255 28.1746061,23.0455255 L22.1116905,23.0455255 L22.1116905,23.0460319 Z M45.8772262,26.3298585 C45.8772262,26.8139508 45.8595029,27.2929793 45.8240561,27.7684632 L43.8359991,27.7684632 C43.6369908,27.7684632 43.5569824,27.8991074 43.5569824,28.0940608 L43.5569824,29.0070507 C43.5569824,31.1560962 42.3452095,31.6234782 41.2833258,31.7424758 C40.2720798,31.8564096 39.1509493,31.3191482 39.012707,30.7003609 C38.4161886,27.3451357 37.4221601,26.6286184 35.8523749,25.3905373 C37.8004277,24.1534689 39.8274761,22.3285019 39.8274761,19.8857602 C39.8274761,17.2480651 38.0191848,15.5866565 36.7866503,14.7719029 C35.0573546,13.632058 33.1427231,13.403684 32.6262131,13.403684 L12.0655716,13.403684 C14.8537127,10.2920241 18.6323376,8.08778392 22.9062044,7.28568965 L25.3297502,9.82818671 C25.8776559,10.4019069 26.785093,10.4231746 27.3583178,9.87477299 L30.0699951,7.28113229 C35.7521112,8.33894475 40.5627432,11.8759577 43.335187,16.7285268 L41.4787894,20.9212923 C41.1582494,21.6469243 41.4853723,22.4956049 42.2089927,22.8171515 L45.7830391,24.4046297 C45.8448178,25.0391147 45.8772262,25.6801824 45.8772262,26.3298585 Z M25.330763,5.12297207 C25.958677,4.52140137 26.9547311,4.54520088 27.5558069,5.17411571 C28.1558699,5.80454966 28.1330827,6.8015974 27.5036495,7.40266173 C26.8757354,8.00423243 25.8796814,7.98093929 25.2786056,7.35101172 C24.6790489,6.72159052 24.7018361,5.72454278 25.330763,5.12297207 L25.330763,5.12297207 Z M43.7529524,19.9480441 C44.1048881,19.1525326 45.0346061,18.7935144 45.8291199,19.1464562 C46.6236338,19.4988915 46.9821525,20.4306172 46.6297104,21.2261286 C46.2777747,22.0221464 45.3480567,22.3811646 44.5530365,22.0282229 C43.7595354,21.6757875 43.4010167,20.7445682 43.7529524,19.9480441 L43.7529524,19.9480441 Z" id="path3"></path>
            </g>
            <text id="dede" font-family="Helvetica" font-size="16" font-weight="normal" fill="#000000">
                <tspan x="61.4375" y="24">Bitflow </tspan>
                <tspan x="59.3632812" y="43">Worker</tspan>
            </text>
            <g id="cloud-outline" transform="translate(7.000000, 12.000000)">
                <path d="M38,28 L12,28 C7.581722,28 4,24.418278 4,20 C4,15.581722 7.581722,12 12,12 L13.42,12 C14.74,7.38 19,4 24,4 C30.0751322,4 35,8.92486775 35,15 L35,16 L38,16 C41.3137085,16 44,18.6862915 44,22 C44,25.3137085 41.3137085,28 38,28 L38,28 Z M38.7,12.06 C37.34,5.18 31.28,0 24,0 C18.22,0 13.2,3.28 10.7,8.06 C4.68,8.72 0,13.8 0,20 C0,26.627417 5.372583,32 12,32 L38,32 C40.6521649,32 43.195704,30.9464316 45.0710678,29.0710678 C46.9464316,27.195704 48,24.6521649 48,22 C48,16.72 43.9,12.44 38.7,12.06 Z" id="Shape" fill="#5FCDFF" fill-rule="nonzero"></path>
                <g id="arrow-down-bold" transform="translate(20.000000, 13.000000)">
                    <polygon id="Path" fill="#FFE15F" points="2.46938776 3.32142857 5.53061224 3.32142857 5.53061224 7.6504329 8 7.6504329 4 11.8928571 0 7.6504329 2.46938776 7.6504329"></polygon>
                    <rect id="Rectangle" fill="#FEE98F" x="4.51282051" y="2.25" width="1.02564103" height="1.07142857"></rect>
                    <rect id="Rectangle" fill="#FEE98F" x="2.46153846" y="2.25" width="1.02564103" height="1.07142857"></rect>
                    <rect id="Rectangle" fill="#FFE15F" x="2.46153846" y="3.32142857" width="1.02564103" height="1.07142857"></rect>
                    <rect id="Rectangle" fill="#FCF4D2" x="2.46153846" y="0.107142857" width="1.02564103" height="1.07142857"></rect>
                    <rect id="Rectangle" fill="#FFE15F" x="3.48717949" y="3.32142857" width="1.02564103" height="1.07142857"></rect>
                    <rect id="Rectangle" fill="#FFF1B7" x="3.48717949" y="1.17857143" width="1.02564103" height="1.07142857"></rect>
                    <rect id="Rectangle" fill="#FFF1B7" x="2.46153846" y="1.17857143" width="1.02564103" height="1.07142857"></rect>
                    <rect id="Rectangle" fill="#FFE15F" x="4.51282051" y="3.32142857" width="1.02564103" height="1.07142857"></rect>
                    <rect id="Rectangle" fill="#FEE98F" x="3.48717949" y="2.25" width="1.02564103" height="1.07142857"></rect>
                </g>
            </g>
        </g>
        <g id="Bloom" transform="translate(186.000000, 278.000000)">
            <rect id="Rectangle" stroke="#979797" fill="#FFFFFF" x="0.5" y="0.5" width="345" height="190" rx="8"></rect>
            <g id="Rust_programming_language_black_logo" transform="translate(131.000000, 36.000000)" fill="#000000" fill-rule="nonzero">
                <path d="M79.4534893,39.0185921 L76.0949324,36.939598 C76.0666514,36.6124621 76.0345487,36.2860906 75.9993886,35.9612478 L78.8855767,33.2692562 C79.1790874,32.9956239 79.3105557,32.5905257 79.2310632,32.1984213 C79.1538638,31.8047883 78.8779332,31.4807098 78.502637,31.3408363 L74.8131163,29.9612097 C74.7206299,29.6417172 74.6235573,29.3245177 74.5241918,29.0088469 L76.8256516,25.8123935 C77.0603073,25.4875506 77.1084614,25.0648728 76.9555913,24.6941698 C76.8027211,24.3249955 76.4686999,24.0605352 76.0735306,23.9955666 L72.1829856,23.3626964 C72.0316442,23.0676626 71.874188,22.7772149 71.715203,22.4890602 L73.3501491,18.9005024 C73.5175419,18.5351497 73.4831461,18.1101789 73.2599557,17.778457 C73.0375297,17.4452065 72.6607048,17.2503008 72.2586563,17.2655875 L68.3100207,17.403168 C68.1059391,17.1478798 67.8980357,16.8948845 67.6863106,16.6464753 L68.5935949,12.8003362 C68.6853169,12.4097605 68.5699,12.0008407 68.2855615,11.717272 C68.0035161,11.4344676 67.5938242,11.3175242 67.203241,11.4092445 L63.3577927,12.3157471 C63.1086144,12.1047904 62.8556143,11.8961266 62.5995568,11.6920489 L62.7379043,7.74348874 C62.7531913,7.34374097 62.5582819,6.96386595 62.225025,6.74220848 C61.8910038,6.51902235 61.4683178,6.48539156 61.1037218,6.65125249 L57.5158597,8.28693168 C57.2261708,8.12794978 56.9357176,7.97049655 56.6422069,7.81839367 L56.0077958,3.92715873 C55.9435904,3.53276132 55.6791251,3.19798212 55.3091793,3.04511491 C54.9399979,2.89148336 54.5165477,2.9411652 54.1916986,3.17505204 L50.9928911,5.47646795 C50.6779786,5.37633993 50.3615374,5.28003358 50.0420388,5.18831325 L48.6623858,1.4980987 C48.5225097,1.12204535 48.198425,0.846120031 47.8047844,0.768157752 C47.4119081,0.690959808 47.0075666,0.821661277 46.7346934,1.11363766 L44.0426503,4.00206367 C43.7178013,3.96613987 43.3906592,3.93327342 43.0642815,3.90652166 L40.9852476,0.547264627 C40.7750512,0.207135075 40.4028124,0 40.0022927,0 C39.6017729,0 39.2295341,0.207135075 39.0201021,0.547264627 L36.9410682,3.90652166 C36.6139261,3.93327342 36.286784,3.96613987 35.961935,4.00206367 L33.2691276,1.11363766 C32.9962544,0.821661277 32.5911485,0.690959808 32.1990366,0.768157752 C31.805396,0.846884367 31.4813113,1.12204535 31.3414352,1.4980987 L29.9617822,5.18831325 C29.6422836,5.28003358 29.3258424,5.37710426 29.0101656,5.47646795 L25.8121224,3.17505204 C25.4872733,2.94040087 25.063823,2.89071902 24.6938773,3.04511491 C24.3246959,3.19798212 24.0594663,3.53276132 23.9952608,3.92715873 L23.3608497,7.81839367 C23.0673391,7.97049655 22.7768858,8.12718545 22.4871969,8.28693168 L18.8993348,6.65125249 C18.5347396,6.48462723 18.1097606,6.51902235 17.7780324,6.74220848 C17.4447755,6.96386595 17.2498661,7.34374097 17.2651531,7.74348874 L17.4027362,11.6920489 C17.1474431,11.8961266 16.894443,12.1047904 16.6445003,12.3157471 L12.7990521,11.4092445 C12.4084689,11.3182885 11.9987769,11.4344676 11.7159672,11.717272 C11.4316287,12.0008407 11.3162118,12.4097605 11.4079339,12.8003362 L12.3136894,16.6464753 C12.103493,16.8956489 11.8955896,17.1478798 11.691508,17.403168 L7.74287236,17.2655875 C7.34464565,17.2541225 6.96399902,17.4452065 6.74157297,17.778457 C6.51838257,18.1101789 6.48475114,18.5351497 6.65061524,18.9005024 L8.28632569,22.4890602 C8.12734075,22.7772149 7.96988451,23.0676626 7.81777872,23.3626964 L3.92723378,23.9955666 C3.53206448,24.0597709 3.19880758,24.3242311 3.0451731,24.6941698 C2.89230296,25.0648728 2.94198575,25.4875506 3.17511271,25.8123935 L5.4765726,29.0088469 C5.37644266,29.3245177 5.27937012,29.6417172 5.18764804,29.9612097 L1.49736298,31.3408363 C1.12283114,31.4807098 0.84690055,31.8047883 0.768936781,32.1984213 C0.690973012,32.5912901 0.821676978,32.9956239 1.11442329,33.2692562 L4.00137579,35.9612478 C3.96545131,36.2860906 3.93334858,36.6132265 3.90583196,36.939598 L0.547275085,39.0185921 C0.207139033,39.2287845 0,39.6002519 0,40.0015283 C0,40.4028047 0.207139033,40.7742721 0.547275085,40.9837001 L3.90583196,43.0626943 C3.93334858,43.3898301 3.96545131,43.7162016 4.00137579,44.0410444 L1.11442329,46.7338004 C0.821676978,47.0066684 0.690973012,47.4117665 0.768936781,47.8038709 C0.84690055,48.197504 1.12283114,48.5208181 1.49736298,48.661456 L5.18764804,50.0410826 C5.27937012,50.3605751 5.37644266,50.6777745 5.4765726,50.9934453 L3.17511271,54.1906631 C2.9412214,54.5162703 2.89153861,54.9389481 3.0451731,55.3081225 C3.19880758,55.6788254 3.53282883,55.9432857 3.92799813,56.0067256 L7.81777872,56.6395959 C7.96988451,56.9346296 8.12581204,57.2250773 8.28632569,57.5147607 L6.65061524,61.1017899 C6.48398679,61.4663789 6.51838257,61.8905855 6.74157297,62.223836 C6.96476337,62.5578509 7.34464565,62.7527566 7.74287236,62.7367055 L11.6899793,62.5983607 C11.8955896,62.8551776 12.1027286,63.1066442 12.3136894,63.356582 L11.4079339,67.2034855 C11.3162118,67.5932969 11.4316287,68.000688 11.7159672,68.2842567 C11.9980126,68.5693541 12.4084689,68.6832401 12.7990521,68.5915198 L16.6445003,67.6857816 C16.894443,67.898267 17.1474431,68.1046377 17.4027362,68.3079511 L17.2651531,72.2572756 C17.2498661,72.6570234 17.4447755,73.0361341 17.7780324,73.2593202 C18.1097606,73.481742 18.5347396,73.5153728 18.8993348,73.3487475 L22.4871969,71.7138327 C22.7761215,71.8743432 23.0665747,72.0302678 23.3608497,72.1823707 L23.9952608,76.0713126 C24.0594663,76.4672387 24.3239316,76.8020179 24.6938773,76.9541208 C25.0630587,77.1077523 25.4872733,77.0580705 25.8121224,76.824948 L29.0086369,74.5220034 C29.3243137,74.6221314 29.6415192,74.7199664 29.9610178,74.8116867 L31.3406708,78.5003726 C31.480547,78.8748973 31.8046317,79.1523513 32.1982723,79.2287849 C32.5911485,79.3082759 32.99549,79.1768101 33.2683632,78.883305 L35.9611706,75.9964077 C36.2860197,76.0338601 36.6131618,76.0651979 36.9403039,76.0942427 L39.0193377,79.4527354 C39.2287698,79.7913363 39.6010086,80 40.0015283,80 C40.4020481,80 40.7742869,79.7921006 40.9844833,79.4527354 L43.0635171,76.0942427 C43.3906592,76.0651979 43.717037,76.0338601 44.041886,75.9964077 L46.7339291,78.883305 C47.0068023,79.1768101 47.4119081,79.3082759 47.80402,79.2287849 C48.1976606,79.151587 48.5217453,78.8748973 48.6616215,78.5003726 L50.0412745,74.8116867 C50.360773,74.7199664 50.6779786,74.6221314 50.9936554,74.5220034 L54.1909343,76.824948 C54.5157833,77.0580705 54.9392336,77.1077523 55.308415,76.9541208 C55.6783607,76.8020179 55.942826,76.4664743 56.0070315,76.0713126 L56.6414426,72.1823707 C56.9349532,72.0302678 57.2254065,71.8720502 57.5150954,71.7138327 L61.1029575,73.3487475 C61.4675535,73.5153728 61.8917681,73.481742 62.2242607,73.2593202 C62.5575176,73.0361341 62.7516626,72.6577877 62.73714,72.2572756 L62.5995568,68.3079511 C62.85485,68.1038734 63.10785,67.898267 63.3570284,67.6857816 L67.2024766,68.5915198 C67.5930598,68.6832401 68.0027518,68.5693541 68.2847972,68.2842567 C68.5691356,68.000688 68.6845526,67.5932969 68.5928305,67.2034855 L67.6870749,63.356582 C67.8980357,63.1066442 68.1059391,62.8551776 68.3092564,62.5983607 L72.257892,62.7367055 C72.6561187,62.7527566 73.0367653,62.5578509 73.2591914,62.223836 C73.4823818,61.8905855 73.5167776,61.4663789 73.3493848,61.1017899 L71.7144387,57.5147607 C71.874188,57.2250773 72.0308798,56.9346296 72.1822213,56.6395959 L76.0727662,56.0067256 C76.4686999,55.9432857 76.8019568,55.6788254 76.9548269,55.3081225 C77.107697,54.9389481 77.0595429,54.5162703 76.8248873,54.1906631 L74.5234274,50.9934453 C74.622793,50.6777745 74.7198655,50.3605751 74.812352,50.0410826 L78.5018727,48.661456 C78.8771689,48.5208181 79.1538638,48.197504 79.2302989,47.8038709 C79.3097913,47.4110022 79.178323,47.0066684 78.8848124,46.7338004 L75.9986242,44.0410444 C76.0337843,43.7162016 76.0658871,43.3890658 76.094168,43.0626943 L79.4527249,40.9837001 C79.792861,40.7742721 80,40.4020404 80,40.0015283 C80,39.6010162 79.7936253,39.2287845 79.4534893,39.0185921 L79.4534893,39.0185921 Z M56.9746994,66.879407 C55.692119,66.6027173 54.8765568,65.3385055 55.1517231,64.0521279 C55.426125,62.7672789 56.6895966,61.9494393 57.9714127,62.226129 C59.2539932,62.5005256 60.071084,63.7670305 59.7959178,65.0511151 C59.5207516,66.3351997 58.2565155,67.1538037 56.9746994,66.879407 Z M55.8335239,59.1611406 C54.663303,58.9104384 53.5121909,59.6549017 53.2614839,60.8273932 L52.0690968,66.3917606 C48.3895126,68.0618349 44.3032939,68.9897389 39.9999996,68.9897389 C35.5981041,68.9897389 31.4232207,68.0159747 27.6779024,66.2748172 L26.4862797,60.7104498 C26.2355726,59.5394869 25.0844605,58.7934949 23.915004,59.0449615 L19.0025222,60.0997453 C18.0906518,59.1611406 17.2422226,58.161389 16.4625849,57.1058409 L40.3653592,57.1058409 C40.6359394,57.1058409 40.8163261,57.0569234 40.8163261,56.8108072 L40.8163261,48.3557215 C40.8163261,48.1096053 40.6359394,48.0606878 40.3653592,48.0606878 L33.374608,48.0606878 L33.374608,42.7011633 L40.9355648,42.7011633 C41.6257735,42.7011633 44.6258499,42.898362 45.58511,46.7330361 C45.8854998,47.9124066 46.5451345,51.7486094 46.9961014,52.9768974 C47.4455396,54.354231 49.2753951,57.1058409 51.2252537,57.1058409 L63.136131,57.1058409 C63.2714211,57.1058409 63.4158834,57.0905542 63.5679892,57.0630381 C62.7417261,58.1858478 61.8352062,59.2482749 60.8591296,60.2411475 L55.8335239,59.1611406 L55.8335239,59.1611406 Z M22.7738284,66.7632279 C21.491248,67.0399176 20.2285407,66.222078 19.9526101,64.937229 C19.6782082,63.6500871 20.4937703,62.3866396 21.7763508,62.1099499 C23.0589312,61.8355533 24.3224029,62.6533929 24.5975691,63.9382418 C24.871971,65.2223264 24.0556445,66.4880669 22.7738284,66.7632279 Z M13.7063363,29.9948404 C14.2383244,31.1956124 13.6971641,32.6027551 12.4978979,33.1339687 C11.2986317,33.6667109 9.89528386,33.1247967 9.36329579,31.9232604 C8.83130772,30.721724 9.372468,29.3168743 10.5717342,28.7841321 C11.7717648,28.2521542 13.1743483,28.7933041 13.7063363,29.9948404 Z M10.9195138,36.6009971 L16.0368415,34.3270973 C17.129863,33.8417439 17.6236336,32.5607166 17.1382709,31.465423 L16.0842313,29.0822232 L20.229305,29.0822232 L20.229305,47.7656541 L11.8665443,47.7656541 C11.1411755,45.215829 10.752121,42.5246017 10.752121,39.7431827 C10.752121,38.6815199 10.8094473,37.6320865 10.9195138,36.6009971 L10.9195138,36.6009971 Z M33.3761367,34.7864633 L33.3761367,29.2794219 L43.2469613,29.2794219 C43.7567832,29.2794219 46.847053,29.868725 46.847053,32.1793129 C46.847053,34.0977965 44.4768015,34.7856989 42.5277073,34.7856989 L33.3761367,34.7856989 L33.3761367,34.7864633 Z M69.2486434,39.7431827 C69.2486434,40.473888 69.2218911,41.1969499 69.1683866,41.9146615 L66.1675458,41.9146615 C65.867156,41.9146615 65.7463886,42.1118602 65.7463886,42.4061296 L65.7463886,43.7842275 C65.7463886,47.0280698 63.9172974,47.733552 62.314454,47.913171 C60.788045,48.0851466 59.0957726,47.274186 58.8871048,46.3401673 C57.9866997,41.2756765 56.4862794,40.194141 54.1167923,38.3253393 C57.0572493,36.4580663 60.1169451,33.7033991 60.1169451,30.0162419 C60.1169451,26.0348153 57.3874488,23.5270286 55.5270193,22.2972119 C52.9167617,20.5766914 50.0267518,20.2319758 49.2471141,20.2319758 L18.2121836,20.2319758 C22.4206984,15.5351306 28.1242832,12.2079757 34.5754029,10.9972674 L38.2335852,14.8349988 C39.0606126,15.7009916 40.430329,15.7330937 41.295574,14.9053177 L45.3886719,10.9903884 C53.9654508,12.5870864 61.2267823,17.9259739 65.411603,25.2506065 L62.6094934,31.5793091 C62.1256594,32.6746027 62.61943,33.95563 63.7116871,34.4409834 L69.1064742,36.837177 C69.1997249,37.7948901 69.2486434,38.7625395 69.2486434,39.7431827 Z M38.2351139,7.73278803 C39.1829087,6.82475678 40.6863865,6.86068058 41.5936708,7.80998598 C42.4994263,8.76158438 42.4650306,10.2665621 41.5149427,11.173829 C40.5671478,12.0818603 39.06367,12.0467008 38.1563858,11.0958667 C37.2513946,10.145797 37.2857904,8.64081929 38.2351139,7.73278803 L38.2351139,7.73278803 Z M66.0421923,30.1102552 C66.573416,28.9094832 67.9767639,28.3675689 69.1760301,28.9003112 C70.3752963,29.4322891 70.9164566,30.8386675 70.3844685,32.0394394 C69.8532448,33.2409757 68.4498969,33.78289 67.2498664,33.2501478 C66.0521288,32.7181699 65.5109686,31.3125558 66.0421923,30.1102552 L66.0421923,30.1102552 Z" id="path3"></path>
            </g>
            <text id="Server" font-family="Helvetica" font-size="16" font-weight="normal" fill="#000000">
                <tspan x="134.320312" y="152">API Server</tspan>
            </text>
        </g>
        <path id="Line-2" d="M357,244.5 L361.5,253.5 L357.5,253.5 L357.5,269.5 L361.5,269.5 L357,278.5 L352.5,269.5 L356.5,269.5 L356.5,253.5 L352.5,253.5 L357,244.5 Z" fill="#000000" fill-rule="nonzero"></path>
        <path id="Line-2" d="M355,116.5 L359.5,125.5 L355.5,125.5 L355.5,156.5 L359.5,156.5 L355,165.5 L350.5,156.5 L354.5,156.5 L354.5,125.5 L350.5,125.5 L355,116.5 Z" fill="#000000" fill-rule="nonzero"></path>
        <g id="Load-balancer" transform="translate(17.000000, 278.000000)">
            <rect id="Rectangle" stroke="#979797" fill="#FFFFFF" x="0.5" y="0.5" width="123" height="97" rx="8"></rect>
            <text id="dede" font-family="Helvetica" font-size="16" font-weight="normal" fill="#000000">
                <tspan x="36.2421875" y="23">Website</tspan>
            </text>
        </g>
        <g id="Vue.js_Logo_2" transform="translate(57.000000, 327.000000)" fill-rule="nonzero">
            <g id="Group" transform="translate(22.500000, 20.155172) scale(-1, 1) rotate(-180.000000) translate(-22.500000, -20.155172) translate(0.000000, 0.655172)">
                <g transform="translate(0.013184, 0.002194)" fill="#41B883" id="Path">
                    <polygon points="26.5867665 37.5193206 21.6058127 28.904358 16.6248589 37.5193206 0.0375730337 37.5193206 21.6058127 0.215023007 43.1740524 37.5193206"></polygon>
                </g>
                <g transform="translate(8.582472, 14.922158)" fill="#34495E" id="Path">
                    <polygon points="18.0174782 22.5993569 13.0365243 13.9843943 8.05557054 22.5993569 0.0955805243 22.5993569 13.0365243 0.217217119 25.9774682 22.5993569"></polygon>
                </g>
            </g>
        </g>
    </g>
</svg>