<?xml version="1.0" encoding="UTF-8"?>
<svg width="1024px" height="1024px" viewBox="0 0 1024 1024" version="1.1" xmlns="http://www.w3.org/2000/svg" xmlns:xlink="http://www.w3.org/1999/xlink">
    <!-- Generator: Sketch 63.1 (92452) - https://sketch.com -->
    <title>arcade</title>
    <desc>Created with Sketch.</desc>
    <defs>
        <linearGradient x1="89.3393732%" y1="7.06541881%" x2="4.11432359%" y2="96.041737%" id="linearGradient-1">
            <stop stop-color="#CBFFD9" offset="0%"></stop>
            <stop stop-color="#00DE39" offset="100%"></stop>
            <stop stop-color="#34B4A2" offset="100%"></stop>
        </linearGradient>
    </defs>
    <g id="arcade" stroke="none" stroke-width="1" fill="none" fill-rule="evenodd">
        <rect id="Rectangle" fill="url(#linearGradient-1)" x="0" y="0" width="1024" height="1024"></rect>
        <path d="M265.321043,666.341226 C262.688427,662.487819 261.214012,657.752768 261.12,652.84967 L261.12,629.675939 C261.12,629.675939 261.12,616.184383 272.827826,621.739729 C272.827826,621.739729 419.45113,698.006701 442.935652,710.545912 C465.320682,723.201091 490.051024,729.358424 514.973217,728.481745 C539.779819,728.597569 564.327985,722.674903 587.010783,711.101447 L756.292174,620.946108 C768,615.152675 768,628.882318 768,628.882318 L768,652.056049 C767.896125,656.957034 766.422794,661.688603 763.798957,665.547605 C759.666783,671.341038 752.917565,679.039161 733.634087,688.721336 C718.620522,697.451166 602.093217,757.290185 585.357913,765.940653 C562.801472,777.95993 538.166403,783.903563 513.320348,783.320952 C485.361937,783.324294 457.798968,775.710047 432.880696,761.099565 C402.715826,744.750974 308.915478,696.419459 293.764174,688.721336 C275.376,678.880437 270.348522,672.92828 265.321043,666.341226 Z M295.484746,517.438766 L442.703317,440.727906 C457.320684,433.058463 472.794815,427.751928 488.683346,424.96 L488.683346,563.481051 C488.683346,573.099473 500.36736,580.746907 514.594365,580.746907 C528.821369,580.746907 538.855875,572.862955 538.855875,563.481051 L538.855875,425.354198 C555.275707,428.142979 571.295125,433.446257 586.485413,441.122103 L733.635254,517.832964 C746.212751,524.534324 768,536.044895 768,555.28174 C768,574.518585 746.281481,585.004242 733.635254,592.651676 L586.485413,668.81066 C540.65981,691.836447 488.52892,691.836447 442.703317,668.81066 L295.484746,592.257479 C282.975978,585.556119 261.12,574.045548 261.12,554.887542 C261.12,535.729537 283.800732,524.140126 295.484746,517.438766 Z M333.014035,540.036026 C319.075322,550.022525 319.075322,566.116471 333.014035,576.185504 C348.956153,586.178165 367.843847,586.178165 383.785965,576.185504 C397.724678,566.116471 397.724678,550.022525 383.785965,540.036026 C367.860035,529.961325 348.939965,529.961325 333.014035,540.036026 Z M516.273475,409.582523 C476.689809,409.048266 444.979375,371.945837 445.445064,326.710552 C445.910753,281.475267 478.376229,245.235643 517.959938,245.765742 C557.543648,246.295841 589.257065,283.394939 588.795015,328.630273 C588.742653,350.417012 581.030512,371.265623 567.392298,386.489294 C553.754084,401.712966 535.334201,410.034257 516.273475,409.582523 Z" id="Shape" fill="#FFFFFF" fill-rule="nonzero"></path>
    </g>
</svg>