<?xml version="1.0" encoding="UTF-8"?>
<svg width="256px" height="256px" viewBox="0 0 256 256" version="1.1" xmlns="http://www.w3.org/2000/svg" xmlns:xlink="http://www.w3.org/1999/xlink">
    <!-- Generator: Sketch 63.1 (92452) - https://sketch.com -->
    <title>logo_filled_256</title>
    <desc>Created with Sketch.</desc>
    <g id="logo_filled_256" stroke="none" stroke-width="1" fill="none" fill-rule="evenodd">
        <g id="padlock" fill-rule="nonzero">
            <path d="M128.079354,0 C57.3427972,0 0,57.2092304 0,127.779781 C0,183.113983 35.2541205,230.232499 84.5763658,248 L256,121.365792 C252.650446,53.7747321 196.659722,0 128.079354,0 Z" id="Path" fill="#366796"></path>
            <path d="M256,127.95228 C256,125.796068 255.944783,123.652661 255.839369,121.523171 L166.15262,32 L98.715493,32 L58,222.317882 L84.1493859,248.419575 C97.7522648,253.322132 112.421555,256 127.71831,256 C198.566614,256 256,198.670809 256,127.95228 Z" id="Path" fill="#121149"></path>
            <path d="M182,70.2544571 L182,119 L170.837209,119 C170.837209,119 170.837209,94.0707726 170.837209,70.2544571 C170.837209,46.4381415 151.469767,27.1291194 127.581395,27.1291194 L122,21.5645597 L127.581395,16 C157.586977,16 182,40.3393841 182,70.2544571 Z" id="Path" fill="#FEE187"></path>
            <path d="M171,70.1859479 C171,94.0357359 171,119 171,119 L159.8,119 L159.8,70.1859479 C159.8,52.5215021 145.3576,38.1447608 127.6,38.1447608 L122,32.5723804 L127.6,27 C151.568,27 171,46.3361599 171,70.1859479 Z" id="Path" fill="#FFC61B"></path>
            <path d="M128,27 L128,38.1447608 C110.406065,38.1447608 96.0967742,52.5215021 96.0967742,70.1859479 L96.0967742,119 L85,119 C85,119 85,94.0357359 85,70.1859479 C85,46.3361599 104.252903,27 128,27 Z" id="Path" fill="#FEE187"></path>
            <path d="M128,16 L128,27.1291194 C104.295385,27.1291194 85.0769231,46.4381415 85.0769231,70.2544571 C85.0769231,94.0707726 85.0769231,119 85.0769231,119 L74,119 L74,70.2544571 C74,40.3393841 98.2252308,16 128,16 Z" id="Path" fill="#FFEDB5"></path>
            <polygon id="Path" fill="#D48B07" points="197 113.589744 197 211.410256 127.615257 217 115 162.5 127.615257 108"></polygon>
            <polygon id="Path" fill="#FFC61B" points="128 108 128 217 58 211.410256 58 113.589744"></polygon>
            <polygon id="Path" fill="#FFC61B" points="197 103 197 114 127.615257 114 115 108.5 127.615257 103"></polygon>
            <rect id="Rectangle" fill="#FEE187" x="58" y="103" width="70" height="11"></rect>
            <path d="M145,148.736842 C145,153.690947 142.877,158.142947 139.5,161.205789 L139.5,185 L128.5,185 L123,158.5 L128.5,132 C137.6135,132 145,139.492526 145,148.736842 Z" id="Path" fill="#121149"></path>
            <path d="M128,132 L128,185 L116.666667,185 L116.666667,161.205789 C113.187333,158.142947 111,153.690947 111,148.736842 C111,139.492526 118.610333,132 128,132 Z" id="Path" fill="#366796"></path>
            <polygon id="Path" fill="#FFC61B" points="197 211 197 222 127.615257 222 115 216.5 127.615257 211"></polygon>
            <rect id="Rectangle" fill="#FEE187" x="58" y="211" width="70" height="11"></rect>
        </g>
    </g>
</svg>