<?xml version="1.0" encoding="UTF-8"?>
<svg width="1024px" height="1024px" viewBox="0 0 1024 1024" version="1.1" xmlns="http://www.w3.org/2000/svg" xmlns:xlink="http://www.w3.org/1999/xlink">
    <!-- Generator: Sketch 63.1 (92452) - https://sketch.com -->
    <title>bloom</title>
    <desc>Created with Sketch.</desc>
    <defs>
        <linearGradient x1="50%" y1="0%" x2="50%" y2="99.8152449%" id="linearGradient-1">
            <stop stop-color="#FFC82E" offset="0%"></stop>
            <stop stop-color="#FFE7A2" offset="100%"></stop>
        </linearGradient>
        <linearGradient x1="50%" y1="0%" x2="50%" y2="99.8152449%" id="linearGradient-2">
            <stop stop-color="#FFC82E" offset="0%"></stop>
            <stop stop-color="#FFE7A2" offset="100%"></stop>
        </linearGradient>
        <linearGradient x1="-62.3795815%" y1="0%" x2="113.873538%" y2="0%" id="linearGradient-3">
            <stop stop-color="#4285F4" offset="0%"></stop>
            <stop stop-color="#73A7FF" offset="100%"></stop>
        </linearGradient>
    </defs>
    <g id="Page-1" stroke="none" stroke-width="1" fill="none" fill-rule="evenodd">
        <g id="bloom">
            <rect id="background" fill="#FFFFFF" fill-rule="nonzero" x="0" y="0" width="1024" height="1024" rx="512"></rect>
            <g id="Group" transform="translate(232.000000, 111.000000)">
                <path d="M274.468548,55.0996997 L420.11539,-31.351885 L420.186791,-26.3754454 L422.684841,279.224148 C328.670093,336.083416 281.651055,364.336639 281.627728,363.98708 C281.423912,360.879725 279.037519,257.918353 274.468548,55.0996997 Z" id="Rectangle" fill="#4285F4" fill-rule="nonzero" transform="translate(348.576695, 166.317597) rotate(121.000000) translate(-348.576695, -166.317597) "></path>
                <polygon id="Rectangle" fill="#EDB722" fill-rule="nonzero" transform="translate(348.414140, 633.781182) rotate(59.000000) translate(-348.414140, -633.781182) " points="278.099195 435.281668 423.352074 522.65413 417.076491 832.280695 273.476206 745.996938"></polygon>
                <g id="Combined-Shape" transform="translate(74.000000, 9.000000)">
                    <g id="path-1-link" fill="#000000" fill-rule="nonzero">
                        <path d="M140.000978,-0.00037524 L139.999,787 L70.611778,746.336537 L0,704.956035 L0,80.910651 L70.41614,39.5932985 C119.112174,11.0155133 134.348016,2.1687323 140.000978,-0.00037524 Z" id="path-1"></path>
                    </g>
                    <g id="path-1-link" fill="#DB4437">
                        <path d="M140.000978,-0.00037524 L139.999,787 L70.611778,746.336537 L0,704.956035 L0,80.910651 L70.41614,39.5932985 C119.112174,11.0155133 134.348016,2.1687323 140.000978,-0.00037524 Z" id="path-1"></path>
                    </g>
                </g>
                <g id="Rectangle" transform="translate(350.624975, 476.799257) rotate(121.000000) translate(-350.624975, -476.799257) translate(275.124975, 279.299257)">
                    <g id="path-4-link" fill="#000000" fill-rule="nonzero">
                        <polygon id="path-4" points="0.693546 85.062068 148.260304 0.206128 150.827891 309.478374 149.718908 310.106399 137.874825 316.81379 3.971729 394.163836"></polygon>
                    </g>
                    <g id="path-4-link" fill="url(#linearGradient-2)">
                        <polygon id="path-4" points="0.693546 85.062068 148.260304 0.206128 150.827891 309.478374 149.718908 310.106399 137.874825 316.81379 3.971729 394.163836"></polygon>
                    </g>
                </g>
                <g id="Combined-Shape" transform="translate(72.000000, 161.000000)">
                    <g id="path-7-link" fill="#000000" fill-rule="nonzero">
                        <path d="M411.399884,0 L413,171.286102 L187.05395,303.064933 C171.553302,312.144202 158.337469,319.872664 147.406451,326.250319 C121.165042,341.560756 120.464797,341.867064 145.305717,327.169244 L1.6299229,411 L0,241.953272 L144.36,157.321 L144.359552,157.126432 L411.399884,0 Z" id="path-7"></path>
                    </g>
                    <g id="path-7-link" fill="url(#linearGradient-3)">
                        <path d="M411.399884,0 L413,171.286102 L187.05395,303.064933 C171.553302,312.144202 158.337469,319.872664 147.406451,326.250319 C121.165042,341.560756 120.464797,341.867064 145.305717,327.169244 L1.6299229,411 L0,241.953272 L144.36,157.321 L144.359552,157.126432 L411.399884,0 Z" id="path-7"></path>
                    </g>
                </g>
                <polygon id="Path-7" fill="#FFFFFF" fill-rule="nonzero" points="214 487.796797 221.049157 484 232.033576 490.58106 246.659453 498.891493 339 553.797782 214 626"></polygon>
                <polygon id="Path-7" fill="#FFFFFF" fill-rule="nonzero" points="214 171 246.659453 190.947467 339 244.897882 214 317"></polygon>
                <polygon id="Path-7" fill="#FFFFFF" fill-rule="nonzero" transform="translate(425.500000, 402.000000) rotate(180.000000) translate(-425.500000, -402.000000) " points="366 332 391.167844 346.634639 485 402 367.864273 472"></polygon>
                <path d="M481.292242,161.873315 C496.524621,148.529078 508.309247,141.90464 516.646121,141.998985 C524.982995,142.098126 536.767621,148.996067 552,162.693825 L552,356.271256 C520.96822,362 498.57743,363.432863 484.82763,360.565783 C471.077829,357.698704 470.423486,351.461872 482.864599,341.855288 L481.292242,161.873315 Z" id="Rectangle" fill="#FFFFFF" fill-rule="nonzero"></path>
                <path d="M482.453886,469.527124 C476.115583,439.743698 477.459058,424.901323 486.484309,424.999511 C495.509561,425.099993 519.681458,440.223198 559,470.369616 L559,669.13302 C524.737299,681.918658 501.641213,686.977281 489.711744,684.308886 C477.782274,681.640492 471.211693,669.946004 470,649.225422 L481.587747,642.478615 L482.453886,469.527124 Z" id="Rectangle" fill="#FFFFFF" fill-rule="nonzero"></path>
                <path d="M0,383.947769 C15.2365929,370.554223 27.0244797,363.906 35.3636602,364.002052 C43.7028407,364.100201 56.57676,370.748424 73.9854182,383.947769 L73.9854182,399.877462 L73.9854182,400.694277 L73.9854182,569.072724 C74.0200101,569.497056 73.981706,571.653832 73.9854182,572.09796 C73.9909317,572.757607 73.9909317,573.713158 73.9854182,574.964613 L73.9854182,579.66597 L73.9854182,584 L1.57279225,564.594812 L0,383.947769 Z" id="Rectangle" fill="#FFFFFF" fill-rule="nonzero"></path>
            </g>
        </g>
    </g>
</svg>