<?xml version="1.0" encoding="UTF-8"?>
<svg width="1024px" height="1024px" viewBox="0 0 1024 1024" version="1.1" xmlns="http://www.w3.org/2000/svg" xmlns:xlink="http://www.w3.org/1999/xlink">
    <!-- Generator: Sketch 63.1 (92452) - https://sketch.com -->
    <title>books</title>
    <desc>Created with Sketch.</desc>
    <defs>
        <linearGradient x1="123.884536%" y1="-10.0947117%" x2="-41.1111032%" y2="143.277552%" id="linearGradient-1">
            <stop stop-color="#FFE889" offset="0%"></stop>
            <stop stop-color="#FF7100" offset="99.255701%"></stop>
            <stop stop-color="#34B4A2" offset="100%"></stop>
        </linearGradient>
    </defs>
    <g id="books" stroke="none" stroke-width="1" fill="none" fill-rule="evenodd">
        <rect id="bacground" fill="url(#linearGradient-1)" x="0" y="0" width="1024" height="1024"></rect>
        <g id="book-open-page-variant" transform="translate(262.000000, 272.000000)" fill="#FFFFFF" fill-rule="nonzero">
            <path d="M409.090909,0 L295.454545,102.272727 L295.454545,352.272727 L409.090909,250 L409.090909,0 M125,68.1818182 C80.6818182,68.1818182 32.9545455,77.2727273 0,102.272727 L0,435.454545 C0,441.136364 5.68181818,446.818182 11.3636364,446.818182 C13.6363636,446.818182 14.7727273,445.227273 17.0454545,445.227273 C47.7272727,430.454545 92.0454545,420.454545 125,420.454545 C169.318182,420.454545 217.045455,429.545455 250,454.545455 C280.681818,435.227273 336.363636,420.454545 375,420.454545 C412.5,420.454545 451.136364,427.5 482.954545,444.545455 C485.227273,445.681818 486.363636,445.227273 488.636364,445.227273 C494.318182,445.227273 500,439.545455 500,433.863636 L500,102.272727 C486.363636,92.0454545 471.590909,85.2272727 454.545455,79.5454545 L454.545455,125 L454.545455,250 L454.545455,386.363636 C429.545455,378.409091 402.272727,375 375,375 C336.363636,375 280.681818,389.772727 250,409.090909 L250,250 L250,147.727273 L250,102.272727 C217.045455,77.2727273 169.318182,68.1818182 125,68.1818182 L125,68.1818182 Z" id="Shape"></path>
        </g>
    </g>
</svg>