<?xml version="1.0" encoding="UTF-8"?>
<svg width="1024px" height="1024px" viewBox="0 0 1024 1024" version="1.1" xmlns="http://www.w3.org/2000/svg" xmlns:xlink="http://www.w3.org/1999/xlink">
    <!-- Generator: Sketch 63.1 (92452) - https://sketch.com -->
    <title>contacts</title>
    <desc>Created with Sketch.</desc>
    <defs>
        <linearGradient x1="0%" y1="100%" x2="102.958548%" y2="-2.79763745%" id="linearGradient-1">
            <stop stop-color="#4285F4" offset="0%"></stop>
            <stop stop-color="#40B0FF" offset="100%"></stop>
            <stop stop-color="#34B4A2" offset="100%"></stop>
        </linearGradient>
    </defs>
    <g id="contacts" stroke="none" stroke-width="1" fill="none" fill-rule="evenodd">
        <rect id="background" fill="url(#linearGradient-1)" x="0" y="0" width="1024" height="1024"></rect>
        <path d="M509.5,328 C461.978408,328 423.454545,366.124676 423.454545,413.153846 C423.454545,460.183017 461.978408,498.307692 509.5,498.307692 C557.021592,498.307692 595.545455,460.183017 595.545455,413.153846 C595.545455,366.124676 557.021592,328 509.5,328 L509.5,328 Z M337.409091,389.594615 C297.807764,389.594615 265.704545,421.365178 265.704545,460.556154 C265.704545,479.376324 273.25911,497.425669 286.706321,510.733539 C300.153531,524.041409 318.391863,531.517692 337.409091,531.517692 C362.649091,531.517692 384.734091,518.460769 397.354091,499.159231 C378.137273,475.032308 366.090909,445.796154 366.090909,413.153846 C366.090909,407.476923 366.090909,401.8 367.238182,396.123077 C358.06,391.865385 348.021364,389.594615 337.409091,389.594615 L337.409091,389.594615 Z M681.590909,389.594615 C670.978636,389.594615 660.94,391.865385 651.761818,396.123077 C652.909091,401.8 652.909091,407.476923 652.909091,413.153846 C652.909091,445.796154 640.862727,475.032308 621.645909,499.159231 C634.265909,518.460769 656.350909,531.517692 681.590909,531.517692 C700.608137,531.517692 718.846469,524.041409 732.293679,510.733539 C745.74089,497.425669 753.295455,479.376324 753.295455,460.556154 C753.295455,441.735984 745.74089,423.686639 732.293679,410.378769 C718.846469,397.070899 700.608137,389.594615 681.590909,389.594615 L681.590909,389.594615 Z M509.5,555.076923 C452.136364,555.076923 337.409091,583.461538 337.409091,640.230769 L337.409091,697 L681.590909,697 L681.590909,640.230769 C681.590909,583.461538 566.863636,555.076923 509.5,555.076923 L509.5,555.076923 Z M299.262273,582.61 C251.363636,590.841538 194,612.981538 194,649.597692 L194,697 L280.045455,697 L280.045455,640.230769 C280.045455,618.090769 288.363182,598.505385 299.262273,582.61 L299.262273,582.61 Z M719.737727,582.61 C730.636818,598.505385 738.954545,618.090769 738.954545,640.230769 L738.954545,697 L825,697 L825,649.597692 C825,612.981538 767.636364,590.841538 719.737727,582.61 Z" id="Shape" fill="#FFFFFF" fill-rule="nonzero"></path>
    </g>
</svg>