<?xml version="1.0" encoding="UTF-8"?>
<svg width="256px" height="256px" viewBox="0 0 256 256" version="1.1" xmlns="http://www.w3.org/2000/svg" xmlns:xlink="http://www.w3.org/1999/xlink">
    <!-- Generator: Sketch 63.1 (92452) - https://sketch.com -->
    <title>phaser_2</title>
    <desc>Created with Sketch.</desc>
    <g id="phaser_2" stroke="none" stroke-width="1" fill="none" fill-rule="evenodd">
        <rect fill="#FFFFFF" x="0" y="0" width="256" height="256"></rect>
        <g id="logo" transform="translate(16.000000, 32.000000)" fill="#2D313C">
            <g id="Group" transform="translate(112.000000, 96.000000) scale(-1, 1) rotate(-180.000000) translate(-112.000000, -96.000000) ">
                <path d="M89.1506167,190.503813 C62.155538,186.732843 33.5725135,172.207625 18.5592077,154.609766 C13.3622942,148.464482 5.27820645,135.056589 6.28871742,134.07893 C6.57743484,133.799599 11.1969135,135.33592 16.5381858,137.430903 C23.4674039,140.084548 27.0763716,142.458863 28.9530348,145.391839 C33.1394374,152.095786 45.9873625,162.710368 54.0714503,166.202007 C74.8591044,175.419933 98.2452154,172.486957 117.733641,157.961739 C121.486968,155.168428 126.106446,152.933779 127.98311,152.933779 C131.736436,152.933779 132.025153,154.4701 133.613099,178.911572 L134.334893,190.364147 L129.859773,191.20214 C123.796707,192.319465 99.5444438,191.900468 89.1506167,190.503813 Z" id="Shape" fill-rule="nonzero"></path>
                <path d="M137.943861,175.83893 C137.366426,168.157324 136.788991,140.643211 136.788991,114.525753 C136.788991,88.4082943 137.366426,60.8941806 137.943861,53.2125753 L139.09873,39.5253512 L144.873079,40.2236789 C148.04897,40.6426756 151.513579,41.76 152.379731,42.5979933 C154.689471,44.8326421 154.689471,184.218863 152.379731,186.453512 C151.513579,187.291505 148.04897,188.408829 144.873079,188.827826 L139.09873,189.526154 L137.943861,175.83893 Z" id="Shape" fill-rule="nonzero"></path>
                <path d="M156.133058,112.151438 L156.133058,98.1848829 L167.149907,101.570715 C173.038223,103.404707 179.876267,104.956546 182.155615,104.956546 C190.513224,104.956546 192.222735,106.367309 192.222735,112.85682 C192.222735,118.923101 192.03279,119.064178 186.144474,119.064178 C182.725452,119.064178 171.379347,121.815479 165.11114,123.649471 C158.842933,125.62454 156.892841,126.117993 156.702895,126.117993 C156.323004,126.117993 156.133058,119.910635 156.133058,112.151438 Z" id="Combined-Shape" fill-rule="nonzero"></path>
                <path d="M166.815602,144.114174 C166.238168,140.108868 165.660733,125.76948 165.660733,112.151438 C165.660733,98.5333966 166.238168,84.1871176 166.815602,80.1818113 L167.970472,73.0450836 L173.74482,73.4092024 C176.920712,73.6276736 180.385321,74.2102636 181.251473,74.6472061 C183.561213,75.8123862 183.561213,148.49049 181.251473,149.65567 C180.385321,150.092613 176.920712,150.675203 173.74482,150.893674 L167.970472,151.257793" id="Shape"></path>
                <path d="M60.8563096,163.967358 C50.1737651,160.336054 40.3573729,153.073445 34.2943071,144.414181 C31.967968,141.001816 23.9735518,128.476314 24.1548662,114.525753 C24.3223418,101.63997 32.4978314,87.2472025 34.4386658,84.4976589 C52.9165806,58.9388629 90.3054864,54.6092308 115.279543,75.419398 C119.754663,79.0507023 122.497479,80.3076923 126.395164,80.3076923 L131.592077,80.3076923 L131.592077,114.525753 L131.592077,148.743813 L125.962088,148.743813 C122.641837,148.743813 119.610304,149.581806 118.455435,150.978462 C114.846467,155.168428 104.163922,161.453378 95.935476,164.246689 C85.5416489,167.598662 71.3944954,167.598662 60.8563096,163.967358 Z M86.8408773,158.520401 C97.5234218,156.565084 106.184944,151.95612 112.969804,144.972843 C137.366426,119.414047 124.518501,79.469699 89.1506167,70.9501003 C68.5073212,66.061806 47.5753083,75.6987291 37.4701987,94.8329097 C33.5725135,102.235184 32.9950787,104.749164 32.85072,114.525753 C32.85072,124.02301 33.4281548,126.955987 36.8927638,133.380602 C43.9663406,146.928161 55.3706787,155.72709 69.8065496,158.380736 C78.4680722,160.056722 78.3237135,160.056722 86.8408773,158.520401 Z" id="Shape" fill-rule="nonzero"></path>
                <path d="M74.570387,130.447625 C69.2291148,122.626355 64.6096361,115.503411 64.3209186,114.525753 C63.8878425,113.548094 66.0532232,112.430769 69.9509083,111.592776 L76.3026915,110.335786 L73.2711586,96.7882274 C71.3944954,89.2462876 70.095267,83.1010033 70.3839844,83.1010033 C70.8170606,83.1010033 92.6152257,116.201739 92.6152257,117.039732 C92.6152257,117.319064 90.1611277,118.157057 87.2739535,118.715719 C84.2424206,119.274381 81.3552464,119.972709 80.9221702,120.25204 C80.3447354,120.531371 81.2108877,125.838662 82.6544748,132.123612 C84.2424206,138.408562 85.2529315,143.855518 84.8198554,144.134849 C84.531138,144.553846 79.9116593,138.408562 74.570387,130.447625 Z" id="Shape" fill-rule="nonzero" transform="translate(78.440749, 113.628034) scale(1, -1) translate(-78.440749, -113.628034) "></path>
                <path d="M201.768087,126.816321 C194.550151,123.185017 191.662977,115.084415 195.127586,107.961472 C200.757576,96.6485619 217.647545,97.0675585 222.7001,108.799465 C225.154198,114.525753 223.999328,119.693378 219.235491,124.162676 C214.038577,129.05097 208.11987,129.888963 201.768087,126.816321 Z" id="Shape" fill-rule="nonzero"></path>
                <path d="M23.3230451,87.1513043 C23.3230451,86.0339799 21.1576645,85.7546488 16.8269032,86.1736455 C13.2179355,86.5926421 10.3307613,86.4529766 10.3307613,85.8943144 C10.3307613,83.1010033 23.1786864,68.575786 31.4071329,62.1511706 C47.5753083,49.4416054 53.205298,31.2850836 46.5647974,12.8492308 L43.6776232,4.88829431 L47.1422322,2.65364548 C49.5963303,1.11732441 54.3601677,0.279331104 61.145027,0.139665552 L71.6832128,0 L71.9719303,8.51959866 C72.2606477,19.5531773 74.4260283,26.5364548 79.3342244,33.5197324 C83.520627,39.3856856 83.8093444,39.3856856 95.2136825,37.5700334 C98.6782915,37.0113712 99.8331612,36.1733779 99.8331612,33.9387291 C99.8331612,32.402408 100.554955,28.6314381 101.565466,25.6984615 C102.864694,21.3688294 103.586488,20.5308361 105.174433,21.7878261 C106.618021,23.0448161 106.906738,25.2794649 106.184944,30.1677592 L105.174433,37.0113712 L116.578771,37.0113712 C122.930555,37.0113712 129.426697,37.4303679 131.159001,37.8493645 C134.767969,38.8270234 134.767969,38.5476923 132.169512,67.5981271 L131.30336,76.3970569 L126.972599,75.5590635 C124.518501,75.1400669 119.465946,72.4864214 115.712619,69.8327759 C90.1611277,51.6762542 59.1240051,53.4919064 37.0371225,74.4417391 C33.2837961,78.0730435 29.3861109,82.6820067 28.2312413,84.9166555 C26.0658606,88.6876254 23.3230451,90.0842809 23.3230451,87.1513043 Z" id="Shape" fill-rule="nonzero"></path>
                <path d="M29.2297977,89.8867498 C24.745832,97.5457431 24.0269896,97.583416 21.3443427,104.515032 C20.5089112,106.67368 19.1729806,109.976405 18.4932249,114.518281 C17.8134691,119.060157 18.0458537,117.94297 17.8915975,121.948182 C17.5570695,130.6341 20.514976,135.132651 24.280398,143.582253 C24.7164644,144.560786 28.7458619,151.312041 32.756027,157.171213 C33.1665685,157.771047 31.0294591,156.390236 26.344699,153.028782 C23.3078347,153.443318 21.1936184,153.763236 20.0020502,153.988535 C18.8104819,154.213835 16.6745082,154.640924 13.5941291,155.269804 C12.8869869,154.676568 11.6348326,152.69489 9.83766634,149.324769 C5.60079622,141.379616 3.0745816,129.318175 2.61982253,124.090012 C2.14941312,118.681924 4.66476331,101.658216 6.63482008,101.105724 C6.98436729,101.007696 7.35719082,100.448725 7.75329068,99.4288127 C8.61794261,100.221016 9.26308259,100.444659 9.68871061,100.099741 C10.7029822,99.2778037 11.6856463,98.4825528 12.6367193,97.7142788 C33.9042417,80.5344376 38.6077294,73.8684482 29.2297977,89.8867498 Z" id="Path-2" transform="translate(18.194228, 119.040203) scale(-1, 1) rotate(-177.000000) translate(-18.194228, -119.040203) "></path>
            </g>
        </g>
    </g>
</svg>