<?xml version="1.0" encoding="UTF-8"?>
<svg width="1024px" height="1024px" viewBox="0 0 1024 1024" version="1.1" xmlns="http://www.w3.org/2000/svg" xmlns:xlink="http://www.w3.org/1999/xlink">
    <!-- Generator: Sketch 63.1 (92452) - https://sketch.com -->
    <title>phaser</title>
    <desc>Created with Sketch.</desc>
    <g id="phaser" stroke="none" stroke-width="1" fill="none" fill-rule="evenodd">
        <rect id="background" fill="#2D313C" x="0" y="0" width="1024" height="1024"></rect>
        <g id="Group" transform="translate(512.000000, 512.000000) scale(-1, 1) rotate(-180.000000) translate(-512.000000, -512.000000) translate(153.000000, 204.000000)" fill="#FFFFFF">
            <path d="M285.713575,611.694879 C198.913059,599.558965 107.00663,552.813221 58.7325459,496.178955 C42.0222861,476.40191 16.0285486,433.251993 19.2777658,430.105645 C20.2061136,429.206688 35.0596778,434.150949 52.2341115,440.893124 C74.5144579,449.433212 86.118805,457.074343 92.1530654,466.513387 C105.614108,488.088346 146.925584,522.248697 172.919321,533.485654 C239.76036,563.151222 314.956529,553.712178 377.620003,506.966434 C389.688524,497.976868 404.542089,490.785216 410.576349,490.785216 C422.64487,490.785216 423.573218,495.729477 428.679131,574.38818 L431,611.2454 L416.61061,613.94227 C397.115307,617.538097 319.134094,616.189662 285.713575,611.694879 Z" id="Shape" fill-rule="nonzero"></path>
            <path d="M442.733333,565.10987 C440.866667,540.477654 439,452.249534 439,368.5 C439,284.750466 440.866667,196.522346 442.733333,171.89013 L446.466667,128 L465.133333,130.239292 C475.4,131.582868 486.6,135.165736 489.4,137.852886 C496.866667,145.018622 496.866667,591.981378 489.4,599.147114 C486.6,601.834264 475.4,605.417132 465.133333,606.760708 L446.466667,609 L442.733333,565.10987 Z" id="Shape" fill-rule="nonzero"></path>
            <path d="M501,360 L501,315 L536.105263,325.909091 C554.868421,331.818182 576.657895,336.818182 583.921053,336.818182 C610.552632,336.818182 616,341.363636 616,362.272727 C616,381.818182 615.394737,382.272727 596.631579,382.272727 C585.736842,382.272727 549.582403,391.137374 529.608719,397.046465 C509.635034,403.410101 503.421053,405 502.815789,405 C501.605263,405 501,385 501,360 Z" id="Combined-Shape" fill-rule="nonzero"></path>
            <path d="M533.733333,461.983384 C531.866667,449.078356 530,402.877095 530,359 C530,315.122905 531.866667,268.899441 533.733333,255.994413 L537.466667,233 L556.133333,234.173184 C566.4,234.877095 577.6,236.75419 580.4,238.162011 C587.866667,241.916201 587.866667,476.083799 580.4,479.837989 C577.6,481.24581 566.4,483.122905 556.133333,483.826816 L537.466667,485" id="Shape"></path>
            <path d="M193.519654,525.155518 C159.3165,513.51657 127.886574,490.238674 108.473973,462.48426 C101.025548,451.54705 75.4291883,411.400686 76.0097172,366.686766 C76.5459371,325.385641 102.722054,279.254375 108.936178,270.44162 C168.098391,188.521333 287.809431,174.644126 367.770859,241.344251 C382.099207,252.983199 390.881098,257.012065 403.360628,257.012065 L420,257.012065 L420,366.686766 L420,476.361467 L401.974013,476.361467 C391.343303,476.361467 381.637003,479.047378 377.939364,483.523897 C366.384245,496.953452 332.18109,517.097785 305.835417,526.050822 C272.556673,536.794466 227.260604,536.794466 193.519654,525.155518 Z M276.716516,507.697096 C310.91967,501.42997 338.651957,486.65746 360.375582,464.274867 C438.488192,382.354581 397.351965,254.326154 284.111792,227.019392 C218.016508,211.351577 150.996814,242.239554 118.642478,303.567857 C106.162949,327.293404 104.31413,335.351137 103.851925,366.686766 C103.851925,397.127091 105.700744,406.52778 116.793659,427.119765 C139.441694,470.541993 175.955872,498.744059 222.176351,507.249444 C249.908638,512.621266 249.446433,512.621266 276.716516,507.697096 Z" id="Shape" fill-rule="nonzero"></path>
            <path d="M238.076158,418.995423 C220.9307,393.887035 206.102196,371.020467 205.175415,367.881918 C203.785243,364.743369 210.736104,361.156457 223.247654,358.466272 L243.636846,354.430996 L233.905641,310.93968 C227.881561,286.72802 223.711045,267 224.637826,267 C226.027998,267 296,373.262287 296,375.952471 C296,376.8492 288.122357,379.539384 278.854543,381.33284 C269.123337,383.126297 259.855522,385.368117 258.46535,386.264845 C256.611787,387.161573 259.392132,404.199408 264.026039,424.375792 C269.123337,444.552176 272.367072,462.038375 270.9769,462.935103 C270.050119,464.280195 255.221615,444.552176 238.076158,418.995423 Z" id="Shape" fill-rule="nonzero" transform="translate(250.500000, 365.000000) scale(1, -1) translate(-250.500000, -365.000000) "></path>
            <path d="M646.216387,407.259919 C622.859969,395.694602 613.517403,369.895051 624.728483,347.209238 C642.946488,311.178829 697.600505,312.513289 713.949997,349.878157 C721.891179,368.115771 718.154152,384.574106 702.738917,398.808341 C685.922296,414.377037 666.770034,417.045956 646.216387,407.259919 Z" id="Shape" fill-rule="nonzero"></path>
            <path d="M73.7049756,278.954035 C73.7049756,275.377702 66.7541463,274.483618 52.8524878,275.824743 C41.2677724,277.165868 32,276.718827 32,274.93066 C32,265.989825 73.241587,219.497486 99.6547382,198.933567 C151.554263,158.25277 169.626419,100.137346 148.310543,41.1278385 L139.042771,15.6464603 L150.164098,8.49379274 C158.041704,3.57633379 173.333528,0.894083447 195.112793,0.447041723 L228.940163,0 L229.86694,27.2695451 C230.793717,62.5858413 237.744546,84.9379274 253.499759,107.290014 C266.938029,126.065766 267.864806,126.065766 304.472507,120.254224 C315.593834,118.466057 319.300943,115.783806 319.300943,108.631139 C319.300943,103.71368 321.617886,91.6435533 324.861606,82.2556771 C329.032104,68.3973837 331.349047,65.7151333 336.446322,69.7385088 C341.080208,73.7618844 342.006985,80.9145519 339.690042,96.5610122 L336.446322,118.466057 L373.054023,118.466057 C393.443122,118.466057 414.29561,119.807182 419.856273,121.148307 C431.440989,124.277599 431.440989,123.383516 423.099993,216.368194 L420.319662,244.531823 L406.418003,241.849572 C398.540397,240.508447 382.321795,232.014654 370.273691,223.520862 C288.253906,165.405438 188.625353,171.21698 117.726894,238.273239 C105.67879,249.896323 93.1672975,264.6487 89.4601886,271.801368 C82.5093593,283.871494 73.7049756,288.341912 73.7049756,278.954035 Z" id="Shape" fill-rule="nonzero"></path>
            <path d="M92.5911059,288.38898 C78.1919094,312.962272 75.8836846,313.083241 67.268667,335.322604 C64.5857729,342.2484 60.2956037,352.844856 58.1122522,367.416839 C55.9289007,381.988821 56.6752502,378.404469 56.1793657,391.254576 C55.103964,419.122009 64.6012357,433.554476 76.690901,460.663148 C78.0909823,463.802552 91.0285188,485.462312 103.904425,504.259966 C105.222598,506.184379 98.360486,501.754571 83.3180874,490.97054 C73.5665879,492.30094 66.7777458,493.327643 62.9515611,494.050649 C59.1253765,494.773655 52.2666558,496.144205 42.375399,498.1623 C40.1048327,496.259095 36.084416,489.901373 30.3141488,479.089132 C16.7105815,453.59897 8.60054851,414.902113 7.14104367,398.128449 C5.63131057,380.777526 13.7105574,326.159316 20.0365328,324.386458 C21.1589507,324.0719 22.3561744,322.278479 23.6282039,319.006196 C26.4045094,321.547732 28.4760372,322.265163 29.8427871,321.158491 C33.0997522,318.521292 36.2552215,315.969718 39.3092471,313.504699 C107.602171,258.382917 122.706118,236.995489 92.5911059,288.38898 Z" id="Path-2" transform="translate(57.153960, 381.922633) scale(-1, 1) rotate(-177.000000) translate(-57.153960, -381.922633) "></path>
        </g>
    </g>
</svg>