<?xml version="1.0" encoding="UTF-8"?>
<svg width="1200px" height="630px" viewBox="0 0 1200 630" version="1.1" xmlns="http://www.w3.org/2000/svg" xmlns:xlink="http://www.w3.org/1999/xlink">
    <!-- Generator: Sketch 63.1 (92452) - https://sketch.com -->
    <title>phaser_1</title>
    <desc>Created with Sketch.</desc>
    <g id="phaser_1" stroke="none" stroke-width="1" fill="none" fill-rule="evenodd">
        <rect fill="#FFFFFF" x="0" y="0" width="1200" height="630"></rect>
        <g id="logo" transform="translate(57.000000, 191.000000)" fill="#2D313C">
            <g id="Group" transform="translate(143.500000, 124.000000) scale(-1, 1) rotate(-180.000000) translate(-143.500000, -124.000000) translate(2.000000, 0.000000)">
                <path d="M107.943232,246.067425 C72.8991617,241.196589 35.7936758,222.434849 16.3039256,199.704281 C9.55747364,191.766622 -0.93700722,174.448094 0.374802888,173.185284 C0.749605776,172.824482 6.74645198,174.808896 13.6803054,177.514916 C22.6755747,180.942542 27.3606108,184.009365 29.7968296,187.797793 C35.2314715,196.457057 51.9102,210.167559 62.4046809,214.677592 C89.3904888,226.58408 119.749523,222.795652 145.048718,204.033913 C149.921155,200.425886 155.918001,197.539465 158.35422,197.539465 C163.226658,197.539465 163.601461,199.52388 165.662877,231.094114 L166.599884,245.887023 L160.790439,246.969431 C152.919578,248.412642 121.436136,247.871438 107.943232,246.067425 Z" id="Shape" fill-rule="nonzero"></path>
                <path d="M171.28492,227.125284 C170.535314,217.203211 169.785708,181.664147 169.785708,147.929097 C169.785708,114.194047 170.535314,78.6549833 171.28492,68.7329097 L172.784131,51.0535786 L180.280189,51.9555853 C184.403021,52.4967893 188.900656,53.94 190.025064,55.022408 C193.023487,57.9088294 193.023487,237.949365 190.025064,240.835786 C188.900656,241.918194 184.403021,243.361405 180.280189,243.902609 L172.784131,244.804615 L171.28492,227.125284 Z" id="Shape" fill-rule="nonzero"></path>
                <path d="M194.897502,144.862274 L194.897502,126.82214 L209.199191,131.195506 C216.843197,133.564413 225.720108,135.568872 228.679078,135.568872 C239.528635,135.568872 241.747863,137.391108 241.747863,145.773392 C241.747863,153.609006 241.501282,153.791229 233.857276,153.791229 C229.41882,153.791229 214.689703,157.344994 206.552535,159.713901 C198.415367,162.265031 195.883825,162.902408 195.637244,162.902408 C195.144083,162.902408 194.897502,154.884571 194.897502,144.862274 Z" id="Combined-Shape" fill-rule="nonzero"></path>
                <path d="M208.765209,186.147475 C208.015603,180.973954 207.265997,162.452245 207.265997,144.862274 C207.265997,127.272304 208.015603,108.741694 208.765209,103.568173 L210.26442,94.3498997 L217.760478,94.8202197 C221.88331,95.1024118 226.380944,95.8549239 227.505353,96.4193079 C230.503776,97.9243321 230.503776,191.800216 227.505353,193.305241 C226.380944,193.869625 221.88331,194.622137 217.760478,194.904329 L210.26442,195.374649" id="Shape"></path>
                <path d="M71.2125487,211.791171 C57.3448419,207.100736 44.6015437,197.719866 36.730683,186.534983 C33.7107108,182.127345 23.3326384,165.948572 23.5680144,147.929097 C23.7854254,131.284961 34.3985609,112.694303 36.9180845,109.142809 C60.9054693,76.1293645 109.442443,70.5369231 141.862893,97.4167224 C147.672338,102.107157 151.232965,103.730769 156.292804,103.730769 L163.039256,103.730769 L163.039256,147.929097 L163.039256,192.127425 L155.7306,192.127425 C151.420367,192.127425 147.484936,193.209833 145.985725,195.013846 C141.300689,200.425886 127.432982,208.543946 116.7511,212.151973 C103.258196,216.481605 84.8928541,216.481605 71.2125487,211.791171 Z M104.944809,204.755518 C118.812516,202.2299 130.056602,196.276656 138.86447,187.256589 C170.535314,154.243144 153.856586,102.648361 107.943232,91.6438796 C81.1448253,85.3298328 53.9716159,97.7775251 40.8535148,122.492508 C35.7936758,132.053779 35.04407,135.301003 34.8566686,147.929097 C34.8566686,160.196388 35.6062744,163.984816 40.103909,172.283278 C49.2865798,189.782207 64.0912939,201.147492 82.8314383,204.575117 C94.0755249,206.739933 93.8881234,206.739933 104.944809,204.755518 Z" id="Shape" fill-rule="nonzero"></path>
                <path d="M89.0156859,168.494849 C82.0818325,158.392375 76.0849863,149.191906 75.7101834,147.929097 C75.147979,146.666288 77.9590007,145.223077 83.0188397,144.140669 L91.2645032,142.517057 L87.3290729,125.018127 C84.8928541,115.276455 83.2062411,107.338796 83.581044,107.338796 C84.1432484,107.338796 112.440866,150.093913 112.440866,151.176321 C112.440866,151.537124 109.255042,152.619532 105.507013,153.341137 C101.571583,154.062742 97.8235538,154.964749 97.2613494,155.325552 C96.5117437,155.686355 97.6361523,162.541605 99.5101668,170.659666 C101.571583,178.777726 102.883393,185.813378 102.321188,186.174181 C101.946386,186.715385 95.9495393,178.777726 89.0156859,168.494849 Z" id="Shape" fill-rule="nonzero" transform="translate(94.040055, 146.769544) scale(1, -1) translate(-94.040055, -146.769544) "></path>
                <path d="M254.139305,163.804415 C244.769233,159.11398 241.021204,148.650702 245.518839,139.450234 C252.827495,124.837726 274.753464,125.37893 281.312515,140.532642 C284.498339,147.929097 282.999128,154.603946 276.81488,160.376789 C270.068428,166.690836 262.384969,167.773244 254.139305,163.804415 Z" id="Shape" fill-rule="nonzero"></path>
                <path d="M22.4881733,112.570435 C22.4881733,111.127224 19.6771516,110.766421 14.0551083,111.307625 C9.3700722,111.848829 5.62204332,111.668428 5.62204332,110.946823 C5.62204332,107.338796 22.3007718,88.5770569 32.9826541,80.2785953 C53.9716159,63.8620736 61.2802722,40.4098997 52.6598058,16.5969231 L48.9117769,6.31404682 L53.4094115,3.42762542 C56.5952361,1.4432107 62.7794837,0.360802676 71.5873516,0.180401338 L85.267657,0 L85.6424599,11.0044816 C86.0172628,25.2561873 88.8282845,34.2762542 95.1999336,43.2963211 C100.634575,50.8731773 101.009378,50.8731773 115.814092,48.5279599 C120.311727,47.8063545 121.810939,46.7239465 121.810939,43.8375251 C121.810939,41.8531104 122.747946,36.9822742 124.059756,33.1938462 C125.746369,27.6014047 126.683376,26.5189967 128.744792,28.1426087 C130.618806,29.7662207 130.993609,32.6526421 130.056602,38.966689 L128.744792,47.8063545 L143.549506,47.8063545 C151.79517,47.8063545 160.228235,48.3475585 162.477052,48.8887625 C167.162088,50.1515719 167.162088,49.7907692 163.788862,87.3142475 L162.664453,98.6795318 L157.04241,97.5971237 C153.856586,97.0559197 147.297535,93.6282943 142.425097,90.2006689 C109.255042,66.748495 68.9637314,69.0937124 40.2913105,96.153913 C35.4188729,100.844348 30.3590339,106.797592 28.8598224,109.684013 C26.0488007,114.554849 22.4881733,116.358863 22.4881733,112.570435 Z" id="Shape" fill-rule="nonzero"></path>
            </g>
            <path d="M34.335085,58.1076744 C28.7170854,65.0154747 23.7471654,72.2428163 21.8777649,81.3291701 C20.5695279,87.6879486 19.4055714,97.0068491 20.0600245,105.151084 C20.6587944,112.602378 22.906863,118.798957 25.3300089,126.457963 C25.8013329,127.94771 29.0405856,133.836809 30.4402452,137.347679 C30.8826362,138.457361 30.8826362,139.219438 30.4402452,139.633909 C26.3405241,140.169139 23.486364,140.582203 21.8777649,140.8731 C20.2691657,141.163997 16.4617767,140.954769 10.4555978,140.245416 C8.77279187,137.965693 7.704443,136.209446 7.25055121,134.976676 C2.52991224,122.155422 0.897031109,111.90146 0.283113229,105.151084 C-0.351932383,98.1683969 -0.125566999,85.9177233 3.14397527,72.64137 C3.37536683,71.7017778 4.10808315,70.9639776 5.34212422,70.4279693 C6.50939129,71.4508272 7.38032053,71.7395852 7.95491195,71.2942431 C9.32416324,70.232993 10.6507451,69.2061998 11.9346793,68.214238 C40.645514,46.0323773 48.0307817,41.2676701 34.335085,58.1076744 Z" id="Path-2"></path>
        </g>
        <text id="phaser" font-family="Helvetica" font-size="172" font-weight="normal" fill="#2D313C">
            <tspan x="352" y="405">phaser</tspan>
        </text>
    </g>
</svg>