<?xml version="1.0" encoding="UTF-8"?>
<svg width="1024px" height="1024px" viewBox="0 0 1024 1024" version="1.1" xmlns="http://www.w3.org/2000/svg" xmlns:xlink="http://www.w3.org/1999/xlink">
    <!-- Generator: Sketch 63.1 (92452) - https://sketch.com -->
    <title>pixit</title>
    <desc>Created with Sketch.</desc>
    <g id="pixit" stroke="none" stroke-width="1" fill="none" fill-rule="evenodd">
        <rect id="background" fill="#FFFFFF" x="0" y="0" width="1024" height="1024"></rect>
        <g id="Group">
            <path d="M2.69625361,346.552854 C-0.16548859,354.080568 1.44789158,912.018936 4.34613559,918.169673 C5.65290052,920.945541 7.32468359,925.905577 8.06202023,929.196441 C10.6171472,940.595759 21.7940026,961.72157 31.2771738,973.080711 C45.6150862,990.250911 57.6716353,999.856873 78.415616,1010.64623 C82.5841232,1012.81579 89.0923966,1015.43095 92.8776347,1016.46459 C96.6665229,1017.49459 102.554265,1019.43769 105.963535,1020.77815 C111.573864,1022.98423 118.396053,1023.22529 177.926861,1023.30199 L243.692179,1023.38965 L352.515036,914.509911 C433.560013,833.421714 461.341543,804.819324 461.341543,802.459837 C461.341543,800.096697 429.66892,767.692099 336.337432,674.572709 C267.589916,605.975915 164.724155,503.232301 107.755774,446.257624 C4.67100173,343.159722 4.1672767,342.68125 2.69625361,346.552854" id="path0" fill="#FFE15F"></path>
            <path d="M114.378345,4.2064197 C111.363502,4.51320142 108.228503,5.3239817 107.412893,6.00328409 C106.593643,6.68258648 101.951222,8.17997347 97.0903347,9.33040494 C92.2294474,10.4808364 84.2335607,13.5632623 79.3216978,16.1891678 C74.4098348,18.8114211 68.2454285,22.072803 65.6238264,23.4387121 C63.0022242,24.8046213 59.8453782,26.8534849 58.6037583,27.9893077 C57.3657795,29.1251306 54.0268778,31.9153834 51.1904499,34.1906812 C43.4894935,40.3591852 36.3966032,47.4662951 31.8488516,53.5617558 C29.6204898,56.5528777 26.9406298,59.9055637 25.8883478,61.0121692 C24.8397069,62.1187747 23.1502299,65.0222446 22.130718,67.4618897 C21.1148471,69.905187 19.6984537,72.2644846 18.9884365,72.7063964 C18.2747781,73.144656 16.9530537,75.8253439 16.0464163,78.6557705 C15.1397788,81.4898493 13.6287165,84.7366226 12.6856679,85.8724454 C11.7426193,87.0082682 10.2279159,91.3506905 9.31399621,95.5214611 C8.40371768,99.6885796 6.63049509,105.579519 5.37431071,108.610815 C3.38626239,113.420714 3.04035655,122.31008 2.65075734,178.122441 L2.2029003,242.122952 L109.120576,349.434469 C223.207605,463.9444 221.929574,462.775708 227.296576,457.743027 C247.191624,439.087776 679.493823,4.74693988 678.828269,4.08224614 C677.877169,3.1290315 123.721444,3.24955289 114.378345,4.2064197" id="path1" fill="#5FCDFF"></path>
            <path d="M797.209772,567.225145 C788.80759,571.744455 343.794609,1019.13055 346.569809,1020.26769 C348.057695,1020.87465 475.91382,1021.37192 630.694126,1021.37192 L912.11618,1021.37192 L918.997655,1018.45411 C922.783013,1016.85261 928.355293,1015.09754 931.382121,1014.56005 C934.408949,1014.0189 938.434995,1012.56365 940.327674,1011.32779 C942.220353,1010.08827 947.551946,1007.15584 952.176064,1004.80843 C956.803828,1002.46468 964.542297,997.272589 969.377928,993.276144 C974.213559,989.2797 979.100244,985.243034 980.234393,984.310653 C981.372189,983.374614 984.158329,980.204516 986.426627,977.261114 C988.698571,974.317712 992.104664,969.999504 993.997343,967.666721 C999.34717,961.063264 1003.62849,954.686503 1003.62849,953.319009 C1003.62849,952.635262 1005.11273,949.88565 1006.92883,947.205509 C1008.74128,944.525368 1010.67042,940.24738 1011.21379,937.69887 C1011.75352,935.150359 1013.52221,930.272722 1015.13773,926.857645 C1018.04421,920.722206 1020.68084,792.576368 1018.1135,782.312854 C1017.27839,778.974561 804.598149,565.349412 802.125632,565.364038 C801.3124,565.364038 799.098804,566.20501 797.209772,567.225145" id="path2" fill="#FF5F7D"></path>
            <path d="M121.703914,1.64528379 C114.895996,2.21163703 105.781113,3.98012072 101.451452,5.5732176 C97.1217914,7.16631447 92.7520412,8.47075388 91.7425159,8.47075388 C89.9567131,8.47075388 76.9349304,14.8175641 64.8096935,21.5991875 C58.9274777,24.8876903 46.0186743,35.173396 40.5628644,40.9173141 C30.6717034,51.330906 24.0824554,59.7019724 20.6857855,66.173015 C11.6911704,83.2951525 8.24347758,90.6869759 8.24347758,92.8245026 C8.24347758,94.1910582 6.97519312,98.5720746 5.42628249,102.562125 C1.22782358,113.366683 -0.189885203,138.640653 0.272965737,194.285773 L0.677504746,242.908113 L107.949588,350.43119 C166.950327,409.573085 217.2881,459.284284 219.810091,460.906612 L224.394866,463.851649 L253.299361,435.058981 C469.687642,219.483012 682.33667,5.47821641 681.729343,3.89242731 C681.3235,2.84010644 678.619284,1.58316762 675.718266,1.10085389 C668.272561,-0.130507684 136.755681,0.388344967 121.703914,1.64528379 M563.875978,223.557101 C563.901497,227.66773 1013.10744,677.556826 1017.98378,678.357028 C1019.54727,678.612801 1021.35129,677.991639 1021.99272,676.979511 C1023.6619,674.337747 1023.53435,141.596652 1021.86152,130.072277 C1021.12533,124.997021 1019.94816,116.414029 1019.24478,110.995307 C1018.54139,105.580239 1017.01434,99.06535 1015.85175,96.5185874 C1014.68551,93.9718247 1013.06371,89.2802275 1012.24005,86.0867259 C1011.42004,82.8968783 1010.22465,79.9628031 1009.58322,79.5645289 C1008.94543,79.1699085 1006.82433,75.5744789 1004.87088,71.5771211 C992.33382,45.9267999 956.045577,15.8625772 929.280402,8.95672151 C924.899718,7.82766891 919.017502,5.87649062 916.214885,4.61955181 C911.761311,2.62452682 902.959855,2.2737532 846.615953,1.83894006 L782.11567,1.33835687 L672.984894,110.717611 C586.023585,197.881203 563.861407,220.798413 563.875978,223.557101 Z M227.86807,457.73138 C222.496084,462.766443 223.775302,463.935689 109.582322,349.371562 L2.56535346,242.009256 L3.01362642,177.978454 C3.40358744,122.139677 3.74981452,113.246105 5.73970911,108.433929 C6.99706009,105.401199 8.77192944,99.5074709 9.68305334,95.3383803 C10.5978217,91.1656357 12.1139319,86.8211582 13.0578562,85.6847978 C14.0017806,84.5484374 15.5142463,81.3001275 16.4217257,78.4647074 C17.3292051,75.6329412 18.652157,72.9509845 19.3664781,72.5125175 C20.0771547,72.0703966 21.4948635,69.7099824 22.5116778,67.2655287 C23.5321366,64.8247289 25.2231825,61.9198848 26.2727972,60.8127556 C27.3260565,59.7056263 30.0084052,56.3513535 32.2388365,53.3588161 C36.7908115,47.2604705 43.8902889,40.1499968 51.5983971,33.9785733 C54.4374591,31.7021987 57.7794616,28.9106253 59.0185901,27.7742649 C60.2613631,26.6379045 63.4211407,24.5880711 66.0451776,23.2215155 C68.6692144,21.85496 74.8393454,18.5920345 79.7557699,15.9685401 C84.6721945,13.3413918 92.6755068,10.257507 97.5409084,9.10653108 C102.40631,7.95555512 107.053042,6.45745944 107.873053,5.77783554 C108.68942,5.09821165 111.827331,4.28704764 114.844973,3.98012072 C124.196749,3.02280104 678.86711,2.90222261 679.819094,3.85588839 C680.485266,4.52089672 247.781594,439.067301 227.86807,457.73138 Z M798.231629,563.906172 C795.902797,565.170418 692.366322,667.96536 568.154623,792.332879 C343.427736,1017.34685 342.327099,1018.47225 345.301007,1020.89478 C349.925872,1024.65829 916.043594,1023.95674 921.794608,1020.17862 C923.820947,1018.8486 928.744661,1017.07281 932.735384,1016.23241 C936.729751,1015.39202 940.924565,1013.94873 942.058003,1013.02795 C943.195086,1012.10352 947.524747,1009.71387 951.686761,1007.71885 C959.048642,1004.17822 969.770748,996.720631 976.421952,990.509014 C978.229622,988.820916 980.135693,987.439745 980.656856,987.439745 C981.178019,987.439745 984.465354,983.869893 987.960425,979.5108 C991.455496,975.148053 995.089058,970.679343 996.036627,969.575868 C998.98138,966.144863 1006.69678,953.812978 1006.69678,952.53777 C1006.69678,951.869107 1008.0088,949.475808 1009.61602,947.214049 C1011.22324,944.95229 1013.04913,941.133973 1013.67599,938.729712 C1014.30284,936.321797 1016.1834,930.629034 1017.85258,926.079938 C1021.41689,916.382509 1023.82226,792.69096 1020.65155,782.167751 C1019.4598,778.206933 997.334068,755.370108 914.246857,672.339068 C790.64379,548.819252 803.640061,560.968443 798.231629,563.906172 M910.842899,672.364645 C969.581234,731.130189 1017.99107,780.614847 1018.42112,782.324869 C1020.98684,792.581343 1018.35187,920.639293 1015.44721,926.770524 C1013.8327,930.183259 1012.06512,935.057551 1011.52573,937.604313 C1010.9827,940.151076 1009.05477,944.42613 1007.24345,947.104432 C1005.42849,949.782735 1003.94518,952.530462 1003.94518,953.21374 C1003.94518,954.580295 999.666545,960.952683 994.32007,967.551612 C992.428577,969.882795 989.024618,974.198041 986.754097,977.139424 C984.487221,980.080807 981.702826,983.248731 980.565744,984.184128 C979.432305,985.11587 974.548681,989.149767 969.71608,993.143471 C964.883479,997.137174 957.149859,1002.3257 952.524995,1004.66785 C947.903774,1007.01364 942.575522,1009.94407 940.684028,1011.18273 C938.792535,1012.41775 934.769012,1013.872 931.744081,1014.41278 C928.719149,1014.9499 923.15036,1016.70377 919.367374,1018.30417 L912.490211,1021.21998 L631.244486,1021.21998 C476.56116,1021.21998 348.785145,1020.72305 347.298191,1020.1165 C344.99487,1019.1738 377.740662,985.853956 569.40833,794.123286 C777.093555,586.359338 798.319097,565.550423 802.568579,565.524846 C803.377657,565.524846 852.100919,613.599102 910.842899,672.364645" id="path3" fill="#CDFF5F"></path>
        </g>
    </g>
</svg>