<?xml version="1.0" encoding="UTF-8"?>
<svg width="1420px" height="1123px" viewBox="0 0 1420 1123" version="1.1" xmlns="http://www.w3.org/2000/svg" xmlns:xlink="http://www.w3.org/1999/xlink">
    <!-- Generator: Sketch 63.1 (92452) - https://sketch.com -->
    <title>undraw_code_review_l1q9</title>
    <desc>Created with Sketch.</desc>
    <g id="illustrations" stroke="none" stroke-width="1" fill="none" fill-rule="evenodd">
        <g id="Artboard" transform="translate(-2132.000000, -3372.000000)">
            <g id="undraw_code_review_l1q9" transform="translate(2132.000000, 3372.000000)">
                <path d="M1399.09204,662.479352 C1357.80167,587.146889 1350.62572,498.31035 1379.42449,416.452454 C1398.08274,363.415542 1400.99982,281.488512 1385.60301,227.122701 C1336.12343,52.460771 1107.29276,-51.60434 886.651283,26.1477953 C684.351413,97.4359491 634.820381,391.556715 479.486727,359.582474 C114.142922,284.380596 -17.4463928,537.075036 1.82535037,742.781745 C14.2734162,875.656319 129.116224,1040.002 374.432176,1022.74551 C446.658664,1017.6642 517.59087,1034.8938 578.715029,1069.19553 C683.10067,1127.77465 849.01419,1141.50917 1021.37537,1095.53539 C1280.63158,1026.3827 1456.24628,848.35243 1413.626,697.894905 C1410.11917,685.504646 1405.23889,673.6905 1399.09204,662.479352" id="Fill-3" fill="#7191F8" opacity="0.676106771"></path>
                <path d="M728.86427,913.93794 C486.46543,895.49137 197.39354,707.67166 212.11062,514.28054 C226.8277,320.88942 506.79694,140.85846 749.19577,159.305 C991.5946,177.75154 1131.12766,539.167 1116.41058,732.55809 C1101.6935,925.94918 971.2631,932.38451 728.86427,913.93794 Z" id="Path" fill="#F2F2F2" fill-rule="nonzero"></path>
                <ellipse id="Oval" fill="#3F3D56" fill-rule="nonzero" cx="749.19355" cy="914" rx="506" ry="31"></ellipse>
                <ellipse id="Oval" fill="#000000" fill-rule="nonzero" opacity="0.1" cx="749.19355" cy="913.5" rx="431" ry="20.5"></ellipse>
                <ellipse id="Oval" fill="#3F3D56" fill-rule="nonzero" cx="396.19355" cy="994.5" rx="212.19355" ry="18.5"></ellipse>
                <ellipse id="Oval" fill="#000000" fill-rule="nonzero" opacity="0.1" cx="396.19355" cy="994.20161" rx="180.74194" ry="12.23387"></ellipse>
                <rect id="Rectangle" fill="#3F3D56" fill-rule="nonzero" x="380.19355" y="320" width="752" height="590"></rect>
                <path d="M747.63812,400.629145 L562.1204,400.629145 C561.314913,400.630838 560.569885,400.20209 560.166651,399.504799 C559.763417,398.807509 559.763417,397.947921 560.166651,397.250631 C560.569885,396.55334 561.314913,396.124592 562.1204,396.126285 L747.63812,396.126285 C748.879695,396.128907 749.884805,397.136137 749.884805,398.377715 C749.884805,399.619293 748.879695,400.626523 747.63812,400.629145 L747.63812,400.629145 Z" id="Path" fill="#F2F2F2" fill-rule="nonzero"></path>
                <path d="M950.71697,425.39486 L658.93183,425.39486 C657.6884,425.39486 656.6804,424.38686 656.6804,423.14343 C656.6804,421.9 657.6884,420.892 658.93183,420.892 L950.71697,420.892 C951.521329,420.892 952.264587,421.32112 952.666766,422.017715 C953.068945,422.71431 953.068945,423.57255 952.666766,424.269145 C952.264587,424.96574 951.521329,425.39486 950.71697,425.39486 Z" id="Path" fill="#F2F2F2" fill-rule="nonzero"></path>
                <path d="M748.53869,450.16057 L563.02097,450.16057 C561.77754,450.16057 560.76954,449.15257 560.76954,447.90914 C560.76954,446.66571 561.77754,445.65771 563.02097,445.65771 L748.53869,445.65771 C749.78212,445.65771 750.79012,446.66571 750.79012,447.90914 C750.79012,449.15257 749.78212,450.16057 748.53869,450.16057 L748.53869,450.16057 Z" id="Path" fill="#F2F2F2" fill-rule="nonzero"></path>
                <path d="M950.71697,450.61086 L765.19926,450.61086 C763.95583,450.61086 762.94783,449.60286 762.94783,448.35943 C762.94783,447.116 763.95583,446.108 765.19926,446.108 L950.71697,446.108 C951.9604,446.108 952.9684,447.116 952.9684,448.35943 C952.9684,449.60286 951.9604,450.61086 950.71697,450.61086 L950.71697,450.61086 Z" id="Path" fill="#F2F2F2" fill-rule="nonzero"></path>
                <path d="M748.98897,474.92629 L563.47126,474.92629 C562.22783,474.92629 561.21983,473.91829 561.21983,472.67486 C561.21983,471.43143 562.22783,470.42343 563.47126,470.42343 L748.98897,470.42343 C750.2324,470.42343 751.2404,471.43143 751.2404,472.67486 C751.2404,473.91829 750.2324,474.92629 748.98897,474.92629 Z" id="Path" fill="#F2F2F2" fill-rule="nonzero"></path>
                <path d="M749.43926,499.692 L563.92154,499.692 C562.67811,499.692 561.67011,498.684 561.67011,497.44057 C561.67011,496.19714 562.67811,495.18914 563.92154,495.18914 L749.43926,495.18914 C750.68269,495.18914 751.69069,496.19714 751.69069,497.44057 C751.69069,498.684 750.68269,499.692 749.43926,499.692 L749.43926,499.692 Z" id="Path" fill="#F2F2F2" fill-rule="nonzero"></path>
                <path d="M833.64269,401.07943 L780.50897,401.07943 C779.26554,401.07943 778.25754,400.07143 778.25754,398.828 C778.25754,397.58457 779.26554,396.57657 780.50897,396.57657 L833.64269,396.57657 C834.88612,396.57657 835.89412,397.58457 835.89412,398.828 C835.89412,400.07143 834.88612,401.07943 833.64269,401.07943 L833.64269,401.07943 Z" id="Path" fill="#F2F2F2" fill-rule="nonzero"></path>
                <path d="M833.64269,474.92629 L780.50897,474.92629 C779.26554,474.92629 778.25754,473.91829 778.25754,472.67486 C778.25754,471.43143 779.26554,470.42343 780.50897,470.42343 L833.64269,470.42343 C834.88612,470.42343 835.89412,471.43143 835.89412,472.67486 C835.89412,473.91829 834.88612,474.92629 833.64269,474.92629 L833.64269,474.92629 Z" id="Path" fill="#F2F2F2" fill-rule="nonzero"></path>
                <path d="M833.64269,499.241715 L780.50897,499.241715 C779.703483,499.243408 778.958455,498.81466 778.555221,498.117369 C778.151987,497.420079 778.151987,496.560491 778.555221,495.863201 C778.958455,495.16591 779.703483,494.737162 780.50897,494.738855 L833.64269,494.738855 C834.448177,494.737162 835.193205,495.16591 835.596439,495.863201 C835.999673,496.560491 835.999673,497.420079 835.596439,498.117369 C835.193205,498.81466 834.448177,499.243408 833.64269,499.241715 L833.64269,499.241715 Z" id="Path" fill="#F2F2F2" fill-rule="nonzero"></path>
                <path d="M922.79926,499.241715 L869.66554,499.241715 C868.423965,499.239093 867.418855,498.231863 867.418855,496.990285 C867.418855,495.748707 868.423965,494.741477 869.66554,494.738855 L922.79926,494.738855 C923.604747,494.737162 924.349775,495.16591 924.753009,495.863201 C925.156243,496.560491 925.156243,497.420079 924.753009,498.117369 C924.349775,498.81466 923.604747,499.243408 922.79926,499.241715 Z" id="Path" fill="#F2F2F2" fill-rule="nonzero"></path>
                <path d="M614.80383,425.39486 L561.67012,425.39486 C560.42669,425.39486 559.41869,424.38686 559.41869,423.14343 C559.41869,421.9 560.42669,420.892 561.67012,420.892 L614.80383,420.892 C616.04726,420.892 617.05526,421.9 617.05526,423.14343 C617.05526,424.38686 616.04726,425.39486 614.80383,425.39486 Z" id="Path" fill="#F2F2F2" fill-rule="nonzero"></path>
                <path d="M747.86326,765.36057 L562.34554,765.36057 C561.10211,765.36057 560.09411,764.35257 560.09411,763.10914 C560.09411,761.86571 561.10211,760.85771 562.34554,760.85771 L747.86326,760.85771 C749.10669,760.85771 750.11469,761.86571 750.11469,763.10914 C750.11469,764.35257 749.10669,765.36057 747.86326,765.36057 Z" id="Path" fill="#F2F2F2" fill-rule="nonzero"></path>
                <path d="M746.96269,814.892 L561.44497,814.892 C560.20154,814.892 559.19354,813.884 559.19354,812.64057 C559.19354,811.39714 560.20154,810.38914 561.44497,810.38914 L746.96269,810.38914 C748.20612,810.38914 749.21412,811.39714 749.21412,812.64057 C749.21412,813.884 748.20612,814.892 746.96269,814.892 Z" id="Path" fill="#F2F2F2" fill-rule="nonzero"></path>
                <path d="M747.41297,839.657715 L561.89526,839.657715 C561.089773,839.659408 560.344745,839.23066 559.941511,838.533369 C559.538277,837.836079 559.538277,836.976491 559.941511,836.279201 C560.344745,835.58191 561.089773,835.153162 561.89526,835.154855 L747.41297,835.154855 C748.218457,835.153162 748.963485,835.58191 749.366719,836.279201 C749.769953,836.976491 749.769953,837.836079 749.366719,838.533369 C748.963485,839.23066 748.218457,839.659408 747.41297,839.657715 Z" id="Path" fill="#F2F2F2" fill-rule="nonzero"></path>
                <path d="M826.66326,815.34229 L773.52954,815.34229 C772.28611,815.34229 771.27811,814.33429 771.27811,813.09086 C771.27811,811.84743 772.28611,810.83943 773.52954,810.83943 L826.66326,810.83943 C827.90669,810.83943 828.91469,811.84743 828.91469,813.09086 C828.91469,814.33429 827.90669,815.34229 826.66326,815.34229 Z" id="Path" fill="#F2F2F2" fill-rule="nonzero"></path>
                <path d="M826.66326,839.65771 L773.52954,839.65771 C772.286112,839.65771 771.278115,838.649713 771.278115,837.406285 C771.278115,836.162857 772.286112,835.15486 773.52954,835.15486 L826.66326,835.15486 C827.906688,835.15486 828.914685,836.162857 828.914685,837.406285 C828.914685,838.649713 827.906688,839.65771 826.66326,839.65771 L826.66326,839.65771 Z" id="Path-2" fill="#F2F2F2" fill-rule="nonzero"></path>
                <path d="M915.81983,815.34229 L862.68612,815.34229 C861.44269,815.34229 860.43469,814.33429 860.43469,813.09086 C860.43469,811.84743 861.44269,810.83943 862.68612,810.83943 L915.81983,810.83943 C917.06326,810.83943 918.07126,811.84743 918.07126,813.09086 C918.07126,814.33429 917.06326,815.34229 915.81983,815.34229 L915.81983,815.34229 Z" id="Path" fill="#F2F2F2" fill-rule="nonzero"></path>
                <path d="M950.94212,790.12629 L659.15697,790.12629 C657.91354,790.12629 656.90554,789.11829 656.90554,787.87486 C656.90554,786.63143 657.91354,785.62343 659.15697,785.62343 L950.94212,785.62343 C952.18555,785.62343 953.19355,786.63143 953.19355,787.87486 C953.19355,789.11829 952.18555,790.12629 950.94212,790.12629 L950.94212,790.12629 Z" id="Path" fill="#F2F2F2" fill-rule="nonzero"></path>
                <path d="M615.02897,790.12629 L561.89526,790.12629 C560.65183,790.12629 559.64383,789.11829 559.64383,787.87486 C559.64383,786.63143 560.65183,785.62343 561.89526,785.62343 L615.02897,785.62343 C616.2724,785.62343 617.2804,786.63143 617.2804,787.87486 C617.2804,789.11829 616.2724,790.12629 615.02897,790.12629 L615.02897,790.12629 Z" id="Path" fill="#F2F2F2" fill-rule="nonzero"></path>
                <path d="M950.94212,864.873715 L659.15697,864.873715 C658.351483,864.875408 657.606455,864.44666 657.203221,863.749369 C656.799987,863.052079 656.799987,862.192491 657.203221,861.495201 C657.606455,860.79791 658.351483,860.369162 659.15697,860.370855 L950.94212,860.370855 C952.185548,860.370855 953.193545,861.378857 953.193545,862.622285 C953.193545,863.865713 952.185548,864.873715 950.94212,864.873715 L950.94212,864.873715 Z" id="Path" fill="#F2F2F2" fill-rule="nonzero"></path>
                <path d="M615.02897,864.873715 L561.89526,864.873715 C561.089773,864.875408 560.344745,864.44666 559.941511,863.749369 C559.538277,863.052079 559.538277,862.192491 559.941511,861.495201 C560.344745,860.79791 561.089773,860.369162 561.89526,860.370855 L615.02897,860.370855 C615.834457,860.369162 616.579485,860.79791 616.982719,861.495201 C617.385953,862.192491 617.385953,863.052079 616.982719,863.749369 C616.579485,864.44666 615.834457,864.875408 615.02897,864.873715 L615.02897,864.873715 Z" id="Path" fill="#F2F2F2" fill-rule="nonzero"></path>
                <polygon id="Path" fill="#6C63FF" fill-rule="nonzero" points="703.06 559.13 631.014 630.275 703.06 701.42 719.27 685.21 664.786 630.725 719.72 575.79"></polygon>
                <polygon id="Path" fill="#6C63FF" fill-rule="nonzero" points="809.327 559.13 881.373 630.275 809.327 701.42 793.117 685.21 847.602 630.725 792.667 575.79"></polygon>
                <circle id="Oval" fill="#6C63FF" fill-rule="nonzero" cx="400.19355" cy="335" r="9"></circle>
                <circle id="Oval" fill="#6C63FF" fill-rule="nonzero" cx="424.19355" cy="335" r="9"></circle>
                <circle id="Oval" fill="#6C63FF" fill-rule="nonzero" cx="448.19355" cy="335" r="9"></circle>
                <rect id="Rectangle" fill="#000000" fill-rule="nonzero" opacity="0.1" x="380.19355" y="350" width="752" height="3"></rect>
                <path d="M1310.19354,765.45357 C1310.19354,829.22465 1272.28265,851.49113 1225.51719,851.49113 C1178.75173,851.49113 1140.84084,829.22465 1140.84084,765.45357 C1140.84084,701.68249 1225.51719,620.55557 1225.51719,620.55557 C1225.51719,620.55557 1310.19354,701.68249 1310.19354,765.45357 Z" id="Path" fill="#F2F2F2" fill-rule="nonzero"></path>
                <polygon id="Path" fill="#3F3D56" fill-rule="nonzero" points="1222.433 841.736 1223.3 788.365 1259.391 722.338 1223.436 779.993 1223.826 755.995 1248.699 708.226 1223.929 749.645 1223.929 749.645 1224.63 706.484 1251.265 668.453 1224.74 699.697 1225.178 620.556 1222.425 725.325 1222.651 721.003 1195.571 679.552 1222.217 729.3 1219.694 777.503 1219.619 776.223 1188.4 732.602 1219.524 780.743 1219.209 786.771 1219.152 786.862 1219.178 787.357 1212.776 909.653 1221.329 909.653 1222.355 846.485 1253.404 798.461"></polygon>
                <path d="M306.62158,909.09144 C304.023599,910.537759 301.283004,911.711513 298.44353,912.59397 C293.3647,913.98136 287.93635,913.47237 282.80637,914.65671 C280.70603,915.14161 278.42008,916.15587 277.75213,918.20537 C277.26218,919.70868 277.79519,921.33205 278.3056,922.82854 C283.97412,939.44845 287.39075,957.09479 296.43078,972.14906 C300.22997,978.471929 304.945449,984.1967 310.42347,989.13672 C312.47859,990.989 314.80752,992.80102 317.55888,993.09163 C320.139731,993.364239 322.669368,992.236112 324.191128,990.133886 C325.712888,988.03166 325.994487,985.276223 324.92943,982.90963 C324.11887,981.10853 322.61216,979.71344 321.64043,977.99394 C320.586722,975.803602 319.968771,973.429344 319.82095,971.00323 C318.92783,963.89492 318.06745,956.46559 320.53037,949.73806 C322.18227,945.22586 325.21244,941.37912 327.73678,937.29056 C330.26112,933.202 332.35849,928.51866 331.79678,923.74656 C331.41346,920.48997 329.82489,917.50971 328.14678,914.69256 C326.46532,911.86986 323.14206,904.28419 319.76391,903.34221 C316.25724,902.36441 309.67977,907.52411 306.62158,909.09144 Z" id="Path" fill="#2F2E41" fill-rule="nonzero"></path>
                <path d="M399.05658,966.50007 C399.109464,968.108179 398.885118,969.71339 398.39337,971.24538 C397.33581,974.03791 394.71237,975.95146 393.35706,978.61223 C391.47206,982.31284 392.32643,986.78595 393.57529,990.74677 C394.35824,993.22993 395.38519,995.81377 397.48775,997.34948 C399.285834,998.464048 401.330556,999.119034 403.44158,999.25667 C421.47785,1001.75286 439.79951,1000.32067 458.00018,1000.84367 C461.31749,1000.93899 464.82962,1001.05514 467.72539,999.43398 C470.62116,997.81282 472.41139,993.73718 470.4419,991.06609 C468.67336,988.66755 465.17653,988.68988 462.19982,988.54853 C454.448385,988.154721 447.06659,985.113903 441.28682,979.93374 C440.14696,978.959948 439.158351,977.82196 438.35347,976.55716 C437.73447,975.434544 437.220821,974.256987 436.81911,973.03959 C434.267658,966.128333 431.232292,959.405488 427.73557,952.92102 C426.7568,951.1061 425.64857,949.21602 423.82957,948.24471 C422.497998,947.639325 421.052971,947.323843 419.59025,947.31917 C415.05394,947.02517 403.30706,945.48132 399.79925,949.0088 C396.55814,952.26814 399.12844,962.36031 399.05658,966.50007 Z" id="Path" fill="#2F2E41" fill-rule="nonzero"></path>
                <circle id="Oval" fill="#FBBEBE" fill-rule="nonzero" cx="426.9708" cy="534.72033" r="28.97496"></circle>
                <path d="M400.80577,558.64584 C399.08235,563.25974 396.15906,567.59295 391.90538,570.07579 L431.97998,578.25045 C430.526454,572.401519 430.334938,566.310138 431.41817,560.38145 C431.815863,558.946394 431.897659,557.442168 431.65792,555.97245 C430.90438,553.06499 427.63146,551.66552 424.70303,550.99796 C417.38897,549.33065 410.92093,548.43655 404.12411,545.20623 C402.04657,548.76279 402.33746,554.54525 400.80577,558.64584 Z" id="Path" fill="#FBBEBE" fill-rule="nonzero"></path>
                <path d="M391.57062,559.22685 C400.304892,555.274471 410.367793,555.53741 418.88374,559.94053 C424.0215,562.64802 428.27565,566.73485 432.45525,570.76698 C436.30789,574.48369 440.41769,578.73936 440.69113,584.08557 C440.82358,586.6755 440.01522,589.20843 439.60707,591.76942 C438.103486,602.625323 443.631756,613.244359 453.38707,618.23888 C456.57067,623.54227 457.22772,629.96758 457.27655,636.15296 C457.46155,659.58888 450.0674,683.3139 455.34614,706.14834 C456.58551,711.50951 458.50775,716.70225 459.57844,722.09963 C460.96525,729.09063 460.89679,736.27922 461.62235,743.3694 C462.409211,751.047333 464.126203,758.601193 466.73557,765.86487 C464.99157,768.63857 461.362,769.70215 458.09329,769.47751 C454.82458,769.25287 451.76809,767.8344 448.85138,766.34184 C434.72811,759.11457 421.7922,749.58455 407.16438,743.44229 C397.48674,739.37862 387.17692,736.84741 377.78849,732.15406 C368.40006,727.46071 359.66861,720.01212 356.798,709.91606 C355.55676,705.5506 355.48035,700.95098 355.4126,696.413 C355.12726,677.29924 354.86214,657.97683 359.0226,639.31918 C362.6916,622.86556 369.76405,607.12538 371.30698,590.33841 C371.80921,584.87417 371.81993,579.02463 374.87292,574.46509 C379.18812,568.02045 388.5054,566.35143 391.57062,559.22685 Z" id="Path" fill="#2F2E41" fill-rule="nonzero"></path>
                <path d="M410.49157,535.12932 C412.19892,532.90249 415.49181,532.59881 418.21943,533.25751 C420.94705,533.91621 423.46208,535.322 426.21681,535.85609 C427.482942,536.215525 428.84193,536.024651 429.96006,535.33034 C430.92304,534.38202 431.498864,533.109417 431.57553,531.76006 C432.540448,526.018987 432.765913,520.177952 432.24642,514.37958 C432.102976,513.566131 432.157433,512.730107 432.40519,511.94214 C433.08719,510.29874 435.16789,509.90758 436.86728,509.38038 C442.634974,507.430852 446.345835,501.817729 445.88017,495.7473 C445.837675,494.331928 445.243051,492.989368 444.22347,492.00675 C443.04824,491.0491 441.40333,490.99026 439.88738,490.97808 C432.098667,490.915533 424.309797,490.917417 416.52077,490.98373 C413.63799,491.00828 410.61048,491.07925 408.1114,492.51649 C406.26371,493.57912 404.88969,495.28949 403.23094,496.62803 C398.90473,500.11914 393.05309,500.82948 387.78978,502.61874 C385.220445,503.350402 382.887313,504.741707 381.02225,506.65439 C379.2719,508.65404 378.43035,511.6275 379.52964,514.04697 C380.09399,515.055411 380.724311,516.025488 381.41649,516.95087 C384.52112,521.91503 382.45427,528.35393 382.91788,534.19059 C383.4968,541.47897 394.28283,553.30216 401.59667,555.02685 C413.40438,557.81124 406.58277,539.91359 410.49157,535.12932 Z" id="Path" fill="#2F2E41" fill-rule="nonzero"></path>
                <path d="M394.13427,854.6826 C394.87939,860.00428 395.83497,865.34432 395.57952,870.71184 C395.22288,878.20549 392.5204,885.42565 392.0208,892.91113 C391.64765,898.50197 392.51069,904.15327 391.73428,909.7025 C391.23713,913.25575 390.07843,916.68099 389.36113,920.19642 C387.065719,931.771777 389.583449,943.782761 396.3342,953.46187 C396.825024,954.281666 397.522828,954.957954 398.35759,955.42287 C399.158258,955.719465 400.015219,955.832844 400.86547,955.75467 C409.29879,955.583046 417.709607,954.818664 426.0357,953.46718 C426.645181,953.442186 427.222611,953.187412 427.65192,952.75407 C427.839668,952.46676 427.959688,952.140551 428.00292,951.80007 C429.54671,943.86407 426.02616,935.90675 425.13092,927.8717 C424.17499,919.29202 426.23363,910.69437 428.27704,902.30693 C429.203632,898.16948 430.361238,894.087176 431.74442,890.0792 C432.73212,887.38185 433.92496,884.75834 434.78102,882.01636 C435.993476,877.708778 436.731854,873.281661 436.98302,868.81375 C437.577427,861.76359 437.892347,854.697283 437.92778,847.61483 C438.129696,840.903364 437.571102,834.190614 436.26267,827.60483 C434.38467,819.26683 430.53887,811.52417 426.72676,803.87455 C424.688437,804.363074 422.774844,805.272578 421.10892,806.54463 C416.196464,809.726294 411.067254,812.560081 405.75892,815.0252 C402.19237,816.68196 395.23697,817.85862 392.97338,821.31097 C390.7411,824.71558 392.18138,831.66179 392.35193,835.41669 C392.644617,841.86173 393.23873,848.2837 394.13427,854.6826 Z" id="Path" fill="#2F2E41" fill-rule="nonzero"></path>
                <path d="M394.13427,854.6826 C394.87939,860.00428 395.83497,865.34432 395.57952,870.71184 C395.22288,878.20549 392.5204,885.42565 392.0208,892.91113 C391.64765,898.50197 392.51069,904.15327 391.73428,909.7025 C391.23713,913.25575 390.07843,916.68099 389.36113,920.19642 C387.065719,931.771777 389.583449,943.782761 396.3342,953.46187 C396.825024,954.281666 397.522828,954.957954 398.35759,955.42287 C399.158258,955.719465 400.015219,955.832844 400.86547,955.75467 C409.29879,955.583046 417.709607,954.818664 426.0357,953.46718 C426.645181,953.442186 427.222611,953.187412 427.65192,952.75407 C427.839668,952.46676 427.959688,952.140551 428.00292,951.80007 C429.54671,943.86407 426.02616,935.90675 425.13092,927.8717 C424.17499,919.29202 426.23363,910.69437 428.27704,902.30693 C429.203632,898.16948 430.361238,894.087176 431.74442,890.0792 C432.73212,887.38185 433.92496,884.75834 434.78102,882.01636 C435.993476,877.708778 436.731854,873.281661 436.98302,868.81375 C437.577427,861.76359 437.892347,854.697283 437.92778,847.61483 C438.129696,840.903364 437.571102,834.190614 436.26267,827.60483 C434.38467,819.26683 430.53887,811.52417 426.72676,803.87455 C424.688437,804.363074 422.774844,805.272578 421.10892,806.54463 C416.196464,809.726294 411.067254,812.560081 405.75892,815.0252 C402.19237,816.68196 395.23697,817.85862 392.97338,821.31097 C390.7411,824.71558 392.18138,831.66179 392.35193,835.41669 C392.644617,841.86173 393.23873,848.2837 394.13427,854.6826 Z" id="Path" fill="#000000" fill-rule="nonzero" opacity="0.1"></path>
                <path d="M354.96115,741.018 C351.11339,751.37741 356.76931,762.57175 361.68315,772.47009 C373.78915,796.85624 382.19582,822.87754 390.55762,848.78736 C391.18397,850.72816 391.80982,852.84554 391.11155,854.76164 C390.508544,856.123041 389.529647,857.284149 388.28979,858.10864 C382.5243,862.48779 375.18302,864.04737 368.31506,866.33844 C361.677734,868.553535 355.320755,871.533565 349.37241,875.21839 C344.39563,878.30226 339.7335,881.86225 335.08052,885.41589 L320.26852,896.72837 C319.309552,897.376415 318.47161,898.187551 317.79274,899.12495 C316.36414,901.36626 316.9493,904.29229 317.66056,906.85324 C319.544151,913.634093 321.969325,920.252706 324.91269,926.64524 C325.396973,928.046477 326.319026,929.254837 327.54269,930.09188 C329.85462,931.33429 332.6824,929.68688 334.44784,927.74474 C336.21328,925.8026 337.74026,923.3858 340.22892,922.55204 C342.71466,921.71926 345.45052,922.72777 348.04659,922.36333 C352.24526,921.7739 355.0328,917.90609 358.05932,914.93684 C370.42465,902.80551 391.06941,903.6856 404.67176,892.95961 C406.638019,891.200118 408.719656,889.573985 410.90276,888.09208 C413.2023,886.73279 415.81008,885.98675 418.19592,884.78535 C425.45255,881.13124 430.01457,873.57681 432.45836,865.82835 C434.90215,858.07989 435.5991,849.90049 437.35522,841.96782 C438.26308,837.8669 439.45813,833.81013 439.86198,829.62937 C440.12173,825.740814 440.03704,821.836903 439.6089,817.96327 L434.70077,757.24782 C434.30117,752.30451 433.9009,747.35543 433.12503,742.45706 C418.54839,742.97816 403.98219,743.5646 389.39725,743.73706 C377.79168,743.87423 365.97286,744.68554 354.96115,741.018 Z" id="Path" fill="#2F2E41" fill-rule="nonzero"></path>
                <path d="M349.6025,755.221 C351.57987,758.40111 356.39266,758.33542 359.70677,756.59192 C363.02088,754.84842 365.59557,751.91933 368.91748,750.19074 C373.38135,747.86792 378.66359,747.95527 383.69365,748.09734 C391.65722,748.32226 399.71856,748.56166 407.38057,750.74405 C415.30543,753.00132 423.02026,757.34737 431.21457,756.48035 C432.64047,756.32948 434.19962,755.92056 434.97563,754.71484 C435.430351,753.841368 435.644234,752.862549 435.59529,751.87902 L435.86323,744.72002 C436.02746,743.481887 435.82948,742.222689 435.29323,741.09469 C434.605521,740.155989 433.66294,739.434293 432.57735,739.01525 C420.91397,733.36913 407.61277,732.31783 394.66224,731.87418 C388.079187,731.64866 381.49336,731.555903 374.90476,731.59591 C369.31376,731.63 362.60176,730.82105 357.16603,732.31497 C349.87093,734.31994 345.90147,749.26883 349.6025,755.221 Z" id="Path" fill="#2F2E41" fill-rule="nonzero"></path>
                <path d="M422.83926,567.72556 C407.55709,567.59019 393.70826,557.50305 378.42746,557.25732 C376.581263,557.129614 374.731483,557.448781 373.03483,558.18778 C370.90551,559.26041 369.50555,561.33446 367.88804,563.08607 C363.36976,567.97892 356.82684,570.59138 352.18504,575.36716 C347.8327,579.84509 345.41217,586.51673 347.13048,592.52023 C348.84879,598.52373 355.33401,603.12872 361.40948,601.68546 C363.857238,593.762468 368.909171,586.89841 375.74632,582.206 C379.303826,579.924136 383.053065,577.956022 386.95165,576.32391 C393.81957,573.21224 401.49943,570.04109 408.66952,572.3736 C411.313796,573.372161 413.80717,574.731836 416.0787,576.41394 L428.03258,584.44394 C426.6397,578.94994 425.38721,572.78837 422.83926,567.72556 Z" id="Path" fill="#6C63FF" fill-rule="nonzero"></path>
                <path d="M359.6492,596.37394 C357.6199,598.90552 360.5432,602.57359 360.09576,605.78711 C359.7985,607.92223 358.04145,609.5525 357.30976,611.58024 C356.55185,613.68063 356.95376,616.00724 356.66632,618.22156 C356.377867,619.831792 355.951257,621.414186 355.39122,622.9512 C354.103793,627.542786 353.20516,632.234597 352.70484,636.97694 L350.02994,656.95249 C349.565763,659.958702 349.283251,662.990165 349.18394,666.03038 C349.318783,668.302646 349.166885,670.582848 348.73183,672.81715 C348.13951,675.00015 346.82797,676.9099 345.94567,678.99262 C345.06337,681.07534 344.6544,683.59462 345.8463,685.51697 C341.85486,688.84153 340.66804,695.37073 343.45898,699.75197 C343.99028,700.434586 344.405854,701.199831 344.68911,702.01715 C344.843367,703.159679 344.654807,704.322282 344.14735,705.35749 L341.44265,712.56414 C340.75033,714.40883 340.53137,717.21728 342.45617,717.63836 C340.861844,719.294118 339.61972,721.255895 338.80484,723.40517 C338.001575,725.597971 338.367917,728.048712 339.77731,729.91076 C340.449306,730.500335 341.021501,731.194738 341.47172,731.96706 C341.736241,733.043011 341.667944,734.173912 341.27586,735.21021 C340.458407,738.391353 340.991447,741.768881 342.74886,744.54366 C344.589818,747.311076 347.893633,748.727236 351.16732,748.15218 C356.57777,746.93187 361.43958,745.00548 366.89487,746.00647 C378.64087,748.16176 390.42466,750.32636 401.80105,753.95847 C414.78505,758.10387 427.35711,764.1829 440.92691,765.45892 C441.819699,765.641573 442.7484,765.497119 443.54353,765.05192 C444.234965,764.396718 444.664946,763.512723 444.75353,762.56429 C446.15153,756.00935 447.549547,749.454413 448.94758,742.89948 C450.637691,735.633602 451.924739,728.279827 452.80283,720.87183 C453.28025,716.09058 453.41634,711.2826 453.55213,706.47949 L454.63297,668.24843 C455.139394,662.613998 454.387964,656.937424 452.43297,651.62882 L446.21549,631.78052 C442.66736,620.45367 434.52776,610.40927 431.62973,598.89892 C429.79556,591.61392 428.4406,583.796 423.52184,578.11792 C416.50947,570.023 404.37714,568.76392 393.75811,570.1557 C388.96084,570.78446 384.1225,571.86952 379.97289,574.35746 C375.17464,577.23428 371.63981,581.76607 368.22003,586.19376 C365.40166,589.84281 362.533,592.77636 359.6492,596.37394 Z" id="Path" fill="#6C63FF" fill-rule="nonzero"></path>
                <path d="M384.44412,708.82348 C385.31903,712.59604 387.15645,716.07455 388.28112,719.78032 C390.16549,725.9891 390.00555,732.67593 391.88623,738.88583 C392.6756,741.49229 393.81928,743.99483 394.38584,746.65859 C395.70675,752.86916 393.77811,759.29419 391.38234,765.17435 C388.98657,771.05451 386.06887,776.85235 385.29114,783.15397 C384.74336,787.59246 385.53027,792.60409 388.95132,795.48448 C392.50301,798.47486 397.6644,798.27235 402.29026,797.87448 C403.950989,797.828041 405.590234,797.486706 407.13147,796.86641 C410.66913,795.1928 412.15914,791.00657 412.98608,787.18141 C415.75736,774.36229 414.96565,761.0752 414.1603,747.9847 L412.05417,713.7505 C411.6487,707.15969 411.21429,700.43241 409.18336,694.10406 C408.44458,691.80206 407.1569,687.15024 405.05419,685.68035 C402.97159,684.22451 397.02425,684.15967 394.44566,684.03858 C382.34785,683.47044 382.48347,700.356 384.44412,708.82348 Z" id="Path" fill="#FBBEBE" fill-rule="nonzero"></path>
                <path d="M397.84814,582.4235 C395.37742,581.12968 392.26457,581.6875 389.87635,583.12796 C387.570417,584.706948 385.550804,586.667811 383.90445,588.92614 C378.56553,595.44301 372.91373,602.92078 373.70556,611.30808 C374.00245,614.4528 375.20656,617.42895 376.02293,620.48034 C379.60237,633.85998 375.64419,648.01049 376.09835,661.85321 C376.36078,669.85194 378.10128,677.71959 379.83465,685.53266 C380.1884,687.12717 380.75499,688.97301 382.29749,689.50993 C383.45622,689.91327 384.70782,689.39472 385.85464,688.95866 C394.525331,685.754713 404.213258,686.975759 411.81777,692.231 C414.68277,690.70231 413.60922,685.86839 412.9669,682.68521 C411.05848,673.22754 413.64908,663.47083 416.79527,654.34991 C419.94146,645.22899 423.70585,636.11959 424.22712,626.48538 C424.81773,615.56931 421.19837,604.91467 417.62725,594.58238 C416.84777,592.3271 415.99591,589.96218 414.18864,588.40407 C412.641444,587.253559 410.868296,586.443481 408.98572,586.02707 C405.19259,584.90594 401.35216,584.25842 397.84814,582.4235 Z" id="Path" fill="#2F2E41" fill-rule="nonzero"></path>
            </g>
        </g>
    </g>
</svg>