<?xml version="1.0" encoding="UTF-8"?>
<svg width="780px" height="690px" viewBox="0 0 780 690" version="1.1" xmlns="http://www.w3.org/2000/svg" xmlns:xlink="http://www.w3.org/1999/xlink">
    <!-- Generator: Sketch 63.1 (92452) - https://sketch.com -->
    <title>hero_image</title>
    <desc>Created with Sketch.</desc>
    <defs>
        <polygon id="path-1" points="0 0.0297779214 762.494995 0.0297779214 762.494995 621.480931 0 621.480931"></polygon>
        <polygon id="path-3" points="0 690 779.977 690 779.977 0.0290584615 0 0.0290584615"></polygon>
        <path d="M44.0000328,6.99998755 L43.999,96 L36.0699174,91.4014635 L28,86.7218388 L28,16.1499974 L36.0475589,11.4775141 C41.6125931,8.24585046 43.3539171,7.24533843 44.0000328,6.99998755 Z" id="path-5"></path>
        <filter x="-15.6%" y="-3.6%" width="162.5%" height="107.0%" filterUnits="objectBoundingBox" id="filter-6">
            <feMorphology radius="1" operator="erode" in="SourceAlpha" result="shadowSpreadOuter1"></feMorphology>
            <feOffset dx="3" dy="0" in="shadowSpreadOuter1" result="shadowOffsetOuter1"></feOffset>
            <feGaussianBlur stdDeviation="2" in="shadowOffsetOuter1" result="shadowBlurOuter1"></feGaussianBlur>
            <feColorMatrix values="0 0 0 0 0   0 0 0 0 0   0 0 0 0 0  0 0 0 0.5 0" type="matrix" in="shadowBlurOuter1"></feColorMatrix>
        </filter>
        <linearGradient x1="50%" y1="0%" x2="50%" y2="99.8152449%" id="linearGradient-7">
            <stop stop-color="#FFC82E" offset="0%"></stop>
            <stop stop-color="#FFE7A2" offset="100%"></stop>
        </linearGradient>
        <polygon id="path-8" points="50.8693738 47.63017 67.5264747 38.0522364 67.8334134 72.9904437 67.7082327 73.0613297 66.3712858 73.8184023 51.2565366 82.5491576"></polygon>
        <filter x="-41.3%" y="-20.2%" width="182.5%" height="131.5%" filterUnits="objectBoundingBox" id="filter-9">
            <feOffset dx="0" dy="-2" in="SourceAlpha" result="shadowOffsetOuter1"></feOffset>
            <feGaussianBlur stdDeviation="2" in="shadowOffsetOuter1" result="shadowBlurOuter1"></feGaussianBlur>
            <feColorMatrix values="0 0 0 0 0   0 0 0 0 0   0 0 0 0 0  0 0 0 0.5 0" type="matrix" in="shadowBlurOuter1"></feColorMatrix>
        </filter>
        <linearGradient x1="-62.3795815%" y1="0%" x2="113.873538%" y2="0%" id="linearGradient-10">
            <stop stop-color="#4285F4" offset="0%"></stop>
            <stop stop-color="#73A7FF" offset="100%"></stop>
        </linearGradient>
        <path d="M74.8179045,25 L75,44.1707073 L49.3226026,58.8991732 C47.5432368,59.9242172 46.027392,60.7960375 44.7750683,61.5146343 C41.7887578,63.2282111 41.7090689,63.2624938 44.5360016,61.6174823 L28.1854876,71 L28,52.0799283 L44.428,42.607 L44.4283267,42.5859267 L74.8179045,25 Z" id="path-11"></path>
        <filter x="-17.0%" y="-10.5%" width="134.0%" height="125.4%" filterUnits="objectBoundingBox" id="filter-12">
            <feMorphology radius="1.5" operator="erode" in="SourceAlpha" result="shadowSpreadOuter1"></feMorphology>
            <feOffset dx="0" dy="1" in="shadowSpreadOuter1" result="shadowOffsetOuter1"></feOffset>
            <feGaussianBlur stdDeviation="4" in="shadowOffsetOuter1" result="shadowBlurOuter1"></feGaussianBlur>
            <feColorMatrix values="0 0 0 0 0   0 0 0 0 0   0 0 0 0 0  0 0 0 0.5 0" type="matrix" in="shadowBlurOuter1"></feColorMatrix>
        </filter>
    </defs>
    <g id="illustrations" stroke="none" stroke-width="1" fill="none" fill-rule="evenodd">
        <g id="Artboard" transform="translate(-979.000000, -1070.000000)">
            <g id="hero_image" transform="translate(979.000000, 1070.000000)">
                <g id="Group-6">
                    <g id="Group-5">
                        <mask id="mask-2" fill="white">
                            <use xlink:href="#path-1"></use>
                        </mask>
                        <g id="Clip-4"></g>
                        <path d="M751.268078,366.635795 C729.096446,324.947954 725.243189,275.787162 740.707223,230.488244 C750.726114,201.138422 752.292496,155.801248 744.024891,125.716033 C717.455914,29.0607723 594.581033,-28.5272805 476.103499,14.499571 C367.474827,53.9493531 340.87822,216.71132 257.46893,199.017261 C61.2907911,157.401683 -9.36853482,297.23895 0.979785514,411.073921 C7.66400557,484.604693 69.3309833,575.551096 201.057939,566.001617 C239.841292,563.189696 277.929657,572.724297 310.751409,591.706356 C366.803217,624.123149 455.893563,631.723624 548.4461,606.282436 C687.658532,568.014383 781.958106,469.495135 759.072357,386.234224 C757.189298,379.377644 754.568744,372.839875 751.268078,366.635795" id="Fill-3" fill="#7191F8" opacity="0.676106771" mask="url(#mask-2)"></path>
                    </g>
                </g>
                <g id="Group-197">
                    <path d="M581.976088,45.1547603 C582.152463,42.1823972 587.292838,36.1249849 586.510838,35.3680742 C585.945588,34.8237788 583.945963,36.6947942 582.864338,37.7897634 C582.738963,37.9173326 582.549838,37.9598557 582.379838,37.8981972 C582.211963,37.8365388 582.095088,37.6834557 582.080213,37.5027326 C581.846463,34.5813972 581.115463,26.4084618 580.299463,26.3319203 C579.474963,26.2532526 579.060588,31.4240588 578.945838,33.1611265 C578.941588,33.2142803 578.901213,33.2568034 578.850213,33.2631818 C578.797088,33.2695603 578.748213,33.2397942 578.731213,33.1887665 C578.093713,31.3517695 575.951713,25.4219265 575.031588,26.1852157 C574.158213,26.908108 575.513963,32.5870649 576.077088,34.7727511 C576.089838,34.8259049 576.062213,34.8833111 576.011213,34.9024465 C575.960213,34.923708 575.900713,34.9024465 575.873088,34.8556711 C574.765963,32.8974834 571.848338,27.9350403 571.062088,28.5686342 C570.258838,29.2149849 572.519838,34.5941542 573.357088,36.5034403 C573.378338,36.5523418 573.361338,36.6118742 573.314588,36.6416403 C573.267838,36.6692803 573.208338,36.6607757 573.172213,36.6203788 C571.907838,35.1937295 568.601338,31.5558803 568.62038,32.6232095 C568.641713,33.9456772 574.451463,44.9378926 576.355463,46.7770157 C578.257338,48.6182649 581.976088,45.1547603 581.976088,45.1547603" id="Fill-7" fill="#FA968C"></path>
                    <path d="M634.136338,81.9457265 C630.198713,90.6757142 624.531338,100.592096 617.678213,107.397914 C604.345963,120.60133 587.235463,117.150582 581.264213,86.2745757 C580.225088,81.6225511 579.498338,76.9896618 578.888463,72.3652772 C577.647463,63.1292649 577.167213,53.9208926 576.742213,44.7401603 C576.678463,43.3496557 577.751588,42.1717665 579.141338,42.1058557 C580.399338,42.0484495 581.483088,42.9244249 581.725338,44.1214495 L581.735963,44.1724772 C583.542213,53.0853142 585.359088,61.9811418 587.688088,70.634588 C588.886588,74.9443018 590.127588,79.2199972 591.574713,83.3426095 C592.828463,87.2441018 597.868963,99.3716834 601.787463,100.558077 C601.917088,100.536816 602.044588,100.706908 602.118963,100.632493 C602.191213,100.566582 602.227338,100.560203 602.271963,100.6006 C602.346338,100.502797 602.395213,100.460274 602.458963,100.473031 C602.673588,100.298686 602.926463,100.26892 603.391838,99.8925911 C604.246088,99.3312865 605.414838,98.2256865 606.524088,96.8479388 C608.797838,94.1498495 610.916463,90.5864157 612.780088,86.886908 C616.012213,80.612628 617.884338,76.0988034 617.884338,76.0988034 C621.864463,65.1831295 638.367213,70.4113418 634.382838,81.3418988 C634.310588,81.5396311 634.221338,81.7543726 634.136338,81.9457265" id="Fill-9" fill="#FA968C"></path>
                    <path d="M607.686888,93.6944274 C607.701762,93.6731658 607.716638,93.6519043 607.731513,93.6306428 C609.743888,90.6837935 611.611762,87.6029966 613.333012,84.4456582 C615.039387,81.3627351 616.777638,77.9375012 617.995262,75.0246705 L618.054763,74.8779658 C618.152513,74.6462151 618.260887,74.4165905 618.382012,74.189092 C620.645138,69.8878828 625.961887,68.2358612 630.260762,70.5002151 C634.559638,72.7645689 636.210762,78.086332 633.947637,82.3854151 C631.824762,86.4208551 629.769887,89.7185197 627.423887,93.1905289 C625.834388,95.4825228 624.145013,97.7064797 622.404637,99.894292 C621.108387,98.5101658 610.783013,94.8042797 607.686888,93.6944274" id="Fill-11" fill="#A5A0AA"></path>
                    <path d="M616.300787,154.813909 C623.952912,163.599177 668.123163,167.266792 668.123163,167.266792 C671.382913,163.480112 666.618663,146.275275 665.469038,128.808921 C664.225913,109.924423 663.509788,89.0817366 663.182538,77.8194997 C663.046537,73.1717274 659.244913,69.4849766 654.597538,69.4849766 L626.568787,69.4849766 C622.246537,69.4849766 618.651037,72.7847674 618.294037,77.0923551 C617.558787,86.0094443 616.279537,101.50698 615.017287,116.700475 C613.735912,132.117217 609.685662,147.219287 616.300787,154.813909" id="Fill-13" fill="#FAB9AF"></path>
                    <path d="M641.781875,301.62951 L641.718125,319.010817 L643.226875,327.477162 C643.48825,328.942082 642.4045,330.298568 640.917,330.345343 C633.804625,330.562211 615.593375,331.042722 615.10675,330.253919 C612.816,326.548033 623.166875,325.121383 630.73825,322.189417 C638.31175,319.255325 633.086375,290.49059 633.086375,290.49059 L641.781875,301.62951 Z" id="Fill-15" fill="#FA968C"></path>
                    <path d="M630.738462,322.188567 C630.778837,322.173684 630.814962,322.146044 630.853212,322.129034 C632.657337,322.803025 634.688837,323.19849 636.977462,323.19849 C638.940962,323.19849 640.719587,322.915711 642.323962,322.411813 L643.227087,327.476311 C643.488462,328.943358 642.404712,330.297718 640.917212,330.344493 C633.804837,330.563487 615.593587,331.043998 615.106962,330.253068 C612.816212,326.547182 623.167087,325.120533 630.738462,322.188567" id="Fill-17" fill="#F57A2F"></path>
                    <path d="M616.31205,161.148784 C616.037925,173.22959 620.7873,249.879563 630.169175,250.092622 C639.548925,250.304794 650.0103,174.001384 650.284425,161.920578 C650.55855,149.837646 643.174175,139.872363 633.794425,139.659747 C624.41255,139.445006 616.586175,149.067978 616.31205,161.148784" id="Fill-19" fill="#0091C8"></path>
                    <path d="M643.125513,234.17005 C644.056262,240.820659 644.207137,283.430908 642.711137,305.075154 L634.170763,305.075154 C629.585013,284.079385 624.684763,243.384801 623.773138,236.883022 C623.762513,236.797976 623.756138,236.717182 623.745513,236.634262 C618.643388,214.046004 616.110388,170.058007 616.312263,161.149422 C616.586388,149.06649 624.412763,139.445644 633.794638,139.658259 C643.174387,139.873001 650.556637,149.838284 650.282512,161.91909 C650.112512,169.505207 642.685637,231.021216 643.125513,234.17005" id="Fill-21" fill="#FF965A"></path>
                    <path d="M641.725988,267.968242 C641.932113,263.34811 641.413613,258.844916 640.283113,254.535202 C636.934113,241.748513 636.838488,228.419654 638.187863,215.271519 C638.300488,214.168045 638.381238,213.058193 638.432238,211.939836 C639.203613,194.726494 629.959863,179.08438 616.474613,169.219026 C616.330113,165.589682 616.274863,162.778906 616.310988,161.148146 C616.585113,149.06734 624.413613,139.446494 633.793363,139.65911 C643.175238,139.871725 650.557487,149.839134 650.283362,161.91994 C650.111238,169.503931 642.684363,231.01994 643.126363,234.1709 C644.057113,240.819383 644.205862,283.429633 642.711988,305.076005 L634.171613,305.076005 C633.633988,302.611793 633.092113,299.856297 632.552363,296.937088 C637.964738,288.523897 641.252113,278.554362 641.725988,267.968242" id="Fill-23" fill="#F07D4B"></path>
                    <path d="M662.277925,301.62951 L662.214175,319.010817 L663.722925,327.477162 C663.9843,328.942082 662.90055,330.298568 661.41305,330.345343 C654.300675,330.562211 636.089425,331.042722 635.6028,330.253919 C633.31205,326.548033 643.662925,325.121383 651.2343,322.189417 C658.8078,319.255325 653.582425,290.49059 653.582425,290.49059 L662.277925,301.62951 Z" id="Fill-25" fill="#FA968C"></path>
                    <path d="M651.234513,322.188567 C651.274888,322.173684 651.311013,322.146044 651.349263,322.129034 C653.153388,322.803025 655.184888,323.19849 657.473513,323.19849 C659.434888,323.19849 661.215638,322.915711 662.820013,322.411813 L663.723138,327.476311 C663.984513,328.943358 662.900763,330.297718 661.413263,330.344493 C654.300888,330.563487 636.089638,331.043998 635.603013,330.253068 C633.312263,326.547182 643.663138,325.120533 651.234513,322.188567" id="Fill-27" fill="#FF8C46"></path>
                    <path d="M636.8081,161.148784 C636.533975,173.22959 641.28335,249.879563 650.665225,250.09262 C660.044975,250.304794 668.476975,173.720732 668.7511,161.6378 C669.025225,149.556994 663.670225,139.872363 654.290475,139.659747 C644.9086,139.445006 637.082225,149.067978 636.8081,161.148784" id="Fill-29" fill="#0091C8"></path>
                    <path d="M663.621562,234.17005 C664.552312,240.820659 664.703188,283.430908 663.207188,305.075154 L654.666812,305.075154 C650.081063,284.079385 645.178688,243.384801 644.269188,236.883022 C644.258562,236.797976 644.252187,236.717182 644.241562,236.634262 C639.139437,214.046004 634.577063,169.775228 634.778938,160.866644 C635.053063,148.785838 644.908813,139.445644 654.290687,139.658259 C663.670438,139.873001 669.023312,149.557631 668.751313,161.638438 C668.579188,169.222428 663.179562,231.021216 663.621562,234.17005" id="Fill-31" fill="#FFBE82"></path>
                    <path d="M626.301888,69.4856145 L630.855763,69.4856145 C632.443138,73.1596083 635.796388,75.9980237 641.002638,75.9980237 C646.217388,75.9980237 649.572763,73.1596083 651.155888,69.4856145 L655.312388,69.4856145 C659.562388,69.4856145 663.041013,72.8470637 663.162138,77.0972452 C663.478763,88.1723806 664.199138,109.512587 665.469888,128.809559 C666.617388,146.273787 671.383763,162.504845 668.124013,167.265304 C668.124013,167.265304 623.953763,163.597688 616.301638,154.814547 C609.686513,147.219925 613.736763,132.117854 615.018138,116.701113 C616.293138,101.358787 617.585138,85.7060422 618.316138,76.8336022 C618.658263,72.6748452 622.132638,69.4856145 626.301888,69.4856145" id="Fill-33" fill="#828291"></path>
                    <path d="M658.1958,94.6356757 C658.59955,85.629288 656.268425,77.0417526 652.0248,69.4854018 L655.312175,69.4854018 C659.562175,69.4854018 663.0408,72.8489772 663.161925,77.0970326 C663.480675,88.172168 664.198925,109.512374 665.469675,128.809346 C666.617175,146.273574 671.38355,162.504633 668.1238,167.265091 C668.1238,167.265091 623.95355,163.599602 616.301425,154.814334 C614.558925,152.81575 613.5708,150.285626 613.062925,147.377048 C638.7223,143.328851 657.0228,120.844774 658.1958,94.6356757" id="Fill-35" fill="#757582"></path>
                    <path d="M642.210913,59.2788003 L642.735788,59.3957388 C646.737163,60.2865972 650.702413,57.7628526 651.592788,53.7593049 L653.972788,43.0456157 L646.203788,41.3170526 L642.210913,59.2788003 Z" id="Fill-37" fill="#41378C"></path>
                    <polygon id="Fill-39" fill="#FAB9AF" points="635.269387 69.4854018 649.925512 69.4854018 645.698887 54.865968 635.709262 56.1012634"></polygon>
                    <path d="M635.709263,56.1023265 L645.698888,54.8649049 L647.668762,61.679228 C645.433263,64.2008465 642.114013,68.1172218 638.480263,68.1172218 C637.326388,68.1172218 636.274513,67.7919203 635.331013,67.1923449 L635.709263,56.1023265 Z" id="Fill-41" fill="#FA968C"></path>
                    <path d="M634.1969,63.8729935 L634.1969,63.8729935 C640.778025,65.3379135 647.297525,61.1876612 648.76165,54.6029628 L651.713275,41.3230058 L631.27715,36.7751628 C631.27715,36.7751628 628.97365,47.1422889 628.90565,54.4711412 C628.856775,59.9693751 630.84365,63.1267135 634.1969,63.8729935" id="Fill-43" fill="#FAB9AF"></path>
                    <polygon id="Fill-45" fill="#41378C" points="647.83005 45.8047255 651.669925 46.6594394 651.283175 48.4007594 647.4433 47.5481717"></polygon>
                    <path d="M645.854225,51.3203938 C645.27835,53.9121754 646.05185,56.2870892 647.579725,56.6272738 C649.109725,56.9674585 651.55135,53.94832 652.127225,51.3565385 C652.7031,48.7647569 651.19435,47.5847415 649.666475,47.2445569 C648.136475,46.9043723 646.4301,48.7286123 645.854225,51.3203938" id="Fill-47" fill="#FAB9AF"></path>
                    <path d="M628.645975,41.922156 C628.535475,40.1617006 628.82235,38.3991191 629.48535,36.7662329 C631.127975,32.7095314 635.666975,30.9639591 639.797975,32.4033652 C640.218725,32.5500698 640.6671,32.6776391 641.13885,32.7839468 L648.0366,34.3147775 C652.182475,35.2354022 654.796225,39.3452575 653.873975,43.4912575 L653.516975,45.100756 L649.428475,47.4735437 L647.76035,50.3778698 L647.490475,50.3162114 C646.1751,50.0249283 645.327225,48.7598668 645.531225,47.4459037 C645.871225,45.2772268 644.79385,43.1595775 642.65185,42.6833191 L636.53185,41.3204545 C632.8046,40.4912545 630.422475,42.0624822 629.8041,44.851996 L629.470475,47.2524237 L628.645975,41.922156 Z" id="Fill-49" fill="#41378C"></path>
                    <line x1="648.192575" y1="120.724646" x2="749.0387" y2="682.16321" id="Stroke-51" stroke="#5046AF" stroke-width="2.067" stroke-linecap="round"></line>
                    <line x1="665.187688" y1="682.163422" x2="564.341563" y2="120.724859" id="Stroke-53" stroke="#5046AF" stroke-width="2.067" stroke-linecap="round"></line>
                    <line x1="571.022563" y1="145.734169" x2="652.981688" y2="145.734169" id="Stroke-55" stroke="#5046AF" stroke-width="2.067" stroke-linecap="round"></line>
                    <line x1="576.471063" y1="183.300331" x2="659.573438" y2="183.300331" id="Stroke-57" stroke="#5046AF" stroke-width="2.067" stroke-linecap="round"></line>
                    <line x1="584.045838" y1="220.866705" x2="666.406587" y2="220.866705" id="Stroke-59" stroke="#5046AF" stroke-width="2.067" stroke-linecap="round"></line>
                    <line x1="591.370713" y1="258.43308" x2="673.240588" y2="258.43308" id="Stroke-61" stroke="#5046AF" stroke-width="2.067" stroke-linecap="round"></line>
                    <line x1="595.8092" y1="295.999242" x2="678.626825" y2="295.999242" id="Stroke-63" stroke="#5046AF" stroke-width="2.067" stroke-linecap="round"></line>
                    <line x1="601.550525" y1="332.895878" x2="685.5199" y2="332.895878" id="Stroke-65" stroke="#5046AF" stroke-width="2.067" stroke-linecap="round"></line>
                    <line x1="609.972538" y1="371.13199" x2="692.654163" y2="371.13199" id="Stroke-67" stroke="#5046AF" stroke-width="2.067" stroke-linecap="round"></line>
                    <line x1="616.721325" y1="408.698365" x2="699.6282" y2="408.698365" id="Stroke-69" stroke="#5046AF" stroke-width="2.067" stroke-linecap="round"></line>
                    <line x1="623.391913" y1="444.199181" x2="706.300913" y2="444.199181" id="Stroke-71" stroke="#5046AF" stroke-width="2.067" stroke-linecap="round"></line>
                    <line x1="629.061625" y1="479.699997" x2="711.970625" y2="479.699997" id="Stroke-73" stroke="#5046AF" stroke-width="2.067" stroke-linecap="round"></line>
                    <line x1="635.57645" y1="515.200813" x2="718.48545" y2="515.200813" id="Stroke-75" stroke="#5046AF" stroke-width="2.067" stroke-linecap="round"></line>
                    <line x1="641.902575" y1="550.701842" x2="724.811575" y2="550.701842" id="Stroke-77" stroke="#5046AF" stroke-width="2.067" stroke-linecap="round"></line>
                    <line x1="648.072938" y1="586.202658" x2="730.979813" y2="586.202658" id="Stroke-79" stroke="#5046AF" stroke-width="2.067" stroke-linecap="round"></line>
                    <line x1="655.244175" y1="621.703474" x2="738.153175" y2="621.703474" id="Stroke-81" stroke="#5046AF" stroke-width="2.067" stroke-linecap="round"></line>
                    <line x1="564.3422" y1="120.724646" x2="462.641825" y2="683.441028" id="Stroke-83" stroke="#9F9FFF" stroke-width="2.067" stroke-linecap="round"></line>
                    <line x1="546.491988" y1="683.44039" x2="648.192363" y2="120.724009" id="Stroke-85" stroke="#9F9FFF" stroke-width="2.067" stroke-linecap="round"></line>
                    <line x1="641.512213" y1="145.734169" x2="559.793213" y2="145.734169" id="Stroke-87" stroke="#9F9FFF" stroke-width="2.067" stroke-linecap="round"></line>
                    <line x1="636.0635" y1="183.300331" x2="552.961125" y2="183.300331" id="Stroke-89" stroke="#9F9FFF" stroke-width="2.067" stroke-linecap="round"></line>
                    <line x1="628.488725" y1="220.866705" x2="546.127975" y2="220.866705" id="Stroke-91" stroke="#9F9FFF" stroke-width="2.067" stroke-linecap="round"></line>
                    <line x1="621.16385" y1="258.43308" x2="539.293975" y2="258.43308" id="Stroke-93" stroke="#9F9FFF" stroke-width="2.067" stroke-linecap="round"></line>
                    <line x1="615.279938" y1="295.999242" x2="532.462313" y2="295.999242" id="Stroke-95" stroke="#9F9FFF" stroke-width="2.067" stroke-linecap="round"></line>
                    <line x1="609.719238" y1="332.895878" x2="525.749863" y2="332.895878" id="Stroke-97" stroke="#9F9FFF" stroke-width="2.067" stroke-linecap="round"></line>
                    <line x1="601.478063" y1="371.13199" x2="518.796438" y2="371.13199" id="Stroke-99" stroke="#9F9FFF" stroke-width="2.067" stroke-linecap="round"></line>
                    <line x1="595.81345" y1="408.698365" x2="512.90445" y2="408.698365" id="Stroke-101" stroke="#9F9FFF" stroke-width="2.067" stroke-linecap="round"></line>
                    <line x1="589.431863" y1="450.838947" x2="506.522863" y2="450.838947" id="Stroke-103" stroke="#9F9FFF" stroke-width="2.067" stroke-linecap="round"></line>
                    <line x1="579.786275" y1="492.979529" x2="496.877275" y2="492.979529" id="Stroke-105" stroke="#9F9FFF" stroke-width="2.067" stroke-linecap="round"></line>
                    <line x1="572.588688" y1="535.120323" x2="489.681813" y2="535.120323" id="Stroke-107" stroke="#9F9FFF" stroke-width="2.067" stroke-linecap="round"></line>
                    <line x1="565.7991" y1="577.260905" x2="482.8901" y2="577.260905" id="Stroke-109" stroke="#9F9FFF" stroke-width="2.067" stroke-linecap="round"></line>
                    <line x1="556.969512" y1="619.809921" x2="474.060513" y2="619.809921" id="Stroke-111" stroke="#9F9FFF" stroke-width="2.067" stroke-linecap="round"></line>
                    <path d="M649.28355,37.0809037 C649.75105,40.8697098 636.14255,45.6684391 632.55555,46.1128052 C628.966425,46.5550452 625.676925,43.8441991 625.209425,40.0553929 C624.741925,36.2687129 627.2728,32.8371006 630.861925,32.3948606 C634.45105,31.9504945 648.81605,33.2920975 649.28355,37.0809037" id="Fill-113" fill="#41378C"></path>
                    <g id="Group" transform="translate(544.436326, 79.141654) rotate(-6.000000) translate(-544.436326, -79.141654) translate(491.779610, 16.141654)">
                        <path d="M76.3134328,0 L76.452,0.001 L105.313335,28.9248253 C105.313401,28.9498738 105.313433,28.9749332 105.313433,29 L105.313433,97 C105.313433,113.016258 92.3296906,126 76.3134328,126 L29,126 C12.9837423,126 5.51413956e-15,113.016258 0,97 L0,29 C1.5912878e-15,12.9837423 12.9837423,-4.16328854e-15 29,0 L76.3134328,0 Z" id="Combined-Shape" fill="#FFE15F"></path>
                        <polygon id="Path-3" fill="#FFECB4" points="105.313433 29.1492537 76.1641791 0 76.1641791 29.1492537"></polygon>
                        <line x1="24.4477612" y1="51.2462687" x2="79.9253731" y2="51.2462687" id="Line" stroke="#FFFFFF" stroke-width="4" stroke-linecap="square"></line>
                        <line x1="24.4477612" y1="64.4104478" x2="79.9253731" y2="64.4104478" id="Line" stroke="#FFFFFF" stroke-width="4" stroke-linecap="square"></line>
                        <line x1="24.4477612" y1="77.5746269" x2="79.9253731" y2="77.5746269" id="Line" stroke="#FFFFFF" stroke-width="4" stroke-linecap="square"></line>
                        <line x1="25.3880597" y1="90.738806" x2="52.6567164" y2="90.738806" id="Line" stroke="#FFFFFF" stroke-width="4" stroke-linecap="square"></line>
                    </g>
                    <path d="M664.832175,83.7818729 C660.318675,89.9370883 652.58155,98.0334822 643.31655,105.024276 C614.9818,125.698996 584.65805,127.789005 559.9273,104.38643 C558.9158,103.429661 558.871175,101.832919 559.82955,100.82087 C560.647675,99.9555252 561.931175,99.7960637 562.9193,100.367999 L563.03405,100.43391 C579.160675,109.746464 593.602175,113.571414 611.78155,105.927891 C635.613425,95.6521898 652.524175,70.9292729 650.743425,73.2893037 C653.667425,69.4154514 659.1733,68.6479098 663.04505,71.5734975 C666.880675,74.4714452 667.6648,79.9143991 664.832175,83.7818729" id="Fill-117" fill="#FAB9AF"></path>
                    <path d="M637.740975,87.483932 C643.6421,82.1855566 651.145475,71.7440151 651.145475,71.7440151 C651.145475,71.7440151 654.702725,67.5384828 662.02335,70.6043966 C667.869225,73.055852 666.6856,79.965852 666.6856,79.965852 C666.543225,80.9268735 664.59035,92.3273105 651.1476,102.409532 C651.1476,102.409532 636.750725,88.3726643 637.740975,87.483932" id="Fill-119" fill="#A5A0AA"></path>
                    <path d="M564.713863,101.496774 C562.777988,99.2366726 562.265863,91.3061188 561.175738,91.3061188 C560.393738,91.3061188 560.253488,94.0446049 560.236488,95.5818142 C560.234363,95.7625372 560.128113,95.9241249 559.964488,95.9964142 C559.800863,96.0708295 559.609613,96.0410634 559.475738,95.9219988 C557.276363,93.9850726 551.073488,88.614408 550.433863,89.1268111 C549.785738,89.6455926 553.081613,93.6512665 554.203613,94.9801126 C554.237613,95.0205095 554.239738,95.0779157 554.205738,95.1204388 C554.173863,95.1608357 554.116488,95.1735926 554.069738,95.1502049 C552.335738,94.2721034 546.676863,91.4974726 546.545113,92.6838665 C546.419738,93.8128542 551.339113,96.9531834 553.260113,98.1331988 C553.308988,98.1629649 553.325988,98.2224972 553.304738,98.2735249 C553.281363,98.3245526 553.223988,98.3500665 553.170863,98.3351834 C551.016113,97.6973372 545.471988,96.1558757 545.346613,97.1594203 C545.219113,98.1821003 550.578363,100.478346 552.505738,101.269276 C552.556738,101.290537 552.584363,101.343691 552.571613,101.396845 C552.558863,101.449999 552.509988,101.486143 552.456863,101.481891 C550.554988,101.33306 545.650488,101.016263 546.406988,101.773174 C547.339863,102.708682 559.152738,106.571903 561.798363,106.571903 C564.446113,106.571903 564.713863,101.496774 564.713863,101.496774" id="Fill-121" fill="#FAB9AF"></path>
                    <mask id="mask-4" fill="white">
                        <use xlink:href="#path-3"></use>
                    </mask>
                    <g id="Clip-124"></g>
                    <polygon id="Fill-123" fill="#5046AF" mask="url(#mask-4)" points="103.799875 576.756794 664.20275 576.756794 664.20275 235.592022 103.799875 235.592022"></polygon>
                    <polygon id="Fill-125" fill="#FFFFFF" mask="url(#mask-4)" points="132.226 551.204677 635.77875 551.204677 635.77875 261.139886 132.226 261.139886"></polygon>
                    <polygon id="Stroke-126" stroke="#827DDC" stroke-width="0.988" mask="url(#mask-4)" points="165.01475 519.099754 294.046875 519.099754 294.046875 334.117991 165.01475 334.117991"></polygon>
                    <polygon id="Stroke-127" stroke="#827DDC" stroke-width="0.988" mask="url(#mask-4)" points="323.1445 519.099754 452.176625 519.099754 452.176625 334.117991 323.1445 334.117991"></polygon>
                    <polygon id="Stroke-128" stroke="#827DDC" stroke-width="0.988" mask="url(#mask-4)" points="481.27425 519.099754 610.306375 519.099754 610.306375 334.117991 481.27425 334.117991"></polygon>
                    <polygon id="Fill-129" fill="#A5C8CD" mask="url(#mask-4)" points="132.226 265.8642 635.77875 265.8642 635.77875 261.139886 132.226 261.139886"></polygon>
                    <path d="M54.2969375,626.893415 C54.2969375,626.893415 42.7943125,640.139354 40.6820625,642.248498 C38.9374375,643.989818 36.4639375,644.623412 34.0924375,645.291024 C33.3338125,645.50364 32.3456875,646.283938 31.5105625,646.94092 C30.8390625,647.46608 30.5330625,648.288901 30.5479375,649.141489 C30.8199375,664.052206 43.7909375,674.504378 44.4836875,673.632655 C45.7289375,672.057175 44.7790625,667.690055 42.2991875,664.809117 C39.8023125,661.911169 39.1966875,657.824701 40.3101875,654.163464 C41.1963125,651.250634 42.8176875,648.616329 45.0170625,646.513563 L55.0194375,637.145729 L54.2969375,626.893415 Z" id="Fill-130" fill="#FA968C" mask="url(#mask-4)"></path>
                    <path d="M28.4305875,687.644009 L216.393213,687.644009 C217.921088,687.644009 219.159963,686.404461 219.159963,684.875757 C219.159963,683.347052 217.921088,682.107504 216.393213,682.107504 L28.4305875,682.107504 C26.9027125,682.107504 25.6638375,683.347052 25.6638375,684.875757 C25.6638375,686.404461 26.9027125,687.644009 28.4305875,687.644009" id="Fill-131" fill="#B4D7DC" mask="url(#mask-4)"></path>
                    <path d="M171.875738,645.732201 L181.025988,661.029878 C183.822488,665.70529 184.850988,671.241795 183.926613,676.61246 C183.926613,676.614586 183.926613,676.616712 183.926613,676.616712 C183.403863,679.620967 185.658488,682.387094 188.705738,682.463635 C198.555113,682.708143 217.618488,683.06321 218.168863,682.165974 C220.969613,677.59049 208.912363,675.543004 199.443363,672.334638 C193.057738,670.170214 185.199488,652.873952 180.218488,639.264441 L172.753363,643.995134 C172.177488,644.382094 171.845988,645.039075 171.875738,645.732201" id="Fill-132" fill="#FA968C" mask="url(#mask-4)"></path>
                    <path d="M199.25785,677.601972 C203.30385,677.601972 207.432725,676.672842 211.2471,675.918058 C211.68485,675.830886 212.141725,675.862778 212.562475,676.011609 C216.9761,677.58071 219.6536,679.738756 218.168225,682.164698 C217.5711,683.140602 195.1481,682.636704 186.38885,682.402827 C184.559225,682.353926 183.216225,680.691273 183.530725,678.884042 L184.104475,675.597009 C189.055725,676.857818 194.13235,677.601972 199.25785,677.601972" id="Fill-133" fill="#823264" mask="url(#mask-4)"></path>
                    <path d="M139.136712,472.973059 C129.021712,470.946834 116.938962,479.236708 114.331587,492.263653 C112.833462,499.74984 110.625587,527.6386 110.940087,550.396951 C111.059087,559.133317 106.868587,567.535877 99.4098375,572.077342 C98.1943375,572.817243 97.0808375,573.63156 96.1118375,574.51604 C91.1202125,579.07664 67.9067125,608.192191 53.3568375,627.94416 C52.9020875,631.033462 53.3589625,635.304905 55.0844625,637.335382 C73.7079625,622.732957 105.289712,595.239662 110.597962,590.389905 C113.547462,587.696068 116.843337,584.540856 119.525087,581.434545 C130.966087,573.763382 149.536462,515.18997 151.954712,503.102785 C154.562087,490.07584 149.251712,474.999283 139.136712,472.973059" id="Fill-134" fill="#FFAA50" mask="url(#mask-4)"></path>
                    <path d="M148.560875,388.508408 C148.560875,399.725996 141.5165,408.819556 132.82525,408.819556 C124.134,408.819556 117.089625,399.725996 117.089625,388.508408 C117.089625,377.29082 124.134,368.19726 132.82525,368.19726 C141.5165,368.19726 148.560875,377.29082 148.560875,388.508408" id="Fill-135" fill="#9B14AA" mask="url(#mask-4)"></path>
                    <path d="M129.050825,390.604158 C128.800075,379.361056 119.70295,369.912429 108.48295,369.27033 C98.52945,368.702647 89.93595,374.804709 86.7187,383.517687 C85.590325,386.570844 82.60045,388.558798 79.347075,388.509896 C77.995575,388.490761 76.605825,388.614078 75.190575,388.905361 C66.966825,390.591401 60.583325,397.539672 59.716325,405.89333 C58.93645,413.430546 62.4597,420.189589 68.12495,424.046432 C70.53895,425.692075 71.913825,428.417804 72.313325,431.313626 C74.16845,444.712647 86.3957,454.554613 100.3442,453.028035 C112.276075,451.72045 121.8237,441.897619 122.83945,429.933752 C123.462075,422.594269 120.94395,415.862866 116.51545,410.864278 C124.061325,407.294466 129.250575,399.555266 129.050825,390.604158" id="Fill-136" fill="#9B14AA" mask="url(#mask-4)"></path>
                    <g id="Group" mask="url(#mask-4)">
                        <g transform="translate(229.500000, 390.500000) scale(-1, 1) rotate(-180.000000) translate(-229.500000, -390.500000) translate(184.000000, 345.000000)">
                            <path d="M39.9310345,90.8599222 C39.5586207,90.8038911 38.6482759,90.677821 37.9310345,90.5797665 C37.2137931,90.4817121 36.4827586,90.3416342 36.3034483,90.2856031 L36,90.1595331 L36.0275862,81.5867704 L36.0689655,73 L39.0344828,73 L42,73 L41.9862069,77.4824903 C41.9724138,79.9478599 41.9172414,83.9961089 41.862069,86.4894942 L41.7517241,91 L41.1862069,90.9859922 C40.8827586,90.9719844 40.3172414,90.9159533 39.9310345,90.8599222 Z" id="Path" stroke="none" fill="#7D6EF3" fill-rule="evenodd"></path>
                            <path d="M49.05387,87.0498054 C49.0113976,84.8645914 48.9830827,80.8163424 49.0113976,78.0428016 L49.05387,73 L52.026935,73 L55,73 L55,81.6848249 L55,90.3696498 L54.2213401,90.4677043 C53.7966165,90.5097276 52.7489651,90.6498054 51.8995179,90.7758755 C51.0500708,90.9019455 50.087364,91 49.7475851,91 L49.1529721,91 L49.05387,87.0498054 Z" id="Path" stroke="none" fill="#7D6EF3" fill-rule="evenodd"></path>
                            <path d="M61,80.542251 L61,73 L64,73 L67,73 L67,79.2942527 L67,85.5749401 L65.3534884,86.3345913 C63.7209302,87.0806773 62.5209302,87.5825897 61.8372093,87.7860677 C61.6418605,87.8403284 61.3767442,87.9352848 61.2511628,87.9895456 C61.0139535,88.084502 61,87.6775461 61,80.542251 Z" id="Path" stroke="none" fill="#7D6EF3" fill-rule="evenodd"></path>
                            <path d="M27.8571429,87.3972603 C27.0285714,87.0821918 25.8285714,86.5479452 25.1714286,86.2328767 L24,85.6712329 L24.0285714,79.3287671 L24.0714286,73 L27,73 L29.9285714,73 L29.9714286,80.5068493 L30,88 L29.6857143,88 C29.5,88 28.6857143,87.7260274 27.8571429,87.3972603 Z" id="Path" stroke="none" fill="#7D6EF3" fill-rule="evenodd"></path>
                            <path d="M73.0475818,81.8166863 C73.0052869,81.7179788 72.9911886,79.7156287 73.0052869,77.346651 L73.0475818,73.0458284 L77.53084,73.0035253 C79.9839436,72.9894242 82,73.0176263 82,73.0881316 C82,73.5252644 80.1249266,75.7391304 77.7423145,78.0940071 C76.1069121,79.7015276 73.4423341,82 73.202663,82 C73.1462698,82 73.0757783,81.9153937 73.0475818,81.8166863 Z" id="Path" stroke="none" fill="#7D6EF3" fill-rule="evenodd"></path>
                            <path d="M17.1965996,81.7 C14.4643998,79.3714286 12.6059491,77.5571429 11.0942243,75.7142857 C10.6781532,75.2142857 10.2343441,74.6857143 10.1095228,74.5428571 C9.98470148,74.4 9.69345175,73.9857143 9.44380912,73.6428571 L9,73 L13.354877,73 C17.0579093,73 17.737492,73.0285714 17.8900514,73.2142857 C18.125825,73.5 17.9455275,82 17.6958849,82 C17.6126707,81.9857143 17.3907661,81.8571429 17.1965996,81.7 Z" id="Path" stroke="none" fill="#7D6EF3" fill-rule="evenodd"></path>
                            <path d="M24.098527,66.926327 C24.0422259,66.8842669 24,57.2384829 24,45.5037137 L24,24.1512006 L33.7541735,24.0670804 C39.1027823,24.0110003 48.7865794,23.9829602 55.2471358,24.0110003 L67,24.0530604 L67,45.5037137 L67,66.9543671 L45.5914894,66.9964272 C33.8245499,67.0104473 24.1407529,66.9824072 24.098527,66.926327 Z" id="Path" stroke="none" fill="#2D313C" fill-rule="evenodd"></path>
                            <line x1="31.3953488" y1="60.5058758" x2="48" y2="60.5058758" id="Line" stroke="#5FCDFF" stroke-width="4" fill="none" stroke-linecap="square"></line>
                            <line x1="31.4074074" y1="56.5058758" x2="41.5925926" y2="56.5058758" id="Line" stroke="#FFE15F" stroke-width="4" fill="none" stroke-linecap="square"></line>
                            <line x1="31.40625" y1="51.75" x2="43.59375" y2="51.7441242" id="Line" stroke="#5FCDFF" stroke-width="4" fill="none" stroke-linecap="square"></line>
                            <line x1="31.40625" y1="45.5058758" x2="44" y2="45.5058758" id="Line" stroke="#FF5F7D" stroke-width="4" fill="none" stroke-linecap="square"></line>
                            <line x1="52" y1="61" x2="59" y2="61" id="Line" stroke="#FFE15F" stroke-width="4" fill="none" stroke-linecap="square"></line>
                            <line x1="45" y1="55.7470621" x2="57.6060606" y2="55.7529379" id="Line" stroke="#5FCDFF" stroke-width="4" fill="none" stroke-linecap="square"></line>
                            <line x1="47" y1="51" x2="54.7448822" y2="51" id="Line" stroke="#FFE15F" stroke-width="4" fill="none" stroke-linecap="square"></line>
                            <line x1="31" y1="30" x2="43" y2="30" id="Line" stroke="#5FCDFF" stroke-width="4" fill="none" stroke-linecap="square"></line>
                            <line x1="31" y1="34.0023555" x2="42" y2="33.9976445" id="Line" stroke="#FFE15F" stroke-width="4" fill="none" stroke-linecap="square"></line>
                            <line x1="31" y1="39" x2="46" y2="39" id="Line" stroke="#5FCDFF" stroke-width="4" fill="none" stroke-linecap="square"></line>
                            <line x1="47" y1="29.75" x2="54.5789474" y2="29.75" id="Line" stroke="#FFE15F" stroke-width="4" fill="none" stroke-linecap="square"></line>
                            <polyline id="Line" stroke="#5FCDFF" stroke-width="4" fill="none" stroke-linecap="square" points="46 34 47.8363256 34 60 34"></polyline>
                            <line x1="49.4210526" y1="39.75" x2="56.5789474" y2="39.75" id="Line" stroke="#FFE15F" stroke-width="4" fill="none" stroke-linecap="square"></line>
                            <path d="M5.52128721,66.8461197 C5.3184033,66.7202177 3.8170624,63.7265474 3.8170624,63.4467651 C3.8170624,63.4047977 3.70885765,63.0970372 3.56007612,62.7612985 C3.42482018,62.4395489 3.24898746,61.9918972 3.1543083,61.7820605 C2.81616846,60.9287246 2.3021959,60.9846811 10.4851801,61.0126593 L17.9513079,61.0546266 L17.9918846,63.8384603 C18.0189358,65.768958 17.9783591,66.6782504 17.8701543,66.8041524 C17.748424,66.9720218 16.6528509,67 11.7430603,67 C7.7124334,66.9860109 5.69711993,66.9440435 5.52128721,66.8461197 Z" id="Path" stroke="none" fill="#7D6EF3" fill-rule="evenodd"></path>
                            <path d="M73.499554,66.9260325 L73.0713649,66.841576 L73.0285459,63.9137499 L73,61 L80.9928635,61 L89,61 L88.9143622,61.32375 C88.8572703,61.492663 88.7430865,61.8304891 88.6289028,62.0557065 C88.528992,62.295 88.2007136,63.0410326 87.9152542,63.7307608 C87.6155219,64.4204891 87.1445138,65.4339673 86.8590544,65.9829347 L86.3309545,66.9823368 L80.1364853,66.9964129 C76.7252453,67.010489 73.7421945,66.9823368 73.499554,66.9260325 Z" id="Path" stroke="none" fill="#7D6EF3" fill-rule="evenodd"></path>
                            <path d="M0.796014753,54.8545164 C0.656372016,54.6622273 0.391050815,53.5359626 0.265372351,52.6157219 C0.0559082449,50.9400597 -0.055805945,49.168253 0.0279796975,49.0858433 C0.0978010662,49.0171687 4.16140472,48.9896988 9.07682908,49.0034337 L18,49.0446385 L18,51.9976497 L18,54.9506609 L9.46782875,54.9918657 C2.7370488,55.0193356 0.907728943,54.9781308 0.796014753,54.8545164 Z" id="Path" stroke="none" fill="#7D6EF3" fill-rule="evenodd"></path>
                            <path d="M73.0467031,54.8395303 C73.0051892,54.7434074 72.9913513,53.3976873 73.0051892,51.8597215 L73.0467031,49.0446949 L81.9583467,49.0034993 C86.8708211,48.9897675 90.9253422,49.0172312 90.966856,49.0721585 C91.1190736,49.2506724 90.7177728,52.6149726 90.357986,54.1941339 L90.1780926,54.949385 L81.6400737,54.9905805 C74.7902855,55.0180442 73.088217,54.9905805 73.0467031,54.8395303 Z" id="Path" stroke="none" fill="#7D6EF3" fill-rule="evenodd"></path>
                            <path d="M1.63837371,41.9313233 C0.0367292827,41.8788384 -0.128958072,41.7738686 0.0643438418,40.9997166 C0.13338024,40.7372922 0.188609358,40.2649283 0.188609358,39.9631402 C0.188609358,39.6613521 0.243838476,39.1365033 0.326682154,38.7822304 C0.395718551,38.4410786 0.533791347,37.6931691 0.630442304,37.1289566 C0.7685151,36.2498348 0.837551498,36.1055014 1.11369709,36.0398953 C1.27938444,36.0005317 5.04877177,35.9874104 9.48090851,36.0136529 C16.0531736,36.0398953 17.5857816,36.0923802 17.7652762,36.2367136 C17.9723854,36.3941683 18,36.7615624 18,39.057776 C18,40.9472317 17.9585782,41.7476262 17.8343126,41.8657172 C17.7100471,41.9838081 15.8874862,42.0100506 10.3369598,41.9969294 C6.31904149,41.9838081 2.39777409,41.9444445 1.63837371,41.9313233 Z" id="Path" stroke="none" fill="#7D6EF3" fill-rule="evenodd"></path>
                            <path d="M73.2017697,42.7906156 C73.0090424,42.6075132 72.9815099,42.2151507 73.0090424,39.8871336 L73.0503411,37.1798328 L73.807484,37.0882815 C74.867484,36.9705728 89.8176143,36.9705728 89.9965753,37.0882815 C90.2719,37.2583053 90.505926,38.3961563 90.739952,40.7110947 C90.8087832,41.4304258 90.9051468,42.1628357 90.9464455,42.3197807 C91.1254065,43.0260331 91.386965,42.9998756 82.0534582,42.9998756 C74.3443671,42.9998756 73.394497,42.9737181 73.2017697,42.7906156 Z" id="Path" stroke="none" fill="#7D6EF3" fill-rule="evenodd"></path>
                            <path d="M2.08563782,29.7 C2.485281,28.4318182 2.92774309,27.3818182 3.72702944,25.8409091 L4.65477252,24.0681818 L11.3345227,24.0272727 L18,24 L18,27 L18,30 L9.99286351,30 L2,30 L2.08563782,29.7 Z" id="Path" stroke="none" fill="#7D6EF3" fill-rule="evenodd"></path>
                            <path d="M73.0997655,29.9109484 C73.0427566,29.8699949 73,28.518531 73,26.9076952 L73,24 L79.7127925,24 L86.4113327,24 L87.1667,25.5425801 C88.2641204,27.7813688 88.3781381,28.0270896 88.7486957,28.9826701 C88.9197222,29.4604604 89.0337399,29.8836461 88.9909833,29.9245995 C88.8769656,30.0338088 73.2137832,30.0201576 73.0997655,29.9109484 Z" id="Path" stroke="none" fill="#7D6EF3" fill-rule="evenodd"></path>
                            <path d="M10.0677966,17.9708389 L9,17.9150328 L9.27734977,17.4406805 C10.4422188,15.4595621 17.0570108,9 17.9167951,9 C17.9583975,9 18,11.0090215 18,13.4644922 L18,17.9289843 L17.6949153,17.9289843 C17.5146379,17.9289843 15.9753467,17.9568874 14.2557781,17.9847905 C12.5362096,18.0126935 10.6502311,17.998742 10.0677966,17.9708389 Z" id="Path" stroke="none" fill="#7D6EF3" fill-rule="evenodd"></path>
                            <path d="M24.1833245,17.901076 C24.0489902,17.6582024 23.9415228,9.81481453 24.0355568,7.27178531 L24.1295908,4.55731591 L25.4729339,3.82869517 C26.9774781,3.02864104 29.3820622,2 29.7581982,2 C29.9865666,2 30,2.37145371 30,9.9148213 C30,17.0010151 29.9731331,17.8296426 29.7850651,17.9153627 C29.4760962,18.0439428 24.2504917,18.0153695 24.1833245,17.901076 Z" id="Path" stroke="none" fill="#7D6EF3" fill-rule="evenodd"></path>
                            <path d="M36.1811546,17.940889 C35.9681077,17.8576366 35.9281613,0.90190084 36.1412083,0.763146864 C36.4474633,0.568891299 40.1092081,0.0138753975 41.174443,0 L42,0 L41.9733691,8.9912576 L41.9334228,17.9686398 L39.1371813,17.9963906 C37.6059062,18.010266 36.2610472,17.9825152 36.1811546,17.940889 Z" id="Path" stroke="none" fill="#7D6EF3" fill-rule="evenodd"></path>
                            <path d="M49.2348542,17.9199073 C49.0130475,17.864599 49,17.3115154 49,8.9322995 L49,0 L50.3438877,0.082962534 C51.6877754,0.165925068 53.8145104,0.497775204 54.5582152,0.746662806 L54.9626863,0.871106607 L54.9887812,9.29180381 C55.0148761,17.5880572 55.0148761,17.7263281 54.7669745,17.864599 C54.5060254,18.0028699 49.7437049,18.0581782 49.2348542,17.9199073 Z" id="Path" stroke="none" fill="#7D6EF3" fill-rule="evenodd"></path>
                            <path d="M61.2535916,17.8823864 C61.0838113,17.7674944 61.0576913,16.8052736 61.0185113,11.0319485 C60.9662712,4.44001767 61.0185113,2.50121448 61.2535916,2.08473083 C61.4233718,1.79750073 62.5465335,2.22834588 65.0801772,3.56396585 L67,4.56927121 L66.97388,11.2617326 L66.9346999,17.954194 L64.1920959,17.9972785 C62.5726535,18.01164 61.3711318,17.9685555 61.2535916,17.8823864 Z" id="Path" stroke="none" fill="#7D6EF3" fill-rule="evenodd"></path>
                            <path d="M73.1810932,17.9145108 C73.0417907,17.8590551 73,16.8331238 73,13.4225956 C73,9.97047552 73.0417907,9 73.1810932,9 C73.6965123,9 77.9034467,12.7571266 79.7840299,14.8921728 C81.4556595,16.7776681 82.1103811,17.6788239 81.9850089,17.872919 C81.9014274,18.0115584 73.5154191,18.0531502 73.1810932,17.9145108 Z" id="Path" stroke="none" fill="#7D6EF3" fill-rule="evenodd"></path>
                        </g>
                    </g>
                    <path d="M132.82525,361.534745 C132.82525,361.534745 141.680125,367.10952 140.60275,374.621222 C140.60275,374.621222 145.330875,371.270403 146.401875,359.72964 C147.141375,351.731049 132.82525,361.534745 132.82525,361.534745" id="Fill-138" fill="#9B14AA" mask="url(#mask-4)"></path>
                    <path d="M154.01235,407.301057 C153.835975,410.832598 154.027225,414.444934 154.532975,417.953087 C155.013225,421.444232 155.8356,424.911989 157.040475,427.786549 C157.631225,429.223829 158.30485,430.456998 158.931725,431.394632 C159.57135,432.33014 160.05585,432.627801 159.9666,432.731983 C159.841225,432.821281 159.760475,433.108312 160.5786,432.82766 C160.929225,432.776632 161.4371,432.364158 161.953475,432.083506 C162.47835,431.654023 163.0436,431.209657 163.602475,430.661109 C165.854975,428.381872 168.04585,425.228786 169.913725,421.822687 C171.817725,418.431472 173.5496,414.802127 175.1731,411.081358 C178.371225,403.614306 181.16985,395.807069 183.76235,387.902029 L183.77085,387.880767 C184.24685,386.424352 185.8151,385.633423 187.2686,386.109681 C188.558475,386.532786 189.327725,387.814857 189.153475,389.113937 C188.0336,397.495235 186.641725,405.882912 184.508225,414.251454 C184.023725,416.352094 183.356475,418.435724 182.778475,420.53849 C182.0751,422.624247 181.43335,424.720635 180.59185,426.810644 C179.00235,430.997041 177.0686,435.194069 174.044725,439.397475 C173.266975,440.445669 172.35535,441.48961 171.39485,442.518669 C170.279225,443.539223 169.2486,444.559777 167.716475,445.448509 L166.63485,446.111869 C166.2481,446.322358 165.786975,446.498829 165.357725,446.681678 C164.4631,447.028241 163.64285,447.415201 162.5846,447.576789 C160.6041,448.033912 158.362225,448.033912 156.330725,447.595924 C152.17635,446.683804 149.152475,444.379054 147.018975,442.221007 C144.90035,440.011934 143.28535,437.71994 141.991225,435.430072 C137.035725,426.253592 135.1466,416.951669 134.698225,407.301057 L134.6961,407.269164 C134.4496,401.932518 138.5721,397.40381 143.907975,397.157177 C149.241725,396.910543 153.76585,401.035281 154.014475,406.371927 C154.027225,406.68022 154.027225,406.999143 154.01235,407.301057" id="Fill-139" fill="#FAB9AF" mask="url(#mask-4)"></path>
                    <path d="M142.7354,446.218814 C146.277775,435.537018 153.405025,412.918993 152.79515,405.526356 C152.40415,400.791411 148.449525,397.164193 143.70015,397.164193 L112.8834,397.164193 C107.7749,397.164193 103.595025,401.216642 103.446275,406.327916 C103.1849,415.257762 107.296775,435.581667 109.6109,446.218814 L142.7354,446.218814 Z" id="Fill-140" fill="#FAB9AF" mask="url(#mask-4)"></path>
                    <path d="M136.66045,494.44296 C140.20495,507.246659 169.017825,598.263053 159.07495,601.018548 C149.1342,603.771917 95.0232,514.909317 94.332575,501.642117 C93.678075,489.057413 100.966825,475.424514 110.9097,472.669019 C120.85045,469.913523 133.11595,481.639262 136.66045,494.44296" id="Fill-141" fill="#FAB9AF" mask="url(#mask-4)"></path>
                    <path d="M181.21405,642.887195 C181.581675,642.455586 181.666675,641.847506 181.4733,641.313841 C173.770175,619.977887 163.429925,592.950219 161.224175,587.845324 C160.973425,587.260632 160.705675,586.690822 160.425175,586.135896 C156.663925,559.152878 139.3558,504.18117 136.6613,494.443386 C133.1168,481.639687 120.8513,469.913949 110.908425,472.669444 C100.967675,475.422813 93.6768,489.057838 94.333425,501.642542 C94.7648,509.947299 116.123175,547.865127 134.48105,574.397401 C138.346425,579.982807 140.773175,586.395287 141.954675,593.086293 C142.770675,597.712804 144.075425,602.326558 145.533175,605.700764 C147.704925,610.726992 160.437925,629.904899 171.81305,646.169976 C172.1403,646.639856 172.694925,646.916256 173.26655,646.85885 C176.28405,646.550558 179.1358,645.328019 181.21405,642.887195" id="Fill-142" fill="#FAC855" mask="url(#mask-4)"></path>
                    <path d="M106.085737,459.75965 C107.679487,455.28197 108.159737,450.48962 107.490362,445.782315 C105.934862,434.85601 103.216987,414.270589 103.467737,405.532097 C103.601612,400.860937 107.426612,397.163555 112.097362,397.163555 L116.668237,397.163555 C118.408612,401.203247 122.095487,404.322315 127.828737,404.322315 C133.553487,404.322315 137.242487,401.203247 138.984987,397.163555 L143.275362,397.163555 C138.613112,407.152226 140.289737,420.330127 148.311612,428.0183 C146.819862,433.291161 145.566112,438.595915 144.628987,442.897124 C143.358237,448.72066 143.919237,454.790829 146.212112,460.293315 C150.149737,469.750447 153.271362,484.916303 152.342737,490.92694 C119.925862,500.120429 97.5092375,483.8511 97.5092375,483.8511 L106.085737,459.75965 Z" id="Fill-143" fill="#39AE96" mask="url(#mask-4)"></path>
                    <path d="M144.628562,442.896486 C144.945187,441.44645 145.310687,439.85396 145.695312,438.21257 C141.030937,437.047437 136.443062,435.516606 131.967812,433.554166 C122.541312,429.420923 110.503187,422.70653 103.737187,413.445003 C103.924187,416.104822 104.187687,419.03041 104.504312,422.068683 C107.832062,429.833397 111.399937,437.330216 117.947062,443.166508 C125.784062,450.155176 135.329562,454.777434 145.319187,457.807203 C143.806187,452.991465 143.546937,447.856803 144.628562,442.896486" id="Fill-144" fill="#1C9585" mask="url(#mask-4)"></path>
                    <polygon id="Fill-145" fill="#FAB9AF" mask="url(#mask-4)" points="132.82525 399.28652 118.844875 397.817347 123.269125 382.511166 132.311 383.631649"></polygon>
                    <path d="M132.311,383.631224 L123.269125,382.510741 L121.887875,387.290334 C123.913,389.573824 126.514,394.506501 129.8035,394.506501 C130.846875,394.506501 131.798875,394.210965 132.653125,393.668796 L132.311,383.631224 Z" id="Fill-146" fill="#FA968C" mask="url(#mask-4)"></path>
                    <path d="M132.62295,391.030026 C129.552325,391.030026 126.23095,389.492817 121.65795,385.493522 C119.03145,383.199402 117.087075,379.195854 117.087075,376.491386 L117.087075,361.533894 L140.100825,361.533894 C140.100825,361.533894 141.82845,369.477205 140.151825,377.356731 C138.893825,383.269565 135.03695,391.030026 132.62295,391.030026" id="Fill-147" fill="#FAB9AF" mask="url(#mask-4)"></path>
                    <path d="M120.988788,373.662964 C120.988788,376.582173 119.592663,378.946456 117.871413,378.946456 C116.148038,378.946456 114.248288,375.121506 114.248288,372.204422 C114.248288,369.285213 116.148038,368.379472 117.871413,368.379472 C119.592663,368.379472 120.988788,370.743755 120.988788,373.662964" id="Fill-148" fill="#FAB9AF" mask="url(#mask-4)"></path>
                    <path d="M114.248925,363.34644 C114.248925,358.67528 118.03355,354.890726 122.702175,354.892853 L130.46905,354.894979 C132.6918,354.894979 134.84655,354.314539 136.735675,353.240831 C139.476925,351.684486 142.940675,352.203268 144.810675,354.741896 C146.83155,357.484634 147.70705,361.158628 142.58155,364.560474 C140.033675,366.250766 136.30855,364.377625 133.82655,365.189816 C133.67355,365.183437 133.53755,365.157923 133.378175,365.157923 L126.531425,365.157923 C124.151425,365.157923 122.332425,367.103354 122.2623,369.484646 C122.2198,370.987837 120.9873,372.195493 119.472175,372.195493 L119.1683,372.195493 L118.0718,368.68096 L114.248925,373.836883 L114.248925,363.34644 Z" id="Fill-149" fill="#9B14AA" mask="url(#mask-4)"></path>
                    <path d="M189.870875,379.863466 C189.870875,379.863466 191.4795,387.813156 189.216375,389.107983 C186.95325,390.404937 185.198,390.859934 183.189875,387.634559 C181.18175,384.41131 179.964125,379.030014 179.877,375.657934 C179.792,372.285854 182.033875,366.572879 182.67775,366.120008 C185.021625,364.470113 184.535,370.595562 184.443625,373.572177 C184.35225,376.550919 184.545625,379.922999 185.990625,379.561553 C187.435625,379.200106 187.180625,373.482879 188.697875,372.521857 C190.21725,371.560836 189.870875,379.863466 189.870875,379.863466" id="Fill-150" fill="#FAB9AF" mask="url(#mask-4)"></path>
                    <path d="M224.208112,433.93326 C224.208112,433.93326 216.207487,432.625675 214.998362,434.936804 C213.791362,437.247934 213.402487,439.021146 216.698362,440.907044 C219.994237,442.792943 225.415112,443.807118 228.787488,443.764595 C232.157738,443.724198 237.778363,441.266364 238.207613,440.60513 C239.765238,438.20045 233.666488,438.916964 230.695738,439.121075 C227.724988,439.325186 224.350487,439.259275 224.656487,437.800734 C224.962488,436.344318 230.680863,436.382589 231.583988,434.82837 C232.487113,433.272026 224.208112,433.93326 224.208112,433.93326" id="Fill-151" fill="#FAB9AF" mask="url(#mask-4)"></path>
                    <path d="M138.385738,361.27259 C137.614363,364.689319 138.753363,366.558208 127.558863,371.890602 C116.364363,377.225122 112.821988,374.945885 109.326363,380.688627 C109.326363,380.688627 110.854237,371.176214 117.035863,367.912568 C123.219613,364.646796 133.942363,362.514264 137.380613,354.955787 C137.380613,354.955787 138.912738,358.938073 138.385738,361.27259" id="Fill-152" fill="#9B14AA" mask="url(#mask-4)"></path>
                    <path d="M119.023588,405.83401 C119.019338,405.753217 119.008713,405.674549 118.987463,405.598007 L119.042713,405.761721 L119.142588,406.13805 C119.280713,406.476109 119.420963,406.822672 119.539963,407.171361 C119.858713,407.890001 120.200838,408.6703 120.621588,409.422958 C121.131588,410.164986 121.507713,410.960167 122.081463,411.69369 C122.672213,412.422961 123.273588,413.143727 123.823963,413.915521 C125.249838,415.267755 126.439838,416.821974 128.173838,418.014746 L130.602713,419.945294 L133.354588,421.614324 C140.743213,426.134527 149.719213,429.06862 158.999088,431.339352 C161.349338,431.824115 163.746338,432.200444 166.128463,432.642684 C168.519088,433.050906 170.896963,433.580318 173.357713,433.735527 L180.703838,434.460546 L184.392838,434.877272 L188.115838,435.040986 L195.591588,435.372666 C198.090588,435.502361 200.591713,435.604417 203.105588,435.549137 C208.131213,435.551263 213.169588,435.4811 218.250463,435.559767 L218.405588,435.561894 C219.935588,435.585281 221.157463,436.843964 221.132354,438.374795 C221.112838,439.695137 220.171463,440.783727 218.932588,441.045244 C213.902713,442.101943 208.832463,443.011937 203.749463,443.99422 C201.214338,444.551272 198.638838,444.783023 196.061213,445.080684 L188.309213,445.960912 L184.420463,446.3989 L180.493463,446.566866 L172.613963,446.798617 C169.985338,446.960204 167.329088,446.736958 164.668588,446.624272 C162.010213,446.479694 159.341213,446.396774 156.665838,446.190537 C145.972838,444.985007 135.039713,442.686635 124.578338,437.407395 L120.695963,435.328017 C119.442213,434.515826 118.209713,433.631346 116.970838,432.770254 C114.435713,431.167134 112.204463,428.904906 109.900963,426.823401 C108.834213,425.634881 107.816338,424.39746 106.789963,423.168543 C105.784838,421.916238 104.930588,420.468327 104.021088,419.107589 C103.164713,417.672435 102.403963,416.145857 101.685713,414.555494 L100.740088,412.023244 L100.332088,410.562577 L100.136588,409.807792 L99.9134625,408.638407 C99.1399625,403.357041 102.790713,398.449878 108.067088,397.675958 C113.343463,396.902038 118.250088,400.55477 119.023588,405.83401" id="Fill-153" fill="#FAB9AF" mask="url(#mask-4)"></path>
                    <path d="M136.233113,361.90916 C136.233113,361.90916 136.658113,373.418031 146.709363,378.946031 C146.709363,378.946031 142.280863,370.247936 142.582613,364.560474 C142.884363,358.870886 135.570113,357.977902 136.233113,361.90916" id="Fill-154" fill="#9B14AA" mask="url(#mask-4)"></path>
                    <path d="M25.7433125,651.702654 C25.3650625,650.760768 25.7220625,649.689186 26.5933125,649.170405 C27.3051875,648.7473 29.2134375,647.569411 30.6499375,646.684931 C31.2725625,646.302223 32.0545625,646.710445 32.1374375,647.437589 C33.0681875,655.674309 36.7996875,663.139235 43.8015625,666.698417 C45.6290625,669.137115 45.8883125,673.306503 44.9023125,674.552429 C44.6706875,674.845838 41.3918125,673.7615 38.6420625,670.608414 C26.4275625,656.609817 25.7433125,651.702654 25.7433125,651.702654" id="Fill-155" fill="#823264" mask="url(#mask-4)"></path>
                    <path d="M768.050438,608.714162 C767.565938,608.616359 767.096313,608.518556 766.669188,608.427131 C765.521688,608.18475 764.051188,608.210263 762.757063,608.318697 C760.583188,608.501546 758.407188,608.106082 756.452188,607.140808 L748.349563,603.145765 C744.926188,601.459725 741.260563,604.955122 742.779938,608.456897 C742.909563,608.756685 743.149688,608.99694 743.447188,609.128762 L753.033063,613.378943 C755.812563,614.612113 758.258438,616.48738 760.170938,618.849537 L762.888813,622.206734 C768.666688,618.594399 767.863438,612.062854 768.050438,608.714162" id="Fill-156" fill="#FAB9AF" mask="url(#mask-4)"></path>
                    <path d="M764.537388,636.633751 C764.928388,632.028502 762.843763,624.401988 761.857763,621.850603 C764.329138,617.304886 764.414138,612.423237 762.911763,608.030603 C764.180388,607.928548 765.593513,607.90516 766.711263,608.14329 C768.245513,608.468591 771.796388,609.017139 773.254138,609.299917 C774.282638,609.499776 775.005138,610.418274 774.964763,611.466468 C774.964763,611.466468 770.379013,644.68337 769.361138,644.051902 C767.597388,642.956933 764.203763,640.560757 764.537388,636.633751" id="Fill-157" fill="#46738C" mask="url(#mask-4)"></path>
                    <path d="M457.94685,690 L575.244725,690 C576.7726,690 578.011475,688.760452 578.011475,687.231748 L578.011475,687.231748 C578.011475,685.703043 576.7726,684.463495 575.244725,684.463495 L457.94685,684.463495 C456.418975,684.463495 455.1801,685.703043 455.1801,687.231748 L455.1801,687.231748 C455.1801,688.760452 456.418975,690 457.94685,690" id="Fill-158" fill="#B4D7DC" mask="url(#mask-4)"></path>
                    <path d="M649.419763,690 L776.928263,690 C778.611263,690 779.977638,688.632883 779.977638,686.946843 C779.977638,685.262929 778.611263,683.895812 776.928263,683.895812 L649.419763,683.895812 C647.734638,683.895812 646.370388,685.262929 646.370388,686.946843 C646.370388,688.632883 647.734638,690 649.419763,690" id="Fill-159" fill="#B4D7DC" mask="url(#mask-4)"></path>
                    <path d="M591.3127,575.848714 C588.739325,586.037243 570.630075,666.191117 574.208575,666.265573 C577.311075,666.329317 610.27195,591.480197 612.845325,581.291667 C615.4187,571.105264 612.683825,561.62687 606.738075,560.12368 C600.792325,558.620489 593.886075,565.660184 591.3127,575.848714" id="Fill-160" fill="#41B5E6" mask="url(#mask-4)"></path>
                    <path d="M630.974125,494.457631 C622.268,505.075643 583.3635,574.690172 591.6085,581.45772 C599.8535,588.227394 653.786,530.589489 662.492125,519.971477 C671.200375,509.353465 669.912625,494.25352 661.667625,487.485972 C653.422625,480.718425 639.68025,483.839618 630.974125,494.457631" id="Fill-161" fill="#41B5E6" mask="url(#mask-4)"></path>
                    <path d="M578.753525,677.40105 C578.78115,676.907782 578.80665,676.427272 578.834275,675.99141 C578.906525,674.819899 578.664275,673.369862 578.366775,672.104801 C577.869525,669.980773 577.941775,667.767447 578.609025,665.690195 L581.3694,657.08565 C582.536025,653.452053 578.541025,650.335112 575.302525,652.352832 C575.026275,652.52505 574.822275,652.797198 574.73515,653.111869 L571.93865,663.22173 C571.129025,666.153696 569.633025,668.849659 567.57815,671.088499 L564.6584,674.271352 C569.076275,679.459167 575.41515,677.707216 578.753525,677.40105" id="Fill-162" fill="#FAB9AF" mask="url(#mask-4)"></path>
                    <path d="M550.635738,678.01806 C555.244863,677.728903 562.480488,674.548177 564.858363,673.198069 C569.716113,674.97766 574.552613,674.344066 578.675113,672.215786 C578.961988,673.45746 579.193613,674.850091 579.123488,675.991835 C579.025738,677.558811 579.004488,681.152011 578.938613,682.636066 C578.891863,683.68426 578.088613,684.532595 577.047363,684.649534 C577.047363,684.649534 543.533988,684.979088 544.007863,683.879866 C544.834488,681.972706 546.704488,678.264694 550.635738,678.01806" id="Fill-163" fill="#46738C" mask="url(#mask-4)"></path>
                    <path d="M612.845113,581.292518 C611.255612,587.590186 591.575987,636.41093 580.993488,659.156524 C577.805988,657.940364 576.025238,658.040293 572.773988,657.017613 C576.917738,635.656146 584.333988,587.962262 586.775613,577.671678 C587.840238,563.332896 622.902737,504.300235 630.973487,494.458269 C639.679612,483.840256 653.421987,480.716936 661.666987,487.48661 C669.911987,494.254158 671.199737,509.354102 662.491487,519.972115 C656.860237,526.841718 613.920362,577.035958 612.845113,581.292518" id="Fill-164" fill="#695A6E" mask="url(#mask-4)"></path>
                    <path d="M661.667837,487.48576 C653.422837,480.718212 639.680462,483.839406 630.974337,494.457418 C630.270962,495.314258 629.344462,496.583572 628.269212,498.129286 C636.133837,513.786283 638.796462,531.108058 638.382087,548.699855 C649.179212,535.738821 659.872212,523.166874 662.492337,519.971264 C671.198463,509.353252 669.912837,494.253307 661.667837,487.48576" id="Fill-165" fill="#614C69" mask="url(#mask-4)"></path>
                    <path d="M655.056113,581.70648 C655.056113,581.70648 655.045488,581.697975 655.045488,581.697975 C655.036988,581.683092 655.030613,581.663957 655.024238,581.6512 C654.671488,580.977209 654.410113,580.301092 654.218863,579.622849 C648.411238,562.405255 650.072988,499.883575 651.955738,487.196815 C652.457238,483.824735 653.460238,480.703542 654.811738,477.888514 L673.326863,487.970735 C677.976363,493.237218 683.469488,497.895622 689.725488,501.673797 C690.666863,502.24148 689.406738,499.779394 690.369363,500.283292 C687.700363,516.733345 684.221738,549.361302 682.912738,565.679532 C682.615238,569.387545 684.716863,572.859554 688.144488,574.29896 C705.399488,581.553397 736.175863,595.647671 753.326738,604.907071 L752.742363,614.623594 C727.707738,609.37412 677.695863,594.497422 670.103238,592.279843 C662.935613,590.187708 657.368113,586.069348 655.056113,581.70648" id="Fill-166" fill="#828291" mask="url(#mask-4)"></path>
                    <path d="M639.782036,423.829351 C639.732525,424.88605 639.664525,425.38357 639.588025,426.093705 C639.5094,426.740056 639.422275,427.382154 639.320275,427.998739 C639.12265,429.248918 638.886775,430.460825 638.614775,431.662102 C638.0559,434.058278 637.420525,436.418308 636.5684,438.714554 C634.908775,443.311299 632.647775,447.720942 629.8534,451.798905 C624.237025,459.950579 616.055775,466.37369 607.1839,469.826564 C602.76815,471.633794 598.205775,472.720259 593.700775,473.36661 C589.1894,474.108638 584.707775,474.136278 580.304775,474.038474 C571.49665,473.708921 563.0349,472.005871 554.877025,469.730887 C553.351275,469.305656 552.4609,467.723798 552.883775,466.197219 C553.2599,464.851364 554.532775,463.998776 555.87365,464.10721 L555.9119,464.111462 C564.040025,464.762065 572.1469,464.82585 579.8989,463.849945 C587.602025,462.742219 595.05015,460.81805 601.1234,457.120668 C607.23065,453.529594 611.99915,448.575656 615.040025,442.577776 C616.595525,439.609665 617.80465,436.424687 618.576025,433.103634 C618.992525,431.455865 619.30065,429.771951 619.5259,428.105047 C619.638525,427.271594 619.7214,426.436016 619.7724,425.630204 C619.80215,425.219856 619.817025,424.83077 619.82765,424.445936 C619.834025,424.122761 619.838275,423.58697 619.817025,423.608231 C619.876525,418.092988 624.394275,413.670588 629.90865,413.732247 C635.4209,413.791779 639.843025,418.311982 639.782036,423.829351" id="Fill-167" fill="#FA968C" mask="url(#mask-4)"></path>
                    <path d="M609.319943,438.260408 C611.030575,434.582162 617.664825,420.237002 618.489325,416.743731 L618.5297,416.569386 C618.595575,416.29086 618.676325,416.010208 618.7677,415.733808 C620.508075,410.490713 626.164825,407.652297 631.405075,409.393617 C636.645325,411.134937 639.4822,416.796885 637.741825,422.037854 C636.109825,426.955648 634.418325,431.035737 632.429325,435.364586 C631.073575,438.228516 629.590325,441.035039 628.043325,443.811796 C626.334825,442.499959 609.3072,438.288048 609.319943,438.260408" id="Fill-168" fill="#AAC85A" mask="url(#mask-4)"></path>
                    <path d="M631.37915,506.525893 C639.64965,513.355099 674.174525,511.970973 686.98615,511.201305 C690.20765,511.005699 692.636525,508.08649 692.10315,504.901511 C690.7389,496.771099 685.088525,482.776754 681.69065,468.242366 C676.7989,447.299751 672.1324,424.06089 669.678025,411.493194 C668.6644,406.309631 663.71315,402.878019 658.5069,403.741237 L627.076025,408.94181 C622.231025,409.74337 618.809775,414.114742 619.209275,419.011274 C620.038025,429.14665 621.47665,446.759708 622.877025,464.02833 C624.296525,481.55209 622.554025,499.237437 631.37915,506.525893" id="Fill-169" fill="#FAB9AF" mask="url(#mask-4)"></path>
                    <path d="M626.77725,408.990924 L631.883625,408.146841 C634.34225,411.971791 638.6305,414.529554 644.47,413.564281 C650.315875,412.596881 653.55225,408.791065 654.646625,404.379296 L659.30675,403.607502 C664.073125,402.818699 668.59725,405.950524 669.521625,410.693973 C671.92925,423.055431 676.691375,446.847093 681.6915,468.242579 C685.1425,483.010844 690.81625,496.582084 692.089125,504.833687 C692.5885,508.067567 690.163875,511.010164 686.899875,511.20577 C674.022375,511.977564 639.631375,513.340428 631.38,506.526105 C622.554875,499.23765 624.297375,481.552302 622.87575,464.028542 C621.4605,446.585576 620.009125,428.791794 619.184625,418.707447 C618.797875,413.981007 622.100125,409.764844 626.77725,408.990924" id="Fill-170" fill="#82BE50" mask="url(#mask-4)"></path>
                    <path d="M643.469763,391.82946 L644.058388,391.661494 C648.535763,390.375171 651.124013,385.699759 649.840513,381.219953 L646.402263,369.230571 L637.704638,371.726676 L643.469763,391.82946 Z" id="Fill-171" fill="#CD5014" mask="url(#mask-4)"></path>
                    <polygon id="Fill-172" fill="#FAB9AF" mask="url(#mask-4)" points="636.422413 409.00687 651.580038 407.894891 652.113413 405.713458 643.237288 389.763051 632.710037 394.249236"></polygon>
                    <path d="M632.710463,394.248386 L643.237713,389.764327 L646.803463,396.170429 C645.150213,399.627555 643.139963,403.46101 639.168338,404.600629 C637.910338,404.962075 636.495088,404.857893 635.275338,404.498573 L632.710463,394.248386 Z" id="Fill-173" fill="#FA968C" mask="url(#mask-4)"></path>
                    <path d="M637.962613,400.771 L637.962613,400.771 C645.327863,398.657603 649.584238,390.969431 647.471988,383.602308 L643.209238,368.738366 L620.339988,375.30393 C620.339988,375.30393 623.665613,386.906351 627.577738,394.258591 C630.512363,399.773834 634.207738,401.84896 637.962613,400.771" id="Fill-174" fill="#FAB9AF" mask="url(#mask-4)"></path>
                    <polygon id="Fill-175" fill="#CD5014" mask="url(#mask-4)" points="641.76615 375.323703 646.065025 374.090534 646.6239 376.040217 642.325025 377.273386"></polygon>
                    <g id="Group" mask="url(#mask-4)">
                        <g transform="translate(488.000000, 387.000000)">
                            <rect id="Rectangle" fill="#FFFFFF" fill-rule="evenodd" x="0" y="0" width="103" height="103" rx="40"></rect>
                            <path d="M50.7309118,12.6428405 L67.1711469,2.88454342 L67.1794829,3.44672898 L67.4783679,37.9700377 C56.8662868,44.3881745 51.5589194,47.5773134 51.556266,47.5374544 C51.5330823,47.186778 51.2579643,35.5552401 50.7309118,12.6428405 Z" id="Rectangle" fill="#4285F4" fill-rule="evenodd" transform="translate(59.104640, 25.210999) rotate(121.000000) translate(-59.104640, -25.210999) "></path>
                            <polygon id="Rectangle" fill="#EDB722" fill-rule="evenodd" transform="translate(59.086191, 77.976808) rotate(59.000000) translate(-59.086191, -77.976808) " points="51.1578868 55.5564144 67.5535889 65.4187635 66.8279606 100.397202 50.618793 90.6577513"></polygon>
                            <g id="Combined-Shape" fill="none">
                                <use fill="black" fill-opacity="1" filter="url(#filter-6)" xlink:href="#path-5"></use>
                                <use fill="#DB4437" fill-rule="evenodd" xlink:href="#path-5"></use>
                            </g>
                            <g id="Rectangle" fill="none" transform="translate(59.351394, 60.300697) rotate(121.000000) translate(-59.351394, -60.300697) ">
                                <use fill="black" fill-opacity="1" filter="url(#filter-9)" xlink:href="#path-8"></use>
                                <use fill="url(#linearGradient-7)" fill-rule="evenodd" xlink:href="#path-8"></use>
                            </g>
                            <g id="Combined-Shape" fill="none">
                                <use fill="black" fill-opacity="1" filter="url(#filter-12)" xlink:href="#path-11"></use>
                                <use fill="url(#linearGradient-10)" fill-rule="evenodd" xlink:href="#path-11"></use>
                            </g>
                            <polygon id="Path-7" fill="#FFFFFF" fill-rule="evenodd" points="44 61.4278081 44.7895055 61 46.0197605 61.7415279 47.6578587 62.6779147 58 68.8645388 44 77"></polygon>
                            <polygon id="Path-7" fill="#FFFFFF" fill-rule="evenodd" points="44 26 47.6578587 28.3226503 58 34.6045478 44 43"></polygon>
                            <polygon id="Path-7" fill="#FFFFFF" fill-rule="evenodd" transform="translate(67.500000, 52.000000) scale(-1, -1) translate(-67.500000, -52.000000) " points="61 44 63.7494283 45.6725302 74 52 61.2036601 60"></polygon>
                            <path d="M73.8414125,24.2583312 C75.5989947,22.7419407 76.9587593,21.9891636 77.9207063,22 C78.8826533,22.0111507 80.2424178,22.7950077 82,24.351571 L82,46.3490063 C78.41941,47.0001538 75.8358573,47.1628253 74.2493419,46.8370208 C72.6628265,46.5112163 72.5873253,45.8024855 74.0228384,44.7108282 L73.8414125,24.2583312 Z" id="Rectangle" fill="#FFFFFF" fill-rule="evenodd"></path>
                            <path d="M74.3993131,59.9664869 C73.6871442,56.6444894 73.8380964,54.9889938 74.8521696,55 C75.8662428,55.0111531 78.5821863,56.6979721 83,60.0604571 L83,82.2302214 C79.1502583,83.6563119 76.5551925,84.2205428 75.2148027,83.9229143 C73.8744128,83.6252857 73.1361452,82.3209005 73,80.0097586 L74.301994,79.2572301 L74.3993131,59.9664869 Z" id="Rectangle" fill="#FFFFFF" fill-rule="evenodd"></path>
                            <path d="M20,49.2667919 C21.6471992,47.744798 22.9215654,46.9893182 23.8230984,47.0003523 C24.7246314,47.0113865 26.1164065,47.7668664 27.9984236,49.2667919 L27.9984236,51.0769843 L27.9984236,51.1698042 L27.9984236,70.3037186 C28.0021633,70.3519382 27.9980223,70.5970264 27.9984236,70.6474954 C27.9990196,70.7224553 27.9990196,70.8310407 27.9984236,70.9732514 L27.9984236,71.5074966 L27.9984236,72 L20.1700316,69.794865 L20,49.2667919 Z" id="Rectangle" fill="#FFFFFF" fill-rule="evenodd"></path>
                        </g>
                    </g>
                    <path d="M642.787425,381.904149 C643.6183,384.804223 645.67955,386.756032 647.3923,386.26489 C649.102925,385.773749 649.8998,381.432143 649.068925,378.532069 C648.23805,375.631995 646.0918,375.272675 644.381175,375.763817 C642.668425,376.254958 641.95655,379.004075 642.787425,381.904149" id="Fill-176" fill="#FAB9AF" mask="url(#mask-4)"></path>
                    <path d="M620.505525,381.871831 C619.4409,380.175161 618.7694,378.259496 618.54415,376.26729 C618.54415,376.26729 616.548775,369.657078 618.788525,367.649988 C620.8264,365.81937 625.28465,366.136167 628.0174,365.959696 C630.021275,365.830001 635.7354,363.739991 635.7354,363.739991 C640.374275,362.406893 645.215025,365.090099 646.545275,369.729367 L647.06165,371.530219 L644.267275,376.120585 L644.18015,379.926401 L643.876275,380.013573 C642.40365,380.436678 640.8694,379.635118 640.36365,378.210594 C639.524275,375.861194 637.2994,374.33249 634.9024,375.021364 L628.0514,376.988056 C623.88215,378.185081 622.3564,381.046884 623.251025,384.168078 L624.22215,386.747102 L620.505525,381.871831 Z" id="Fill-177" fill="#CD5014" mask="url(#mask-4)"></path>
                    <path d="M631.7251,474.391203 C608.424475,480.157333 583.353725,473.71296 561.23885,464.272837 C559.783225,463.652 559.10535,461.96596 559.727975,460.509545 C560.2741,459.225348 561.644725,458.547105 562.957975,458.827757 L562.996225,458.836262 C593.766225,465.36568 633.08085,469.647754 647.639225,441.586776 C655.017225,427.790163 653.68485,411.089225 653.716725,413.449256 C653.54885,400.517988 672.94585,399.88652 673.649225,412.792274 C674.96885,437.678905 661.039475,467.200551 631.7251,474.391203 Z" id="Fill-179" fill="#FAB9AF" mask="url(#mask-4)"></path>
                    <path d="M650.712825,432.566568 C653.0397,422.020845 653.36695,413.482211 653.373325,413.324876 L653.3712,413.624663 L655.0542,406.914522 C655.0542,406.914522 658.26295,401.537479 667.0392,403.618983 C674.049575,405.27951 674.002825,413.248334 674.002825,413.248334 C674.02195,414.353934 676.557075,422.322759 669.684825,439.623273 C669.684825,439.623273 650.3877,434.044245 650.712825,432.566568" id="Fill-180" fill="#AAC85A" mask="url(#mask-4)"></path>
                    <path d="M564.636088,459.257028 C562.700213,456.996926 562.188088,449.066372 561.097963,449.066372 C560.315963,449.066372 560.175713,451.804858 560.158713,453.342068 C560.156588,453.522791 560.050338,453.684378 559.886713,453.756668 C559.723088,453.831083 559.531838,453.801317 559.397963,453.682252 C557.198588,451.745326 550.995713,446.374662 550.356088,446.887065 C549.707963,447.405846 553.003838,451.41152 554.125838,452.740366 C554.159838,452.780763 554.161963,452.838169 554.127963,452.880692 C554.096088,452.921089 554.038713,452.933846 553.991963,452.910458 C552.257963,452.032357 546.599088,449.257726 546.467338,450.44412 C546.341963,451.573108 551.261338,454.713437 553.182338,455.893452 C553.231213,455.923218 553.248213,455.982751 553.226963,456.033778 C553.203588,456.084806 553.146213,456.11032 553.093088,456.093311 C550.938338,455.455465 545.394213,453.916129 545.268838,454.919674 C545.139213,455.942354 550.500588,458.2386 552.427963,459.029529 C552.478963,459.050791 552.506588,459.103945 552.493838,459.157098 C552.481088,459.210252 552.432213,459.246397 552.379088,459.242145 C550.477213,459.093314 545.572713,458.776517 546.329213,459.533428 C547.262088,460.468935 559.074963,464.332157 561.720588,464.332157 C564.368338,464.332157 564.636088,459.257028 564.636088,459.257028" id="Fill-181" fill="#FAB9AF" mask="url(#mask-4)"></path>
                    <polygon id="Fill-182" fill="#C8E6EB" mask="url(#mask-4)" points="337 402.815049 438.558 402.815049 438.558 379 337 379"></polygon>
                    <polygon id="Fill-183" fill="#C8E6EB" mask="url(#mask-4)" points="337 438.538686 438.558 438.538686 438.558 414.723637 337 414.723637"></polygon>
                    <polygon id="Fill-184" fill="#C8E6EB" mask="url(#mask-4)" points="337 474.262323 438.558 474.262323 438.558 450.447274 337 450.447274"></polygon>
                    <polygon id="Fill-185" fill="#C8E6EB" mask="url(#mask-4)" points="337 509.98596 438.558 509.98596 438.558 486.170911 337 486.170911"></polygon>
                    <polygon id="Fill-186" fill="#C8E6EB" mask="url(#mask-4)" points="164.821375 314.272471 610.727125 314.272471 610.727125 288.076129 164.821375 288.076129"></polygon>
                    <path d="M369.839038,300.695278 L233.339663,300.695278 C226.437663,300.695278 220.842538,295.097114 220.842538,288.191367 L220.842538,256.675388 C220.842538,249.769641 226.437663,244.171478 233.339663,244.171478 L369.839038,244.171478 C376.741038,244.171478 382.336163,249.769641 382.336163,256.675388 L382.336163,288.191367 C382.336163,295.097114 376.741038,300.695278 369.839038,300.695278" id="Fill-187" fill="#39AE96" mask="url(#mask-4)"></path>
                    <polygon id="Fill-188" fill="#39AE96" mask="url(#mask-4)" points="349.140263 309.736747 339.962388 300.553888 349.140263 291.373156 358.318138 300.553888"></polygon>
                    <polygon id="Fill-189" fill="#FFFFFF" mask="url(#mask-4)" points="240.025125 262.915225 359.63925 262.915225 359.63925 258.482194 240.025125 258.482194"></polygon>
                    <polygon id="Fill-190" fill="#FFFFFF" mask="url(#mask-4)" points="240.025125 274.662225 359.63925 274.662225 359.63925 270.229194 240.025125 270.229194"></polygon>
                    <polygon id="Fill-191" fill="#FFFFFF" mask="url(#mask-4)" points="240.025125 286.411351 359.63925 286.411351 359.63925 281.97832 240.025125 281.97832"></polygon>
                    <path d="M298.467725,515.378559 C298.467725,517.666301 296.6126,519.522433 294.3261,519.522433 C292.0396,519.522433 290.1866,517.666301 290.1866,515.378559 C290.1866,513.090818 292.0396,511.234686 294.3261,511.234686 C296.6126,511.234686 298.467725,513.090818 298.467725,515.378559" id="Fill-194" fill="#FFFFFF" mask="url(#mask-4)"></path>
                    <path d="M316.623937,515.378559 C316.623937,517.666301 314.770937,519.522433 312.482312,519.522433 C310.195812,519.522433 308.342812,517.666301 308.342812,515.378559 C308.342812,513.090818 310.195812,511.234686 312.482312,511.234686 C314.770937,511.234686 316.623937,513.090818 316.623937,515.378559" id="Fill-195" fill="#FFFFFF" mask="url(#mask-4)"></path>
                    <path d="M334.78015,515.378559 C334.78015,517.666301 332.92715,519.522433 330.638525,519.522433 C328.352025,519.522433 326.499025,517.666301 326.499025,515.378559 C326.499025,513.090818 328.352025,511.234686 330.638525,511.234686 C332.92715,511.234686 334.78015,513.090818 334.78015,515.378559" id="Fill-196" fill="#FFFFFF" mask="url(#mask-4)"></path>
                </g>
            </g>
        </g>
    </g>
</svg>