<?xml version="1.0" encoding="UTF-8"?>
<svg width="1050px" height="595px" viewBox="0 0 1050 595" version="1.1" xmlns="http://www.w3.org/2000/svg" xmlns:xlink="http://www.w3.org/1999/xlink">
    <!-- Generator: Sketch 63.1 (92452) - https://sketch.com -->
    <title>devices</title>
    <desc>Created with Sketch.</desc>
    <g id="illustrations" stroke="none" stroke-width="1" fill="none" fill-rule="evenodd">
        <g id="Artboard" transform="translate(-7041.000000, -366.000000)" fill-rule="nonzero">
            <g id="devices" transform="translate(7041.000000, 366.000000)">
                <ellipse id="Oval" fill="#6C63FF" opacity="0.1" cx="525" cy="561.02" rx="525" ry="33"></ellipse>
                <polygon id="Path" fill="#D0D2D5" points="497.09 549.99 318.9 547.71 319.43 543.14 328.04 467.75 484.53 467.75 496.04 543.14 496.92 548.85"></polygon>
                <polygon id="Path" fill="#000000" opacity="0.1" points="496.92 548.85 408 548.85 318.9 547.71 319.43 543.14 496.04 543.14"></polygon>
                <rect id="Rectangle" fill="#D0D2D5" x="289.2" y="544.28" width="236.45" height="5.71"></rect>
                <path d="M751.240124,14.94 C751.273212,6.73138633 744.64859,0.0485748861 736.44,0.01 L76.12,0.01 C72.1762172,0.0285215198 68.401324,1.6129686 65.6257762,4.41477161 C62.8502284,7.21657462 61.3013911,11.0062176 61.3198342,14.95 L61.3198342,415.21 L751.240124,415.21 L751.240124,14.94 Z" id="Path" fill="#3F3D56"></path>
                <path d="M61.32,411.21 L61.32,458.09 C61.32,466.263814 67.9461857,472.89 76.12,472.89 L736.44,472.89 C744.613814,472.89 751.24,466.263814 751.24,458.09 L751.24,411.21 L61.32,411.21 Z" id="Path" fill="#D0D2D5"></path>
                <rect id="Rectangle" fill="#FFFFFF" x="89.88" y="25.13" width="636.23" height="359.81"></rect>
                <path d="M409.71,455.100004 C414.440949,455.103217 418.911902,452.935929 421.84,449.22 L421.84,449.22 C422.278509,448.660537 422.679391,448.072577 423.04,447.46 L414.57,446.01 L423.72,446.08 C425.493578,442.219996 425.598477,437.799791 424.01,433.86 L411.74,440.22 L423.06,431.9 C420.162485,426.919531 414.729926,423.970037 408.974865,424.252769 C403.219805,424.535502 398.102512,428.003287 395.707129,433.243783 C393.311747,438.48428 394.037959,444.623077 397.59,449.16 L397.59,449.16 C400.503834,452.895691 404.97232,455.085692 409.71,455.100004 L409.71,455.100004 Z" id="Path" fill="#6C63FF"></path>
                <polygon id="Path" fill="#000000" opacity="0.1" points="425.13 472.89 496.22 544.28 485.31 472.89"></polygon>
                <path d="M634.939995,211.11 C634.944972,211.040088 634.944972,210.969912 634.939995,210.9 C634.71078,205.946017 633.816088,201.045392 632.28,196.33 C632.19,196.06 632.11,195.79 632.01,195.53 C628.111619,184.140236 620.632426,174.317655 610.69,167.53 C587.642266,151.832207 556.523264,155.685158 538,176.53 C537.060357,171.218232 535.57585,166.017431 533.57,161.01 C518.980773,162.857771 504.256299,163.406592 489.57,162.65 C498.574045,166.802984 507.909985,170.19483 517.48,172.79 L517.14,174.06 C506.4028,171.149163 495.960819,167.242209 485.95,162.39 L482.95,160.93 L486.31,161.15 C501.924495,162.167822 517.600093,161.715835 533.13,159.8 C529.762633,151.792339 525.100329,144.393465 519.33,137.9 C494.15,135.36 469.16,130.08 445.85,119.6 L446.39,118.41 C469.09,128.61 493.39,133.86 518,136.41 C501.142594,118.331184 476.764997,109.231815 452.184594,111.843237 C427.604191,114.454659 405.682603,128.472853 393,149.69 C390.638815,127.148973 381.249304,105.921121 366.16,89.01 C352.729876,94.3798462 338.861881,98.5820662 324.71,101.57 C303.421536,106.09047 281.634878,107.818342 259.9,106.71 C268.901262,110.861381 278.233745,114.253186 287.8,116.85 L287.46,118.11 C276.723626,115.200889 266.281792,111.297337 256.27,106.45 L253.27,104.98 L256.62,105.2 C293.655471,107.640338 330.767889,101.766996 365.24,88.01 C363.95,86.59 362.61,85.2 361.24,83.84 C318.18,84.71 271.29,84.29 228.84,68.84 C196.880953,88.5696487 177.428549,123.451518 177.439995,161.01 C177.439995,181.33 183.02,209.28 192.74,237.32 C197.072565,249.869696 202.168749,262.142615 208,274.07 C211,280.07 214.12,285.97 217.439995,291.59 L217.439995,291.59 C221.430356,298.416138 225.824847,304.997856 230.6,311.3 C231.46,312.43 232.33,313.54 233.2,314.62 C238.10235,320.811643 243.602193,326.505757 249.62,331.62 L249.62,331.62 C250.833333,332.633333 252.056667,333.6 253.29,334.52 C256.6001,336.992047 260.124057,339.163982 263.82,341.01 C269.962024,344.200872 276.717656,346.035566 283.63,346.39 C284.18,346.39 284.72,346.39 285.27,346.39 L285.27,346.62 L579.27,346.62 L579.27,346.39 L579.49,346.39 C581.195019,346.388057 582.886773,346.090308 584.49,345.51 C594.89,341.82 604.49,327.01 612.42,308.3 C614.18,304.15 615.86,299.81 617.42,295.35 C618.83,291.42 620.17,287.35 621.42,283.35 C625.105742,271.472352 628.192959,259.417185 630.67,247.23 C633.47,233.35 635.02,221.23 635.02,213.55 C635,212.77 635,211.94 634.939995,211.11 Z" id="Path" fill="#6C63FF" opacity="0.1"></path>
                <path d="M359.91,82.51 C324.872208,49.1155453 271.882298,43.1428359 230.29,67.9 C271.83,82.78 317.68,83.33 359.91,82.51 Z" id="Path" fill="#6C63FF" opacity="0.1"></path>
                <path d="M600.72,324.06 L555.35,245.47 C555.09079,245.022087 554.612509,244.746275 554.095,244.746275 C553.577491,244.746275 553.09921,245.022087 552.84,245.47 L507.47,324.06 C507.214031,324.507431 507.214847,325.057119 507.472145,325.503787 C507.729443,325.950456 508.204534,326.226944 508.72,326.23 L522.26,326.23 C523.054692,326.235369 523.699132,326.875364 523.71,327.67 L523.71,344.46 C523.707336,344.843641 523.857873,345.212485 524.128214,345.484704 C524.398556,345.756923 524.766349,345.91 525.15,345.91 L542.81,345.91 C543.610813,345.91 544.26,345.260813 544.26,344.46 L544.26,336.36 C544.257336,335.976359 544.407873,335.607515 544.678214,335.335296 C544.948556,335.063077 545.316349,334.909991 545.7,334.91 L562.49,334.91 C563.290813,334.91 563.94,335.559187 563.94,336.36 L563.94,344.46 C563.94,345.260813 564.589187,345.91 565.39,345.91 L583,345.91 C583.62536,345.91 584.178918,345.505452 584.37,344.91 C584.42338,344.76253 584.450458,344.606833 584.45,344.45 L584.45,327.67 C584.455496,326.873095 585.103076,326.229981 585.9,326.23 L599.43,326.23 C599.952597,326.241387 600.440873,325.970611 600.707982,325.521289 C600.975091,325.071966 600.979682,324.513655 600.72,324.06 L600.72,324.06 Z M537.46,332.75 C537.198317,333.022358 536.83769,333.177427 536.46,333.18 L530.09,333.18 C529.289187,333.18 528.64,332.530813 528.64,331.73 C528.650762,330.933688 529.293688,330.290762 530.09,330.28 L536.46,330.28 C537.260813,330.28 537.91,330.929187 537.91,331.73 C537.907682,332.117637 537.744744,332.486963 537.46,332.75 L537.46,332.75 Z M579.14,332.75 C578.878317,333.022358 578.51769,333.177427 578.14,333.18 L571.77,333.18 C571.19044,333.167899 570.67378,332.811777 570.456242,332.274457 C570.238703,331.737136 570.362094,331.121885 570.77,330.71 C571.031683,330.437642 571.39231,330.282573 571.77,330.28 L578.14,330.28 C578.524564,330.28 578.893377,330.432767 579.165305,330.704695 C579.437233,330.976623 579.59,331.345436 579.59,331.73 C579.587682,332.117637 579.424744,332.486963 579.14,332.75 L579.14,332.75 Z" id="Shape" fill="#6C63FF" opacity="0.1"></path>
                <path d="M320.28,324.75 L274.91,246.16 C274.649527,245.716926 274.173966,245.444847 273.66,245.444847 C273.146034,245.444847 272.670473,245.716926 272.41,246.16 L233.21,314.01 C238.110048,320.203657 243.610101,325.897987 249.63,331.01 L256,331.01 C256.800813,331.01 257.45,331.659187 257.45,332.46 C257.439238,333.256312 256.796312,333.899238 256,333.91 L253.31,333.91 C256.61436,336.391687 260.131344,338.576835 263.82,340.44 L263.82,337.01 C263.819991,336.626349 263.973077,336.258556 264.245296,335.988214 C264.517515,335.717873 264.886359,335.567336 265.27,335.57 L282.06,335.57 C282.441912,335.57 282.808181,335.721714 283.078234,335.991766 C283.348286,336.261819 283.5,336.628088 283.5,337.01 L283.5,345.11 C283.500411,345.320165 283.544688,345.527929 283.63,345.72 C283.866243,346.235465 284.382994,346.564306 284.95,346.560042 L302.61,346.560042 C303.064398,346.563271 303.492522,346.347347 303.76,345.98 C303.948894,345.729353 304.050727,345.423854 304.05,345.11 L304.05,328.37 C304.05,327.569187 304.699187,326.92 305.5,326.92 L319,326.92 C319.523437,326.934204 320.01333,326.66315 320.279365,326.212137 C320.545401,325.761124 320.545644,325.201244 320.28,324.75 L320.28,324.75 Z M290.28,331.4 C290.543612,331.130442 290.903014,330.975899 291.28,330.97 L297.64,330.97 C298.440813,330.97 299.09,331.619187 299.09,332.42 C299.09,333.220813 298.440813,333.87 297.64,333.87 L291.28,333.87 C290.479187,333.87 289.83,333.220813 289.83,332.42 C289.839568,332.031893 290.005439,331.664091 290.29,331.4 L290.28,331.4 Z M261.78,302.32 C261.396349,302.32 261.028556,302.166923 260.758214,301.894704 C260.487873,301.622485 260.337336,301.253641 260.339965,300.87 L260.339965,289.87 C260.337336,289.486359 260.487873,289.117515 260.758214,288.845296 C261.028556,288.573077 261.396349,288.42 261.78,288.42 L285.52,288.42 C286.316905,288.425496 286.96,289.073076 286.96,289.87 L286.96,300.87 C286.96,301.666924 286.316905,302.314504 285.52,302.32 L261.78,302.32 Z" id="Shape" fill="#6C63FF" opacity="0.1"></path>
                <path d="M499.63,183.58 L443.48,183.58 L443.48,171.43 C443.48,169.828374 442.181626,168.53 440.58,168.53 L424.09,168.53 L424.09,155.59 C424.090007,155.105568 423.896886,154.641122 423.553404,154.299517 C423.209922,153.957912 422.744424,153.767338 422.26,153.769972 L401,153.769972 C399.993211,153.769972 399.175502,154.583226 399.17,155.59 L399.17,168.53 L379.81,168.53 C378.208374,168.53 376.91,169.828374 376.91,171.43 L376.91,183.57 L323.37,183.57 C323.212699,183.567264 323.061035,183.628545 322.94979,183.73979 C322.838545,183.851035 322.777264,184.002699 322.779912,184.16 L322.779912,345.36 C322.777264,345.517301 322.838545,345.668965 322.94979,345.78021 C323.061035,345.891455 323.212699,345.952736 323.37,345.95 L359,345.95 C359.157301,345.952736 359.308965,345.891455 359.42021,345.78021 C359.531455,345.668965 359.592736,345.517301 359.59,345.36 L359.59,323.69 C359.589955,323.362495 359.852541,323.095458 360.18,323.09 L375.18,323.09 C375.507459,323.095458 375.770045,323.362495 375.77,323.69 L375.77,345.37 C375.767264,345.527301 375.828545,345.678965 375.93979,345.79021 C376.051035,345.901455 376.202699,345.962736 376.36,345.960088 L446.68,345.960088 C447.005848,345.960088 447.27,345.695848 447.27,345.37 L447.27,323.69 C447.267325,323.533516 447.326935,323.38238 447.435711,323.269854 C447.544487,323.157327 447.693515,323.09263 447.85,323.09 L462.85,323.09 C463.008226,323.089977 463.15983,323.153509 463.270769,323.266327 C463.381707,323.379146 463.442682,323.531797 463.44,323.69 L463.44,345.37 C463.44,345.526478 463.502161,345.676547 463.612807,345.787193 C463.723453,345.897839 463.873522,345.960088 464.03,345.960088 L499.62,345.960088 C499.776478,345.960088 499.926547,345.897839 500.037193,345.787193 C500.147839,345.676547 500.21,345.526478 500.21,345.37 L500.21,184.17 C500.21,183.848018 499.951936,183.585457 499.63,183.58 L499.63,183.58 Z M353.170088,315.58 C353.172736,315.737301 353.111455,315.888965 353.00021,316.00021 C352.888965,316.111455 352.737301,316.172736 352.58,316.17 L330.58,316.17 C330.422699,316.172736 330.271035,316.111455 330.15979,316.00021 C330.048545,315.888965 329.987264,315.737301 329.989912,315.58 L329.989912,308.08 C329.987318,307.921797 330.048293,307.769146 330.159231,307.656327 C330.27017,307.543509 330.421774,307.48 330.58,307.48 L352.58,307.48 C352.738226,307.48 352.88983,307.543509 353.000769,307.656327 C353.111707,307.769146 353.172682,307.921797 353.170088,308.08 L353.170088,315.58 Z M353.17,296.19 C353.17,296.515848 352.905848,296.78 352.58,296.78 L330.58,296.78 C330.254152,296.78 329.99,296.515848 329.99,296.19 L329.99,288.68 C329.99,288.354152 330.254152,288.09 330.58,288.09 L352.58,288.09 C352.905848,288.09 353.17,288.354152 353.17,288.68 L353.17,296.19 Z M353.170088,276.79 C353.172736,276.947301 353.111455,277.098965 353.00021,277.21021 C352.888965,277.321455 352.737301,277.382736 352.58,277.38 L330.58,277.38 C330.422699,277.382736 330.271035,277.321455 330.15979,277.21021 C330.048545,277.098965 329.987264,276.947301 329.989912,276.79 L329.989912,269.29 C329.987264,269.132699 330.048545,268.981035 330.15979,268.86979 C330.271035,268.758545 330.422699,268.697264 330.58,268.7 L352.58,268.7 C352.737301,268.697264 352.888965,268.758545 353.00021,268.86979 C353.111455,268.981035 353.172736,269.132699 353.170088,269.29 L353.170088,276.79 Z M353.170088,257.4 C353.172736,257.557301 353.111455,257.708965 353.00021,257.82021 C352.888965,257.931455 352.737301,257.992736 352.58,257.99 L330.58,257.99 C330.422699,257.992736 330.271035,257.931455 330.15979,257.82021 C330.048545,257.708965 329.987264,257.557301 329.989912,257.4 L329.989912,249.9 C329.987264,249.742699 330.048545,249.591035 330.15979,249.47979 C330.271035,249.368545 330.422699,249.307264 330.58,249.31 L352.58,249.31 C352.737301,249.307264 352.888965,249.368545 353.00021,249.47979 C353.111455,249.591035 353.172736,249.742699 353.170088,249.9 L353.170088,257.4 Z M353.17,238.01 C353.17,238.335848 352.905848,238.6 352.58,238.6 L330.58,238.6 C330.258064,238.594543 330,238.331982 330,238.01 L330,230.5 C330,230.174152 330.264152,229.91 330.59,229.91 L352.59,229.91 C352.915848,229.91 353.18,230.174152 353.18,230.5 L353.17,238.01 Z M353.170088,218.61 C353.172736,218.767301 353.111455,218.918965 353.00021,219.03021 C352.888965,219.141455 352.737301,219.202736 352.58,219.2 L330.58,219.2 C330.422699,219.202736 330.271035,219.141455 330.15979,219.03021 C330.048545,218.918965 329.987264,218.767301 329.989912,218.61 L329.989912,211.11 C329.987264,210.952699 330.048545,210.801035 330.15979,210.68979 C330.271035,210.578545 330.422699,210.517264 330.58,210.52 L352.58,210.52 C352.737301,210.517264 352.888965,210.578545 353.00021,210.68979 C353.111455,210.801035 353.172736,210.952699 353.170088,211.11 L353.170088,218.61 Z M353.170088,199.22 C353.172736,199.377301 353.111455,199.528965 353.00021,199.64021 C352.888965,199.751455 352.737301,199.812736 352.58,199.81 L330.58,199.81 C330.422699,199.812736 330.271035,199.751455 330.15979,199.64021 C330.048545,199.528965 329.987264,199.377301 329.989912,199.22 L329.989912,191.72 C329.987264,191.562699 330.048545,191.411035 330.15979,191.29979 C330.271035,191.188545 330.422699,191.127264 330.58,191.13 L352.58,191.13 C352.737301,191.127264 352.888965,191.188545 353.00021,191.29979 C353.111455,191.411035 353.172736,191.562699 353.170088,191.72 L353.170088,199.22 Z M405.270088,315.58 C405.272736,315.737301 405.211455,315.888965 405.10021,316.00021 C404.988965,316.111455 404.837301,316.172736 404.68,316.17 L382.68,316.17 C382.522699,316.172736 382.371035,316.111455 382.25979,316.00021 C382.148545,315.888965 382.087264,315.737301 382.089912,315.58 L382.089912,308.08 C382.087318,307.921797 382.148293,307.769146 382.259231,307.656327 C382.37017,307.543509 382.521774,307.48 382.68,307.48 L404.68,307.48 C404.838226,307.48 404.98983,307.543509 405.100769,307.656327 C405.211707,307.769146 405.272682,307.921797 405.270088,308.08 L405.270088,315.58 Z M405.27,296.19 C405.27,296.515848 405.005848,296.78 404.68,296.78 L382.68,296.78 C382.354152,296.78 382.09,296.515848 382.09,296.19 L382.09,288.68 C382.09,288.354152 382.354152,288.09 382.68,288.09 L404.68,288.09 C405.005848,288.09 405.27,288.354152 405.27,288.68 L405.27,296.19 Z M405.270088,276.79 C405.272736,276.947301 405.211455,277.098965 405.10021,277.21021 C404.988965,277.321455 404.837301,277.382736 404.68,277.38 L382.68,277.38 C382.522699,277.382736 382.371035,277.321455 382.25979,277.21021 C382.148545,277.098965 382.087264,276.947301 382.089912,276.79 L382.089912,269.29 C382.087264,269.132699 382.148545,268.981035 382.25979,268.86979 C382.371035,268.758545 382.522699,268.697264 382.68,268.7 L404.68,268.7 C404.837301,268.697264 404.988965,268.758545 405.10021,268.86979 C405.211455,268.981035 405.272736,269.132699 405.270088,269.29 L405.270088,276.79 Z M405.270088,257.4 C405.272736,257.557301 405.211455,257.708965 405.10021,257.82021 C404.988965,257.931455 404.837301,257.992736 404.68,257.99 L382.68,257.99 C382.522699,257.992736 382.371035,257.931455 382.25979,257.82021 C382.148545,257.708965 382.087264,257.557301 382.089912,257.4 L382.089912,249.9 C382.087264,249.742699 382.148545,249.591035 382.25979,249.47979 C382.371035,249.368545 382.522699,249.307264 382.68,249.31 L404.68,249.31 C404.837301,249.307264 404.988965,249.368545 405.10021,249.47979 C405.211455,249.591035 405.272736,249.742699 405.270088,249.9 L405.270088,257.4 Z M405.27,238.01 C405.27,238.335848 405.005848,238.6 404.68,238.6 L382.68,238.6 C382.354152,238.6 382.09,238.335848 382.09,238.01 L382.09,230.5 C382.09,230.174152 382.354152,229.91 382.68,229.91 L404.68,229.91 C405.005848,229.91 405.27,230.174152 405.27,230.5 L405.27,238.01 Z M405.270088,218.61 C405.272736,218.767301 405.211455,218.918965 405.10021,219.03021 C404.988965,219.141455 404.837301,219.202736 404.68,219.2 L382.68,219.2 C382.522699,219.202736 382.371035,219.141455 382.25979,219.03021 C382.148545,218.918965 382.087264,218.767301 382.089912,218.61 L382.089912,211.11 C382.087264,210.952699 382.148545,210.801035 382.25979,210.68979 C382.371035,210.578545 382.522699,210.517264 382.68,210.52 L404.68,210.52 C404.837301,210.517264 404.988965,210.578545 405.10021,210.68979 C405.211455,210.801035 405.272736,210.952699 405.270088,211.11 L405.270088,218.61 Z M405.270088,199.22 C405.272736,199.377301 405.211455,199.528965 405.10021,199.64021 C404.988965,199.751455 404.837301,199.812736 404.68,199.81 L382.68,199.81 C382.522699,199.812736 382.371035,199.751455 382.25979,199.64021 C382.148545,199.528965 382.087264,199.377301 382.089912,199.22 L382.089912,191.72 C382.087264,191.562699 382.148545,191.411035 382.25979,191.29979 C382.371035,191.188545 382.522699,191.127264 382.68,191.13 L404.68,191.13 C404.837301,191.127264 404.988965,191.188545 405.10021,191.29979 C405.211455,191.411035 405.272736,191.562699 405.270088,191.72 L405.270088,199.22 Z M440.88,315.58 C440.88,315.905848 440.615848,316.17 440.29,316.17 L418.29,316.17 C417.964152,316.17 417.7,315.905848 417.7,315.58 L417.7,308.08 C417.7,307.752495 417.962541,307.485458 418.29,307.48 L440.29,307.48 C440.617459,307.485458 440.88,307.752495 440.88,308.08 L440.88,315.58 Z M440.88,296.19 C440.87465,296.513606 440.613606,296.77465 440.29,296.78 L418.29,296.78 C417.966394,296.77465 417.70535,296.513606 417.7,296.19 L417.7,288.68 C417.70535,288.356394 417.966394,288.09535 418.29,288.09 L440.29,288.09 C440.613606,288.09535 440.87465,288.356394 440.88,288.68 L440.88,296.19 Z M440.88,276.79 C440.88,277.115848 440.615848,277.38 440.29,277.38 L418.29,277.38 C417.964152,277.38 417.7,277.115848 417.7,276.79 L417.7,269.29 C417.7,268.964152 417.964152,268.7 418.29,268.7 L440.29,268.7 C440.615848,268.7 440.88,268.964152 440.88,269.29 L440.88,276.79 Z M440.88,257.4 C440.88,257.725848 440.615848,257.99 440.29,257.99 L418.29,257.99 C417.964152,257.99 417.7,257.725848 417.7,257.4 L417.7,249.9 C417.7,249.574152 417.964152,249.31 418.29,249.31 L440.29,249.31 C440.615848,249.31 440.88,249.574152 440.88,249.9 L440.88,257.4 Z M440.88,238.01 C440.87465,238.333606 440.613606,238.59465 440.29,238.6 L418.29,238.6 C417.966394,238.59465 417.70535,238.333606 417.7,238.01 L417.7,230.5 C417.70535,230.176394 417.966394,229.91535 418.29,229.91 L440.29,229.91 C440.613606,229.91535 440.87465,230.176394 440.88,230.5 L440.88,238.01 Z M440.88,218.61 C440.88,218.935848 440.615848,219.2 440.29,219.2 L418.29,219.2 C417.964152,219.2 417.7,218.935848 417.7,218.61 L417.7,211.11 C417.7,210.784152 417.964152,210.52 418.29,210.52 L440.29,210.52 C440.615848,210.52 440.88,210.784152 440.88,211.11 L440.88,218.61 Z M440.88,199.22 C440.88,199.545848 440.615848,199.81 440.29,199.81 L418.29,199.81 C417.964152,199.81 417.7,199.545848 417.7,199.22 L417.7,191.72 C417.7,191.394152 417.964152,191.13 418.29,191.13 L440.29,191.13 C440.615848,191.13 440.88,191.394152 440.88,191.72 L440.88,199.22 Z M493,315.56 C493,315.716478 492.937839,315.866547 492.827193,315.977193 C492.716547,316.087839 492.566478,316.15 492.41,316.15 L470.41,316.15 C470.252699,316.152736 470.101035,316.091455 469.98979,315.98021 C469.878545,315.868965 469.817264,315.717301 469.819912,315.56 L469.819912,308.06 C469.817318,307.901797 469.878293,307.749146 469.989231,307.636327 C470.10017,307.523509 470.251774,307.46 470.41,307.46 L492.41,307.46 C492.737459,307.465458 493,307.732495 493,308.06 L493,315.56 Z M493,296.17 C492.99465,296.493606 492.733606,296.75465 492.41,296.76 L470.41,296.76 C470.084152,296.76 469.82,296.495848 469.82,296.17 L469.82,288.66 C469.82,288.334152 470.084152,288.07 470.41,288.07 L492.41,288.07 C492.733606,288.07535 492.99465,288.336394 493,288.66 L493,296.17 Z M493,276.77 C493,277.095848 492.735848,277.36 492.41,277.36 L470.41,277.36 C470.252699,277.362736 470.101035,277.301455 469.98979,277.19021 C469.878545,277.078965 469.817264,276.927301 469.819912,276.77 L469.819912,269.27 C469.817264,269.112699 469.878545,268.961035 469.98979,268.84979 C470.101035,268.738545 470.252699,268.677264 470.41,268.68 L492.41,268.68 C492.735848,268.68 493,268.944152 493,269.27 L493,276.77 Z M493,257.38 C493,257.536478 492.937839,257.686547 492.827193,257.797193 C492.716547,257.907839 492.566478,257.97 492.41,257.97 L470.41,257.97 C470.252699,257.972736 470.101035,257.911455 469.98979,257.80021 C469.878545,257.688965 469.817264,257.537301 469.819912,257.38 L469.819912,249.88 C469.817264,249.722699 469.878545,249.571035 469.98979,249.45979 C470.101035,249.348545 470.252699,249.287264 470.41,249.29 L492.41,249.29 C492.735848,249.29 493,249.554152 493,249.88 L493,257.38 Z M493,238.01 C492.99465,238.333606 492.733606,238.59465 492.41,238.6 L470.41,238.6 C470.084152,238.6 469.82,238.335848 469.82,238.01 L469.82,230.5 C469.82,230.174152 470.084152,229.91 470.41,229.91 L492.41,229.91 C492.733606,229.91535 492.99465,230.176394 493,230.5 L493,238.01 Z M493,218.61 C493,218.766478 492.937839,218.916547 492.827193,219.027193 C492.716547,219.137839 492.566478,219.2 492.41,219.2 L470.41,219.2 C470.252699,219.202736 470.101035,219.141455 469.98979,219.03021 C469.878545,218.918965 469.817264,218.767301 469.819912,218.61 L469.819912,211.11 C469.817264,210.952699 469.878545,210.801035 469.98979,210.68979 C470.101035,210.578545 470.252699,210.517264 470.41,210.52 L492.41,210.52 C492.735848,210.52 493,210.784152 493,211.11 L493,218.61 Z M493,199.22 C493,199.376478 492.937839,199.526547 492.827193,199.637193 C492.716547,199.747839 492.566478,199.81 492.41,199.81 L470.41,199.81 C470.252699,199.812736 470.101035,199.751455 469.98979,199.64021 C469.878545,199.528965 469.817264,199.377301 469.819912,199.22 L469.819912,191.72 C469.817264,191.562699 469.878545,191.411035 469.98979,191.29979 C470.101035,191.188545 470.252699,191.127264 470.41,191.13 L492.41,191.13 C492.735848,191.13 493,191.394152 493,191.72 L493,199.22 Z" id="Shape" fill="#6C63FF" opacity="0.1"></path>
                <path d="M339.7,139.88 C337.231557,139.409786 334.678898,139.688385 332.37,140.68 C329.567095,141.933497 326.362905,141.933497 323.56,140.68 C320.243792,139.227393 316.457673,139.300484 313.2,140.88 C312.277382,141.374172 311.246626,141.631861 310.2,141.63001 C306,141.63001 302.5,137.4 301.78,131.82 C302.615518,131.204058 303.325024,130.433446 303.87,129.55 C306.34,125.55 310.15,123.04 314.43,123.04 C318.71,123.04 322.49,125.55 324.95,129.48 C326.449072,131.897111 329.106064,133.350865 331.95,133.31 L332.06,133.31 C335.4,133.29 338.3,136.01 339.7,139.88 Z" id="Path" fill="#6C63FF" opacity="0.1"></path>
                <path d="M352.5,122.36 L345.71,126.67 L349.83,119.17 C348.662757,118.242667 347.22065,117.729136 345.73,117.71 L345.62,117.71 C345.148001,117.717215 344.676257,117.683758 344.21,117.61 L341.91,119.06 L342.91,117.27 C341.289738,116.698097 339.890383,115.631089 338.91,114.22 L334.79,116.83 L337.39,112.1 C335.174145,109.237455 331.788781,107.522743 328.17,107.43 C323.88,107.43 320.07,109.98 317.6,113.95 C316.117113,116.375718 313.441204,117.813063 310.6,117.71 L310.37,117.71 C305.65,117.71 301.81,123.07 301.81,129.71 C301.81,136.35 305.65,141.71 310.37,141.71 C311.415041,141.70885 312.4443,141.454966 313.37,140.97 C316.625395,139.381015 320.415703,139.307843 323.73,140.77 C326.535842,142.009661 329.734158,142.009661 332.54,140.77 C335.828538,139.339171 339.576636,139.408513 342.81,140.96 C343.73412,141.448008 344.764978,141.69885 345.81,141.69 C350.53,141.69 354.370014,136.33 354.370014,129.69 C354.373479,127.128227 353.730279,124.607021 352.5,122.36 L352.5,122.36 Z" id="Path" fill="#6C63FF" opacity="0.1"></path>
                <rect id="Rectangle" fill="#3F3D56" x="505.46" y="102.97" width="371.54" height="447.42" rx="19.8"></rect>
                <rect id="Rectangle" fill="#FFFFFF" x="522" y="148.11" width="336" height="357.15"></rect>
                <circle id="Oval" fill="#FFFFFF" cx="691.23" cy="528.8" r="13.08"></circle>
                <path d="M691.23,135.18 C688.803227,135.18 686.615409,133.718147 685.686723,131.476101 C684.758037,129.234054 685.271371,126.653347 686.987359,124.937359 C688.703347,123.221371 691.284054,122.708037 693.526101,123.636723 C695.768147,124.565409 697.23,126.753227 697.23,129.18 C697.23,132.493708 694.543708,135.18 691.23,135.18 Z" id="Path" fill="#FFFFFF"></path>
                <path d="M691.23,123.589991 C693.475671,123.585954 695.502469,124.935599 696.364656,127.009169 C697.226842,129.082738 696.754479,131.47153 695.16798,133.060893 C693.58148,134.650256 691.193544,135.126926 689.118423,134.268481 C687.043302,133.410036 685.69,131.385675 685.69,129.14 C685.69,126.078721 688.168726,123.595516 691.23,123.589991 M691.23,122.589992 C688.579866,122.585954 686.188431,124.179242 685.171464,126.626487 C684.154497,129.073731 684.712416,131.892641 686.584914,133.768002 C688.457411,135.643363 691.275466,136.205589 693.724261,135.192362 C696.173056,134.179135 697.770008,131.790137 697.770008,129.14 C697.772655,127.403752 697.084793,125.737707 695.858017,124.509056 C694.631242,123.280404 692.96625,122.589992 691.23,122.589992 L691.23,122.589992 Z" id="Shape" fill="#FFFFFF"></path>
                <path d="M824.2,333.31 C824.2,333.31 824.2,333.23 824.2,333.19 C824.065827,330.309896 823.544477,327.46097 822.65,324.72 L822.5,324.26 C820.218702,317.649599 815.866711,311.950981 810.09,308.01 C796.697759,298.878073 778.606954,301.113197 767.84,313.23 C767.28402,310.152171 766.423111,307.137314 765.27,304.23 C756.786527,305.321467 748.222777,305.656119 739.68,305.23 C744.915368,307.607233 750.341093,309.540691 755.9,311.01 L755.7,311.75 C749.459632,310.073857 743.389831,307.817351 737.57,305.01 L735.81,304.16 L737.81,304.29 C746.88767,304.88677 756.001399,304.625612 765.03,303.51 C763.078246,298.857307 760.375612,294.556741 757.03,290.78 C742.39,289.3 727.86,286.23 714.31,280.14 L714.62,279.44 C727.82,285.38 741.97,288.44 756.25,289.93 C746.450246,279.422773 732.280444,274.134695 717.992945,275.652717 C703.705446,277.17074 690.963145,285.318182 683.59,297.65 C682.237013,284.52716 676.781861,272.164715 668,262.32 C660.189186,265.43513 652.126542,267.877342 643.9,269.62 C631.523206,272.24954 618.856948,273.258 606.22,272.62 C611.45189,275.034805 616.877698,277.005089 622.44,278.51 L622.24,279.24 C615.996748,277.555645 609.926476,275.285571 604.11,272.46 L602.35,271.61 L604.35,271.74 C625.885626,273.158263 647.46579,269.741518 667.51,261.74 C666.76,260.91 665.98,260.11 665.18,259.32 C640.18,259.82 612.89,259.58 588.18,250.59 C569.583416,262.062075 558.268751,282.359577 558.28997,304.21 C558.28997,316.02 561.54,332.27 567.19,348.57 C569.686162,355.860562 572.628384,362.990691 576,369.92 C577.72,373.43 579.55,376.84 581.48,380.1 L581.48,380.1 C583.802655,384.066966 586.357084,387.8936 589.13,391.56 C589.63,392.21 590.13,392.86 590.65,393.49 C593.497149,397.086189 596.692674,400.39225 600.19,403.36 L600.19,403.36 C600.9,403.95 601.61,404.51 602.33,405.04 C604.248932,406.489726 606.293754,407.764812 608.44,408.85 C612.020118,410.725275 615.963767,411.803297 620,412.01 C620.31,412.01 620.63,412.01 620.95,412.01 L620.95,412.14 L791.81,412.14 L791.81,412.01 L791.93,412.01 C792.915158,412.003719 793.892198,411.8313 794.82,411.5 C800.82,409.35 806.43,400.74 811.05,389.86 C812.05,387.45 813.05,384.93 813.99,382.34 C814.81,380.05 815.58,377.71 816.32,375.34 C818.465204,368.434888 820.260817,361.425987 821.7,354.34 C823.127081,347.902109 823.973807,341.349185 824.23,334.76 C824.23,334.28 824.22,333.8 824.2,333.31 Z" id="Path" fill="#6C63FF" opacity="0.1"></path>
                <path d="M664.31,258.55 C643.947837,239.158599 613.168367,235.688705 589,250.06 C613.11,258.71 639.76,259.01 664.31,258.55 Z" id="Path" fill="#6C63FF" opacity="0.1"></path>
                <path d="M804.3,399.01 L777.93,353.32 C777.780628,353.057611 777.501927,352.895572 777.2,352.895572 C776.898073,352.895572 776.619372,353.057611 776.47,353.32 L750.09,399.01 C749.93972,399.27029 749.939961,399.591038 750.090633,399.851102 C750.241304,400.111165 750.519444,400.270909 750.82,400.27 L758.69,400.27 C759.151664,400.2754 759.5246,400.648336 759.53,401.11 L759.53,410.87 C759.5354,411.331664 759.908336,411.7046 760.37,411.710013 L770.64,411.710013 C771.101664,411.7046 771.4746,411.331664 771.48,410.87 L771.48,406.16 C771.477289,405.936398 771.564918,405.721162 771.72304,405.56304 C771.881162,405.404918 772.096398,405.317289 772.32,405.32 L782.08,405.32 C782.543919,405.32 782.92,405.696081 782.92,406.16 L782.92,410.87 C782.9254,411.331664 783.298336,411.7046 783.76,411.710013 L794,411.710013 C794.361547,411.711968 794.683792,411.482368 794.8,411.14 C794.814216,411.050561 794.814216,410.959439 794.8,410.87 L794.8,401.11 C794.8,400.646081 795.176081,400.27 795.64,400.27 L803.51,400.27 C803.821168,400.293759 804.119859,400.143054 804.285635,399.878652 C804.451411,399.61425 804.456943,399.279739 804.3,399.01 L804.3,399.01 Z M767.53,404.01 C767.370406,404.168616 767.155004,404.258367 766.93,404.26 L763.23,404.26 C762.768336,404.2546 762.3954,403.881664 762.39,403.42 C762.385913,403.193868 762.476555,402.976326 762.64,402.82 C762.795908,402.661982 763.008026,402.572101 763.23,402.57 L766.93,402.57 C767.399442,402.57 767.78,402.950558 767.78,403.42 C767.777899,403.641974 767.688018,403.854092 767.53,404.01 Z M791.76,404.01 C791.600406,404.168616 791.385004,404.258367 791.16,404.26 L787.46,404.26 C787.02874,404.213016 786.70206,403.848811 786.70206,403.415 C786.70206,402.981189 787.02874,402.616984 787.46,402.57 L791.16,402.57 C791.629442,402.57 792.01,402.950558 792.01,403.42 C792.007899,403.641974 791.918018,403.854092 791.76,404.01 L791.76,404.01 Z" id="Shape" fill="#6C63FF" opacity="0.1"></path>
                <path d="M641.27,399.38 L614.9,353.69 C614.750628,353.427611 614.471927,353.265572 614.17,353.265572 C613.868073,353.265572 613.589372,353.427611 613.44,353.69 L590.66,393.15 C593.506772,396.743483 596.702361,400.046261 600.2,403.01 L603.9,403.01 C604.23911,403.009156 604.545467,403.212297 604.67667,403.524998 C604.807874,403.837699 604.738186,404.198621 604.5,404.44 C604.343674,404.603445 604.126132,404.694087 603.9,404.69 L602.34,404.69 C604.26137,406.133276 606.305907,407.404838 608.45,408.49 L608.45,406.49 C608.45,406.026081 608.826081,405.65 609.29,405.65 L619.05,405.65 C619.511664,405.6554 619.8846,406.028336 619.89,406.49 L619.89,411.2 C619.889088,411.3213 619.916481,411.441141 619.97,411.55 C620.104311,411.84911 620.40212,412.041119 620.73,412.040005 L631,412.040005 C631.264397,412.038429 631.512623,411.912463 631.67,411.7 C631.777704,411.555288 631.837176,411.380371 631.84,411.2 L631.84,401.44 C631.84,400.976081 632.216081,400.6 632.68,400.6 L640.55,400.6 C640.836783,400.590134 641.098689,400.434556 641.244534,400.18743 C641.390379,399.940303 641.399982,399.635826 641.27,399.38 Z M623.84,403.24 C623.996923,403.084719 624.209242,402.998352 624.43,403 L628.14,403 C628.482136,402.993124 628.793421,403.196933 628.923938,403.51327 C629.054455,403.829608 628.977446,404.193622 628.73,404.43 C628.576755,404.591896 628.362909,404.682509 628.14,404.68 L624.43,404.68 C623.968336,404.6746 623.5954,404.301664 623.59,403.84 C623.591633,403.614996 623.681384,403.399594 623.84,403.24 Z M607.27,386.34 C607.045475,386.34 606.830288,386.250145 606.672467,386.090445 C606.514645,385.930745 606.427327,385.714509 606.42994,385.49 L606.42994,379.1 C606.42994,378.877218 606.5185,378.663561 606.67603,378.50603 C606.833561,378.3485 607.047218,378.26 607.27,378.26 L621.07,378.26 C621.531664,378.2654 621.9046,378.638336 621.91,379.1 L621.91,385.49 C621.91,385.955564 621.535532,386.334523 621.07,386.34 L607.27,386.34 Z" id="Shape" fill="#6C63FF" opacity="0.1"></path>
                <path d="M745.53,317.31 L712.89,317.31 L712.89,310.26 C712.89,309.326639 712.133361,308.57 711.2,308.57 L701.62,308.57 L701.62,301.01 C701.62,300.424578 701.145422,299.949952 700.56,299.949952 L688.21,299.949952 C687.928052,299.947302 687.656866,300.058113 687.45749,300.25749 C687.258113,300.456866 687.147302,300.728052 687.15,301.01 L687.15,308.53 L675.88,308.53 C675.431784,308.53 675.001926,308.708053 674.68499,309.02499 C674.368053,309.341926 674.19,309.771784 674.19,310.22 L674.19,317.27 L643.07,317.27 C642.880539,317.269923 642.725413,317.420617 642.72,317.61 L642.72,411.33 C642.725413,411.519383 642.880539,411.670077 643.07,411.67 L663.75,411.67 C663.937777,411.67 664.09,411.517777 664.09,411.33 L664.09,398.76 C664.095413,398.570617 664.250539,398.419923 664.44,398.42 L673.17,398.42 C673.359461,398.419923 673.514587,398.570617 673.52,398.76 L673.52,411.37 C673.52,411.460174 673.555821,411.546654 673.619584,411.610416 C673.683346,411.674179 673.769826,411.71 673.86,411.71 L714.74,411.71 C714.830174,411.71 714.916654,411.674179 714.980416,411.610416 C715.044179,411.546654 715.08,411.460174 715.08,411.37 L715.08,398.76 C715.08,398.669826 715.115821,398.583346 715.179584,398.519584 C715.243346,398.455821 715.329826,398.42 715.42,398.42 L724.16,398.42 C724.250174,398.42 724.336654,398.455821 724.400416,398.519584 C724.464179,398.583346 724.5,398.669826 724.5,398.76 L724.5,411.37 C724.505413,411.559383 724.660539,411.71 724.85,411.71 L745.53,411.71 C745.620174,411.71 745.706654,411.674179 745.770416,411.610416 C745.834179,411.546654 745.87,411.460174 745.87,411.37 L745.87,317.65 C745.87,317.462223 745.717777,317.31 745.53,317.31 L745.53,317.31 Z M660.39,394.01 C660.39,394.197777 660.237777,394.35 660.05,394.35 L647.27,394.35 C647.082223,394.35 646.93,394.197777 646.93,394.01 L646.93,389.64 C646.93,389.452223 647.082223,389.3 647.27,389.3 L660.05,389.3 C660.237777,389.3 660.39,389.452223 660.39,389.64 L660.39,394.01 Z M660.39,382.73 C660.39,382.917777 660.237777,383.07 660.05,383.07 L647.27,383.07 C647.082223,383.07 646.93,382.917777 646.93,382.73 L646.93,378.37 C646.93,378.182223 647.082223,378.03 647.27,378.03 L660.05,378.03 C660.237777,378.03 660.39,378.182223 660.39,378.37 L660.39,382.73 Z M660.39,371.46 C660.39,371.647777 660.237777,371.8 660.05,371.8 L647.27,371.8 C647.082223,371.8 646.93,371.647777 646.93,371.46 L646.93,367.09 C646.93,366.999826 646.965821,366.913346 647.029584,366.849584 C647.093346,366.785821 647.179826,366.75 647.27,366.75 L660.05,366.75 C660.140174,366.75 660.226654,366.785821 660.290416,366.849584 C660.354179,366.913346 660.39,366.999826 660.39,367.09 L660.39,371.46 Z M660.39,360.18 C660.39,360.369461 660.239383,360.524587 660.05,360.53 L647.27,360.53 C647.080617,360.524587 646.93,360.369461 646.93,360.18 L646.93,355.82 C646.93,355.632223 647.082223,355.48 647.27,355.48 L660.05,355.48 C660.237777,355.48 660.39,355.632223 660.39,355.82 L660.39,360.18 Z M660.39,348.91 C660.39,349.097777 660.237777,349.25 660.05,349.25 L647.27,349.25 C647.082223,349.25 646.93,349.097777 646.93,348.91 L646.93,344.54 C646.93,344.352223 647.082223,344.2 647.27,344.2 L660.05,344.2 C660.237777,344.2 660.39,344.352223 660.39,344.54 L660.39,348.91 Z M660.39,337.64 C660.39,337.827777 660.237777,337.98 660.05,337.98 L647.27,337.98 C647.082223,337.98 646.93,337.827777 646.93,337.64 L646.93,333.27 C646.93,333.082223 647.082223,332.93 647.27,332.93 L660.05,332.93 C660.237777,332.93 660.39,333.082223 660.39,333.27 L660.39,337.64 Z M660.39,326.36 C660.39,326.547777 660.237777,326.7 660.05,326.7 L647.27,326.7 C647.082223,326.7 646.93,326.547777 646.93,326.36 L646.93,322.01 C646.93,321.822223 647.082223,321.67 647.27,321.67 L660.05,321.67 C660.237777,321.67 660.39,321.822223 660.39,322.01 L660.39,326.36 Z M690.68,394.01 C690.68,394.197777 690.527777,394.35 690.34,394.35 L677.56,394.35 C677.372223,394.35 677.22,394.197777 677.22,394.01 L677.22,389.64 C677.22,389.452223 677.372223,389.3 677.56,389.3 L690.34,389.3 C690.527777,389.3 690.68,389.452223 690.68,389.64 L690.68,394.01 Z M690.68,382.73 C690.68,382.917777 690.527777,383.07 690.34,383.07 L677.56,383.07 C677.372223,383.07 677.22,382.917777 677.22,382.73 L677.22,378.37 C677.22,378.182223 677.372223,378.03 677.56,378.03 L690.34,378.03 C690.527777,378.03 690.68,378.182223 690.68,378.37 L690.68,382.73 Z M690.68,371.46 C690.68,371.647777 690.527777,371.8 690.34,371.8 L677.56,371.8 C677.372223,371.8 677.22,371.647777 677.22,371.46 L677.22,367.09 C677.22,366.999826 677.255821,366.913346 677.319584,366.849584 C677.383346,366.785821 677.469826,366.75 677.56,366.75 L690.34,366.75 C690.430174,366.75 690.516654,366.785821 690.580416,366.849584 C690.644179,366.913346 690.68,366.999826 690.68,367.09 L690.68,371.46 Z M690.68,360.18 C690.68,360.369461 690.529383,360.524587 690.34,360.53 L677.56,360.53 C677.370617,360.524587 677.22,360.369461 677.22,360.18 L677.22,355.82 C677.22,355.632223 677.372223,355.48 677.56,355.48 L690.34,355.48 C690.527777,355.48 690.68,355.632223 690.68,355.82 L690.68,360.18 Z M690.68,348.91 C690.68,349.097777 690.527777,349.25 690.34,349.25 L677.56,349.25 C677.372223,349.25 677.22,349.097777 677.22,348.91 L677.22,344.54 C677.22,344.352223 677.372223,344.2 677.56,344.2 L690.34,344.2 C690.527777,344.2 690.68,344.352223 690.68,344.54 L690.68,348.91 Z M690.68,337.64 C690.68,337.827777 690.527777,337.98 690.34,337.98 L677.56,337.98 C677.372223,337.98 677.22,337.827777 677.22,337.64 L677.22,333.27 C677.22,333.082223 677.372223,332.93 677.56,332.93 L690.34,332.93 C690.527777,332.93 690.68,333.082223 690.68,333.27 L690.68,337.64 Z M690.68,326.36 C690.68,326.547777 690.527777,326.7 690.34,326.7 L677.56,326.7 C677.372223,326.7 677.22,326.547777 677.22,326.36 L677.22,322.01 C677.22,321.822223 677.372223,321.67 677.56,321.67 L690.34,321.67 C690.527777,321.67 690.68,321.822223 690.68,322.01 L690.68,326.36 Z M711.38,394.01 C711.38,394.197777 711.227777,394.35 711.04,394.35 L698.26,394.35 C698.072223,394.35 697.92,394.197777 697.92,394.01 L697.92,389.64 C697.92,389.452223 698.072223,389.3 698.26,389.3 L711,389.3 C711.187777,389.3 711.34,389.452223 711.34,389.64 L711.38,394.01 Z M711.38,382.73 C711.38,382.917777 711.227777,383.07 711.04,383.07 L698.26,383.07 C698.072223,383.07 697.92,382.917777 697.92,382.73 L697.92,378.37 C697.92,378.182223 698.072223,378.03 698.26,378.03 L711,378.03 C711.187777,378.03 711.34,378.182223 711.34,378.37 L711.38,382.73 Z M711.38,371.46 C711.38,371.647777 711.227777,371.8 711.04,371.8 L698.26,371.8 C698.072223,371.8 697.92,371.647777 697.92,371.46 L697.92,367.09 C697.92,366.999826 697.955821,366.913346 698.019584,366.849584 C698.083346,366.785821 698.169826,366.75 698.26,366.75 L711,366.75 C711.090174,366.75 711.176654,366.785821 711.240416,366.849584 C711.304179,366.913346 711.34,366.999826 711.34,367.09 L711.38,371.46 Z M711.38,360.18 C711.38,360.369461 711.229383,360.524587 711.04,360.53 L698.26,360.53 C698.070617,360.524587 697.92,360.369461 697.92,360.18 L697.92,355.82 C697.92,355.632223 698.072223,355.48 698.26,355.48 L711,355.48 C711.187777,355.48 711.34,355.632223 711.34,355.82 L711.38,360.18 Z M711.38,348.91 C711.38,349.097777 711.227777,349.25 711.04,349.25 L698.26,349.25 C698.072223,349.25 697.92,349.097777 697.92,348.91 L697.92,344.54 C697.92,344.352223 698.072223,344.2 698.26,344.2 L711,344.2 C711.187777,344.2 711.34,344.352223 711.34,344.54 L711.38,348.91 Z M711.38,337.64 C711.38,337.827777 711.227777,337.98 711.04,337.98 L698.26,337.98 C698.072223,337.98 697.92,337.827777 697.92,337.64 L697.92,333.27 C697.92,333.082223 698.072223,332.93 698.26,332.93 L711,332.93 C711.187777,332.93 711.34,333.082223 711.34,333.27 L711.38,337.64 Z M711.38,326.36 C711.38,326.547777 711.227777,326.7 711.04,326.7 L698.26,326.7 C698.072223,326.7 697.92,326.547777 697.92,326.36 L697.92,322.01 C697.92,321.822223 698.072223,321.67 698.26,321.67 L711,321.67 C711.187777,321.67 711.34,321.822223 711.34,322.01 L711.38,326.36 Z M741.67,394.01 C741.66477,394.195567 741.515567,394.34477 741.33,394.35 L728.55,394.35 C728.362223,394.35 728.21,394.197777 728.21,394.01 L728.21,389.64 C728.21,389.452223 728.362223,389.3 728.55,389.3 L741.33,389.3 C741.517777,389.3 741.67,389.452223 741.67,389.64 L741.67,394.01 Z M741.67,382.73 C741.67,382.917777 741.517777,383.07 741.33,383.07 L728.55,383.07 C728.362223,383.07 728.21,382.917777 728.21,382.73 L728.21,378.37 C728.21,378.182223 728.362223,378.03 728.55,378.03 L741.33,378.03 C741.517777,378.03 741.67,378.182223 741.67,378.37 L741.67,382.73 Z M741.67,371.46 C741.67,371.647777 741.517777,371.8 741.33,371.8 L728.55,371.8 C728.362223,371.8 728.21,371.647777 728.21,371.46 L728.21,367.09 C728.21,366.999826 728.245821,366.913346 728.309584,366.849584 C728.373346,366.785821 728.459826,366.75 728.55,366.75 L741.33,366.75 C741.515567,366.75523 741.66477,366.904433 741.67,367.09 L741.67,371.46 Z M741.67,360.18 C741.67,360.369461 741.519383,360.524587 741.33,360.53 L728.55,360.53 C728.360617,360.524587 728.21,360.369461 728.21,360.18 L728.21,355.82 C728.21,355.632223 728.362223,355.48 728.55,355.48 L741.33,355.48 C741.517777,355.48 741.67,355.632223 741.67,355.82 L741.67,360.18 Z M741.67,348.91 C741.67,349.097777 741.517777,349.25 741.33,349.25 L728.55,349.25 C728.362223,349.25 728.21,349.097777 728.21,348.91 L728.21,344.54 C728.21,344.352223 728.362223,344.2 728.55,344.2 L741.33,344.2 C741.515567,344.20523 741.66477,344.354433 741.67,344.54 L741.67,348.91 Z M741.67,337.64 C741.66477,337.825567 741.515567,337.97477 741.33,337.98 L728.55,337.98 C728.362223,337.98 728.21,337.827777 728.21,337.64 L728.21,333.27 C728.21,333.082223 728.362223,332.93 728.55,332.93 L741.33,332.93 C741.517777,332.93 741.67,333.082223 741.67,333.27 L741.67,337.64 Z M741.67,326.36 C741.67,326.547777 741.517777,326.7 741.33,326.7 L728.55,326.7 C728.362223,326.7 728.21,326.547777 728.21,326.36 L728.21,322.01 C728.21,321.822223 728.362223,321.67 728.55,321.67 L741.33,321.67 C741.517777,321.67 741.67,321.822223 741.67,322.01 L741.67,326.36 Z" id="Shape" fill="#6C63FF" opacity="0.1"></path>
                <path d="M652.56,291.91 C651.125732,291.639274 649.643414,291.799336 648.3,292.37 C647.496575,292.724672 646.628226,292.908558 645.75,292.910006 C644.864002,292.911199 643.987905,292.723708 643.18,292.36 C641.258382,291.522183 639.066582,291.566019 637.18,292.48 C636.646707,292.761427 636.052994,292.908998 635.45,292.910006 C633.01,292.910006 630.98,290.45 630.56,287.21 C631.045836,286.850389 631.459697,286.402604 631.78,285.89 C632.94626,283.577738 635.315267,282.119332 637.905,282.119332 C640.494733,282.119332 642.86374,283.577738 644.03,285.89 C644.883728,287.279487 646.3992,288.124363 648.03,288.12 L648.1,288.12 C650.06,288.08 651.74,289.63 652.56,291.91 Z" id="Path" fill="#6C63FF" opacity="0.1"></path>
                <path d="M660,281.72 L656,284.23 L658.4,279.87 C657.719559,279.32961 656.878855,279.030615 656.01,279.02 L656,279.02 C655.725559,279.020302 655.451474,279.000247 655.18,278.96 L653.84,279.8 L654.42,278.8 C653.471773,278.473567 652.652161,277.853604 652.08,277.03 L649.68,278.54 L651.2,275.79 C649.909142,274.124442 647.936655,273.129015 645.83,273.08 C643.261383,273.182671 640.933062,274.619859 639.69,276.87 C638.826949,278.274862 637.278016,279.11037 635.63,279.06 L635.5,279.06 C632.75,279.06 630.5,282.17 630.5,286.06 C630.5,289.95 632.73,293.06 635.5,293.06 C636.103779,293.055518 636.697446,292.904527 637.23,292.62 C639.118049,291.709223 641.309836,291.66904 643.23,292.51 C644.039483,292.868873 644.914541,293.056143 645.8,293.06 C646.678226,293.058558 647.546575,292.874672 648.35,292.52 C650.270433,291.680386 652.461633,291.720558 654.35,292.63 C654.876146,292.911309 655.463374,293.058975 656.06,293.06 C658.81,293.06 661.06,289.94 661.06,286.06 C661.083189,284.546539 660.718255,283.052371 660,281.72 Z" id="Path" fill="#6C63FF" opacity="0.1"></path>
                <rect id="Rectangle" fill="#3F3D56" x="988.64" y="269.17" width="5.36" height="44.17" rx="2.29"></rect>
                <rect id="Rectangle" fill="#3F3D56" x="810.55" y="234.57" width="3.01" height="14.54" rx="1.5"></rect>
                <rect id="Rectangle" fill="#3F3D56" x="810.44" y="261.19" width="3.39" height="25.31" rx="1.69"></rect>
                <rect id="Rectangle" fill="#3F3D56" x="810.49" y="295.35" width="3.23" height="25.53" rx="1.61"></rect>
                <rect id="Rectangle" fill="#3F3D56" x="812.25" y="186.51" width="179.29" height="364.37" rx="18.54"></rect>
                <rect id="Rectangle" fill="#E6E8EC" x="884.6" y="197.39" width="25.04" height="5.08" rx="2.54"></rect>
                <circle id="Oval" fill="#E6E8EC" cx="916.3" cy="199.94" r="2.88"></circle>
                <path d="M966.22,196.01 L945.7,196.01 L945.7,198.48 C945.694512,204.942699 940.46268,210.183474 934,210.2 L868.54,210.2 C865.429011,210.2 862.445439,208.964164 860.245637,206.764363 C858.045836,204.564561 856.81,201.580989 856.81,198.47 L856.81,196.01 L837.56,196.01 C829.697751,196.015515 823.325515,202.387751 823.32,210.25 L823.32,527.15 C823.32,530.926683 824.820281,534.548683 827.490799,537.219201 C830.161317,539.889719 833.783317,541.390004 837.56,541.390004 L966.22,541.390004 C969.997496,541.390004 973.621039,539.893227 976.292133,537.222133 C978.963227,534.551039 980.462656,530.927496 980.460004,527.15 L980.460004,210.24 C980.45448,202.379371 974.080631,196.01 966.22,196.01 L966.22,196.01 Z" id="Path" fill="#FFFFFF"></path>
                <path d="M962.2,371.69 L962.2,371.69 C962.141995,370.387433 961.906489,369.098876 961.5,367.86 C961.4812,367.78857 961.457818,367.718424 961.43,367.65 C959.761711,362.748041 955.615507,359.100941 950.540784,358.071586 C945.46606,357.04223 940.226472,358.785518 936.78,362.65 C936.535061,361.256883 936.146315,359.892921 935.62,358.58 C931.790125,359.062567 927.925155,359.206458 924.07,359.01 C926.433566,360.094344 928.881694,360.983964 931.39,361.67 L931.3,362 C928.483948,361.237094 925.74537,360.212638 923.12,358.94 L922.33,358.55 L923.21,358.61 C927.305246,358.879016 931.416725,358.761832 935.49,358.26 C934.606822,356.157786 933.383825,354.215181 931.87,352.51 C925.230786,351.960521 918.723779,350.343055 912.6,347.72 L912.74,347.4 C918.707572,349.968464 925.047747,351.565324 931.52,352.13 C927.096221,347.393696 920.703883,345.011527 914.25938,345.697657 C907.814877,346.383786 902.067394,350.058449 898.74,355.62 C898.136211,349.704007 895.687379,344.127666 891.74,339.68 C882.891119,343.210544 873.38544,344.793119 863.87,344.32 C866.231785,345.40868 868.680276,346.298432 871.19,346.98 L871.1,347.31 C868.283948,346.547094 865.54537,345.522638 862.92,344.25 L862.13,343.87 L863.01,343.93 C872.724935,344.567337 882.459381,343.022946 891.5,339.41 C891.16,339.04 890.81,338.68 890.45,338.32 C879.16,338.55 866.86,338.44 855.73,334.38 C847.343541,339.55795 842.241372,348.713845 842.249989,358.57 C842.249989,363.9 843.71,371.23 846.25,378.57 C847.381473,381.863424 848.717404,385.083017 850.25,388.21 C851.03,389.796667 851.853333,391.33 852.72,392.81 L852.72,392.81 C853.769786,394.598142 854.921693,396.324334 856.17,397.98 L856.86,398.85 C858.146209,400.468763 859.586274,401.959063 861.16,403.3 L861.16,403.3 C861.48,403.57 861.8,403.82 862.16,404.06 C863.025796,404.710915 863.945836,405.286358 864.91,405.78 C866.524987,406.610202 868.29684,407.090647 870.11,407.19 L870.54,407.19 L870.54,407.24 L947.63,407.24 L947.63,407.19 L947.69,407.19 C948.13322,407.187379 948.572786,407.10961 948.99,406.96 C951.72,405.96 954.23,402.11 956.31,397.2 C956.78,396.11 957.22,394.97 957.64,393.8 C958.06,392.63 958.36,391.72 958.69,390.65 C959.69,387.45 960.51,384.16 961.12,381.18 C961.760152,378.276132 962.141645,375.321235 962.26,372.35 C962.22,372.13 962.21,371.91 962.2,371.69 Z" id="Path" fill="#6C63FF" opacity="0.1"></path>
                <path d="M890.07,338.01 C880.878878,329.251168 866.979373,327.68543 856.07,334.18 C867,338.01 879,338.18 890.07,338.01 Z" id="Path" fill="#6C63FF" opacity="0.1"></path>
                <path d="M953.23,401.31 L941.33,380.7 C941.262362,380.581535 941.136414,380.508414 941,380.508414 C940.863586,380.508414 940.737638,380.581535 940.67,380.7 L928.77,401.31 C928.702038,401.427713 928.702124,401.572763 928.770227,401.690395 C928.83833,401.808027 928.964076,401.880326 929.1,401.88 L932.65,401.88 C932.859868,401.88 933.03,402.050132 933.03,402.26 L933.03,406.66 C933.03,406.869868 933.200132,407.04 933.41,407.04 L938,407.04 C938.209868,407.04 938.38,406.869868 938.38,406.66 L938.38,404.54 C938.38,404.330132 938.550132,404.16 938.76,404.16 L943.16,404.16 C943.369868,404.16 943.54,404.330132 943.54,404.54 L943.54,406.66 C943.54,406.869868 943.710132,407.04 943.92,407.04 L948.55,407.04 C948.713424,407.04 948.858393,406.935061 948.91,406.78 C948.91653,406.740266 948.91653,406.699734 948.91,406.66 L948.91,402.26 C948.91,402.159218 948.950036,402.062563 949.021299,401.991299 C949.092563,401.920036 949.189218,401.88 949.29,401.88 L952.84,401.88 C952.986351,401.905053 953.133889,401.84257 953.217733,401.720028 C953.301578,401.597486 953.306369,401.437335 953.23,401.31 L953.23,401.31 Z M936.64,403.59 C936.567605,403.660193 936.470836,403.699617 936.37,403.7 L934.7,403.7 C934.490132,403.7 934.32,403.529868 934.32,403.32 C934.318537,403.221733 934.358456,403.127379 934.43,403.06 C934.501387,402.987008 934.597984,402.944076 934.7,402.94 L936.37,402.94 C936.579868,402.94 936.75,403.110132 936.75,403.32 C936.751832,403.421262 936.712074,403.518848 936.64,403.59 L936.64,403.59 Z M947.57,403.59 C947.498848,403.662074 947.401262,403.701832 947.3,403.7 L945.63,403.7 C945.420132,403.7 945.25,403.529868 945.25,403.32 C945.248537,403.221733 945.288456,403.127379 945.36,403.06 C945.431387,402.987008 945.527984,402.944076 945.63,402.94 L947.3,402.94 C947.509868,402.94 947.68,403.110132 947.68,403.32 C947.681832,403.421262 947.642074,403.518848 947.57,403.59 L947.57,403.59 Z" id="Shape" fill="#6C63FF" opacity="0.1"></path>
                <path d="M879.68,401.49 L867.78,380.88 C867.712362,380.761535 867.586414,380.688414 867.45,380.688414 C867.313586,380.688414 867.187638,380.761535 867.12,380.88 L856.85,398.68 C858.136209,400.298763 859.576274,401.789063 861.15,403.13 L862.82,403.13 C862.968589,403.105655 863.117538,403.171339 863.199768,403.297472 C863.281999,403.423606 863.281999,403.586394 863.199768,403.712528 C863.117538,403.838661 862.968589,403.904345 862.82,403.88 L862.12,403.88 C862.985796,404.530915 863.905836,405.106358 864.87,405.6 L864.87,404.72 C864.87,404.510132 865.040132,404.34 865.25,404.34 L869.66,404.34 C869.865953,404.345422 870.030071,404.513976 870.03,404.72 L870.03,406.84 C870.035259,407.047651 870.202349,407.214741 870.41,407.22 L875.05,407.22 C875.16785,407.219226 875.278671,407.163815 875.35,407.07 C875.399759,407.004004 875.424556,406.922527 875.42,406.84 L875.42,402.44 C875.42,402.230132 875.590132,402.06 875.8,402.06 L879.35,402.06 C879.485924,402.060326 879.61167,401.988027 879.679773,401.870395 C879.747876,401.752763 879.747962,401.607713 879.68,401.49 L879.68,401.49 Z M871.82,403.24 C871.887379,403.168456 871.981733,403.128537 872.08,403.13 L873.75,403.13 C873.898589,403.105655 874.047538,403.171339 874.129768,403.297472 C874.211999,403.423606 874.211999,403.586394 874.129768,403.712528 C874.047538,403.838661 873.898589,403.904345 873.75,403.88 L872.08,403.88 C871.870132,403.88 871.7,403.709868 871.7,403.5 C871.703482,403.40074 871.746725,403.307048 871.82,403.24 Z M864.34,395.61 C864.130132,395.61 863.96,395.439868 863.96,395.23 L863.96,392.35 C863.96,392.140132 864.130132,391.97 864.34,391.97 L870.57,391.97 C870.779868,391.97 870.95,392.140132 870.95,392.35 L870.95,395.23 C870.95,395.439868 870.779868,395.61 870.57,395.61 L864.34,395.61 Z" id="Shape" fill="#6C63FF" opacity="0.1"></path>
                <path d="M926.72,364.47 L912,364.47 L912,361.28 C912,360.860264 911.659736,360.52 911.24,360.52 L906.9,360.52 L906.9,357.13 C906.900057,356.86876 906.691183,356.655442 906.43,356.65 L900.86,356.65 C900.594903,356.65 900.38,356.864903 900.38,357.13 L900.38,360.52 L895.29,360.52 C894.870264,360.52 894.53,360.860264 894.53,361.28 L894.53,364.47 L880.53,364.47 C880.447157,364.47 880.38,364.537157 880.38,364.62 L880.38,406.9 C880.38,406.984603 880.445562,407.054712 880.53,407.06 L889.86,407.06 C889.948366,407.06 890.02,406.988366 890.02,406.9 L890.02,401.21 C890.02,401.127157 890.087157,401.06 890.17,401.06 L894.11,401.06 C894.194603,401.059835 894.264712,401.125562 894.27,401.21 L894.27,406.9 C894.269835,406.984603 894.335562,407.054712 894.42,407.06 L912.86,407.06 C912.948366,407.06 913.02,406.988366 913.02,406.9 L913.02,401.21 C913.02,401.127157 913.087157,401.06 913.17,401.06 L917.11,401.06 C917.194603,401.059835 917.264712,401.125562 917.27,401.21 L917.27,406.9 C917.269835,406.984603 917.335562,407.054712 917.42,407.06 L926.76,407.06 C926.844438,407.054712 926.9101,406.984603 926.9101,406.9 L926.9101,364.62 C926.911741,364.572205 926.890585,364.526444 926.853046,364.496808 C926.815507,364.467173 926.766086,364.457214 926.72,364.47 Z M888.31,399.08 C888.31,399.168366 888.238366,399.24 888.15,399.24 L882.39,399.24 C882.301634,399.24 882.23,399.168366 882.23,399.08 L882.23,397.08 C882.235288,396.995562 882.305397,396.929835 882.39,396.93 L888.15,396.93 C888.234603,396.929835 888.304712,396.995562 888.31,397.08 L888.31,399.08 Z M888.31,394 C888.304712,394.084438 888.234603,394.150165 888.15,394.15 L882.39,394.15 C882.305397,394.150165 882.235288,394.084438 882.23,394 L882.23,392 C882.23,391.911634 882.301634,391.84 882.39,391.84 L888.15,391.84 C888.238366,391.84 888.31,391.911634 888.31,392 L888.31,394 Z M888.31,388.91 C888.31,388.998366 888.238366,389.07 888.15,389.07 L882.39,389.07 C882.301634,389.07 882.23,388.998366 882.23,388.91 L882.23,386.91 C882.235288,386.825562 882.305397,386.759835 882.39,386.76 L888.15,386.76 C888.234603,386.759835 888.304712,386.825562 888.31,386.91 L888.31,388.91 Z M888.31,383.82 C888.31,383.908366 888.238366,383.98 888.15,383.98 L882.39,383.98 C882.301634,383.98 882.23,383.908366 882.23,383.82 L882.23,381.82 C882.23,381.731634 882.301634,381.66 882.39,381.66 L888.15,381.66 C888.238366,381.66 888.31,381.731634 888.31,381.82 L888.31,383.82 Z M888.31,378.74 C888.304712,378.824438 888.234603,378.890165 888.15,378.89 L882.39,378.89 C882.305397,378.890165 882.235288,378.824438 882.23,378.74 L882.23,376.74 C882.235288,376.655562 882.305397,376.589835 882.39,376.59 L888.15,376.59 C888.234603,376.589835 888.304712,376.655562 888.31,376.74 L888.31,378.74 Z M888.31,373.65 C888.31,373.738366 888.238366,373.81 888.15,373.81 L882.39,373.81 C882.301634,373.81 882.23,373.738366 882.23,373.65 L882.23,371.65 C882.235288,371.565562 882.305397,371.499835 882.39,371.5 L888.15,371.5 C888.234603,371.499835 888.304712,371.565562 888.31,371.65 L888.31,373.65 Z M888.31,368.57 C888.304712,368.654438 888.234603,368.720165 888.15,368.72 L882.39,368.72 C882.305397,368.720165 882.235288,368.654438 882.23,368.57 L882.23,366.57 C882.23,366.481634 882.301634,366.41 882.39,366.41 L888.15,366.41 C888.238366,366.41 888.31,366.481634 888.31,366.57 L888.31,368.57 Z M902,399.08 C902.000165,399.164603 901.934438,399.234712 901.85,399.24 L896.08,399.24 C895.995562,399.234712 895.929835,399.164603 895.93,399.08 L895.93,397.08 C895.93,396.997157 895.997157,396.93 896.08,396.93 L901.85,396.93 C901.932843,396.93 902,396.997157 902,397.08 L902,399.08 Z M902,394 C902,394.082843 901.932843,394.15 901.85,394.15 L896.08,394.15 C895.997157,394.15 895.93,394.082843 895.93,394 L895.93,392 C895.929835,391.915397 895.995562,391.845288 896.08,391.84 L901.85,391.84 C901.934438,391.845288 902.000165,391.915397 902,392 L902,394 Z M902,388.91 C902.000165,388.994603 901.934438,389.064712 901.85,389.07 L896.08,389.07 C895.995562,389.064712 895.929835,388.994603 895.93,388.91 L895.93,386.91 C895.93,386.827157 895.997157,386.76 896.08,386.76 L901.85,386.76 C901.932843,386.76 902,386.827157 902,386.91 L902,388.91 Z M902,383.82 C902.000165,383.904603 901.934438,383.974712 901.85,383.98 L896.08,383.98 C895.995562,383.974712 895.929835,383.904603 895.93,383.82 L895.93,381.82 C895.929835,381.735397 895.995562,381.665288 896.08,381.66 L901.85,381.66 C901.934438,381.665288 902.000165,381.735397 902,381.82 L902,383.82 Z M902,378.74 C902,378.822843 901.932843,378.89 901.85,378.89 L896.08,378.89 C895.997157,378.89 895.93,378.822843 895.93,378.74 L895.93,376.74 C895.93,376.657157 895.997157,376.59 896.08,376.59 L901.85,376.59 C901.932843,376.59 902,376.657157 902,376.74 L902,378.74 Z M902,373.65 C902.000165,373.734603 901.934438,373.804712 901.85,373.81 L896.08,373.81 C895.995562,373.804712 895.929835,373.734603 895.93,373.65 L895.93,371.65 C895.93,371.567157 895.997157,371.5 896.08,371.5 L901.85,371.5 C901.932843,371.5 902,371.567157 902,371.65 L902,373.65 Z M902,368.57 C902,368.652843 901.932843,368.72 901.85,368.72 L896.08,368.72 C895.997157,368.72 895.93,368.652843 895.93,368.57 L895.93,366.57 C895.929835,366.485397 895.995562,366.415288 896.08,366.41 L901.85,366.41 C901.934438,366.415288 902.000165,366.485397 902,366.57 L902,368.57 Z M911.34,399.08 C911.34,399.168366 911.268366,399.24 911.18,399.24 L905.42,399.24 C905.331634,399.24 905.26,399.168366 905.26,399.08 L905.26,397.08 C905.265288,396.995562 905.335397,396.929835 905.42,396.93 L911.18,396.93 C911.264603,396.929835 911.334712,396.995562 911.34,397.08 L911.34,399.08 Z M911.34,394 C911.334712,394.084438 911.264603,394.150165 911.18,394.15 L905.42,394.15 C905.335397,394.150165 905.265288,394.084438 905.26,394 L905.26,392 C905.26,391.911634 905.331634,391.84 905.42,391.84 L911.18,391.84 C911.268366,391.84 911.34,391.911634 911.34,392 L911.34,394 Z M911.34,388.91 C911.34,388.998366 911.268366,389.07 911.18,389.07 L905.42,389.07 C905.331634,389.07 905.26,388.998366 905.26,388.91 L905.26,386.91 C905.265288,386.825562 905.335397,386.759835 905.42,386.76 L911.18,386.76 C911.264603,386.759835 911.334712,386.825562 911.34,386.91 L911.34,388.91 Z M911.34,383.82 C911.34,383.908366 911.268366,383.98 911.18,383.98 L905.42,383.98 C905.331634,383.98 905.26,383.908366 905.26,383.82 L905.26,381.82 C905.26,381.731634 905.331634,381.66 905.42,381.66 L911.18,381.66 C911.268366,381.66 911.34,381.731634 911.34,381.82 L911.34,383.82 Z M911.34,378.74 C911.334712,378.824438 911.264603,378.890165 911.18,378.89 L905.42,378.89 C905.335397,378.890165 905.265288,378.824438 905.26,378.74 L905.26,376.74 C905.265288,376.655562 905.335397,376.589835 905.42,376.59 L911.18,376.59 C911.264603,376.589835 911.334712,376.655562 911.34,376.74 L911.34,378.74 Z M911.34,373.65 C911.34,373.738366 911.268366,373.81 911.18,373.81 L905.42,373.81 C905.331634,373.81 905.26,373.738366 905.26,373.65 L905.26,371.65 C905.265288,371.565562 905.335397,371.499835 905.42,371.5 L911.18,371.5 C911.264603,371.499835 911.334712,371.565562 911.34,371.65 L911.34,373.65 Z M911.34,368.57 C911.334712,368.654438 911.264603,368.720165 911.18,368.72 L905.42,368.72 C905.335397,368.720165 905.265288,368.654438 905.26,368.57 L905.26,366.57 C905.26,366.481634 905.331634,366.41 905.42,366.41 L911.18,366.41 C911.268366,366.41 911.34,366.481634 911.34,366.57 L911.34,368.57 Z M925,399.08 C925.000165,399.164603 924.934438,399.234712 924.85,399.24 L919.08,399.24 C918.995562,399.234712 918.929835,399.164603 918.93,399.08 L918.93,397.08 C918.93,396.997157 918.997157,396.93 919.08,396.93 L924.85,396.93 C924.932843,396.93 925,396.997157 925,397.08 L925,399.08 Z M925,394 C925,394.082843 924.932843,394.15 924.85,394.15 L919.08,394.15 C918.997157,394.15 918.93,394.082843 918.93,394 L918.93,392 C918.929835,391.915397 918.995562,391.845288 919.08,391.84 L924.85,391.84 C924.934438,391.845288 925.000165,391.915397 925,392 L925,394 Z M925,388.91 C925.000165,388.994603 924.934438,389.064712 924.85,389.07 L919.08,389.07 C918.995562,389.064712 918.929835,388.994603 918.93,388.91 L918.93,386.91 C918.93,386.827157 918.997157,386.76 919.08,386.76 L924.85,386.76 C924.932843,386.76 925,386.827157 925,386.91 L925,388.91 Z M925,383.82 C925.000165,383.904603 924.934438,383.974712 924.85,383.98 L919.08,383.98 C918.995562,383.974712 918.929835,383.904603 918.93,383.82 L918.93,381.82 C918.929835,381.735397 918.995562,381.665288 919.08,381.66 L924.85,381.66 C924.934438,381.665288 925.000165,381.735397 925,381.82 L925,383.82 Z M925,378.74 C925,378.822843 924.932843,378.89 924.85,378.89 L919.08,378.89 C918.997157,378.89 918.93,378.822843 918.93,378.74 L918.93,376.74 C918.93,376.657157 918.997157,376.59 919.08,376.59 L924.85,376.59 C924.932843,376.59 925,376.657157 925,376.74 L925,378.74 Z M925,373.65 C925.000165,373.734603 924.934438,373.804712 924.85,373.81 L919.08,373.81 C918.995562,373.804712 918.929835,373.734603 918.93,373.65 L918.93,371.65 C918.93,371.567157 918.997157,371.5 919.08,371.5 L924.85,371.5 C924.932843,371.5 925,371.567157 925,371.65 L925,373.65 Z M925,368.57 C925,368.652843 924.932843,368.72 924.85,368.72 L919.08,368.72 C918.997157,368.72 918.93,368.652843 918.93,368.57 L918.93,366.57 C918.929835,366.485397 918.995562,366.415288 919.08,366.41 L924.85,366.41 C924.934438,366.415288 925.000165,366.485397 925,366.57 L925,368.57 Z" id="Shape" fill="#6C63FF" opacity="0.1"></path>
                <path d="M884.77,353.01 C884.123308,352.888782 883.455199,352.961857 882.85,353.22 C882.487766,353.379844 882.095931,353.461618 881.7,353.46 C881.299647,353.463054 880.903555,353.37769 880.54,353.21 C879.667658,352.83397 878.674912,352.855869 877.82,353.27 C877.578495,353.393618 877.311301,353.458704 877.04,353.46 C875.94,353.46 875.04,352.35 874.83,350.89 C875.050421,350.731498 875.237337,350.530988 875.38,350.3 C875.90813,349.258212 876.976992,348.601704 878.145,348.601704 C879.313008,348.601704 880.38187,349.258212 880.91,350.3 C881.301137,350.932549 881.996393,351.312471 882.74,351.3 L882.74,351.3 C883.712903,351.376796 884.529044,352.064284 884.77,353.01 Z" id="Path" fill="#6C63FF" opacity="0.1"></path>
                <path d="M888.13,348.42 L886.35,349.54 L887.43,347.54 C887.12411,347.292232 886.743617,347.154832 886.35,347.15 L886.35,347.15 C886.227133,347.165168 886.102867,347.165168 885.98,347.15 L885.37,347.53 L885.63,347.06 C885.20605,346.907673 884.839389,346.628313 884.58,346.26 L883.5,346.94 L884.18,345.7 C883.597514,344.950504 882.70896,344.502555 881.76,344.48 C880.599663,344.53079 879.551456,345.187818 879,346.21 C878.611753,346.84559 877.914605,347.226546 877.17,347.21 L877.11,347.21 C875.87,347.21 874.86,348.62 874.86,350.35 C874.86,352.08 875.86,353.49 877.11,353.49 C877.381726,353.492265 877.649756,353.426975 877.89,353.3 C878.752469,352.899636 879.747531,352.899636 880.61,353.3 C881.346773,353.619906 882.183227,353.619906 882.92,353.3 C883.7743,352.910185 884.7557,352.910185 885.61,353.3 C885.846654,353.426951 886.111455,353.492291 886.38,353.49 C887.62,353.49 888.63,352.09 888.63,350.35 C888.628903,349.674777 888.456893,349.01082 888.13,348.42 Z" id="Path" fill="#6C63FF" opacity="0.1"></path>
                <path d="M493.71,206.14 L474.71,205.3 C470.36,205.11 465.4,205.17 462.5,208.41 C459.41,211.86 460.22,217.28 462.04,221.55 C463.86,225.82 466.52,229.91 466.66,234.55 C466.87,241.85 460.88,247.63 455.45,252.55 C450.02,257.47 444.22,263.55 445.01,270.82 C445.63,276.49 450.15,280.87 454.61,284.41 C461.401254,289.803422 468.722054,294.494094 476.46,298.41 C480.89,300.65 485.61,302.67 490.58,302.72 C494.94,302.77 499.16,301.3 503.26,299.82 C510.39,297.26 517.71,294.49 523.12,289.2 C525.878881,286.378518 528.204165,283.163559 530.02,279.66 C539.37,262.66 541.86,241.4 534.26,223.53 C532.676629,219.537216 530.294643,215.909791 527.26,212.87 C519.16,205.2 506.8,204.87 495.64,204.96 C493.610388,204.818638 491.577194,205.179255 489.72,206.01 C487.95,207.01 486.72,209.24 487.54,211.09" id="Path" fill="#393859"></path>
                <path d="M469.39,441.38 C468.66064,461.497747 469.409319,481.641895 471.63,501.65 C471.89,503.94 472.16,506.23 472.63,508.49 C473.91,515.49 476.53,522.2 478.58,529.03 C480.63,535.86 482.15,543.03 481.14,550.1 C485.54,549.64 489.946667,549.263333 494.36,548.97 L494.42,545.57 C494.54,539.05 491.98,532.69 492.63,526.2 C493.25,520.06 495.23,514.06 495.14,507.89 C495.05,502.06 493.14,496.44 492.23,490.68 C491.726657,486.833038 491.452839,482.959515 491.41,479.08 C491.151825,473.748828 491.185208,468.407529 491.51,463.08 C492.35,452.26 495.57,441.48 494.08,430.73 C485.92,434.49 477.5,437.66 469.39,441.38 Z" id="Path" fill="#A0616A"></path>
                <path d="M489.36,573.4 C489.862384,573.444846 490.367966,573.362302 490.83,573.16 C491.489515,572.626706 491.910337,571.8534 492,571.01 C492.714029,568.331604 493.848101,565.783318 495.36,563.46 C496.49,561.73 497.87,559.97 497.89,557.91 C497.89,554.58 494.41,552.25 493.68,549 C493.586445,547.95377 493.378538,546.920941 493.06,545.92 C492.24,544.17 490.06,543.57 488.18,543.18 C485.62,542.64 482.31,542.42 481.04,544.7 C479.96,546.64 481.16,549 481.32,551.21 C481.52,554.21 479.74,556.97 477.82,559.28 C475.57,562 469.66,568.51 473.26,572.28 C474.61,573.7 477.55,573.22 479.26,573.28 L489.36,573.4 Z" id="Path" fill="#3F3D56"></path>
                <path d="M528,441.38 C528.730991,461.497994 527.978956,481.642507 525.75,501.65 C525.5,503.94 525.23,506.23 524.81,508.49 C523.53,515.49 520.91,522.2 518.81,529.03 C516.71,535.86 515.25,543.03 516.26,550.1 C511.86,549.64 507.453333,549.263333 503.04,548.97 L502.98,545.57 C502.86,539.05 505.41,532.69 504.76,526.2 C504.15,520.06 502.17,514.06 502.26,507.89 C502.35,502.06 504.26,496.44 505.16,490.68 C505.671644,486.833742 505.948823,482.95992 505.99,479.08 C506.248175,473.748828 506.214792,468.407529 505.89,463.08 C505.05,452.26 501.82,441.48 503.32,430.73 C511.51,434.49 519.92,437.66 528,441.38 Z" id="Path" fill="#A0616A"></path>
                <path d="M508.06,573.4 C507.560929,573.443148 507.058997,573.360639 506.6,573.16 C505.92551,572.633869 505.489752,571.859588 505.39,571.01 C504.675971,568.331604 503.541899,565.783318 502.03,563.46 C500.9,561.73 499.51,559.97 499.5,557.91 C499.5,554.58 502.98,552.25 503.7,549 C503.796886,547.953406 504.008146,546.920578 504.33,545.92 C505.15,544.17 507.33,543.57 509.21,543.18 C511.77,542.64 515.07,542.42 516.35,544.7 C517.43,546.64 516.22,549 516.07,551.21 C515.86,554.21 517.65,556.97 519.57,559.28 C521.82,562 527.73,568.51 524.13,572.28 C522.78,573.7 519.84,573.22 518.13,573.28 L508.06,573.4 Z" id="Path" fill="#3F3D56"></path>
                <circle id="Oval" fill="#A0616A" cx="492.31" cy="243.59" r="20.49"></circle>
                <path d="M480.7,262.06 C481.009513,263.010628 481.111808,264.016526 481,265.01 C480.687515,266.040445 480.091483,266.962215 479.28,267.67 C476.38576,270.585541 472.933732,272.888026 469.13,274.44 C468.73,275.73 469.48,277.06 470.21,278.18 C472.67,281.97 475.27,285.65 477.88,289.34 C482.566267,296.553312 488.462893,302.903264 495.31,308.11 L501.31,300.57 C502.563992,299.064694 503.7261,297.485162 504.79,295.84 C505.989266,293.791519 507.032227,291.655454 507.91,289.45 L515.24,272.45 C510.83,273.34 506.35,271.31 502.58,268.84 C501.823414,268.424192 501.189007,267.817368 500.74,267.08 C500.44526,266.392408 500.308568,265.64744 500.34,264.9 C500.22,261.366667 500.17,257.836667 500.19,254.31 C494.885888,253.579065 489.543274,253.161673 484.19,253.06 C482.11,253.06 480.71,252.62 480.19,254.82 C479.67,257.02 480.25,259.93 480.7,262.06 Z" id="Path" fill="#A0616A"></path>
                <path d="M489.8,300.62 C486.496075,294.79846 482.463579,289.421799 477.8,284.62 C476.759091,283.695373 475.906781,282.578202 475.29,281.33 C474.932303,280.307334 474.743171,279.233337 474.73,278.15 L474.37,272.86 C474.38203,272.563023 474.286118,272.271734 474.1,272.04 C473.867053,271.86718 473.579007,271.785389 473.29,271.81 C472.027157,271.637163 470.741175,271.824341 469.58,272.35 C468.835722,272.873214 468.163316,273.491828 467.58,274.19 C465.29,276.54 462.07,277.65 459.05,278.92 C456.801955,279.859125 454.605512,280.917289 452.47,282.09 C450.78,283.02 449.04,284.09 448.28,285.89 C447.86947,287.037005 447.686061,288.252936 447.74,289.47 L447,332.01 C447.168198,333.154068 446.441793,334.239352 445.32,334.52 C444.414856,334.913614 443.618745,335.520993 443,336.29 C442.395364,337.096771 442.359409,338.195422 442.91,339.04 C443.21,339.43 443.67,339.67 443.98,340.04 C444.98,341.23 444.11,342.95 443.44,344.33 C442.486786,346.107446 442.135891,348.146147 442.44,350.14 C442.807272,352.148706 444.359123,353.732227 446.36,354.14 C447.15,351.59 445.36,348.7 446.36,346.23 C447.06378,344.853473 448.299128,343.824016 449.78,343.38 C451.766077,342.617035 453.916204,342.382726 456.02,342.7 L457.22,347.07 C461.53,362.81 458.54,379.72 454.61,395.56 C453.7,399.26 452.55,402.9 451.87,406.65 C450.87,412.28 450.87,418.03 450.87,423.75 L450.87,439.39 C450.87,441.29 450.99,443.44 452.44,444.67 C453.89,445.9 456.56,445.81 457.65,447.51 C458.28,448.51 458.16,449.8 458.73,450.82 C459.148433,451.478913 459.735346,452.014039 460.43,452.37 C465.602284,455.161162 472.048053,453.578901 475.34,448.71 C476.42,447 477.07,444.93 478.67,443.71 C480.5,442.28 483.04,442.32 485.35,442.43 L498.97,443.08 C501.305457,443.095505 503.629935,443.401181 505.89,443.99 C507.899004,444.718384 509.862528,445.566573 511.77,446.53 C516.101913,448.426821 520.817777,449.283006 525.54,449.03 C526.834555,449.035405 528.111084,448.726568 529.26,448.13 C530.56,447.35 531.46,445.93 532.89,445.4 C534.5,444.8 536.57,445.4 537.82,444.23 C538.548427,443.341163 538.906546,442.205926 538.82,441.06 L539.39,427.69 C539.99,413.9 540.52,399.69 535.97,386.69 C534.86,383.52 533.46,380.45 532.61,377.2 C531.88693,373.835417 531.349451,370.433614 531,367.01 C529.59,357.5 526.38,348.14 527,338.55 C527,337.82 527.64,337.65 528.36,337.55 C530.9,337.3 533.67,337.77 535.48,339.55 C537.09,341.15 537.66,343.55 537.84,345.78 C538.108612,347.392563 537.804356,349.048282 536.98,350.46 L540.74,347.7 C541.94,346.82 543.28,345.61 543.04,344.14 C542.33,339.77 542.57,334.88 542.04,330.49 C541.260501,323.041768 540.061934,315.643375 538.45,308.33 C537.849697,306.25189 537.365614,304.141955 537,302.01 C536.64,299.09 536.84,296.14 536.65,293.2 C536.366967,289.038181 535.301689,284.967054 533.51,281.2 C533.010656,280.043549 532.336072,278.970961 531.51,278.02 C530.378245,276.912809 529.066142,276.006511 527.63,275.34 C521.426662,272.115035 514.827006,269.717911 508,268.21 C506.65,267.92 505.1,267.7 504,268.54 C502.6,269.62 502.76,271.79 503.38,273.45 C504,275.11 504.95,276.78 504.68,278.53 C504.41,280.28 502.92,281.66 501.68,283.05 C498.51,286.76 497.07,291.76 493.68,295.3 C492.23,296.93 490.13,298.38 489.8,300.62 Z" id="Path" fill="#FF6F61"></path>
                <path d="M477.07,233.47 C478.8,234.91 480.25,236.91 482.45,237.38 C487.75,238.5 491.89,229.93 496.99,231.76 C498.85,232.43 499.99,234.28 501.42,235.58 C505.019721,238.512032 510.280844,238.1306 513.42,234.71 C516.1,231.58 516.13,227.06 516.03,222.94 C516.119904,221.414538 515.813287,219.891788 515.14,218.52 C514.66759,217.797862 514.06784,217.167616 513.37,216.66 C507.32,211.93 499.15,211.25 491.49,210.76 C489.822635,210.567307 488.135335,210.638174 486.49,210.97 C484.21,211.55 482.33,213.09 480.49,214.59 C477.05,217.45 468.68,222.89 467.63,227.5 C466.58,232.11 473.67,230.65 477.07,233.47 Z" id="Path" fill="#393859"></path>
                <rect id="Rectangle" fill="#6C63FF" x="453.12" y="295.07" width="74.28" height="80.43" rx="2.61"></rect>
                <rect id="Rectangle" fill="#FFFFFF" x="459.52" y="302.01" width="61.48" height="48.65" rx="2.61"></rect>
                <path d="M513,327.47 L513,327.47 C512.97292,326.973776 512.882177,326.48309 512.73,326.01 L512.73,325.94 C512.096198,324.079014 510.522028,322.694437 508.595369,322.303342 C506.668709,321.912246 504.679266,322.57344 503.37,324.04 C503.279868,323.512172 503.132326,322.995773 502.93,322.5 C501.47763,322.683072 500.011856,322.736617 498.549999,322.66 C499.444295,323.07726 500.374826,323.411983 501.33,323.66 L501.33,323.79 C500.263355,323.498986 499.225669,323.110691 498.23,322.63 L497.93,322.48 L498.26,322.48 C499.813894,322.586918 501.374484,322.543382 502.92,322.35 C502.588585,321.551767 502.125479,320.814854 501.549999,320.17 C499.027891,319.961606 496.55603,319.347017 494.23,318.35 L494.29,318.23 C496.556101,319.202784 498.963135,319.807074 501.42,320.02 C499.740261,318.219405 497.311336,317.313895 494.862817,317.575463 C492.414298,317.837032 490.231468,319.235204 488.97,321.35 C488.738469,319.102707 487.804165,316.985652 486.3,315.3 C482.940992,316.64088 479.33221,317.241206 475.72,317.06 C476.618494,317.466991 477.548131,317.801392 478.5,318.06 L478.5,318.18 C477.433355,317.888986 476.395669,317.500691 475.4,317.02 L475.1,316.88 L475.43,316.88 C479.119807,317.120793 482.816747,316.533109 486.25,315.16 C486.12,315.02 485.99,314.88 485.85,314.75 C481.56,314.84 476.9,314.75 472.67,313.25 C469.485888,315.218897 467.548519,318.696322 467.549999,322.44 C467.663795,325.036308 468.176462,327.599641 469.07,330.04 C469.501602,331.289838 470.009216,332.512118 470.59,333.7 C470.89,334.3 471.2,334.88 471.53,335.44 L471.53,335.44 C471.92809,336.131151 472.365475,336.798914 472.84,337.44 L473.1,337.77 C473.587289,338.388062 474.136847,338.954374 474.74,339.46 L474.74,339.46 C474.855031,339.562678 474.975185,339.659468 475.1,339.75 C475.431385,339.998311 475.78256,340.21905 476.15,340.41 C476.771009,340.72788 477.453067,340.908625 478.15,340.94 L478.32,340.94 L478.32,340.94 L507.59,340.94 L507.59,340.94 L507.59,340.94 C507.756474,340.938669 507.921748,340.911686 508.08,340.86 C509.08,340.49 510.08,339.01 510.87,337.15 C511.04,336.74 511.21,336.31 511.37,335.86 C511.53,335.41 511.64,335.07 511.77,334.67 C512.15,333.45 512.46,332.2 512.69,331.07 C512.933713,329.968524 513.077629,328.84732 513.12,327.72 L513,327.47 Z" id="Path" fill="#6C63FF" opacity="0.3"></path>
                <path d="M485.65,314.66 C482.162974,311.327226 476.879466,310.733804 472.74,313.21 C476.88,314.69 481.44,314.74 485.65,314.66 Z" id="Path" fill="#6C63FF" opacity="0.3"></path>
                <path d="M509.63,338.71 L505.11,330.89 C505.086199,330.842811 505.037852,330.813048 504.985,330.813048 C504.932148,330.813048 504.883801,330.842811 504.86,330.89 L500.34,338.71 C500.315677,338.756077 500.317007,338.811476 500.343514,338.856333 C500.37002,338.90119 500.417905,338.929079 500.47,338.93 L501.82,338.93 C501.89732,338.93 501.96,338.99268 501.96,339.07 L501.96,340.75 C501.96,340.82732 502.02268,340.890048 502.1,340.890048 L503.86,340.890048 C503.93909,340.890176 504.004728,340.828914 504.01,340.75 L504.01,339.94 C504.009824,339.86091 504.071086,339.795272 504.15,339.79 L505.82,339.79 C505.902843,339.79 505.97,339.857157 505.97,339.94 L505.97,340.75 C505.97,340.82732 506.03268,340.890048 506.11,340.890048 L507.87,340.890048 C507.931546,340.891657 507.985814,340.849912 508,340.79 L508,339.11 C508.005272,339.031086 508.07091,338.969824 508.15,338.97 L509.49,338.97 C509.559026,338.992617 509.634339,338.962526 509.668776,338.898571 C509.703213,338.834617 509.686878,338.755178 509.63,338.71 L509.63,338.71 Z M503.33,339.58 C503.298,339.593333 503.262,339.593333 503.23,339.58 L502.59,339.58 C502.51268,339.58 502.45,339.51732 502.45,339.44 C502.438562,339.407648 502.438562,339.372352 502.45,339.34 C502.474943,339.310169 502.511169,339.292056 502.55,339.29 L503.19,339.29 C503.268914,339.295272 503.330176,339.36091 503.33,339.44 C503.357274,339.482682 503.357274,339.537318 503.33,339.58 L503.33,339.58 Z M507.48,339.58 C507.448,339.593333 507.412,339.593333 507.38,339.58 L506.74,339.58 C506.66268,339.58 506.6,339.51732 506.6,339.44 C506.588562,339.407648 506.588562,339.372352 506.6,339.34 C506.624943,339.310169 506.661169,339.292056 506.7,339.29 L507.34,339.29 C507.418914,339.295272 507.480176,339.36091 507.48,339.44 C507.507274,339.482682 507.507274,339.537318 507.48,339.58 L507.48,339.58 Z" id="Shape" fill="#6C63FF" opacity="0.3"></path>
                <path d="M481.7,338.78 L477.19,331.01 C477.166199,330.962811 477.117852,330.933048 477.065,330.933048 C477.012148,330.933048 476.963801,330.962811 476.94,331.01 L473,337.72 C473.490003,338.332646 474.039338,338.895379 474.64,339.4 L475.27,339.4 C475.352843,339.4 475.42,339.467157 475.42,339.55 C475.417944,339.588831 475.399831,339.625057 475.37,339.65 C475.337648,339.661438 475.302352,339.661438 475.27,339.65 L475,339.65 C475.333875,339.891692 475.68479,340.108926 476.05,340.3 L476.05,340.01 C476.049824,339.93091 476.111086,339.865272 476.19,339.86 L477.87,339.86 C477.948914,339.865272 478.010176,339.93091 478.01,340.01 L478.01,340.81 C478.008283,340.829963 478.008283,340.850037 478.01,340.87 C478.035897,340.919553 478.084503,340.953203 478.14,340.960091 L479.9,340.960091 C479.947603,340.961717 479.992812,340.939112 480.02,340.9 C480.031676,340.871136 480.031676,340.838864 480.02,340.81 L480.02,339.14 C480.02,339.06268 480.08268,339 480.16,339 L481.51,339 C481.549299,339.03394 481.60372,339.044336 481.652763,339.027272 C481.701806,339.010208 481.738019,338.968277 481.747763,338.917272 C481.757506,338.866268 481.739299,338.81394 481.7,338.78 Z M478.7,339.44 C478.732352,339.428562 478.767648,339.428562 478.8,339.44 L479.43,339.44 C479.512843,339.44 479.58,339.507157 479.58,339.59 C479.577944,339.628831 479.559831,339.665057 479.53,339.69 C479.497648,339.701438 479.462352,339.701438 479.43,339.69 L478.8,339.69 C478.72091,339.690176 478.655272,339.628914 478.65,339.55 C478.656658,339.505058 478.682108,339.465065 478.72,339.44 L478.7,339.44 Z M475.86,336.55 C475.777157,336.55 475.71,336.482843 475.71,336.4 L475.71,335.31 C475.715272,335.231086 475.78091,335.169824 475.86,335.17 L478.22,335.17 C478.29909,335.169824 478.364728,335.231086 478.37,335.31 L478.37,336.4 C478.37,336.482843 478.302843,336.55 478.22,336.55 L475.86,336.55 Z" id="Shape" fill="#6C63FF" opacity="0.3"></path>
                <path d="M499.56,324.72 L494,324.72 L494,323.52 C494,323.359837 493.870163,323.23 493.71,323.23 L492,323.23 L492,321.94 C492,321.840589 491.919411,321.76 491.82,321.76 L489.7,321.76 C489.600589,321.76 489.52,321.840589 489.52,321.94 L489.52,323.23 L487.59,323.23 C487.429837,323.23 487.3,323.359837 487.3,323.52 L487.3,324.72 L482,324.72 C481.966863,324.72 481.94,324.746863 481.94,324.78 L481.94,340.84 C481.94493,340.869184 481.970405,340.890413 482,340.890006 L485.54,340.890006 C485.54,340.890006 485.6,340.890006 485.6,340.84 L485.6,338.68 C485.6,338.646863 485.626863,338.62 485.66,338.62 L487.16,338.62 C487.193137,338.62 487.22,338.646863 487.22,338.68 L487.22,340.84 C487.22,340.84 487.22,340.890006 487.28,340.890006 L494.28,340.890006 C494.309595,340.890413 494.33507,340.869184 494.34,340.84 L494.34,338.68 C494.34,338.68 494.34,338.62 494.34,338.62 L495.84,338.62 C495.873137,338.62 495.9,338.646863 495.9,338.68 L495.9,340.84 C495.90493,340.869184 495.930405,340.890413 495.96,340.890006 L499.5,340.890006 C499.529595,340.890413 499.55507,340.869184 499.56,340.84 L499.56,324.78 C499.570718,324.761436 499.570718,324.738564 499.56,324.72 L499.56,324.72 Z M485,337.87 C485,337.903137 484.973137,337.93 484.94,337.93 L482.75,337.93 C482.716863,337.93 482.69,337.903137 482.69,337.87 L482.69,337.12 C482.69,337.086863 482.716863,337.06 482.75,337.06 L484.94,337.06 C484.973137,337.06 485,337.086863 485,337.12 L485,337.87 Z M485,335.94 C485,335.973137 484.973137,336 484.94,336 L482.75,336 C482.716863,336 482.69,335.973137 482.69,335.94 L482.69,335.19 C482.69,335.156863 482.716863,335.13 482.75,335.13 L484.94,335.13 C484.973137,335.13 485,335.156863 485,335.19 L485,335.94 Z M485,334.01 C484.99507,334.039184 484.969595,334.060413 484.94,334.06 L482.75,334.06 C482.720405,334.060413 482.69493,334.039184 482.69,334.01 L482.69,333.26 C482.69,333.226863 482.716863,333.2 482.75,333.2 L484.94,333.2 C484.973137,333.2 485,333.226863 485,333.26 L485,334.01 Z M485,332.07 C485,332.103137 484.973137,332.13 484.94,332.13 L482.75,332.13 C482.716863,332.13 482.69,332.103137 482.69,332.07 L482.69,331.33 C482.69,331.314087 482.696321,331.298826 482.707574,331.287574 C482.718826,331.276321 482.734087,331.27 482.75,331.27 L484.94,331.27 C484.973137,331.27 485,331.296863 485,331.33 L485,332.07 Z M485,330.14 C485,330.173137 484.973137,330.2 484.94,330.2 L482.75,330.2 C482.716863,330.2 482.69,330.173137 482.69,330.14 L482.69,329.4 C482.69,329.366863 482.716863,329.34 482.75,329.34 L484.94,329.34 C484.973137,329.34 485,329.366863 485,329.4 L485,330.14 Z M485,328.21 C485,328.243137 484.973137,328.27 484.94,328.27 L482.75,328.27 C482.716863,328.27 482.69,328.243137 482.69,328.21 L482.69,327.46 C482.69493,327.430816 482.720405,327.409587 482.75,327.41 L484.94,327.41 C484.969595,327.409587 484.99507,327.430816 485,327.46 L485,328.21 Z M485,326.28 C485,326.313137 484.973137,326.34 484.94,326.34 L482.75,326.34 C482.716863,326.34 482.69,326.313137 482.69,326.28 L482.69,325.53 C482.69,325.496863 482.716863,325.47 482.75,325.47 L484.94,325.47 C484.973137,325.47 485,325.496863 485,325.53 L485,326.28 Z M490.19,337.87 C490.19,337.903137 490.163137,337.93 490.13,337.93 L487.94,337.93 C487.906863,337.93 487.88,337.903137 487.88,337.87 L487.88,337.12 C487.88,337.086863 487.906863,337.06 487.94,337.06 L490.13,337.06 C490.163137,337.06 490.19,337.086863 490.19,337.12 L490.19,337.87 Z M490.19,335.94 C490.19,335.973137 490.163137,336 490.13,336 L487.94,336 C487.906863,336 487.88,335.973137 487.88,335.94 L487.88,335.19 C487.88,335.156863 487.906863,335.13 487.94,335.13 L490.13,335.13 C490.163137,335.13 490.19,335.156863 490.19,335.19 L490.19,335.94 Z M490.19,334.01 C490.18507,334.039184 490.159595,334.060413 490.13,334.06 L487.94,334.06 C487.910405,334.060413 487.88493,334.039184 487.88,334.01 L487.88,333.26 C487.88,333.226863 487.906863,333.2 487.94,333.2 L490.13,333.2 C490.163137,333.2 490.19,333.226863 490.19,333.26 L490.19,334.01 Z M490.19,332.07 C490.19,332.103137 490.163137,332.13 490.13,332.13 L487.94,332.13 C487.906863,332.13 487.88,332.103137 487.88,332.07 L487.88,331.33 C487.88,331.296863 487.906863,331.27 487.94,331.27 L490.13,331.27 C490.163137,331.27 490.19,331.296863 490.19,331.33 L490.19,332.07 Z M490.19,330.14 C490.19,330.173137 490.163137,330.2 490.13,330.2 L487.94,330.2 C487.906863,330.2 487.88,330.173137 487.88,330.14 L487.88,329.4 C487.88,329.366863 487.906863,329.34 487.94,329.34 L490.13,329.34 C490.163137,329.34 490.19,329.366863 490.19,329.4 L490.19,330.14 Z M490.19,328.21 C490.19,328.243137 490.163137,328.27 490.13,328.27 L487.94,328.27 C487.906863,328.27 487.88,328.243137 487.88,328.21 L487.88,327.46 C487.88493,327.430816 487.910405,327.409587 487.94,327.41 L490.13,327.41 C490.159595,327.409587 490.18507,327.430816 490.19,327.46 L490.19,328.21 Z M490.19,326.28 C490.19,326.313137 490.163137,326.34 490.13,326.34 L487.94,326.34 C487.906863,326.34 487.88,326.313137 487.88,326.28 L487.88,325.53 C487.88,325.496863 487.906863,325.47 487.94,325.47 L490.13,325.47 C490.163137,325.47 490.19,325.496863 490.19,325.53 L490.19,326.28 Z M493.73,337.87 C493.73,337.903137 493.703137,337.93 493.67,337.93 L491.48,337.93 C491.450816,337.92507 491.429587,337.899595 491.429994,337.87 L491.429994,337.12 C491.429587,337.090405 491.450816,337.06493 491.48,337.06 L493.67,337.06 C493.703137,337.06 493.73,337.086863 493.73,337.12 L493.73,337.87 Z M493.73,335.94 C493.73,335.973137 493.703137,336 493.67,336 L491.48,336 C491.450816,335.99507 491.429587,335.969595 491.429994,335.94 L491.429994,335.19 C491.429587,335.160405 491.450816,335.13493 491.48,335.13 L493.67,335.13 C493.703137,335.13 493.73,335.156863 493.73,335.19 L493.73,335.94 Z M493.73,334.01 C493.73,334.01 493.73,334.06 493.67,334.06 L491.479994,334.06 L491.479994,333.31 C491.479587,333.280405 491.500816,333.25493 491.53,333.25 L493.72,333.25 C493.753137,333.25 493.78,333.276863 493.78,333.31 L493.73,334.01 Z M493.73,332.07 C493.733897,332.086811 493.72885,332.104444 493.716647,332.116647 C493.704444,332.12885 493.686811,332.133897 493.67,332.13 L491.48,332.13 C491.48,332.13 491.43,332.13 491.43,332.07 L491.43,331.33 C491.43,331.33 491.43,331.27 491.48,331.27 L493.67,331.27 C493.686811,331.266103 493.704444,331.27115 493.716647,331.283353 C493.72885,331.295556 493.733897,331.313189 493.73,331.33 L493.73,332.07 Z M493.73,330.14 C493.733897,330.156811 493.72885,330.174444 493.716647,330.186647 C493.704444,330.19885 493.686811,330.203897 493.67,330.2 L491.48,330.2 C491.48,330.2 491.43,330.2 491.43,330.14 L491.43,329.4 C491.43,329.4 491.43,329.34 491.48,329.34 L493.67,329.34 C493.686811,329.336103 493.704444,329.34115 493.716647,329.353353 C493.72885,329.365556 493.733897,329.383189 493.73,329.4 L493.73,330.14 Z M493.73,328.21 C493.73,328.243137 493.703137,328.27 493.67,328.27 L491.48,328.27 C491.450816,328.26507 491.429587,328.239595 491.429994,328.21 L491.429994,327.46 L493.62,327.46 C493.62,327.46 493.68,327.46 493.68,327.51 L493.73,328.21 Z M493.73,326.28 C493.73,326.313137 493.703137,326.34 493.67,326.34 L491.48,326.34 C491.450816,326.33507 491.429587,326.309595 491.429994,326.28 L491.429994,325.53 C491.429587,325.500405 491.450816,325.47493 491.48,325.47 L493.67,325.47 C493.703137,325.47 493.73,325.496863 493.73,325.53 L493.73,326.28 Z M498.92,337.87 C498.92,337.903137 498.893137,337.93 498.86,337.93 L496.67,337.93 C496.636863,337.93 496.61,337.903137 496.61,337.87 L496.61,337.12 C496.61,337.086863 496.636863,337.06 496.67,337.06 L498.86,337.06 C498.893137,337.06 498.92,337.086863 498.92,337.12 L498.92,337.87 Z M498.92,335.94 C498.92,335.973137 498.893137,336 498.86,336 L496.67,336 C496.636863,336 496.61,335.973137 496.61,335.94 L496.61,335.19 C496.61,335.156863 496.636863,335.13 496.67,335.13 L498.86,335.13 C498.893137,335.13 498.92,335.156863 498.92,335.19 L498.92,335.94 Z M498.92,334.01 C498.91507,334.039184 498.889595,334.060413 498.86,334.06 L496.67,334.06 C496.640405,334.060413 496.61493,334.039184 496.61,334.01 L496.61,333.26 C496.61,333.226863 496.636863,333.2 496.67,333.2 L498.86,333.2 C498.893137,333.2 498.92,333.226863 498.92,333.26 L498.92,334.01 Z M498.92,332.07 C498.92,332.103137 498.893137,332.13 498.86,332.13 L496.67,332.13 C496.636863,332.13 496.61,332.103137 496.61,332.07 L496.61,331.33 C496.61,331.296863 496.636863,331.27 496.67,331.27 L498.86,331.27 C498.893137,331.27 498.92,331.296863 498.92,331.33 L498.92,332.07 Z M498.92,330.14 C498.92,330.173137 498.893137,330.2 498.86,330.2 L496.67,330.2 C496.636863,330.2 496.61,330.173137 496.61,330.14 L496.61,329.4 C496.61,329.366863 496.636863,329.34 496.67,329.34 L498.86,329.34 C498.893137,329.34 498.92,329.366863 498.92,329.4 L498.92,330.14 Z M498.92,328.21 C498.92,328.243137 498.893137,328.27 498.86,328.27 L496.67,328.27 C496.636863,328.27 496.61,328.243137 496.61,328.21 L496.61,327.46 C496.61493,327.430816 496.640405,327.409587 496.67,327.41 L498.86,327.41 C498.889595,327.409587 498.91507,327.430816 498.92,327.46 L498.92,328.21 Z M498.92,326.28 C498.92,326.313137 498.893137,326.34 498.86,326.34 L496.67,326.34 C496.636863,326.34 496.61,326.313137 496.61,326.28 L496.61,325.53 C496.61,325.496863 496.636863,325.47 496.67,325.47 L498.86,325.47 C498.893137,325.47 498.92,325.496863 498.92,325.53 L498.92,326.28 Z" id="Shape" fill="#6C63FF" opacity="0.3"></path>
                <path d="M483.64,320.37 C483.393907,320.330244 483.141641,320.357889 482.91,320.45 C482.632431,320.586003 482.307569,320.586003 482.03,320.45 C481.711708,320.308384 481.348292,320.308384 481.03,320.45 C480.938574,320.502096 480.835226,320.529655 480.73,320.53 C480.31,320.53 479.96,320.1 479.89,319.53 C479.974936,319.468438 480.046398,319.390171 480.1,319.3 C480.305857,318.931785 480.679922,318.688643 481.1,318.65 C481.520668,318.686937 481.895463,318.930553 482.1,319.3 C482.248774,319.537505 482.509749,319.68123 482.79,319.68 L482.79,319.68 C483.200675,319.680555 483.555033,319.96821 483.64,320.37 L483.64,320.37 Z" id="Path" fill="#6C63FF" opacity="0.1"></path>
                <path d="M484.91,318.63 L484.24,319.06 L484.65,318.31 C484.531577,318.221151 484.388033,318.172136 484.24,318.17 L484.09,318.17 L483.86,318.31 L483.95,318.13 C483.787703,318.075944 483.647337,317.97067 483.55,317.83 L483.14,318.09 L483.4,317.62 C483.179921,317.332588 482.84186,317.159883 482.48,317.15 C482.041715,317.172341 481.64543,317.417661 481.43,317.8 C481.284058,318.040479 481.021251,318.185213 480.74,318.18 L480.74,318.18 C480.27,318.18 479.89,318.71 479.89,319.37 C479.89,320.03 480.27,320.56 480.74,320.56 C480.843841,320.558272 480.946118,320.534408 481.04,320.49 C481.357455,320.344495 481.722545,320.344495 482.04,320.49 C482.179086,320.5494 482.328761,320.580032 482.48,320.580032 C482.631353,320.581163 482.78126,320.550501 482.92,320.49 C483.237742,320.345816 483.602258,320.345816 483.92,320.49 C484.013882,320.534408 484.116159,320.558272 484.22,320.56 C484.69,320.56 485.07,320.03 485.07,319.37 C485.079935,319.113787 485.024894,318.859223 484.91,318.63 L484.91,318.63 Z" id="Path" fill="#6C63FF" opacity="0.1"></path>
                <ellipse id="Oval" fill="#A0616A" cx="450.81" cy="350.66" rx="6.15" ry="10.25"></ellipse>
                <ellipse id="Oval" fill="#A0616A" cx="531.76" cy="345.53" rx="6.15" ry="10.25"></ellipse>
                <g id="terminal" transform="translate(77.000000, 371.000000)">
                    <path d="M4.37791176,0 L220.622088,0 C223.026857,0 225,1.97319035 225,4.37801609 L225,179.621984 C225,182.02681 223.026857,184 220.622088,184 L4.37791176,184 C1.97314333,184 0,182.02681 0,179.621984 L0,4.37801609 C0,1.97319035 1.97314333,0 4.37791176,0 Z" id="XMLID_2_" fill="#000000"></path>
                    <path d="M25.6375,19.1137124 C24.9,18.3712375 23.978125,18 22.9333333,18 C21.8885417,18 20.9666667,18.3712375 20.2291667,19.1137124 C19.4916667,19.8561873 19.1229167,20.7842809 19.1229167,21.8361204 C19.1229167,22.8879599 19.4916667,23.8160535 20.2291667,24.5585284 L32.0291667,36.4381271 L20.1677083,48.3177258 C19.4302083,49.0602007 19.0614583,49.9882943 19,51.0401338 C19,52.0919732 19.36875,53.0200669 20.10625,53.7625418 C20.84375,54.5050167 21.765625,54.8762542 22.8104167,54.8762542 C23.8552083,54.8762542 24.7770833,54.5050167 25.5760417,53.7625418 L38.6666667,40.583612 C41.4322917,37.7993311 41.4322917,35.0769231 38.6666667,32.2926421 L25.6375,19.1137124 Z M76.89375,48.3177258 C76.15625,47.5752508 75.234375,47.2040134 74.128125,47.2040134 L74.128125,47.2040134 L48.86875,47.2040134 L48.86875,47.2040134 C47.8239583,47.2040134 46.9020833,47.5752508 46.103125,48.3177258 C45.365625,49.0602007 44.996875,49.9882943 44.996875,51.1020067 C44.996875,52.2157191 45.365625,53.0819398 46.103125,53.8862876 C46.840625,54.6287625 47.7625,55 48.86875,55 L48.86875,55 L74.128125,55 L74.128125,55 C75.1729167,55 76.0947917,54.6287625 76.89375,53.8862876 C77.63125,53.1438127 78,52.2157191 78,51.1020067 C78,49.9882943 77.6927083,49.0602007 76.89375,48.3177258 Z" id="XMLID_3_" fill="#FFFFFF"></path>
                </g>
            </g>
        </g>
    </g>
</svg>