<?xml version="1.0" encoding="UTF-8"?>
<svg width="512px" height="512px" viewBox="0 0 512 512" version="1.1" xmlns="http://www.w3.org/2000/svg" xmlns:xlink="http://www.w3.org/1999/xlink">
    <!-- Generator: Sketch 63.1 (92452) - https://sketch.com -->
    <title>grimoire</title>
    <desc>Created with Sketch.</desc>
    <g id="illustrations" stroke="none" stroke-width="1" fill="none" fill-rule="evenodd">
        <g id="Artboard" transform="translate(-6488.000000, -2293.000000)" fill-rule="nonzero">
            <g id="grimoire" transform="translate(6488.000000, 2293.000000)">
                <path d="M512,256 C512,397.386719 397.386719,512 256,512 C114.613281,512 0,397.386719 0,256 C0,114.613281 114.613281,0 256,0 C397.386719,0 512,114.613281 512,256 Z" id="Path" fill="#906AC3"></path>
                <path d="M147.894531,88.277344 C128.929688,88.277344 113.5,103.707031 113.5,122.671875 L113.5,389.328125 C113.5,399.0625 117.574219,407.863281 124.097656,414.125 C124.292969,414.328125 176.730469,466.769531 219.335938,509.375 C231.3125,511.09375 243.550781,512 256,512 C397.386719,512 512,397.386719 512,256 C512,243.335938 511.066406,230.890625 509.289062,218.71875 L378.84375,88.277344 L147.894531,88.277344 Z" id="Path" fill="#8E4888"></path>
                <polygon id="Path" fill="#FE7E3A" points="265.828125 88.277344 200.308594 238.800781 265.828125 389.328125 378.84375 354.929688 378.84375 88.277344"></polygon>
                <path d="M147.898438,88.277344 C128.929688,88.277344 113.5,103.707031 113.5,122.671875 L113.5,389.328125 L265.828125,389.328125 L162.636719,88.277344 L147.898438,88.277344 Z" id="Path" fill="#FF5C37"></path>
                <polygon id="Path" fill="#FEA03E" points="162.636719 88.277344 265.828125 88.277344 265.828125 389.328125 162.636719 389.328125"></polygon>
                <polygon id="Path" fill="#FF5C37" points="378.84375 354.929688 265.828125 354.929688 226.515625 389.328125 265.828125 423.722656 378.84375 423.722656 378.84375 404.070312 339.535156 389.328125 378.84375 374.585938"></polygon>
                <path d="M147.898438,354.929688 C128.929688,354.929688 113.5,370.363281 113.5,389.328125 C113.5,408.292969 128.929688,423.722656 147.898438,423.722656 L265.828125,423.722656 L265.828125,354.929688 L147.898438,354.929688 Z" id="Path" fill="#FE7E3A"></path>
                <polygon id="Path" fill="#ADF2F5" points="378.84375 374.585938 265.828125 374.585938 226.515625 389.328125 265.828125 404.070312 378.84375 404.070312"></polygon>
                <path d="M147.898438,374.585938 C139.769531,374.585938 133.15625,381.199219 133.15625,389.328125 C133.15625,397.453125 139.769531,404.066406 147.898438,404.066406 L265.828125,404.066406 L265.828125,374.585938 L147.898438,374.585938 Z" id="Path" fill="#FFFFFF"></path>
                <polygon id="Path" fill="#FF5C37" points="339.535156 127.585938 265.828125 127.585938 226.515625 231.429688 265.828125 335.277344 339.535156 335.277344"></polygon>
                <polygon id="Path" fill="#FE7E3A" points="192.121094 127.585938 265.828125 127.585938 265.828125 335.277344 192.121094 335.277344"></polygon>
                <path d="M260.914062,201.949219 C244.65625,201.949219 231.429688,215.175781 231.429688,231.429688 C231.429688,247.6875 244.65625,260.914062 260.914062,260.914062 L265.828125,260.914062 L298.585938,231.429688 L265.828125,201.949219 L260.914062,201.949219 Z" id="Path" fill="#FF5C37"></path>
                <polygon id="Path" fill="#FF3A33" points="349.363281 201.949219 329.707031 216.691406 310.050781 201.949219 265.828125 201.949219 265.828125 260.914062 310.050781 260.914062 329.707031 246.171875 349.363281 260.914062 398.5 260.914062 398.5 201.949219"></polygon>
                <polygon id="Path" fill="#FEA03E" points="310.050781 201.949219 349.363281 201.949219 349.363281 260.914062 310.050781 260.914062"></polygon>
            </g>
        </g>
    </g>
</svg>