<?xml version="1.0" encoding="UTF-8"?>
<svg width="256px" height="256px" viewBox="0 0 256 256" version="1.1" xmlns="http://www.w3.org/2000/svg" xmlns:xlink="http://www.w3.org/1999/xlink">
    <!-- Generator: Sketch 55.2 (78181) - https://sketchapp.com -->
    <title>contacts_256</title>
    <desc>Created with Sketch.</desc>
    <defs>
        <linearGradient x1="0%" y1="100%" x2="102.958548%" y2="-2.79763745%" id="linearGradient-1">
            <stop stop-color="#4285F4" offset="0%"></stop>
            <stop stop-color="#40B0FF" offset="100%"></stop>
            <stop stop-color="#34B4A2" offset="100%"></stop>
        </linearGradient>
    </defs>
    <g id="contacts_256" stroke="none" stroke-width="1" fill="none" fill-rule="evenodd">
        <g id="Group" transform="translate(28.000000, 28.000000)">
            <rect id="Rectangle" fill="url(#linearGradient-1)" x="0" y="0" width="200" height="200" rx="100"></rect>
            <path d="M99.695279,64 C90.402544,64 82.8692938,71.4451691 82.8692938,80.6292506 C82.8692938,89.8133321 90.402544,97.2585012 99.695279,97.2585012 C108.988014,97.2585012 116.521264,89.8133321 116.521264,80.6292506 C116.521264,71.4451691 108.988014,64 99.695279,64 L99.695279,64 Z M66.0433086,76.0284913 C58.2993628,76.0284913 52.0216543,82.2327988 52.0216543,89.8862001 C52.0216543,93.561493 53.4989315,97.0862554 56.1285018,99.6850799 C58.758072,102.283904 62.3245347,103.743909 66.0433086,103.743909 C70.9789309,103.743909 75.2976005,101.19409 77.7654116,97.4247937 C74.0076083,92.7131727 71.6519703,87.0037966 71.6519703,80.6292506 C71.6519703,79.5206339 71.6519703,78.4120172 71.8763168,77.3034005 C70.0815451,76.4719379 68.1185135,76.0284913 66.0433086,76.0284913 L66.0433086,76.0284913 Z M133.347249,76.0284913 C131.272044,76.0284913 129.309013,76.4719379 127.514241,77.3034005 C127.738588,78.4120172 127.738588,79.5206339 127.738588,80.6292506 C127.738588,87.0037966 125.38295,92.7131727 121.625146,97.4247937 C124.092957,101.19409 128.411627,103.743909 133.347249,103.743909 C137.066023,103.743909 140.632486,102.283904 143.262056,99.6850799 C145.891626,97.0862554 147.368904,93.561493 147.368904,89.8862001 C147.368904,86.2109072 145.891626,82.6861447 143.262056,80.0873202 C140.632486,77.4884957 137.066023,76.0284913 133.347249,76.0284913 L133.347249,76.0284913 Z M99.695279,108.344668 C88.4779555,108.344668 66.0433086,113.887752 66.0433086,124.973919 L66.0433086,136.060086 L133.347249,136.060086 L133.347249,124.973919 C133.347249,113.887752 110.912602,108.344668 99.695279,108.344668 L99.695279,108.344668 Z M58.5837885,113.721459 C49.2173234,115.328953 38,119.652559 38,126.803136 L38,136.060086 L54.8259852,136.060086 L54.8259852,124.973919 C54.8259852,120.650314 56.4524971,116.825586 58.5837885,113.721459 L58.5837885,113.721459 Z M140.806769,113.721459 C142.938061,116.825586 144.564573,120.650314 144.564573,124.973919 L144.564573,136.060086 L161.390558,136.060086 L161.390558,126.803136 C161.390558,119.652559 150.173234,115.328953 140.806769,113.721459 Z" id="Shape" fill="#FFFFFF" fill-rule="nonzero"></path>
        </g>
    </g>
</svg>