<?xml version="1.0" encoding="UTF-8"?>
<svg width="1746px" height="1280px" viewBox="0 0 1746 1280" version="1.1" xmlns="http://www.w3.org/2000/svg" xmlns:xlink="http://www.w3.org/1999/xlink">
    <!-- Generator: Sketch 63.1 (92452) - https://sketch.com -->
    <title>undraw_horror_movie_3988</title>
    <desc>Created with Sketch.</desc>
    <g id="illustrations" stroke="none" stroke-width="1" fill="none" fill-rule="evenodd">
        <g id="Arcade" transform="translate(-364.000000, -434.000000)">
            <g id="undraw_horror_movie_3988" transform="translate(364.000000, 434.000000)">
                <path d="M1720.29205,755.096679 C1669.52233,669.232429 1660.69895,567.976178 1696.10927,474.674212 C1719.05103,414.222523 1722.63781,320.841759 1703.70623,258.875385 C1642.86726,59.7950017 1361.50222,-58.8188382 1090.20644,29.8033642 C841.463076,111.057894 780.560835,446.297947 589.566074,409.853577 C140.347565,324.138169 -21.4516915,612.160326 2.24440968,846.625676 C17.5502709,998.07666 158.758399,1185.39853 460.393366,1165.72952 C549.201428,1159.93782 636.41807,1179.57619 711.574958,1218.67345 C839.92519,1285.44216 1043.92872,1301.09683 1255.86014,1248.69573 C1574.63573,1169.8752 1790.56761,966.955575 1738.16267,795.463471 C1733.85075,781.341004 1727.85007,767.875192 1720.29205,755.096679" id="Fill-3" fill="#7191F8" opacity="0.676106771"></path>
                <path d="M1294,447.37 L1294,872.63 C1294.00796,900.578301 1282.90907,927.384199 1263.14663,947.146633 C1243.3842,966.909067 1216.5783,978.007961 1188.63,978.000098 L763.37,978.000098 C739.560112,978.032495 716.44613,969.971692 697.82,955.14 C690.110984,948.999248 683.292474,941.817263 677.56,933.8 C664.834388,915.941754 657.999999,894.558477 657.999999,872.63 L657.999999,447.37 C657.999999,444.55 658.11,441.76 658.33,439 C658.749489,433.60953 659.5887,428.25998 660.84,423 C672.139223,375.51695 714.561062,342 763.37,342 L1188.63,342 C1237.43894,342 1279.86078,375.51695 1291.16,423 C1292.4113,428.25998 1293.25051,433.60953 1293.67,439 C1293.89,441.76 1294,444.55 1294,447.37 Z" id="Path" fill="#FFC107" fill-rule="nonzero" opacity="0.1"></path>
                <path d="M984,677 L1294,677 L1294,693 L984,693 L984,804 L1294,804 L1294,820 L984,820 L984,978 L968,978 L968,820 L658,820 L658,804 L968,804 L968,693 L658,693 L658,677 L968,677 L968,566 L658,566 L658,550 L968,550 L968,439 L658.33,439 C658.749489,433.60953 659.5887,428.25998 660.84,423 L968,423 L968,342 L984,342 L984,423 L1291.16,423 C1292.4113,428.25998 1293.25051,433.60953 1293.67,439 L984,439 L984,550 L1294,550 L1294,566 L984,566 L984,677 Z" id="Path" fill="#FFC107" fill-rule="nonzero" opacity="0.1"></path>
                <ellipse id="Oval" fill="#FFC107" fill-rule="nonzero" opacity="0.1" cx="976" cy="1056.83" rx="511" ry="80.17"></ellipse>
                <ellipse id="Oval" fill="#FFC107" fill-rule="nonzero" cx="1367.7" cy="1023.14" rx="25.3" ry="4.87"></ellipse>
                <ellipse id="Oval" fill="#3F3D56" fill-rule="nonzero" cx="1367.28" cy="1021.08" rx="2.95" ry="3.86"></ellipse>
                <ellipse id="Oval" fill="#3F3D56" fill-rule="nonzero" cx="1367.28" cy="1016.36" rx="2.95" ry="3.86"></ellipse>
                <ellipse id="Oval" fill="#3F3D56" fill-rule="nonzero" cx="1367.28" cy="1011.65" rx="2.95" ry="3.86"></ellipse>
                <ellipse id="Oval" fill="#3F3D56" fill-rule="nonzero" cx="1367.28" cy="1006.94" rx="2.95" ry="3.86"></ellipse>
                <ellipse id="Oval" fill="#3F3D56" fill-rule="nonzero" cx="1367.28" cy="1002.22" rx="2.95" ry="3.86"></ellipse>
                <ellipse id="Oval" fill="#3F3D56" fill-rule="nonzero" cx="1367.28" cy="997.51" rx="2.95" ry="3.86"></ellipse>
                <ellipse id="Oval" fill="#3F3D56" fill-rule="nonzero" cx="1367.28" cy="992.8" rx="2.95" ry="3.86"></ellipse>
                <path d="M1378.3,960.55 C1378.70517,960.037174 1379.07279,959.495767 1379.4,958.93 L1371.66,957.66 L1380.03,957.72 C1381.65014,954.188228 1381.74777,950.145862 1380.3,946.54 L1369.07,952.37 L1379.43,944.75 C1376.79512,940.153255 1371.80863,937.41845 1366.51612,937.667482 C1361.22362,937.916515 1356.51595,941.107468 1354.32435,945.931317 C1352.13275,950.755166 1352.82611,956.399946 1356.12,960.55 C1355.49455,961.347738 1354.95491,962.209161 1354.51,963.12 L1364.51,968.34 L1353.8,964.74 C1352.26513,969.256183 1353.11935,974.242278 1356.07,977.99 C1351.5198,983.774402 1352.17969,992.084603 1357.58575,997.078407 C1362.99182,1002.07221 1371.32818,1002.07221 1376.73425,997.078407 C1382.14031,992.084603 1382.8002,983.774402 1378.25,977.99 C1382.27635,972.873837 1382.27635,965.666163 1378.25,960.55 L1378.3,960.55 Z" id="Path" fill="#FFC107" fill-rule="nonzero"></path>
                <path d="M1353.1,969.27 C1353.09047,972.431404 1354.14743,975.503632 1356.1,977.99 C1351.5498,983.774402 1352.20969,992.084603 1357.61575,997.078407 C1363.02182,1002.07221 1371.35818,1002.07221 1376.76425,997.078407 C1382.17031,992.084603 1382.8302,983.774402 1378.28,977.99 C1380.19,975.59 1353.1,967.69 1353.1,969.27 Z" id="Path" fill="#000000" fill-rule="nonzero" opacity="0.1"></path>
                <rect id="Rectangle" fill="#46455B" fill-rule="nonzero" x="671.5" y="899" width="603" height="138.5"></rect>
                <polygon id="Path" fill="#46455B" fill-rule="nonzero" points="675.5 755.5 618.5 798.5 662.5 838.5 687.5 798.5 721.5 755.5"></polygon>
                <polygon id="Path" fill="#46455B" fill-rule="nonzero" points="1264.5 807.5 1256.5 798.5 1205.5 769.5 1252.5 768.5 1325.5 798.5 1295.5 817.5"></polygon>
                <polygon id="Path" fill="#46455B" fill-rule="nonzero" points="671.5 809.5 721.5 755.5 721.5 879.5 687.5 907.5 666.5 878.5"></polygon>
                <polygon id="Path" fill="#46455B" fill-rule="nonzero" points="1265.5 831.5 1256.5 798.5 1239.5 776.5 1205.5 769.5 1205.5 907.5 1274.5 907.5"></polygon>
                <path d="M732.55,718.5 L1199.45,718.5 C1208.03803,718.5 1215,725.461972 1215,734.05 L1215,876.5 L717,876.5 L717,734.05 C717,725.461972 723.961972,718.5 732.55,718.5 Z" id="Path" fill="#46455B" fill-rule="nonzero"></path>
                <polygon id="Path" fill="#46455B" fill-rule="nonzero" points="687.5 907.5 721.5 865.5 1205.5 865.5 1256.5 907.5"></polygon>
                <polygon id="Path" fill="#000000" fill-rule="nonzero" opacity="0.05" points="687.5 907.5 721.5 865.5 1205.5 865.5 1256.5 907.5"></polygon>
                <rect id="Rectangle" fill="#46455B" fill-rule="nonzero" x="618.5" y="798.5" width="69" height="239"></rect>
                <rect id="Rectangle" fill="#FFFFFF" fill-rule="nonzero" opacity="0.05" x="618.5" y="798.5" width="69" height="239"></rect>
                <rect id="Rectangle" fill="#46455B" fill-rule="nonzero" x="1256.5" y="798.5" width="69" height="239"></rect>
                <rect id="Rectangle" fill="#FFFFFF" fill-rule="nonzero" opacity="0.05" x="1256.5" y="798.5" width="69" height="239"></rect>
                <ellipse id="Oval" fill="#2F2E41" fill-rule="nonzero" cx="905" cy="648.5" rx="80" ry="105.5"></ellipse>
                <rect id="Rectangle" fill="#2F2E41" fill-rule="nonzero" x="851" y="603" width="89" height="124"></rect>
                <rect id="Rectangle" fill="#000000" fill-rule="nonzero" opacity="0.1" x="851" y="603" width="89" height="124"></rect>
                <path d="M857.46,675.72 C851.800986,682.612154 843.012716,686.135006 834.16,685.06 C833.76,691.28 837.98,696.74 841.97,701.53 L873.2,739 C873.450467,739.605281 874.017999,740.02 874.670763,740.074748 C875.323527,740.129496 875.95221,739.815104 876.3,739.26 L924,694.01 C919.24,696.01 913.61,692.84 911,688.38 C908.39,683.92 908.13,678.56 907.89,673.38 C907.543333,665.646667 907.21,657.92 906.89,650.2 C906.81,648.48 906.64,646.58 905.37,645.42 C904.381944,644.676251 903.20274,644.228846 901.97,644.13 C894.44,642.84 870.97,636.13 866.62,644.05 C864.62,647.66 865.52,654.7 864.62,658.78 C863.27,664.83 861.36,670.86 857.46,675.72 Z" id="Path" fill="#FBBEBE" fill-rule="nonzero"></path>
                <path d="M857.46,675.72 C851.800986,682.612154 843.012716,686.135006 834.16,685.06 C833.76,691.28 837.98,696.74 841.97,701.53 L873.2,739 C873.450467,739.605281 874.017999,740.02 874.670763,740.074748 C875.323527,740.129496 875.95221,739.815104 876.3,739.26 L924,694.01 C919.24,696.01 913.61,692.84 911,688.38 C908.39,683.92 908.13,678.56 907.89,673.38 C907.543333,665.646667 907.21,657.92 906.89,650.2 C906.81,648.48 906.64,646.58 905.37,645.42 C904.381944,644.676251 903.20274,644.228846 901.97,644.13 C894.44,642.84 870.97,636.13 866.62,644.05 C864.62,647.66 865.52,654.7 864.62,658.78 C863.27,664.83 861.36,670.86 857.46,675.72 Z" id="Path" fill="#000000" fill-rule="nonzero" opacity="0.1"></path>
                <circle id="Oval" fill="#FBBEBE" fill-rule="nonzero" cx="892" cy="621" r="47"></circle>
                <path d="M875,715.64 L867.46,691.87 C864.46,682.35 860.2,671.56 850.7,668.49 C844.7,666.57 838.23,668.33 831.98,667.8 C819.82,666.75 807.98,657.08 796.61,661.51 C782.61,666.95 782.73,688.45 770.3,696.89 C770.3,716.98 776.79,735.64 780.3,755.41 C783.81,775.18 784.82,796.52 775.66,814.41 C771.78,821.99 766.23,828.59 762.09,836.03 C755.303092,848.298492 752.526619,862.383671 754.15,876.31 C807.23,876.976667 860.316667,877.136667 913.41,876.79 C912.92,869.91 909.85,863.13 909.35,856.25 C909.050286,854.173242 909.214211,852.055881 909.83,850.05 C911,847.05 913.98,845.26 916.53,843.31 C919.94639,840.677104 922.839576,837.427781 925.06,833.73 C928.6,827.84 930.28,821.05 931.92,814.37 L951.8,733.37 C954.17,723.72 956.47,713.19 952.35,704.15 C947.83,694.22 936.99,689.06 926.98,684.71 C920.98,682.08 914.08,679.42 907.98,681.84 C902.98,683.84 899.84,688.63 896.68,692.97 C890.566445,701.517773 883.266456,709.15111 875,715.64 L875,715.64 Z" id="Path" fill="#F86D70" fill-rule="nonzero"></path>
                <path d="M769.77,704.02 C768.21,709.86 769.08,716.1 767.93,722.02 C766,731.93 758.77,739.81 753.93,748.65 C746.429076,762.377172 744.529845,778.474045 748.63,793.57 C749.85,797.98 752.02,802.7 756.3,804.32 C759.36,805.49 762.78,804.76 766.05,805.05 C770.37,805.43 774.86,807.57 778.85,805.87 C783.78,803.77 784.76,797.36 785.3,792.03 C786.544354,779.669484 789.205145,767.492928 793.23,755.74 C797.23,743.98 802.72,732.31 802.64,719.88 C802.58,711.12 791.36,719.18 784.04,713.99 C775.78,708.17 772.48,693.93 769.77,704.02 Z" id="Path" fill="#000000" fill-rule="nonzero" opacity="0.1"></path>
                <path d="M767.77,703.02 C766.21,708.86 767.08,715.1 765.93,721.02 C764,730.93 756.77,738.81 751.93,747.65 C744.429076,761.377172 742.529845,777.474045 746.63,792.57 C747.85,796.98 750.02,801.7 754.3,803.32 C757.36,804.49 760.78,803.76 764.05,804.05 C768.37,804.43 772.86,806.57 776.85,804.87 C781.78,802.77 782.76,796.36 783.3,791.03 C784.544354,778.669484 787.205145,766.492928 791.23,754.74 C795.23,742.98 800.72,731.31 800.64,718.88 C800.58,710.12 796.73,700.44 789.41,695.25 C781.15,689.43 770.48,692.93 767.77,703.02 Z" id="Path" fill="#F86D70" fill-rule="nonzero"></path>
                <path d="M869.69641,764.570003 L804.616676,764.570003 C803.363787,764.571373 802.271473,763.60914 801.969189,762.2378 L798.23156,745.385447 C798.032697,744.467462 798.218019,743.497317 798.734398,742.753134 C799.250778,742.008951 800.041192,741.572906 800.879047,741.570003 L873.425387,741.570003 C874.26446,741.569086 875.057134,742.004141 875.574262,742.749403 C876.09139,743.494665 876.275317,744.467046 876.072874,745.385447 L872.335245,762.2378 C872.036502,763.607626 870.947146,764.570399 869.69641,764.570003 Z" id="Path" fill="#3F3D56" fill-rule="nonzero"></path>
                <circle id="Oval" fill="#BBBDC8" fill-rule="nonzero" cx="818.97" cy="692.14" r="4"></circle>
                <circle id="Oval" fill="#BBBDC8" fill-rule="nonzero" cx="861.62" cy="672.39" r="4"></circle>
                <circle id="Oval" fill="#BBBDC8" fill-rule="nonzero" cx="839.14" cy="735.7" r="4"></circle>
                <circle id="Oval" fill="#BBBDC8" fill-rule="nonzero" cx="881.79" cy="715.95" r="4"></circle>
                <path d="M777.29,760.84 C781.29,759.69 785.5,758.43 788.44,755.48 C790.72,753.18 791.99,750.09 793.59,747.27 C796.78,741.64 801.83,736.65 808.18,735.41 C814.53,734.17 821.99,737.84 823.35,744.17 C824.23,748.29 822.51,752.48 820.8,756.34 C818.24,762.12 815.35,768.18 810.07,771.67 C805.45,774.72 799.56,775.39 795.02,778.56 C791.02,781.36 788.5,785.79 785.02,789.24 C780.470687,793.720262 774.453271,796.402168 768.08,796.79 C767.112293,796.904452 766.131383,796.770223 765.23,796.4 C764.347008,795.876855 763.605443,795.145589 763.07,794.27 C760.13,790.27 757.15,786.15 755.59,781.42 C750.16,764.93 765.53,764.21 777.29,760.84 Z" id="Path" fill="#FBBEBE" fill-rule="nonzero"></path>
                <path d="M883.83,763.04 C882.48,754.98 882.3,746.19 877.32,739.71 C873.15,734.3 866.22,731.56 859.4,731.1 C857.4,730.96 855.05,731.16 853.89,732.8 C853.229493,733.957243 852.966074,735.298928 853.14,736.62 C853.561865,746.86181 857.382952,756.671378 864,764.5 C866.49,767.42 869.38,770.08 871.12,773.5 C872.64,776.45 873.2,779.82 874.61,782.82 C876.45,786.73 879.61,789.82 882.03,793.42 C885.461013,798.57708 887.239944,804.656839 887.13,810.85 C889.77,806.54 889.45,801.15 889.7,796.1 C890.03,788.99 895.01,785.1 891.78,779.3 C888.55,773.5 885,770.09 883.83,763.04 Z" id="Path" fill="#FBBEBE" fill-rule="nonzero"></path>
                <path d="M920.74,755.01 C918.21,761.61 916.91,768.67 913.93,775.08 C913.144252,777.085022 911.797127,778.821008 910.05,780.08 C906.85,782.08 902.62,780.84 899.44,778.85 C896.26,776.86 893.44,774.12 889.97,772.8 C888.41,787.99 875.79,801.36 860.71,803.8 C869.71,812.07 879.19,821.26 881.22,833.3 C881.6,835.51 881.73,837.86 882.91,839.77 C884.81,842.82 888.82,843.82 892.42,843.77 C901.57,843.7 909.96,838.87 917.6,833.77 C920.18,832.07 922.79,830.25 924.51,827.69 C926.23,825.13 926.97,821.88 927.62,818.78 C932.04,797.773333 936.456667,776.756667 940.87,755.73 C942.07,750.02 941.87,738.8 933.01,739.93 C927,740.81 922.6,750.18 920.74,755.01 Z" id="Path" fill="#000000" fill-rule="nonzero" opacity="0.1"></path>
                <path d="M922.74,755.01 C920.21,761.61 918.91,768.67 915.93,775.08 C915.144252,777.085022 913.797127,778.821008 912.05,780.08 C908.85,782.08 904.62,780.84 901.44,778.85 C898.26,776.86 895.44,774.12 891.97,772.8 C890.41,787.99 877.79,801.36 862.71,803.8 C871.71,812.07 881.19,821.26 883.22,833.3 C883.6,835.51 883.73,837.86 884.91,839.77 C886.81,842.82 890.82,843.82 894.42,843.77 C903.57,843.7 911.96,838.87 919.6,833.77 C922.18,832.07 924.79,830.25 926.51,827.69 C928.23,825.13 928.97,821.88 929.62,818.78 C934.04,797.773333 938.456667,776.756667 942.87,755.73 C944.07,750.02 943.87,738.8 935.01,739.93 C929,740.81 924.6,750.18 922.74,755.01 Z" id="Path" fill="#F86D70" fill-rule="nonzero"></path>
                <path d="M776.86,794.01 C776.5,795.84 774.69,796.95 773.05,797.83 C769.88,799.54 766.43,801.31 762.86,800.83 C759.29,800.35 756.3,797.71 753.96,794.91 C752.794286,793.577938 751.787517,792.114767 750.96,790.55 C747.35,783.42 746.96,753.08 761.88,762.98 C768.04,767.08 764.57,774.08 765.34,780.11 C765.676746,783.686153 767.104548,787.072384 769.43,789.81 C769.88,790.33 776.63,795.19 776.86,794.01 Z" id="Path" fill="#F86D70" fill-rule="nonzero"></path>
                <ellipse id="Oval" fill="#2F2E41" fill-rule="nonzero" cx="904.5" cy="589" rx="44.5" ry="21"></ellipse>
                <path d="M906.5,603 C882.42,603 862.83,594 862.04,582.7 C860.762523,584.554804 860.066274,586.747989 860.04,589 C860.04,600.6 879.96,610 904.54,610 C929.12,610 949.04,600.6 949.04,589 C949.04,588.76 949.04,588.53 949.04,588.3 C943.29,596.82 926.43,603 906.5,603 Z" id="Path" fill="#000000" fill-rule="nonzero" opacity="0.1"></path>
                <ellipse id="Oval" fill="#2F2E41" fill-rule="nonzero" cx="1100" cy="652" rx="110" ry="100"></ellipse>
                <path d="M1100,726 C1044.29,726 998.25,688.34 991,639.5 C990.337963,643.9696 990.003738,648.481637 990,653 C990,708.23 1039.25,753 1100,753 C1160.75,753 1210,708.23 1210,653 C1209.99626,648.481637 1209.66204,643.9696 1209,639.5 C1201.75,688.34 1155.71,726 1100,726 Z" id="Path" fill="#000000" fill-rule="nonzero" opacity="0.1"></path>
                <ellipse id="Oval" fill="#2F2E41" fill-rule="nonzero" cx="1098" cy="655.5" rx="53" ry="71.5"></ellipse>
                <ellipse id="Oval" fill="#000000" fill-rule="nonzero" opacity="0.1" cx="1098" cy="655.5" rx="53" ry="71.5"></ellipse>
                <path d="M1073.63,691.74 C1071.63,696.68 1067.63,701.93 1061.63,702.31 C1069.63,708.88 1077.73,715.52 1087.29,720.31 C1096.85,725.1 1108.17,727.91 1119.05,726.19 C1126.73,724.98 1133.71,721.61 1140.23,717.92 C1151.33,711.64 1162.23,703.39 1165.04,692.21 C1156.70578,692.628606 1148.3526,692.471566 1140.04,691.74 C1135.73,691.37 1131.32,690.8 1127.58,688.92 C1122.94159,686.471531 1119.49008,682.251819 1118.01,677.22 C1116.52,672.5 1116.55,667.53 1116.82,662.64 C1116.97,659.79 1117.08,656.64 1114.89,654.46 C1112.7,652.28 1109.08,651.99 1105.79,651.92 C1099.17277,651.785667 1092.55531,652.176896 1086,653.09 C1082.56124,653.446733 1079.1547,654.065193 1075.81,654.94 C1071.47,656.26 1071.88,655.75 1072.93,659.38 C1076.19,670.5 1078.18,680.5 1073.63,691.74 Z" id="Path" fill="#A0616A" fill-rule="nonzero"></path>
                <path d="M1073.63,691.74 C1071.63,696.68 1067.63,701.93 1061.63,702.31 C1069.63,708.88 1077.73,715.52 1087.29,720.31 C1096.85,725.1 1108.17,727.91 1119.05,726.19 C1126.73,724.98 1133.71,721.61 1140.23,717.92 C1151.33,711.64 1162.23,703.39 1165.04,692.21 C1156.70578,692.628606 1148.3526,692.471566 1140.04,691.74 C1135.73,691.37 1131.32,690.8 1127.58,688.92 C1122.94159,686.471531 1119.49008,682.251819 1118.01,677.22 C1116.52,672.5 1116.55,667.53 1116.82,662.64 C1116.97,659.79 1117.08,656.64 1114.89,654.46 C1112.7,652.28 1109.08,651.99 1105.79,651.92 C1099.17277,651.785667 1092.55531,652.176896 1086,653.09 C1082.56124,653.446733 1079.1547,654.065193 1075.81,654.94 C1071.47,656.26 1071.88,655.75 1072.93,659.38 C1076.19,670.5 1078.18,680.5 1073.63,691.74 Z" id="Path" fill="#000000" fill-rule="nonzero" opacity="0.1"></path>
                <circle id="Oval" fill="#A0616A" fill-rule="nonzero" cx="1096.5" cy="634.5" r="47"></circle>
                <path d="M1080.3,695.88 C1077.23,692.2 1074.07,688.44 1069.98,685.94 C1063.28,681.83 1054.98,681.57 1047.13,681.44 C1038.62,681.29 1029.37,681.37 1022.64,686.58 C1019.64,688.93 1017.34,692.15 1015.15,695.31 L986.64,736.31 C985.53,737.91 984.36,739.72 984.64,741.65 C984.958917,743.038908 985.650363,744.314626 986.64,745.34 L1018,784.5 C1019.79,786.73 1021.64,789.08 1022.24,791.88 C1022.84,794.68 1022.1,797.62 1021.14,800.34 C1017.35,811.13 1010.14,821.34 1010.8,832.71 C1011.27,840.13 1015.15,846.95 1019.9,852.71 C1030.8,865.84 1046.49,874.38 1062.9,879.04 C1079.31,883.7 1096.54,884.72 1113.61,884.83 C1145.79,885.04 1179.61,881.53 1206.19,863.38 L1185.3,843.7 C1181.17,839.8 1176.84,835.6 1175.41,830.1 C1174.41,826.4 1174.89,822.5 1175.34,818.71 C1176.18,811.78 1177.02,804.8 1179.26,798.2 C1185.49,779.81 1201.5,766.72 1212.18,750.51 C1213.52,748.51 1214.82,746.21 1214.67,743.78 C1214.55,741.73 1213.41,739.9 1212.3,738.18 C1207.42,730.61 1202.36,723.08 1198.82,714.8 C1196.18,708.64 1194.39,702.09 1191.12,696.24 C1187.85,690.39 1182.66,685.13 1176.12,683.9 C1167.7,682.32 1159.49,687.59 1150.94,687.95 C1144.68,688.22 1138.15,685.87 1132.3,688.1 C1125.36,690.75 1122.3,698.57 1118.41,704.92 C1115.54,709.65 1106.98,722.59 1100.27,719.41 C1096.62,717.67 1093.27,711.41 1090.65,708.34 L1080.3,695.88 Z" id="Path" fill="#F98A8D" fill-rule="nonzero"></path>
                <path d="M1117.74,727.67 C1116.15588,726.776733 1114.31622,726.445453 1112.52,726.73 C1110.69523,727.080089 1109.33572,728.616205 1109.21,730.47 L1106.32,730.3 C1105.98609,730.264587 1105.64871,730.281457 1105.32,730.35 C1104.45015,730.537777 1103.89722,731.395152 1104.085,732.265 C1104.27278,733.134848 1105.13015,733.687777 1106,733.5 C1104.58156,734.062417 1103.3169,734.953511 1102.31,736.1 C1100.73954,738.461182 1101.36415,741.646722 1103.71,743.24 C1106.15714,744.646922 1109.26887,744.012574 1110.97,741.76 C1110.62125,742.993546 1111.21264,744.298833 1112.37,744.85 C1117.79,747.78 1120.55,743.8 1121.29,739.19 C1122.13,734.13 1123.21,730.37 1117.74,727.67 Z" id="Path" fill="#FFE9B3" fill-rule="nonzero"></path>
                <path d="M1117.74,727.67 C1116.15588,726.776733 1114.31622,726.445453 1112.52,726.73 C1110.69523,727.080089 1109.33572,728.616205 1109.21,730.47 L1106.32,730.3 C1105.98609,730.264587 1105.64871,730.281457 1105.32,730.35 C1104.45015,730.537777 1103.89722,731.395152 1104.085,732.265 C1104.27278,733.134848 1105.13015,733.687777 1106,733.5 C1104.58156,734.062417 1103.3169,734.953511 1102.31,736.1 C1100.73954,738.461182 1101.36415,741.646722 1103.71,743.24 C1106.15714,744.646922 1109.26887,744.012574 1110.97,741.76 C1110.62125,742.993546 1111.21264,744.298833 1112.37,744.85 C1117.79,747.78 1120.55,743.8 1121.29,739.19 C1122.13,734.13 1123.21,730.37 1117.74,727.67 Z" id="Path" fill="#000000" fill-rule="nonzero" opacity="0.15"></path>
                <path d="M1132.5,724.27 C1130.91631,723.375634 1129.07513,723.047609 1127.28,723.34 C1125.45705,723.683444 1124.09871,725.218779 1123.98,727.07 L1121.09,726.9 C1120.75606,726.865707 1120.41885,726.882568 1120.09,726.95 C1119.28057,727.204333 1118.7932,728.02811 1118.96,728.86 C1119.18038,729.681615 1119.99238,730.198342 1120.83,730.05 C1119.41283,730.614762 1118.14868,731.505496 1117.14,732.65 C1115.57528,735.012323 1116.19904,738.193498 1118.54,739.79 C1120.98779,741.200379 1124.10246,740.57059 1125.81,738.32 C1125.46091,739.548213 1126.04805,740.849205 1127.2,741.4 C1132.63,744.34 1135.38,740.4 1136.13,735.75 C1136.9,730.73 1138,726.97 1132.5,724.27 Z" id="Path" fill="#FFE9B3" fill-rule="nonzero"></path>
                <path d="M1144.54,725.99 C1142.95914,725.097901 1141.12188,724.769946 1139.33,725.06 C1137.50311,725.39939 1136.13977,726.935712 1136.02,728.79 L1133.13,728.62 C1132.7961,728.584423 1132.45869,728.601294 1132.13,728.67 C1131.32057,728.924333 1130.8332,729.74811 1131,730.58 C1131.22038,731.401615 1132.03238,731.918342 1132.87,731.77 C1131.45009,732.329691 1130.18482,733.221208 1129.18,734.37 C1127.60954,736.731182 1128.23415,739.916722 1130.58,741.51 C1133.02397,742.923774 1136.13851,742.293144 1137.84,740.04 C1137.4924,741.270756 1138.08416,742.572626 1139.24,743.12 C1144.66,746.06 1147.41,742.07 1148.16,737.47 C1148.94,732.5 1150,728.69 1144.54,725.99 Z" id="Path" fill="#FFE9B3" fill-rule="nonzero"></path>
                <path d="M1144.54,725.99 C1142.95914,725.097901 1141.12188,724.769946 1139.33,725.06 C1137.50311,725.39939 1136.13977,726.935712 1136.02,728.79 L1133.13,728.62 C1132.7961,728.584423 1132.45869,728.601294 1132.13,728.67 C1131.32057,728.924333 1130.8332,729.74811 1131,730.58 C1131.22038,731.401615 1132.03238,731.918342 1132.87,731.77 C1131.45009,732.329691 1130.18482,733.221208 1129.18,734.37 C1127.60954,736.731182 1128.23415,739.916722 1130.58,741.51 C1133.02397,742.923774 1136.13851,742.293144 1137.84,740.04 C1137.4924,741.270756 1138.08416,742.572626 1139.24,743.12 C1144.66,746.06 1147.41,742.07 1148.16,737.47 C1148.94,732.5 1150,728.69 1144.54,725.99 Z" id="Path" fill="#000000" fill-rule="nonzero" opacity="0.15"></path>
                <path d="M1174,733 L1174,840.42 C1173.99452,841.842618 1172.84262,842.994518 1171.42,843 L1087.58,843 C1086.15738,842.994518 1085.00548,841.842618 1085,840.42 L1085,733 C1084.99847,732.129306 1085.43621,731.316577 1086.16407,730.838733 C1086.89193,730.360888 1087.8117,730.282396 1088.61,730.63 C1090.74333,731.55 1092.87333,732.4 1095,733.18 C1098,734.28 1101,735.236667 1104,736.05 C1107,736.86 1110,737.53 1113,738.05 C1116,738.57 1119,738.97 1122,739.21 C1125,739.45 1128,739.55 1131,739.49 C1134,739.43 1137,739.26 1140,738.93 C1143,738.6 1146,738.11 1149,737.48 C1152,736.85 1155,736.11 1158,735.2 C1160.33,734.49 1162.67,733.7 1165,732.82 C1166.8,732.15 1168.59,731.42 1170.39,730.64 C1171.18667,730.293103 1172.10445,730.370528 1172.83175,730.845991 C1173.55905,731.321454 1173.99815,732.13108 1174,733 L1174,733 Z" id="Path" fill="#BBBDC8" fill-rule="nonzero"></path>
                <path d="M1104,736.05 L1104,843.05 L1095,843.05 L1095,733.18 C1098,734.28 1101,735.236667 1104,736.05 Z" id="Path" fill="#FFFFFF" fill-rule="nonzero"></path>
                <path d="M1122,739.2 L1122,843 L1113,843 L1113,738 C1116,738.58 1119,738.96 1122,739.2 Z" id="Path" fill="#FFFFFF" fill-rule="nonzero"></path>
                <path d="M1140,738.92 L1140,843 L1131,843 L1131,739.5 C1134,739.446667 1137,739.253333 1140,738.92 Z" id="Path" fill="#FFFFFF" fill-rule="nonzero"></path>
                <path d="M1158,735.19 L1158,843 L1149,843 L1149,737.5 C1152,736.873333 1155,736.103333 1158,735.19 Z" id="Path" fill="#FFFFFF" fill-rule="nonzero"></path>
                <path d="M1174,733 L1174,840.42 C1173.99452,841.842618 1172.84262,842.994518 1171.42,843 L1165,843 L1165,732.81 C1166.8,732.14 1168.59,731.41 1170.39,730.63 C1171.1883,730.282396 1172.10807,730.360888 1172.83593,730.838733 C1173.56379,731.316577 1174.00153,732.129306 1174,733 Z" id="Path" fill="#000000" fill-rule="nonzero" opacity="0.1"></path>
                <path d="M1108.41,722.55 C1106.82914,721.657901 1104.99188,721.329946 1103.2,721.62 C1101.37311,721.95939 1100.00977,723.495712 1099.89,725.35 L1097,725.18 C1096.6661,725.144423 1096.32869,725.161294 1096,725.23 C1095.19057,725.484333 1094.7032,726.30811 1094.87,727.14 C1095.09038,727.961615 1095.90238,728.478342 1096.74,728.33 C1095.32009,728.889691 1094.05482,729.781208 1093.05,730.93 C1091.47954,733.291182 1092.10415,736.476722 1094.45,738.07 C1096.89474,739.479073 1100.00597,738.849112 1101.71,736.6 C1101.3624,737.830756 1101.95416,739.132626 1103.11,739.68 C1108.53,742.61 1111.28,738.63 1112.03,734.03 C1112.81,729.01 1113.89,725.25 1108.41,722.55 Z" id="Path" fill="#FFE9B3" fill-rule="nonzero"></path>
                <path d="M1123.41,705.55 C1121.82914,704.657901 1119.99188,704.329946 1118.2,704.62 C1116.37311,704.95939 1115.00977,706.495712 1114.89,708.35 L1112,708.18 C1111.6661,708.144423 1111.32869,708.161294 1111,708.23 C1110.19057,708.484333 1109.7032,709.30811 1109.87,710.14 C1110.09038,710.961615 1110.90238,711.478342 1111.74,711.33 C1110.32009,711.889691 1109.05482,712.781208 1108.05,713.93 C1106.47954,716.291182 1107.10415,719.476722 1109.45,721.07 C1111.89474,722.479073 1115.00597,721.849112 1116.71,719.6 C1116.3624,720.830756 1116.95416,722.132626 1118.11,722.68 C1123.53,725.61 1126.28,721.63 1127.03,717.03 C1127.81,712.01 1128.89,708.25 1123.41,705.55 Z" id="Path" fill="#FFE9B3" fill-rule="nonzero"></path>
                <path d="M1133.6,728.64 C1134.78633,727.26069 1135.46709,725.518218 1135.53,723.7 C1135.56701,721.836015 1134.32979,720.186385 1132.53,719.7 L1133.26,716.9 C1133.36622,716.577555 1133.41694,716.239419 1133.41,715.9 C1133.37686,715.021867 1132.63813,714.336863 1131.76,714.37 C1130.88187,714.403137 1130.19686,715.141867 1130.23,716.02 C1129.95679,714.520535 1129.32938,713.108013 1128.4,711.9 C1126.38241,709.907313 1123.13759,709.907313 1121.12,711.9 C1119.25222,714.016902 1119.25222,717.193098 1121.12,719.31 C1119.97685,718.731504 1118.58318,719.060917 1117.82,720.09 C1113.89,724.83 1117.26,728.31 1121.63,729.94 C1126.41,731.7 1129.89,733.5 1133.6,728.64 Z" id="Path" fill="#FFE9B3" fill-rule="nonzero"></path>
                <path d="M1146.6,728.64 C1147.78633,727.26069 1148.46709,725.518218 1148.53,723.7 C1148.56701,721.836015 1147.32979,720.186385 1145.53,719.7 L1146.26,716.9 C1146.36622,716.577555 1146.41694,716.239419 1146.41,715.9 C1146.37686,715.021867 1145.63813,714.336863 1144.76,714.37 C1143.88187,714.403137 1143.19686,715.141867 1143.23,716.02 C1142.95679,714.520535 1142.32938,713.108013 1141.4,711.9 C1139.38241,709.907313 1136.13759,709.907313 1134.12,711.9 C1132.25222,714.016902 1132.25222,717.193098 1134.12,719.31 C1132.97685,718.731504 1131.58318,719.060917 1130.82,720.09 C1126.89,724.83 1130.26,728.31 1134.63,729.94 C1139.41,731.7 1142.89,733.5 1146.6,728.64 Z" id="Path" fill="#FFE9B3" fill-rule="nonzero"></path>
                <path d="M1154.74,737.19 C1155.65622,735.617624 1156.00895,733.779856 1155.74,731.98 C1155.41646,730.14938 1153.89366,728.770629 1152.04,728.63 L1152.25,725.75 C1152.3008,725.418602 1152.3008,725.081398 1152.25,724.75 C1152.05394,723.893959 1151.20104,723.358939 1150.345,723.555 C1149.48896,723.751061 1148.95394,724.603959 1149.15,725.46 C1148.6002,724.0364 1147.72325,722.762083 1146.59,721.74 C1144.24442,720.145718 1141.05287,720.734103 1139.43,723.06 C1137.99374,725.492442 1138.59399,728.613763 1140.83,730.34 C1139.60095,729.981206 1138.2921,730.559632 1137.73,731.71 C1134.73,737.1 1138.73,739.9 1143.29,740.71 C1148.24,741.5 1152,742.63 1154.74,737.19 Z" id="Path" fill="#FFE9B3" fill-rule="nonzero"></path>
                <path d="M1114.74,721.19 C1115.65622,719.617624 1116.00895,717.779856 1115.74,715.98 C1115.41646,714.14938 1113.89366,712.770629 1112.04,712.63 L1112.25,709.75 C1112.3008,709.418602 1112.3008,709.081398 1112.25,708.75 C1112.05394,707.893959 1111.20104,707.358939 1110.345,707.555 C1109.48896,707.751061 1108.95394,708.603959 1109.15,709.46 C1108.6002,708.0364 1107.72325,706.762083 1106.59,705.74 C1104.24442,704.145718 1101.05287,704.734103 1099.43,707.06 C1097.99374,709.492442 1098.59399,712.613763 1100.83,714.34 C1099.60095,713.981206 1098.2921,714.559632 1097.73,715.71 C1094.73,721.1 1098.73,723.9 1103.29,724.71 C1108.24,725.5 1112,726.63 1114.74,721.19 Z" id="Path" fill="#FFE9B3" fill-rule="nonzero"></path>
                <path d="M1118.74,715.67 C1117.15588,714.776733 1115.31622,714.445453 1113.52,714.73 C1111.69523,715.080089 1110.33572,716.616205 1110.21,718.47 L1107.32,718.3 C1106.98609,718.264587 1106.64871,718.281457 1106.32,718.35 C1105.45015,718.537777 1104.89722,719.395152 1105.085,720.265 C1105.27278,721.134848 1106.13015,721.687777 1107,721.5 C1105.58156,722.062417 1104.3169,722.953511 1103.31,724.1 C1101.73954,726.461182 1102.36415,729.646722 1104.71,731.24 C1107.15714,732.646922 1110.26887,732.012574 1111.97,729.76 C1111.62125,730.993546 1112.21264,732.298833 1113.37,732.85 C1118.79,735.78 1121.55,731.8 1122.29,727.19 C1123.13,722.13 1124.21,718.37 1118.74,715.67 Z" id="Path" fill="#FFE9B3" fill-rule="nonzero"></path>
                <path d="M1118.74,715.67 C1117.15588,714.776733 1115.31622,714.445453 1113.52,714.73 C1111.69523,715.080089 1110.33572,716.616205 1110.21,718.47 L1107.32,718.3 C1106.98609,718.264587 1106.64871,718.281457 1106.32,718.35 C1105.45015,718.537777 1104.89722,719.395152 1105.085,720.265 C1105.27278,721.134848 1106.13015,721.687777 1107,721.5 C1105.58156,722.062417 1104.3169,722.953511 1103.31,724.1 C1101.73954,726.461182 1102.36415,729.646722 1104.71,731.24 C1107.15714,732.646922 1110.26887,732.012574 1111.97,729.76 C1111.62125,730.993546 1112.21264,732.298833 1113.37,732.85 C1118.79,735.78 1121.55,731.8 1122.29,727.19 C1123.13,722.13 1124.21,718.37 1118.74,715.67 Z" id="Path" fill="#000000" fill-rule="nonzero" opacity="0.15"></path>
                <path d="M1161.75,719.11 C1160.16631,718.215634 1158.32513,717.887609 1156.53,718.18 C1154.70495,718.522656 1153.34324,720.057158 1153.22,721.91 L1150.34,721.74 C1150.00607,721.705392 1149.66881,721.722255 1149.34,721.79 C1148.53057,722.044333 1148.0432,722.86811 1148.21,723.7 C1148.43038,724.521615 1149.24238,725.038342 1150.08,724.89 C1148.66283,725.454762 1147.39868,726.345496 1146.39,727.49 C1144.82528,729.852323 1145.44904,733.033498 1147.79,734.63 C1150.23474,736.039073 1153.34597,735.409112 1155.05,733.16 C1154.7024,734.390756 1155.29416,735.692626 1156.45,736.24 C1161.87,739.17 1164.63,735.19 1165.37,730.58 C1166.14,725.57 1167.22,721.81 1161.75,719.11 Z" id="Path" fill="#FFE9B3" fill-rule="nonzero"></path>
                <path d="M1161.75,719.11 C1160.16631,718.215634 1158.32513,717.887609 1156.53,718.18 C1154.70495,718.522656 1153.34324,720.057158 1153.22,721.91 L1150.34,721.74 C1150.00607,721.705392 1149.66881,721.722255 1149.34,721.79 C1148.53057,722.044333 1148.0432,722.86811 1148.21,723.7 C1148.43038,724.521615 1149.24238,725.038342 1150.08,724.89 C1148.66283,725.454762 1147.39868,726.345496 1146.39,727.49 C1144.82528,729.852323 1145.44904,733.033498 1147.79,734.63 C1150.23474,736.039073 1153.34597,735.409112 1155.05,733.16 C1154.7024,734.390756 1155.29416,735.692626 1156.45,736.24 C1161.87,739.17 1164.63,735.19 1165.37,730.58 C1166.14,725.57 1167.22,721.81 1161.75,719.11 Z" id="Path" fill="#000000" fill-rule="nonzero" opacity="0.15"></path>
                <path d="M1135.75,702.11 C1134.16631,701.215634 1132.32513,700.887609 1130.53,701.18 C1128.70495,701.522656 1127.34324,703.057158 1127.22,704.91 L1124.34,704.74 C1124.00607,704.705392 1123.66881,704.722255 1123.34,704.79 C1122.53057,705.044333 1122.0432,705.86811 1122.21,706.7 C1122.43038,707.521615 1123.24238,708.038342 1124.08,707.89 C1122.66283,708.454762 1121.39868,709.345496 1120.39,710.49 C1118.82528,712.852323 1119.44904,716.033498 1121.79,717.63 C1124.23474,719.039073 1127.34597,718.409112 1129.05,716.16 C1128.7024,717.390756 1129.29416,718.692626 1130.45,719.24 C1135.87,722.17 1138.63,718.19 1139.37,713.58 C1140.14,708.57 1141.22,704.81 1135.75,702.11 Z" id="Path" fill="#FFE9B3" fill-rule="nonzero"></path>
                <path d="M1135.75,702.11 C1134.16631,701.215634 1132.32513,700.887609 1130.53,701.18 C1128.70495,701.522656 1127.34324,703.057158 1127.22,704.91 L1124.34,704.74 C1124.00607,704.705392 1123.66881,704.722255 1123.34,704.79 C1122.53057,705.044333 1122.0432,705.86811 1122.21,706.7 C1122.43038,707.521615 1123.24238,708.038342 1124.08,707.89 C1122.66283,708.454762 1121.39868,709.345496 1120.39,710.49 C1118.82528,712.852323 1119.44904,716.033498 1121.79,717.63 C1124.23474,719.039073 1127.34597,718.409112 1129.05,716.16 C1128.7024,717.390756 1129.29416,718.692626 1130.45,719.24 C1135.87,722.17 1138.63,718.19 1139.37,713.58 C1140.14,708.57 1141.22,704.81 1135.75,702.11 Z" id="Path" fill="#000000" fill-rule="nonzero" opacity="0.15"></path>
                <path d="M1115.75,696.11 C1114.16631,695.215634 1112.32513,694.887609 1110.53,695.18 C1108.70495,695.522656 1107.34324,697.057158 1107.22,698.91 L1104.34,698.74 C1104.00607,698.705392 1103.66881,698.722255 1103.34,698.79 C1102.53057,699.044333 1102.0432,699.86811 1102.21,700.7 C1102.43038,701.521615 1103.24238,702.038342 1104.08,701.89 C1102.66283,702.454762 1101.39868,703.345496 1100.39,704.49 C1098.82528,706.852323 1099.44904,710.033498 1101.79,711.63 C1104.23474,713.039073 1107.34597,712.409112 1109.05,710.16 C1108.7024,711.390756 1109.29416,712.692626 1110.45,713.24 C1115.87,716.17 1118.63,712.19 1119.37,707.58 C1120.14,702.57 1121.22,698.81 1115.75,696.11 Z" id="Path" fill="#FFE9B3" fill-rule="nonzero"></path>
                <path d="M1115.75,696.11 C1114.16631,695.215634 1112.32513,694.887609 1110.53,695.18 C1108.70495,695.522656 1107.34324,697.057158 1107.22,698.91 L1104.34,698.74 C1104.00607,698.705392 1103.66881,698.722255 1103.34,698.79 C1102.53057,699.044333 1102.0432,699.86811 1102.21,700.7 C1102.43038,701.521615 1103.24238,702.038342 1104.08,701.89 C1102.66283,702.454762 1101.39868,703.345496 1100.39,704.49 C1098.82528,706.852323 1099.44904,710.033498 1101.79,711.63 C1104.23474,713.039073 1107.34597,712.409112 1109.05,710.16 C1108.7024,711.390756 1109.29416,712.692626 1110.45,713.24 C1115.87,716.17 1118.63,712.19 1119.37,707.58 C1120.14,702.57 1121.22,698.81 1115.75,696.11 Z" id="Path" fill="#000000" fill-rule="nonzero" opacity="0.15"></path>
                <path d="M1137.75,692.11 C1136.16631,691.215634 1134.32513,690.887609 1132.53,691.18 C1130.70495,691.522656 1129.34324,693.057158 1129.22,694.91 L1126.34,694.74 C1126.00607,694.705392 1125.66881,694.722255 1125.34,694.79 C1124.53057,695.044333 1124.0432,695.86811 1124.21,696.7 C1124.43038,697.521615 1125.24238,698.038342 1126.08,697.89 C1124.66283,698.454762 1123.39868,699.345496 1122.39,700.49 C1120.82528,702.852323 1121.44904,706.033498 1123.79,707.63 C1126.23474,709.039073 1129.34597,708.409112 1131.05,706.16 C1130.7024,707.390756 1131.29416,708.692626 1132.45,709.24 C1137.87,712.17 1140.63,708.19 1141.37,703.58 C1142.14,698.57 1143.22,694.81 1137.75,692.11 Z" id="Path" fill="#FFE9B3" fill-rule="nonzero"></path>
                <path d="M1137.75,692.11 C1136.16631,691.215634 1134.32513,690.887609 1132.53,691.18 C1130.70495,691.522656 1129.34324,693.057158 1129.22,694.91 L1126.34,694.74 C1126.00607,694.705392 1125.66881,694.722255 1125.34,694.79 C1124.53057,695.044333 1124.0432,695.86811 1124.21,696.7 C1124.43038,697.521615 1125.24238,698.038342 1126.08,697.89 C1124.66283,698.454762 1123.39868,699.345496 1122.39,700.49 C1120.82528,702.852323 1121.44904,706.033498 1123.79,707.63 C1126.23474,709.039073 1129.34597,708.409112 1131.05,706.16 C1130.7024,707.390756 1131.29416,708.692626 1132.45,709.24 C1137.87,712.17 1140.63,708.19 1141.37,703.58 C1142.14,698.57 1143.22,694.81 1137.75,692.11 Z" id="Path" fill="#000000" fill-rule="nonzero" opacity="0.15"></path>
                <path d="M1145.75,698.11 C1144.16631,697.215634 1142.32513,696.887609 1140.53,697.18 C1138.70495,697.522656 1137.34324,699.057158 1137.22,700.91 L1134.34,700.74 C1134.00607,700.705392 1133.66881,700.722255 1133.34,700.79 C1132.53057,701.044333 1132.0432,701.86811 1132.21,702.7 C1132.43038,703.521615 1133.24238,704.038342 1134.08,703.89 C1132.66283,704.454762 1131.39868,705.345496 1130.39,706.49 C1128.82528,708.852323 1129.44904,712.033498 1131.79,713.63 C1134.23474,715.039073 1137.34597,714.409112 1139.05,712.16 C1138.7024,713.390756 1139.29416,714.692626 1140.45,715.24 C1145.87,718.17 1148.63,714.19 1149.37,709.58 C1150.14,704.57 1151.22,700.81 1145.75,698.11 Z" id="Path" fill="#FFE9B3" fill-rule="nonzero"></path>
                <path d="M1145.75,698.11 C1144.16631,697.215634 1142.32513,696.887609 1140.53,697.18 C1138.70495,697.522656 1137.34324,699.057158 1137.22,700.91 L1134.34,700.74 C1134.00607,700.705392 1133.66881,700.722255 1133.34,700.79 C1132.53057,701.044333 1132.0432,701.86811 1132.21,702.7 C1132.43038,703.521615 1133.24238,704.038342 1134.08,703.89 C1132.66283,704.454762 1131.39868,705.345496 1130.39,706.49 C1128.82528,708.852323 1129.44904,712.033498 1131.79,713.63 C1134.23474,715.039073 1137.34597,714.409112 1139.05,712.16 C1138.7024,713.390756 1139.29416,714.692626 1140.45,715.24 C1145.87,718.17 1148.63,714.19 1149.37,709.58 C1150.14,704.57 1151.22,700.81 1145.75,698.11 Z" id="Path" fill="#000000" fill-rule="nonzero" opacity="0.15"></path>
                <path d="M1096.75,719.11 C1095.16631,718.215634 1093.32513,717.887609 1091.53,718.18 C1089.70495,718.522656 1088.34324,720.057158 1088.22,721.91 L1085.34,721.74 C1085.00607,721.705392 1084.66881,721.722255 1084.34,721.79 C1083.53057,722.044333 1083.0432,722.86811 1083.21,723.7 C1083.43038,724.521615 1084.24238,725.038342 1085.08,724.89 C1083.66283,725.454762 1082.39868,726.345496 1081.39,727.49 C1079.82528,729.852323 1080.44904,733.033498 1082.79,734.63 C1085.23474,736.039073 1088.34597,735.409112 1090.05,733.16 C1089.7024,734.390756 1090.29416,735.692626 1091.45,736.24 C1096.87,739.17 1099.63,735.19 1100.37,730.58 C1101.14,725.57 1102.22,721.81 1096.75,719.11 Z" id="Path" fill="#FFE9B3" fill-rule="nonzero"></path>
                <path d="M1096.75,719.11 C1095.16631,718.215634 1093.32513,717.887609 1091.53,718.18 C1089.70495,718.522656 1088.34324,720.057158 1088.22,721.91 L1085.34,721.74 C1085.00607,721.705392 1084.66881,721.722255 1084.34,721.79 C1083.53057,722.044333 1083.0432,722.86811 1083.21,723.7 C1083.43038,724.521615 1084.24238,725.038342 1085.08,724.89 C1083.66283,725.454762 1082.39868,726.345496 1081.39,727.49 C1079.82528,729.852323 1080.44904,733.033498 1082.79,734.63 C1085.23474,736.039073 1088.34597,735.409112 1090.05,733.16 C1089.7024,734.390756 1090.29416,735.692626 1091.45,736.24 C1096.87,739.17 1099.63,735.19 1100.37,730.58 C1101.14,725.57 1102.22,721.81 1096.75,719.11 Z" id="Path" fill="#000000" fill-rule="nonzero" opacity="0.15"></path>
                <path d="M1154.75,705.11 C1153.16631,704.215634 1151.32513,703.887609 1149.53,704.18 C1147.70495,704.522656 1146.34324,706.057158 1146.22,707.91 L1143.34,707.74 C1143.00607,707.705392 1142.66881,707.722255 1142.34,707.79 C1141.53057,708.044333 1141.0432,708.86811 1141.21,709.7 C1141.43038,710.521615 1142.24238,711.038342 1143.08,710.89 C1141.66283,711.454762 1140.39868,712.345496 1139.39,713.49 C1137.82528,715.852323 1138.44904,719.033498 1140.79,720.63 C1143.23474,722.039073 1146.34597,721.409112 1148.05,719.16 C1147.7024,720.390756 1148.29416,721.692626 1149.45,722.24 C1154.87,725.17 1157.63,721.19 1158.37,716.58 C1159.14,711.57 1160.22,707.81 1154.75,705.11 Z" id="Path" fill="#FFE9B3" fill-rule="nonzero"></path>
                <path d="M1154.75,705.11 C1153.16631,704.215634 1151.32513,703.887609 1149.53,704.18 C1147.70495,704.522656 1146.34324,706.057158 1146.22,707.91 L1143.34,707.74 C1143.00607,707.705392 1142.66881,707.722255 1142.34,707.79 C1141.53057,708.044333 1141.0432,708.86811 1141.21,709.7 C1141.43038,710.521615 1142.24238,711.038342 1143.08,710.89 C1141.66283,711.454762 1140.39868,712.345496 1139.39,713.49 C1137.82528,715.852323 1138.44904,719.033498 1140.79,720.63 C1143.23474,722.039073 1146.34597,721.409112 1148.05,719.16 C1147.7024,720.390756 1148.29416,721.692626 1149.45,722.24 C1154.87,725.17 1157.63,721.19 1158.37,716.58 C1159.14,711.57 1160.22,707.81 1154.75,705.11 Z" id="Path" fill="#000000" fill-rule="nonzero" opacity="0.15"></path>
                <path d="M1173.75,715.11 C1172.16631,714.215634 1170.32513,713.887609 1168.53,714.18 C1166.70495,714.522656 1165.34324,716.057158 1165.22,717.91 L1162.34,717.74 C1162.00607,717.705392 1161.66881,717.722255 1161.34,717.79 C1160.53057,718.044333 1160.0432,718.86811 1160.21,719.7 C1160.43038,720.521615 1161.24238,721.038342 1162.08,720.89 C1160.66283,721.454762 1159.39868,722.345496 1158.39,723.49 C1156.82528,725.852323 1157.44904,729.033498 1159.79,730.63 C1162.23474,732.039073 1165.34597,731.409112 1167.05,729.16 C1166.7024,730.390756 1167.29416,731.692626 1168.45,732.24 C1173.87,735.17 1176.63,731.19 1177.37,726.58 C1178.14,721.57 1179.22,717.81 1173.75,715.11 Z" id="Path" fill="#FFE9B3" fill-rule="nonzero"></path>
                <path d="M1173.75,715.11 C1172.16631,714.215634 1170.32513,713.887609 1168.53,714.18 C1166.70495,714.522656 1165.34324,716.057158 1165.22,717.91 L1162.34,717.74 C1162.00607,717.705392 1161.66881,717.722255 1161.34,717.79 C1160.53057,718.044333 1160.0432,718.86811 1160.21,719.7 C1160.43038,720.521615 1161.24238,721.038342 1162.08,720.89 C1160.66283,721.454762 1159.39868,722.345496 1158.39,723.49 C1156.82528,725.852323 1157.44904,729.033498 1159.79,730.63 C1162.23474,732.039073 1165.34597,731.409112 1167.05,729.16 C1166.7024,730.390756 1167.29416,731.692626 1168.45,732.24 C1173.87,735.17 1176.63,731.19 1177.37,726.58 C1178.14,721.57 1179.22,717.81 1173.75,715.11 Z" id="Path" fill="#000000" fill-rule="nonzero" opacity="0.15"></path>
                <path d="M1157.75,693.11 C1156.16631,692.215634 1154.32513,691.887609 1152.53,692.18 C1150.70495,692.522656 1149.34324,694.057158 1149.22,695.91 L1146.34,695.74 C1146.00607,695.705392 1145.66881,695.722255 1145.34,695.79 C1144.53057,696.044333 1144.0432,696.86811 1144.21,697.7 C1144.43038,698.521615 1145.24238,699.038342 1146.08,698.89 C1144.66283,699.454762 1143.39868,700.345496 1142.39,701.49 C1140.82528,703.852323 1141.44904,707.033498 1143.79,708.63 C1146.23474,710.039073 1149.34597,709.409112 1151.05,707.16 C1150.7024,708.390756 1151.29416,709.692626 1152.45,710.24 C1157.87,713.17 1160.63,709.19 1161.37,704.58 C1162.14,699.57 1163.22,695.81 1157.75,693.11 Z" id="Path" fill="#FFE9B3" fill-rule="nonzero"></path>
                <path d="M1157.75,693.11 C1156.16631,692.215634 1154.32513,691.887609 1152.53,692.18 C1150.70495,692.522656 1149.34324,694.057158 1149.22,695.91 L1146.34,695.74 C1146.00607,695.705392 1145.66881,695.722255 1145.34,695.79 C1144.53057,696.044333 1144.0432,696.86811 1144.21,697.7 C1144.43038,698.521615 1145.24238,699.038342 1146.08,698.89 C1144.66283,699.454762 1143.39868,700.345496 1142.39,701.49 C1140.82528,703.852323 1141.44904,707.033498 1143.79,708.63 C1146.23474,710.039073 1149.34597,709.409112 1151.05,707.16 C1150.7024,708.390756 1151.29416,709.692626 1152.45,710.24 C1157.87,713.17 1160.63,709.19 1161.37,704.58 C1162.14,699.57 1163.22,695.81 1157.75,693.11 Z" id="Path" fill="#000000" fill-rule="nonzero" opacity="0.15"></path>
                <path d="M1171.74,717.19 C1172.65622,715.617624 1173.00895,713.779856 1172.74,711.98 C1172.41646,710.14938 1170.89366,708.770629 1169.04,708.63 L1169.25,705.75 C1169.3008,705.418602 1169.3008,705.081398 1169.25,704.75 C1169.12317,704.196238 1168.71055,703.752204 1168.16756,703.585161 C1167.62457,703.418117 1167.03372,703.553442 1166.61756,703.940161 C1166.2014,704.326879 1166.02317,704.906238 1166.15,705.46 C1165.6002,704.0364 1164.72325,702.762083 1163.59,701.74 C1161.24442,700.145718 1158.05287,700.734103 1156.43,703.06 C1154.99374,705.492442 1155.59399,708.613763 1157.83,710.34 C1156.60095,709.981206 1155.2921,710.559632 1154.73,711.71 C1151.73,717.1 1155.73,719.9 1160.29,720.71 C1165.24,721.5 1169,722.63 1171.74,717.19 Z" id="Path" fill="#FFE9B3" fill-rule="nonzero"></path>
                <path d="M1171.74,701.19 C1172.65622,699.617624 1173.00895,697.779856 1172.74,695.98 C1172.41646,694.14938 1170.89366,692.770629 1169.04,692.63 L1169.25,689.75 C1169.3008,689.418602 1169.3008,689.081398 1169.25,688.75 C1169.05394,687.893959 1168.20104,687.358939 1167.345,687.555 C1166.48896,687.751061 1165.95394,688.603959 1166.15,689.46 C1165.6002,688.0364 1164.72325,686.762083 1163.59,685.74 C1161.24442,684.145718 1158.05287,684.734103 1156.43,687.06 C1154.99374,689.492442 1155.59399,692.613763 1157.83,694.34 C1156.60095,693.981206 1155.2921,694.559632 1154.73,695.71 C1151.73,701.1 1155.73,703.9 1160.29,704.71 C1165.24,705.5 1169,706.63 1171.74,701.19 Z" id="Path" fill="#FFE9B3" fill-rule="nonzero"></path>
                <path d="M1154.74,722.19 C1155.65622,720.617624 1156.00895,718.779856 1155.74,716.98 C1155.41646,715.14938 1153.89366,713.770629 1152.04,713.63 L1152.25,710.75 C1152.3008,710.418602 1152.3008,710.081398 1152.25,709.75 C1152.05394,708.893959 1151.20104,708.358939 1150.345,708.555 C1149.48896,708.751061 1148.95394,709.603959 1149.15,710.46 C1148.6002,709.0364 1147.72325,707.762083 1146.59,706.74 C1144.24442,705.145718 1141.05287,705.734103 1139.43,708.06 C1137.99374,710.492442 1138.59399,713.613763 1140.83,715.34 C1139.60095,714.981206 1138.2921,715.559632 1137.73,716.71 C1134.73,722.1 1138.73,724.9 1143.29,725.71 C1148.24,726.5 1152,727.63 1154.74,722.19 Z" id="Path" fill="#FFE9B3" fill-rule="nonzero"></path>
                <path d="M1173.74,740.19 C1174.65622,738.617624 1175.00895,736.779856 1174.74,734.98 C1174.41646,733.14938 1172.89366,731.770629 1171.04,731.63 L1171.25,728.75 C1171.3008,728.418602 1171.3008,728.081398 1171.25,727.75 C1171.05394,726.893959 1170.20104,726.358939 1169.345,726.555 C1168.48896,726.751061 1167.95394,727.603959 1168.15,728.46 C1167.6002,727.0364 1166.72325,725.762083 1165.59,724.74 C1163.24442,723.145718 1160.05287,723.734103 1158.43,726.06 C1156.99374,728.492442 1157.59399,731.613763 1159.83,733.34 C1158.60095,732.981206 1157.2921,733.559632 1156.73,734.71 C1153.73,740.1 1157.73,742.9 1162.29,743.71 C1167.24,744.5 1171,745.63 1173.74,740.19 Z" id="Path" fill="#FFE9B3" fill-rule="nonzero"></path>
                <path d="M1137.74,747.19 C1138.65622,745.617624 1139.00895,743.779856 1138.74,741.98 C1138.41646,740.14938 1136.89366,738.770629 1135.04,738.63 L1135.25,735.75 C1135.3008,735.418602 1135.3008,735.081398 1135.25,734.75 C1135.05394,733.893959 1134.20104,733.358939 1133.345,733.555 C1132.48896,733.751061 1131.95394,734.603959 1132.15,735.46 C1131.6002,734.0364 1130.72325,732.762083 1129.59,731.74 C1127.24442,730.145718 1124.05287,730.734103 1122.43,733.06 C1120.99374,735.492442 1121.59399,738.613763 1123.83,740.34 C1122.60095,739.981206 1121.2921,740.559632 1120.73,741.71 C1117.73,747.1 1121.73,749.9 1126.29,750.71 C1131.24,751.5 1135,752.63 1137.74,747.19 Z" id="Path" fill="#FFE9B3" fill-rule="nonzero"></path>
                <path d="M1129.74,706.19 C1130.65622,704.617624 1131.00895,702.779856 1130.74,700.98 C1130.41646,699.14938 1128.89366,697.770629 1127.04,697.63 L1127.25,694.75 C1127.3008,694.418602 1127.3008,694.081398 1127.25,693.75 C1127.05394,692.893959 1126.20104,692.358939 1125.345,692.555 C1124.48896,692.751061 1123.95394,693.603959 1124.15,694.46 C1123.6002,693.0364 1122.72325,691.762083 1121.59,690.74 C1119.24442,689.145718 1116.05287,689.734103 1114.43,692.06 C1112.99374,694.492442 1113.59399,697.613763 1115.83,699.34 C1114.60095,698.981206 1113.2921,699.559632 1112.73,700.71 C1109.73,706.1 1113.73,708.9 1118.29,709.71 C1123.24,710.5 1127,711.63 1129.74,706.19 Z" id="Path" fill="#FFE9B3" fill-rule="nonzero"></path>
                <path d="M1150.74,701.19 C1151.65622,699.617624 1152.00895,697.779856 1151.74,695.98 C1151.41646,694.14938 1149.89366,692.770629 1148.04,692.63 L1148.25,689.75 C1148.3008,689.418602 1148.3008,689.081398 1148.25,688.75 C1148.05394,687.893959 1147.20104,687.358939 1146.345,687.555 C1145.48896,687.751061 1144.95394,688.603959 1145.15,689.46 C1144.6002,688.0364 1143.72325,686.762083 1142.59,685.74 C1140.24442,684.145718 1137.05287,684.734103 1135.43,687.06 C1133.99374,689.492442 1134.59399,692.613763 1136.83,694.34 C1135.60095,693.981206 1134.2921,694.559632 1133.73,695.71 C1130.73,701.1 1134.73,703.9 1139.29,704.71 C1144.24,705.5 1148,706.63 1150.74,701.19 Z" id="Path" fill="#FFE9B3" fill-rule="nonzero"></path>
                <path d="M1108.74,720.19 C1109.65622,718.617624 1110.00895,716.779856 1109.74,714.98 C1109.41646,713.14938 1107.89366,711.770629 1106.04,711.63 L1106.25,708.75 C1106.3008,708.418602 1106.3008,708.081398 1106.25,707.75 C1106.05394,706.893959 1105.20104,706.358939 1104.345,706.555 C1103.48896,706.751061 1102.95394,707.603959 1103.15,708.46 C1102.6002,707.0364 1101.72325,705.762083 1100.59,704.74 C1098.24442,703.145718 1095.05287,703.734103 1093.43,706.06 C1091.99374,708.492442 1092.59399,711.613763 1094.83,713.34 C1093.60095,712.981206 1092.2921,713.559632 1091.73,714.71 C1088.73,720.1 1092.73,722.9 1097.29,723.71 C1102.24,724.5 1106,725.63 1108.74,720.19 Z" id="Path" fill="#FFE9B3" fill-rule="nonzero"></path>
                <path d="M1092.81,766.06 C1098.01,765.64 1103.14,764.31 1108.36,764.38 C1115.19,764.47 1121.76,766.94 1127.98,769.76 C1129.80674,770.464795 1131.48308,771.509964 1132.92,772.84 C1134.99705,775.234064 1135.8728,778.442697 1135.3,781.56 C1134.71474,784.637365 1133.49557,787.559289 1131.72,790.14 C1129.9,793.03 1127.65,795.88 1124.48,797.14 C1122.70664,797.751963 1120.8459,798.072781 1118.97,798.09 C1111.14,798.52 1103.16,798.09 1095.73,795.58 C1091.92,794.28 1088.31,792.46 1084.58,790.92 C1072.69,786 1059.83,784.06 1047.2,781.58 C1046.55804,781.503507 1045.94579,781.266172 1045.42,780.89 C1042.79,778.62 1048.5,770.44 1049.84,768.15 C1052.1,764.26 1054.15,763.84 1058.73,763.73 C1070.17,763.44 1081.34,766.77 1092.81,766.06 Z" id="Path" fill="#A0616A" fill-rule="nonzero"></path>
                <path d="M1181.78,793.73 C1178.16,791.95 1174.91,789.49 1171.32,787.64 C1166.79911,785.314725 1161.82887,783.994556 1156.75,783.77 C1153.46,783.62 1149.88,784.06 1147.49,786.33 C1144.08,789.57 1144.49,795.08 1145.61,799.65 C1147.31,806.5 1150.73,813.75 1157.3,816.34 C1159.88085,817.203367 1162.57894,817.665415 1165.3,817.71 C1177.47,818.55 1190.14,819.31 1201.42,814.71 C1202.24665,814.452608 1202.95528,813.910502 1203.42,813.18 C1203.91,812.18 1203.42,810.98 1202.92,809.97 C1201.12,806.35 1198.27,798.76 1194.79,796.5 C1191.55,794.33 1185.82,795.71 1181.78,793.73 Z" id="Path" fill="#A0616A" fill-rule="nonzero"></path>
                <path d="M1210.38,739.27 C1217.04603,749.845432 1222.5258,761.123563 1226.72,772.9 C1227.89275,775.796077 1228.5689,778.869137 1228.72,781.99 C1228.72,785.46 1227.51,788.82 1226.24,792.1 C1222.19375,802.595225 1217.498,812.828353 1212.18,822.74 C1210.58,825.74 1208.75,828.87 1205.58,830.52 C1202.25,832.26 1198.15,831.99 1194.34,831.52 C1184.79271,830.475259 1175.32525,828.798243 1166,826.5 C1171.87,826.69 1177.17,822.29 1179.88,817.5 C1182.59,812.71 1183.19,807.23 1183.64,801.88 C1184.05189,798.999008 1183.92986,796.066803 1183.28,793.23 C1182.50949,790.258699 1180.33676,787.850775 1177.46,786.78 C1177.19,784.17 1179.68,781.98 1182.25,780.78 C1184.82,779.58 1187.74,778.91 1189.83,777.11 C1192.91,774.47 1193.35,770.06 1192.34,766.32 C1191.33,762.58 1189.13,759.2 1187.57,755.61 C1185.38,750.61 1196.68,745.35 1197.13,739.95 C1197.23,738.73 1196.37,740.95 1197.13,739.95 C1197.89,738.95 1202.61,742.42 1203.68,741.95 C1210.71,738.91 1206.49,733.09 1210.38,739.27 Z" id="Path" fill="#000000" fill-rule="nonzero" opacity="0.1"></path>
                <path d="M1212.56,739.27 C1219.22524,749.847352 1224.70814,761.125018 1228.91,772.9 C1230.08774,775.794528 1230.76407,778.868449 1230.91,781.99 C1230.91,785.46 1229.7,788.82 1228.44,792.1 C1224.38951,802.593436 1219.69388,812.826305 1214.38,822.74 C1212.78,825.74 1210.95,828.87 1207.78,830.52 C1204.45,832.26 1200.34,831.99 1196.54,831.52 C1186.9891,830.477419 1177.51818,828.80038 1168.19,826.5 C1174.05,826.69 1179.36,822.29 1182.06,817.5 C1184.76,812.71 1185.38,807.23 1185.83,801.88 C1186.23691,798.99876 1186.11491,796.067465 1185.47,793.23 C1184.69336,790.262007 1182.52284,787.85654 1179.65,786.78 C1179.37,784.17 1181.87,781.98 1184.44,780.78 C1187.01,779.58 1189.93,778.91 1192.02,777.11 C1195.09,774.47 1195.53,770.06 1194.52,766.32 C1193.51,762.58 1191.31,759.2 1189.75,755.61 C1187.56763,750.602827 1186.65398,745.134667 1187.09,739.69 C1187.11114,738.444363 1187.47814,737.229124 1188.15,736.18 C1188.89547,735.287657 1189.85553,734.599443 1190.94,734.18 C1198,731.18 1208.67,733.09 1212.56,739.27 Z" id="Path" fill="#F98A8D" fill-rule="nonzero"></path>
                <path d="M998.8,729.35 C992.31,735.35 985.61,741.69 982.45,749.96 C980.73,754.47 980.16,759.33 979.6,764.13 C978.66,772.31 977.81,781.07 981.6,788.37 C985.8,796.37 994.6,800.66 1002.86,804.29 C1005.71646,805.631572 1008.67596,806.741801 1011.71,807.61 C1015.68511,808.498521 1019.73792,808.994237 1023.81,809.09 L1065.5,811.41 C1060.06,805.93 1056.58,797.35 1057.32,789.66 C1057.99,782.79 1061.32,776.49 1064.67,770.48 C1066.41,767.38 1068.38,764.12 1071.59,762.59 C1058.00741,759.588174 1044.04143,758.711084 1030.19,759.99 C1029.26,760.07 1028.19,760.1 1027.58,759.36 C1027.27609,758.895578 1027.13536,758.343226 1027.18,757.79 C1027.18,751.58 1031.82,746.42 1033.74,740.52 C1036.81,731.06 1026.36,736.25 1016.96,733 C1007.56,729.75 1000.72,719.59 998.8,729.35 Z" id="Path" fill="#000000" fill-rule="nonzero" opacity="0.1"></path>
                <path d="M995.8,729.35 C989.31,735.35 982.61,741.69 979.45,749.96 C977.73,754.47 977.16,759.33 976.6,764.13 C975.66,772.31 974.81,781.07 978.6,788.37 C982.8,796.37 991.6,800.66 999.86,804.29 C1002.71646,805.631572 1005.67596,806.741801 1008.71,807.61 C1012.68511,808.498521 1016.73792,808.994237 1020.81,809.09 L1062.5,811.41 C1057.06,805.93 1053.58,797.35 1054.32,789.66 C1054.99,782.79 1058.32,776.49 1061.67,770.48 C1063.41,767.38 1065.38,764.12 1068.59,762.59 C1055.00741,759.588174 1041.04143,758.711084 1027.19,759.99 C1026.26,760.07 1025.19,760.1 1024.58,759.36 C1024.27609,758.895578 1024.13536,758.343226 1024.18,757.79 C1024.18,751.58 1028.82,746.42 1030.74,740.52 C1033.81,731.06 1028.47,719.52 1019.06,716.25 C1009.65,712.98 997.72,719.59 995.8,729.35 Z" id="Path" fill="#F98A8D" fill-rule="nonzero"></path>
                <ellipse id="Oval" fill="#2F2E41" fill-rule="nonzero" cx="1100.5" cy="601" rx="50.5" ry="21"></ellipse>
                <path d="M1099.5,613 C1075.33,613 1055.13,605.93 1050.17,596.5 C1049.41754,597.881618 1049.01578,599.426844 1049,601 C1049,612.6 1071.61,622 1099.5,622 C1127.39,622 1150,612.6 1150,601 C1149.98422,599.426844 1149.58246,597.881618 1148.83,596.5 C1143.87,605.93 1123.67,613 1099.5,613 Z" id="Path" fill="#000000" fill-rule="nonzero" opacity="0.1"></path>
                <path d="M1167.75,615.11 C1166.16631,614.215634 1164.32513,613.887609 1162.53,614.18 C1160.70495,614.522656 1159.34324,616.057158 1159.22,617.91 L1156.34,617.74 C1156.00607,617.705392 1155.66881,617.722255 1155.34,617.79 C1154.53057,618.044333 1154.0432,618.86811 1154.21,619.7 C1154.43038,620.521615 1155.24238,621.038342 1156.08,620.89 C1154.66283,621.454762 1153.39868,622.345496 1152.39,623.49 C1150.82528,625.852323 1151.44904,629.033498 1153.79,630.63 C1156.23474,632.039073 1159.34597,631.409112 1161.05,629.16 C1160.7024,630.390756 1161.29416,631.692626 1162.45,632.24 C1167.87,635.17 1170.63,631.19 1171.37,626.58 C1172.14,621.57 1173.22,617.81 1167.75,615.11 Z" id="Path" fill="#FFE9B3" fill-rule="nonzero"></path>
                <path d="M1167.75,615.11 C1166.16631,614.215634 1164.32513,613.887609 1162.53,614.18 C1160.70495,614.522656 1159.34324,616.057158 1159.22,617.91 L1156.34,617.74 C1156.00607,617.705392 1155.66881,617.722255 1155.34,617.79 C1154.53057,618.044333 1154.0432,618.86811 1154.21,619.7 C1154.43038,620.521615 1155.24238,621.038342 1156.08,620.89 C1154.66283,621.454762 1153.39868,622.345496 1152.39,623.49 C1150.82528,625.852323 1151.44904,629.033498 1153.79,630.63 C1156.23474,632.039073 1159.34597,631.409112 1161.05,629.16 C1160.7024,630.390756 1161.29416,631.692626 1162.45,632.24 C1167.87,635.17 1170.63,631.19 1171.37,626.58 C1172.14,621.57 1173.22,617.81 1167.75,615.11 Z" id="Path" fill="#000000" fill-rule="nonzero" opacity="0.15"></path>
                <path d="M1215.75,691.11 C1214.16631,690.215634 1212.32513,689.887609 1210.53,690.18 C1208.70495,690.522656 1207.34324,692.057158 1207.22,693.91 L1204.34,693.74 C1204.00607,693.705392 1203.66881,693.722255 1203.34,693.79 C1202.53057,694.044333 1202.0432,694.86811 1202.21,695.7 C1202.43038,696.521615 1203.24238,697.038342 1204.08,696.89 C1202.66283,697.454762 1201.39868,698.345496 1200.39,699.49 C1198.82528,701.852323 1199.44904,705.033498 1201.79,706.63 C1204.23474,708.039073 1207.34597,707.409112 1209.05,705.16 C1208.7024,706.390756 1209.29416,707.692626 1210.45,708.24 C1215.87,711.17 1218.63,707.19 1219.37,702.58 C1220.14,697.57 1221.22,693.81 1215.75,691.11 Z" id="Path" fill="#FFE9B3" fill-rule="nonzero"></path>
                <path d="M1215.75,691.11 C1214.16631,690.215634 1212.32513,689.887609 1210.53,690.18 C1208.70495,690.522656 1207.34324,692.057158 1207.22,693.91 L1204.34,693.74 C1204.00607,693.705392 1203.66881,693.722255 1203.34,693.79 C1202.53057,694.044333 1202.0432,694.86811 1202.21,695.7 C1202.43038,696.521615 1203.24238,697.038342 1204.08,696.89 C1202.66283,697.454762 1201.39868,698.345496 1200.39,699.49 C1198.82528,701.852323 1199.44904,705.033498 1201.79,706.63 C1204.23474,708.039073 1207.34597,707.409112 1209.05,705.16 C1208.7024,706.390756 1209.29416,707.692626 1210.45,708.24 C1215.87,711.17 1218.63,707.19 1219.37,702.58 C1220.14,697.57 1221.22,693.81 1215.75,691.11 Z" id="Path" fill="#000000" fill-rule="nonzero" opacity="0.15"></path>
                <path d="M1271.75,772.11 C1270.16631,771.215634 1268.32513,770.887609 1266.53,771.18 C1264.70495,771.522656 1263.34324,773.057158 1263.22,774.91 L1260.34,774.74 C1260.00607,774.705392 1259.66881,774.722255 1259.34,774.79 C1258.53057,775.044333 1258.0432,775.86811 1258.21,776.7 C1258.43038,777.521615 1259.24238,778.038342 1260.08,777.89 C1258.66283,778.454762 1257.39868,779.345496 1256.39,780.49 C1254.82528,782.852323 1255.44904,786.033498 1257.79,787.63 C1260.23474,789.039073 1263.34597,788.409112 1265.05,786.16 C1264.7024,787.390756 1265.29416,788.692626 1266.45,789.24 C1271.87,792.17 1274.63,788.19 1275.37,783.58 C1276.14,778.57 1277.22,774.81 1271.75,772.11 Z" id="Path" fill="#FFE9B3" fill-rule="nonzero"></path>
                <path d="M1271.75,772.11 C1270.16631,771.215634 1268.32513,770.887609 1266.53,771.18 C1264.70495,771.522656 1263.34324,773.057158 1263.22,774.91 L1260.34,774.74 C1260.00607,774.705392 1259.66881,774.722255 1259.34,774.79 C1258.53057,775.044333 1258.0432,775.86811 1258.21,776.7 C1258.43038,777.521615 1259.24238,778.038342 1260.08,777.89 C1258.66283,778.454762 1257.39868,779.345496 1256.39,780.49 C1254.82528,782.852323 1255.44904,786.033498 1257.79,787.63 C1260.23474,789.039073 1263.34597,788.409112 1265.05,786.16 C1264.7024,787.390756 1265.29416,788.692626 1266.45,789.24 C1271.87,792.17 1274.63,788.19 1275.37,783.58 C1276.14,778.57 1277.22,774.81 1271.75,772.11 Z" id="Path" fill="#000000" fill-rule="nonzero" opacity="0.15"></path>
                <path d="M1185.74,593.19 C1186.65622,591.617624 1187.00895,589.779856 1186.74,587.98 C1186.41646,586.14938 1184.89366,584.770629 1183.04,584.63 L1183.25,581.75 C1183.3008,581.418602 1183.3008,581.081398 1183.25,580.75 C1183.05394,579.893959 1182.20104,579.358939 1181.345,579.555 C1180.48896,579.751061 1179.95394,580.603959 1180.15,581.46 C1179.6002,580.0364 1178.72325,578.762083 1177.59,577.74 C1175.24442,576.145718 1172.05287,576.734103 1170.43,579.06 C1168.99374,581.492442 1169.59399,584.613763 1171.83,586.34 C1170.60095,585.981206 1169.2921,586.559632 1168.73,587.71 C1165.73,593.1 1169.73,595.9 1174.29,596.71 C1179.24,597.5 1183,598.63 1185.74,593.19 Z" id="Path" fill="#FFE9B3" fill-rule="nonzero"></path>
                <path d="M1179.74,558.19 C1180.65622,556.617624 1181.00895,554.779856 1180.74,552.98 C1180.41646,551.14938 1178.89366,549.770629 1177.04,549.63 L1177.25,546.75 C1177.3008,546.418602 1177.3008,546.081398 1177.25,545.75 C1177.05394,544.893959 1176.20104,544.358939 1175.345,544.555 C1174.48896,544.751061 1173.95394,545.603959 1174.15,546.46 C1173.6002,545.0364 1172.72325,543.762083 1171.59,542.74 C1169.24442,541.145718 1166.05287,541.734103 1164.43,544.06 C1162.99374,546.492442 1163.59399,549.613763 1165.83,551.34 C1164.60095,550.981206 1163.2921,551.559632 1162.73,552.71 C1159.73,558.1 1163.73,560.9 1168.29,561.71 C1173.24,562.5 1177,563.63 1179.74,558.19 Z" id="Path" fill="#FFE9B3" fill-rule="nonzero"></path>
                <path d="M1029.75,846.11 C1028.16631,845.215634 1026.32513,844.887609 1024.53,845.18 C1022.70495,845.522656 1021.34324,847.057158 1021.22,848.91 L1018.34,848.74 C1018.00863,848.688888 1017.67137,848.688888 1017.34,848.74 C1016.53057,848.994333 1016.0432,849.81811 1016.21,850.65 C1016.43038,851.471615 1017.24238,851.988342 1018.08,851.84 C1016.66283,852.404762 1015.39868,853.295496 1014.39,854.44 C1012.82528,856.802323 1013.44904,859.983498 1015.79,861.58 C1018.23474,862.989073 1021.34597,862.359112 1023.05,860.11 C1022.7024,861.340756 1023.29416,862.642626 1024.45,863.19 C1029.87,866.12 1032.63,862.19 1033.37,857.53 C1034.14,852.57 1035.22,848.81 1029.75,846.11 Z" id="Path" fill="#FFE9B3" fill-rule="nonzero"></path>
                <path d="M1029.75,846.11 C1028.16631,845.215634 1026.32513,844.887609 1024.53,845.18 C1022.70495,845.522656 1021.34324,847.057158 1021.22,848.91 L1018.34,848.74 C1018.00863,848.688888 1017.67137,848.688888 1017.34,848.74 C1016.53057,848.994333 1016.0432,849.81811 1016.21,850.65 C1016.43038,851.471615 1017.24238,851.988342 1018.08,851.84 C1016.66283,852.404762 1015.39868,853.295496 1014.39,854.44 C1012.82528,856.802323 1013.44904,859.983498 1015.79,861.58 C1018.23474,862.989073 1021.34597,862.359112 1023.05,860.11 C1022.7024,861.340756 1023.29416,862.642626 1024.45,863.19 C1029.87,866.12 1032.63,862.19 1033.37,857.53 C1034.14,852.57 1035.22,848.81 1029.75,846.11 Z" id="Path" fill="#000000" fill-rule="nonzero" opacity="0.15"></path>
                <path d="M993.74,844.19 C994.656216,842.617624 995.008955,840.779856 994.74,838.98 C994.416464,837.14938 992.893664,835.770629 991.04,835.63 L991.25,832.75 C991.300798,832.418602 991.300798,832.081398 991.25,831.75 C991.053939,830.893959 990.201041,830.358939 989.345,830.555 C988.488959,830.751061 987.953939,831.603959 988.15,832.46 C987.600202,831.0364 986.723253,829.762083 985.59,828.74 C983.244415,827.145718 980.05287,827.734103 978.43,830.06 C976.993738,832.492442 977.593992,835.613763 979.83,837.34 C978.600947,836.981206 977.292101,837.559632 976.73,838.71 C973.73,844.1 977.73,846.9 982.29,847.71 C987.24,848.5 991,849.63 993.74,844.19 Z" id="Path" fill="#FFE9B3" fill-rule="nonzero"></path>
                <path d="M1041.74,789.19 C1042.65622,787.617624 1043.00895,785.779856 1042.74,783.98 C1042.41646,782.14938 1040.89366,780.770629 1039.04,780.63 L1039.25,777.75 C1039.3008,777.418602 1039.3008,777.081398 1039.25,776.75 C1039.05394,775.893959 1038.20104,775.358939 1037.345,775.555 C1036.48896,775.751061 1035.95394,776.603959 1036.15,777.46 C1035.6002,776.0364 1034.72325,774.762083 1033.59,773.74 C1031.24442,772.145718 1028.05287,772.734103 1026.43,775.06 C1024.99374,777.492442 1025.59399,780.613763 1027.83,782.34 C1026.60095,781.981206 1025.2921,782.559632 1024.73,783.71 C1021.73,789.1 1025.73,791.9 1030.29,792.71 C1035.24,793.5 1039,794.63 1041.74,789.19 Z" id="Path" fill="#FFE9B3" fill-rule="nonzero"></path>
                <path d="M964.91,807.35 C955.17,804.86 945.03,802.35 935.19,804.35 C930.81,805.24 926.67,807 922.41,808.35 C901.1603,814.934892 878.06851,811.486214 859.67,798.98 C849.47,791.93 838.87,781.65 826.79,784.44 C823.54,785.2 820.53,786.9 817.21,787.27 C810.98,787.98 805.21,783.94 799.03,782.99 C788.39,781.36 778.72,788.82 770.54,795.82 L727.41,832.73 C724.14,835.53 720.54,839.23 721.41,843.43 C722.74,849.6 732.19,850.43 734.62,856.28 C736.38,860.47 733.47,865.35 729.62,867.74 C725.77,870.13 721.11,870.74 716.79,872.19 C703.513294,876.637919 693.539657,887.719737 690.51,901.39 C689.75,904.97 689.51,908.69 688.1,912.07 C686.58,915.75 683.83,918.77 681.8,922.19 C672.92,937.09 678.75,956.86 672.01,972.84 C668.44,981.32 661.29,989.52 663.55,998.43 C665.61,1006.51 674.48,1010.64 682.55,1012.78 C683.5,1018.28 681.55,1022.16 677.55,1026.11 C711.1,1039.9 747.11,1053.98 782.7,1046.93 C794.91,1044.52 806.8,1039.63 819.24,1039.83 C828.07,1039.97 836.8,1042.69 845.61,1042.07 C864.2,1040.76 881.27,1024.87 899.28,1029.64 C893.85,1030.01 891.84,1037.95 895.04,1042.36 C898.24,1046.77 904.13,1048.18 909.55,1048.7 C914.97,1049.22 920.71,1049.26 925.41,1052.02 C921.85,1059.43 909.1,1062.02 910.33,1070.17 C910.78,1073.11 913.16,1075.34 915.52,1077.17 C939.77,1095.74 973.17,1093.96 1003.52,1097.17 C1025.9,1099.51 1047.84,1104.98 1070.15,1107.9 C1105.79,1112.55 1141.92,1110.65 1177.8,1108.73 C1184.31,1108.38 1191.61,1107.66 1195.8,1102.66 C1201.36,1096 1198.27,1086.13 1197.57,1077.49 C1194.85,1043.68 1231.83,1020.41 1242.19,988.11 C1246.19,975.5 1246.02,961.95 1245.3,948.72 C1243.69,918.88 1239.02,887.4 1220,864.36 C1204.34,845.36 1180.93,834.66 1157.62,826.82 C1142.78,821.82 1127.23,817.71 1111.62,819.18 C1085.42,821.65 1058.95,839.54 1034.76,829.18 C1028.36,826.44 1022.91,821.91 1016.83,818.53 C1000.85,809.5 982.72,811.9 964.91,807.35 Z" id="Path" fill="#FFC107" fill-rule="nonzero"></path>
                <g id="Group" opacity="0.1" transform="translate(663.000000, 809.000000)" fill="#000000" fill-rule="nonzero">
                    <path d="M437.21,272.86 C414.9,269.94 393,264.5 370.58,262.13 C340.2,258.95 306.8,260.73 282.58,242.13 C280.22,240.32 277.84,238.13 277.39,235.13 C276.16,227 288.91,224.39 292.47,216.98 C287.77,214.22 282.04,214.19 276.61,213.66 C271.18,213.13 265.3,211.73 262.1,207.32 C258.9,202.91 260.91,194.97 266.34,194.6 C248.34,189.83 231.26,205.72 212.67,207.03 C203.86,207.65 195.13,204.93 186.3,204.79 C173.86,204.59 161.97,209.48 149.76,211.89 C114.17,218.89 78.17,204.89 44.61,191.07 C48.56,187.07 50.53,183.24 49.61,177.74 C41.56,175.6 32.69,171.47 30.61,163.39 C28.35,154.48 35.5,146.28 39.07,137.8 C45.81,121.8 39.98,102.05 48.86,87.15 C50.86,83.73 53.64,80.71 55.16,77.03 C56.55,73.65 56.81,69.93 57.57,66.35 C57.8977192,64.7822172 58.3320618,63.2386302 58.87,61.73 C57.19,62.19 55.49,62.61 53.87,63.15 C40.5932935,67.5979188 30.6196572,78.6797369 27.59,92.35 C26.83,95.93 26.59,99.65 25.18,103.03 C23.66,106.71 20.91,109.73 18.88,113.15 C10,128.05 15.83,147.82 9.09,163.8 C5.52,172.28 -1.63,180.48 0.63,189.39 C2.69,197.47 11.56,201.6 19.63,203.74 C20.58,209.24 18.63,213.12 14.63,217.07 C48.19,230.86 84.19,244.94 119.78,237.89 C131.99,235.48 143.88,230.59 156.32,230.79 C165.15,230.93 173.88,233.65 182.69,233.03 C201.28,231.72 218.35,215.83 236.36,220.6 C230.93,220.97 228.92,228.91 232.12,233.32 C235.32,237.73 241.21,239.14 246.63,239.66 C252.05,240.18 257.79,240.22 262.49,242.98 C258.93,250.39 246.18,252.98 247.41,261.13 C247.86,264.07 250.24,266.3 252.6,268.13 C276.85,286.7 310.25,284.92 340.6,288.13 C362.98,290.47 384.92,295.94 407.23,298.86 C442.87,303.51 479,301.61 514.88,299.69 C521.39,299.34 528.69,298.62 532.88,293.62 C537.23,288.4 536.28,281.22 535.33,274.19 C502.57,275.89 469.68,277.1 437.21,272.86 Z" id="Path"></path>
                    <path d="M70.18,45.04 C74.1367896,41.5184693 78.7765224,38.8496868 83.81,37.2 C88.13,35.8 92.81,35.13 96.64,32.75 C100.47,30.37 103.41,25.48 101.64,21.29 C99.21,15.48 89.76,14.61 88.43,8.44 C87.82,5.6 89.27,2.99 91.29,0.73 L64.4,23.73 C61.13,26.53 57.53,30.23 58.4,34.43 C59.57,39.71 66.63,41.12 70.18,45.04 Z" id="Path"></path>
                </g>
                <path d="M823.74,834.19 C824.656216,832.617624 825.008955,830.779856 824.74,828.98 C824.416464,827.14938 822.893664,825.770629 821.04,825.63 L821.25,822.75 C821.284293,822.416064 821.267432,822.07885 821.2,821.75 C821.003939,820.893959 820.151041,820.358939 819.295,820.555 C818.438959,820.751061 817.903939,821.603959 818.1,822.46 C817.550202,821.0364 816.673253,819.762083 815.54,818.74 C813.194415,817.145718 810.00287,817.734103 808.38,820.06 C806.943738,822.492442 807.543992,825.613763 809.78,827.34 C808.550947,826.981206 807.242101,827.559632 806.68,828.71 C803.68,834.1 807.68,836.9 812.24,837.71 C817.24,838.5 821,839.63 823.74,834.19 Z" id="Path" fill="#FFE9B3" fill-rule="nonzero"></path>
                <path d="M969.74,1028.19 C970.656216,1026.61762 971.008955,1024.77986 970.74,1022.98 C970.416464,1021.14938 968.893664,1019.77063 967.04,1019.63 L967.25,1016.75 C967.300798,1016.4186 967.300798,1016.0814 967.25,1015.75 C967.123171,1015.19624 966.710547,1014.7522 966.167561,1014.58516 C965.624575,1014.41812 965.033718,1014.55344 964.617561,1014.94016 C964.201404,1015.32688 964.023171,1015.90624 964.15,1016.46 C963.600202,1015.0364 962.723253,1013.76208 961.59,1012.74 C959.244415,1011.14572 956.05287,1011.7341 954.43,1014.06 C952.993738,1016.49244 953.593992,1019.61376 955.83,1021.34 C954.600947,1020.98121 953.292101,1021.55963 952.73,1022.71 C949.73,1028.1 953.73,1030.9 958.29,1031.71 C963.24,1032.5 967,1033.63 969.74,1028.19 Z" id="Path" fill="#FFE9B3" fill-rule="nonzero"></path>
                <path d="M1069.74,837.19 C1070.65622,835.617624 1071.00895,833.779856 1070.74,831.98 C1070.41646,830.14938 1068.89366,828.770629 1067.04,828.63 L1067.25,825.75 C1067.3008,825.418602 1067.3008,825.081398 1067.25,824.75 C1067.05394,823.893959 1066.20104,823.358939 1065.345,823.555 C1064.48896,823.751061 1063.95394,824.603959 1064.15,825.46 C1063.6002,824.0364 1062.72325,822.762083 1061.59,821.74 C1059.24442,820.145718 1056.05287,820.734103 1054.43,823.06 C1052.99374,825.492442 1053.59399,828.613763 1055.83,830.34 C1054.60095,829.981206 1053.2921,830.559632 1052.73,831.71 C1049.73,837.1 1053.73,839.9 1058.29,840.71 C1063.24,841.5 1067,842.63 1069.74,837.19 Z" id="Path" fill="#FFE9B3" fill-rule="nonzero"></path>
                <path d="M1088.55,834.99 C1090.21166,834.253608 1091.57304,832.973347 1092.41,831.36 C1093.231,829.695942 1092.81934,827.687021 1091.41,826.48 L1093.26,824.26 C1093.49799,824.006126 1093.69381,823.715785 1093.84,823.4 C1094.18518,822.590903 1093.8091,821.655178 1093,821.31 C1092.1909,820.964822 1091.25518,821.340903 1090.91,822.15 C1091.30023,820.676151 1091.33792,819.131121 1091.02,817.64 C1090.05517,814.969643 1087.12048,813.57366 1084.44,814.51 C1081.85263,815.636074 1080.51021,818.513923 1081.31,821.22 C1080.52637,820.210485 1079.13217,819.907215 1078,820.5 C1072.42,823.11 1074,827.69 1077.24,831.03 C1080.74,834.68 1083.12,837.79 1088.55,834.99 Z" id="Path" fill="#FFE9B3" fill-rule="nonzero"></path>
                <path d="M871.75,840.11 C870.166306,839.215634 868.325128,838.887609 866.53,839.18 C864.704953,839.522656 863.343236,841.057158 863.22,842.91 L860.34,842.74 C860.008626,842.688888 859.671374,842.688888 859.34,842.74 C858.53057,842.994333 858.043205,843.81811 858.21,844.65 C858.430378,845.471615 859.242377,845.988342 860.08,845.84 C858.662833,846.404762 857.398676,847.295496 856.39,848.44 C854.825278,850.802323 855.449038,853.983498 857.79,855.58 C860.234736,856.989073 863.345971,856.359112 865.05,854.11 C864.7024,855.340756 865.294159,856.642626 866.45,857.19 C871.87,860.12 874.63,856.19 875.37,851.53 C876.14,846.57 877.22,842.81 871.75,840.11 Z" id="Path" fill="#FFE9B3" fill-rule="nonzero"></path>
                <path d="M871.75,840.11 C870.166306,839.215634 868.325128,838.887609 866.53,839.18 C864.704953,839.522656 863.343236,841.057158 863.22,842.91 L860.34,842.74 C860.008626,842.688888 859.671374,842.688888 859.34,842.74 C858.53057,842.994333 858.043205,843.81811 858.21,844.65 C858.430378,845.471615 859.242377,845.988342 860.08,845.84 C858.662833,846.404762 857.398676,847.295496 856.39,848.44 C854.825278,850.802323 855.449038,853.983498 857.79,855.58 C860.234736,856.989073 863.345971,856.359112 865.05,854.11 C864.7024,855.340756 865.294159,856.642626 866.45,857.19 C871.87,860.12 874.63,856.19 875.37,851.53 C876.14,846.57 877.22,842.81 871.75,840.11 Z" id="Path" fill="#000000" fill-rule="nonzero" opacity="0.15"></path>
                <path d="M960.79,914.5 C961.097174,912.70955 960.794326,910.867813 959.93,909.27 C958.997739,907.659091 957.089522,906.888385 955.3,907.4 L954.5,904.62 C954.421139,904.267378 954.286081,903.929734 954.1,903.62 C953.789179,903.14305 953.247519,902.868152 952.679058,902.898856 C952.110597,902.92956 951.601698,903.261202 951.344058,903.768856 C951.086418,904.27651 951.119179,904.88305 951.43,905.36 C950.427646,904.208092 949.166498,903.310209 947.75,902.74 C944.997341,902.05552 942.205037,903.707744 941.48,906.45 C940.970546,909.226987 942.607998,911.948928 945.3,912.8 C944.023292,912.885471 942.99337,913.877403 942.86,915.15 C941.86,921.24 946.58,922.51 951.17,921.67 C956.17,920.76 960.07,920.5 960.79,914.5 Z" id="Path" fill="#FFE9B3" fill-rule="nonzero"></path>
                <path d="M960.79,914.5 C961.097174,912.70955 960.794326,910.867813 959.93,909.27 C958.997739,907.659091 957.089522,906.888385 955.3,907.4 L954.5,904.62 C954.421139,904.267378 954.286081,903.929734 954.1,903.62 C953.789179,903.14305 953.247519,902.868152 952.679058,902.898856 C952.110597,902.92956 951.601698,903.261202 951.344058,903.768856 C951.086418,904.27651 951.119179,904.88305 951.43,905.36 C950.427646,904.208092 949.166498,903.310209 947.75,902.74 C944.997341,902.05552 942.205037,903.707744 941.48,906.45 C940.970546,909.226987 942.607998,911.948928 945.3,912.8 C944.023292,912.885471 942.99337,913.877403 942.86,915.15 C941.86,921.24 946.58,922.51 951.17,921.67 C956.17,920.76 960.07,920.5 960.79,914.5 Z" id="Path" fill="#000000" fill-rule="nonzero" opacity="0.15"></path>
                <path d="M1080.79,823.5 C1081.09717,821.70955 1080.79433,819.867813 1079.93,818.27 C1078.99774,816.659091 1077.08952,815.888385 1075.3,816.4 L1074.5,813.62 C1074.42114,813.267378 1074.28608,812.929734 1074.1,812.62 C1073.61951,811.8827 1072.6323,811.674512 1071.895,812.155 C1071.1577,812.635488 1070.94951,813.6227 1071.43,814.36 C1070.42765,813.208092 1069.1665,812.310209 1067.75,811.74 C1064.99734,811.05552 1062.20504,812.707744 1061.48,815.45 C1060.97055,818.226987 1062.608,820.948928 1065.3,821.8 C1064.02329,821.885471 1062.99337,822.877403 1062.86,824.15 C1061.86,830.24 1066.58,831.51 1071.17,830.67 C1076.17,829.76 1080.07,829.5 1080.79,823.5 Z" id="Path" fill="#FFE9B3" fill-rule="nonzero"></path>
                <path d="M1080.79,823.5 C1081.09717,821.70955 1080.79433,819.867813 1079.93,818.27 C1078.99774,816.659091 1077.08952,815.888385 1075.3,816.4 L1074.5,813.62 C1074.42114,813.267378 1074.28608,812.929734 1074.1,812.62 C1073.61951,811.8827 1072.6323,811.674512 1071.895,812.155 C1071.1577,812.635488 1070.94951,813.6227 1071.43,814.36 C1070.42765,813.208092 1069.1665,812.310209 1067.75,811.74 C1064.99734,811.05552 1062.20504,812.707744 1061.48,815.45 C1060.97055,818.226987 1062.608,820.948928 1065.3,821.8 C1064.02329,821.885471 1062.99337,822.877403 1062.86,824.15 C1061.86,830.24 1066.58,831.51 1071.17,830.67 C1076.17,829.76 1080.07,829.5 1080.79,823.5 Z" id="Path" fill="#000000" fill-rule="nonzero" opacity="0.15"></path>
            </g>
        </g>
    </g>
</svg>