<?xml version="1.0" encoding="UTF-8"?>
<svg width="990px" height="809px" viewBox="0 0 990 809" version="1.1" xmlns="http://www.w3.org/2000/svg" xmlns:xlink="http://www.w3.org/1999/xlink">
    <!-- Generator: Sketch 63.1 (92452) - https://sketch.com -->
    <title>undraw_personal_data_29co</title>
    <desc>Created with Sketch.</desc>
    <g id="illustrations" stroke="none" stroke-width="1" fill="none" fill-rule="evenodd">
        <g id="Arcade" transform="translate(-2777.000000, -1979.000000)" fill-rule="nonzero">
            <g id="undraw_personal_data_29co" transform="translate(2777.000000, 1979.000000)">
                <path d="M942.08458,309.38683 C897.16819,132.76538 741.96793,5.26939 559.7964,0.15564 C463.48777,-2.54785 362.14421,29.39343 288.35863,141.16764 C156.45894,340.97609 296.46418,479.04986 394.07213,544.65977 C441.228605,576.42123 483.719217,614.611651 520.31325,658.12487 C586.24425,736.36258 713.08044,833.58394 864.13662,681.25303 C973.62233,570.84337 972.00333,427.03416 942.08458,309.38683 Z" id="Path" fill="#F2F2F2"></path>
                <path d="M990,579.673 C990,663.71041 776.83446,808.85706 503.45351,808.85706 C230.07256,808.85706 0,667.46753 0,583.43011 C0,499.39269 410.4649,367.39596 503.45351,504.53068 C596.44212,641.6654 990,495.63559 990,579.673 Z" id="Path" fill="#3F3D56"></path>
                <path d="M990,579.673 C990,663.71041 776.83446,808.85706 503.45351,808.85706 C230.07256,808.85706 0,667.46753 0,583.43011 C0,499.39269 410.4649,367.39596 503.45351,504.53068 C596.44212,641.6654 990,495.63559 990,579.673 Z" id="Path" fill="#000000" opacity="0.1"></path>
                <path d="M990,583.43011 C990,667.46752 768.381,735.5933 495,735.5933 C221.619,735.5933 0,667.46753 0,583.43011 C0,499.39269 402.01139,294.1322 495,431.26693 C587.98861,568.40166 990,499.39271 990,583.43011 Z" id="Path" fill="#3F3D56"></path>
                <ellipse id="Oval" fill="#000000" opacity="0.1" cx="686.6129" cy="609.72992" rx="144.64896" ry="54.47818"></ellipse>
                <ellipse id="Oval" fill="#000000" opacity="0.1" cx="105.19924" cy="575.91588" rx="77.02087" ry="29.00786"></ellipse>
                <path d="M21.31787,449.87053 C21.31787,509.99953 59.03965,558.65515 105.65652,558.65515" id="Path" fill="#2F2E41"></path>
                <path d="M105.65652,558.65518 C105.65652,497.85057 147.75183,448.64826 199.77352,448.64826" id="Path" fill="#4285F4"></path>
                <path d="M51.87535,455.32135 C51.87535,512.43751 75.92982,558.65518 105.65652,558.65518" id="Path" fill="#4285F4"></path>
                <path d="M105.65652,558.65518 C105.65652,480.96041 154.31214,418.09078 214.44114,418.09078" id="Path" fill="#2F2E41"></path>
                <path d="M87.91384,559.42213 C87.91384,559.42213 99.87445,559.05375 103.47907,556.48695 C107.08369,553.92015 121.8775,550.85523 122.77172,554.97183 C123.66594,559.08843 140.74629,575.44589 127.24282,575.55483 C113.73935,575.66377 95.86682,573.45146 92.26908,571.25997 C88.67134,569.06848 87.91384,559.42213 87.91384,559.42213 Z" id="Path" fill="#A8A8A8"></path>
                <path d="M127.48381,574.12181 C113.98034,574.23081 96.10781,572.01845 92.51007,569.82695 C89.77024,568.15801 88.67844,562.16945 88.31314,559.40655 C88.06014,559.41743 87.91384,559.42212 87.91384,559.42212 C87.91384,559.42212 88.6714,569.06843 92.26909,571.25994 C95.86678,573.45145 113.73936,575.66374 127.24283,575.55479 C131.14074,575.52336 132.48715,574.13654 132.41322,572.08253 C131.87171,573.32353 130.38508,574.09842 127.48381,574.12181 Z" id="Path" fill="#000000" opacity="0.2"></path>
                <ellipse id="Oval" fill="#000000" opacity="0.1" cx="380.50226" cy="432.02572" rx="99.26915" ry="37.38708"></ellipse>
                <path d="M272.39089,269.5709 C272.39089,347.06879 321.00899,409.77909 381.09162,409.77909" id="Path" fill="#2F2E41"></path>
                <path d="M381.09162,409.77909 C381.09162,331.41044 435.34662,267.99553 502.39534,267.99553" id="Path" fill="#4285F4"></path>
                <path d="M311.77521,276.59621 C311.77521,350.21097 342.77806,409.77909 381.09162,409.77909" id="Path" fill="#4285F4"></path>
                <path d="M381.09162,409.77909 C381.09162,309.64137 443.80192,228.61121 521.29981,228.61121" id="Path" fill="#2F2E41"></path>
                <path d="M358.22379,410.76758 C358.22379,410.76758 373.63934,410.29279 378.2852,406.98458 C382.93106,403.67637 401.9982,399.72608 403.15073,405.0318 C404.30326,410.33752 426.31744,431.42001 408.91336,431.5604 C391.50928,431.70079 368.47401,428.8494 363.83709,426.02491 C359.20017,423.20042 358.22379,410.76758 358.22379,410.76758 Z" id="Path" fill="#A8A8A8"></path>
                <path d="M409.22395,429.71342 C391.81987,429.85384 368.78462,427.00248 364.14769,424.17794 C360.61643,422.02694 359.20926,414.30849 358.73843,410.74751 C358.41236,410.76151 358.2238,410.76751 358.2238,410.76751 C358.2238,410.76751 359.20018,423.20027 363.83711,426.02481 C368.47404,428.84935 391.50928,431.7007 408.91337,431.56028 C413.93723,431.51976 415.67257,429.73235 415.57728,427.08502 C414.87935,428.68453 412.96329,429.68327 409.22395,429.71342 Z" id="Path" fill="#000000" opacity="0.2"></path>
                <path d="M667.40762,54.95255 L667.40771,54.95255 C693.102012,54.95255 713.93136,75.7818976 713.93136,101.4762 L713.93136,148 L620.884,148 L620.884,101.47621 C620.884,75.7819076 641.713348,54.95255 667.40765,54.95255 L667.40762,54.95255 Z" id="Path" fill="#2F2E41"></path>
                <path d="M706.44026,145.24008 L705.76213,149.63223 L703.28613,165.74205 L703.28613,190.1867 L674.89879,203.59184 L648.877,205.95745 L638.626,172.47614 L637.04893,167.31914 C637.04893,167.31914 637.50634,167.0116 638.30277,166.48329 C638.99659,166.01014 639.95858,165.36354 641.10991,164.59078 C644.59528,162.24885 649.76804,158.73196 654.39675,155.49108 C662.28212,149.97132 654.39675,116.06422 654.39675,116.06422 L680.41848,113.6986 C680.41848,113.6986 682.78409,120.0069 685.1497,133.41204 C686.92391,143.46589 698.01079,145.09027 703.4437,145.27162 C704.442346,145.31781 705.442808,145.30728 706.44026,145.24008 L706.44026,145.24008 Z" id="Path" fill="#FFB9B9"></path>
                <polygon id="Path" fill="#FFB9B9" points="622.855 514.276 622.855 572.627 638.626 572.627 646.511 511.91"></polygon>
                <path d="M631.52921,552.91387 L622.06677,551.33679 C622.06677,551.33679 618.12408,582.87828 614.18139,589.97512 C610.2387,597.07196 588.9482,626.24784 600.77626,627.82491 C612.60432,629.40198 628.37506,627.82491 629.1636,623.88222 C629.95214,619.93953 636.26044,596.28342 637.04898,597.86049 C637.83752,599.43756 637.04898,615.20831 637.04898,615.20831 L640.20312,615.20831 L640.20312,596.28342 C640.20312,596.28342 653.60826,586.82097 649.66557,582.08975 C645.72288,577.35853 641.7802,565.53046 641.7802,565.53046 L642.56874,553.7024 L631.52921,552.91387 Z" id="Path" fill="#2F2E41"></path>
                <polygon id="Path" fill="#FFB9B9" points="742.713 514.276 742.713 572.627 726.942 572.627 719.057 511.91"></polygon>
                <path d="M734.03906,552.91387 L743.50151,551.33679 C743.50151,551.33679 747.4442,582.87828 751.38689,589.97512 C755.32958,597.07196 776.62008,626.24784 764.79202,627.82491 C752.96396,629.40198 737.19321,627.82491 736.40468,623.88222 C735.61615,619.93953 729.30784,596.28342 728.5193,597.86049 C727.73076,599.43756 728.5193,615.20831 728.5193,615.20831 L725.36515,615.20831 L725.36515,596.28342 C725.36515,596.28342 711.96002,586.82097 715.90271,582.08975 C719.8454,577.35853 723.78808,565.53046 723.78808,565.53046 L722.99954,553.7024 L734.03906,552.91387 Z" id="Path" fill="#2F2E41"></path>
                <circle id="Oval" fill="#FFB9B9" cx="667.01339" cy="101.87052" r="29.96442"></circle>
                <path d="M760.84933,232.76772 L741.1359,306.10172 L738.77029,332.12345 L724.57662,306.10172 C724.57662,306.10172 732.46199,294.27366 734.03906,286.38829 C735.61613,278.50292 742.71298,236.71043 742.71298,236.71043 L720.53931,189.04334 L719.62458,187.07989 L711.96,187.03253 L704.07463,176.78153 L708.80585,164.16493 L708.80585,154.70253 L705.76211,149.63224 L704.07463,146.81716 L706.44024,145.24009 L719.05684,143.66301 C719.574251,143.621876 720.094896,143.656412 720.60234,143.76553 C723.90634,144.37267 731.88634,147.99997 737.98173,168.10767 C745.86712,194.12939 760.84933,232.76772 760.84933,232.76772 Z" id="Path" fill="#FFB9B9"></path>
                <path d="M648.877,223.30527 L648.877,270.61753 L622.8553,343.16294 C622.8553,343.16294 616.54701,373.12736 597.62211,374.70443 C578.69721,376.2815 610.23871,339.22025 610.23871,339.22025 L630.74071,261.15506 L630.74071,220.15112 C630.74071,220.15112 625.22095,198.86061 623.64387,189.39812 C622.46896,182.3328 624.803,174.83381 626.06473,171.48252 C626.49048,170.34703 626.79802,169.68468 626.79802,169.68468 L637.04902,166.53053 L638.30286,166.48322 L638.62609,172.47609 L639.41463,187.0325 L648.877,223.30527 Z" id="Path" fill="#FFB9B9"></path>
                <path d="M713.53709,250.11553 C713.53709,250.11553 719.05686,267.46335 719.84539,268.25189 C720.63392,269.04043 702.49757,272.19457 702.49757,272.19457 L667.80193,272.19457 L650.45411,264.3092 L652.03118,249.32699 L713.53709,250.11553 Z" id="Path" fill="#FFB9B9"></path>
                <path d="M722.211,260.36653 C722.211,260.36653 720.63392,277.71435 724.57661,284.02265 C728.5193,290.33095 738.77028,302.15901 741.92443,336.85465 C745.07858,371.55029 749.02126,502.44749 750.59834,507.96725 C752.17542,513.48701 756.90664,520.58385 752.17541,521.37238 C747.44418,522.16091 710.38294,530.83483 710.38294,521.37238 C710.38294,511.90993 710.38294,508.75579 708.01732,507.17871 C705.6517,505.60163 677.26432,381.80128 677.26432,381.80128 L651.24265,510.33285 C651.24265,510.33285 661.49365,524.52652 645.72289,522.94945 C629.95213,521.37238 602.35333,519.00676 605.50748,511.12139 C607.139135,507.291707 608.457682,503.336068 609.45017,499.29333 L625.22092,357.35661 C625.22092,357.35661 628.37506,297.42778 648.87704,265.49202 L650.45411,257.89226 C650.45411,257.89226 679.63,260.36653 689.881,263.52067 C700.132,266.67481 722.211,260.36653 722.211,260.36653 Z" id="Path" fill="#2F2E41"></path>
                <path d="M720.53931,189.04331 C719.87697,197.66202 715.96585,249.06677 716.69124,254.84676 C716.69124,254.84676 720.63394,259.57799 708.80587,257.21237 C696.97781,254.84675 662.28217,257.21237 658.33948,258.00091 C654.39679,258.78945 649.66557,261.9436 649.66557,256.42384 C649.66557,250.90408 651.24265,234.34484 648.87704,231.97918 C646.51143,229.61352 634.68336,209.1116 635.4719,203.59184 C636.03962,199.62547 629.6919,181.42607 626.0647,171.48257 C626.49045,170.34708 626.79799,169.68473 626.79799,169.68473 L637.04899,166.53058 L638.30283,166.48327 C638.99665,166.01012 639.95864,165.36352 641.10997,164.59076 L644.93436,183.08987 L646.51143,189.39817 C646.51143,189.39817 672.53316,189.39817 693.03513,174.41596 L703.44379,145.2716 C704.442409,145.317794 705.442844,145.30727 706.44027,145.24008 L719.05687,143.663 C719.574281,143.621866 720.094926,143.656402 720.60237,143.76552 L708.80588,179.14718 L719.62459,187.07986 L720.63394,187.82109 C720.63394,187.82109 720.60236,188.25478 720.53931,189.04331 Z" id="Path" fill="#FF6584"></path>
                <polygon id="Path" fill="#2F2E41" points="688.698 95.956 646.906 95.956 637.443 71.512 695.795 71.512"></polygon>
                <ellipse id="Oval" fill="#FFB9B9" transform="translate(637.443238, 107.784501) rotate(-16.160120) translate(-637.443238, -107.784501) " cx="637.443238" cy="107.784501" rx="2.36561" ry="6.3083"></ellipse>
                <ellipse id="Oval" fill="#FFB9B9" transform="translate(696.583588, 107.784578) rotate(-73.839880) translate(-696.583588, -107.784578) " cx="696.583588" cy="107.784578" rx="6.3083" ry="2.36561"></ellipse>
                <rect id="Rectangle" fill="#FFFFFF" x="440.52182" y="361.76028" width="161.55598" height="205.70209"></rect>
                <rect id="Rectangle" fill="#2F2E41" x="467.76091" y="414.82954" width="107.0778" height="30.05693" rx="2.77362"></rect>
                <circle id="Oval" fill="#4285F4" cx="549.47818" cy="420.46522" r="2.81784"></circle>
                <circle id="Oval" fill="#4285F4" cx="557.93169" cy="420.46522" r="2.81784"></circle>
                <circle id="Oval" fill="#4285F4" cx="566.3852" cy="420.46522" r="2.81784"></circle>
                <rect id="Rectangle" fill="#2F2E41" x="467.76091" y="449.58286" width="107.0778" height="30.05693" rx="2.77362"></rect>
                <circle id="Oval" fill="#4285F4" cx="549.47818" cy="455.21854" r="2.81784"></circle>
                <circle id="Oval" fill="#4285F4" cx="557.93169" cy="455.21854" r="2.81784"></circle>
                <circle id="Oval" fill="#4285F4" cx="566.3852" cy="455.21854" r="2.81784"></circle>
                <rect id="Rectangle" fill="#2F2E41" x="467.76091" y="484.33618" width="107.0778" height="30.05693" rx="2.77362"></rect>
                <circle id="Oval" fill="#4285F4" cx="549.47818" cy="489.97186" r="2.81784"></circle>
                <circle id="Oval" fill="#4285F4" cx="557.93169" cy="489.97186" r="2.81784"></circle>
                <circle id="Oval" fill="#4285F4" cx="566.3852" cy="489.97186" r="2.81784"></circle>
            </g>
        </g>
    </g>
</svg>