<?xml version="1.0" encoding="UTF-8"?>
<svg width="256px" height="256px" viewBox="0 0 256 256" version="1.1" xmlns="http://www.w3.org/2000/svg" xmlns:xlink="http://www.w3.org/1999/xlink">
    <!-- Generator: Sketch 55.2 (78181) - https://sketchapp.com -->
    <title>phaser_rounded_256</title>
    <desc>Created with Sketch.</desc>
    <g id="phaser_rounded_256" stroke="none" stroke-width="1" fill="none" fill-rule="evenodd">
        <g id="logo" transform="translate(28.000000, 28.000000)">
            <rect id="Rectangle" fill="#FFFFFF" x="0" y="0" width="200" height="200" rx="40"></rect>
            <g id="Group" transform="translate(100.500000, 100.500000) scale(-1, 1) rotate(-180.000000) translate(-100.500000, -100.500000) translate(19.000000, 31.000000)" fill="#2D313C">
                <path d="M64.2047632,138.027876 C44.6114428,135.287508 23.8655742,124.732018 12.9687543,111.943635 C9.19677817,107.477851 3.32925977,97.734321 4.06269957,97.0238553 C4.27225379,96.8208651 7.62512145,97.9373112 11.5018747,99.4597377 C16.5311762,101.388145 19.150604,103.113561 20.5127065,105.244958 C23.5512428,110.116723 32.876406,117.830351 38.7439244,120.367728 C53.8318289,127.066405 70.8057214,124.935008 84.9506318,114.379517 C87.6748368,112.349615 91.0277045,110.725694 92.389807,110.725694 C95.1140119,110.725694 95.3235662,111.84214 96.4761144,129.603783 L97,137.926381 L93.7519095,138.535351 C89.3512707,139.347312 71.7487154,139.042827 64.2047632,138.027876 Z" id="Shape" fill-rule="nonzero"></path>
                <path d="M99.8666667,127.054004 C99.4333333,121.472067 99,101.478585 99,82.5 C99,63.5214153 99.4333333,43.527933 99.8666667,37.9459963 L100.733333,28 L105.066667,28.5074488 C107.45,28.8119181 110.05,29.6238361 110.7,30.2327747 C112.433333,31.8566108 112.433333,133.143389 110.7,134.767225 C110.05,135.376164 107.45,136.188082 105.066667,136.492551 L100.733333,137 L99.8666667,127.054004 Z" id="Shape" fill-rule="nonzero"></path>
                <path d="M113,81 L113,71 L120.936842,73.4242424 C125.178947,74.7373737 130.105263,75.8484848 131.747368,75.8484848 C137.768421,75.8484848 139,76.8585859 139,81.5050505 C139,85.8484848 138.863158,85.9494949 134.621053,85.9494949 C132.157895,85.9494949 123.983848,87.9194165 119.468058,89.2325478 C114.952269,90.6466892 113.547368,91 113.410526,91 C113.136842,91 113,86.5555556 113,81 Z" id="Combined-Shape" fill-rule="nonzero"></path>
                <path d="M120.866667,104.793861 C120.433333,101.874866 120,91.424581 120,81.5 C120,71.575419 120.433333,61.1201117 120.866667,58.2011173 L121.733333,53 L126.066667,53.2653631 C128.45,53.424581 131.05,53.849162 131.7,54.1675978 C133.433333,55.0167598 133.433333,107.98324 131.7,108.832402 C131.05,109.150838 128.45,109.575419 126.066667,109.734637 L121.733333,110" id="Shape"></path>
                <path d="M43.6468983,118.993491 C35.8915319,116.353013 28.764979,111.072057 24.3632846,104.775534 C22.6743975,102.294256 16.8705718,93.1864244 17.0022033,83.0423708 C17.1237881,73.6725633 23.0590703,63.2069627 24.4680868,61.2076512 C37.8827746,42.6227503 65.026557,39.4744884 83.1573459,54.6064569 C86.4062156,57.2469346 88.3974584,58.1609461 91.2271191,58.1609461 L95,58.1609461 L95,83.0423708 L95,107.923796 L90.9127123,107.923796 C88.5022606,107.923796 86.3014134,108.533137 85.4629954,109.548705 C82.8429392,112.59541 75.0875728,117.165468 69.1138447,119.196604 C61.5680828,121.633968 51.2974624,121.633968 43.6468983,118.993491 Z M62.511303,115.032774 C70.2666694,113.610978 76.5548043,110.259603 81.48051,105.181761 C99.1920899,86.5968601 89.8646898,57.5516051 64.188139,51.3566381 C49.2014175,47.8021489 34.0050914,54.8095705 26.6689341,68.722857 C23.8392734,74.1053693 23.4200644,75.9333923 23.3152621,83.0423708 C23.3152621,89.9482356 23.7344711,92.0809292 26.2497251,96.7525436 C31.3850352,106.603557 39.6644129,113.001637 50.1446377,114.931217 C56.4327726,116.149899 56.3279703,116.149899 62.511303,115.032774 Z" id="Shape" fill-rule="nonzero"></path>
                <path d="M53.6329594,94.1214215 C49.6763154,88.4848445 46.254353,83.3515333 46.0404804,82.6469612 C45.7196714,81.9423891 47.3237163,81.1371638 50.210997,80.5332448 L54.9161953,79.6273664 L52.6705325,69.8640098 C51.2803603,64.4287391 50.3179334,60 50.531806,60 C50.852615,60 67,83.8547991 67,84.4587181 C67,84.6600244 65.1820825,85.2639434 63.043356,85.666556 C60.7976932,86.0691686 58.6589667,86.5724345 58.3381577,86.7737408 C57.9104124,86.9750471 58.5520304,90.7998672 59.6213936,95.3292594 C60.7976932,99.8586517 61.5462474,103.784125 61.2254385,103.985431 C61.0115658,104.287391 57.5896034,99.8586517 53.6329594,94.1214215 Z" id="Shape" fill-rule="nonzero" transform="translate(56.500000, 82.000000) scale(1, -1) translate(-56.500000, -82.000000) "></path>
                <path d="M145.885311,91.6897641 C140.642034,89.0498549 138.544723,83.1608268 141.061496,77.9825434 C145.151253,69.758211 157.420522,70.0628159 161.090816,78.5917532 C162.87353,82.7546869 162.034606,86.5114807 158.574043,89.7605997 C154.798883,93.3143236 150.499395,93.9235334 145.885311,91.6897641 Z" id="Shape" fill-rule="nonzero"></path>
                <path d="M17.3494782,62.8628812 C17.3494782,62.0569468 15.7912318,61.8554632 12.6747391,62.1576886 C10.0776618,62.459914 8,62.3591722 8,61.956205 C8,59.9413691 17.2455951,49.4642222 23.1669312,44.8300996 C34.8018374,35.6625961 38.8532779,22.5661625 34.0746557,9.26824531 L31.9969939,3.52596289 L34.4901881,1.91409414 C36.2562007,0.805934374 39.6843426,0.201483594 44.5668479,0.100741797 L52.1503135,-2.84217094e-14 L52.3580797,6.14524961 C52.5658459,14.1038516 54.1240922,19.1409414 57.6561173,24.1780312 C60.668727,28.4091867 60.8764931,28.4091867 69.0832573,27.0995433 C71.5764515,26.6965762 72.4075162,26.0921254 72.4075162,24.4802566 C72.4075162,23.3720969 72.9269316,20.6520683 73.6541133,18.5364906 C74.5890611,15.4134949 75.1084765,14.8090441 76.2511905,15.7157203 C77.2900215,16.6223965 77.4977876,18.2342652 76.9783722,21.7602281 L76.2511905,26.6965762 L84.4579547,26.6965762 C89.0288107,26.6965762 93.7035498,26.9988015 94.9501469,27.3010269 C97.5472241,28.0062195 97.5472241,27.8047359 95.6773285,48.7590297 L95.05403,55.1057629 L91.9375372,54.5013121 C90.1715247,54.1990867 86.5356165,52.2849925 83.8346562,50.3708984 C65.4473491,37.2744648 43.1124846,38.5841082 27.2183718,53.6953777 C24.5174114,56.3146644 21.712568,59.6391437 20.8815032,61.2510125 C19.3232569,63.971041 17.3494782,64.9784589 17.3494782,62.8628812 Z" id="Shape" fill-rule="nonzero"></path>
                <path d="M21.1382665,65.0736203 C17.8956871,70.6182223 17.37581,70.6454679 15.4359456,75.6635504 C14.8318318,77.2262847 13.8657934,79.6172615 13.3743596,82.905355 C12.8829258,86.1934485 13.0509466,85.3846623 12.9395418,88.284255 C12.6979434,94.5724673 14.8373247,97.8293364 17.5608679,103.946626 C17.8762762,104.655057 20.7906649,109.542828 23.6911096,113.784768 C23.9880432,114.219038 22.4423971,113.219308 19.0541714,110.78558 C16.8578777,111.085568 15.3288544,111.317092 14.4671016,111.480153 C13.6053487,111.643213 12.0605943,111.952324 9.83283829,112.407486 C9.32139842,111.977981 8.41574296,110.543284 7.1158719,108.103395 C4.0513893,102.351286 2.22392061,93.6192316 1.89482813,89.8342524 C1.55441006,85.9190147 3.37289037,73.5946918 4.7976461,73.1947889 C5.05044054,73.1238342 5.32005087,72.7191784 5.60647709,71.9808216 C6.23183828,72.5543756 6.69842274,72.7163084 7.00623046,72.46662 C7.73973624,71.8716124 8.45038408,71.2959237 9.13818574,70.739764 C24.518537,58.3031367 27.9199169,53.4774347 21.1382665,65.0736203 Z" id="Path-2" transform="translate(13.157625, 86.179600) scale(-1, 1) rotate(-177.000000) translate(-13.157625, -86.179600) "></path>
            </g>
        </g>
    </g>
</svg>