<?xml version="1.0" encoding="UTF-8"?>
<svg width="955px" height="681px" viewBox="0 0 955 681" version="1.1" xmlns="http://www.w3.org/2000/svg" xmlns:xlink="http://www.w3.org/1999/xlink">
    <!-- Generator: Sketch 63.1 (92452) - https://sketch.com -->
    <title>undraw_walk_in_the_city_1ma6</title>
    <desc>Created with Sketch.</desc>
    <defs>
        <linearGradient x1="-0.015731574%" y1="50.0024836%" x2="100%" y2="50.0024836%" id="linearGradient-1">
            <stop stop-color="#808080" stop-opacity="0.25" offset="0%"></stop>
            <stop stop-color="#808080" stop-opacity="0.12" offset="54%"></stop>
            <stop stop-color="#808080" stop-opacity="0.1" offset="100%"></stop>
        </linearGradient>
        <linearGradient x1="0%" y1="50.5%" x2="100%" y2="50.5%" id="linearGradient-2">
            <stop stop-color="#808080" stop-opacity="0.25" offset="0%"></stop>
            <stop stop-color="#808080" stop-opacity="0.12" offset="54%"></stop>
            <stop stop-color="#808080" stop-opacity="0.1" offset="100%"></stop>
        </linearGradient>
        <linearGradient x1="0%" y1="49.5%" x2="100.840336%" y2="49.5%" id="linearGradient-3">
            <stop stop-color="#808080" stop-opacity="0.25" offset="0%"></stop>
            <stop stop-color="#808080" stop-opacity="0.12" offset="54%"></stop>
            <stop stop-color="#808080" stop-opacity="0.1" offset="100%"></stop>
        </linearGradient>
        <linearGradient x1="0%" y1="50.5%" x2="100.840336%" y2="50.5%" id="linearGradient-4">
            <stop stop-color="#808080" stop-opacity="0.25" offset="0%"></stop>
            <stop stop-color="#808080" stop-opacity="0.12" offset="54%"></stop>
            <stop stop-color="#808080" stop-opacity="0.1" offset="100%"></stop>
        </linearGradient>
    </defs>
    <g id="illustrations" stroke="none" stroke-width="1" fill="none" fill-rule="evenodd">
        <g id="Music" transform="translate(-3286.000000, -1738.000000)">
            <g id="undraw_walk_in_the_city_1ma6" transform="translate(3163.000000, 1628.000000)">
                <g id="Group" transform="translate(0.500000, 0.250000)"></g>
                <path d="M980.57,687.95 C973.45,691.62 965.99,694.79 958.63,697.95 C931.44,709.43 903.84,721.01 874.63,724.95 C819.77,732.25 763.16,712.25 709.26,724.73 C664.11,735.15 626.77,767.08 582.66,781.3 C562.15,787.91 540.81,790.5 519.28,790.5 L516.5,790.5 C513.833333,790.466667 511.186667,790.4 508.56,790.3 C486.73,789.48 464.81,786.25 443.41,782.12 C375.84,769.12 307.07,745.29 255.41,701.42 C405.83,673.94 715.68,631.76 980.57,687.95 Z" id="Path" fill="#252223" fill-rule="nonzero" opacity="0.1"></path>
                <polygon id="Path" fill="#4285F4" fill-rule="nonzero" opacity="0.3" points="1033 359 1033 295 995 295 995 359 950 359 950 260 917 260 917 186 890 186 890 110 834 110 834 186 807 186 807 260 775 260 775 171 757 171 757 126 746 126 746 171 682 171 682 455 633 455 633 425 603 425 603 455 554 455 554 359 466 359 466 295 428 295 428 359 426 359 426 482 386 482 386 410 338 410 338 482 298 482 298 260 267 260 267 186 153 186 153 260 123 260 123 651 298 651 426 651 554 651 682 651 775 651 950 651 1078 651 1078 359"></polygon>
                <rect id="Rectangle" fill="#FFFFFF" fill-rule="nonzero" opacity="0.4" x="142" y="283" width="42" height="24"></rect>
                <rect id="Rectangle" fill="#FFFFFF" fill-rule="nonzero" opacity="0.4" transform="translate(257.000000, 295.000000) rotate(-180.000000) translate(-257.000000, -295.000000) " x="236" y="283" width="42" height="24"></rect>
                <rect id="Rectangle" fill="#FFFFFF" fill-rule="nonzero" opacity="0.4" x="142" y="330" width="42" height="24"></rect>
                <rect id="Rectangle" fill="#FFFFFF" fill-rule="nonzero" opacity="0.4" transform="translate(257.000000, 342.000000) rotate(-180.000000) translate(-257.000000, -342.000000) " x="236" y="330" width="42" height="24"></rect>
                <rect id="Rectangle" fill="#FFFFFF" fill-rule="nonzero" opacity="0.4" x="142" y="377" width="42" height="24"></rect>
                <rect id="Rectangle" fill="#FFFFFF" fill-rule="nonzero" opacity="0.4" transform="translate(257.000000, 389.000000) rotate(-180.000000) translate(-257.000000, -389.000000) " x="236" y="377" width="42" height="24"></rect>
                <rect id="Rectangle" fill="#FFFFFF" fill-rule="nonzero" opacity="0.4" x="142" y="424" width="42" height="24"></rect>
                <rect id="Rectangle" fill="#FFFFFF" fill-rule="nonzero" opacity="0.4" transform="translate(257.000000, 436.000000) rotate(-180.000000) translate(-257.000000, -436.000000) " x="236" y="424" width="42" height="24"></rect>
                <rect id="Rectangle" fill="#FFFFFF" fill-rule="nonzero" opacity="0.4" x="142" y="471" width="42" height="24"></rect>
                <rect id="Rectangle" fill="#FFFFFF" fill-rule="nonzero" opacity="0.4" transform="translate(257.000000, 483.000000) rotate(-180.000000) translate(-257.000000, -483.000000) " x="236" y="471" width="42" height="24"></rect>
                <rect id="Rectangle" fill="#FFFFFF" fill-rule="nonzero" opacity="0.4" x="142" y="518" width="42" height="24"></rect>
                <rect id="Rectangle" fill="#FFFFFF" fill-rule="nonzero" opacity="0.4" transform="translate(257.000000, 530.000000) rotate(-180.000000) translate(-257.000000, -530.000000) " x="236" y="518" width="42" height="24"></rect>
                <rect id="Rectangle" fill="#FFFFFF" fill-rule="nonzero" opacity="0.4" x="142" y="565" width="42" height="24"></rect>
                <rect id="Rectangle" fill="#FFFFFF" fill-rule="nonzero" opacity="0.4" transform="translate(257.000000, 577.000000) rotate(-180.000000) translate(-257.000000, -577.000000) " x="236" y="565" width="42" height="24"></rect>
                <rect id="Rectangle" fill="#FFFFFF" fill-rule="nonzero" opacity="0.4" x="313" y="506" width="98" height="12"></rect>
                <rect id="Rectangle" fill="#FFFFFF" fill-rule="nonzero" opacity="0.4" x="313" y="524" width="98" height="12"></rect>
                <rect id="Rectangle" fill="#FFFFFF" fill-rule="nonzero" opacity="0.4" x="313" y="542" width="98" height="12"></rect>
                <rect id="Rectangle" fill="#FFFFFF" fill-rule="nonzero" opacity="0.4" x="569" y="512" width="98" height="12"></rect>
                <rect id="Rectangle" fill="#FFFFFF" fill-rule="nonzero" opacity="0.4" x="569" y="530" width="98" height="12"></rect>
                <rect id="Rectangle" fill="#FFFFFF" fill-rule="nonzero" opacity="0.4" x="569" y="548" width="98" height="12"></rect>
                <rect id="Rectangle" fill="#FFFFFF" fill-rule="nonzero" opacity="0.4" x="313" y="560" width="98" height="12"></rect>
                <rect id="Rectangle" fill="#FFFFFF" fill-rule="nonzero" opacity="0.4" x="313" y="578" width="98" height="12"></rect>
                <rect id="Rectangle" fill="#FFFFFF" fill-rule="nonzero" opacity="0.4" x="313" y="596" width="98" height="12"></rect>
                <rect id="Rectangle" fill="#FFFFFF" fill-rule="nonzero" opacity="0.4" x="447" y="382" width="27" height="35"></rect>
                <rect id="Rectangle" fill="#FFFFFF" fill-rule="nonzero" opacity="0.4" transform="translate(519.500000, 399.500000) rotate(-180.000000) translate(-519.500000, -399.500000) " x="506" y="382" width="27" height="35"></rect>
                <rect id="Rectangle" fill="#FFFFFF" fill-rule="nonzero" opacity="0.4" x="447" y="438" width="27" height="35"></rect>
                <rect id="Rectangle" fill="#FFFFFF" fill-rule="nonzero" opacity="0.4" transform="translate(519.500000, 455.500000) rotate(-180.000000) translate(-519.500000, -455.500000) " x="506" y="438" width="27" height="35"></rect>
                <rect id="Rectangle" fill="#FFFFFF" fill-rule="nonzero" opacity="0.4" x="447" y="494" width="27" height="35"></rect>
                <rect id="Rectangle" fill="#FFFFFF" fill-rule="nonzero" opacity="0.4" transform="translate(519.500000, 511.500000) rotate(-180.000000) translate(-519.500000, -511.500000) " x="506" y="494" width="27" height="35"></rect>
                <rect id="Rectangle" fill="#FFFFFF" fill-rule="nonzero" opacity="0.4" x="447" y="550" width="27" height="35"></rect>
                <rect id="Rectangle" fill="#FFFFFF" fill-rule="nonzero" opacity="0.4" transform="translate(519.500000, 567.500000) rotate(-180.000000) translate(-519.500000, -567.500000) " x="506" y="550" width="27" height="35"></rect>
                <rect id="Rectangle" fill="#FFFFFF" fill-rule="nonzero" opacity="0.4" x="682" y="194" width="36" height="46"></rect>
                <rect id="Rectangle" fill="#FFFFFF" fill-rule="nonzero" opacity="0.4" x="682" y="260" width="36" height="46"></rect>
                <rect id="Rectangle" fill="#FFFFFF" fill-rule="nonzero" opacity="0.4" x="682" y="326" width="36" height="46"></rect>
                <rect id="Rectangle" fill="#FFFFFF" fill-rule="nonzero" opacity="0.4" x="682" y="392" width="36" height="46"></rect>
                <rect id="Rectangle" fill="#FFFFFF" fill-rule="nonzero" opacity="0.4" x="682" y="458" width="36" height="46"></rect>
                <rect id="Rectangle" fill="#FFFFFF" fill-rule="nonzero" opacity="0.4" x="682" y="524" width="36" height="46"></rect>
                <rect id="Rectangle" fill="#FFFFFF" fill-rule="nonzero" opacity="0.4" x="795.5" y="288" width="134" height="39"></rect>
                <rect id="Rectangle" fill="#FFFFFF" fill-rule="nonzero" opacity="0.4" x="796" y="372" width="134" height="39"></rect>
                <rect id="Rectangle" fill="#FFFFFF" fill-rule="nonzero" opacity="0.4" x="796.5" y="456" width="134" height="39"></rect>
                <rect id="Rectangle" fill="#FFFFFF" fill-rule="nonzero" opacity="0.4" x="797" y="540" width="134" height="39"></rect>
                <rect id="Rectangle" fill="#FFFFFF" fill-rule="nonzero" opacity="0.4" x="153" y="207" width="18" height="38"></rect>
                <rect id="Rectangle" fill="#FFFFFF" fill-rule="nonzero" opacity="0.4" x="1033" y="382" width="45" height="58"></rect>
                <rect id="Rectangle" fill="#FFFFFF" fill-rule="nonzero" opacity="0.4" x="1033" y="466" width="45" height="58"></rect>
                <rect id="Rectangle" fill="#FFFFFF" fill-rule="nonzero" opacity="0.4" x="1033" y="550" width="45" height="58"></rect>
                <path d="M172.67,589.55 C172.67,589.55 93.94,637.05 239.07,710.18 C239.07,710.18 271.07,650.82 235.69,602.42 C221.487756,582.893462 194.92685,577.072658 173.86,588.87 L172.67,589.55 Z" id="Path" fill="#4285F4" fill-rule="nonzero"></path>
                <path d="M173.58,588.55 C173.58,588.55 240.95,640.1 239.07,710.18" id="Path" stroke="#535461"></path>
                <path d="M242.73,712.88 C242.73,712.88 218.06,629.12 247.36,567.47 C259.66,541.6 263.74,512.55 258.06,484.47 C255.343986,471.13809 251.410843,458.083404 246.31,445.47" id="Path" stroke="#535461" stroke-width="2"></path>
                <path d="M264.5,406.56 C264.5,416.83 245.91,446.56 245.91,446.56 C245.91,446.56 227.32,416.79 227.32,406.56 C227.163587,399.817445 230.671261,393.519038 236.485811,390.101798 C242.30036,386.684558 249.50964,386.684558 255.324189,390.101798 C261.138739,393.519038 264.646413,399.817445 264.49,406.56 L264.5,406.56 Z" id="Path" fill="#4285F4" fill-rule="nonzero"></path>
                <path d="M295.26,463.42 C289.68,472.04 257.9,486.92 257.9,486.92 C257.9,486.92 258.48,451.83 264.06,443.21 C269.751905,434.884715 281.043732,432.616133 289.50938,438.097097 C297.975027,443.578061 300.526563,454.809334 295.26,463.41 L295.26,463.42 Z" id="Path" fill="#4285F4" fill-rule="nonzero"></path>
                <path d="M293.91,560.59 C284.74,565.21 249.8,562.02 249.8,562.02 C249.8,562.02 268.01,532.02 277.18,527.4 C286.307125,523.022437 297.259069,526.75203 301.817604,535.790128 C306.376139,544.828227 302.865484,555.852303 293.92,560.59 L293.91,560.59 Z" id="Path" fill="#4285F4" fill-rule="nonzero"></path>
                <path d="M276.34,633.88 C268.09,639.98 233.1,642.74 233.1,642.74 C233.1,642.74 245.98,610.1 254.23,603.99 C259.56606,599.976511 266.644647,599.132954 272.774451,601.780054 C278.904255,604.427153 283.143631,610.158268 283.88075,616.794403 C284.617868,623.430538 281.739495,629.952267 276.34,633.88 L276.34,633.88 Z" id="Path" fill="#4285F4" fill-rule="nonzero"></path>
                <path d="M218.87,488.91 C226.23,496.06 260.54,503.47 260.54,503.47 C260.54,503.47 252.14,469.4 244.78,462.24 C240.053984,457.42428 233.089648,455.547381 226.583732,457.336078 C220.077816,459.124776 215.051857,464.298214 213.452014,470.853128 C211.852172,477.408041 213.929649,484.315198 218.88,488.9 L218.87,488.91 Z" id="Path" fill="#4285F4" fill-rule="nonzero"></path>
                <path d="M199.41,574.88 C208.58,579.5 243.52,576.31 243.52,576.31 C243.52,576.31 225.31,546.31 216.14,541.69 C207.012875,537.312437 196.060931,541.04203 191.502396,550.080128 C186.943861,559.118227 190.454516,570.142303 199.4,574.88 L199.41,574.88 Z" id="Path" fill="#4285F4" fill-rule="nonzero"></path>
                <path d="M191.96,661.04 C200.21,667.14 235.2,669.9 235.2,669.9 C235.2,669.9 222.32,637.25 214.06,631.15 C205.80419,625.144509 194.250149,626.920379 188.178904,635.127955 C182.107659,643.335531 183.791182,654.903389 191.95,661.04 L191.96,661.04 Z" id="Path" fill="#4285F4" fill-rule="nonzero"></path>
                <path d="M264.5,406.56 C264.5,416.83 245.91,446.56 245.91,446.56 C245.91,446.56 227.32,416.79 227.32,406.56 C227.163587,399.817445 230.671261,393.519038 236.485811,390.101798 C242.30036,386.684558 249.50964,386.684558 255.324189,390.101798 C261.138739,393.519038 264.646413,399.817445 264.49,406.56 L264.5,406.56 Z" id="Path" fill="#000000" fill-rule="nonzero" opacity="0.25"></path>
                <path d="M295.26,463.42 C289.68,472.04 257.9,486.92 257.9,486.92 C257.9,486.92 258.48,451.83 264.06,443.21 C269.751905,434.884715 281.043732,432.616133 289.50938,438.097097 C297.975027,443.578061 300.526563,454.809334 295.26,463.41 L295.26,463.42 Z" id="Path" fill="#000000" fill-rule="nonzero" opacity="0.25"></path>
                <path d="M293.91,560.59 C284.74,565.21 249.8,562.02 249.8,562.02 C249.8,562.02 268.01,532.02 277.18,527.4 C286.307125,523.022437 297.259069,526.75203 301.817604,535.790128 C306.376139,544.828227 302.865484,555.852303 293.92,560.59 L293.91,560.59 Z" id="Path" fill="#000000" fill-rule="nonzero" opacity="0.25"></path>
                <path d="M276.34,633.88 C268.09,639.98 233.1,642.74 233.1,642.74 C233.1,642.74 245.98,610.1 254.23,603.99 C259.56606,599.976511 266.644647,599.132954 272.774451,601.780054 C278.904255,604.427153 283.143631,610.158268 283.88075,616.794403 C284.617868,623.430538 281.739495,629.952267 276.34,633.88 L276.34,633.88 Z" id="Path" fill="#000000" fill-rule="nonzero" opacity="0.25"></path>
                <path d="M218.87,488.91 C226.23,496.06 260.54,503.47 260.54,503.47 C260.54,503.47 252.14,469.4 244.78,462.24 C240.053984,457.42428 233.089648,455.547381 226.583732,457.336078 C220.077816,459.124776 215.051857,464.298214 213.452014,470.853128 C211.852172,477.408041 213.929649,484.315198 218.88,488.9 L218.87,488.91 Z" id="Path" fill="#000000" fill-rule="nonzero" opacity="0.25"></path>
                <path d="M199.41,574.88 C208.58,579.5 243.52,576.31 243.52,576.31 C243.52,576.31 225.31,546.31 216.14,541.69 C207.012875,537.312437 196.060931,541.04203 191.502396,550.080128 C186.943861,559.118227 190.454516,570.142303 199.4,574.88 L199.41,574.88 Z" id="Path" fill="#000000" fill-rule="nonzero" opacity="0.25"></path>
                <path d="M191.96,661.04 C200.21,667.14 235.2,669.9 235.2,669.9 C235.2,669.9 222.32,637.25 214.06,631.15 C205.80419,625.144509 194.250149,626.920379 188.178904,635.127955 C182.107659,643.335531 183.791182,654.903389 191.95,661.04 L191.96,661.04 Z" id="Path" fill="#000000" fill-rule="nonzero" opacity="0.25"></path>
                <path d="M1012.78,691.25 C1012.78,691.25 988.11,607.49 1017.41,545.84 C1029.71,519.97 1033.79,490.92 1028.11,462.84 C1025.39399,449.50809 1021.46084,436.453404 1016.36,423.84" id="Path" stroke="#535461" stroke-width="2"></path>
                <path d="M1034.59,384.93 C1034.59,395.2 1016,424.93 1016,424.93 C1016,424.93 997.41,395.16 997.41,384.93 C997.253587,378.187445 1000.76126,371.889038 1006.57581,368.471798 C1012.39036,365.054558 1019.59964,365.054558 1025.41419,368.471798 C1031.22874,371.889038 1034.73641,378.187445 1034.58,384.93 L1034.59,384.93 Z" id="Path" fill="#4285F4" fill-rule="nonzero"></path>
                <path d="M1065.31,441.79 C1059.73,450.41 1027.95,465.29 1027.95,465.29 C1027.95,465.29 1028.53,430.2 1034.11,421.58 C1037.63649,415.821003 1044.00864,412.427274 1050.75545,412.714842 C1057.50226,413.00241 1063.56252,416.926043 1066.58618,422.964226 C1069.60984,429.002409 1069.12129,436.205398 1065.31,441.78 L1065.31,441.79 Z" id="Path" fill="#4285F4" fill-rule="nonzero"></path>
                <path d="M1063.97,538.96 C1054.8,543.58 1019.86,540.39 1019.86,540.39 C1019.86,540.39 1038.07,510.39 1047.24,505.77 C1056.36713,501.392437 1067.31907,505.12203 1071.8776,514.160128 C1076.43614,523.198227 1072.92548,534.222303 1063.98,538.96 L1063.97,538.96 Z" id="Path" fill="#4285F4" fill-rule="nonzero"></path>
                <path d="M1046.4,612.25 C1038.15,618.35 1003.16,621.11 1003.16,621.11 C1003.16,621.11 1016.04,588.47 1024.29,582.36 C1032.54581,576.354509 1044.09985,578.130379 1050.1711,586.337955 C1056.24234,594.545531 1054.55882,606.113389 1046.4,612.25 Z" id="Path" fill="#4285F4" fill-rule="nonzero"></path>
                <path d="M988.92,467.25 C996.28,474.4 1030.59,481.81 1030.59,481.81 C1030.59,481.81 1022.19,447.74 1014.83,440.58 C1007.46528,433.425152 995.694849,433.595284 988.540001,440.960001 C981.385152,448.324717 981.555283,460.095151 988.92,467.25 Z" id="Path" fill="#4285F4" fill-rule="nonzero"></path>
                <path d="M969.5,553.25 C978.67,557.87 1013.61,554.68 1013.61,554.68 C1013.61,554.68 995.4,524.68 986.23,520.06 C977.113515,515.750147 966.22328,519.494236 961.684343,528.498857 C957.145406,537.503478 960.612999,548.484881 969.5,553.25 Z" id="Path" fill="#4285F4" fill-rule="nonzero"></path>
                <path d="M962.01,639.41 C970.26,645.51 1005.25,648.27 1005.25,648.27 C1005.25,648.27 992.37,615.63 984.12,609.52 C975.86419,603.514509 964.310149,605.290379 958.238904,613.497955 C952.167659,621.705531 953.851182,633.273389 962.01,639.41 L962.01,639.41 Z" id="Path" fill="#4285F4" fill-rule="nonzero"></path>
                <path d="M901.5,683.1 C901.5,683.1 888.24,638.1 903.99,604.96 C910.68212,591.107156 912.699771,575.457202 909.74,560.36 C908.280175,553.205294 906.168016,546.199355 903.43,539.43" id="Path" stroke="#535461" stroke-width="2"></path>
                <path d="M913.22,518.48 C913.22,524 903.22,539.99 903.22,539.99 C903.22,539.99 893.22,523.99 893.22,518.48 C893.22,512.957153 897.697153,508.48 903.22,508.48 C908.742847,508.48 913.22,512.957153 913.22,518.48 Z" id="Path" fill="#4285F4" fill-rule="nonzero"></path>
                <path d="M929.73,549.04 C926.73,553.67 909.65,561.67 909.65,561.67 C909.65,561.67 909.96,542.81 912.96,538.18 C914.818377,535.002262 918.272385,533.102506 921.951258,533.234673 C925.630132,533.36684 928.938911,535.509555 930.564465,538.812456 C932.190019,542.115357 931.869458,546.044286 929.73,549.04 Z" id="Path" fill="#4285F4" fill-rule="nonzero"></path>
                <path d="M929.01,601.25 C924.08,603.73 905.3,602.02 905.3,602.02 C905.3,602.02 915.09,585.9 920.01,583.42 C924.891099,581.214619 930.643136,583.246741 933.055639,588.028859 C935.468143,592.810977 933.684354,598.644805 929.01,601.26 L929.01,601.25 Z" id="Path" fill="#4285F4" fill-rule="nonzero"></path>
                <path d="M919.56,640.64 C915.12,643.92 896.32,645.4 896.32,645.4 C896.32,645.4 903.24,627.86 907.68,624.58 C912.117304,621.619596 918.097079,622.663179 921.26933,626.951592 C924.44158,631.240005 923.689416,637.263377 919.56,640.64 L919.56,640.64 Z" id="Path" fill="#4285F4" fill-rule="nonzero"></path>
                <path d="M888.68,562.74 C892.68,566.58 911.07,570.57 911.07,570.57 C911.07,570.57 906.56,552.26 902.6,548.42 C900.080485,545.730969 896.286274,544.645464 892.725774,545.595034 C889.165274,546.544604 886.415512,549.375357 885.56967,552.961915 C884.723827,556.548472 885.918984,560.309583 888.68,562.75 L888.68,562.74 Z" id="Path" fill="#4285F4" fill-rule="nonzero"></path>
                <path d="M878.22,608.94 C883.15,611.42 901.93,609.71 901.93,609.71 C901.93,609.71 892.14,593.59 887.22,591.11 C882.338901,588.904619 876.586864,590.936741 874.174361,595.718859 C871.761857,600.500977 873.545646,606.334805 878.22,608.95 L878.22,608.94 Z" id="Path" fill="#4285F4" fill-rule="nonzero"></path>
                <path d="M874.22,655.25 C878.66,658.53 897.46,660.01 897.46,660.01 C897.46,660.01 890.5,642.46 886.1,639.18 C881.659792,636.160551 875.627536,637.186739 872.435521,641.504558 C869.243506,645.822376 870.031274,651.890374 874.22,655.25 L874.22,655.25 Z" id="Path" fill="#4285F4" fill-rule="nonzero"></path>
                <path d="M387.68,157.68 L380.8,157.68 C382.572582,157.760802 384.246215,156.861149 385.156657,155.338102 C386.067098,153.815055 386.067098,151.914945 385.156657,150.391898 C384.246215,148.868851 382.572582,147.969198 380.8,148.05 L325.07,148.05 C322.496007,148.167333 320.469488,150.288334 320.469488,152.865 C320.469488,155.441666 322.496007,157.562667 325.07,157.68 L331.95,157.68 C330.177418,157.599198 328.503785,158.498851 327.593343,160.021898 C326.682902,161.544945 326.682902,163.445055 327.593343,164.968102 C328.503785,166.491149 330.177418,167.390802 331.95,167.31 L322.32,167.31 C320.547418,167.229198 318.873785,168.128851 317.963343,169.651898 C317.052902,171.174945 317.052902,173.075055 317.963343,174.598102 C318.873785,176.121149 320.547418,177.020802 322.32,176.94 L378.05,176.94 C379.822582,177.020802 381.496215,176.121149 382.406657,174.598102 C383.317098,173.075055 383.317098,171.174945 382.406657,169.651898 C381.496215,168.128851 379.822582,167.229198 378.05,167.31 L387.68,167.31 C389.452582,167.390802 391.126215,166.491149 392.036657,164.968102 C392.947098,163.445055 392.947098,161.544945 392.036657,160.021898 C391.126215,158.498851 389.452582,157.599198 387.68,157.68 L387.68,157.68 Z" id="Path" fill="#252223" fill-rule="nonzero" opacity="0.1"></path>
                <path d="M633.68,278.68 L626.8,278.68 C628.572582,278.760802 630.246215,277.861149 631.156657,276.338102 C632.067098,274.815055 632.067098,272.914945 631.156657,271.391898 C630.246215,269.868851 628.572582,268.969198 626.8,269.05 L571.07,269.05 C568.496007,269.167333 566.469488,271.288334 566.469488,273.865 C566.469488,276.441666 568.496007,278.562667 571.07,278.68 L577.95,278.68 C576.177418,278.599198 574.503785,279.498851 573.593343,281.021898 C572.682902,282.544945 572.682902,284.445055 573.593343,285.968102 C574.503785,287.491149 576.177418,288.390802 577.95,288.31 L568.32,288.31 C566.547418,288.229198 564.873785,289.128851 563.963343,290.651898 C563.052902,292.174945 563.052902,294.075055 563.963343,295.598102 C564.873785,297.121149 566.547418,298.020802 568.32,297.94 L624.05,297.94 C625.822582,298.020802 627.496215,297.121149 628.406657,295.598102 C629.317098,294.075055 629.317098,292.174945 628.406657,290.651898 C627.496215,289.128851 625.822582,288.229198 624.05,288.31 L633.68,288.31 C635.452582,288.390802 637.126215,287.491149 638.036657,285.968102 C638.947098,284.445055 638.947098,282.544945 638.036657,281.021898 C637.126215,279.498851 635.452582,278.599198 633.68,278.68 L633.68,278.68 Z" id="Path" fill="#252223" fill-rule="nonzero" opacity="0.1"></path>
                <path d="M1052.68,120.68 L1045.8,120.68 C1047.57258,120.760802 1049.24621,119.861149 1050.15666,118.338102 C1051.0671,116.815055 1051.0671,114.914945 1050.15666,113.391898 C1049.24621,111.868851 1047.57258,110.969198 1045.8,111.05 L990.07,111.05 C987.496007,111.167333 985.469488,113.288334 985.469488,115.865 C985.469488,118.441666 987.496007,120.562667 990.07,120.68 L996.95,120.68 C995.177418,120.599198 993.503785,121.498851 992.593343,123.021898 C991.682902,124.544945 991.682902,126.445055 992.593343,127.968102 C993.503785,129.491149 995.177418,130.390802 996.95,130.31 L987.32,130.31 C985.547418,130.229198 983.873785,131.128851 982.963343,132.651898 C982.052902,134.174945 982.052902,136.075055 982.963343,137.598102 C983.873785,139.121149 985.547418,140.020802 987.32,139.94 L1043.05,139.94 C1045.62399,139.822667 1047.65051,137.701666 1047.65051,135.125 C1047.65051,132.548334 1045.62399,130.427333 1043.05,130.31 L1052.68,130.31 C1054.45258,130.390802 1056.12621,129.491149 1057.03666,127.968102 C1057.9471,126.445055 1057.9471,124.544945 1057.03666,123.021898 C1056.12621,121.498851 1054.45258,120.599198 1052.68,120.68 L1052.68,120.68 Z" id="Path" fill="#252223" fill-rule="nonzero" opacity="0.1"></path>
                <path d="M671.2,676.68 L671.42,676.68 C671.42,676.68 636.33,580.25 626.5,567.18 C626.5,567.18 616.21,561.1 616.68,550.81 L604.05,489.53 C604.05,489.53 604.24,489.34 604.56,488.99 L604.83,488.69 L605.14,488.33 C606.823973,486.329777 608.23311,484.113497 609.33,481.74 L609.53,481.28 C609.999664,480.205385 610.393951,479.099378 610.71,477.97 C611.589273,478.285187 612.558197,478.23476 613.4,477.83 C613.4,477.83 613.4,477.5 613.4,476.91 L613.4,476.91 C613.4,476.91 613.28,473.28 613.27,467.6 C613.27,466.02 613.27,464.3 613.27,462.47 C613.66,461.06 613.99,459.58 614.27,458 L613.76,457.76 L613.76,457.53 L613.33,457.33 C613.68,443.88 614.82,426.69 618.11,414.98 C618.223333,414.566667 618.343333,414.156667 618.47,413.75 C622.36,400.96 622.47,385.35 623.47,372.15 C624.246255,373.808383 624.914319,375.515287 625.47,377.26 C625.962575,376.705505 626.531624,376.224002 627.16,375.83 L631.08,407.2 L631.08,444.2 C631.08,444.2 624.53,491.92 645.08,483.03 C665.63,474.14 650.69,441.39 650.69,441.39 C650.69,441.39 650.69,423.15 653.5,413.79 C655.35,407.63 654.16,387.71 653.12,374.79 C655.12,375.14 656.3,375.42 656.3,375.42 C656.755055,373.545245 656.960167,371.61854 656.91,369.69 C657.34,348.12 630.74,313.37 619.91,300.11 C616.823704,295.376389 612.505638,291.573449 607.42,289.11 L586.61,279.03 C586.61,279.03 576.78,276.63 572.95,269.03 C572.95,268.9 572.88,268.77 572.85,268.64 C573.283333,268.446667 573.71,268.236667 574.13,268.01 C577.307697,266.481069 580.092414,264.243717 582.27,261.47 C586.7,255.84 588.82,248.79 590.84,241.92 C593.22,233.84 595.62,225.59 595.3,217.17 C594.98,208.75 591.44,200 584.3,195.53 C578.2,191.71 569.69,190.99 565.9,184.87 C564.9,183.22 564.26,181.26 562.9,179.93 C562.930475,179.362287 562.538003,178.858899 561.98,178.75 L551.5,176.69 C551.202917,176.631265 550.894673,176.693147 550.643279,176.861994 C550.391886,177.03084 550.218004,177.292774 550.16,177.59 L550.16,177.74 C540.787913,178.000081 531.590258,180.33621 523.23,184.58 C520.26007,186.014663 517.410814,187.686762 514.71,189.58 C510.86,192.3 507.07,195.91 506.52,200.58 C506.25,202.91 506.81,205.3 506.34,207.58 C505.07,213.69 496.88,217.67 498.08,223.8 C498.89,227.96 503.6,229.75 508.01,229.8 C505.529613,238.66483 506.838792,248.161443 511.625239,256.024486 C516.411686,263.887529 524.246233,269.411973 533.26,271.28 C536.467517,275.795267 539.278015,280.579805 541.66,285.58 C536.27,290.7 524.98,302.58 531.9,306.58 L517.5,342.16 L518.9,378.83 L512.83,384.25 L514.16,385.91 C507.36,393.83 491.62,411.14 480.11,415.75 C478.453052,416.415117 476.848519,417.204012 475.31,418.11 C473.208191,419.444424 470.868841,420.361151 468.42,420.81 C467.351019,420.92687 466.29389,421.134282 465.26,421.43 L462.51,415.73 C462.037315,414.749352 461.194034,413.996948 460.166061,413.638658 C459.138087,413.280368 458.009824,413.34561 457.03,413.82 L455.34,414.63 L455.34,414.63 L451.34,416.56 L449.67,417.37 L449.67,417.37 L448.41,417.98 C446.373455,418.964303 445.518787,421.411964 446.5,423.45 L449.83,430.35 C445.1,434.52 442.78,439.5 449.23,444.14 C451.706943,445.952971 454.711074,446.901644 457.78,446.84 L459.78,451.03 C460.252685,452.010648 461.095966,452.763052 462.123939,453.121342 C463.151913,453.479632 464.280176,453.41439 465.26,452.94 L468.19,451.52 L473.87,448.78 C474.850648,448.307315 475.603052,447.464034 475.961342,446.436061 C476.319632,445.408087 476.25439,444.279824 475.78,443.3 L474.12,439.85 C477.836471,436.962114 481.241563,433.694432 484.28,430.1 C484.28,430.1 492.82,424.75 497.85,423.55 C501.18,422.76 512.85,415.09 520.09,410.23 L522.15,464.23 C521.695715,464.932393 521.165891,465.582936 520.57,466.17 L522.18,465.03 L522.18,465.43 C521.964202,465.689537 521.733831,465.936602 521.49,466.17 L522.19,465.67 L522.19,466.32 C521.962326,466.594225 521.718564,466.854684 521.46,467.1 L522.2,466.58 L522.5,472.25 L526.02,466.41 L526.24,472.25 L527.06,470.89 C517.18,487.68 504.31,512.4 497.43,537.27 C497.43,537.27 486.67,555.98 488.07,575.16 L468.42,670.16 L468.8,670.3 C462.4,674.92 448.91,683.39 435.68,683.73 C435.68,683.73 403.87,682.79 412.76,689.81 C421.65,696.83 500.71,707.12 500.71,707.12 L503.71,683.47 L504.41,683.73 C504.41,683.73 504.41,683.6 504.41,683.36 L505.41,683.73 C505.41,683.73 503.5,671.97 510.5,665.42 C517.5,658.87 533.89,592.42 532.5,582.15 C532.5,582.15 545.06,550.76 560.78,525.73 L579.26,573.25 L599.84,608.8 C599.84,608.8 627.22,669.68 626.34,683.24 C620.59,690.24 610.34,701.24 602.65,700.95 C602.65,700.95 571.31,707.03 592.83,712.65 C614.35,718.27 677.5,697.25 677.5,697.25 L671.2,676.68 Z M534.2,459.02 L534.39,458.91 C533.39,460.42 532.39,462.09 531.25,463.91 L534.2,459.02 Z" id="Shape" fill="url(#linearGradient-1)" fill-rule="nonzero"></path>
                <path d="M520.57,466.19 C519.8,466.75 519.38,467.06 519.38,467.06 C519.816933,466.829522 520.217836,466.536425 520.57,466.19 Z" id="Path" fill="url(#linearGradient-2)" fill-rule="nonzero"></path>
                <path d="M521.5,467.13 C520.73,467.69 520.31,468 520.31,468 C520.746933,467.769522 521.147836,467.476425 521.5,467.13 Z" id="Path" fill="url(#linearGradient-3)" fill-rule="nonzero"></path>
                <path d="M521.5,466.19 C520.73,466.75 520.31,467.06 520.31,467.06 C520.746933,466.829522 521.147836,466.536425 521.5,466.19 Z" id="Path" fill="url(#linearGradient-4)" fill-rule="nonzero"></path>
                <path d="M628.55,671.75 C628.55,671.75 612.13,695.01 601.18,694.55 C601.18,694.55 570.62,700.48 591.6,705.95 C612.58,711.42 674.15,690.9 674.15,690.9 L666.83,667.05 L628.55,671.75 Z" id="Path" fill="#333333" fill-rule="nonzero"></path>
                <path d="M555.12,510.25 L578.38,570 L598.5,604.71 C598.5,604.71 626.09,666.05 624.27,677.91 L668.27,670.84 C668.27,670.84 634.06,576.84 624.49,564.12 C624.49,564.12 614.49,558.19 614.91,548.12 L602.6,488.37 C602.6,488.37 614.6,476.81 607.88,462.37 C607.54,461.63 607.146667,460.883333 606.7,460.13 C597.5,444.62 562.88,453.25 562.88,453.25 L555.12,510.25 Z" id="Path" fill="#535461" fill-rule="nonzero"></path>
                <path d="M555.12,510.25 L578.38,570 L598.5,604.71 C598.5,604.71 626.09,666.05 624.27,677.91 L668.27,670.84 C668.27,670.84 634.06,576.84 624.49,564.12 C624.49,564.12 614.49,558.19 614.91,548.12 L602.6,488.37 C602.6,488.37 614.6,476.81 607.88,462.37 C607.54,461.63 607.146667,460.883333 606.7,460.13 C597.5,444.62 562.88,453.25 562.88,453.25 L555.12,510.25 Z" id="Path" fill="#000000" fill-rule="nonzero" opacity="0.03"></path>
                <g id="Group" opacity="0.1" transform="translate(582.000000, 450.000000)" fill="#000000" fill-rule="nonzero">
                    <path d="M42.45,114.12 C42.45,114.12 32.45,108.19 32.87,98.12 L20.56,38.37 C20.56,38.37 32.56,26.81 25.84,12.37 C25.5,11.63 25.1066667,10.8833333 24.66,10.13 C20.24,2.61 9.8,0.77 0.23,0.88 C9.41,0.96 19.07,2.97 23.29,10.13 C23.7366667,10.8833333 24.13,11.63 24.47,12.37 C31.16,26.85 19.19,38.37 19.19,38.37 L31.5,98.15 C31.04,108.15 41.08,114.15 41.08,114.15 C50.66,126.92 84.86,220.87 84.86,220.87 L42.24,227.72 C42.24,227.79 42.24,227.87 42.24,227.94 L86.24,220.87 C86.24,220.87 52.03,126.89 42.45,114.12 Z" id="Path"></path>
                </g>
                <path d="M474.4,661.72 C474.4,661.72 456.16,677.23 438.4,677.72 C438.4,677.72 407.4,676.81 416.05,683.65 C424.7,690.49 501.79,700.53 501.79,700.53 L505.22,673.84 L474.4,661.72 Z" id="Path" fill="#333333" fill-rule="nonzero"></path>
                <g id="Group" opacity="0.1" transform="translate(471.000000, 443.000000)" fill="#000000" fill-rule="nonzero">
                    <path d="M70.44,6.64 C70.44,6.64 40.34,49.06 28.44,91.93 C28.44,91.93 17.95,110.17 19.32,128.87 L0.2,221.46 L35.32,234.69 C35.32,234.69 33.5,223.29 40.32,216.9 C47.14,210.51 63.12,145.75 61.76,135.72 C61.76,135.72 83.65,80.99 105.54,59.55 C127.43,38.11 138.33,33.17 141.540006,14.66 C141.56,14.66 90.05,-10.24 70.44,6.64 Z" id="Path"></path>
                </g>
                <path d="M540.5,449.64 C540.5,449.64 510.4,492.06 498.5,534.93 C498.5,534.93 488.01,553.17 489.38,571.87 L470.22,664.46 L505.34,677.69 C505.34,677.69 503.52,666.29 510.34,659.9 C517.16,653.51 533.14,588.75 531.78,578.72 C531.78,578.72 553.67,523.99 575.56,502.55 C597.45,481.11 608.35,476.17 611.560118,457.66 C611.65,457.66 560.14,432.76 540.5,449.64 Z" id="Path" fill="#535461" fill-rule="nonzero"></path>
                <g id="Group" opacity="0.1" transform="translate(504.000000, 443.000000)" fill="#000000" fill-rule="nonzero">
                    <path d="M55.97,0.32 C78.58,0.59 106.74,14.2 106.74,14.2 C103.52,32.71 92.63,37.65 70.74,59.09 C48.85,80.53 26.95,135.25 26.95,135.25 C28.32,145.25 12.36,210.05 5.51,216.43 C-0.49,221.99 0.17,231.34 0.42,233.68 L1.86,234.22 C1.86,234.22 0.04,222.82 6.86,216.43 C13.68,210.04 29.69,145.25 28.32,135.25 C28.32,135.25 50.21,80.52 72.1,59.08 C93.99,37.64 104.89,32.7 108.100003,14.19 C108.11,14.25 78.79,0.04 55.97,0.32 Z" id="Path"></path>
                </g>
                <path d="M518.18,383.51 C518.18,383.51 496.41,410.62 481.72,416.51 C480.104505,417.158164 478.540086,417.927003 477.04,418.81 C474.98982,420.110357 472.708194,421.003314 470.32,421.44 C468.56247,421.610918 466.843863,422.063361 465.23,422.78 C457.59,426.3 439.97,435.78 451.6,444.18 C466.19,454.67 485.81,430.5 485.81,430.5 C485.81,430.5 494.14,425.28 499.04,424.11 C503.94,422.94 526.39,407.25 526.39,407.25 L518.18,383.51 Z" id="Path" fill="#FDA57D" fill-rule="nonzero"></path>
                <polygon id="Path" fill="#4D8AF0" fill-rule="nonzero" points="522.28 378.03 513.62 385.79 526.39 401.75"></polygon>
                <g id="Group" opacity="0.1" transform="translate(513.000000, 378.000000)" fill="#000000" fill-rule="nonzero">
                    <polygon id="Path" points="9.28 0.03 0.62 7.79 13.39 23.75"></polygon>
                </g>
                <path d="M544.24,287.25 C544.24,287.25 523.48,305.04 532.17,310.05 L518.17,344.71 L523,471.5 L542.79,438.66 L529.27,367.51 C529.27,367.51 525.41,325.09 536.51,315.06 L547.13,294.06 L544.24,287.25 Z" id="Path" fill="#4D8AF0" fill-rule="nonzero"></path>
                <g id="Group" opacity="0.1" transform="translate(521.000000, 287.000000)" fill="#000000" fill-rule="nonzero">
                    <path d="M26.89,0.25 C26.89,0.25 6.13,18.04 14.82,23.05 L0.82,57.71 L5.65,184.5 L25.44,151.66 L11.92,80.51 C11.92,80.51 8.06,38.09 19.16,28.06 L29.78,7.06 L26.89,0.25 Z" id="Path"></path>
                </g>
                <path d="M528.21,268.57 C528.21,268.57 545.09,289.09 544.63,300.95 C544.17,312.81 576.56,280.43 576.56,280.43 C576.56,280.43 564.25,265.38 567.44,249.43 C570.63,233.48 528.21,268.57 528.21,268.57 Z" id="Path" fill="#FDA57D" fill-rule="nonzero"></path>
                <path d="M624.45,371.65 L629.01,408.14 L629.01,444.14 C629.01,444.14 622.62,490.66 642.69,482 C662.76,473.34 648.16,441.41 648.16,441.41 C648.16,441.41 648.16,423.62 650.9,414.5 C653.64,405.38 649.5,365.25 649.5,365.25 L624.45,371.65 Z" id="Path" fill="#FDA57D" fill-rule="nonzero"></path>
                <path d="M561.96,285.45 C561.96,285.45 549.65,297.31 543.26,293.2 L534.5,314.97 C529.146169,328.277549 526.717899,342.581149 527.38,356.91 L530.5,439.15 L544.18,437.33 L548.74,359.33 L555.58,311.9 L561.96,285.45 Z" id="Path" fill="#F2F2F2" fill-rule="nonzero"></path>
                <g id="Group" opacity="0.1" transform="translate(520.000000, 272.000000)" fill="#000000" fill-rule="nonzero">
                    <path d="M52.23,0.91 C52.23,0.91 36.03,12.08 31.5,21.66 C31.5,21.66 31.04,32.15 27.4,36.71 C23.76,41.27 20.1,64.08 19.19,91.44 C18.28,118.8 14.19,155.29 14.19,155.29 C14.19,155.29 7.35,190.86 0.05,194.51 C0.05,194.51 33.8,168.97 50.22,177.63 C66.64,186.29 85.34,207.28 90.81,204.08 C90.81,204.08 89.49,164.08 95.48,142.79 C95.5933333,142.383333 95.71,141.986667 95.83,141.6 C102.22,120.6 98.11,91.89 105.41,79.6 C105.41,79.6 105.41,57.31 101.2,40.66 C98.996866,32.054642 93.1040335,24.8624581 85.1,21.01 L64.82,11.19 C64.82,11.19 54.05,9.57 52.23,0.91 Z" id="Path"></path>
                </g>
                <g id="Group" opacity="0.1" transform="translate(520.000000, 272.000000)" fill="#000000" fill-rule="nonzero">
                    <path d="M52.23,0.91 C52.23,0.91 36.95,13 32.39,22.57 C32.39,22.57 31.93,33.06 28.29,37.62 C24.65,42.18 20.99,64.99 20.08,92.35 C19.17,119.71 15.08,156.2 15.08,156.2 C15.08,156.2 8.24,191.77 0.94,195.42 C0.94,195.42 34.69,169.88 51.11,178.54 C67.53,187.2 86.23,208.19 91.7,204.99 C91.7,204.99 90.38,164.99 96.37,143.7 C96.4833333,143.293333 96.6,142.896667 96.72,142.51 C103.11,121.51 99,92.8 106.3,80.51 C106.3,80.51 106.3,58.22 102.09,41.57 C99.886866,32.964642 93.9940335,25.7724581 85.99,21.92 L65.71,12.1 C65.71,12.1 54.05,9.57 52.23,0.91 Z" id="Path"></path>
                </g>
                <path d="M572,272.68 C572,272.68 556.95,284.08 552.39,293.68 C552.39,293.68 551.93,304.17 548.29,308.73 C544.65,313.29 540.99,336.1 540.08,363.46 C539.17,390.82 535.08,427.31 535.08,427.31 C535.08,427.31 528.24,462.88 520.94,466.53 C520.94,466.53 554.69,440.99 571.11,449.65 C587.53,458.31 606.2,479.25 611.68,476.09 C611.68,476.09 610.36,436.09 616.35,414.8 C616.463333,414.393333 616.58,413.996667 616.7,413.61 C623.09,392.61 618.98,363.9 626.28,351.61 C626.28,351.61 626.28,329.32 622.07,312.67 C619.866866,304.064642 613.974033,296.872458 605.97,293.02 L585.69,283.2 C585.69,283.2 575.42,280.66 572,272.68 Z" id="Path" fill="#4D8AF0" fill-rule="nonzero"></path>
                <g id="Group" opacity="0.1" transform="translate(588.000000, 296.000000)" fill="#000000" fill-rule="nonzero">
                    <path d="M25.73,3.36 C25.73,3.36 72.02,56.04 65.64,81.12 C65.64,81.12 41.92,75.65 35.54,82.94 C35.54,82.94 30.54,66.06 15.47,56.49 C0.4,46.92 -13.5,-14.43 25.73,3.36 Z" id="Path"></path>
                </g>
                <path d="M613.73,298.45 C613.73,298.45 660.02,351.13 653.64,376.21 C653.64,376.21 629.92,370.74 623.54,378.03 C623.54,378.03 618.54,361.15 603.47,351.58 C588.4,342.01 574.5,280.66 613.73,298.45 Z" id="Path" fill="#4D8AF0" fill-rule="nonzero"></path>
                <g id="Group" opacity="0.1" transform="translate(530.000000, 247.000000)" fill="#000000" fill-rule="nonzero">
                    <path d="M38.58,12.68 C37.86,9 38.46,8.68 39.26,4.68 C42.45,-11.32 0.04,23.84 0.04,23.84 C0.04,23.84 2.4,26.71 5.33,30.93 C7.49159021,31.3757005 9.69293835,31.6000077 11.9,31.6000077 C23.5,31.61 32.85,21.82 38.58,12.68 Z" id="Path"></path>
                </g>
                <circle id="Oval" fill="#FDA57D" fill-rule="nonzero" cx="540.07" cy="243.94" r="32.38"></circle>
                <g id="Group" opacity="0.1" transform="translate(499.000000, 184.000000)" fill="#000000" fill-rule="nonzero">
                    <path d="M11.98,51.08 C7.21,51.72 1.13,50.08 0.21,45.41 C-0.95,39.41 7.03,35.56 8.27,29.6 C8.73,27.36 8.18,25.03 8.45,22.77 C8.99,18.2 12.68,14.69 16.45,12.03 C28.3472289,3.68543639 42.8181586,-0.169698659 57.29,1.15 C59.0975003,1.17294679 60.8579014,1.72959533 62.35,2.75 C63.92,4.04 64.53,6.14 65.6,7.87 C69.3,13.87 77.6,14.54 83.54,18.26 C90.54,22.61 93.95,31.15 94.26,39.35 C94.57,47.55 92.26,55.6 89.91,63.48 C87.91,70.18 85.91,77.06 81.55,82.54 C77.19,88.02 70.06,91.86 63.27,90.21 C66.38,87.97 64.12,82.77 60.75,80.94 C57.38,79.11 53.2,78.8 50.32,76.28 C47.44,73.76 46.58,69.64 45.64,65.89 C44.46,61.16 42.74,56.36 39.29,52.89 C32.5,46.14 20.29,49.96 11.98,51.08 Z" id="Path"></path>
                </g>
                <path d="M511.89,234.63 C507.12,235.27 501.04,233.63 500.12,228.96 C498.96,222.96 506.94,219.11 508.18,213.15 C508.64,210.91 508.09,208.58 508.36,206.32 C508.9,201.75 512.59,198.24 516.36,195.58 C528.257229,187.235436 542.728159,183.380301 557.2,184.7 C559.0075,184.722947 560.767901,185.279595 562.26,186.3 C563.83,187.59 564.44,189.69 565.51,191.42 C569.21,197.42 577.51,198.09 583.45,201.81 C590.45,206.16 593.86,214.7 594.17,222.9 C594.48,231.1 592.17,239.15 589.82,247.03 C587.82,253.73 585.82,260.61 581.46,266.09 C577.1,271.57 569.97,275.41 563.18,273.76 C566.29,271.52 564.03,266.32 560.66,264.49 C557.29,262.66 553.11,262.35 550.23,259.83 C547.35,257.31 546.5,253.19 545.5,249.44 C544.32,244.71 542.6,239.91 539.15,236.44 C532.42,229.68 520.2,233.51 511.89,234.63 Z" id="Path" fill="#72351C" fill-rule="nonzero"></path>
                <path d="M559.62,201.77 L562.55,186.77 C562.608667,186.47942 562.548663,186.177445 562.38336,185.931369 C562.218057,185.685293 561.96119,185.515562 561.67,185.46 L551.32,183.46 C551.02942,183.401333 550.727445,183.461337 550.481369,183.62664 C550.235293,183.791943 550.065562,184.04881 550.01,184.34 L547.08,199.34 L537.08,236.42 L555.43,240 L559.62,201.77 Z" id="Path" fill="#CBDAE3" fill-rule="nonzero"></path>
                <g id="Group" opacity="0.1" transform="translate(528.000000, 228.000000)" fill="#000000" fill-rule="nonzero">
                    <circle id="Oval" cx="16.4" cy="16.63" r="15.96"></circle>
                </g>
                <circle id="Oval" fill="#CBDAE3" fill-rule="nonzero" cx="544.4" cy="245.08" r="15.96"></circle>
                <circle id="Oval" fill="#E9E9E9" fill-rule="nonzero" cx="544.4" cy="245.08" r="10.46"></circle>
                <circle id="Oval" fill="#F48681" fill-rule="nonzero" cx="544.4" cy="245.08" r="3.19"></circle>
                <rect id="Rectangle" fill="#000000" fill-rule="nonzero" opacity="0.05" transform="translate(553.575394, 199.410772) rotate(11.050000) translate(-553.575394, -199.410772) " x="547.190394" y="199.180772" width="12.77" height="1"></rect>
                <rect id="Rectangle" fill="#CBDAE3" fill-rule="nonzero" transform="translate(462.389222, 434.122985) rotate(-25.740000) translate(-462.389222, -434.122985) " x="454.634222" y="415.192985" width="15.51" height="37.86" rx="7.75"></rect>
                <g id="Group" opacity="0.1" transform="translate(447.000000, 413.000000)" fill="#000000" fill-rule="nonzero">
                    <rect id="Rectangle" transform="translate(15.389222, 21.122985) rotate(-25.740000) translate(-15.389222, -21.122985) " x="7.63422227" y="2.19298497" width="15.51" height="37.86" rx="7.75"></rect>
                </g>
                <rect id="Rectangle" fill="#CBDAE3" fill-rule="nonzero" transform="translate(463.827831, 433.429240) rotate(-25.740000) translate(-463.827831, -433.429240) " x="455.847831" y="414.49924" width="15.96" height="37.86" rx="7.98"></rect>
                <rect id="Rectangle" fill="#F2F2F2" fill-rule="nonzero" transform="translate(463.022808, 431.784897) rotate(-25.740000) translate(-463.022808, -431.784897) " x="456.992808" y="417.419897" width="12.06" height="28.73"></rect>
                <ellipse id="Oval" fill="#F2F2F2" fill-rule="nonzero" transform="translate(470.859714, 447.505743) rotate(-25.740000) translate(-470.859714, -447.505743) " cx="470.859714" cy="447.505743" rx="1.37" ry="1.82"></ellipse>
            </g>
        </g>
    </g>
</svg>