<?xml version="1.0" encoding="UTF-8"?>
<svg width="1754px" height="1288px" viewBox="0 0 1754 1288" version="1.1" xmlns="http://www.w3.org/2000/svg" xmlns:xlink="http://www.w3.org/1999/xlink">
    <!-- Generator: Sketch 63.1 (92452) - https://sketch.com -->
    <title>undraw_music_r1se</title>
    <desc>Created with Sketch.</desc>
    <defs>
        <filter x="-0.7%" y="-0.9%" width="101.4%" height="101.9%" filterUnits="objectBoundingBox" id="filter-1">
            <feOffset dx="0" dy="2" in="SourceAlpha" result="shadowOffsetOuter1"></feOffset>
            <feGaussianBlur stdDeviation="2" in="shadowOffsetOuter1" result="shadowBlurOuter1"></feGaussianBlur>
            <feColorMatrix values="0 0 0 0 0   0 0 0 0 0   0 0 0 0 0  0 0 0 0.5 0" type="matrix" in="shadowBlurOuter1" result="shadowMatrixOuter1"></feColorMatrix>
            <feMerge>
                <feMergeNode in="shadowMatrixOuter1"></feMergeNode>
                <feMergeNode in="SourceGraphic"></feMergeNode>
            </feMerge>
        </filter>
        <linearGradient x1="49.9938255%" y1="100.001126%" x2="49.9938255%" y2="0.000793242907%" id="linearGradient-2">
            <stop stop-color="#808080" stop-opacity="0.25" offset="0%"></stop>
            <stop stop-color="#808080" stop-opacity="0.12" offset="54%"></stop>
            <stop stop-color="#808080" stop-opacity="0.1" offset="100%"></stop>
        </linearGradient>
    </defs>
    <g id="illustrations" stroke="none" stroke-width="1" fill="none" fill-rule="evenodd">
        <g id="Music" transform="translate(-360.000000, -186.000000)">
            <g id="undraw_music_r1se" filter="url(#filter-1)" transform="translate(364.000000, 188.000000)">
                <path d="M1236.51,989.08 C1257.19,996.57 1282.42,992.01 1305.89,992.54 C1309.1,992.62 1312.5,992.83 1315.08,994.12 C1317.66,995.41 1318.92,997.51 1320.69,999.31 C1327.26,1005.98 1340.69,1008.13 1352.51,1006.99 C1364.33,1005.85 1375.08,1002.11 1386.2,999.26 C1405.41,994.32 1427.36,992.08 1446.31,997.46 C1448.04872,998.089836 1449.89175,998.381734 1451.74,998.32 C1455.9,997.88 1457.13,994.32 1460.04,992.26 C1465.28,988.57 1476.67,989.57 1478.98,984.7 C1480.33,981.85 1477.22,978.93 1473.84,976.98 C1460.84,969.53 1442.37,968.3 1425.42,969.45 C1408.47,970.6 1391.78,973.77 1374.78,973.78 C1353.56,973.78 1333.05,968.92 1312.04,966.92 C1297.48,965.54 1281.59,965.72 1267.94,969.78 C1253.14,974.19 1249.88,984.07 1236.51,989.08 Z" id="Path" fill="#FFC107" fill-rule="nonzero" opacity="0.1"></path>
                <path d="M1720.29205,755.096679 C1669.52233,669.232429 1660.69895,567.976178 1696.10927,474.674212 C1719.05103,414.222523 1722.63781,320.841759 1703.70623,258.875385 C1642.86726,59.7950017 1361.50222,-58.8188382 1090.20644,29.8033642 C841.463076,111.057894 780.560835,446.297947 589.566074,409.853577 C140.347565,324.138169 -21.4516915,612.160326 2.24440968,846.625676 C17.5502709,998.07666 158.758399,1185.39853 460.393366,1165.72952 C549.201428,1159.93782 636.41807,1179.57619 711.574958,1218.67345 C839.92519,1285.44216 1043.92872,1301.09683 1255.86014,1248.69573 C1574.63573,1169.8752 1790.56761,966.955575 1738.16267,795.463471 C1733.85075,781.341004 1727.85007,767.875192 1720.29205,755.096679" id="Fill-3" fill="#7191F8" opacity="0.676106771"></path>
                <ellipse id="Oval" fill="#FFC107" fill-rule="nonzero" cx="966.68" cy="983.61" rx="173.36" ry="32.29"></ellipse>
                <path d="M451.24,1101.92 C490.56,1115.14 538.53,1107.1 583.14,1108.03 C589.25,1108.16 595.71,1108.54 600.61,1110.82 C605.51,1113.1 607.92,1116.82 611.28,1119.98 C623.78,1131.77 649.4,1135.53 671.78,1133.53 C694.16,1131.53 714.69,1124.91 735.78,1119.86 C772.31,1111.14 814.06,1107.18 850.08,1116.68 C853.38,1117.55 856.86,1118.56 860.41,1118.21 C868.31,1117.43 870.66,1111.11 876.18,1107.49 C886.18,1100.97 907.81,1102.74 912.18,1094.15 C914.75,1089.15 908.84,1083.95 902.41,1080.51 C877.79,1067.35 842.57,1065.18 810.35,1067.21 C778.13,1069.24 746.44,1074.84 714.06,1074.86 C673.78,1074.91 634.78,1066.3 594.78,1062.78 C567.11,1060.34 536.9,1060.64 510.95,1067.78 C482.85,1075.61 476.66,1093.06 451.24,1101.92 Z" id="Path" fill="#FFC107" fill-rule="nonzero" opacity="0.1"></path>
                <path d="M460.31,750.97 C477.67,825.17 514.42,889.31 572.5,920.4 C693.2,985.01 965.41,951.68 1168.57,913.4 C1271.22765,894.11918 1364.40915,840.849964 1433.11,762.17 L460.31,750.97 Z" id="Path" fill="#FFC107" fill-rule="nonzero" opacity="0.1"></path>
                <path d="M1525.67,401.71 L1414.2,401.71 C1408.8815,401.71 1404.57,397.398502 1404.57,392.08 C1404.57,386.761498 1408.8815,382.45 1414.2,382.45 L1433.46,382.45 C1428.25953,382.282439 1424.13044,378.018169 1424.13044,372.815 C1424.13044,367.611831 1428.25953,363.347561 1433.46,363.18 L1419.7,363.18 C1414.49953,363.012439 1410.37044,358.748169 1410.37044,353.545 C1410.37044,348.341831 1414.49953,344.077561 1419.7,343.91 L1477.88,343.91 C1464.97,337.91 1449.93,333.64 1432.5,331.4 C1273.86,311.03 1217.22,324.53 1197.23,338.37 C1172.58,355.47 1145.08,368.05 1115.7,374.11 C1017.78,394.3 834.78,418.6 668.86,366.33 C586.39,340.33 525.11,384.25 488.37,457.61 L1545.02,457.61 C1543.64,436.29 1539.51,416.61 1531.93,399.37 C1530.19187,400.876143 1527.9699,401.706718 1525.67,401.71 Z" id="Path" fill="#FFC107" fill-rule="nonzero" opacity="0.1"></path>
                <path d="M450.85,596.09 C446.568639,639.238488 448.024648,682.76409 455.18,725.53 L1433.86,761.32 C1461.10474,729.982066 1483.97933,695.09831 1501.86,657.62 L450.85,596.09 Z M837.93,688.45 L818.67,688.45 C823.988502,688.45 828.3,692.761498 828.3,698.08 C828.3,703.398502 823.988502,707.71 818.67,707.71 L707.2,707.71 C701.881498,707.71 697.57,703.398502 697.57,698.08 C697.57,692.761498 701.881498,688.45 707.2,688.45 L726.46,688.45 C721.25953,688.282439 717.130443,684.018169 717.130443,678.815 C717.130443,673.611831 721.25953,669.347561 726.46,669.18 L712.7,669.18 C707.49953,669.012439 703.370443,664.748169 703.370443,659.545 C703.370443,654.341831 707.49953,650.077561 712.7,649.91 L824.17,649.91 C829.37047,650.077561 833.499557,654.341831 833.499557,659.545 C833.499557,664.748169 829.37047,669.012439 824.17,669.18 L837.93,669.18 C841.446276,669.066704 844.745039,670.877943 846.536698,673.905647 C848.328358,676.93335 848.328358,680.69665 846.536698,683.724353 C844.745039,686.752057 841.446276,688.563296 837.93,688.45 Z" id="Shape" fill="#FFC107" fill-rule="nonzero" opacity="0.1"></path>
                <path d="M1545.07,458.28 L476.58,484.27 C463.58,517.69 454.97,555.46 450.99,594.61 L1526.34,594.61 C1533.3586,571.611673 1538.55139,548.095345 1541.87,524.28 C1545.07,501.27 1546.35,479.01 1545.07,458.28 Z M667.93,543.45 L648.67,543.45 C652.110468,543.45 655.289591,545.285467 657.009825,548.265 C658.730059,551.244532 658.730059,554.915468 657.009825,557.895 C655.289591,560.874533 652.110468,562.71 648.67,562.71 L537.2,562.71 C533.759532,562.71 530.580409,560.874533 528.860175,557.895 C527.139941,554.915468 527.139941,551.244532 528.860175,548.265 C530.580409,545.285467 533.759532,543.45 537.2,543.45 L556.46,543.45 C551.25953,543.282439 547.130443,539.018169 547.130443,533.815 C547.130443,528.611831 551.25953,524.347561 556.46,524.18 L542.7,524.18 C537.49953,524.012439 533.370443,519.748169 533.370443,514.545 C533.370443,509.341831 537.49953,505.077561 542.7,504.91 L654.17,504.91 C659.37047,505.077561 663.499557,509.341831 663.499557,514.545 C663.499557,519.748169 659.37047,524.012439 654.17,524.18 L667.93,524.18 C671.446276,524.066704 674.745039,525.877943 676.536698,528.905647 C678.328358,531.93335 678.328358,535.69665 676.536698,538.724353 C674.745039,541.752057 671.446276,543.563296 667.93,543.45 L667.93,543.45 Z" id="Shape" fill="#FFC107" fill-rule="nonzero" opacity="0.1"></path>
                <g id="Group" opacity="0.1" transform="translate(1065.000000, 691.000000)">
                    <path d="M7.89,220.01 C7.89,220.01 36.09,150.53 88.78,124.73 C110.941057,114.060156 129.040967,96.4866097 140.36,74.65 C145.652397,64.2441753 149.980479,53.3754332 153.29,42.18" id="Path" stroke="#535461" stroke-width="2"></path>
                    <path d="M186.35,25.73 C180.86,32.63 152.45,42.73 152.45,42.73 C152.45,42.73 155.87,12.78 161.36,5.88 C167.022688,-0.377748251 176.572183,-1.16119163 183.179064,4.08995754 C189.785945,9.34110671 191.178137,18.821003 186.36,25.75 L186.35,25.73 Z" id="Path" fill="#FFC107" fill-rule="nonzero"></path>
                    <path d="M176.6,80.39 C168.24,83.2 138.91,76.21 138.91,76.21 C138.91,76.21 158.06,52.93 166.42,50.12 C174.577426,47.9399328 183.02482,52.4740642 185.716363,60.4773069 C188.407906,68.4805495 184.417024,77.1977545 176.6,80.39 Z" id="Path" fill="#FFC107" fill-rule="nonzero"></path>
                    <path d="M123.78,145 C115.14,143.2 93.36,122.37 93.36,122.37 C93.36,122.37 121.64,111.94 130.27,113.73 C136.167654,114.570607 141.109947,118.618172 143.096492,124.23445 C145.083038,129.850728 143.784851,136.105626 139.727372,140.467484 C135.669892,144.829342 129.525065,146.575807 123.78,145 Z" id="Path" fill="#FFC107" fill-rule="nonzero"></path>
                    <path d="M72.78,184.87 C63.97,184.56 38.98,167.71 38.98,167.71 C38.98,167.71 65.09,152.65 73.9,152.96 C79.8668383,152.773552 85.4412326,155.924426 88.3587671,161.13268 C91.2763015,166.340934 91.0516933,172.740264 87.7761821,177.731151 C84.5006708,182.722037 78.719083,185.47433 72.78,184.87 L72.78,184.87 Z" id="Path" fill="#FFC107" fill-rule="nonzero"></path>
                    <path d="M111.61,56.68 C112.74,65.43 131.84,88.75 131.84,88.75 C131.84,88.75 144.41,61.35 143.28,52.6 C141.659117,44.3262418 133.896038,38.7299202 125.534109,39.8071754 C117.17218,40.8844305 111.080969,48.2655801 111.61,56.68 L111.61,56.68 Z" id="Path" fill="#FFC107" fill-rule="nonzero"></path>
                    <path d="M52.56,104.07 C56.25,112.07 81.45,128.62 81.45,128.62 C81.45,128.62 85.25,98.72 81.56,90.71 C79.4273478,85.133794 74.3675531,81.208747 68.4362097,80.52945 C62.5048663,79.850153 56.6886797,82.52961 53.3505358,87.4792639 C50.0123918,92.4289179 49.7076058,98.8253717 52.56,104.07 Z" id="Path" fill="#FFC107" fill-rule="nonzero"></path>
                    <path d="M1.48,158.01 C3.78,166.53 25.78,187.09 25.78,187.09 C25.78,187.09 34.57,158.26 32.29,149.74 C31.129472,143.884025 26.8053086,139.161183 21.0741178,137.490038 C15.342927,135.818893 9.15803391,137.477423 5.03193208,141.791882 C0.905830251,146.106341 -0.475145337,152.359063 1.45,158.01 L1.48,158.01 Z" id="Path" fill="#FFC107" fill-rule="nonzero"></path>
                    <path d="M186.35,25.73 C180.86,32.63 152.45,42.73 152.45,42.73 C152.45,42.73 155.87,12.78 161.36,5.88 C167.022688,-0.377748251 176.572183,-1.16119163 183.179064,4.08995754 C189.785945,9.34110671 191.178137,18.821003 186.36,25.75 L186.35,25.73 Z" id="Path" fill="#000000" fill-rule="nonzero" opacity="0.25"></path>
                    <path d="M176.6,80.39 C168.24,83.2 138.91,76.21 138.91,76.21 C138.91,76.21 158.06,52.93 166.42,50.12 C174.577426,47.9399328 183.02482,52.4740642 185.716363,60.4773069 C188.407906,68.4805495 184.417024,77.1977545 176.6,80.39 Z" id="Path" fill="#000000" fill-rule="nonzero" opacity="0.25"></path>
                    <path d="M123.78,145 C115.14,143.2 93.36,122.37 93.36,122.37 C93.36,122.37 121.64,111.94 130.27,113.73 C136.167654,114.570607 141.109947,118.618172 143.096492,124.23445 C145.083038,129.850728 143.784851,136.105626 139.727372,140.467484 C135.669892,144.829342 129.525065,146.575807 123.78,145 Z" id="Path" fill="#000000" fill-rule="nonzero" opacity="0.25"></path>
                    <path d="M72.78,184.87 C63.97,184.56 38.98,167.71 38.98,167.71 C38.98,167.71 65.09,152.65 73.9,152.96 C79.8668383,152.773552 85.4412326,155.924426 88.3587671,161.13268 C91.2763015,166.340934 91.0516933,172.740264 87.7761821,177.731151 C84.5006708,182.722037 78.719083,185.47433 72.78,184.87 L72.78,184.87 Z" id="Path" fill="#000000" fill-rule="nonzero" opacity="0.25"></path>
                    <path d="M111.61,56.68 C112.74,65.43 131.84,88.75 131.84,88.75 C131.84,88.75 144.41,61.35 143.28,52.6 C141.659117,44.3262418 133.896038,38.7299202 125.534109,39.8071754 C117.17218,40.8844305 111.080969,48.2655801 111.61,56.68 L111.61,56.68 Z" id="Path" fill="#000000" fill-rule="nonzero" opacity="0.25"></path>
                    <path d="M52.56,104.07 C56.25,112.07 81.45,128.62 81.45,128.62 C81.45,128.62 85.25,98.72 81.56,90.71 C79.4273478,85.133794 74.3675531,81.208747 68.4362097,80.52945 C62.5048663,79.850153 56.6886797,82.52961 53.3505358,87.4792639 C50.0123918,92.4289179 49.7076058,98.8253717 52.56,104.07 Z" id="Path" fill="#000000" fill-rule="nonzero" opacity="0.25"></path>
                    <path d="M1.48,158.01 C3.78,166.53 25.78,187.09 25.78,187.09 C25.78,187.09 34.57,158.26 32.29,149.74 C31.129472,143.884025 26.8053086,139.161183 21.0741178,137.490038 C15.342927,135.818893 9.15803391,137.477423 5.03193208,141.791882 C0.905830251,146.106341 -0.475145337,152.359063 1.45,158.01 L1.48,158.01 Z" id="Path" fill="#000000" fill-rule="nonzero" opacity="0.25"></path>
                </g>
                <g id="Group" opacity="0.1" transform="translate(1022.000000, 546.000000)">
                    <path d="M30.87,263.39 C30.87,263.39 34.43,188.47 75.56,146.68 C92.9287692,129.269857 104.175854,106.691466 107.61,82.34 C109.156833,70.7651563 109.635517,59.0725494 109.04,47.41" id="Path" stroke="#535461" stroke-width="2"></path>
                    <path d="M134.78,20.93 C131.89,29.26 108.42,48.18 108.42,48.18 C108.42,48.18 101.72,18.79 104.61,10.46 C107.879493,2.67783207 116.632164,-1.22578726 124.60669,1.54164028 C132.581216,4.30906781 137.034134,12.7954687 134.78,20.93 L134.78,20.93 Z" id="Path" fill="#FFC107" fill-rule="nonzero"></path>
                    <path d="M143.78,75.72 C136.78,81.14 106.85,84.28 106.85,84.28 C106.85,84.28 117.19,55.96 124.15,50.54 C128.603416,46.5588298 134.903702,45.3899917 140.488796,47.508803 C146.07389,49.6276142 150.013587,54.681184 150.705778,60.6144381 C151.39797,66.5476922 148.72737,72.3724394 143.78,75.72 Z" id="Path" fill="#FFC107" fill-rule="nonzero"></path>
                    <path d="M115.29,154.2 C106.55,155.37 79.08,142.94 79.08,142.94 C79.08,142.94 102.31,123.72 111.08,122.55 C119.494361,121.974182 126.910837,128.028839 128.030701,136.388202 C129.150565,144.747564 123.589225,152.540798 115.32,154.2 L115.29,154.2 Z" id="Path" fill="#FFC107" fill-rule="nonzero"></path>
                    <path d="M80.4,208.74 C71.98,211.37 42.81,203.74 42.81,203.74 C42.81,203.74 62.45,180.87 70.87,178.24 C79.0705266,176.238929 87.4149658,180.952705 89.9339522,189.009232 C92.4529386,197.065759 88.279854,205.693315 80.4,208.72 L80.4,208.74 Z" id="Path" fill="#FFC107" fill-rule="nonzero"></path>
                    <path d="M74.56,74.9 C78.56,82.78 104.28,98.45 104.28,98.45 C104.28,98.45 107.05,68.45 103.09,60.56 C98.8187602,53.2930419 89.6421419,50.5861937 82.1107321,54.3716972 C74.5793224,58.1572008 71.276529,67.1365608 74.56,74.9 Z" id="Path" fill="#FFC107" fill-rule="nonzero"></path>
                    <path d="M34.57,139.2 C40.7,145.53 69.96,152.78 69.96,152.78 C69.96,152.78 63.63,123.31 57.49,116.97 C53.6269278,112.418552 47.551258,110.396298 41.7310982,111.724734 C35.9109383,113.05317 31.314405,117.511327 29.8087389,123.288175 C28.3030728,129.065023 30.1387242,135.19965 34.57,139.2 L34.57,139.2 Z" id="Path" fill="#FFC107" fill-rule="nonzero"></path>
                    <path d="M4.26,207.03 C9.26,214.3 36.86,226.39 36.86,226.39 C36.86,226.39 35.6,196.27 30.62,188.99 C27.6026497,183.818237 21.9501833,180.764012 15.9706204,181.074427 C9.9910575,181.384842 4.6852289,185.007942 2.21961475,190.46434 C-0.245999391,195.920738 0.541283712,202.297167 4.26,206.99 L4.26,207.03 Z" id="Path" fill="#FFC107" fill-rule="nonzero"></path>
                </g>
                <rect id="Rectangle" fill="#535461" fill-rule="nonzero" x="809.17" y="425.29" width="6.79" height="95.96"></rect>
                <rect id="Rectangle" fill="#535461" fill-rule="nonzero" x="809.17" y="554.21" width="6.79" height="54.28"></rect>
                <rect id="Rectangle" fill="#535461" fill-rule="nonzero" x="814.02" y="331.27" width="305.33" height="663" rx="47.1"></rect>
                <rect id="Rectangle" fill="#FFC107" fill-rule="nonzero" x="814.02" y="362.29" width="305.33" height="603.87" rx="47.1"></rect>
                <rect id="Rectangle" fill="#EAEAF3" fill-rule="nonzero" x="941.96" y="345.81" width="50.4" height="6.79" rx="3.08"></rect>
                <circle id="Oval" fill="#EAEAF3" fill-rule="nonzero" cx="1009.81" cy="349.69" r="4.85"></circle>
                <path d="M863.779999,843.68 L863.779999,825.68 C863.779999,825.392812 864.012812,825.16 864.3,825.16 L866.3,825.16 C866.437011,825.16 866.56827,825.215076 866.664207,825.312894 C866.760143,825.410711 866.812686,825.543015 866.81,825.68 L866.81,833.18 L875.13,825.48 C875.538202,825.144412 876.103019,825.073514 876.581499,825.297801 C877.05998,825.522089 877.366806,826.00157 877.37,826.53 L877.37,842.83 C877.366806,843.35843 877.05998,843.837911 876.581499,844.062199 C876.103019,844.286486 875.538202,844.215588 875.13,843.88 L866.779999,836.22 L866.779999,843.68 C866.782686,843.816985 866.730143,843.949289 866.634207,844.047106 C866.53827,844.144924 866.407011,844.2 866.27,844.2 L864.27,844.2 C863.99459,844.184085 863.779541,843.955869 863.779999,843.68 L863.779999,843.68 Z" id="Path" fill="#535461" fill-rule="nonzero"></path>
                <path d="M1064.7801,825.64 L1064.7801,843.64 C1064.78269,843.776985 1064.73014,843.909289 1064.63421,844.007106 C1064.53827,844.104924 1064.40701,844.159999 1064.27,844.159999 L1062.22,844.159999 C1062.08299,844.159999 1061.95173,844.104924 1061.85579,844.007106 C1061.75986,843.909289 1061.70731,843.776985 1061.71,843.64 L1061.71,836.14 L1053.39,843.84 C1052.98386,844.178024 1052.4187,844.250206 1051.94064,844.025112 C1051.46258,843.800018 1051.15818,843.318397 1051.15999,842.79 L1051.15999,826.53 C1051.15818,826.001603 1051.46258,825.519982 1051.94064,825.294888 C1052.4187,825.069794 1052.98386,825.141976 1053.39,825.48 L1061.71,833.14 L1061.71,825.68 C1061.70731,825.543015 1061.75986,825.410711 1061.85579,825.312894 C1061.95173,825.215076 1062.08299,825.159999 1062.22,825.159999 L1064.27,825.159999 C1064.54035,825.159532 1064.7641,825.370114 1064.7801,825.64 L1064.7801,825.64 Z" id="Path" fill="#535461" fill-rule="nonzero"></path>
                <path d="M960.86,844.53 L956.78,844.53 C955.675431,844.53 954.78,843.634569 954.78,842.53 L954.78,827.53 C954.78,826.425431 955.675431,825.53 956.78,825.53 L960.85,825.53 C961.954569,825.53 962.85,826.425431 962.85,827.53 L962.85,842.46 C962.868942,843.000723 962.667998,843.526051 962.293026,843.916097 C961.918054,844.306144 961.40105,844.527626 960.86,844.53 Z M973.76,842.53 L973.76,827.53 C973.76,826.425431 972.864569,825.53 971.76,825.53 L967.69,825.53 C966.585431,825.53 965.69,826.425431 965.69,827.53 L965.69,842.46 C965.69,843.564569 966.585431,844.4601 967.69,844.4601 L971.76,844.4601 C972.29389,844.465339 972.807751,844.256985 973.18716,843.881332 C973.56657,843.505679 973.78,842.993916 973.78,842.46 L973.76,842.53 Z" id="Shape" fill="#535461" fill-rule="nonzero"></path>
                <rect id="Rectangle" fill="#EAEAF3" fill-rule="nonzero" x="844.25" y="801.31" width="240" height="2.67"></rect>
                <circle id="Oval" fill="#535461" fill-rule="nonzero" cx="918.36" cy="802.64" r="6.33"></circle>
                <rect id="Rectangle" fill="#535461" fill-rule="nonzero" x="844.25" y="801.31" width="74.11" height="2.67"></rect>
                <path d="M774.78,701.62 C774.78,701.62 766.22,679.81 737.12,660.35 C708.02,640.89 708.36,629.35 708.36,629.35 C708.36,629.35 702.89,588.53 695.7,577.13 C688.51,565.73 684.4,549.28 684.4,549.28 C684.4,549.28 684.1,549.68 683.61,550.28 C683.61,550 683.55,549.71 683.51,549.4 C682.78,543.36 680.9,532.03 677.78,535.53 C677.78,535.53 677.07,536.11 675.88,537.03 L675.39,536.4 C672.52,532.69 667.84,526.51 667.84,525.47 C667.84,523.96 632.07,496.47 622.99,492.24 C616.59,489.24 602.84,481.55 595.32,477.24 C591.796613,475.243701 587.68806,474.536549 583.7,475.24 C572.7,477.15 551.7,482.1 554.52,491.56 C558.28,504.31 572.83,500.79 582.76,493.56 C582.76,493.56 591.5,490.21 601.42,500.11 C611.34,510.01 652.1,539.2 652.1,539.2 L655.49,548.6 L655.81,549.5 C654.630801,549.964911 653.365978,550.172874 652.1,550.11 C649.02,549.72 650.28,552.74 652.53,556.11 C652.84,556.57 653.17,557.04 653.53,557.5 C653.12,557.34 652.72,557.19 652.3,557 C652.3,557 652.54,557.46 652.95,558.28 L652.3,558.01 C652.3,558.01 668.05,588.21 669.07,593.92 C669.517187,596.416138 669.76132,598.944416 669.8,601.48 C669.8,604.11 669.42,606.16 668.73,606.67 C667.36,607.67 663.25,618.08 663.25,618.08 L647.16,618.77 L647.16,618.77 C646.68,618.72 646.16,618.67 645.72,618.6 L644.72,618.45 C644.72,618.32 644.72,618.2 644.72,618.07 C644.720272,611.3814 642.421918,604.895875 638.21,599.7 L638.45,599.7 C641.85,592.3 634.53,584.58 632.94,576.58 C632.562555,573.97432 632.395349,571.342497 632.44,568.71 C632.404658,567.659351 632.314535,566.61126 632.17,565.57 C630.52,554.52 620.02,547.15 609.79,542.95 C603.79,540.46 596.79,538.61 590.85,541.27 C583.91,544.35 580.56,552.46 574.3,556.77 C564.3,563.66 550.69,558.91 538.75,560.95 C534.12,561.74 529.43,563.79 526.75,567.7 C524.39,571.12 523.85,575.49 523.75,579.65 C523.46,590.72 525.68,602.03 522.75,612.65 C518,630.01 501.43,640.65 489.04,653.57 C481.143444,661.805267 474.717045,671.333249 470.04,681.74 C468.27,685.69 466.9,690.74 469.75,694 C471.38,695.83 473.96,696.49 475.66,698.24 C477.83,700.47 478.12,703.96 477.72,707.06 C476.23,718.59 467.57,727.54 460.72,736.9 C453.87,746.26 448.66,759.12 454.46,769.14 C459.46,777.77 470.4,780.35 480.14,782.14 C483.24,782.7 486.53,783.25 489.47,782.14 C492.12,781.14 494.09,778.84 495.83,776.55 C499.845448,771.277333 503.178517,765.518381 505.75,759.41 C507.01,756.41 508.26,753.12 511.03,751.41 C513.48,749.94 516.54,750.13 519.4,750.36 L540.78,752.12 C542.584892,752.404966 544.430844,752.278484 546.18,751.75 C548.199123,750.786174 549.844063,749.183412 550.86,747.19 C552.492234,744.32717 553.77475,741.278676 554.68,738.11 C557.25,729.79 558.68,720.87 564.68,714.91 C570.1,709.6 578.12,708.01 585.68,707.91 C590.3,707.91 594.91,708.33 599.52,708.52 C600.81,708.58 602.12,708.62 603.41,708.62 C604.28,708.62 605.15,708.62 606.02,708.57 C607.73,720.43 609.84,737.99 608.19,742.85 C605.62,750.41 605.79,755.27 605.79,755.27 L606.97,755.85 C606.86,756.12 606.75,756.4 606.64,756.7 C605.4,760.05 604.53,764.98 608.36,768.11 C608.988962,768.610524 609.657865,769.058689 610.36,769.45 L610.07,770.29 C606.34,781.11 597.78,806.42 596.98,813.15 C595.98,821.79 583.63,848.06 583.63,848.06 C583.63,848.06 550.08,875.65 580.29,885.64 C580.29,885.64 583.23,875.21 589.54,867.12 C593.313946,862.312613 596.193056,856.866014 598.04,851.04 C598.845543,848.508139 600.032524,846.113945 601.56,843.94 C604.25,840.12 609.94,828.39 615.26,816.94 L619.52,817.85 C617.38,827.1 616.81,843.05 624.76,868.42 C624.76,868.42 624.93,869.42 625.2,871.01 C625.029174,870.888604 624.844551,870.787901 624.65,870.71 C620.85,869.14 614.89,874.55 611.33,882.81 C608.08,890.36 607.95,897.67 610.88,900.06 C611.146514,900.288153 611.446734,900.473682 611.77,900.61 C612.825868,900.995943 613.989857,900.960128 615.02,900.51 C615.068387,900.494281 615.115247,900.474198 615.16,900.45 C616.00467,900.103483 616.795892,899.638851 617.51,899.07 C620.37,898.36 623.29,896.99 626.23,897.14 C627.005086,897.181146 627.773166,897.3086 628.52,897.52 C628.72,900.52 628.82,903.43 628.74,905.91 C628.35,919.13 628.11,924.91 628.11,924.91 C628.11,924.91 626.17,934.72 624.63,937.11 C623.09,939.5 621.43,990.11 627.84,1014.38 C627.84,1014.38 632.21,1037.91 630.28,1041.93 L630.28,1042.01 C629.460515,1044.13191 628.978015,1046.36895 628.85,1048.64 C628.686252,1050.59547 628.622836,1052.55804 628.66,1054.52 L619.41,1082.83 C619.41,1082.83 619.16,1083.33 618.83,1084.15 C617.817155,1086.54694 617.438336,1089.16425 617.73,1091.75 C617.91263,1092.94914 618.378886,1094.08735 619.09,1095.07 L619.09,1095.07 C619.09,1095.07 617.78,1107.53 631.84,1107.31288 C645.9,1107.09 648.36,1097.67 648.36,1097.67 L647.36,1093.26 C647.470965,1092.90724 647.528272,1092.5398 647.53,1092.17 C647.53,1092.17 647.43,1090.62 647.32,1088.29 C647.07,1082.16 646.78,1070.65 648.18,1068.01 C650.1,1064.36 648.94,1048.76 648.94,1048.76 L648.43,1044.51 L647.9,1040.07 L647.15,1033.78 C647.15,1033.78 646.93,1006.98 649.28,1003.08 C651.46,999.47 658.54,966.58 656.44,944.54 C656.124615,940.927261 656.556935,937.288284 657.71,933.85 C659.81,927.37 662.71,916.58 661.91,908.95 C661.83,908.22 661.78,907.28 661.76,906.15 C665.015902,911.185023 670.457483,914.387698 676.44,914.79 L676.16,914.79 L676.92,914.79 C681.247633,914.994098 685.511426,913.685969 688.98,911.09 C696.17,905.77 703.98,896.9 708.32,882.26 C709.499188,878.177277 710.925144,874.169906 712.59,870.26 C716.59,861.11 723.43,843.92 724.91,831.61 L725.34,832.03 C725.34,832.03 734.94,803.47 734.67,792.31 C734.799474,790.84315 734.594321,789.366045 734.07,787.99 L733.96,787.11 C733.991158,787.062291 734.028106,787.018625 734.07,786.98 C734.07,786.98 730.28,757.08 728.94,731.58 L741.26,722.39 C741.26,722.39 735.44,710.39 739.2,708.14 C742.96,705.89 748.45,720.04 748.45,720.04 C748.45,720.04 785.06,722.09 774.78,701.62 Z M637.32,734.67 L645.13,726.82 C645.88,731.13 644.06,736.3 637.13,742.22 L636.89,742.3 C637.32,738 637.32,734.67 637.32,734.67 Z M627.97,648.38 C627.97,648.38 627.07,649.07 625.61,650.24 C625.36,648.82 625.1,647.39 624.82,645.97 C625.26,646.24 625.69,646.51 626.1,646.81 C626.761548,647.286052 627.386619,647.810845 627.97,648.38 L627.97,648.38 Z M667.41,833.08 L668.41,824.77 L670.6,826.2 C668.6161,831.981116 667.137228,837.923372 666.18,843.96 C666.7,838.65 667.11,834.68 667.28,832.96 L667.41,833.08 Z M665.41,859.67 C665.522068,861.229124 665.328441,862.795125 664.84,864.28 L664.3,864.28 C664.64,860.41 664.98,856.63 665.3,853.1 C665.235708,855.290959 665.282434,857.483768 665.44,859.67 L665.41,859.67 Z" id="Shape" fill="url(#linearGradient-2)" fill-rule="nonzero"></path>
                <path d="M612.25,887.83 L612.25,898.83 C616.64,900.46 621.25,896.67 625.93,896.91 C628.66,897.04 631.14,898.56 633.84,899.02 C634.518365,899.199318 635.240504,899.094608 635.84,898.73 C636.334663,898.221073 636.626287,897.548916 636.66,896.84 C637.66,890.99 638.76,876.84 629.66,875.84 C622.94,875.07 620.37,887.05 612.25,887.83 Z" id="Path" fill="#FFB9B9" fill-rule="nonzero"></path>
                <path d="M612.25,887.83 L612.25,898.83 C616.64,900.46 621.25,896.67 625.93,896.91 C628.66,897.04 631.14,898.56 633.84,899.02 C634.518365,899.199318 635.240504,899.094608 635.84,898.73 C636.334663,898.221073 636.626287,897.548916 636.66,896.84 C637.66,890.99 638.76,876.84 629.66,875.84 C622.94,875.07 620.37,887.05 612.25,887.83 Z" id="Path" fill="#000000" fill-rule="nonzero" opacity="0.1"></path>
                <path d="M624.83,888.31 C622.28,894.31 618.47,898.84 615.16,900.18 C615.115247,900.204198 615.068387,900.224281 615.02,900.24 C614.018823,900.681453 612.884679,900.713754 611.86,900.33 C611.541197,900.201187 611.246911,900.018527 610.99,899.79 C608.14,897.41 608.26,890.15 611.43,882.65 C614.89,874.45 620.7,869.07 624.43,870.65 C628.16,872.23 628.3,880.11 624.83,888.31 Z" id="Path" fill="#4C4C78" fill-rule="nonzero"></path>
                <path d="M619.13,1090.9 L618.94,1093.52 C618.94,1093.52 617.71,1105.82 631.38,1105.65 C645.05,1105.48 647.46,1096.07 647.46,1096.07 L646.05,1089.82 L619.13,1090.9 Z" id="Path" fill="#4C4C78" fill-rule="nonzero"></path>
                <path d="M666,832.23 C666,832.23 659.38,897.1 660.63,908.6 C661.45,916.18 658.63,926.9 656.54,933.34 C655.4201,936.75784 655.001743,940.366596 655.31,943.95 C657.31,965.85 650.46,998.52 648.31,1002.1 C646.02,1005.98 646.23,1032.6 646.23,1032.6 L646.96,1038.85 L647.48,1043.26 L647.97,1047.48 C647.97,1047.48 649.1,1062.98 647.23,1066.6 C645.87,1069.23 646.15,1080.66 646.4,1086.75 C646.5,1089.06 646.6,1090.6 646.6,1090.6 C646.584028,1091.67886 646.179231,1092.7157 645.46,1093.52 C643.77,1095.6 639.58,1097.96 629.23,1097.6 C620.96,1097.31 618.23,1093.86 617.59,1090.22 C617.305499,1087.65339 617.673536,1085.05649 618.66,1082.67 C618.98,1081.85 619.23,1081.36 619.23,1081.36 L628.23,1053.23 C628.192831,1051.28136 628.256249,1049.3321 628.42,1047.39 C628.540351,1045.13799 629.009257,1042.91828 629.81,1040.81 L629.81,1040.73 C631.69,1036.73 627.43,1013.36 627.43,1013.36 C621.19,989.23 622.81,938.98 624.31,936.6 C625.81,934.22 627.78,924.53 627.78,924.53 C627.78,924.53 628.02,918.78 628.4,905.65 C628.78,892.52 624.52,868.41 624.52,868.41 C610.4,822.41 623.9,807.53 623.9,807.53 L666.02,817.41 L666,832.23 Z" id="Path" fill="#FFB9B9" fill-rule="nonzero"></path>
                <path d="M647.51,1043.26 C642.93,1044.78 633.51,1047.67 628.45,1047.39 C628.570351,1045.13799 629.039257,1042.91828 629.84,1040.81 C633.97,1041.64 640.97,1042.25 646.99,1038.81 L647.51,1043.26 Z" id="Path" fill="#4C4C78" fill-rule="nonzero"></path>
                <path d="M645.49,1093.53 C639.27,1090.27 627.55,1085.63 617.62,1090.23 C617.335499,1087.66339 617.703536,1085.06649 618.69,1082.68 C624.46,1081.91 636.69,1081.19 646.43,1086.76 C646.53,1089.07 646.63,1090.61 646.63,1090.61 C646.614028,1091.68886 646.209231,1092.7257 645.49,1093.53 L645.49,1093.53 Z" id="Path" fill="#4C4C78" fill-rule="nonzero"></path>
                <path d="M626.71,765.65 L626.71,791.31 C626.71,791.31 607.55,835.9 601.92,844.06 C600.426889,846.223118 599.270411,848.600136 598.49,851.11 C596.703102,856.893149 593.89921,862.311297 590.21,867.11 C584.07,875.11 581.21,885.5 581.21,885.5 C551.8,875.58 584.46,848.17 584.46,848.17 C584.46,848.17 596.46,822.08 597.46,813.5 C598.24,806.81 606.57,781.67 610.2,770.92 C611.2,767.92 611.88,766 611.88,766 L626.71,765.65 Z" id="Path" fill="#FFB9B9" fill-rule="nonzero"></path>
                <path d="M668,865.53 C668,865.53 657.71,858.53 653.71,877.53 C649.71,896.53 665.05,901.53 665.05,901.53 L668,865.53 Z" id="Path"></path>
                <path d="M668,865.53 C668,865.53 657.71,858.53 653.71,877.53 C649.71,896.53 665.05,901.53 665.05,901.53 L668,865.53 Z" id="Path" fill="#000000" fill-rule="nonzero" opacity="0.05"></path>
                <path d="M672.21,818.32 C672.21,818.32 662.67,839.22 664.09,859.65 C664.235514,861.535487 663.92689,863.428383 663.19,865.17 C659.023899,875.177301 657.174454,885.997071 657.78,896.82 C657.78,897.02 657.78,897.22 657.78,897.42 C658.239152,904.096911 662.314241,909.987627 668.400229,912.771998 C674.486217,915.556369 681.607787,914.788182 686.96,910.77 C693.96,905.48 701.57,896.67 705.79,882.13 C706.944019,878.079256 708.333039,874.09918 709.95,870.21 C714.95,858.52 724.58,833.6 721.69,822.82 C717.88,808.53 672.21,818.32 672.21,818.32 Z" id="Path" fill="#FFB9B9" fill-rule="nonzero"></path>
                <path d="M721.16,822.82 C719.49,816.57 709.87,814.92 699.56,815.03 C709.09,815.15 717.56,817.03 719.16,822.82 C722.04,833.6 712.39,858.52 707.42,870.21 C705.795746,874.096391 704.406574,878.076902 703.26,882.13 C699.03,896.67 691.43,905.49 684.43,910.77 C681.56153,912.957472 678.101969,914.232597 674.5,914.43 C678.786625,914.677822 683.019853,913.379112 686.43,910.77 C693.43,905.49 701.03,896.67 705.26,882.13 C706.406574,878.076902 707.795746,874.096391 709.42,870.21 C714.39,858.53 724.04,833.6 721.16,822.82 Z" id="Path" fill="#000000" fill-rule="nonzero" opacity="0.1"></path>
                <path d="M620.13,785.61 C620.13,785.61 612.75,814.61 611.13,816.36 C611.13,816.36 659.13,825.98 666,833.23 L667,824.98 L670.38,827.23 C670.38,827.23 698.13,807.48 722.38,832.23 C722.38,832.23 734.25,796.23 730.88,789.48 C727.51,782.73 687,788.61 687,788.61 L620.13,785.61 Z" id="Path" fill="#000000" fill-rule="nonzero" opacity="0.1"></path>
                <path d="M620.13,784.61 C620.13,784.61 612.75,813.61 611.13,815.36 C611.13,815.36 659.13,824.98 666,832.23 L667,823.98 L670.38,826.23 C670.38,826.23 698.13,806.48 722.38,831.23 C722.38,831.23 734.25,795.23 730.88,788.48 C727.51,781.73 687,787.61 687,787.61 L620.13,784.61 Z" id="Path" fill="#4C4C78" fill-rule="nonzero"></path>
                <path d="M618.78,611.84 C618.65327,613.345714 618.683432,614.860524 618.87,616.36 C619.2,619.36 619.66,622.36 620.17,625.36 C620.32,626.24 620.48,627.11 620.64,627.98 C622.22,636.56 624.26,645.07 625.64,653.69 C626.364468,658.100703 626.851835,662.54709 627.1,667.01 C627.664348,674.913578 626.945037,682.856392 624.97,690.53 C623.814294,694.800409 622.063823,698.887087 619.77,702.67 C618.845877,704.319135 617.625455,705.783641 616.17,706.99 C615.849511,707.219728 615.515582,707.430103 615.17,707.62 C613.094786,708.704621 610.808766,709.3256 608.47,709.44 C606.88,709.59 605.29,709.64 603.69,709.64 C602.43,709.64 601.16,709.64 599.9,709.54 C595.41,709.35 590.9,708.9 586.43,708.93 C579.08,708.99 571.27,710.57 565.99,715.85 C560.07,721.77 558.72,730.63 556.22,738.85 C555.334292,741.984484 554.08585,745.004909 552.5,747.85 C551.519926,749.820667 549.917093,751.412955 547.94,752.38 C546.238989,752.909065 544.438325,753.035727 542.68,752.75 L521.82,751 C519.04,750.77 516.06,750.58 513.67,752.05 C510.98,753.7 509.76,756.98 508.53,759.95 C506.032393,765.997755 502.787135,771.708871 498.87,776.95 C497.18,779.22 495.26,781.47 492.68,782.5 C489.82,783.63 486.62,783.09 483.6,782.5 C474.12,780.74 463.48,778.18 458.6,769.61 C452.95,759.61 458.07,746.88 464.69,737.61 C471.31,728.34 479.78,719.53 481.23,708.06 C481.62,704.98 481.34,701.51 479.23,699.3 C477.57,697.56 475.06,696.9 473.48,695.09 C470.7,691.88 472.03,686.83 473.76,682.91 C478.296284,672.593852 484.555703,663.125254 492.27,654.91 C504.34,642.09 520.47,631.51 525.09,614.27 C527.92,603.68 525.76,592.44 526.04,581.45 C526.14,577.31 526.67,572.97 528.97,569.57 C531.6,565.69 536.16,563.65 540.67,562.87 C552.29,560.87 565.52,565.56 575.28,558.72 C581.37,554.44 584.64,546.38 591.39,543.32 C597.2,540.68 603.95,542.52 609.83,544.99 C619.83,549.16 630.01,556.48 631.62,567.46 C631.761645,568.494685 631.848433,569.536142 631.88,570.58 C631.837326,573.195499 632.001168,575.810286 632.37,578.4 C633.92,586.34 641.04,594.01 637.73,601.4 C627.55,602.66 619.6,602.69 618.78,611.84 Z" id="Path" fill="#B96B6B" fill-rule="nonzero"></path>
                <path d="M624.97,690.53 C621.36,695.97 618.3,701.8 615.21,707.62 C613.134786,708.704621 610.848766,709.3256 608.51,709.44 C606.92,709.59 605.33,709.64 603.73,709.64 C602.47,709.64 601.2,709.64 599.94,709.54 C595.45,709.35 590.94,708.9 586.47,708.93 C579.12,708.99 571.31,710.57 566.03,715.85 C560.11,721.77 558.76,730.63 556.26,738.85 C555.9,738.85 555.54,738.85 555.18,738.85 C549.98,738.85 545.41,735.56 541.42,732.24 C540.370169,731.471859 539.483063,730.503181 538.81,729.39 C538.18928,728.054648 537.973722,726.5666 538.19,725.11 C538.77,719.32 542.72,714.52 546.27,709.92 C550.111992,704.941802 553.674159,699.753792 556.94,694.38 C558.44,691.93 559.94,689.22 559.67,686.38 C559.47,684.08 558.18,682.03 557.67,679.79 C556.3,674.03 560.18,668.29 564.74,664.52 C569.3,660.75 574.74,658 578.57,653.47 C582.4,648.94 584.23,642.68 584.66,636.63 C584.97,632.38 584.84,627.63 587.73,624.5 C591.99,619.87 598.58,622.74 603.87,623.18 C609.39,623.65 614.8,624.38 620.21,625.31 C620.36,626.19 620.52,627.06 620.68,627.93 C622.26,636.51 624.3,645.02 625.68,653.64 C626.404468,658.050703 626.891835,662.49709 627.14,666.96 C627.69674,674.882327 626.963877,682.842499 624.97,690.53 Z" id="Path" fill="#000000" fill-rule="nonzero" opacity="0.1"></path>
                <path d="M675.88,541.31 L655.88,554.98 L654.35,550.65 L651.05,541.31 C651.05,541.31 611.38,512.31 601.71,502.48 C592.04,492.65 583.55,495.98 583.55,495.98 C573.88,503.15 559.71,506.65 556.05,493.98 C553.32,484.58 573.75,479.67 584.46,477.77 C588.347887,477.075867 592.355942,477.78463 595.77,479.77 C603.09,484.03 616.48,491.7 622.71,494.65 C631.55,498.81 666.38,526.15 666.38,527.65 C666.38,528.65 670.93,534.83 673.73,538.51 C674.98,540.16 675.88,541.31 675.88,541.31 Z" id="Path" fill="#FFB9B9" fill-rule="nonzero"></path>
                <path d="M714.88,662.65 L723.88,733.98 L737.88,723.32 C737.88,723.32 732.21,711.32 735.88,709.16 C739.55,707 744.88,720.98 744.88,720.98 C744.88,720.98 780.55,722.98 770.55,702.65 L759.21,687.98 L736.88,672.13 L714.88,662.65 Z" id="Path" fill="#757A9B" fill-rule="nonzero"></path>
                <path d="M714.88,662.65 L723.88,733.98 L737.88,723.32 C737.88,723.32 732.21,711.32 735.88,709.16 C739.55,707 744.88,720.98 744.88,720.98 C744.88,720.98 780.55,722.98 770.55,702.65 L759.21,687.98 L736.88,672.13 L714.88,662.65 Z" id="Path" fill="#000000" fill-rule="nonzero" opacity="0.1"></path>
                <path d="M681.21,659.31 L676.88,695.31 L648,697.65 C648,697.65 617.19,688.86 628.55,667.31 C633.71,657.51 630.47,651.64 625.79,648.2 C622.359926,645.883995 618.472129,644.332286 614.39,643.65 C614.39,643.65 613.55,588.65 623.21,607.31 C627.55,615.7 636.4,619.04 644.83,620.18 C651.503541,620.97939 658.258011,620.800842 664.88,619.65 L681.21,659.31 Z" id="Path" fill="#FFB9B9" fill-rule="nonzero"></path>
                <path d="M644.84,620.65 C644.837373,632.904448 637.246466,643.876614 625.78,648.2 C622.349926,645.883995 618.462129,644.332286 614.38,643.65 C614.38,643.65 613.54,588.65 623.2,607.31 C627.54,615.7 636.39,619.04 644.82,620.18 C644.84,620.34 644.84,620.53 644.84,620.65 Z" id="Path" fill="#000000" fill-rule="nonzero" opacity="0.1"></path>
                <circle id="Oval" fill="#FFB9B9" fill-rule="nonzero" cx="614.39" cy="619.65" r="29.45"></circle>
                <path d="M675.88,541.31 L655.88,554.98 L654.35,550.65 C660.3,548.7 669.47,541.85 673.73,538.51 C674.98,540.16 675.88,541.31 675.88,541.31 Z" id="Path" fill="#000000" fill-rule="nonzero" opacity="0.1"></path>
                <path d="M682.05,554.98 L681.21,558.81 L657.88,566.31 C655.578978,563.702224 653.438375,560.957176 651.47,558.09 C649.28,554.76 648.05,551.76 651.05,552.15 C657.55,552.98 676.05,537.65 676.05,537.65 C679.14,534.18 680.95,545.44 681.68,551.45 C681.93,553.53 682.05,554.98 682.05,554.98 Z" id="Path" fill="#CBCDDA" fill-rule="nonzero"></path>
                <path d="M626.71,765.65 L626.71,774.8 C624.71,774.8 615.87,774.35 610.2,770.9 C611.2,767.9 611.88,765.98 611.88,765.98 L626.71,765.65 Z" id="Path" fill="#000000" fill-rule="nonzero" opacity="0.1"></path>
                <path d="M631.05,756.65 L629.78,762.31 L627.15,773.81 C627.15,773.81 614.65,773.81 608.57,768.73 C604.84,765.62 605.68,760.73 606.89,757.4 C607.335229,756.152906 607.897749,754.950856 608.57,753.81 L631.05,756.65 Z" id="Path" fill="#CBCDDA" fill-rule="nonzero"></path>
                <path d="M631.05,756.65 L629.78,762.31 C623.87,765.43 610.35,759.11 606.89,757.4 C607.335229,756.152906 607.897749,754.950856 608.57,753.81 L631.05,756.65 Z" id="Path" fill="#000000" fill-rule="nonzero" opacity="0.1"></path>
                <path d="M607.71,686.15 L604.55,698.32 C604.55,698.32 610.88,736.15 608.38,743.65 C605.88,751.15 606.05,755.98 606.05,755.98 C606.05,755.98 624.38,765.65 630.55,760.82 C636.72,755.99 636.71,735.53 636.71,735.53 L649.71,722.2 L633.21,698.37 L607.71,686.15 Z" id="Path" fill="#757A9B" fill-rule="nonzero"></path>
                <path d="M670.38,638.53 C670.38,638.53 686.13,691.28 634.88,679.03 L649.71,737.28 L620.13,792.28 C620.13,792.28 714.88,808.28 730.88,787.53 C730.88,787.53 723.13,725.03 726.13,704.03 C729.13,683.03 716.63,650.27 709.88,648.15 C703.13,646.03 670.38,638.53 670.38,638.53 Z" id="Path" fill="#000000" fill-rule="nonzero" opacity="0.1"></path>
                <path d="M670.38,640.53 C670.38,640.53 686.13,693.28 634.88,681.03 L649.71,739.28 L620.13,794.28 C620.13,794.28 714.88,810.28 730.88,789.53 C730.88,789.53 723.13,727.03 726.13,706.03 C729.13,685.03 716.63,652.27 709.88,650.15 C703.13,648.03 670.38,640.53 670.38,640.53 Z" id="Path" fill="#000000" fill-rule="nonzero" opacity="0.1"></path>
                <path d="M670.38,639.53 C670.38,639.53 686.13,692.28 634.88,680.03 L649.71,738.28 L620.13,793.28 C620.13,793.28 714.88,809.28 730.88,788.53 C730.88,788.53 723.13,726.03 726.13,705.03 C729.13,684.03 716.63,651.27 709.88,649.15 C703.13,647.03 670.38,639.53 670.38,639.53 Z" id="Path" fill="#CBCDDA" fill-rule="nonzero"></path>
                <path d="M670.71,561.03 C667.71,562.43 660.97,564.27 651.21,559.98 C651.21,559.98 666.55,589.98 667.55,595.65 C668.55,601.32 668.55,608.32 667.21,609.32 C665.87,610.32 661.88,620.65 661.88,620.65 L646.21,621.34 C646.21,621.34 656.21,625.34 656.21,632.98 C656.21,640.62 678.21,654.98 689.88,660.65 C701.55,666.32 749.21,683.02 749.21,683.02 L770.55,703.65 C770.55,703.65 762.21,681.98 733.88,662.65 C705.55,643.32 705.88,631.82 705.88,631.82 C705.88,631.82 700.55,591.32 693.55,579.98 C686.55,568.64 682.55,552.32 682.55,552.32 C682.55,552.32 676.95,560.04 673.62,560.25 C672.61023,560.328504 671.623663,560.592944 670.71,561.03 Z" id="Path" fill="#000000" fill-rule="nonzero" opacity="0.1"></path>
                <path d="M682.05,554.98 L681.21,558.81 L657.88,566.31 C655.578978,563.702224 653.438375,560.957176 651.47,558.09 C661.1,562.24 667.71,560.42 670.71,559.03 C671.621848,558.588052 672.609355,558.323359 673.62,558.25 C676.15,558.09 679.98,553.61 681.68,551.45 C681.93,553.53 682.05,554.98 682.05,554.98 Z" id="Path" fill="#000000" fill-rule="nonzero" opacity="0.1"></path>
                <path d="M670.71,560.03 C667.71,561.43 660.97,563.27 651.21,558.98 C651.21,558.98 666.55,588.98 667.55,594.65 C668.55,600.32 668.55,607.32 667.21,608.32 C665.87,609.32 661.88,619.65 661.88,619.65 L646.21,620.34 C646.21,620.34 656.21,624.34 656.21,631.98 C656.21,639.62 678.21,653.98 689.88,659.65 C701.55,665.32 749.21,682.02 749.21,682.02 L770.55,702.65 C770.55,702.65 762.21,680.98 733.88,661.65 C705.55,642.32 705.88,630.82 705.88,630.82 C705.88,630.82 700.55,590.32 693.55,578.98 C686.55,567.64 682.55,551.32 682.55,551.32 C682.55,551.32 676.95,559.04 673.62,559.25 C672.61023,559.328504 671.623663,559.592944 670.71,560.03 Z" id="Path" fill="#757A9B" fill-rule="nonzero"></path>
                <path d="M595.34,641.86 C596.34,638.71 595.74,635.28 596.16,632 C597.28,623.11 605.65,615.95 605.26,607 C605.112561,606.163637 605.235144,605.302053 605.61,604.54 C606.166087,603.913953 606.944794,603.529983 607.78,603.47 C612.14,602.68 617.15,603.1 620.39,600.08 C623.63,597.06 623.55,591.59 623.06,586.99 C622.79,584.52 622.4,581.8 620.51,580.17 C619.220424,579.227104 617.720477,578.612709 616.14,578.38 C610.686667,577.14 605.203333,576.056667 599.69,575.13 C594.13,574.19 588.28,573.44 582.99,575.39 C577.7,577.34 573.59,581.92 569.82,586.29 C566.27,590.4 562.48,595.34 563.48,600.69 C564.03,603.59 565.92,606.02 567.18,608.69 C569.862837,614.516996 569.488416,621.294012 566.18,626.79 C563.56,631.03 559.18,634.38 558.12,639.24 C557.12,643.78 559.43,648.72 563.31,651.29 C571.26,656.53 592.21,651.79 595.34,641.86 Z" id="Path" fill="#000000" fill-rule="nonzero" opacity="0.1"></path>
                <path d="M594.34,641.86 C595.34,638.71 594.74,635.28 595.16,632 C596.28,623.11 604.65,615.95 604.26,607 C604.112561,606.163637 604.235144,605.302053 604.61,604.54 C605.166087,603.913953 605.944794,603.529983 606.78,603.47 C611.14,602.68 616.15,603.1 619.39,600.08 C622.63,597.06 622.55,591.59 622.06,586.99 C621.79,584.52 621.4,581.8 619.51,580.17 C618.220424,579.227104 616.720477,578.612709 615.14,578.38 C609.686667,577.14 604.203333,576.056667 598.69,575.13 C593.13,574.19 587.28,573.44 581.99,575.39 C576.7,577.34 572.59,581.92 568.82,586.29 C565.27,590.4 561.48,595.34 562.48,600.69 C563.03,603.59 564.92,606.02 566.18,608.69 C568.862837,614.516996 568.488416,621.294012 565.18,626.79 C562.56,631.03 558.18,634.38 557.12,639.24 C556.12,643.78 558.43,648.72 562.31,651.29 C570.26,656.53 591.21,651.79 594.34,641.86 Z" id="Path" fill="#B96B6B" fill-rule="nonzero"></path>
                <path d="M628.61,649.76 C628.61,649.76 603.88,669.32 603.05,675.82 C602.22,682.32 605.71,697.65 605.71,697.65 L630.38,713.15 C630.38,713.15 658.88,724.32 637.55,742.98 C616.22,761.64 608.71,801.65 608.71,801.65 C608.71,801.65 619.05,813.98 638.38,778.53 C638.38,778.53 657.05,758.2 657.88,748.2 C658.71,738.2 661.62,707.53 649,688.53 C640.67,675.99 636.14,661.91 632.88,654.62 C632.09676,652.533607 630.578231,650.805258 628.61,649.76 L628.61,649.76 Z" id="Path" fill="#000000" fill-rule="nonzero" opacity="0.1"></path>
                <path d="M627.61,649.76 C627.61,649.76 602.88,669.32 602.05,675.82 C601.22,682.32 604.71,697.65 604.71,697.65 L629.38,713.15 C629.38,713.15 657.88,724.32 636.55,742.98 C615.22,761.64 607.71,801.65 607.71,801.65 C607.71,801.65 618.05,813.98 637.38,778.53 C637.38,778.53 656.05,758.2 656.88,748.2 C657.71,738.2 660.62,707.53 648,688.53 C639.67,675.99 635.14,661.91 631.88,654.62 C631.09676,652.533607 629.578231,650.805258 627.61,649.76 L627.61,649.76 Z" id="Path" fill="#757A9B" fill-rule="nonzero"></path>
                <path d="M636.55,742.98 C636.55,742.98 614.85,749.78 617.49,770.98" id="Path" fill="#000000" fill-rule="nonzero" opacity="0.1"></path>
                <polygon id="Path" fill="#000000" fill-rule="nonzero" opacity="0.1" points="641.74 713.65 636.71 735.49 646.21 725.75"></polygon>
                <polygon id="Path" fill="#000000" fill-rule="nonzero" opacity="0.1" points="667 823.99 660.52 828.9 666 832.24"></polygon>
                <path d="M703.38,713.65 C703.38,713.65 725.68,714.37 726.13,705.98" id="Path" fill="#000000" fill-rule="nonzero" opacity="0.1"></path>
                <path d="M484.08,1049.86 C484.08,1049.86 489.58,1057.05 481.55,1067.86 C473.52,1078.67 466.9,1087.86 469.55,1094.62 C469.55,1094.62 481.66,1074.48 491.55,1074.2 C501.44,1073.92 494.93,1061.98 484.08,1049.86 Z" id="Path" fill="#FFC107" fill-rule="nonzero"></path>
                <path d="M484.08,1049.86 C484.559666,1050.55368 484.940012,1051.31101 485.21,1052.11 C494.83,1063.42 499.95,1073.97 490.7,1074.23 C482.09,1074.53 471.78,1089.88 469.28,1093.77 C469.360388,1094.06966 469.460609,1094.36364 469.58,1094.65 C469.58,1094.65 481.69,1074.51 491.58,1074.23 C501.47,1073.95 494.93,1061.98 484.08,1049.86 Z" id="Path" fill="#000000" fill-rule="nonzero" opacity="0.1"></path>
                <path d="M494.3,1059.02 C494.3,1061.55 494.01,1063.6 493.66,1063.6 C493.31,1063.6 493.03,1061.55 493.03,1059.02 C493.03,1056.49 493.38,1057.68 493.73,1057.68 C494.08,1057.68 494.3,1056.53 494.3,1059.02 Z" id="Path" fill="#FFD037" fill-rule="nonzero"></path>
                <path d="M497.78,1062.04 C495.56,1063.25 493.62,1063.98 493.46,1063.67 C493.3,1063.36 494.95,1062.13 497.17,1060.92 C499.39,1059.71 498.52,1060.59 498.69,1060.92 C498.86,1061.25 500.02,1060.83 497.78,1062.04 Z" id="Path" fill="#FFD037" fill-rule="nonzero"></path>
                <path d="M455.07,1049.86 C455.07,1049.86 449.57,1057.05 457.6,1067.86 C465.63,1078.67 472.25,1087.86 469.6,1094.62 C469.6,1094.62 457.48,1074.48 447.6,1074.2 C437.72,1073.92 444.22,1061.98 455.07,1049.86 Z" id="Path" fill="#FFC107" fill-rule="nonzero"></path>
                <path d="M455.07,1049.86 C454.590334,1050.55368 454.209988,1051.31101 453.94,1052.11 C444.32,1063.42 439.2,1073.97 448.45,1074.23 C457.06,1074.48 467.39,1089.88 469.87,1093.77 C469.788406,1094.06809 469.691613,1094.3618 469.58,1094.65 C469.58,1094.65 457.46,1074.53 447.6,1074.23 C437.74,1073.93 444.22,1061.98 455.07,1049.86 Z" id="Path" fill="#000000" fill-rule="nonzero" opacity="0.1"></path>
                <path d="M444.85,1059.02 C444.85,1061.55 445.14,1063.6 445.49,1063.6 C445.84,1063.6 446.12,1061.55 446.12,1059.02 C446.12,1056.49 445.77,1057.68 445.42,1057.68 C445.07,1057.68 444.85,1056.53 444.85,1059.02 Z" id="Path" fill="#FFD037" fill-rule="nonzero"></path>
                <path d="M441.35,1062.04 C443.57,1063.25 445.51,1063.98 445.67,1063.67 C445.83,1063.36 444.18,1062.13 441.96,1060.92 C439.74,1059.71 440.61,1060.59 440.44,1060.92 C440.27,1061.25 439.13,1060.83 441.35,1062.04 Z" id="Path" fill="#FFD037" fill-rule="nonzero"></path>
                <path d="M446.6,1093.71 C446.6,1093.71 461.96,1093.24 466.6,1089.95 C471.24,1086.66 490.23,1082.71 491.38,1088 C492.53,1093.29 514.46,1114.29 497.12,1114.43 C479.78,1114.57 456.78,1111.73 452.2,1108.92 C447.62,1106.11 446.6,1093.71 446.6,1093.71 Z" id="Path" fill="#A8A8A8" fill-rule="nonzero"></path>
                <path d="M497.42,1112.59 C480.08,1112.73 457.13,1109.89 452.51,1107.08 C448.99,1104.93 447.59,1097.24 447.12,1093.69 L446.6,1093.69 C446.6,1093.69 447.6,1106.08 452.2,1108.9 C456.8,1111.72 479.78,1114.53 497.11,1114.43 C502.11,1114.43 503.84,1112.61 503.75,1109.97 C503.05,1111.53 501.14,1112.53 497.42,1112.59 Z" id="Path" fill="#000000" fill-rule="nonzero" opacity="0.2"></path>
                <path d="M1470.32,969.53 C1472.15042,968.033727 1473.48553,966.018862 1474.15,963.75 C1474.65,961.45 1473.67,958.69 1471.47,957.85 C1469.01,956.91 1466.38,958.62 1464.39,960.34 C1462.4,962.06 1460.11,964.03 1457.5,963.66 C1460.23392,961.189862 1461.46497,957.462525 1460.74,953.85 C1460.63219,953.112503 1460.32047,952.419796 1459.84,951.85 C1458.48,950.39 1456,951.02 1454.37,952.17 C1449.17,955.82 1447.72,962.89 1447.69,969.24 C1447.16,966.95 1447.61,964.56 1447.59,962.24 C1447.57,959.92 1446.93,957.24 1444.95,956.02 C1443.72219,955.360285 1442.34333,955.032804 1440.95,955.07 C1438.61,954.98 1436.01,955.22 1434.41,956.93 C1432.41,959.05 1432.94,962.62 1434.67,964.93 C1436.4,967.24 1439.02,968.74 1441.44,970.35 C1443.3759,971.504273 1445.0268,973.079971 1446.27,974.96 C1446.4157,975.224794 1446.53623,975.502679 1446.63,975.79 L1461.28,975.79 C1464.56037,974.118082 1467.60096,972.012539 1470.32,969.53 L1470.32,969.53 Z" id="Path" fill="#FFC107" fill-rule="nonzero"></path>
                <path d="M1353.88,985.26 C1353.88,985.26 1339.83,937.53 1356.51,902.43 C1363.60511,887.74862 1365.7456,871.161611 1362.61,855.16 C1361.06007,847.575122 1358.82077,840.147617 1355.92,832.97" id="Path" stroke="#535461" stroke-width="2"></path>
                <path d="M1366.3,810.78 C1366.3,816.62 1355.71,833.58 1355.71,833.58 C1355.71,833.58 1345.12,816.58 1345.12,810.78 C1345.12,804.931304 1349.8613,800.19 1355.71,800.19 C1361.5587,800.19 1366.3,804.931304 1366.3,810.78 Z" id="Path" fill="#FFC107" fill-rule="nonzero"></path>
                <path d="M1383.78,843.16 C1380.6,848.07 1362.5,856.55 1362.5,856.55 C1362.5,856.55 1362.83,836.55 1366,831.66 C1368.01382,828.39208 1371.63837,826.469758 1375.47337,826.635681 C1379.30837,826.801604 1382.75334,829.029791 1384.47739,832.459432 C1386.20145,835.889072 1385.93462,839.983146 1383.78,843.16 L1383.78,843.16 Z" id="Path" fill="#FFC107" fill-rule="nonzero"></path>
                <path d="M1383.03,898.53 C1377.81,901.16 1357.91,899.34 1357.91,899.34 C1357.91,899.34 1368.28,882.26 1373.5,879.62 C1376.88863,877.825423 1380.98264,878.002815 1384.20335,880.083773 C1387.42406,882.16473 1389.26827,885.824138 1389.02486,889.650896 C1388.78144,893.477655 1386.48842,896.873896 1383.03,898.53 L1383.03,898.53 Z" id="Path" fill="#FFC107" fill-rule="nonzero"></path>
                <path d="M1373.03,940.25 C1368.32,943.73 1348.4,945.25 1348.4,945.25 C1348.4,945.25 1355.73,926.66 1360.4,923.18 C1365.09748,920.00242 1371.46443,921.089536 1374.84141,925.645781 C1378.21839,930.202025 1377.40655,936.609886 1373,940.18 L1373.03,940.25 Z" id="Path" fill="#FFC107" fill-rule="nonzero"></path>
                <path d="M1340.29,857.68 C1344.48,861.76 1364.02,865.98 1364.02,865.98 C1364.02,865.98 1359.24,846.57 1355.02,842.5 C1350.82816,838.4269 1344.1281,838.523159 1340.055,842.715 C1335.9819,846.906841 1336.07816,853.6069 1340.27,857.68 L1340.29,857.68 Z" id="Path" fill="#FFC107" fill-rule="nonzero"></path>
                <path d="M1329.2,906.65 C1334.42,909.29 1354.33,907.47 1354.33,907.47 C1354.33,907.47 1343.96,890.38 1338.78,887.75 C1333.59248,885.316077 1327.40996,887.449821 1324.8279,892.565223 C1322.24584,897.680626 1324.20095,903.921937 1329.24,906.65 L1329.2,906.65 Z" id="Path" fill="#FFC107" fill-rule="nonzero"></path>
                <path d="M1324.96,955.73 C1329.66,959.2 1349.59,960.73 1349.59,960.73 C1349.59,960.73 1342.25,942.13 1337.59,938.65 C1334.56779,936.172714 1330.42692,935.561103 1326.81759,937.058903 C1323.20825,938.556703 1320.71709,941.920469 1320.33685,945.809701 C1319.95661,949.698933 1321.74911,953.481499 1325,955.65 L1324.96,955.73 Z" id="Path" fill="#FFC107" fill-rule="nonzero"></path>
                <path d="M1366.3,810.78 C1366.3,816.62 1355.71,833.58 1355.71,833.58 C1355.71,833.58 1345.12,816.58 1345.12,810.78 C1345.12,804.931304 1349.8613,800.19 1355.71,800.19 C1361.5587,800.19 1366.3,804.931304 1366.3,810.78 Z" id="Path" fill="#FFC107" fill-rule="nonzero"></path>
                <path d="M1383.78,843.16 C1380.6,848.07 1362.5,856.55 1362.5,856.55 C1362.5,856.55 1362.83,836.55 1366,831.66 C1368.01382,828.39208 1371.63837,826.469758 1375.47337,826.635681 C1379.30837,826.801604 1382.75334,829.029791 1384.47739,832.459432 C1386.20145,835.889072 1385.93462,839.983146 1383.78,843.16 L1383.78,843.16 Z" id="Path" fill="#FFC107" fill-rule="nonzero"></path>
                <path d="M1383.03,898.53 C1377.81,901.16 1357.91,899.34 1357.91,899.34 C1357.91,899.34 1368.28,882.26 1373.5,879.62 C1376.88863,877.825423 1380.98264,878.002815 1384.20335,880.083773 C1387.42406,882.16473 1389.26827,885.824138 1389.02486,889.650896 C1388.78144,893.477655 1386.48842,896.873896 1383.03,898.53 L1383.03,898.53 Z" id="Path" fill="#FFC107" fill-rule="nonzero"></path>
                <path d="M1373.03,940.25 C1368.32,943.73 1348.4,945.25 1348.4,945.25 C1348.4,945.25 1355.73,926.66 1360.4,923.18 C1365.09748,920.00242 1371.46443,921.089536 1374.84141,925.645781 C1378.21839,930.202025 1377.40655,936.609886 1373,940.18 L1373.03,940.25 Z" id="Path" fill="#FFC107" fill-rule="nonzero"></path>
                <path d="M1340.29,857.68 C1344.48,861.76 1364.02,865.98 1364.02,865.98 C1364.02,865.98 1359.24,846.57 1355.02,842.5 C1350.82816,838.4269 1344.1281,838.523159 1340.055,842.715 C1335.9819,846.906841 1336.07816,853.6069 1340.27,857.68 L1340.29,857.68 Z" id="Path" fill="#FFC107" fill-rule="nonzero"></path>
                <path d="M1329.2,906.65 C1334.42,909.29 1354.33,907.47 1354.33,907.47 C1354.33,907.47 1343.96,890.38 1338.78,887.75 C1333.59248,885.316077 1327.40996,887.449821 1324.8279,892.565223 C1322.24584,897.680626 1324.20095,903.921937 1329.24,906.65 L1329.2,906.65 Z" id="Path" fill="#FFC107" fill-rule="nonzero"></path>
                <path d="M1324.96,955.73 C1329.66,959.2 1349.59,960.73 1349.59,960.73 C1349.59,960.73 1342.25,942.13 1337.59,938.65 C1334.56779,936.172714 1330.42692,935.561103 1326.81759,937.058903 C1323.20825,938.556703 1320.71709,941.920469 1320.33685,945.809701 C1319.95661,949.698933 1321.74911,953.481499 1325,955.65 L1324.96,955.73 Z" id="Path" fill="#FFC107" fill-rule="nonzero"></path>
                <path d="M1320.67,982.25 C1320.67,982.25 1337.78,978.85 1342.34,974.32 C1346.9,969.79 1367.44,961.86 1369.72,967.52 C1372,973.18 1400.52,992.44 1381.13,995.84 C1361.74,999.24 1335.5,1000.37 1329.79,998.1 C1324.08,995.83 1320.67,982.25 1320.67,982.25 Z" id="Path" fill="#A8A8A8" fill-rule="nonzero"></path>
                <path d="M1381.13,993.73 C1361.74,997.13 1335.5,998.26 1329.79,996 C1325.45,994.27 1322.43,986 1321.24,982.13 L1320.67,982.25 C1320.67,982.25 1324.09,995.84 1329.79,998.1 C1335.49,1000.36 1361.79,999.24 1381.13,995.84 C1386.73,994.84 1388.33,992.55 1387.72,989.64 C1387.25,991.53 1385.3,993 1381.13,993.73 Z" id="Path" fill="#000000" fill-rule="nonzero" opacity="0.2"></path>
                <rect id="Rectangle" fill="#EAEAF3" fill-rule="nonzero" x="834.38" y="449.05" width="264.61" height="264.61" rx="18.95"></rect>
                <rect id="Rectangle" fill="#FFC107" fill-rule="nonzero" opacity="0.1" x="873.21" y="494.85" width="130.19" height="130.19" rx="18.95"></rect>
                <rect id="Rectangle" fill="#FFC107" fill-rule="nonzero" opacity="0.1" x="929.95" y="537.65" width="130.19" height="130.19" rx="18.95"></rect>
            </g>
        </g>
    </g>
</svg>