<?xml version="1.0" encoding="UTF-8"?>
<svg width="256px" height="256px" viewBox="0 0 256 256" version="1.1" xmlns="http://www.w3.org/2000/svg" xmlns:xlink="http://www.w3.org/1999/xlink">
    <!-- Generator: Sketch 54.1 (76490) - https://sketchapp.com -->
    <title>contacts_icon_128</title>
    <desc>Created with Sketch.</desc>
    <g id="contacts_icon_128" stroke="none" stroke-width="1" fill="none" fill-rule="evenodd">
        <g id="account-group" transform="translate(13.000000, 13.000000)">
            <circle id="Oval" fill="#5FCDFF" cx="115" cy="115" r="115"></circle>
            <path d="M117.961373,79.9570815 C108.668638,79.9570815 101.135388,87.4022506 101.135388,96.5863321 C101.135388,105.770414 108.668638,113.215583 117.961373,113.215583 C127.254108,113.215583 134.787359,105.770414 134.787359,96.5863321 C134.787359,87.4022506 127.254108,79.9570815 117.961373,79.9570815 L117.961373,79.9570815 Z M84.309403,91.9855728 C76.5654572,91.9855728 70.2877487,98.1898804 70.2877487,105.843282 C70.2877487,109.518575 71.7650259,113.043337 74.3945962,115.642161 C77.0241665,118.240986 80.5906291,119.70099 84.309403,119.70099 C89.2450254,119.70099 93.5636949,117.151172 96.031506,113.381875 C92.2737027,108.670254 89.9180648,102.960878 89.9180648,96.5863321 C89.9180648,95.4777154 89.9180648,94.3690987 90.1424112,93.260482 C88.3476395,92.4290195 86.3846079,91.9855728 84.309403,91.9855728 L84.309403,91.9855728 Z M151.613344,91.9855728 C149.538139,91.9855728 147.575107,92.4290195 145.780336,93.260482 C146.004682,94.3690987 146.004682,95.4777154 146.004682,96.5863321 C146.004682,102.960878 143.649044,108.670254 139.891241,113.381875 C142.359052,117.151172 146.677721,119.70099 151.613344,119.70099 C155.332118,119.70099 158.89858,118.240986 161.528151,115.642161 C164.157721,113.043337 165.634998,109.518575 165.634998,105.843282 C165.634998,102.167989 164.157721,98.6432263 161.528151,96.0444017 C158.89858,93.4455772 155.332118,91.9855728 151.613344,91.9855728 L151.613344,91.9855728 Z M117.961373,124.30175 C106.74405,124.30175 84.309403,129.844833 84.309403,140.931 L84.309403,152.017167 L151.613344,152.017167 L151.613344,140.931 C151.613344,129.844833 129.178697,124.30175 117.961373,124.30175 L117.961373,124.30175 Z M76.8498829,129.678541 C67.4834179,131.286035 56.2660944,135.60964 56.2660944,142.760218 L56.2660944,152.017167 L73.0920796,152.017167 L73.0920796,140.931 C73.0920796,136.607395 74.7185915,132.782668 76.8498829,129.678541 L76.8498829,129.678541 Z M159.072864,129.678541 C161.204155,132.782668 162.830667,136.607395 162.830667,140.931 L162.830667,152.017167 L179.656652,152.017167 L179.656652,142.760218 C179.656652,135.60964 168.439329,131.286035 159.072864,129.678541 Z" id="Shape" fill="#FFFFFF" fill-rule="nonzero"></path>
        </g>
    </g>
</svg>