<?xml version="1.0" encoding="UTF-8"?>
<svg width="256px" height="256px" viewBox="0 0 256 256" version="1.1" xmlns="http://www.w3.org/2000/svg" xmlns:xlink="http://www.w3.org/1999/xlink">
    <!-- Generator: Sketch 54.1 (76490) - https://sketchapp.com -->
    <title>gallery_256</title>
    <desc>Created with Sketch.</desc>
    <g id="gallery_256" stroke="none" stroke-width="1" fill="none" fill-rule="evenodd">
        <rect id="Rectangle" stroke="#F8F8F8" stroke-width="8" fill="#5FCDFF" transform="translate(128.500000, 128.500000) rotate(14.000000) translate(-128.500000, -128.500000) " x="51" y="51" width="155" height="155" rx="16"></rect>
        <rect id="Rectangle" stroke="#F8F8F8" stroke-width="8" fill="#5FCDFF" x="51" y="51" width="155" height="155" rx="16"></rect>
        <polygon id="Triangle" fill="#CDFF5F" points="121 164 161 202 81 202"></polygon>
        <path d="M202,177 L202,194 C202,198.418278 198.418278,202 194,202 L133,202 L180,155 L202,177 Z" id="Combined-Shape" fill="#CDFF5F"></path>
        <circle id="Oval" fill="#FFE15F" cx="85.5" cy="88.5" r="15.5"></circle>
        <path d="M114.6,132 C112.05949,132 110,129.910662 110,127.333333 C110,124.756005 112.05949,122.666667 114.6,122.666667 L115.4165,122.666667 C116.1755,119.971667 118.625,118 121.5,118 C124.993201,118 127.825,120.87284 127.825,124.416667 L127.825,125 L129.55,125 C131.455382,125 133,126.567003 133,128.5 C133,130.432997 131.455382,132 129.55,132 L114.6,132 Z" id="Path" fill="#FFFFFF"></path>
        <path d="M145.4,140 C142.417662,140 140,137.612185 140,134.666667 C140,131.721148 142.417662,129.333333 145.4,129.333333 L146.3585,129.333333 C147.2495,126.253333 150.125,124 153.5,124 C157.600714,124 160.925,127.283245 160.925,131.333333 L160.925,132 L162.95,132 C165.186753,132 167,133.790861 167,136 C167,138.209139 165.186753,140 162.95,140 L145.4,140 Z" id="Path" fill="#FFFFFF"></path>
        <path d="M177,125 C175.343146,125 174,123.656854 174,122 C174,120.343146 175.343146,119 177,119 L177.5325,119 C178.0275,117.2675 179.625,116 181.5,116 C183.778175,116 185.625,117.846825 185.625,120.125 L185.625,120.5 L186.75,120.5 C187.992641,120.5 189,121.507359 189,122.75 C189,123.992641 187.992641,125 186.75,125 L177,125 Z" id="Path" fill="#FFFFFF"></path>
    </g>
</svg>