<?xml version="1.0" encoding="UTF-8"?>
<svg width="256px" height="256px" viewBox="0 0 256 256" version="1.1" xmlns="http://www.w3.org/2000/svg" xmlns:xlink="http://www.w3.org/1999/xlink">
    <!-- Generator: Sketch 52.6 (67491) - http://www.bohemiancoding.com/sketch -->
    <title>platform_icon_256</title>
    <desc>Created with Sketch.</desc>
    <g id="platform_icon_256" stroke="none" stroke-width="1" fill="none" fill-rule="evenodd">
        <g id="Group" transform="translate(128.000000, 128.500000) scale(-1, 1) rotate(-180.000000) translate(-128.000000, -128.500000) translate(14.000000, 15.000000)">
            <path d="M101.134961,226.65093 C100.189774,226.511302 97.8793183,226.19714 96.058959,225.952791 C94.2385997,225.708442 92.3832335,225.359373 91.9281437,225.219745 L91.1579917,224.905582 L91.2280055,203.542519 L91.3330263,182.144549 L98.8595117,182.144549 L106.385997,182.144549 L106.35099,193.314778 C106.315983,199.458404 106.175956,209.546517 106.035928,215.759957 L105.755873,227 L104.32059,226.965093 C103.550438,226.930186 102.115154,226.790558 101.134961,226.65093 Z" id="Path" fill="#7D6EF3"></path>
            <path d="M121.789037,217.156236 C121.684017,211.710749 121.614003,201.622636 121.684017,194.711056 L121.789037,182.144549 L129.140488,182.144549 L136.491939,182.144549 L136.491939,203.786868 L136.491939,225.429187 L134.566559,225.673535 C133.516352,225.778256 130.925841,226.127326 128.825426,226.441489 C126.725012,226.755651 124.344542,227 123.504376,227 L122.034086,227 L121.789037,217.156236 Z" id="Path" fill="#7D6EF3"></path>
            <path d="M152.070014,201.378287 L152.070014,181.970014 L159.596499,181.970014 L167.122985,181.970014 L167.122985,198.166846 L167.122985,214.328771 L162.99217,216.283561 C158.896361,218.203445 155.885767,219.495002 154.170428,220.018607 C153.680332,220.158235 153.0152,220.402583 152.700138,220.542211 C152.105021,220.78656 152.070014,219.739351 152.070014,201.378287 Z" id="Path" fill="#7D6EF3"></path>
            <path d="M70.5039152,218.83177 C68.4735145,218.02891 65.5329341,216.667538 63.9226163,215.864678 L61.0520497,214.433492 L61.1220636,198.271567 L61.2270843,182.144549 L68.4035007,182.144549 L75.5799171,182.144549 L75.6849378,201.273566 L75.7549516,220.367676 L74.9847996,220.367676 C74.5297098,220.367676 72.534316,219.669537 70.5039152,218.83177 Z" id="Path" fill="#7D6EF3"></path>
            <path d="M182.35099,203.856682 C182.24597,203.612333 182.210963,198.655544 182.24597,192.791173 L182.35099,182.144549 L193.483187,182.039828 C199.57439,182.004921 204.580378,182.074735 204.580378,182.24927 C204.580378,183.331386 199.924459,188.811779 194.008291,194.641243 C189.94749,198.620637 183.331184,204.310472 182.736066,204.310472 C182.596039,204.310472 182.421004,204.10103 182.35099,203.856682 Z" id="Path" fill="#7D6EF3"></path>
            <path d="M43.5485951,203.228356 C36.652234,197.538521 31.9613082,193.105336 28.145555,188.602337 C27.0953478,187.380594 25.9751267,186.089036 25.6600645,185.739966 C25.3450023,185.390897 24.6098572,184.378594 23.9797328,183.540827 L22.8595117,181.970014 L33.8516813,181.970014 C43.198526,181.970014 44.9138646,182.039828 45.2989406,182.493618 C45.894058,183.191758 45.4389682,203.961402 44.8088439,203.961402 C44.5988024,203.926495 44.0386918,203.612333 43.5485951,203.228356 Z" id="Path" fill="#7D6EF3"></path>
            <path d="M60.2451718,166.755633 C60.1050736,166.650971 60,142.648672 60,113.4482 L60,60.3152017 L84.2720131,60.1058794 C97.5813421,59.9663311 121.678232,59.896557 137.754501,59.9663311 L167,60.0709923 L167,113.4482 L167,166.825407 L113.72766,166.930068 C84.4471358,166.964955 60.3502455,166.895181 60.2451718,166.755633 Z" id="Path" fill="#2D313C"></path>
            <path d="M78,152.011752 L120,152.011752" id="Line" stroke="#5FCDFF" stroke-width="4" stroke-linecap="square"></path>
            <path d="M78,140.011752 L103,140.011752" id="Line" stroke="#FFE15F" stroke-width="4" stroke-linecap="square"></path>
            <path d="M78,128.011752 L108,128" id="Line" stroke="#5FCDFF" stroke-width="4" stroke-linecap="square"></path>
            <path d="M78,113.011752 L109,113.011752" id="Line" stroke="#FF5F7D" stroke-width="4" stroke-linecap="square"></path>
            <path d="M130,152.011752 L148.390271,152.011752" id="Line" stroke="#FFE15F" stroke-width="4" stroke-linecap="square"></path>
            <path d="M113,140 L145,140.011752" id="Line" stroke="#5FCDFF" stroke-width="4" stroke-linecap="square"></path>
            <path d="M118,128 L137.362206,128" id="Line" stroke="#FFE15F" stroke-width="4" stroke-linecap="square"></path>
            <path d="M77,74.0117516 L108,74.0117516" id="Line" stroke="#5FCDFF" stroke-width="4" stroke-linecap="square"></path>
            <path d="M77,86.0117516 L104,86" id="Line" stroke="#FFE15F" stroke-width="4" stroke-linecap="square"></path>
            <path d="M77,98.0117516 L114,98.0117516" id="Line" stroke="#5FCDFF" stroke-width="4" stroke-linecap="square"></path>
            <path d="M118,74.0117516 L136,74.0117516" id="Line" stroke="#FFE15F" stroke-width="4" stroke-linecap="square"></path>
            <polyline id="Line" stroke="#5FCDFF" stroke-width="4" stroke-linecap="square" points="114 86 118.664622 86 149.56271 86"></polyline>
            <path d="M124,98 L141,98" id="Line" stroke="#FFE15F" stroke-width="4" stroke-linecap="square"></path>
            <path d="M13.3026255,166.576042 C12.7775219,166.261879 8.89175495,158.791788 8.89175495,158.093649 C8.89175495,157.988928 8.61169968,157.220975 8.22662368,156.383208 C7.87655458,155.580348 7.42146476,154.463325 7.1764164,153.93972 C6.30124367,151.810395 4.97098111,151.950023 26.1501612,152.019837 L45.4739751,152.124558 L45.5789959,159.071044 C45.6490097,163.888205 45.5439889,166.157158 45.2639337,166.471321 C44.9488715,166.890205 42.1133118,166.960018 29.4058038,166.960018 C18.9737448,166.925111 13.7577153,166.820391 13.3026255,166.576042 Z" id="Path" fill="#7D6EF3"></path>
            <path d="M183.401198,166.645856 L182.35099,166.436414 L182.24597,159.175765 L182.175956,151.950023 L201.779825,151.950023 L221.418701,151.950023 L221.20866,152.752883 C221.068632,153.171767 220.788577,154.009534 220.508521,154.568046 C220.263473,155.161464 219.458314,157.011533 218.758176,158.721974 C218.023031,160.432416 216.867803,162.945717 216.167665,164.307089 L214.872409,166.785484 L199.67941,166.820391 C191.312759,166.855298 183.996315,166.785484 183.401198,166.645856 Z" id="Path" fill="#7D6EF3"></path>
            <path d="M2.34546292,136.172074 C1.99539383,135.683377 1.33026255,132.821006 1.01520037,130.482239 C0.49009673,126.223589 0.210041456,121.72059 0.420082911,121.511149 C0.595117457,121.336614 10.7821281,121.2668 23.1045601,121.301707 L45.4739751,121.406428 L45.4739751,128.911425 L45.4739751,136.416423 L24.0847536,136.521144 C7.21142331,136.590958 2.62551819,136.486237 2.34546292,136.172074 Z" id="Path" fill="#7D6EF3"></path>
            <path d="M182.35099,136.137167 C182.24597,135.892819 182.210963,132.471936 182.24597,128.562356 L182.35099,121.406428 L204.89544,121.301707 C217.322893,121.2668 227.579917,121.336614 227.684938,121.476242 C228.070014,121.930032 227.054813,130.482239 226.144634,134.49654 L225.689544,136.416423 L204.090281,136.521144 C186.761861,136.590958 182.456011,136.521144 182.35099,136.137167 Z" id="Path" fill="#7D6EF3"></path>
            <path d="M4.1658222,106.326618 C0.105020728,106.186991 -0.315062183,105.907735 0.175034546,103.848224 C0.350069093,103.150085 0.49009673,101.893434 0.49009673,101.090574 C0.49009673,100.287713 0.630124367,98.8914347 0.840165822,97.9489466 C1.01520037,97.0413655 1.36526946,95.0516685 1.61031783,93.5506689 C1.96038692,91.2119022 2.13542146,90.8279256 2.83555965,90.6533907 C3.25564256,90.5486698 12.8125288,90.5137629 24.0497467,90.5835768 C40.7130355,90.6533907 44.5988024,90.7930186 45.0538922,91.1769952 C45.5789959,91.5958788 45.6490097,92.5732739 45.6490097,98.6819929 C45.6490097,103.708596 45.5439889,105.837921 45.2289268,106.152084 C44.9138646,106.466246 40.2929526,106.53606 26.220175,106.501153 C16.0331644,106.466246 6.09120221,106.361525 4.1658222,106.326618 Z" id="Path" fill="#7D6EF3"></path>
            <path d="M182.736066,106.012456 C182.24597,105.523758 182.175956,104.476549 182.24597,98.2631093 L182.35099,91.0373674 L184.27637,90.7930186 C186.971902,90.4788559 224.989406,90.4788559 225.444496,90.7930186 C226.144634,91.2468092 226.739751,94.2837152 227.334869,100.462248 C227.509903,102.382131 227.754952,104.336921 227.859972,104.755805 C228.315062,106.640781 228.980193,106.570967 205.245509,106.570967 C185.64164,106.570967 183.226163,106.501153 182.736066,106.012456 Z" id="Path" fill="#7D6EF3"></path>
            <path d="M6.61630585,75.0848839 C7.59649931,71.8385361 8.6817135,69.1506997 10.6421004,65.2062125 L12.9175495,60.6683069 L29.300783,60.563586 L45.6490097,60.4937721 L45.6490097,68.1733046 L45.6490097,75.8528372 L26.0101336,75.8528372 L6.40626439,75.8528372 L6.61630585,75.0848839 Z" id="Path" fill="#7D6EF3"></path>
            <path d="M182.421004,75.6084884 C182.280977,75.5037675 182.175956,72.0479779 182.175956,67.9289559 L182.175956,60.4937721 L198.66421,60.4937721 L215.117457,60.4937721 L216.972824,64.4382593 C219.668356,70.1630017 219.948411,70.7913271 220.858591,73.2348147 C221.278673,74.4565585 221.558729,75.5386745 221.453708,75.6433954 C221.173653,75.9226511 182.701059,75.8877441 182.421004,75.6084884 Z" id="Path" fill="#7D6EF3"></path>
            <path d="M25.6250576,45.239428 L22.9295256,45.0998001 L23.6296637,43.9129632 C26.5702441,38.9561741 43.2685398,22.7942488 45.4389682,22.7942488 C45.5439889,22.7942488 45.6490097,27.8208519 45.6490097,33.9644779 L45.6490097,45.1347071 L44.8788577,45.1347071 C44.4237678,45.1347071 40.5380009,45.204521 36.1971442,45.2743349 C31.8562874,45.3441489 27.0953478,45.3092419 25.6250576,45.239428 Z" id="Path" fill="#7D6EF3"></path>
            <path d="M60.947029,45.239428 C60.5969599,44.6460095 60.3169047,25.4820852 60.561953,19.2686452 L60.8070014,12.6363217 L64.3076923,10.8560664 C68.2284661,8.90127633 74.4947029,6.38797478 75.4748964,6.38797478 C76.0700138,6.38797478 76.1050207,7.2955559 76.1050207,25.726434 C76.1050207,43.0402891 76.0350069,45.0648931 75.5449102,45.2743349 C74.7397513,45.5884976 61.1220636,45.5186837 60.947029,45.239428 Z" id="Path" fill="#7D6EF3"></path>
            <path d="M91.2630124,45.239428 C90.7029019,45.0299862 90.5978812,2.37367369 91.1579917,2.02460403 C91.9631506,1.5359065 101.590051,0.139627864 104.390603,0.104720898 L106.561032,0.104720898 L106.491018,22.7244349 L106.385997,45.3092419 L99.0345463,45.3790558 C95.0087517,45.4139628 91.4730539,45.3441489 91.2630124,45.239428 Z" id="Path" fill="#7D6EF3"></path>
            <path d="M121.894058,45.239428 C121.298941,45.0998001 121.263934,43.7035215 121.263934,22.5499 L121.263934,0 L124.869645,0.209441796 C128.475357,0.418883592 134.181483,1.25665078 136.176877,1.88497616 L137.262091,2.19913886 L137.332105,23.4574812 C137.402119,44.4016608 137.402119,44.7507304 136.736988,45.0998001 C136.036849,45.4488698 123.259327,45.5884976 121.894058,45.239428 Z" id="Path" fill="#7D6EF3"></path>
            <path d="M152.070014,45.1347071 C151.614924,44.8554513 151.54491,42.5166846 151.439889,28.4840843 C151.299862,12.4617869 151.439889,7.74934646 152.070014,6.73704444 C152.525104,6.03890512 155.535698,7.0861141 162.327038,10.3324619 L167.473054,12.7759496 L167.40304,29.0425957 L167.298019,45.3092419 L159.946568,45.4139628 C155.605712,45.4488698 152.385076,45.3441489 152.070014,45.1347071 Z" id="Path" fill="#7D6EF3"></path>
            <path d="M182.631046,45.239428 C182.280977,45.0998001 182.175956,42.5166846 182.175956,33.929571 C182.175956,25.2377364 182.280977,22.7942488 182.631046,22.7942488 C183.926301,22.7942488 194.498388,32.2540366 199.224321,37.6297094 C203.42515,42.3770567 205.070474,44.6460095 204.755412,45.1347071 C204.545371,45.4837767 183.471211,45.5884976 182.631046,45.239428 Z" id="Path" fill="#7D6EF3"></path>
        </g>
    </g>
</svg>