<?xml version="1.0" encoding="UTF-8"?>
<svg width="256px" height="256px" viewBox="0 0 256 256" version="1.1" xmlns="http://www.w3.org/2000/svg" xmlns:xlink="http://www.w3.org/1999/xlink">
    <!-- Generator: Sketch 55.1 (78136) - https://sketchapp.com -->
    <title>arcade_256</title>
    <desc>Created with Sketch.</desc>
    <defs>
        <linearGradient x1="89.3393732%" y1="7.06541881%" x2="4.11432359%" y2="96.041737%" id="linearGradient-1">
            <stop stop-color="#CBFFD9" offset="0%"></stop>
            <stop stop-color="#00DE39" offset="100%"></stop>
            <stop stop-color="#34B4A2" offset="100%"></stop>
        </linearGradient>
    </defs>
    <g id="arcade_256" stroke="none" stroke-width="1" fill="none" fill-rule="evenodd">
        <g id="Group" transform="translate(28.000000, 28.000000)">
            <rect id="Rectangle" fill="url(#linearGradient-1)" x="0" y="0" width="200" height="200" rx="40"></rect>
            <path d="M51.8205163,130.144771 C51.3063335,129.392152 51.0183618,128.467338 51,127.509701 L51,122.983582 C51,122.983582 51,120.348512 53.2866848,121.433541 C53.2866848,121.433541 81.9240489,136.329434 86.5108696,138.778498 C90.8829458,141.250213 95.7130906,142.452817 100.580707,142.281591 C105.425746,142.304213 110.22031,141.147442 114.650543,138.887001 L147.713315,121.278537 C150,120.147007 150,122.828578 150,122.828578 L150,127.354697 C149.979712,128.311921 149.691952,129.236055 149.179484,129.989767 C148.372418,131.121296 147.054212,132.624836 143.287908,134.515886 C140.355571,136.220931 117.596332,147.908239 114.327717,149.597784 C109.922162,151.945299 105.110626,153.106165 100.25788,152.992373 C94.7972534,152.993026 89.413861,151.505869 84.5470109,148.652259 C78.6554348,145.459175 60.3350543,136.019426 57.3758152,134.515886 C53.784375,132.593835 52.8024457,131.431305 51.8205163,130.144771 Z M57.7118644,101.062259 L86.4654915,86.0796691 C89.3204461,84.581731 92.3427373,83.5452984 95.4459661,83 L95.4459661,110.054893 C95.4459661,111.933491 97.728,113.42713 100.506712,113.42713 C103.285424,113.42713 105.245288,111.887296 105.245288,110.054893 L105.245288,83.0769917 C108.452286,83.6216757 111.581079,84.6574721 114.547932,86.1566608 L143.288136,101.139251 C145.744678,102.44811 150,104.696269 150,108.453465 C150,112.210661 145.758102,114.258641 143.288136,115.752281 L114.547932,130.627082 C105.597619,135.124306 95.4158046,135.124306 86.4654915,130.627082 L57.7118644,115.675289 C55.2687458,114.366429 51,112.118271 51,108.376473 C51,104.634675 55.4298305,102.371118 57.7118644,101.062259 Z M65.0418037,105.475786 C62.3193988,107.426274 62.3193988,110.569623 65.0418037,112.536231 C68.1554987,114.487923 71.8445013,114.487923 74.9581963,112.536231 C77.6806012,110.569623 77.6806012,107.426274 74.9581963,105.475786 C71.847663,103.508071 68.152337,103.508071 65.0418037,105.475786 Z M100.834663,79.9965865 C93.1034783,79.8922394 86.9100343,72.6456713 87.0009891,63.8106547 C87.0919439,54.9756381 93.4328572,47.8975865 101.16405,48.0011215 C108.895244,48.1046565 115.089271,55.3505741 114.999026,64.1856002 C114.988799,68.4408227 113.482522,72.5128169 110.818808,75.4861903 C108.155095,78.4595637 104.557461,80.0848157 100.834663,79.9965865 Z" id="Shape" fill="#FFFFFF" fill-rule="nonzero"></path>
        </g>
    </g>
</svg>