<?xml version="1.0" encoding="UTF-8"?>
<svg width="256px" height="256px" viewBox="0 0 256 256" version="1.1" xmlns="http://www.w3.org/2000/svg" xmlns:xlink="http://www.w3.org/1999/xlink">
    <!-- Generator: Sketch 55.1 (78136) - https://sketchapp.com -->
    <title>bitflow_256</title>
    <desc>Created with Sketch.</desc>
    <defs>
        <linearGradient x1="0%" y1="100%" x2="102.958548%" y2="-2.79763745%" id="linearGradient-1">
            <stop stop-color="#68D0FF" offset="0%"></stop>
            <stop stop-color="#9BE0FF" offset="100%"></stop>
            <stop stop-color="#34B4A2" offset="100%"></stop>
        </linearGradient>
    </defs>
    <g id="bitflow_256" stroke="none" stroke-width="1" fill="none" fill-rule="evenodd">
        <g id="Group" transform="translate(28.000000, 28.000000)">
            <rect id="Rectangle" fill="url(#linearGradient-1)" x="0" y="0" width="200" height="200" rx="40"></rect>
            <path d="M54.4,146 C37.6105436,146 24,132.419304 24,115.666667 C24,98.9140293 37.6105436,85.3333333 54.4,85.3333333 L59.796,85.3333333 C64.812,67.8158333 81,55 100,55 C123.085503,55 141.8,73.6734569 141.8,96.7083333 L141.8,100.5 L153.2,100.5 C165.792092,100.5 176,110.685522 176,123.25 C176,135.814478 165.792092,146 153.2,146 L54.4,146 Z" id="Path" fill="#FFFFFF"></path>
        </g>
        <g id="arrow-down-bold" transform="translate(109.000000, 107.000000)">
            <polygon id="Path" fill="#FFE15F" points="12.0382653 15.5 26.9617347 15.5 26.9617347 35.7020202 39 35.7020202 19.5 55.5 0 35.7020202 12.0382653 35.7020202"></polygon>
            <rect id="Rectangle" fill="#FEE98F" x="22" y="10.5" width="5" height="5"></rect>
            <rect id="Rectangle" fill="#FEE98F" x="12" y="10.5" width="5" height="5"></rect>
            <rect id="Rectangle" fill="#FFE15F" x="12" y="15.5" width="5" height="5"></rect>
            <rect id="Rectangle" fill="#FCF4D2" x="12" y="0.5" width="5" height="5"></rect>
            <rect id="Rectangle" fill="#FFE15F" x="17" y="15.5" width="5" height="5"></rect>
            <rect id="Rectangle" fill="#FFF1B7" x="17" y="5.5" width="5" height="5"></rect>
            <rect id="Rectangle" fill="#FFF1B7" x="12" y="5.5" width="5" height="5"></rect>
            <rect id="Rectangle" fill="#FFE15F" x="22" y="15.5" width="5" height="5"></rect>
            <rect id="Rectangle" fill="#FEE98F" x="17" y="10.5" width="5" height="5"></rect>
        </g>
    </g>
</svg>