<?xml version="1.0" encoding="UTF-8"?>
<svg width="256px" height="256px" viewBox="0 0 256 256" version="1.1" xmlns="http://www.w3.org/2000/svg" xmlns:xlink="http://www.w3.org/1999/xlink">
    <!-- Generator: Sketch 55.1 (78136) - https://sketchapp.com -->
    <title>calendar_256</title>
    <desc>Created with Sketch.</desc>
    <defs>
        <linearGradient x1="0%" y1="100%" x2="102.958548%" y2="-2.79763745%" id="linearGradient-1">
            <stop stop-color="#4285F4" offset="0%"></stop>
            <stop stop-color="#40B0FF" offset="100%"></stop>
            <stop stop-color="#34B4A2" offset="100%"></stop>
        </linearGradient>
    </defs>
    <g id="calendar_256" stroke="none" stroke-width="1" fill="none" fill-rule="evenodd">
        <g id="Group" transform="translate(28.000000, 28.000000)">
            <rect id="Rectangle" fill="url(#linearGradient-1)" x="0" y="0" width="200" height="200" rx="40"></rect>
            <path d="M138,143 L63,143 L63,84 L138,84 L138,143 Z M122.055556,46 L122.055556,56.8 L78.9444444,56.8 L78.9444444,46 L68.1666667,46 L68.1666667,56.8 L62.7777778,56.8 C56.7961111,56.8 52,61.606 52,67.6 L52,143.2 C52,149.164675 56.8253755,154 62.7777778,154 L138.222222,154 C144.174625,154 149,149.164675 149,143.2 L149,67.6 C149,61.606 144.15,56.8 138.222222,56.8 L132.833333,56.8 L132.833333,46 L122.055556,46 Z M127,105 L100,105 L100,132 L127,132 L127,105 Z" id="Shape" fill="#FFFFFF" fill-rule="nonzero"></path>
        </g>
    </g>
</svg>