<?xml version="1.0" encoding="UTF-8"?>
<svg width="256px" height="256px" viewBox="0 0 256 256" version="1.1" xmlns="http://www.w3.org/2000/svg" xmlns:xlink="http://www.w3.org/1999/xlink">
    <!-- Generator: Sketch 55.1 (78136) - https://sketchapp.com -->
    <title>drive_256</title>
    <desc>Created with Sketch.</desc>
    <defs>
        <linearGradient x1="0%" y1="100%" x2="102.958548%" y2="-2.79763745%" id="linearGradient-1">
            <stop stop-color="#FFE15F" offset="0%"></stop>
            <stop stop-color="#FFE98A" offset="100%"></stop>
            <stop stop-color="#34B4A2" offset="100%"></stop>
        </linearGradient>
    </defs>
    <g id="drive_256" stroke="none" stroke-width="1" fill="none" fill-rule="evenodd">
        <g id="Group" transform="translate(28.000000, 28.000000)">
            <rect id="Rectangle" fill="url(#linearGradient-1)" x="0" y="0" width="200" height="200" rx="40"></rect>
            <path d="M88.8,54 L53.7,54 C47.265,54 42,59.175 42,65.5 L42,134.5 C42,140.825 47.265,146 53.7,146 L147.3,146 C153.735,146 159,140.825 159,134.5 L159,77 C159,70.675 153.735,65.5 147.3,65.5 L100.5,65.5 L88.8,54 L88.8,54 Z" id="Shape" fill="#FFFFFF"></path>
            <rect id="Rectangle" fill="#FF5F7D" x="51" y="60" width="5" height="5" rx="2"></rect>
            <rect id="Rectangle" fill="#FFE15F" x="60" y="60" width="5" height="5" rx="2"></rect>
            <rect id="Rectangle" fill="#5FCDFF" x="69" y="60" width="5" height="5" rx="2"></rect>
        </g>
    </g>
</svg>