<?xml version="1.0" encoding="UTF-8"?>
<svg width="256px" height="256px" viewBox="0 0 256 256" version="1.1" xmlns="http://www.w3.org/2000/svg" xmlns:xlink="http://www.w3.org/1999/xlink">
    <!-- Generator: Sketch 55.1 (78136) - https://sketchapp.com -->
    <title>gallery_256</title>
    <desc>Created with Sketch.</desc>
    <defs>
        <linearGradient x1="0%" y1="100%" x2="102.958548%" y2="-2.79763745%" id="linearGradient-1">
            <stop stop-color="#1DADFF" offset="0%"></stop>
            <stop stop-color="#ABDEFD" offset="100%"></stop>
            <stop stop-color="#34B4A2" offset="100%"></stop>
        </linearGradient>
    </defs>
    <g id="gallery_256" stroke="none" stroke-width="1" fill="none" fill-rule="evenodd">
        <g id="Group" transform="translate(28.000000, 28.000000)">
            <rect id="Rectangle" fill="url(#linearGradient-1)" x="0" y="0" width="200" height="200" rx="40"></rect>
            <path d="" id="Combined-Shape" fill="#CDFF5F"></path>
            <path d="M200,152.138728 L200,160 C200,182.09139 182.09139,200 160,200 L73,200 L159.5,110 L200,152.138728 Z" id="Combined-Shape" fill="#CDFF5F"></path>
            <path d="M95,200 L40,200 C34.9485894,200 30.1158766,199.063644 25.6659611,197.355031 L86.5,137 L150,200 L95,200 Z" id="Combined-Shape" fill="#CDFF5F"></path>
            <circle id="Oval" fill="#FFE15F" cx="160" cy="35" r="20"></circle>
            <path d="M34.6,84 C30.9549207,84 28,81.0152317 28,77.3333333 C28,73.651435 30.9549207,70.6666667 34.6,70.6666667 L35.7715,70.6666667 C36.8605,66.8166667 40.375,64 44.5,64 C49.5119841,64 53.575,68.1040565 53.575,73.1666667 L53.575,74 L56.05,74 C58.7838095,74 61,76.2385763 61,79 C61,81.7614237 58.7838095,84 56.05,84 L34.6,84 Z" id="Path" fill="#FFFFFF"></path>
            <path d="M61.8,104 C57.492179,104 54,100.567516 54,96.3333333 C54,92.0991503 57.492179,88.6666667 61.8,88.6666667 L63.1845,88.6666667 C64.4715,84.2391667 68.625,81 73.5,81 C79.4232539,81 84.225,85.7196649 84.225,91.5416667 L84.225,92.5 L87.15,92.5 C90.3808658,92.5 93,95.0743627 93,98.25 C93,101.425637 90.3808658,104 87.15,104 L61.8,104 Z" id="Path" fill="#FFFFFF"></path>
            <path d="M144.2,87 C141.880404,87 140,85.0599006 140,82.6666667 C140,80.2734328 141.880404,78.3333333 144.2,78.3333333 L144.9455,78.3333333 C145.6385,75.8308333 147.875,74 150.5,74 C153.689444,74 156.275,76.6676367 156.275,79.9583333 L156.275,80.5 L157.85,80.5 C159.589697,80.5 161,81.9550746 161,83.75 C161,85.5449254 159.589697,87 157.85,87 L144.2,87 Z" id="Path" fill="#FFFFFF"></path>
        </g>
    </g>
</svg>