<?xml version="1.0" encoding="UTF-8"?>
<svg width="256px" height="256px" viewBox="0 0 256 256" version="1.1" xmlns="http://www.w3.org/2000/svg" xmlns:xlink="http://www.w3.org/1999/xlink">
    <!-- Generator: Sketch 55.1 (78136) - https://sketchapp.com -->
    <title>music_256</title>
    <desc>Created with Sketch.</desc>
    <defs>
        <linearGradient x1="123.884536%" y1="-10.0947117%" x2="-41.1111032%" y2="143.277552%" id="linearGradient-1">
            <stop stop-color="#BE95FD" offset="0%"></stop>
            <stop stop-color="#FF006E" offset="99.4747677%"></stop>
            <stop stop-color="#34B4A2" offset="100%"></stop>
        </linearGradient>
    </defs>
    <g id="music_256" stroke="none" stroke-width="1" fill="none" fill-rule="evenodd">
        <g id="Group" transform="translate(28.000000, 28.000000)">
            <path d="M73.3863636,67.654839 L73.3863636,123.066634 C70.5964455,121.051907 67.0198227,119.839653 63.125,119.839653 C54.2335773,119.839653 47,126.155921 47,133.919826 C47,141.683731 54.2335773,148 63.125,148 C72.0164227,148 79.25,141.683731 79.25,133.919826 L79.25,85.8101062 L127.136364,74.03811 L127.136364,109.853411 C124.346445,107.838684 120.769823,106.626429 116.875,106.626429 C107.983577,106.626429 100.75,112.942698 100.75,120.706603 C100.75,128.470508 107.983577,134.786777 116.875,134.786777 C125.766423,134.786777 133,128.470508 133,120.706603 L133,53 L73.3863636,67.654839 Z" id="Path" fill="#FFFFFF" fill-rule="nonzero"></path>
            <rect id="Rectangle" fill="url(#linearGradient-1)" x="0" y="0" width="200" height="200" rx="40"></rect>
            <path d="M75.625,71.1122244 L75.625,120.691199 C73.12705,118.888548 69.924725,117.8039 66.4375,117.8039 C58.476575,117.8039 52,123.455298 52,130.40195 C52,137.348602 58.476575,143 66.4375,143 C74.398425,143 80.875,137.348602 80.875,130.40195 L80.875,87.3564108 L123.75,76.8235721 L123.75,108.868841 C121.25205,107.066191 118.049725,105.981542 114.5625,105.981542 C106.601575,105.981542 100.125,111.63294 100.125,118.579592 C100.125,125.526244 106.601575,131.177642 114.5625,131.177642 C122.523425,131.177642 129,125.526244 129,118.579592 L129,58 L75.625,71.1122244 Z" id="Path" fill="#FFFFFF" fill-rule="nonzero"></path>
        </g>
    </g>
</svg>