<?xml version="1.0" encoding="UTF-8"?>
<svg width="256px" height="256px" viewBox="0 0 256 256" version="1.1" xmlns="http://www.w3.org/2000/svg" xmlns:xlink="http://www.w3.org/1999/xlink">
    <!-- Generator: Sketch 55.2 (78181) - https://sketchapp.com -->
    <title>myaccount_256</title>
    <desc>Created with Sketch.</desc>
    <defs>
        <linearGradient x1="50%" y1="0%" x2="50%" y2="100%" id="linearGradient-1">
            <stop stop-color="#4285F4" offset="0%"></stop>
            <stop stop-color="#40B0FF" offset="100%"></stop>
        </linearGradient>
    </defs>
    <g id="myaccount_256" stroke="none" stroke-width="1" fill="none" fill-rule="evenodd">
        <g id="shield-account" transform="translate(34.000000, 13.000000)" fill-rule="nonzero">
            <path d="M94.1769547,0 L0,41.8181818 L0,104.545455 C0,162.568182 40.1821674,216.827273 94.1769547,230 C148.171742,216.827273 188.353909,162.568182 188.353909,104.545455 L188.353909,41.8181818 L94.1769547,0 L94.1769547,0 Z" id="Path" fill="url(#linearGradient-1)"></path>
            <path d="M147.857819,167.272727 C135.196251,186.613636 116.256219,201.145455 94.1769547,208.254545 C72.0976909,201.145455 53.1576589,186.613636 40.4960905,167.272727 C36.9382945,162.045455 33.9037037,156.818182 31.3923182,151.277273 C31.3923182,134.027273 59.7500457,119.913636 94.1769547,119.913636 C128.603864,119.913636 156.961591,133.713636 156.961591,151.277273 C154.450206,156.818182 151.415615,162.045455 147.857819,167.272727 Z" id="Path" fill="#FFFFFF"></path>
            <path d="M125.569273,73.1818182 C125.569273,90.5034762 111.514453,104.545455 94.1769547,104.545455 C76.8394561,104.545455 62.7846365,90.5034762 62.7846365,73.1818182 C62.7846365,55.8601601 76.8394561,41.8181818 94.1769547,41.8181818 C111.514453,41.8181818 125.569273,55.8601601 125.569273,73.1818182 Z" id="Path" fill="#FFFFFF"></path>
        </g>
    </g>
</svg>