<?xml version="1.0" encoding="UTF-8"?>
<svg width="128px" height="128px" viewBox="0 0 128 128" version="1.1" xmlns="http://www.w3.org/2000/svg" xmlns:xlink="http://www.w3.org/1999/xlink">
    <!-- Generator: Sketch 52.6 (67491) - http://www.bohemiancoding.com/sketch -->
    <title>phaser_icon_128</title>
    <desc>Created with Sketch.</desc>
    <g id="phaser_icon_128" stroke="none" stroke-width="1" fill="none" fill-rule="evenodd">
        <g id="logo" transform="translate(7.000000, 16.000000)" fill="#2D313C">
            <g id="Group" transform="translate(56.009174, 48.000000) scale(-1, 1) rotate(-180.000000) translate(-56.009174, -48.000000) translate(0.009174, 0.000000)">
                <path d="M44.5753083,95.2519064 C31.077769,93.3664214 16.7862568,86.1038127 9.27960386,77.3048829 C6.68114709,74.2322408 2.63910323,67.5282943 3.14435871,67.0394649 C3.28871742,66.8997993 5.59845677,67.6679599 8.2690929,68.7154515 C11.7337019,70.0422742 13.5381858,71.2294314 14.4765174,72.6959197 C16.5697187,76.047893 22.9936813,81.3551839 27.0357251,83.1010033 C37.4295522,87.7099666 49.1226077,86.2434783 58.8668206,78.9808696 C60.7434838,77.584214 63.0532232,76.4668896 63.9915548,76.4668896 C65.868218,76.4668896 66.0125767,77.2350502 66.8065496,89.455786 L67.1674464,95.1820736 L64.9298864,95.6010702 C61.8983535,96.1597324 49.7722219,95.9502341 44.5753083,95.2519064 Z" id="Shape" fill-rule="nonzero"></path>
                <path d="M68.9719303,87.9194649 C68.6832128,84.0786622 68.3944954,70.3216054 68.3944954,57.2628763 C68.3944954,44.2041472 68.6832128,30.4470903 68.9719303,26.6062876 L69.5493651,19.7626756 L72.4365393,20.1118395 C74.0244851,20.3213378 75.7567896,20.88 76.1898657,21.2989967 C77.3447354,22.4163211 77.3447354,92.1094314 76.1898657,93.2267559 C75.7567896,93.6457525 74.0244851,94.2044147 72.4365393,94.413913 L69.5493651,94.7630769 L68.9719303,87.9194649 Z" id="Shape" fill-rule="nonzero"></path>
                <path d="M78.066529,56.0757191 L78.066529,49.0924415 L83.5749534,50.7853573 C86.5191113,51.7023533 89.9381334,52.478273 91.0778074,52.478273 C95.2566121,52.478273 96.1113676,53.1836546 96.1113676,56.4284099 C96.1113676,59.4615506 96.0163948,59.5320888 93.0722369,59.5320888 C91.3627259,59.5320888 85.6896735,60.9077397 82.5555699,61.8247357 C79.4214664,62.8122699 78.4464203,63.0589967 78.3514475,63.0589967 C78.1615018,63.0589967 78.066529,59.9553177 78.066529,56.0757191 Z" id="Combined-Shape" fill-rule="nonzero"></path>
                <path d="M83.4078012,72.0570871 C83.1190838,70.0544339 82.8303664,62.8847398 82.8303664,56.0757191 C82.8303664,49.2666983 83.1190838,42.0935588 83.4078012,40.0909056 L83.985236,36.5225418 L86.8724102,36.7046012 C88.460356,36.8138368 90.1926606,37.1051318 90.6257367,37.3236031 C91.7806064,37.9061931 91.7806064,74.245245 90.6257367,74.8278351 C90.1926606,75.0463063 88.460356,75.3376013 86.8724102,75.4468369 L83.985236,75.6288963" id="Shape"></path>
                <path d="M30.4281548,81.9836789 C25.0868826,80.1680268 20.1786864,76.5367224 17.1471535,72.2070903 C15.983984,70.5009078 11.9867759,64.2381568 12.0774331,57.2628763 C12.1611709,50.8199848 16.2489157,43.6236013 17.2193329,42.2488294 C26.4582903,29.4694314 45.1527432,27.3046154 57.6397716,37.709699 C59.8773316,39.5253512 61.2487393,40.1538462 63.1975819,40.1538462 L65.7960386,40.1538462 L65.7960386,57.2628763 L65.7960386,74.3719064 L62.9810438,74.3719064 C61.3209186,74.3719064 59.8051522,74.790903 59.2277174,75.4892308 C57.4232335,77.584214 52.0819612,80.726689 47.967738,82.1233445 C42.7708245,83.7993311 35.6972477,83.7993311 30.4281548,81.9836789 Z M43.4204387,79.2602007 C48.7617109,78.2825418 53.0924722,75.9780602 56.4849019,72.4864214 C68.6832128,59.7070234 62.2592503,39.7348495 44.5753083,35.4750502 C34.2536606,33.030903 23.7876542,37.8493645 18.7350993,47.4164548 C16.7862568,51.117592 16.4975393,52.3745819 16.42536,57.2628763 C16.42536,62.011505 16.7140774,63.4779933 18.4463819,66.690301 C21.9831703,73.4640803 27.6853393,77.8635452 34.9032748,79.1903679 C39.2340361,80.0283612 39.1618567,80.0283612 43.4204387,79.2602007 Z" id="Shape" fill-rule="nonzero"></path>
                <path d="M37.2851935,65.2238127 C34.6145574,61.3131773 32.304818,57.7517057 32.1604593,57.2628763 C31.9439213,56.7740468 33.0266116,56.2153846 34.9754542,55.796388 L38.1513458,55.167893 L36.6355793,48.3941137 C35.6972477,44.6231438 35.0476335,41.5505017 35.1919922,41.5505017 C35.4085303,41.5505017 46.3076129,58.1008696 46.3076129,58.5198662 C46.3076129,58.6595318 45.0805638,59.0785284 43.6369767,59.3578595 C42.1212103,59.6371906 40.6776232,59.9863545 40.4610851,60.1260201 C40.1723677,60.2656856 40.6054438,62.9193311 41.3272374,66.061806 C42.1212103,69.2042809 42.6264658,71.9277592 42.4099277,72.0674247 C42.265569,72.2769231 39.9558296,69.2042809 37.2851935,65.2238127 Z" id="Shape" fill-rule="nonzero" transform="translate(39.220374, 56.814017) scale(1, -1) translate(-39.220374, -56.814017) "></path>
                <path d="M100.884043,63.4081605 C97.2750756,61.5925084 95.8314885,57.5422074 97.563793,53.9807358 C100.378788,48.3242809 108.823772,48.5337793 111.35005,54.3997324 C112.577099,57.2628763 111.999664,59.846689 109.617745,62.0813378 C107.019288,64.5254849 104.059935,64.9444816 100.884043,63.4081605 Z" id="Shape" fill-rule="nonzero"></path>
                <path d="M11.6615226,43.5756522 C11.6615226,43.01699 10.5788322,42.8773244 8.41345161,43.0868227 C6.60896774,43.2963211 5.16538064,43.2264883 5.16538064,42.9471572 C5.16538064,41.5505017 11.5893432,34.287893 15.7035664,31.0755853 C23.7876542,24.7208027 26.602649,15.6425418 23.2823987,6.42461538 L21.8388116,2.44414716 L23.5711161,1.32682274 C24.7981651,0.558662207 27.1800838,0.139665552 30.5725135,0.0698327759 L35.8416064,0 L35.9859651,4.25979933 C36.1303238,9.77658863 37.2130142,13.2682274 39.6671122,16.7598662 C41.7603135,19.6928428 41.9046722,19.6928428 47.6068412,18.7850167 C49.3391458,18.5056856 49.9165806,18.086689 49.9165806,16.9693645 C49.9165806,16.201204 50.2774774,14.3157191 50.7827329,12.8492308 C51.432347,10.6844147 51.7932438,10.2654181 52.5872167,10.893913 C53.3090103,11.522408 53.453369,12.6397324 53.0924722,15.0838796 L52.5872167,18.5056856 L58.2893857,18.5056856 C61.4652774,18.5056856 64.7133483,18.7151839 65.5795006,18.9246823 C67.3839844,19.4135117 67.3839844,19.2738462 66.0847561,33.7990635 L65.6516799,38.1985284 L63.4862993,37.7795318 C62.2592503,37.5700334 59.7329728,36.2432107 57.8563096,34.916388 C45.0805638,25.8381271 29.5620026,26.7459532 18.5185613,37.2208696 C16.641898,39.0365217 14.6930555,41.3410033 14.1156206,42.4583278 C13.0329303,44.3438127 11.6615226,45.0421405 11.6615226,43.5756522 Z" id="Shape" fill-rule="nonzero"></path>
                <path d="M14.6148989,44.9433749 C12.372916,48.7728715 12.0134948,48.791708 10.6721714,52.2575158 C10.2544556,53.3368399 9.58649031,54.9882024 9.24661244,57.2591406 C8.90673457,59.5300787 9.02292683,58.9714848 8.94579877,60.9740909 C8.77853473,65.3170502 10.257488,67.5663255 12.140199,71.7911266 C12.3582322,72.2803928 14.372931,75.6560206 16.3780135,78.5856064 C16.5832842,78.8855234 15.5147296,78.1951182 13.1723495,76.514391 C11.6539173,76.7216589 10.5968092,76.8816178 10.0010251,76.9942676 C9.40524096,77.1069174 8.33725412,77.3204622 6.79706456,77.634902 C6.44349345,77.3382839 5.81741632,76.3474448 4.91883317,74.6623847 C2.80039811,70.689808 1.5372908,64.6590874 1.30991127,62.0450059 C1.07470656,59.3409619 2.33238165,50.8291078 3.31741004,50.5528622 C3.49218364,50.5038479 3.67859541,50.2243627 3.87664534,49.7144063 C4.3089713,50.1105079 4.63154129,50.2223293 4.84435531,50.0498707 C5.35149108,49.6389018 5.84282316,49.2412764 6.31835967,48.8571394 C16.9521209,40.2672188 19.3038647,36.9342241 14.6148989,44.9433749 Z" id="Path-2" transform="translate(9.097114, 59.520101) scale(-1, 1) rotate(-177.000000) translate(-9.097114, -59.520101) "></path>
            </g>
        </g>
    </g>
</svg>