<?xml version="1.0" encoding="UTF-8"?>
<svg width="256px" height="256px" viewBox="0 0 256 256" version="1.1" xmlns="http://www.w3.org/2000/svg" xmlns:xlink="http://www.w3.org/1999/xlink">
    <!-- Generator: Sketch 55.1 (78136) - https://sketchapp.com -->
    <title>platform_256</title>
    <desc>Created with Sketch.</desc>
    <defs>
        <linearGradient x1="9.37856475%" y1="85.7146264%" x2="100%" y2="14.226405%" id="linearGradient-1">
            <stop stop-color="#7D6EF3" offset="0%"></stop>
            <stop stop-color="#AD79FF" offset="100%"></stop>
            <stop stop-color="#34B4A2" offset="100%"></stop>
        </linearGradient>
    </defs>
    <g id="platform_256" stroke="none" stroke-width="1" fill="none" fill-rule="evenodd">
        <g id="Group" transform="translate(16.000000, 25.000000)">
            <path d="M11,148.5 L11,130.5 L51,130.5 L51,148.5 L11,148.5 Z M11.027605,163.5 L51,163.5 L51,202 C29.4108289,202 11.8164194,184.896392 11.0276054,163.50001 Z M11,115.5 L11,97.5 L51,97.5 L51,115.5 L11,115.5 Z M11,82.5 L11,64.5 L51,64.5 L51,82.5 L11,82.5 Z M11,49.5 L11,48 C11,25.90861 28.90861,8 51,8 L51,49.5 L11,49.5 Z M211,147.5 L171,147.5 L171,129.5 L211,129.5 L211,147.5 Z M210.996939,162.5 C210.729151,184.360978 192.924483,202 171,202 L171,163 L171,162.5 L210.996939,162.5 Z M211,114.5 L171,114.5 L171,96.5 L211,96.5 L211,114.5 Z M211,81.5 L171,81.5 L171,63.5 L211,63.5 L211,81.5 Z M211,48.5 L171,48.5 L171,46 L171,8 C193.09139,8 211,25.90861 211,48 L211,48.5 Z M66,202 L66,163 L86,163 L86,202 L66,202 Z M156,202 L136,202 L136,163 L156,163 L156,202 Z M121,202 L101,202 L101,163 L121,163 L121,202 Z M156,8 L156,46 L136,46 L136,8 L156,8 Z M121,8 L121,46 L101,46 L101,8 L121,8 Z M86,8 L86,46 L66,46 L66,8 L86,8 Z" id="Combined-Shape" fill="url(#linearGradient-1)"></path>
            <g id="Group-2" transform="translate(63.000000, 56.000000)">
                <rect id="Rectangle" fill="#363843" x="0" y="0" width="96" height="96" rx="11"></rect>
                <path d="M14.9069767,82.0117516 L53,82.0117516" id="Line" stroke="#8BF692" stroke-width="4" stroke-linecap="square"></path>
                <path d="M14.8888889,72.0117516 L37.1111111,72.0117516" id="Line" stroke="#F6C183" stroke-width="4" stroke-linecap="square"></path>
                <path d="M14.90625,60.5 L42.09375,60.4882484" id="Line" stroke="#8BF692" stroke-width="4" stroke-linecap="square"></path>
                <path d="M14.90625,47.0117516 L43,47.0117516" id="Line" stroke="#9D91FF" stroke-width="4" stroke-linecap="square"></path>
                <path d="M61,82.5 L78,82.5" id="Line" stroke="#F6C183" stroke-width="4" stroke-linecap="square"></path>
                <path d="M46,71.4941242 L75.0909091,71.5058758" id="Line" stroke="#8BF692" stroke-width="4" stroke-linecap="square"></path>
                <path d="M51,60.5 L68.425985,60.5" id="Line" stroke="#F6C183" stroke-width="4" stroke-linecap="square"></path>
                <path d="M14,11.5 L42,11.5" id="Line" stroke="#8BF692" stroke-width="4" stroke-linecap="square"></path>
                <path d="M14,22.5058758 L38,22.4941242" id="Line" stroke="#F6C183" stroke-width="4" stroke-linecap="square"></path>
                <path d="M13,33.5 L47,33.5" id="Line" stroke="#8BF692" stroke-width="4" stroke-linecap="square"></path>
                <path d="M51,11.5 L67.1052632,11.5" id="Line" stroke="#F6C183" stroke-width="4" stroke-linecap="square"></path>
                <polyline id="Line" stroke="#8BF692" stroke-width="4" stroke-linecap="square" points="47 22.5 51.1973156 22.5 79 22.5"></polyline>
                <path d="M55.8947368,33.5 L71.1052632,33.5" id="Line" stroke="#F6C183" stroke-width="4" stroke-linecap="square"></path>
            </g>
        </g>
    </g>
</svg>