<?xml version="1.0" encoding="UTF-8"?>
<svg width="1200px" height="630px" viewBox="0 0 1200 630" version="1.1" xmlns="http://www.w3.org/2000/svg" xmlns:xlink="http://www.w3.org/1999/xlink">
    <!-- Generator: Sketch 63.1 (92452) - https://sketch.com -->
    <title>blog</title>
    <desc>Created with Sketch.</desc>
    <defs>
        <path d="M148.000139,16.9999466 L147.999,315.999 L121.731602,300.550984 L95,284.829548 L95,47.7398788 L121.657539,32.0424349 C140.091801,21.1854466 145.859905,17.8241953 148.000139,16.9999466 Z" id="path-1"></path>
        <filter x="-4.7%" y="-1.1%" width="118.9%" height="102.1%" filterUnits="objectBoundingBox" id="filter-2">
            <feMorphology radius="1" operator="erode" in="SourceAlpha" result="shadowSpreadOuter1"></feMorphology>
            <feOffset dx="3" dy="0" in="shadowSpreadOuter1" result="shadowOffsetOuter1"></feOffset>
            <feGaussianBlur stdDeviation="2" in="shadowOffsetOuter1" result="shadowBlurOuter1"></feGaussianBlur>
            <feColorMatrix values="0 0 0 0 0   0 0 0 0 0   0 0 0 0 0  0 0 0 0.5 0" type="matrix" in="shadowBlurOuter1"></feColorMatrix>
        </filter>
        <linearGradient x1="50%" y1="0%" x2="50%" y2="99.8152449%" id="linearGradient-3">
            <stop stop-color="#FFC82E" offset="0%"></stop>
            <stop stop-color="#FFE7A2" offset="100%"></stop>
        </linearGradient>
        <polygon id="path-4" points="171.375463 153.685462 227.492104 121.418055 228.52616 239.122501 228.104434 239.361311 223.600351 241.911837 172.679788 271.325158"></polygon>
        <filter x="-12.2%" y="-6.0%" width="124.5%" height="109.3%" filterUnits="objectBoundingBox" id="filter-5">
            <feOffset dx="0" dy="-2" in="SourceAlpha" result="shadowOffsetOuter1"></feOffset>
            <feGaussianBlur stdDeviation="2" in="shadowOffsetOuter1" result="shadowBlurOuter1"></feGaussianBlur>
            <feColorMatrix values="0 0 0 0 0   0 0 0 0 0   0 0 0 0 0  0 0 0 0.5 0" type="matrix" in="shadowBlurOuter1"></feColorMatrix>
        </filter>
        <linearGradient x1="-62.3795815%" y1="0%" x2="113.873538%" y2="0%" id="linearGradient-6">
            <stop stop-color="#4285F4" offset="0%"></stop>
            <stop stop-color="#73A7FF" offset="100%"></stop>
        </linearGradient>
        <path d="M249.391723,76 L250,141.013703 L164.16518,190.998315 C158.247857,194.45901 153.204752,197.403651 149.035866,199.832238 C139.060319,205.643498 138.794124,205.759761 148.237282,200.181027 L93.6196075,232 L93,167.836278 L147.877,135.713 L147.877602,135.63923 L249.391723,76 Z" id="path-7"></path>
        <filter x="-5.1%" y="-3.1%" width="110.2%" height="107.4%" filterUnits="objectBoundingBox" id="filter-8">
            <feMorphology radius="1.5" operator="erode" in="SourceAlpha" result="shadowSpreadOuter1"></feMorphology>
            <feOffset dx="0" dy="1" in="shadowSpreadOuter1" result="shadowOffsetOuter1"></feOffset>
            <feGaussianBlur stdDeviation="4" in="shadowOffsetOuter1" result="shadowBlurOuter1"></feGaussianBlur>
            <feColorMatrix values="0 0 0 0 0   0 0 0 0 0   0 0 0 0 0  0 0 0 0.5 0" type="matrix" in="shadowBlurOuter1"></feColorMatrix>
        </filter>
        <linearGradient x1="0%" y1="100%" x2="102.958548%" y2="-2.79763745%" id="linearGradient-9">
            <stop stop-color="#FFE15F" offset="0%"></stop>
            <stop stop-color="#FFE98A" offset="100%"></stop>
            <stop stop-color="#34B4A2" offset="100%"></stop>
        </linearGradient>
        <linearGradient x1="0%" y1="100%" x2="102.958548%" y2="-2.79763745%" id="linearGradient-10">
            <stop stop-color="#4285F4" offset="0%"></stop>
            <stop stop-color="#40B0FF" offset="100%"></stop>
            <stop stop-color="#34B4A2" offset="100%"></stop>
        </linearGradient>
        <linearGradient x1="89.3393732%" y1="7.06541881%" x2="4.11432359%" y2="96.041737%" id="linearGradient-11">
            <stop stop-color="#CBFFD9" offset="0%"></stop>
            <stop stop-color="#00DE39" offset="100%"></stop>
            <stop stop-color="#34B4A2" offset="100%"></stop>
        </linearGradient>
        <linearGradient x1="123.884536%" y1="-10.0947117%" x2="-41.1111032%" y2="143.277552%" id="linearGradient-12">
            <stop stop-color="#BE95FD" offset="0%"></stop>
            <stop stop-color="#FF006E" offset="99.4747677%"></stop>
            <stop stop-color="#34B4A2" offset="100%"></stop>
        </linearGradient>
        <linearGradient x1="0%" y1="100%" x2="102.958548%" y2="-2.79763745%" id="linearGradient-13">
            <stop stop-color="#68D0FF" offset="0%"></stop>
            <stop stop-color="#9BE0FF" offset="100%"></stop>
            <stop stop-color="#34B4A2" offset="100%"></stop>
        </linearGradient>
        <linearGradient x1="0%" y1="100%" x2="102.958548%" y2="-2.79763745%" id="linearGradient-14">
            <stop stop-color="#4285F4" offset="0%"></stop>
            <stop stop-color="#40B0FF" offset="100%"></stop>
            <stop stop-color="#34B4A2" offset="100%"></stop>
        </linearGradient>
        <linearGradient x1="0%" y1="100%" x2="102.958548%" y2="-2.79763745%" id="linearGradient-15">
            <stop stop-color="#1DADFF" offset="0%"></stop>
            <stop stop-color="#ABDEFD" offset="100%"></stop>
            <stop stop-color="#34B4A2" offset="100%"></stop>
        </linearGradient>
    </defs>
    <g id="blog" stroke="none" stroke-width="1" fill="none" fill-rule="evenodd">
        <rect fill="#FFFFFF" x="0" y="0" width="1200" height="630"></rect>
        <g id="Group" transform="translate(427.000000, 32.000000)">
            <rect id="Rectangle" fill="#FFFFFF" x="0" y="0" width="347" height="347" rx="40"></rect>
            <path d="M170.908994,35.8155267 L226.295029,2.940487 L226.323112,4.83445193 L227.330036,121.141133 C191.578655,142.763399 173.698496,153.507392 173.689556,153.373109 C173.611452,152.191705 172.684598,113.005844 170.908994,35.8155267 Z" id="Rectangle" fill="#4285F4" transform="translate(199.119515, 78.156798) rotate(121.000000) translate(-199.119515, -78.156798) "></path>
            <polygon id="Rectangle" fill="#EDB722" transform="translate(199.057362, 255.921223) rotate(59.000000) translate(-199.057362, -255.921223) " points="172.347444 180.388441 227.58345 213.614024 225.138857 331.454006 170.531273 298.642459"></polygon>
            <g id="Combined-Shape">
                <use fill="black" fill-opacity="1" filter="url(#filter-2)" xlink:href="#path-1"></use>
                <use fill="#DB4437" fill-rule="evenodd" xlink:href="#path-1"></use>
            </g>
            <g id="Rectangle" transform="translate(199.950811, 196.371606) rotate(121.000000) translate(-199.950811, -196.371606) ">
                <use fill="black" fill-opacity="1" filter="url(#filter-5)" xlink:href="#path-4"></use>
                <use fill="url(#linearGradient-3)" fill-rule="evenodd" xlink:href="#path-4"></use>
            </g>
            <g id="Combined-Shape">
                <use fill="black" fill-opacity="1" filter="url(#filter-8)" xlink:href="#path-7"></use>
                <use fill="url(#linearGradient-6)" fill-rule="evenodd" xlink:href="#path-7"></use>
            </g>
            <polygon id="Path-7" fill="#FFFFFF" points="147 201.443852 149.706876 200 153.924893 202.502657 159.54123 205.662962 195 226.542819 147 254"></polygon>
            <polygon id="Path-7" fill="#FFFFFF" points="147 80 159.54123 87.6510834 195 108.344393 147 136"></polygon>
            <polygon id="Path-7" fill="#FFFFFF" transform="translate(228.000000, 167.500000) scale(-1, -1) translate(-228.000000, -167.500000) " points="205 141 214.728746 146.540256 251 167.5 205.720643 194"></polygon>
            <path d="M249.711218,76.4976596 C255.374538,71.463243 259.756002,68.9640231 262.855609,69 C265.955216,69.0370202 270.33668,71.6394254 276,76.8072157 L276,149.838701 C264.462543,152.000511 256.137762,152.54058 251.025657,151.458909 C245.913552,150.377238 245.67027,148.024252 250.295812,144.39995 L249.711218,76.4976596 Z" id="Rectangle" fill="#FFFFFF"></path>
            <path d="M250.617733,193.7833 C248.267576,182.55724 248.765718,176.962806 252.11216,177 C255.458601,177.03769 264.421215,182.737975 279,194.100855 L279,269.019369 C266.295852,273.838571 257.732135,275.745283 253.308849,274.739503 C248.885562,273.733724 246.449279,269.325802 246,261.515736 L250.29658,258.972709 L250.617733,193.7833 Z" id="Rectangle" fill="#FFFFFF"></path>
            <path d="M66,160.616421 C71.7651973,155.502521 76.2254788,152.964109 79.3808444,153.001184 C82.53621,153.038259 87.4074227,155.576671 93.9944825,160.616421 L93.9944825,166.698667 L93.9944825,167.010542 L93.9944825,231.300495 C94.0075714,231.462512 93.9930779,232.286009 93.9944825,232.455585 C93.9965688,232.70745 93.9965688,233.072297 93.9944825,233.550125 L93.9944825,235.345188 L93.9944825,237 L66.5951106,229.590746 L66,160.616421 Z" id="Rectangle" fill="#FFFFFF"></path>
        </g>
        <text id="Bloom" font-family="Helvetica" font-size="150" font-weight="normal" fill="#000000">
            <tspan x="387.414551" y="544">Bloom</tspan>
        </text>
        <g id="Group" transform="translate(163.000000, 124.000000) rotate(30.000000) translate(-163.000000, -124.000000) translate(113.000000, 74.000000)">
            <rect id="Rectangle" fill="url(#linearGradient-9)" x="0" y="0" width="100" height="100" rx="20"></rect>
            <path d="M44.4,27 L26.85,27 C23.6325,27 21,29.5875 21,32.75 L21,67.25 C21,70.4125 23.6325,73 26.85,73 L73.65,73 C76.8675,73 79.5,70.4125 79.5,67.25 L79.5,38.5 C79.5,35.3375 76.8675,32.75 73.65,32.75 L50.25,32.75 L44.4,27 L44.4,27 Z" id="Shape" fill="#FFFFFF"></path>
            <rect id="Rectangle" fill="#FF5F7D" x="25.5" y="30" width="2.5" height="2.5" rx="1.25"></rect>
            <rect id="Rectangle" fill="#FFE15F" x="30" y="30" width="2.5" height="2.5" rx="1.25"></rect>
            <rect id="Rectangle" fill="#5FCDFF" x="34.5" y="30" width="2.5" height="2.5" rx="1.25"></rect>
        </g>
        <g id="Group" transform="translate(324.126788, 274.589089) rotate(-10.000000) translate(-324.126788, -274.589089) translate(264.126788, 214.589089)">
            <rect id="Rectangle" fill="url(#linearGradient-10)" x="0.883012191" y="0.477072173" width="119" height="119" rx="20"></rect>
            <path d="M60.209364,39.4618799 C54.7116204,39.4618799 50.2548186,43.9045928 50.2548186,49.3849568 C50.2548186,54.8653209 54.7116204,59.3080338 60.209364,59.3080338 C65.7071077,59.3080338 70.1639095,54.8653209 70.1639095,49.3849568 C70.1639095,43.9045928 65.7071077,39.4618799 60.209364,39.4618799 L60.209364,39.4618799 Z M40.3002731,46.6395722 C35.7188201,46.6395722 32.0048186,50.341833 32.0048186,54.908803 C32.0048186,57.1019394 32.8788014,59.2052506 34.4345009,60.7560322 C35.9902004,62.3068137 38.1001818,63.1780338 40.3002731,63.1780338 C43.2202731,63.1780338 45.7752731,61.6564953 47.2352731,59.4072645 C45.0120913,56.5957261 43.6184549,53.188803 43.6184549,49.3849568 C43.6184549,48.7234184 43.6184549,48.0618799 43.7511822,47.4003415 C42.689364,46.9041876 41.5280004,46.6395722 40.3002731,46.6395722 L40.3002731,46.6395722 Z M80.1184549,46.6395722 C78.8907276,46.6395722 77.729364,46.9041876 76.6675458,47.4003415 C76.8002731,48.0618799 76.8002731,48.7234184 76.8002731,49.3849568 C76.8002731,53.188803 75.4066367,56.5957261 73.1834549,59.4072645 C74.6434549,61.6564953 77.1984549,63.1780338 80.1184549,63.1780338 C82.3185463,63.1780338 84.4285276,62.3068137 85.9842271,60.7560322 C87.5399266,59.2052506 88.4139095,57.1019394 88.4139095,54.908803 C88.4139095,52.7156666 87.5399266,50.6123554 85.9842271,49.0615739 C84.4285276,47.5107923 82.3185463,46.6395722 80.1184549,46.6395722 L80.1184549,46.6395722 Z M60.209364,65.9234184 C53.5730004,65.9234184 40.3002731,69.2311107 40.3002731,75.8464953 L40.3002731,82.4618799 L80.1184549,82.4618799 L80.1184549,75.8464953 C80.1184549,69.2311107 66.8457276,65.9234184 60.209364,65.9234184 L60.209364,65.9234184 Z M35.8870913,69.1318799 C30.3457276,70.0911107 23.709364,72.6711107 23.709364,76.9380338 L23.709364,82.4618799 L33.6639095,82.4618799 L33.6639095,75.8464953 C33.6639095,73.2664953 34.6261822,70.9841876 35.8870913,69.1318799 L35.8870913,69.1318799 Z M84.5316367,69.1318799 C85.7925458,70.9841876 86.7548186,73.2664953 86.7548186,75.8464953 L86.7548186,82.4618799 L96.709364,82.4618799 L96.709364,76.9380338 C96.709364,72.6711107 90.0730004,70.0911107 84.5316367,69.1318799 Z" id="Shape" fill="#FFFFFF" fill-rule="nonzero"></path>
        </g>
        <g id="Group" transform="translate(108.000000, 385.000000) rotate(20.000000) translate(-108.000000, -385.000000) translate(33.000000, 310.000000)">
            <rect id="Rectangle" fill="url(#linearGradient-11)" x="0" y="0" width="150" height="150" rx="25"></rect>
            <path d="M38.8653872,97.608578 C38.4797501,97.0441141 38.2637714,96.3505032 38.25,95.6322759 L38.25,92.2376863 C38.25,92.2376863 38.25,90.2613842 39.9650136,91.0751556 C39.9650136,91.0751556 61.4430367,102.247075 64.8831522,104.083874 C68.1622093,105.93766 71.784818,106.839613 75.4355299,106.711193 C79.0693094,106.728159 82.6652321,105.860581 85.9879076,104.165251 L110.784986,90.9589026 C112.5,90.1102552 112.5,92.1214332 112.5,92.1214332 L112.5,95.5160228 C112.484784,96.2339405 112.268964,96.9270415 111.884613,97.4923249 C111.279314,98.3409723 110.290659,99.4686271 107.465931,100.886914 C105.266678,102.165698 88.1972486,110.931179 85.745788,112.198338 C82.4416218,113.958974 78.8329692,114.829623 75.1934103,114.74428 C71.09794,114.74477 67.0603958,113.629401 63.4102582,111.489194 C58.9915761,109.094381 45.2512908,102.014569 43.0318614,100.886914 C40.3382813,99.4453764 39.6018342,98.5734784 38.8653872,97.608578 Z M43.2838983,75.7966943 L64.8491186,64.5597518 C66.9903346,63.4362982 69.257053,62.6589738 71.5844746,62.25 L71.5844746,82.5411695 C71.5844746,83.9501181 73.296,85.0703478 75.3800339,85.0703478 C77.4640678,85.0703478 78.9339661,83.9154719 78.9339661,82.5411695 L78.9339661,62.3077438 C81.3392149,62.7162568 83.6858093,63.4931041 85.9109492,64.6174956 L107.466102,75.8544381 C109.308508,76.8360826 112.5,78.5222014 112.5,81.3400986 C112.5,84.1579958 109.318576,85.6939808 107.466102,86.8142104 L85.9109492,97.9703116 C79.1982143,101.343229 71.5618535,101.343229 64.8491186,97.9703116 L43.2838983,86.7564666 C41.4515593,85.7748221 38.25,84.0887033 38.25,81.2823548 C38.25,78.4760064 41.5723729,76.7783388 43.2838983,75.7966943 Z M48.7813527,79.1068397 C46.7395491,80.5697059 46.7395491,82.9272174 48.7813527,84.4021734 C51.116624,85.8659422 53.883376,85.8659422 56.2186473,84.4021734 C58.2604509,82.9272174 58.2604509,80.5697059 56.2186473,79.1068397 C53.8857473,77.6310534 51.1142527,77.6310534 48.7813527,79.1068397 Z M75.6259974,59.9974398 C69.8276087,59.9191796 65.1825257,54.4842535 65.2507418,47.857991 C65.318958,41.2317286 70.0746429,35.9231899 75.8730379,36.0008411 C81.6714328,36.0784924 86.3169529,41.5129306 86.2492697,48.1392002 C86.2415995,51.330617 85.1118914,54.3846127 83.1141062,56.6146427 C81.1163209,58.8446728 78.4180958,60.0636118 75.6259974,59.9974398 Z" id="Shape" fill="#FFFFFF" fill-rule="nonzero"></path>
        </g>
        <g id="Group" transform="translate(255.000000, 466.000000) rotate(-20.000000) translate(-255.000000, -466.000000) translate(215.000000, 426.000000)">
            <path d="M29.3545455,27.0619356 L29.3545455,49.2266537 C28.2385782,48.4207628 26.8079291,47.9358611 25.25,47.9358611 C21.6934309,47.9358611 18.8,50.4623686 18.8,53.5679305 C18.8,56.6734925 21.6934309,59.2 25.25,59.2 C28.8065691,59.2 31.7,56.6734925 31.7,53.5679305 L31.7,34.3240425 L50.8545455,29.615244 L50.8545455,43.9413643 C49.7385782,43.1354735 48.3079291,42.6505717 46.75,42.6505717 C43.1934309,42.6505717 40.3,45.1770792 40.3,48.2826412 C40.3,51.3882031 43.1934309,53.9147106 46.75,53.9147106 C50.3065691,53.9147106 53.2,51.3882031 53.2,48.2826412 L53.2,21.2 L29.3545455,27.0619356 Z" id="Path" fill="#FFFFFF" fill-rule="nonzero"></path>
            <rect id="Rectangle" fill="url(#linearGradient-12)" x="0" y="0" width="80" height="80" rx="15"></rect>
            <path d="M30.25,28.4448897 L30.25,48.2764796 C29.25082,47.5554194 27.96989,47.1215599 26.575,47.1215599 C23.39063,47.1215599 20.8,49.3821193 20.8,52.1607799 C20.8,54.9394406 23.39063,57.2 26.575,57.2 C29.75937,57.2 32.35,54.9394406 32.35,52.1607799 L32.35,34.9425643 L49.5,30.7294288 L49.5,43.5475365 C48.50082,42.8264762 47.21989,42.3926168 45.825,42.3926168 C42.64063,42.3926168 40.05,44.6531761 40.05,47.4318368 C40.05,50.2104975 42.64063,52.4710569 45.825,52.4710569 C49.00937,52.4710569 51.6,50.2104975 51.6,47.4318368 L51.6,23.2 L30.25,28.4448897 Z" id="Path" fill="#FFFFFF" fill-rule="nonzero"></path>
        </g>
        <g id="Group" transform="translate(939.000000, 109.000000) rotate(30.000000) translate(-939.000000, -109.000000) translate(894.000000, 64.000000)">
            <rect id="Rectangle" fill="url(#linearGradient-13)" x="0" y="0" width="90" height="90" rx="15"></rect>
            <path d="M24.48,65.7 C16.9247446,65.7 10.8,59.5886868 10.8,52.05 C10.8,44.5113132 16.9247446,38.4 24.48,38.4 L26.9082,38.4 C29.1654,30.517125 36.45,24.75 45,24.75 C55.3884761,24.75 63.81,33.1530556 63.81,43.51875 L63.81,45.225 L68.94,45.225 C74.6064415,45.225 79.2,49.8084849 79.2,55.4625 C79.2,61.1165151 74.6064415,65.7 68.94,65.7 L24.48,65.7 Z" id="Path" fill="#FFFFFF"></path>
            <g id="arrow-down-bold" transform="translate(36.450000, 35.550000)">
                <polygon id="Path" fill="#FFE15F" points="5.41721939 6.975 12.1327806 6.975 12.1327806 16.0659091 17.55 16.0659091 8.775 24.975 0 16.0659091 5.41721939 16.0659091"></polygon>
                <rect id="Rectangle" fill="#FEE98F" x="9.9" y="4.725" width="2.25" height="2.25"></rect>
                <rect id="Rectangle" fill="#FEE98F" x="5.4" y="4.725" width="2.25" height="2.25"></rect>
                <rect id="Rectangle" fill="#FFE15F" x="5.4" y="6.975" width="2.25" height="2.25"></rect>
                <rect id="Rectangle" fill="#FCF4D2" x="5.4" y="0.225" width="2.25" height="2.25"></rect>
                <rect id="Rectangle" fill="#FFE15F" x="7.65" y="6.975" width="2.25" height="2.25"></rect>
                <rect id="Rectangle" fill="#FFF1B7" x="7.65" y="2.475" width="2.25" height="2.25"></rect>
                <rect id="Rectangle" fill="#FFF1B7" x="5.4" y="2.475" width="2.25" height="2.25"></rect>
                <rect id="Rectangle" fill="#FFE15F" x="9.9" y="6.975" width="2.25" height="2.25"></rect>
                <rect id="Rectangle" fill="#FEE98F" x="7.65" y="4.725" width="2.25" height="2.25"></rect>
            </g>
        </g>
        <g id="Group" transform="translate(1121.000000, 251.000000) rotate(-15.000000) translate(-1121.000000, -251.000000) translate(1079.000000, 201.000000)">
            <path d="M60.4955242,0 L83.333,22.957 L83.3333333,80 C83.3333333,91.045695 74.3790283,100 63.3333333,100 L20,100 C8.954305,100 1.3527075e-15,91.045695 0,80 L0,20 C-1.3527075e-15,8.954305 8.954305,2.02906125e-15 20,0 L60.4955242,0 Z" id="Combined-Shape" fill="#FFE15F"></path>
            <polygon id="Path-3" fill="#FFECB4" points="83.3333333 22.9166667 60.4166667 0 60.4166667 22.9166667"></polygon>
            <line x1="19.7916667" y1="40.625" x2="63.5416667" y2="40.625" id="Line" stroke="#FFFFFF" stroke-width="4" stroke-linecap="square"></line>
            <line x1="19.7916667" y1="51.0416667" x2="63.5416667" y2="51.0416667" id="Line" stroke="#FFFFFF" stroke-width="4" stroke-linecap="square"></line>
            <line x1="19.7916667" y1="61.4583333" x2="63.5416667" y2="61.4583333" id="Line" stroke="#FFFFFF" stroke-width="4" stroke-linecap="square"></line>
            <line x1="19.7916667" y1="71.875" x2="41.6666667" y2="71.875" id="Line" stroke="#FFFFFF" stroke-width="4" stroke-linecap="square"></line>
        </g>
        <g id="Group" transform="translate(1049.000000, 450.000000) rotate(10.000000) translate(-1049.000000, -450.000000) translate(985.000000, 386.000000)">
            <rect id="Rectangle" fill="url(#linearGradient-14)" x="0" y="0" width="128" height="128" rx="20"></rect>
            <path d="M88.32,87.68 L40.32,87.68 L40.32,49.92 L88.32,49.92 L88.32,87.68 Z M78.1155556,25.6 L78.1155556,32.512 L50.5244444,32.512 L50.5244444,25.6 L43.6266667,25.6 L43.6266667,32.512 L40.1777778,32.512 C36.3495111,32.512 33.28,35.58784 33.28,39.424 L33.28,87.808 C33.28,91.6253922 36.3682403,94.72 40.1777778,94.72 L88.4622222,94.72 C92.2717597,94.72 95.36,91.6253922 95.36,87.808 L95.36,39.424 C95.36,35.58784 92.256,32.512 88.4622222,32.512 L85.0133333,32.512 L85.0133333,25.6 L78.1155556,25.6 Z M81.28,63.36 L64,63.36 L64,80.64 L81.28,80.64 L81.28,63.36 Z" id="Shape" fill="#FFFFFF" fill-rule="nonzero"></path>
        </g>
        <g id="Group" transform="translate(866.000000, 327.000000) rotate(20.000000) translate(-866.000000, -327.000000) translate(796.000000, 257.000000)">
            <rect id="Rectangle" fill="url(#linearGradient-15)" x="0" y="0" width="140" height="140" rx="40"></rect>
            <path d="" id="Combined-Shape" fill="#CDFF5F"></path>
            <path d="M111.65,77 L139.549018,106.026402 C136.642907,125.258546 120.042979,140 100,140 L51.1,140 L111.65,77 Z" id="Combined-Shape" fill="#CDFF5F"></path>
            <path d="M60.55,95.9 L104.722182,139.724189 C103.209043,139.902148 101.670065,139.995649 100.110089,139.999852 L39.8891728,139.999 L39.3385269,139.994641 C32.6904171,139.886852 26.4365717,138.157177 20.955423,135.184049 L60.55,95.9 Z" id="Combined-Shape" fill="#CDFF5F"></path>
            <circle id="Oval" fill="#FFE15F" cx="112" cy="24.5" r="14"></circle>
            <path d="M24.22,58.8 C21.6684445,58.8 19.6,56.7106622 19.6,54.1333333 C19.6,51.5560045 21.6684445,49.4666667 24.22,49.4666667 L25.04005,49.4666667 C25.80235,46.7716667 28.2625,44.8 31.15,44.8 C34.6583889,44.8 37.5025,47.6728395 37.5025,51.2166667 L37.5025,51.8 L39.235,51.8 C41.1486667,51.8 42.7,53.3670034 42.7,55.3 C42.7,57.2329966 41.1486667,58.8 39.235,58.8 L24.22,58.8 Z" id="Path" fill="#FFFFFF"></path>
            <path d="M43.26,72.8 C40.2445253,72.8 37.8,70.3972615 37.8,67.4333333 C37.8,64.4694052 40.2445253,62.0666667 43.26,62.0666667 L44.22915,62.0666667 C45.13005,58.9674167 48.0375,56.7 51.45,56.7 C55.5962778,56.7 58.9575,60.0037655 58.9575,64.0791667 L58.9575,64.75 L61.005,64.75 C63.2666061,64.75 65.1,66.5520539 65.1,68.775 C65.1,70.9979461 63.2666061,72.8 61.005,72.8 L43.26,72.8 Z" id="Path" fill="#FFFFFF"></path>
            <path d="M100.94,60.9 C99.3162828,60.9 98,59.5419304 98,57.8666667 C98,56.1914029 99.3162828,54.8333333 100.94,54.8333333 L101.46185,54.8333333 C101.94695,53.0815833 103.5125,51.8 105.35,51.8 C107.582611,51.8 109.3925,53.6673457 109.3925,55.9708333 L109.3925,56.35 L110.495,56.35 C111.712788,56.35 112.7,57.3685522 112.7,58.625 C112.7,59.8814478 111.712788,60.9 110.495,60.9 L100.94,60.9 Z" id="Path" fill="#FFFFFF"></path>
        </g>
        <text id="A-safe-place-for-All" font-family="Avenir-Medium, Avenir" font-size="38" font-weight="400" fill="#000000">
            <tspan x="350.112" y="586">A safe place for All your data</tspan>
        </text>
    </g>
</svg>