<?xml version="1.0" encoding="UTF-8"?>
<svg width="1500px" height="500px" viewBox="0 0 1500 500" version="1.1" xmlns="http://www.w3.org/2000/svg" xmlns:xlink="http://www.w3.org/1999/xlink">
    <!-- Generator: Sketch 63.1 (92452) - https://sketch.com -->
    <title>mastodon_cover</title>
    <desc>Created with Sketch.</desc>
    <defs>
        <path d="M79.3501576,9.0002094 L79.3496976,167.999 L51.3506976,151.424409 L51.3506976,25.3466245 L65.4339257,16.9991543 C75.1710209,11.2267493 78.2189793,9.43893075 79.3501576,9.0002094 Z" id="path-1"></path>
        <filter x="-8.9%" y="-2.0%" width="135.7%" height="103.9%" filterUnits="objectBoundingBox" id="filter-2">
            <feMorphology radius="1" operator="erode" in="SourceAlpha" result="shadowSpreadOuter1"></feMorphology>
            <feOffset dx="3" dy="0" in="shadowSpreadOuter1" result="shadowOffsetOuter1"></feOffset>
            <feGaussianBlur stdDeviation="2" in="shadowOffsetOuter1" result="shadowBlurOuter1"></feGaussianBlur>
            <feColorMatrix values="0 0 0 0 0   0 0 0 0 0   0 0 0 0 0  0 0 0 0.5 0" type="matrix" in="shadowBlurOuter1"></feColorMatrix>
        </filter>
        <linearGradient x1="50%" y1="0%" x2="50%" y2="99.8152449%" id="linearGradient-3">
            <stop stop-color="#FFC82E" offset="0%"></stop>
            <stop stop-color="#FFE7A2" offset="100%"></stop>
        </linearGradient>
        <polygon id="path-4" points="90.8907261 81.4887662 120.647164 64.3787774 121.200687 126.801324 120.977062 126.927954 118.588723 128.280383 91.5875657 143.876986"></polygon>
        <filter x="-23.1%" y="-11.3%" width="146.2%" height="117.6%" filterUnits="objectBoundingBox" id="filter-5">
            <feOffset dx="0" dy="-2" in="SourceAlpha" result="shadowOffsetOuter1"></feOffset>
            <feGaussianBlur stdDeviation="2" in="shadowOffsetOuter1" result="shadowBlurOuter1"></feGaussianBlur>
            <feColorMatrix values="0 0 0 0 0   0 0 0 0 0   0 0 0 0 0  0 0 0 0.5 0" type="matrix" in="shadowBlurOuter1"></feColorMatrix>
        </filter>
        <linearGradient x1="-62.3795815%" y1="0%" x2="113.873538%" y2="0%" id="linearGradient-6">
            <stop stop-color="#4285F4" offset="0%"></stop>
            <stop stop-color="#73A7FF" offset="100%"></stop>
        </linearGradient>
        <path d="M132.029125,40 L132.350698,74.590624 L87.0381772,101.146669 C83.8817731,103.004534 81.1939655,104.584011 78.9747544,105.885101 C73.7010572,108.97699 73.56033,109.038847 78.5525729,106.070675 L49.6782608,123 L49.3506976,88.8616097 L78.3616976,71.77 L78.3624235,71.7311286 L132.029125,40 Z" id="path-7"></path>
        <filter x="-9.6%" y="-5.7%" width="119.2%" height="113.9%" filterUnits="objectBoundingBox" id="filter-8">
            <feMorphology radius="1.5" operator="erode" in="SourceAlpha" result="shadowSpreadOuter1"></feMorphology>
            <feOffset dx="0" dy="1" in="shadowSpreadOuter1" result="shadowOffsetOuter1"></feOffset>
            <feGaussianBlur stdDeviation="4" in="shadowOffsetOuter1" result="shadowBlurOuter1"></feGaussianBlur>
            <feColorMatrix values="0 0 0 0 0   0 0 0 0 0   0 0 0 0 0  0 0 0 0.5 0" type="matrix" in="shadowBlurOuter1"></feColorMatrix>
        </filter>
        <linearGradient x1="0%" y1="100%" x2="102.958548%" y2="-2.79763745%" id="linearGradient-9">
            <stop stop-color="#FFE15F" offset="0%"></stop>
            <stop stop-color="#FFE98A" offset="100%"></stop>
            <stop stop-color="#34B4A2" offset="100%"></stop>
        </linearGradient>
        <linearGradient x1="0%" y1="99.0521542%" x2="102.958548%" y2="-1.79675707%" id="linearGradient-10">
            <stop stop-color="#4285F4" offset="0%"></stop>
            <stop stop-color="#40B0FF" offset="100%"></stop>
            <stop stop-color="#34B4A2" offset="100%"></stop>
        </linearGradient>
        <linearGradient x1="89.3393732%" y1="7.06541881%" x2="4.11432359%" y2="96.041737%" id="linearGradient-11">
            <stop stop-color="#CBFFD9" offset="0%"></stop>
            <stop stop-color="#00DE39" offset="100%"></stop>
            <stop stop-color="#34B4A2" offset="100%"></stop>
        </linearGradient>
        <linearGradient x1="121.72744%" y1="-10.0947117%" x2="-38.4510688%" y2="143.277552%" id="linearGradient-12">
            <stop stop-color="#BE95FD" offset="0%"></stop>
            <stop stop-color="#FF006E" offset="99.4747677%"></stop>
            <stop stop-color="#34B4A2" offset="100%"></stop>
        </linearGradient>
        <linearGradient x1="0%" y1="100%" x2="102.958548%" y2="-2.79763745%" id="linearGradient-13">
            <stop stop-color="#68D0FF" offset="0%"></stop>
            <stop stop-color="#9BE0FF" offset="100%"></stop>
            <stop stop-color="#34B4A2" offset="100%"></stop>
        </linearGradient>
        <linearGradient x1="0.913222793%" y1="100%" x2="101.991289%" y2="-2.79763745%" id="linearGradient-14">
            <stop stop-color="#4285F4" offset="0%"></stop>
            <stop stop-color="#40B0FF" offset="100%"></stop>
            <stop stop-color="#34B4A2" offset="100%"></stop>
        </linearGradient>
        <linearGradient x1="0%" y1="100%" x2="102.958548%" y2="-2.79763745%" id="linearGradient-15">
            <stop stop-color="#1DADFF" offset="0%"></stop>
            <stop stop-color="#ABDEFD" offset="100%"></stop>
            <stop stop-color="#34B4A2" offset="100%"></stop>
        </linearGradient>
    </defs>
    <g id="mastodon_cover" stroke="none" stroke-width="1" fill="none" fill-rule="evenodd">
        <rect fill="#FFFFFF" x="0" y="0" width="1500" height="500"></rect>
        <g id="Group" transform="translate(651.239488, 83.000000)">
            <rect id="Rectangle" fill="#FFFFFF" x="0.350697649" y="0" width="184" height="184" rx="40"></rect>
            <path d="M90.6432714,18.987132 L120.012253,1.55486384 L120.027228,2.55929637 L120.566301,64.2405616 C101.608803,75.7059813 92.1276812,81.4030839 92.1229348,81.3318693 C92.0814654,80.7053284 91.5882443,59.9237492 90.6432714,18.987132 Z" id="Rectangle" fill="#4285F4" transform="translate(105.604786, 41.443367) rotate(121.000000) translate(-105.604786, -41.443367) "></path>
            <polygon id="Rectangle" fill="#EDB722" transform="translate(105.571847, 135.704625) rotate(59.000000) translate(-105.571847, -135.704625) " points="91.411288 95.6482912 120.700696 113.266471 119.39918 175.760959 90.4429972 158.362329"></polygon>
            <g id="Combined-Shape">
                <use fill="black" fill-opacity="1" filter="url(#filter-2)" xlink:href="#path-1"></use>
                <use fill="#DB4437" fill-rule="evenodd" xlink:href="#path-1"></use>
            </g>
            <g id="Rectangle" transform="translate(106.045706, 104.127882) rotate(121.000000) translate(-106.045706, -104.127882) ">
                <use fill="black" fill-opacity="1" filter="url(#filter-5)" xlink:href="#path-4"></use>
                <use fill="url(#linearGradient-3)" fill-rule="evenodd" xlink:href="#path-4"></use>
            </g>
            <g id="Combined-Shape">
                <use fill="black" fill-opacity="1" filter="url(#filter-8)" xlink:href="#path-7"></use>
                <use fill="url(#linearGradient-6)" fill-rule="evenodd" xlink:href="#path-7"></use>
            </g>
            <polygon id="Path-7" fill="#FFFFFF" points="78.3506976 106.748664 79.760529 106 81.9574128 107.297674 84.8825882 108.936351 103.350698 119.762943 78.3506976 134"></polygon>
            <polygon id="Path-7" fill="#FFFFFF" points="78.3506976 43 84.8825882 47.0987947 103.350698 58.1844962 78.3506976 73"></polygon>
            <polygon id="Path-7" fill="#FFFFFF" transform="translate(120.350698, 89.000000) scale(-1, -1) translate(-120.350698, -89.000000) " points="108.350698 75 113.426565 77.9269279 132.350698 89 108.726686 103"></polygon>
            <path d="M132.753052,40.0649962 C135.682355,37.3354932 137.94863,35.9804945 139.551875,36 C141.15512,36.0200712 143.421394,37.4310138 146.350698,40.2328278 L146.350698,79.8282114 C140.383048,81.0002768 136.077127,81.2930855 133.432934,80.7066375 C130.788742,80.1201894 130.662906,78.8444738 133.055428,76.8794907 L132.753052,40.0649962 Z" id="Rectangle" fill="#FFFFFF"></path>
            <path d="M133.050698,101.745299 C132.292565,95.8955645 132.775461,92.9804649 134.499386,93 C136.22331,93.0201986 140.840414,96.0449222 148.350698,102.074171 L148.350698,141.826622 C141.806137,144.383735 137.394525,145.395454 135.115862,144.861778 C132.837199,144.328102 131.582145,141.989218 131.350698,137.845126 C132.026613,137.536035 132.462279,137.251883 132.657696,136.992669 C132.853113,136.733455 132.853113,136.265945 132.657696,135.590137 L133.050698,101.745299 Z" id="Rectangle" fill="#FFFFFF"></path>
            <path d="M35.3506976,85.0802255 C38.2332963,82.3406365 40.463437,80.9807727 42.0411198,81.0006342 C43.6188027,81.0204957 46.054409,82.3803594 49.3479389,85.0802255 L49.3479389,88.3385717 L49.3479389,88.5056476 L49.3479389,122.946694 C49.3544833,123.033489 49.3472366,123.474648 49.3479389,123.565492 C49.348982,123.70042 49.348982,123.895873 49.3479389,124.151853 L49.3479389,125.113494 L49.3479389,126 L35.6482529,122.030757 L35.3506976,85.0802255 Z" id="Rectangle" fill="#FFFFFF"></path>
        </g>
        <text id="Bloom" font-family="Helvetica" font-size="100" font-weight="normal" fill="#000000">
            <tspan x="601.515855" y="376">Bloom</tspan>
        </text>
        <g id="Group" transform="translate(434.000000, 257.000000) rotate(30.000000) translate(-434.000000, -257.000000) translate(374.000000, 197.000000)">
            <rect id="Rectangle" fill="url(#linearGradient-9)" x="0.303847577" y="0.081415713" width="119" height="119" rx="20"></rect>
            <path d="M52.3708349,32.3314157 L31.3708349,32.3314157 C27.5208349,32.3314157 24.3708349,35.4251657 24.3708349,39.2064157 L24.3708349,80.4564157 C24.3708349,84.2376657 27.5208349,87.3314157 31.3708349,87.3314157 L87.3708349,87.3314157 C91.2208349,87.3314157 94.3708349,84.2376657 94.3708349,80.4564157 L94.3708349,46.0814157 C94.3708349,42.3001657 91.2208349,39.2064157 87.3708349,39.2064157 L59.3708349,39.2064157 L52.3708349,32.3314157 L52.3708349,32.3314157 Z" id="Shape" fill="#FFFFFF"></path>
            <rect id="Rectangle" fill="#FF5F7D" x="30.5455173" y="36.0025774" width="3" height="3" rx="1.5"></rect>
            <rect id="Rectangle" fill="#FFE15F" x="35.5096189" y="36.6006536" width="3" height="3" rx="1.5"></rect>
            <rect id="Rectangle" fill="#5FCDFF" x="41.7057714" y="35.3327044" width="3" height="3" rx="1.5"></rect>
        </g>
        <g id="Group" transform="translate(269.490139, 124.532368) rotate(-10.000000) translate(-269.490139, -124.532368) translate(216.490139, 72.032368)">
            <rect id="Rectangle" fill="url(#linearGradient-10)" x="0.428507615" y="0.962240156" width="105" height="104" rx="20"></rect>
            <path d="M52.3492796,34.8678199 C47.52934,34.8678199 43.6220069,38.6906194 43.6220069,43.4062815 C43.6220069,48.1219436 47.52934,51.944743 52.3492796,51.944743 C57.1692193,51.944743 61.0765524,48.1219436 61.0765524,43.4062815 C61.0765524,38.6906194 57.1692193,34.8678199 52.3492796,34.8678199 L52.3492796,34.8678199 Z M34.8947342,41.0439738 C30.8781178,41.0439738 27.6220069,44.22964 27.6220069,48.1593584 C27.6220069,50.0464757 28.3882385,51.8563017 29.7521394,53.1906951 C31.1160404,54.5250886 32.965887,55.274743 34.8947342,55.274743 C37.4547342,55.274743 39.6947342,53.9655123 40.9747342,52.0301276 C39.0256433,49.6108969 37.8038251,46.6793584 37.8038251,43.4062815 C37.8038251,42.8370507 37.8038251,42.2678199 37.9201887,41.6985892 C36.9892796,41.2716661 35.9710978,41.0439738 34.8947342,41.0439738 L34.8947342,41.0439738 Z M69.8038251,41.0439738 C68.7274615,41.0439738 67.7092796,41.2716661 66.7783706,41.6985892 C66.8947342,42.2678199 66.8947342,42.8370507 66.8947342,43.4062815 C66.8947342,46.6793584 65.672916,49.6108969 63.7238251,52.0301276 C65.0038251,53.9655123 67.2438251,55.274743 69.8038251,55.274743 C71.7326723,55.274743 73.5825189,54.5250886 74.9464199,53.1906951 C76.3103208,51.8563017 77.0765524,50.0464757 77.0765524,48.1593584 C77.0765524,46.2722411 76.3103208,44.4624152 74.9464199,43.1280217 C73.5825189,41.7936282 71.7326723,41.0439738 69.8038251,41.0439738 L69.8038251,41.0439738 Z M52.3492796,57.6370507 C46.5310978,57.6370507 34.8947342,60.4832046 34.8947342,66.1755123 L34.8947342,71.8678199 L69.8038251,71.8678199 L69.8038251,66.1755123 C69.8038251,60.4832046 58.1674615,57.6370507 52.3492796,57.6370507 L52.3492796,57.6370507 Z M31.0256433,60.3978199 C26.1674615,61.2232046 20.3492796,63.4432046 20.3492796,67.114743 L20.3492796,71.8678199 L29.0765524,71.8678199 L29.0765524,66.1755123 C29.0765524,63.9555123 29.9201887,61.9916661 31.0256433,60.3978199 L31.0256433,60.3978199 Z M73.672916,60.3978199 C74.7783706,61.9916661 75.6220069,63.9555123 75.6220069,66.1755123 L75.6220069,71.8678199 L84.3492796,71.8678199 L84.3492796,67.114743 C84.3492796,63.4432046 78.5310978,61.2232046 73.672916,60.3978199 Z" id="Shape" fill="#FFFFFF" fill-rule="nonzero"></path>
        </g>
        <g id="Group" transform="translate(239.500000, 262.500000) rotate(20.000000) translate(-239.500000, -262.500000) translate(187.000000, 210.000000)">
            <rect id="Rectangle" fill="url(#linearGradient-11)" x="0.18869161" y="0.0812181013" width="104" height="104" rx="25"></rect>
            <path d="M27.7522382,67.9082675 C27.4873562,67.5140388 27.3390071,67.0296121 27.329548,66.527993 L27.329548,64.1571686 C27.329548,64.1571686 27.329548,62.7768941 28.5075371,63.3452424 C28.5075371,63.3452424 43.2601186,71.147853 45.6230263,72.4306964 C47.8753079,73.725404 50.3635644,74.3553395 52.8711241,74.2656495 C55.3670535,74.2774991 57.8369802,73.6715715 60.1192219,72.4875312 L77.1515589,63.2640498 C78.329548,62.6713437 78.329548,64.075976 78.329548,64.075976 L78.329548,66.4468004 C78.3190966,66.9482032 78.1708566,67.4322738 77.9068578,67.8270749 C77.4910969,68.419781 76.8120208,69.2073494 74.8718034,70.1978994 C73.3612056,71.0910182 61.6367491,77.2129416 59.9529176,78.0979411 C57.6833892,79.3275918 55.2047188,79.9356644 52.7048197,79.8760594 C49.8917694,79.8764014 47.1185067,79.0974141 44.6113415,77.6026661 C41.5762871,75.9300982 32.1385154,70.9854678 30.6140589,70.1978994 C28.763923,69.1911109 28.2580806,68.5821663 27.7522382,67.9082675 Z M30.7871751,52.674571 L45.5996497,44.8265477 C47.0703839,44.0419134 48.6273217,43.4990202 50.2259548,43.2133877 L50.2259548,57.3849982 C50.2259548,58.3690257 51.401548,59.1514083 52.8330056,59.1514083 C54.2644632,59.1514083 55.2740904,58.3448283 55.2740904,57.3849982 L55.2740904,43.2537167 C56.9261804,43.5390273 58.5379827,44.0815874 60.0663616,44.8668767 L74.8719209,52.7149 C76.1374124,53.400493 78.329548,54.5780998 78.329548,56.546155 C78.329548,58.5142101 76.1443277,59.5869615 74.8719209,60.3693441 L60.0663616,68.1609069 C55.4555942,70.5165956 50.210417,70.5165956 45.5996497,68.1609069 L30.7871751,60.3290151 C29.5285988,59.6434221 27.329548,58.4658153 27.329548,56.505826 C27.329548,54.5458366 29.6115819,53.360164 30.7871751,52.674571 Z M34.5632044,54.9864186 C33.1607534,56.0081029 33.1607534,57.6546189 34.5632044,58.6847469 C36.1672291,59.7070616 38.0676244,59.7070616 39.6716491,58.6847469 C41.0741001,57.6546189 41.0741001,56.0081029 39.6716491,54.9864186 C38.0692532,53.9557107 36.1656004,53.9557107 34.5632044,54.9864186 Z M53.0019502,41.6401711 C49.0192186,41.5855131 45.8286566,37.7896917 45.8755121,33.1618258 C45.9223676,28.53396 49.1888987,24.8264092 53.1716346,24.8806418 C57.1543705,24.9348744 60.3452328,28.7303551 60.2987433,33.3582259 C60.2934749,35.5871519 59.5175138,37.7201013 58.1452977,39.2775826 C56.7730815,40.8350639 54.9197552,41.6863864 53.0019502,41.6401711 Z" id="Shape" fill="#FFFFFF" fill-rule="nonzero"></path>
        </g>
        <g id="Group" transform="translate(434.500000, 86.000000) rotate(-20.000000) translate(-434.500000, -86.000000) translate(401.000000, 52.000000)">
            <path d="M25.0661773,22.9699447 L25.0661773,41.6349704 C24.1253909,40.9563255 22.9193204,40.5479872 21.60595,40.5479872 C18.6076795,40.5479872 16.16845,42.6755724 16.16845,45.2907825 C16.16845,47.9059926 18.6076795,50.0335779 21.60595,50.0335779 C24.6042204,50.0335779 27.04345,47.9059926 27.04345,45.2907825 L27.04345,29.0854031 L43.1911773,25.1200991 L43.1911773,37.1842004 C42.2503909,36.5055555 41.0443204,36.0972172 39.73095,36.0972172 C36.7326795,36.0972172 34.29345,38.2248025 34.29345,40.8400125 C34.29345,43.4552226 36.7326795,45.5828079 39.73095,45.5828079 C42.7292204,45.5828079 45.16845,43.4552226 45.16845,40.8400125 L45.16845,18.0335779 L25.0661773,22.9699447 Z" id="Path" fill="#FFFFFF" fill-rule="nonzero"></path>
            <rect id="Rectangle" fill="url(#linearGradient-12)" x="0.329547992" y="0.11994566" width="67" height="68" rx="15"></rect>
            <path d="M25.0048663,24.3059965 L25.0048663,41.2211761 C24.1614027,40.6061541 23.0800982,40.2360975 21.9025936,40.2360975 C19.2144891,40.2360975 17.0275936,42.1642217 17.0275936,44.5342558 C17.0275936,46.9042899 19.2144891,48.8324141 21.9025936,48.8324141 C24.5906982,48.8324141 26.7775936,46.9042899 26.7775936,44.5342558 L26.7775936,29.8481307 L41.2548663,26.254574 L41.2548663,37.1876658 C40.4114027,36.5726438 39.3300982,36.2025872 38.1525936,36.2025872 C35.4644891,36.2025872 33.2775936,38.1307114 33.2775936,40.5007455 C33.2775936,42.8707796 35.4644891,44.7989038 38.1525936,44.7989038 C40.8406982,44.7989038 43.0275936,42.8707796 43.0275936,40.5007455 L43.0275936,19.8324141 L25.0048663,24.3059965 Z" id="Path" fill="#FFFFFF" fill-rule="nonzero"></path>
        </g>
        <g id="Group" transform="translate(1100.075318, 107.209292) rotate(30.000000) translate(-1100.075318, -107.209292) translate(1049.575318, 56.709292)">
            <rect id="Rectangle" fill="url(#linearGradient-13)" x="0.330127019" y="0.356406461" width="100" height="100" rx="15"></rect>
            <path d="M28.030127,74.2224319 C19.6353988,74.2224319 12.830127,67.3574647 12.830127,58.8890985 C12.830127,50.4207324 19.6353988,43.5557652 28.030127,43.5557652 L30.728127,43.5557652 C33.236127,34.7007652 41.330127,28.2224319 50.830127,28.2224319 C62.3728783,28.2224319 71.730127,37.6617617 71.730127,49.3057652 L71.730127,51.2224319 L77.430127,51.2224319 C83.7261732,51.2224319 88.830127,56.3711572 88.830127,62.7224319 C88.830127,69.0737065 83.7261732,74.2224319 77.430127,74.2224319 L28.030127,74.2224319 Z" id="Path" fill="#FFFFFF"></path>
            <g id="arrow-down-bold" transform="translate(40.598076, 40.820508)">
                <polygon id="Path" fill="#FFE15F" points="6.17346939 7.75 13.8265306 7.75 13.8265306 17.8510101 20 17.8510101 10 27.75 0 17.8510101 6.17346939 17.8510101"></polygon>
                <rect id="Rectangle" fill="#FEE98F" x="11.2820513" y="5.25" width="2.56410256" height="2.5"></rect>
                <rect id="Rectangle" fill="#FEE98F" x="6.15384615" y="5.25" width="2.56410256" height="2.5"></rect>
                <rect id="Rectangle" fill="#FFE15F" x="6.15384615" y="7.75" width="2.56410256" height="2.5"></rect>
                <rect id="Rectangle" fill="#FCF4D2" x="6.15384615" y="0.25" width="2.56410256" height="2.5"></rect>
                <rect id="Rectangle" fill="#FFE15F" x="8.71794872" y="7.75" width="2.56410256" height="2.5"></rect>
                <rect id="Rectangle" fill="#FFF1B7" x="8.71794872" y="2.75" width="2.56410256" height="2.5"></rect>
                <rect id="Rectangle" fill="#FFF1B7" x="6.15384615" y="2.75" width="2.56410256" height="2.5"></rect>
                <rect id="Rectangle" fill="#FFE15F" x="11.2820513" y="7.75" width="2.56410256" height="2.5"></rect>
                <rect id="Rectangle" fill="#FEE98F" x="8.71794872" y="5.25" width="2.56410256" height="2.5"></rect>
            </g>
        </g>
        <g id="Group" transform="translate(1225.500000, 153.500000) rotate(-15.000000) translate(-1225.500000, -153.500000) translate(1190.000000, 111.000000)">
            <path d="M50.355785,-0.038642292 C50.6354204,-0.038642292 50.9137155,-0.0329033716 51.1905588,-0.0215368847 L70.3498723,19.4702074 C70.3538066,19.6334471 70.355785,19.7971713 70.355785,19.9613577 L70.355785,64.9613577 C70.355785,76.0070527 61.40148,84.9613577 50.355785,84.9613577 L20.355785,84.9613577 C9.31009001,84.9613577 0.355785003,76.0070527 0.355785003,64.9613577 L0.355785003,19.9613577 C0.355785003,8.91566271 9.31009001,-0.038642292 20.355785,-0.038642292 L50.355785,-0.038642292 Z" id="Combined-Shape" fill="#FFE15F"></path>
            <polygon id="Path-3" fill="#FFECB4" points="70.6286849 19.5266906 51.6286849 0.526690553 51.6286849 19.5266906"></polygon>
            <line x1="16.5115228" y1="34.0869035" x2="53.5115228" y2="34.0869035" id="Line" stroke="#FFFFFF" stroke-width="4" stroke-linecap="square"></line>
            <line x1="17.0799289" y1="43.5566931" x2="54.0799289" y2="43.5566931" id="Line" stroke="#FFFFFF" stroke-width="4" stroke-linecap="square"></line>
            <line x1="16.9412282" y1="51.8017378" x2="53.9412282" y2="51.8017378" id="Line" stroke="#FFFFFF" stroke-width="4" stroke-linecap="square"></line>
            <line x1="17.3157008" y1="60.7445981" x2="35.3157008" y2="60.7445981" id="Line" stroke="#FFFFFF" stroke-width="4" stroke-linecap="square"></line>
        </g>
        <g id="Group" transform="translate(1242.239488, 311.500000) rotate(10.000000) translate(-1242.239488, -311.500000) translate(1188.239488, 257.000000)">
            <rect id="Rectangle" fill="url(#linearGradient-14)" x="0.345369763" y="-0.0608980076" width="108" height="109" rx="20"></rect>
            <path d="M73.927518,74.9754195 L33.7213324,74.9754195 L33.7213324,42.743938 L73.927518,42.743938 L73.927518,74.9754195 Z M65.3799808,21.9846787 L65.3799808,27.8846787 L42.2688697,27.8846787 L42.2688697,21.9846787 L36.4910919,21.9846787 L36.4910919,27.8846787 L33.602203,27.8846787 C30.3955363,27.8846787 27.8244252,30.5101787 27.8244252,33.7846787 L27.8244252,75.0846787 C27.8244252,78.3431588 30.4112245,80.9846787 33.602203,80.9846787 L74.0466475,80.9846787 C77.237626,80.9846787 79.8244252,78.3431588 79.8244252,75.0846787 L79.8244252,33.7846787 C79.8244252,30.5101787 77.2244252,27.8846787 74.0466475,27.8846787 L71.1577586,27.8846787 L71.1577586,21.9846787 L65.3799808,21.9846787 Z M68.0306108,54.2161602 L53.556384,54.2161602 L53.556384,68.9661602 L68.0306108,68.9661602 L68.0306108,54.2161602 Z" id="Shape" fill="#FFFFFF" fill-rule="nonzero"></path>
        </g>
        <g id="Group" transform="translate(1031.898041, 264.072278) scale(-1, 1) rotate(20.000000) translate(-1031.898041, -264.072278) translate(958.398041, 189.572278)">
            <rect id="Rectangle" fill="url(#linearGradient-15)" x="0.0374496455" y="0.527260215" width="146" height="146" rx="40"></rect>
            <path d="" id="Combined-Shape" fill="#CDFF5F"></path>
            <path d="M116.163709,82.0412945 L145.556448,112.668378 C143.264395,132.566871 126.370144,148.020681 105.86223,148.041274 L52.822189,148.040295 L116.163709,82.0412945 Z" id="Combined-Shape" fill="#CDFF5F"></path>
            <path d="M62.379884,101.907116 L108.719113,146.775486 C107.641073,146.862674 106.550956,146.907116 105.450458,146.907116 L39.0705918,146.907116 C32.3983458,146.907116 26.10766,145.273462 20.5767032,142.384325 L62.379884,101.907116 Z" id="Combined-Shape" fill="#CDFF5F"></path>
            <circle id="Oval" fill="#FFE15F" cx="116.980181" cy="26.1401697" r="14.5"></circle>
            <path d="M24.5658251,63.4822899 C21.8044013,63.4822899 19.5658251,61.2437137 19.5658251,58.4822899 C19.5658251,55.7208662 21.8044013,53.4822899 24.5658251,53.4822899 L25.4533251,53.4822899 C26.2783251,50.5947899 28.9408251,48.4822899 32.0658251,48.4822899 C35.8627828,48.4822899 38.9408251,51.5603323 38.9408251,55.3572899 L38.9408251,55.9822899 L40.8158251,55.9822899 C42.8868929,55.9822899 44.5658251,57.6612221 44.5658251,59.7322899 C44.5658251,61.8033578 42.8868929,63.4822899 40.8158251,63.4822899 L24.5658251,63.4822899 Z" id="Path" fill="#FFFFFF"></path>
            <path d="M44.7294434,77.0351375 C41.6366488,77.0351375 39.1294434,74.4980844 39.1294434,71.3684708 C39.1294434,68.2388573 41.6366488,65.7018042 44.7294434,65.7018042 L45.7234434,65.7018042 C46.6474434,62.4293042 49.6294434,60.0351375 53.1294434,60.0351375 C57.382036,60.0351375 60.8294434,63.5235855 60.8294434,67.8268042 L60.8294434,68.5351375 L62.9294434,68.5351375 C65.2490394,68.5351375 67.1294434,70.4379273 67.1294434,72.7851375 C67.1294434,75.1323477 65.2490394,77.0351375 62.9294434,77.0351375 L44.7294434,77.0351375 Z" id="Path" fill="#FFFFFF"></path>
            <path d="M104.715616,65.3594847 C103.058761,65.3594847 101.715616,63.8671005 101.715616,62.0261514 C101.715616,60.1852022 103.058761,58.692818 104.715616,58.692818 L105.248116,58.692818 C105.743116,56.767818 107.340616,55.3594847 109.215616,55.3594847 C111.49379,55.3594847 113.340616,57.4115129 113.340616,59.942818 L113.340616,60.3594847 L114.465616,60.3594847 C115.708256,60.3594847 116.715616,61.4787728 116.715616,62.8594847 C116.715616,64.2401966 115.708256,65.3594847 114.465616,65.3594847 L104.715616,65.3594847 Z" id="Path" fill="#FFFFFF"></path>
        </g>
        <text id="A-safe-place-for-All" font-family="Avenir-Medium, Avenir" font-size="35" font-weight="400" fill="#000000">
            <tspan x="519.34" y="410">A safe place for All your data</tspan>
        </text>
    </g>
</svg>