<?xml version="1.0" encoding="UTF-8"?>
<svg width="1500px" height="500px" viewBox="0 0 1500 500" version="1.1" xmlns="http://www.w3.org/2000/svg" xmlns:xlink="http://www.w3.org/1999/xlink">
    <!-- Generator: Sketch 63.1 (92452) - https://sketch.com -->
    <title>twitter_cover</title>
    <desc>Created with Sketch.</desc>
    <defs>
        <path d="M93.428206,11.0001421 L93.4275714,198.999 L60.4285714,179.401188 L60.4285714,30.3280844 L77.0266616,20.4581196 C88.5033017,13.6324234 92.0952475,11.5187008 93.428206,11.0001421 Z" id="path-1"></path>
        <filter x="-7.6%" y="-1.7%" width="130.3%" height="103.3%" filterUnits="objectBoundingBox" id="filter-2">
            <feMorphology radius="1" operator="erode" in="SourceAlpha" result="shadowSpreadOuter1"></feMorphology>
            <feOffset dx="3" dy="0" in="shadowSpreadOuter1" result="shadowOffsetOuter1"></feOffset>
            <feGaussianBlur stdDeviation="2" in="shadowOffsetOuter1" result="shadowBlurOuter1"></feGaussianBlur>
            <feColorMatrix values="0 0 0 0 0   0 0 0 0 0   0 0 0 0 0  0 0 0 0.5 0" type="matrix" in="shadowBlurOuter1"></feColorMatrix>
        </filter>
        <linearGradient x1="50%" y1="0%" x2="50%" y2="99.8152449%" id="linearGradient-3">
            <stop stop-color="#FFC82E" offset="0%"></stop>
            <stop stop-color="#FFE7A2" offset="100%"></stop>
        </linearGradient>
        <polygon id="path-4" points="107.593867 96.5698112 142.848439 76.2976294 143.47657 150.208723 143.211627 150.358758 140.382001 151.961153 108.391776 170.440197"></polygon>
        <filter x="-19.5%" y="-9.6%" width="139.0%" height="114.9%" filterUnits="objectBoundingBox" id="filter-5">
            <feOffset dx="0" dy="-2" in="SourceAlpha" result="shadowOffsetOuter1"></feOffset>
            <feGaussianBlur stdDeviation="2" in="shadowOffsetOuter1" result="shadowBlurOuter1"></feGaussianBlur>
            <feColorMatrix values="0 0 0 0 0   0 0 0 0 0   0 0 0 0 0  0 0 0 0.5 0" type="matrix" in="shadowBlurOuter1"></feColorMatrix>
        </filter>
        <linearGradient x1="-62.3795815%" y1="0%" x2="113.873538%" y2="0%" id="linearGradient-6">
            <stop stop-color="#4285F4" offset="0%"></stop>
            <stop stop-color="#73A7FF" offset="100%"></stop>
        </linearGradient>
        <path d="M156.048883,48 L156.428571,88.8419416 L102.778427,120.284745 C99.1157665,122.440514 95.9917485,124.276281 93.4063734,125.792047 C87.1795984,129.442711 87.0134386,129.515748 92.907894,126.011158 L58.8153328,146 L58.4285714,105.692021 L92.6825714,85.512 L92.6833803,85.4656699 L156.048883,48 Z" id="path-7"></path>
        <filter x="-8.1%" y="-4.9%" width="116.3%" height="111.8%" filterUnits="objectBoundingBox" id="filter-8">
            <feMorphology radius="1.5" operator="erode" in="SourceAlpha" result="shadowSpreadOuter1"></feMorphology>
            <feOffset dx="0" dy="1" in="shadowSpreadOuter1" result="shadowOffsetOuter1"></feOffset>
            <feGaussianBlur stdDeviation="4" in="shadowOffsetOuter1" result="shadowBlurOuter1"></feGaussianBlur>
            <feColorMatrix values="0 0 0 0 0   0 0 0 0 0   0 0 0 0 0  0 0 0 0.5 0" type="matrix" in="shadowBlurOuter1"></feColorMatrix>
        </filter>
        <linearGradient x1="0%" y1="100%" x2="102.958548%" y2="-2.79763745%" id="linearGradient-9">
            <stop stop-color="#FFE15F" offset="0%"></stop>
            <stop stop-color="#FFE98A" offset="100%"></stop>
            <stop stop-color="#34B4A2" offset="100%"></stop>
        </linearGradient>
        <linearGradient x1="0%" y1="100%" x2="102.958548%" y2="-2.79763745%" id="linearGradient-10">
            <stop stop-color="#4285F4" offset="0%"></stop>
            <stop stop-color="#40B0FF" offset="100%"></stop>
            <stop stop-color="#34B4A2" offset="100%"></stop>
        </linearGradient>
        <linearGradient x1="89.3393732%" y1="7.06541881%" x2="4.11432359%" y2="96.041737%" id="linearGradient-11">
            <stop stop-color="#CBFFD9" offset="0%"></stop>
            <stop stop-color="#00DE39" offset="100%"></stop>
            <stop stop-color="#34B4A2" offset="100%"></stop>
        </linearGradient>
        <linearGradient x1="123.884536%" y1="-10.0947117%" x2="-41.1111032%" y2="143.277552%" id="linearGradient-12">
            <stop stop-color="#BE95FD" offset="0%"></stop>
            <stop stop-color="#FF006E" offset="99.4747677%"></stop>
            <stop stop-color="#34B4A2" offset="100%"></stop>
        </linearGradient>
        <linearGradient x1="0%" y1="100%" x2="102.958548%" y2="-2.79763745%" id="linearGradient-13">
            <stop stop-color="#68D0FF" offset="0%"></stop>
            <stop stop-color="#9BE0FF" offset="100%"></stop>
            <stop stop-color="#34B4A2" offset="100%"></stop>
        </linearGradient>
        <linearGradient x1="0%" y1="100%" x2="102.958548%" y2="-2.79763745%" id="linearGradient-14">
            <stop stop-color="#4285F4" offset="0%"></stop>
            <stop stop-color="#40B0FF" offset="100%"></stop>
            <stop stop-color="#34B4A2" offset="100%"></stop>
        </linearGradient>
        <linearGradient x1="0%" y1="100%" x2="102.958548%" y2="-2.79763745%" id="linearGradient-15">
            <stop stop-color="#1DADFF" offset="0%"></stop>
            <stop stop-color="#ABDEFD" offset="100%"></stop>
            <stop stop-color="#34B4A2" offset="100%"></stop>
        </linearGradient>
    </defs>
    <g id="twitter_cover" stroke="none" stroke-width="1" fill="none" fill-rule="evenodd">
        <rect fill="#FFFFFF" x="0" y="0" width="1500" height="500"></rect>
        <g id="Group" transform="translate(642.000000, 51.000000)">
            <rect id="Rectangle" fill="#FFFFFF" x="0.428571429" y="0" width="218" height="218" rx="40"></rect>
            <path d="M107.301246,22.5189463 L142.09701,1.86534081 L142.114306,3.05463127 L142.725649,76.0880177 C120.265102,89.6719929 109.032033,96.4218206 109.026443,96.3375008 C108.977598,95.5956643 108.402532,70.9894795 107.301246,22.5189463 Z" id="Rectangle" fill="#4285F4" transform="translate(125.013447, 49.101421) rotate(121.000000) translate(-125.013447, -49.101421) "></path>
            <polygon id="Rectangle" fill="#EDB722" transform="translate(124.974328, 160.780483) rotate(59.000000) translate(-124.974328, -160.780483) " points="108.183185 113.345661 142.884775 134.21936 141.370663 208.215305 107.063881 187.601711"></polygon>
            <g id="Combined-Shape">
                <use fill="black" fill-opacity="1" filter="url(#filter-2)" xlink:href="#path-1"></use>
                <use fill="#DB4437" fill-rule="evenodd" xlink:href="#path-1"></use>
            </g>
            <g id="Rectangle" transform="translate(125.535219, 123.368913) rotate(121.000000) translate(-125.535219, -123.368913) ">
                <use fill="black" fill-opacity="1" filter="url(#filter-5)" xlink:href="#path-4"></use>
                <use fill="url(#linearGradient-3)" fill-rule="evenodd" xlink:href="#path-4"></use>
            </g>
            <g id="Combined-Shape">
                <use fill="black" fill-opacity="1" filter="url(#filter-8)" xlink:href="#path-7"></use>
                <use fill="url(#linearGradient-6)" fill-rule="evenodd" xlink:href="#path-7"></use>
            </g>
            <polygon id="Path-7" fill="#FFFFFF" points="92.4285714 126.882354 94.120369 126 96.7566296 127.529401 100.26684 129.460699 122.428571 142.220611 92.4285714 159"></polygon>
            <polygon id="Path-7" fill="#FFFFFF" points="92.4285714 51 100.26684 55.7819271 122.428571 68.7152456 92.4285714 86"></polygon>
            <polygon id="Path-7" fill="#FFFFFF" transform="translate(142.928571, 105.500000) scale(-1, -1) translate(-142.928571, -105.500000) " points="128.428571 89 134.561911 92.4495936 157.428571 105.5 128.88289 122"></polygon>
            <path d="M157.111396,47.7876621 C160.626561,44.5729142 163.34609,42.9770268 165.269984,43 C167.193878,43.0236394 169.913407,44.6854162 173.428571,47.9853305 L173.428571,94.6198934 C166.267391,96.000326 161.100286,96.3451896 157.927255,95.6544841 C154.754224,94.9637787 154.603222,93.4612692 157.474248,91.1469557 L157.111396,47.7876621 Z" id="Rectangle" fill="#FFFFFF"></path>
            <path d="M157.428571,120.426789 C156.536651,113.452066 157.104764,109.97635 159.132911,109.999642 C161.161057,110.023725 166.592944,113.630147 175.428571,120.818908 L175.428571,168.216335 C167.729088,171.265219 162.538956,172.471505 159.858177,171.835196 C157.177397,171.198887 155.700862,168.410201 155.428571,163.469139 C156.223766,163.100606 156.736314,162.761807 156.966216,162.452742 C157.196119,162.143678 157.196119,161.586258 156.966216,160.780483 L157.428571,120.426789 Z" id="Rectangle" fill="#FFFFFF"></path>
            <path d="M41.4285714,100.805599 C44.9288698,97.5789718 47.6368978,95.9773545 49.5526555,96.0007469 C51.4684132,96.0241393 54.4259352,97.6257567 58.4252215,100.805599 L58.4252215,104.643207 L58.4252215,104.839985 L58.4252215,145.403883 C58.4331683,145.506109 58.4243687,146.025696 58.4252215,146.13269 C58.4264882,146.291605 58.4264882,146.521806 58.4252215,146.823293 L58.4252215,147.955893 L58.4252215,149 L41.7898886,144.325114 L41.4285714,100.805599 Z" id="Rectangle" fill="#FFFFFF"></path>
        </g>
        <text id="Bloom" font-family="Helvetica" font-size="100" font-weight="normal" fill="#000000">
            <tspan x="608.776367" y="380">Bloom</tspan>
        </text>
        <g id="Group" transform="translate(236.758330, 118.758330) scale(-1, 1) rotate(30.000000) translate(-236.758330, -118.758330) translate(173.758330, 55.758330)">
            <rect id="Rectangle" fill="url(#linearGradient-9)" x="0.594555434" y="0.147114317" width="125" height="125" rx="20"></rect>
            <path d="M56.9105808,33.580127 L35.0105808,33.580127 C30.9955808,33.580127 27.7105808,36.842627 27.7105808,40.830127 L27.7105808,84.330127 C27.7105808,88.317627 30.9955808,91.580127 35.0105808,91.580127 L93.4105808,91.580127 C97.4255808,91.580127 100.710581,88.317627 100.710581,84.330127 L100.710581,48.080127 C100.710581,44.092627 97.4255808,40.830127 93.4105808,40.830127 L64.2105808,40.830127 L56.9105808,33.580127 L56.9105808,33.580127 Z" id="Shape" fill="#FFFFFF"></path>
            <rect id="Rectangle" fill="#FF5F7D" x="32.8362252" y="37.3362252" width="3" height="3" rx="1.5"></rect>
            <rect id="Rectangle" fill="#FFE15F" x="38.6663522" y="37.4343014" width="3" height="3" rx="1.5"></rect>
            <rect id="Rectangle" fill="#5FCDFF" x="44.4964792" y="37.5323776" width="3" height="3" rx="1.5"></rect>
        </g>
        <g id="Group" transform="translate(397.000000, 300.000000) rotate(-10.000000) translate(-397.000000, -300.000000) translate(347.000000, 250.000000)">
            <rect id="Rectangle" fill="url(#linearGradient-10)" x="0" y="0" width="100" height="100" rx="20"></rect>
            <path d="M49.609375,32.03125 C44.9612399,32.03125 41.1931818,35.7442731 41.1931818,40.3245192 C41.1931818,44.9047654 44.9612399,48.6177885 49.609375,48.6177885 C54.2575101,48.6177885 58.0255682,44.9047654 58.0255682,40.3245192 C58.0255682,35.7442731 54.2575101,32.03125 49.609375,32.03125 L49.609375,32.03125 Z M32.7769886,38.0300481 C28.9035427,38.0300481 25.7634943,41.124234 25.7634943,44.9411058 C25.7634943,46.7740322 26.5024139,48.5318868 27.8176992,49.8279615 C29.1329846,51.1240363 30.9168943,51.8521635 32.7769886,51.8521635 C35.2457386,51.8521635 37.4058949,50.5805288 38.6402699,48.7007212 C36.7606534,46.3509615 35.5823864,43.5036058 35.5823864,40.3245192 C35.5823864,39.7716346 35.5823864,39.21875 35.6946023,38.6658654 C34.796875,38.2512019 33.8149858,38.0300481 32.7769886,38.0300481 L32.7769886,38.0300481 Z M66.4417614,38.0300481 C65.4037642,38.0300481 64.421875,38.2512019 63.5241477,38.6658654 C63.6363636,39.21875 63.6363636,39.7716346 63.6363636,40.3245192 C63.6363636,43.5036058 62.4580966,46.3509615 60.5784801,48.7007212 C61.8128551,50.5805288 63.9730114,51.8521635 66.4417614,51.8521635 C68.3018557,51.8521635 70.0857654,51.1240363 71.4010508,49.8279615 C72.7163361,48.5318868 73.4552557,46.7740322 73.4552557,44.9411058 C73.4552557,43.1081793 72.7163361,41.3503247 71.4010508,40.05425 C70.0857654,38.7581753 68.3018557,38.0300481 66.4417614,38.0300481 L66.4417614,38.0300481 Z M49.609375,54.1466346 C43.9985795,54.1466346 32.7769886,56.9110577 32.7769886,62.4399038 L32.7769886,67.96875 L66.4417614,67.96875 L66.4417614,62.4399038 C66.4417614,56.9110577 55.2201705,54.1466346 49.609375,54.1466346 L49.609375,54.1466346 Z M29.0458097,56.828125 C24.3607955,57.6298077 18.75,59.7860577 18.75,63.3521635 L18.75,67.96875 L27.1661932,67.96875 L27.1661932,62.4399038 C27.1661932,60.2836538 27.9797585,58.3762019 29.0458097,56.828125 L29.0458097,56.828125 Z M70.1729403,56.828125 C71.2389915,58.3762019 72.0525568,60.2836538 72.0525568,62.4399038 L72.0525568,67.96875 L80.46875,67.96875 L80.46875,63.3521635 C80.46875,59.7860577 74.8579545,57.6298077 70.1729403,56.828125 Z" id="Shape" fill="#FFFFFF" fill-rule="nonzero"></path>
        </g>
        <g id="Group" transform="translate(143.500000, 277.500000) rotate(20.000000) translate(-143.500000, -277.500000) translate(81.000000, 215.000000)">
            <rect id="Rectangle" fill="url(#linearGradient-11)" x="0.761386593" y="0.331883403" width="124" height="124" rx="25"></rect>
            <path d="M33.4078136,80.9822443 C33.0909939,80.5163376 32.9135568,79.9438334 32.902243,79.3510108 L32.902243,76.5491274 C32.902243,76.5491274 32.902243,74.9178939 34.3112104,75.5895783 C34.3112104,75.5895783 51.9564549,84.8108453 54.7826778,86.3269329 C57.4765833,87.857042 60.4527332,88.6015112 63.4519712,88.495514 C66.4372985,88.5095179 69.3915246,87.7934218 72.1212647,86.3941014 L92.4932756,75.4936234 C93.902243,74.7931525 93.902243,76.4531725 93.902243,76.4531725 L93.902243,79.2550559 C93.8897423,79.8476229 93.7124356,80.4197063 93.3966723,80.8862894 C92.8993897,81.5867603 92.0871615,82.5175229 89.7665093,83.6881729 C87.9597158,84.7436769 73.9363462,91.9786773 71.9223517,93.0245858 C69.2078178,94.4778094 66.2431335,95.1964406 63.2530582,95.1259984 C59.8884294,95.1264025 56.5713897,94.2057811 53.5726234,92.4392609 C49.9424604,90.4625897 38.6541451,84.6189355 36.8307756,83.6881729 C34.617868,82.4983319 34.0128408,81.7786701 33.4078136,80.9822443 Z M37.0378362,62.9787848 L54.7547176,53.7038481 C56.513831,52.7765531 58.3760508,52.134952 60.2881413,51.7973863 L60.2881413,68.5456532 C60.2881413,69.7085949 61.694243,70.6332289 63.4063786,70.6332289 C65.1185142,70.6332289 66.3261074,69.679998 66.3261074,68.5456532 L66.3261074,51.8450479 C68.3021367,52.1822332 70.2299786,52.8234405 72.0580396,53.7515097 L89.7666498,63.0264463 C91.2802769,63.8366926 93.902243,65.2284097 93.902243,67.5542931 C93.902243,69.8801765 91.2885481,71.1479736 89.7666498,72.0726076 L72.0580396,81.2808181 C66.5432002,84.0648138 60.2695569,84.0648138 54.7547176,81.2808181 L37.0378362,72.024946 C35.5324803,71.2146998 32.902243,69.8229826 32.902243,67.5066316 C32.902243,65.1902805 35.6317345,63.789031 37.0378362,62.9787848 Z M41.5542634,65.7109683 C39.876822,66.9184134 39.876822,68.8642959 41.5542634,70.0817199 C43.4728028,71.28991 45.7458246,71.28991 47.664364,70.0817199 C49.3418053,68.8642959 49.3418053,66.9184134 47.664364,65.7109683 C45.7477727,64.492859 43.4708546,64.492859 41.5542634,65.7109683 Z M63.6084496,49.9381303 C58.8447902,49.8735345 55.0286277,45.3875638 55.0846706,39.9182678 C55.1407135,34.4489718 59.0477409,30.0673208 63.8114054,30.1314139 C68.5750699,30.195507 72.3915915,34.681075 72.3359864,40.1503769 C72.329685,42.7845622 71.4015747,45.3053206 69.7602965,47.1459803 C68.1190184,48.98664 65.9022947,49.9927484 63.6084496,49.9381303 Z" id="Shape" fill="#FFFFFF" fill-rule="nonzero"></path>
        </g>
        <g id="Group" transform="translate(386.000000, 114.000000) rotate(-20.000000) translate(-386.000000, -114.000000) translate(346.000000, 74.000000)">
            <path d="M29.3545455,27.0619356 L29.3545455,49.2266537 C28.2385782,48.4207628 26.8079291,47.9358611 25.25,47.9358611 C21.6934309,47.9358611 18.8,50.4623686 18.8,53.5679305 C18.8,56.6734925 21.6934309,59.2 25.25,59.2 C28.8065691,59.2 31.7,56.6734925 31.7,53.5679305 L31.7,34.3240425 L50.8545455,29.615244 L50.8545455,43.9413643 C49.7385782,43.1354735 48.3079291,42.6505717 46.75,42.6505717 C43.1934309,42.6505717 40.3,45.1770792 40.3,48.2826412 C40.3,51.3882031 43.1934309,53.9147106 46.75,53.9147106 C50.3065691,53.9147106 53.2,51.3882031 53.2,48.2826412 L53.2,21.2 L29.3545455,27.0619356 Z" id="Path" fill="#FFFFFF" fill-rule="nonzero"></path>
            <rect id="Rectangle" fill="url(#linearGradient-12)" x="0" y="0" width="80" height="80" rx="15"></rect>
            <path d="M30.25,28.4448897 L30.25,48.2764796 C29.25082,47.5554194 27.96989,47.1215599 26.575,47.1215599 C23.39063,47.1215599 20.8,49.3821193 20.8,52.1607799 C20.8,54.9394406 23.39063,57.2 26.575,57.2 C29.75937,57.2 32.35,54.9394406 32.35,52.1607799 L32.35,34.9425643 L49.5,30.7294288 L49.5,43.5475365 C48.50082,42.8264762 47.21989,42.3926168 45.825,42.3926168 C42.64063,42.3926168 40.05,44.6531761 40.05,47.4318368 C40.05,50.2104975 42.64063,52.4710569 45.825,52.4710569 C49.00937,52.4710569 51.6,50.2104975 51.6,47.4318368 L51.6,23.2 L30.25,28.4448897 Z" id="Path" fill="#FFFFFF" fill-rule="nonzero"></path>
        </g>
        <g id="Group" transform="translate(1197.156733, 125.656733) rotate(30.000000) translate(-1197.156733, -125.656733) translate(1141.656733, 70.156733)">
            <rect id="Rectangle" fill="url(#linearGradient-13)" x="0.535898385" y="0.875644347" width="110" height="110" rx="15"></rect>
            <path d="M30.8358984,81.7416698 C21.5575146,81.7416698 14.0358984,74.2797489 14.0358984,65.0750031 C14.0358984,55.8702573 21.5575146,48.4083364 30.8358984,48.4083364 L33.8178984,48.4083364 C36.5898984,38.7833364 45.5358984,31.7416698 56.0358984,31.7416698 C68.7936761,31.7416698 79.1358984,42.0018109 79.1358984,54.6583364 L79.1358984,56.7416698 L85.4358984,56.7416698 C92.3946862,56.7416698 98.0358984,62.3381104 98.0358984,69.2416698 C98.0358984,76.1452291 92.3946862,81.7416698 85.4358984,81.7416698 L30.8358984,81.7416698 Z" id="Path" fill="#FFFFFF"></path>
            <g id="arrow-down-bold" transform="translate(45.486860, 44.156733)">
                <polygon id="Path" fill="#FFE15F" points="6.48214286 8.58035714 14.5178571 8.58035714 14.5178571 19.7636183 21 19.7636183 10.5 30.7232143 0 19.7636183 6.48214286 19.7636183"></polygon>
                <rect id="Rectangle" fill="#FEE98F" x="11.8461538" y="5.8125" width="2.69230769" height="2.76785714"></rect>
                <rect id="Rectangle" fill="#FEE98F" x="6.46153846" y="5.8125" width="2.69230769" height="2.76785714"></rect>
                <rect id="Rectangle" fill="#FFE15F" x="6.46153846" y="8.58035714" width="2.69230769" height="2.76785714"></rect>
                <rect id="Rectangle" fill="#FCF4D2" x="6.46153846" y="0.276785714" width="2.69230769" height="2.76785714"></rect>
                <rect id="Rectangle" fill="#FFE15F" x="9.15384615" y="8.58035714" width="2.69230769" height="2.76785714"></rect>
                <rect id="Rectangle" fill="#FFF1B7" x="9.15384615" y="3.04464286" width="2.69230769" height="2.76785714"></rect>
                <rect id="Rectangle" fill="#FFF1B7" x="6.46153846" y="3.04464286" width="2.69230769" height="2.76785714"></rect>
                <rect id="Rectangle" fill="#FFE15F" x="11.8461538" y="8.58035714" width="2.69230769" height="2.76785714"></rect>
                <rect id="Rectangle" fill="#FEE98F" x="9.15384615" y="5.8125" width="2.69230769" height="2.76785714"></rect>
            </g>
        </g>
        <g id="Group" transform="translate(1361.000000, 138.000000) rotate(-15.000000) translate(-1361.000000, -138.000000) translate(1319.000000, 88.000000)">
            <path d="M60.4955242,0 L83.333,22.957 L83.3333333,80 C83.3333333,91.045695 74.3790283,100 63.3333333,100 L20,100 C8.954305,100 1.3527075e-15,91.045695 0,80 L0,20 C-1.3527075e-15,8.954305 8.954305,2.02906125e-15 20,0 L60.4955242,0 Z" id="Combined-Shape" fill="#FFE15F"></path>
            <polygon id="Path-3" fill="#FFECB4" points="83.3333333 22.9166667 60.4166667 0 60.4166667 22.9166667"></polygon>
            <line x1="19.7916667" y1="40.625" x2="63.5416667" y2="40.625" id="Line" stroke="#FFFFFF" stroke-width="4" stroke-linecap="square"></line>
            <line x1="19.7916667" y1="51.0416667" x2="63.5416667" y2="51.0416667" id="Line" stroke="#FFFFFF" stroke-width="4" stroke-linecap="square"></line>
            <line x1="19.7916667" y1="61.4583333" x2="63.5416667" y2="61.4583333" id="Line" stroke="#FFFFFF" stroke-width="4" stroke-linecap="square"></line>
            <line x1="19.7916667" y1="71.875" x2="41.6666667" y2="71.875" id="Line" stroke="#FFFFFF" stroke-width="4" stroke-linecap="square"></line>
        </g>
        <g id="Group" transform="translate(1340.000000, 321.000000) rotate(10.000000) translate(-1340.000000, -321.000000) translate(1276.000000, 257.000000)">
            <rect id="Rectangle" fill="url(#linearGradient-14)" x="0" y="0" width="128" height="128" rx="20"></rect>
            <path d="M88.32,87.68 L40.32,87.68 L40.32,49.92 L88.32,49.92 L88.32,87.68 Z M78.1155556,25.6 L78.1155556,32.512 L50.5244444,32.512 L50.5244444,25.6 L43.6266667,25.6 L43.6266667,32.512 L40.1777778,32.512 C36.3495111,32.512 33.28,35.58784 33.28,39.424 L33.28,87.808 C33.28,91.6253922 36.3682403,94.72 40.1777778,94.72 L88.4622222,94.72 C92.2717597,94.72 95.36,91.6253922 95.36,87.808 L95.36,39.424 C95.36,35.58784 92.256,32.512 88.4622222,32.512 L85.0133333,32.512 L85.0133333,25.6 L78.1155556,25.6 Z M81.28,63.36 L64,63.36 L64,80.64 L81.28,80.64 L81.28,63.36 Z" id="Shape" fill="#FFFFFF" fill-rule="nonzero"></path>
        </g>
        <g id="Group" transform="translate(1061.000000, 255.000000) scale(-1, 1) rotate(20.000000) translate(-1061.000000, -255.000000) translate(991.000000, 185.000000)">
            <rect id="Rectangle" fill="url(#linearGradient-15)" x="0" y="0" width="140" height="140" rx="40"></rect>
            <path d="" id="Combined-Shape" fill="#CDFF5F"></path>
            <path d="M111.65,77 L139.549018,106.026402 C136.642907,125.258546 120.042979,140 100,140 L51.1,140 L111.65,77 Z" id="Combined-Shape" fill="#CDFF5F"></path>
            <path d="M60.55,95.9 L104.722182,139.724189 C103.209043,139.902148 101.670065,139.995649 100.110089,139.999852 L39.8891728,139.999 L39.3385269,139.994641 C32.6904171,139.886852 26.4365717,138.157177 20.955423,135.184049 L60.55,95.9 Z" id="Combined-Shape" fill="#CDFF5F"></path>
            <circle id="Oval" fill="#FFE15F" cx="112" cy="24.5" r="14"></circle>
            <path d="M24.22,58.8 C21.6684445,58.8 19.6,56.7106622 19.6,54.1333333 C19.6,51.5560045 21.6684445,49.4666667 24.22,49.4666667 L25.04005,49.4666667 C25.80235,46.7716667 28.2625,44.8 31.15,44.8 C34.6583889,44.8 37.5025,47.6728395 37.5025,51.2166667 L37.5025,51.8 L39.235,51.8 C41.1486667,51.8 42.7,53.3670034 42.7,55.3 C42.7,57.2329966 41.1486667,58.8 39.235,58.8 L24.22,58.8 Z" id="Path" fill="#FFFFFF"></path>
            <path d="M43.26,72.8 C40.2445253,72.8 37.8,70.3972615 37.8,67.4333333 C37.8,64.4694052 40.2445253,62.0666667 43.26,62.0666667 L44.22915,62.0666667 C45.13005,58.9674167 48.0375,56.7 51.45,56.7 C55.5962778,56.7 58.9575,60.0037655 58.9575,64.0791667 L58.9575,64.75 L61.005,64.75 C63.2666061,64.75 65.1,66.5520539 65.1,68.775 C65.1,70.9979461 63.2666061,72.8 61.005,72.8 L43.26,72.8 Z" id="Path" fill="#FFFFFF"></path>
            <path d="M100.94,60.9 C99.3162828,60.9 98,59.5419304 98,57.8666667 C98,56.1914029 99.3162828,54.8333333 100.94,54.8333333 L101.46185,54.8333333 C101.94695,53.0815833 103.5125,51.8 105.35,51.8 C107.582611,51.8 109.3925,53.6673457 109.3925,55.9708333 L109.3925,56.35 L110.495,56.35 C111.712788,56.35 112.7,57.3685522 112.7,58.625 C112.7,59.8814478 111.712788,60.9 110.495,60.9 L100.94,60.9 Z" id="Path" fill="#FFFFFF"></path>
        </g>
        <text id="A-safe-place-for-all" font-family="Avenir-Medium, Avenir" font-size="38" font-weight="400" fill="#000000">
            <tspan x="504.627" y="443">A safe place for all your data</tspan>
        </text>
    </g>
</svg>