<?xml version="1.0" encoding="UTF-8"?>
<svg width="1508px" height="1146px" viewBox="0 0 1508 1146" version="1.1" xmlns="http://www.w3.org/2000/svg" xmlns:xlink="http://www.w3.org/1999/xlink">
    <!-- Generator: Sketch 63.1 (92452) - https://sketch.com -->
    <title>undraw_taking_notes_tjaf</title>
    <desc>Created with Sketch.</desc>
    <defs>
        <linearGradient x1="49.9944184%" y1="100%" x2="49.9944184%" y2="0%" id="linearGradient-1">
            <stop stop-color="#808080" stop-opacity="0.25" offset="0%"></stop>
            <stop stop-color="#808080" stop-opacity="0.12" offset="54%"></stop>
            <stop stop-color="#808080" stop-opacity="0.1" offset="100%"></stop>
        </linearGradient>
        <linearGradient x1="49.9936241%" y1="100.004506%" x2="49.9936241%" y2="1.2807187e-14%" id="linearGradient-2">
            <stop stop-color="#808080" stop-opacity="0.25" offset="0%"></stop>
            <stop stop-color="#808080" stop-opacity="0.12" offset="54%"></stop>
            <stop stop-color="#808080" stop-opacity="0.1" offset="100%"></stop>
        </linearGradient>
        <linearGradient x1="50.0026011%" y1="100%" x2="50.0026011%" y2="-0.0182621717%" id="linearGradient-3">
            <stop stop-color="#808080" stop-opacity="0.25" offset="0%"></stop>
            <stop stop-color="#808080" stop-opacity="0.12" offset="54%"></stop>
            <stop stop-color="#808080" stop-opacity="0.1" offset="100%"></stop>
        </linearGradient>
        <linearGradient x1="49.9975438%" y1="100%" x2="49.9975438%" y2="0%" id="linearGradient-4">
            <stop stop-color="#808080" stop-opacity="0.25" offset="0%"></stop>
            <stop stop-color="#808080" stop-opacity="0.12" offset="54%"></stop>
            <stop stop-color="#808080" stop-opacity="0.1" offset="100%"></stop>
        </linearGradient>
        <linearGradient x1="50.0024608%" y1="99.9961641%" x2="50.0024608%" y2="0.00165012633%" id="linearGradient-5">
            <stop stop-color="#808080" stop-opacity="0.25" offset="0%"></stop>
            <stop stop-color="#808080" stop-opacity="0.12" offset="54%"></stop>
            <stop stop-color="#808080" stop-opacity="0.1" offset="100%"></stop>
        </linearGradient>
        <linearGradient x1="50%" y1="100.025363%" x2="50%" y2="0%" id="linearGradient-6">
            <stop stop-color="#808080" stop-opacity="0.25" offset="0%"></stop>
            <stop stop-color="#808080" stop-opacity="0.12" offset="54%"></stop>
            <stop stop-color="#808080" stop-opacity="0.1" offset="100%"></stop>
        </linearGradient>
        <linearGradient x1="49.9693811%" y1="100.000101%" x2="49.9693811%" y2="-0.0172476432%" id="linearGradient-7">
            <stop stop-color="#808080" stop-opacity="0.25" offset="0%"></stop>
            <stop stop-color="#808080" stop-opacity="0.12" offset="54%"></stop>
            <stop stop-color="#808080" stop-opacity="0.1" offset="100%"></stop>
        </linearGradient>
    </defs>
    <g id="illustrations" stroke="none" stroke-width="1" fill="none" fill-rule="evenodd">
        <g id="Notes" transform="translate(-541.000000, -1765.000000)">
            <g id="undraw_taking_notes_tjaf" transform="translate(541.000000, 1765.000000)">
                <path d="M1485.79634,676.047496 C1441.94712,599.172159 1434.32647,508.516172 1464.90995,424.981756 C1484.72449,370.858603 1487.82235,287.253637 1471.47136,231.774368 C1418.92545,53.5352125 1175.91371,-52.661241 941.598687,26.6833245 C726.761923,99.4315206 674.161363,399.576131 509.201397,366.94703 C121.216568,290.204954 -18.5275778,548.074792 1.93847067,757.994551 C15.1579659,893.590509 137.117792,1061.30213 397.636424,1043.69221 C474.338919,1038.50683 549.666924,1056.08931 614.579059,1091.09357 C725.433669,1150.87244 901.629154,1164.88825 1084.67188,1117.9729 C1359.99466,1047.40389 1546.49252,865.727413 1501.23099,712.188389 C1497.50683,699.544367 1492.32412,687.488258 1485.79634,676.047496" id="Fill-3" fill="#7191F8" opacity="0.676106771"></path>
                <ellipse id="Oval" fill="#FFC107" fill-rule="nonzero" opacity="0.1" cx="908.92" cy="1078.86" rx="106.94" ry="17.92"></ellipse>
                <path d="M904.43,350.33 C860.65,387.47 803.85,385.07 754.13,365.75 C704.41,346.43 658.61,312.02 610.13,287.57 C570.447469,267.378098 527.702104,253.879739 483.62,247.62 C421.83,239.05 352.81,249.49 309.75,309.53 C261.8,376.39 265.49,496.98 317.35,558.39 C343.73,589.61 378.27,604.93 408.4,629.31 C438.53,653.69 466.4,694.16 463.84,741.21 C461.47,784.77 433.84,818.21 405.28,839.21 C383.19,855.41 355.99,873.11 353.28,906.68 C350.7,939.16 373.57,964.61 395.42,979.09 C466.66,1026.31 554.42,1025.85 625.42,977.9 C650.75,960.79 674.02,938.04 700.58,924.7 C770.3,889.7 847.14,924.93 920.96,937.82 C983.45,948.73 1047.53,943.08 1108.41,921.29 C1144.97,908.21 1181.67,888.21 1207.36,850.95 C1225.88,824.08 1237.42,790.07 1248.25,756.49 C1259.81,720.676667 1270.91667,684.613333 1281.57,648.3 C1287.96,626.5 1294.26,604.3 1295.91,580.96 C1298.91,538.69 1286.29,496.96 1269.12,461.24 C1228.39,376.48 1159.72,316.93 1085.39,301.8 C1011.06,286.67 932.3,316.22 874.62,380.87" id="Path" fill="#FFC107" fill-rule="nonzero" opacity="0.1"></path>
                <g id="Group" opacity="0.35" transform="translate(613.000000, 442.000000)" fill="#FFC107" fill-rule="nonzero">
                    <path d="M163.99,7.04 L163.99,0.39 L59.19,0.39 C54.37,0.39 57.31,7.08 57.31,7.08 L0.37,7.08 L0.37,156.23 L250.37,156.23 L250.37,7.04 L163.99,7.04 Z" id="Path" opacity="0.2"></path>
                </g>
                <path d="M1109.41,560.29 C1109.41,560.29 1140.92,504.47 1188.41,488.39 C1208.35753,481.770749 1225.61858,468.857423 1237.6,451.59 C1243.22634,443.353079 1248.08345,434.616307 1252.11,425.49" id="Path" stroke="#535461" stroke-width="2"></path>
                <path d="M1281.91,415.17 C1276.51,420.42 1251.33,425.85 1251.33,425.85 C1251.33,425.85 1257.5,400.85 1262.91,395.59 C1268.31687,390.343295 1276.95329,390.473132 1282.2,395.88 C1287.44671,401.286868 1287.31687,409.923295 1281.91,415.17 L1281.91,415.17 Z" id="Path" fill="#FFC107" fill-rule="nonzero"></path>
                <path d="M1267.67,460.39 C1260.28,461.86 1236.19,452.73 1236.19,452.73 C1236.19,452.73 1254.97,435.1 1262.36,433.63 C1267.14021,432.68146 1272.06335,434.355186 1275.27492,438.020702 C1278.48649,441.686219 1279.49857,446.786646 1277.92992,451.400703 C1276.36127,456.014759 1272.45021,459.44146 1267.67,460.39 L1267.67,460.39 Z" id="Path" fill="#FFC107" fill-rule="nonzero"></path>
                <path d="M1215.8,509.39 C1208.68,506.93 1192.5,486.89 1192.5,486.89 C1192.5,486.89 1217.61,481.14 1224.73,483.61 C1229.33515,485.205191 1232.73947,489.136028 1233.66057,493.921803 C1234.58167,498.707579 1232.87962,503.621219 1229.19557,506.811804 C1225.51152,510.002388 1220.40515,510.985191 1215.8,509.39 L1215.8,509.39 Z" id="Path" fill="#FFC107" fill-rule="nonzero"></path>
                <path d="M1168.21,537.6 C1160.78,536.39 1141.44,519.39 1141.44,519.39 C1141.44,519.39 1165.22,509.49 1172.66,510.71 C1177.46879,511.504916 1181.48822,514.80491 1183.2042,519.366906 C1184.92018,523.928903 1184.07202,529.059826 1180.9792,532.826907 C1177.88639,536.593987 1173.01879,538.424916 1168.21,537.63 L1168.21,537.6 Z" id="Path" fill="#FFC107" fill-rule="nonzero"></path>
                <path d="M1215.19,433.22 C1215.19,440.76 1228.82,462.61 1228.82,462.61 C1228.82,462.61 1242.48,440.77 1242.48,433.23 C1242.61437,428.267037 1240.04343,423.622469 1235.76638,421.101387 C1231.48932,418.580304 1226.18068,418.580304 1221.90362,421.101387 C1217.62657,423.622469 1215.05563,428.267037 1215.19,433.23 L1215.19,433.22 Z" id="Path" fill="#FFC107" fill-rule="nonzero"></path>
                <path d="M1159.96,466.92 C1162.21,474.11 1181.76,490.92 1181.76,490.92 C1181.76,490.92 1188.25,465.99 1186,458.8 C1184.73118,453.93037 1180.88422,450.154922 1175.99164,448.977686 C1171.09906,447.80045 1165.95573,449.412685 1162.61061,453.172123 C1159.26549,456.931561 1158.26204,462.227427 1160,466.95 L1159.96,466.92 Z" id="Path" fill="#FFC107" fill-rule="nonzero"></path>
                <path d="M1110.76,507.04 C1111.76,514.51 1128.2,534.35 1128.2,534.35 C1128.2,534.35 1138.81,510.88 1137.81,503.41 C1137.4594,498.334536 1134.31525,493.875231 1129.65242,491.840221 C1124.98959,489.80521 1119.58195,490.532237 1115.62217,493.72651 C1111.66238,496.920782 1109.80765,502.052161 1110.81,507.04 L1110.76,507.04 Z" id="Path" fill="#FFC107" fill-rule="nonzero"></path>
                <path d="M1281.91,415.17 C1276.51,420.42 1251.33,425.85 1251.33,425.85 C1251.33,425.85 1257.5,400.85 1262.91,395.59 C1268.31687,390.343295 1276.95329,390.473132 1282.2,395.88 C1287.44671,401.286868 1287.31687,409.923295 1281.91,415.17 L1281.91,415.17 Z" id="Path" fill="#000000" fill-rule="nonzero" opacity="0.25"></path>
                <path d="M1267.67,460.39 C1260.28,461.86 1236.19,452.73 1236.19,452.73 C1236.19,452.73 1254.97,435.1 1262.36,433.63 C1267.14021,432.68146 1272.06335,434.355186 1275.27492,438.020702 C1278.48649,441.686219 1279.49857,446.786646 1277.92992,451.400703 C1276.36127,456.014759 1272.45021,459.44146 1267.67,460.39 L1267.67,460.39 Z" id="Path" fill="#000000" fill-rule="nonzero" opacity="0.25"></path>
                <path d="M1215.8,509.39 C1208.68,506.93 1192.5,486.89 1192.5,486.89 C1192.5,486.89 1217.61,481.14 1224.73,483.61 C1229.33515,485.205191 1232.73947,489.136028 1233.66057,493.921803 C1234.58167,498.707579 1232.87962,503.621219 1229.19557,506.811804 C1225.51152,510.002388 1220.40515,510.985191 1215.8,509.39 L1215.8,509.39 Z" id="Path" fill="#000000" fill-rule="nonzero" opacity="0.25"></path>
                <path d="M1168.21,537.6 C1160.78,536.39 1141.44,519.39 1141.44,519.39 C1141.44,519.39 1165.22,509.49 1172.66,510.71 C1177.46879,511.504916 1181.48822,514.80491 1183.2042,519.366906 C1184.92018,523.928903 1184.07202,529.059826 1180.9792,532.826907 C1177.88639,536.593987 1173.01879,538.424916 1168.21,537.63 L1168.21,537.6 Z" id="Path" fill="#000000" fill-rule="nonzero" opacity="0.25"></path>
                <path d="M1215.19,433.22 C1215.19,440.76 1228.82,462.61 1228.82,462.61 C1228.82,462.61 1242.48,440.77 1242.48,433.23 C1242.61437,428.267037 1240.04343,423.622469 1235.76638,421.101387 C1231.48932,418.580304 1226.18068,418.580304 1221.90362,421.101387 C1217.62657,423.622469 1215.05563,428.267037 1215.19,433.23 L1215.19,433.22 Z" id="Path" fill="#000000" fill-rule="nonzero" opacity="0.25"></path>
                <path d="M1159.96,466.92 C1162.21,474.11 1181.76,490.92 1181.76,490.92 C1181.76,490.92 1188.25,465.99 1186,458.8 C1184.73118,453.93037 1180.88422,450.154922 1175.99164,448.977686 C1171.09906,447.80045 1165.95573,449.412685 1162.61061,453.172123 C1159.26549,456.931561 1158.26204,462.227427 1160,466.95 L1159.96,466.92 Z" id="Path" fill="#000000" fill-rule="nonzero" opacity="0.25"></path>
                <path d="M1110.76,507.04 C1111.76,514.51 1128.2,534.35 1128.2,534.35 C1128.2,534.35 1138.81,510.88 1137.81,503.41 C1137.4594,498.334536 1134.31525,493.875231 1129.65242,491.840221 C1124.98959,489.80521 1119.58195,490.532237 1115.62217,493.72651 C1111.66238,496.920782 1109.80765,502.052161 1110.81,507.04 L1110.76,507.04 Z" id="Path" fill="#000000" fill-rule="nonzero" opacity="0.25"></path>
                <path d="M1111.23,559.18 C1111.23,559.18 1117.41,495.38 1154.23,461.45 C1169.78511,447.319901 1180.33068,428.520348 1184.28,407.88 C1186.08732,398.066839 1186.98778,388.108186 1186.97026,378.13" id="Path" stroke="#535461" stroke-width="2"></path>
                <path d="M1210.13,356.61 C1207.31,363.61 1186.49,378.77 1186.49,378.77 C1186.49,378.77 1182,353.39 1184.82,346.39 C1186.64205,341.868804 1190.73773,338.663101 1195.56423,337.980449 C1200.39073,337.297796 1205.21479,339.241905 1208.21923,343.080449 C1211.22367,346.918992 1211.95205,352.068804 1210.13,356.59 L1210.13,356.61 Z" id="Path" fill="#FFC107" fill-rule="nonzero"></path>
                <path d="M1215.44,403.75 C1209.28,408.09 1183.56,409.5 1183.56,409.5 C1183.56,409.5 1193.56,385.77 1199.74,381.44 C1203.7253,378.635465 1208.90407,378.170098 1213.32551,380.2192 C1217.74696,382.268302 1220.73936,386.520564 1221.17551,391.3742 C1221.61166,396.227837 1219.4253,400.945465 1215.44,403.75 L1215.44,403.75 Z" id="Path" fill="#FFC107" fill-rule="nonzero"></path>
                <path d="M1187.86,469.54 C1180.35,470.17 1157.44,458.41 1157.44,458.41 C1157.44,458.41 1178.07,442.98 1185.58,442.35 C1190.43703,441.942717 1195.14239,444.157565 1197.92362,448.160231 C1200.70485,452.162897 1201.13941,457.345282 1199.06362,461.755231 C1196.98782,466.16518 1192.71703,469.132717 1187.86,469.54 L1187.86,469.54 Z" id="Path" fill="#FFC107" fill-rule="nonzero"></path>
                <path d="M1155.79,514.61 C1148.5,516.51 1123.92,508.78 1123.92,508.78 C1123.92,508.78 1141.65,490.09 1148.92,488.2 C1156.21292,486.308425 1163.65842,490.68708 1165.55,497.98 C1167.44158,505.27292 1163.06292,512.718425 1155.77,514.61 L1155.79,514.61 Z" id="Path" fill="#FFC107" fill-rule="nonzero"></path>
                <path d="M1156.44,400.15 C1159.49,407.04 1180.81,421.49 1180.81,421.49 C1180.81,421.49 1184.44,395.99 1181.39,389.1 C1178.35243,382.196441 1170.29356,379.062434 1163.39,382.1 C1156.48644,385.137566 1153.35243,393.196441 1156.39,400.1 L1156.44,400.15 Z" id="Path" fill="#FFC107" fill-rule="nonzero"></path>
                <path d="M1119.6,453.39 C1124.6,459.05 1149.24,466.47 1149.24,466.47 C1149.24,466.47 1145.07,441.05 1140.1,435.38 C1135.12944,429.719082 1126.51092,429.159438 1120.85,434.130001 C1115.18908,439.100563 1114.62944,447.719081 1119.6,453.38 L1119.6,453.39 Z" id="Path" fill="#FFC107" fill-rule="nonzero"></path>
                <path d="M1090.88,509.95 C1094.88,516.37 1117.88,527.85 1117.88,527.85 C1117.88,527.85 1118.13,502.09 1114.13,495.67 C1110.11053,489.42775 1101.83895,487.5428 1095.51178,491.427232 C1089.18462,495.311665 1087.1224,503.540843 1090.87,509.95 L1090.88,509.95 Z" id="Path" fill="#FFC107" fill-rule="nonzero"></path>
                <path d="M429.49,817.27 C429.49,817.27 390.49,768.94 392.94,720.44 C394.105106,700.107808 388.645363,679.946057 377.38,662.98 C371.967178,654.969011 365.831515,647.470983 359.05,640.58" id="Path" stroke="#535461" stroke-width="2"></path>
                <path d="M360.42,610.01 C363.22,616.76 359.13,641.39 359.13,641.39 C359.13,641.39 338.81,626.89 336.01,620.14 C333.215439,613.393842 336.418842,605.659561 343.165,602.865 C349.911158,600.070439 357.645439,603.273842 360.44,610.02 L360.42,610.01 Z" id="Path" fill="#FFC107" fill-rule="nonzero"></path>
                <path d="M396.13,639.02 C394.81,646.2 377.98,664.63 377.98,664.63 C377.98,664.63 368.77,641.39 370.13,634.23 C370.929627,629.531626 374.196276,625.627347 378.67985,624.011273 C383.163423,622.3952 388.16979,623.317527 391.783087,626.425293 C395.396384,629.533059 397.057213,634.345131 396.13,639.02 L396.13,639.02 Z" id="Path" fill="#FFC107" fill-rule="nonzero"></path>
                <path d="M421.67,703.24 C416.9,708.78 393.06,716.19 393.06,716.19 C393.06,716.19 396.86,691.52 401.63,685.98 C406.478363,680.805233 414.546003,680.377414 419.914461,685.010393 C425.282919,689.643372 426.039865,697.686809 421.63,703.24 L421.67,703.24 Z" id="Path" fill="#FFC107" fill-rule="nonzero"></path>
                <path d="M430.07,756.19 C426.31,762.45 404.07,773.79 404.07,773.79 C404.07,773.79 403.64,748.79 407.41,742.57 C411.21214,736.406919 419.264988,734.449779 425.471651,738.180351 C431.678315,741.910923 433.728504,749.940585 430.07,756.19 L430.07,756.19 Z" id="Path" fill="#FFC107" fill-rule="nonzero"></path>
                <path d="M352.83,676.57 C359.62,679.26 384.18,674.79 384.18,674.79 C384.18,674.79 369.38,654.69 362.6,651.99 C355.869714,649.521488 348.397792,652.862386 345.749895,659.524138 C343.101997,666.185891 346.241562,673.744617 352.83,676.57 L352.83,676.57 Z" id="Path" fill="#FFC107" fill-rule="nonzero"></path>
                <path d="M363.45,738.39 C370.73,738.93 392.83,727.32 392.83,727.32 C392.83,727.32 372.69,712.56 365.41,712.02 C360.699453,711.662734 356.156129,713.845654 353.491454,717.746474 C350.82678,721.647295 350.445582,726.673389 352.491454,730.931475 C354.537327,735.189561 358.699453,738.032735 363.41,738.39 L363.45,738.39 Z" id="Path" fill="#FFC107" fill-rule="nonzero"></path>
                <path d="M382.01,797.02 C389.09,798.79 412.84,791.02 412.84,791.02 C412.84,791.02 395.48,773.13 388.4,771.39 C381.314187,769.62545 374.13955,773.939187 372.375,781.025 C370.61045,788.110813 374.924187,795.28545 382.01,797.05 L382.01,797.02 Z" id="Path" fill="#FFC107" fill-rule="nonzero"></path>
                <path d="M1262.63,898.39 C1262.63,898.39 1270.26,908.39 1259.11,923.39 C1247.96,938.39 1238.76,951.17 1242.48,960.57 C1242.48,960.57 1259.31,932.57 1273,932.2 C1286.69,931.83 1277.7,915.21 1262.63,898.39 Z" id="Path" fill="#FFC107" fill-rule="nonzero"></path>
                <path d="M1262.63,898.39 C1263.29514,899.354466 1263.82035,900.40826 1264.19,901.52 C1277.55,917.22 1284.67,931.87 1271.83,932.24 C1259.83,932.58 1245.51,953.97 1242.07,959.38 C1242.18406,959.797192 1242.32093,960.20781 1242.48,960.61 C1242.48,960.61 1259.31,932.61 1273,932.24 C1286.69,931.87 1277.7,915.21 1262.63,898.39 Z" id="Path" fill="#000000" fill-rule="nonzero" opacity="0.1"></path>
                <path d="M1276.82,911.1 C1276.82,914.62 1276.42,917.46 1275.94,917.46 C1275.46,917.46 1275.06,914.62 1275.06,911.1 C1275.06,907.58 1275.55,909.25 1276.06,909.25 C1276.57,909.25 1276.82,907.59 1276.82,911.1 Z" id="Path" fill="#FFD037" fill-rule="nonzero"></path>
                <path d="M1281.68,915.3 C1278.6,916.98 1275.91,917.99 1275.68,917.57 C1275.45,917.15 1277.76,915.43 1280.84,913.75 C1283.92,912.07 1282.71,913.29 1282.94,913.75 C1283.17,914.21 1284.77,913.62 1281.68,915.3 Z" id="Path" fill="#FFD037" fill-rule="nonzero"></path>
                <path d="M1222.33,898.39 C1222.33,898.39 1214.7,908.39 1225.85,923.39 C1237,938.39 1246.2,951.17 1242.48,960.57 C1242.48,960.57 1225.65,932.57 1211.96,932.2 C1198.27,931.83 1207.26,915.21 1222.33,898.39 Z" id="Path" fill="#FFC107" fill-rule="nonzero"></path>
                <path d="M1222.33,898.39 C1221.65994,899.351556 1221.13436,900.406085 1220.77,901.52 C1207.4,917.22 1200.29,931.87 1213.13,932.24 C1225.13,932.58 1239.45,953.97 1242.89,959.38 C1242.77,959.79 1242.64,960.2 1242.48,960.61 C1242.48,960.61 1225.65,932.61 1211.96,932.24 C1198.27,931.87 1207.26,915.21 1222.33,898.39 Z" id="Path" fill="#000000" fill-rule="nonzero" opacity="0.1"></path>
                <path d="M1208.13,911.1 C1208.13,914.62 1208.53,917.46 1209.01,917.46 C1209.49,917.46 1209.89,914.62 1209.89,911.1 C1209.89,907.58 1209.4,909.25 1208.89,909.25 C1208.38,909.25 1208.13,907.59 1208.13,911.1 Z" id="Path" fill="#FFD037" fill-rule="nonzero"></path>
                <path d="M1203.27,915.3 C1206.36,916.98 1209.05,917.99 1209.27,917.57 C1209.49,917.15 1207.19,915.43 1204.11,913.75 C1201.03,912.07 1202.24,913.29 1202.01,913.75 C1201.78,914.21 1200.19,913.62 1203.27,915.3 Z" id="Path" fill="#FFD037" fill-rule="nonzero"></path>
                <ellipse id="Oval" fill="#FFC107" fill-rule="nonzero" opacity="0.1" cx="1242.48" cy="1024.69" rx="79.78" ry="12.24"></ellipse>
                <path d="M1283.54,947.16 L1283.16,950.27 L1282.62,954.67 L1282.4,956.51 L1281.87,960.91 L1281.63,962.75 L1281.1,967.15 L1274.99,1017.15 C1274.45,1021.62 1267.15,1025.15 1258.34,1025.15 L1226.62,1025.15 C1217.81,1025.15 1210.52,1021.67 1209.97,1017.15 L1203.86,967.15 L1203.32,962.75 L1203.1,960.91 L1202.56,956.51 L1202.33,954.67 L1201.8,950.27 L1201.41,947.16 C1201.11,944.63 1205.06,942.5 1210.04,942.5 L1274.92,942.5 C1279.9,942.5 1283.85,944.63 1283.54,947.16 Z" id="Path" fill="#65617D" fill-rule="nonzero"></path>
                <polygon id="Path" fill="#9D9CB5" fill-rule="nonzero" points="1283.16 950.27 1282.62 954.67 1202.33 954.67 1201.8 950.27"></polygon>
                <polygon id="Path" fill="#9D9CB5" fill-rule="nonzero" points="1282.4 956.51 1281.86 960.91 1203.1 960.91 1202.55 956.51"></polygon>
                <polygon id="Path" fill="#9D9CB5" fill-rule="nonzero" points="1281.63 962.75 1281.1 967.14 1203.86 967.14 1203.32 962.75"></polygon>
                <path d="M1079.68,430.96 L1078.84,430.96 C1080.16,429.46 1080.84,427.96 1080.73,426.63 L1073.13,419.03 L1076.03,412.53 L1066.26,412.53 L1068.07,407.46 L1062.28,407.46 L998.22,428.8 C998.22,428.8 998.15,429.69 998.22,430.96 L956.97,430.96 L956.97,616.81 L1136.13,616.81 L1136.13,430.96 L1079.68,430.96 Z" id="Path" fill="url(#linearGradient-1)" fill-rule="nonzero"></path>
                <rect id="Rectangle" fill="#F6F7F9" fill-rule="nonzero" x="958.3" y="431.61" width="176.46" height="183.24"></rect>
                <path d="M1079.19,431.61 C1070.83,443.92 1014.99,460.13 1014.99,460.13 L1015.34,447.3 L1005.01,447.3 C1005.59166,444.761988 1004.42585,442.145037 1002.15,440.88 C999.15,439.23 998.86,433.88 998.9,431.61 L1079.19,431.61 Z" id="Path" fill="#000000" fill-rule="nonzero" opacity="0.1"></path>
                <path d="M1062.04,408.44 L998.95,429.44 C998.95,429.44 998.23,437.64 1002.15,439.77 C1004.42068,441.039772 1005.58468,443.652671 1005.01,446.19 L1015.34,446.19 L1014.99,459.02 C1014.99,459.02 1081.29,439.77 1080.22,427.3 L1072.74,419.81 L1075.59,413.39 L1065.96,413.39 L1067.75,408.39 L1062.04,408.44 Z" id="Path" fill="#9D9CB5" fill-rule="nonzero"></path>
                <g id="Group" opacity="0.35" transform="translate(990.000000, 491.000000)" fill="#FFC107" fill-rule="nonzero">
                    <rect id="Rectangle" opacity="0.2" x="0.92" y="0.01" width="111.22" height="3.12"></rect>
                </g>
                <g id="Group" opacity="0.35" transform="translate(990.000000, 507.000000)" fill="#FFC107" fill-rule="nonzero">
                    <rect id="Rectangle" opacity="0.2" x="0.92" y="0.46" width="111.22" height="3.12"></rect>
                </g>
                <g id="Group" opacity="0.35" transform="translate(990.000000, 523.000000)" fill="#FFC107" fill-rule="nonzero">
                    <rect id="Rectangle" opacity="0.2" x="0.92" y="0.9" width="111.22" height="3.12"></rect>
                </g>
                <g id="Group" opacity="0.35" transform="translate(990.000000, 540.000000)" fill="#FFC107" fill-rule="nonzero">
                    <rect id="Rectangle" opacity="0.2" x="0.92" y="0.34" width="111.22" height="3.12"></rect>
                </g>
                <g id="Group" opacity="0.35" transform="translate(990.000000, 556.000000)" fill="#FFC107" fill-rule="nonzero">
                    <rect id="Rectangle" opacity="0.2" x="0.92" y="0.78" width="111.22" height="3.12"></rect>
                </g>
                <g id="Group" opacity="0.35" transform="translate(990.000000, 573.000000)" fill="#FFC107" fill-rule="nonzero">
                    <rect id="Rectangle" opacity="0.2" x="0.92" y="0.23" width="111.22" height="3.12"></rect>
                </g>
                <path d="M481.8,415.9 L481.38,415.9 C484.54,407.8 487.46,399.9 487.33,398.39 C487.05,395.39 481.04,401.91 480.76,400.28 C480.48,398.65 480.76,392.47 478.03,392.47 C475.3,392.47 473.65,395.68 472.03,395.68 C470.41,395.68 463.82,394.6 463.82,394.6 L455.43,415.9 L392.23,415.9 L392.23,614.39 L549.07,614.39 L549.07,415.9 L481.8,415.9 Z" id="Path" fill="url(#linearGradient-2)" fill-rule="nonzero"></path>
                <rect id="Rectangle" fill="#F6F7F9" fill-rule="nonzero" x="393.99" y="417" width="153.29" height="196.06"></rect>
                <path d="M481.55,417 C478.32,425.39 474.68,434.23 473.85,436.34 C472.24,440.34 471.18,438.21 469.3,437.68 C467.42,437.15 465.03,438.21 463.96,437.68 C462.89,437.15 456.61,437.68 456.61,437.68 C456.680192,436.697919 456.680192,435.712081 456.61,434.73 C456.47,433.67 449.25,434.73 449.25,434.73 L456.13,417 L481.55,417 Z" id="Path" fill="#000000" fill-rule="nonzero" opacity="0.1"></path>
                <path d="M463.96,395.97 L449.25,433.67 C449.25,433.67 456.47,432.6 456.6,433.67 C456.675496,434.648546 456.675496,435.631454 456.6,436.61 C456.6,436.61 462.89,436.07 463.96,436.61 C465.03,437.15 467.43,436.07 469.3,436.61 C471.17,437.15 472.24,439.28 473.85,435.27 C475.46,431.26 487.22,402.65 486.95,399.71 C486.68,396.77 480.8,403.19 480.53,401.58 C480.26,399.97 480.53,393.87 477.86,393.87 C475.19,393.87 473.58,397.04 471.98,397.04 C470.38,397.04 463.96,395.97 463.96,395.97 Z" id="Path" fill="#9D9CB5" fill-rule="nonzero"></path>
                <g id="Group" opacity="0.35" transform="translate(415.000000, 469.000000)" fill="#FFC107" fill-rule="nonzero">
                    <rect id="Rectangle" opacity="0.2" x="0.03" y="0.04" width="111.22" height="3.12"></rect>
                </g>
                <g id="Group" opacity="0.35" transform="translate(415.000000, 480.000000)" fill="#FFC107" fill-rule="nonzero">
                    <rect id="Rectangle" opacity="0.2" x="0.03" y="0.81" width="111.22" height="3.12"></rect>
                </g>
                <g id="Group" opacity="0.35" transform="translate(415.000000, 492.000000)" fill="#FFC107" fill-rule="nonzero">
                    <rect id="Rectangle" opacity="0.2" x="0.03" y="0.57" width="111.22" height="3.12"></rect>
                </g>
                <g id="Group" opacity="0.35" transform="translate(415.000000, 504.000000)" fill="#FFC107" fill-rule="nonzero">
                    <rect id="Rectangle" opacity="0.2" x="0.03" y="0.34" width="111.22" height="3.12"></rect>
                </g>
                <g id="Group" opacity="0.35" transform="translate(415.000000, 516.000000)" fill="#FFC107" fill-rule="nonzero">
                    <rect id="Rectangle" opacity="0.2" x="0.03" y="0.1" width="111.22" height="3.12"></rect>
                </g>
                <g id="Group" opacity="0.35" transform="translate(415.000000, 527.000000)" fill="#FFC107" fill-rule="nonzero">
                    <rect id="Rectangle" opacity="0.2" x="0.03" y="0.86" width="111.22" height="3.12"></rect>
                </g>
                <path d="M1060.25,709.39 L1059.83,709.39 C1063.71,699.39 1067.29,689.62 1067.12,687.79 C1066.79,684.12 1059.41,692.13 1059.12,690.13 C1058.83,688.13 1059.12,680.49 1055.77,680.49 C1052.42,680.49 1050.41,684.49 1048.4,684.49 C1046.39,684.49 1038.34,683.15 1038.34,683.15 L1028,709.39 L950.55,709.39 L950.55,954.28 L1142.78,954.28 L1142.78,709.39 L1060.25,709.39 Z" id="Path" fill="url(#linearGradient-3)" fill-rule="nonzero"></path>
                <rect id="Rectangle" fill="#F6F7F9" fill-rule="nonzero" x="952.09" y="711.09" width="188.88" height="241.6"></rect>
                <path d="M1059.88,711.09 C1055.94,721.35 1051.52,732.09 1050.49,734.67 C1048.49,739.61 1047.2,736.97 1044.89,736.32 C1042.58,735.67 1039.62,736.97 1038.3,736.32 C1036.98,735.67 1029.24,736.32 1029.24,736.32 C1029.32644,735.111544 1029.32644,733.898456 1029.24,732.69 C1029.07,731.38 1020.18,732.69 1020.18,732.69 L1028.61,711.09 L1059.88,711.09 Z" id="Path" fill="#000000" fill-rule="nonzero" opacity="0.1"></path>
                <path d="M1038.3,685.17 L1020.18,731.62 C1020.18,731.62 1029.07,730.3 1029.24,731.62 C1029.32647,732.825117 1029.32647,734.034883 1029.24,735.24 C1029.24,735.24 1036.98,734.59 1038.3,735.24 C1039.62,735.89 1042.58,734.59 1044.89,735.24 C1047.2,735.89 1048.51,738.54 1050.49,733.6 C1052.47,728.66 1066.96,693.4 1066.63,689.78 C1066.3,686.16 1059.05,694.06 1058.72,692.09 C1058.39,690.12 1058.72,682.58 1055.43,682.58 C1052.14,682.58 1050.16,686.49 1048.18,686.49 C1046.2,686.49 1038.3,685.17 1038.3,685.17 Z" id="Path" fill="#9D9CB5" fill-rule="nonzero"></path>
                <g id="Group" opacity="0.35" transform="translate(990.000000, 778.000000)" fill="#FFC107" fill-rule="nonzero">
                    <rect id="Rectangle" opacity="0.2" x="0.92" y="0.6" width="111.22" height="7.93"></rect>
                </g>
                <g id="Group" opacity="0.35" transform="translate(990.000000, 830.000000)" fill="#FFC107" fill-rule="nonzero">
                    <rect id="Rectangle" opacity="0.2" x="0.92" y="0.11" width="111.22" height="7.93"></rect>
                </g>
                <g id="Group" opacity="0.35" transform="translate(990.000000, 881.000000)" fill="#FFC107" fill-rule="nonzero">
                    <rect id="Rectangle" opacity="0.2" x="0.92" y="0.63" width="111.22" height="7.93"></rect>
                </g>
                <polygon id="Path" fill="url(#linearGradient-4)" fill-rule="nonzero" points="513.97 717.76 513.97 688.19 472.46 688.19 472.46 717.76 385.79 717.76 385.79 950.74 589.36 950.74 589.36 717.76"></polygon>
                <rect id="Rectangle" fill="#F6F7F9" fill-rule="nonzero" x="387.94" y="718.94" width="199.27" height="230.28"></rect>
                <rect id="Rectangle" fill="#000000" fill-rule="nonzero" opacity="0.1" x="472.78" y="718.94" width="40.64" height="31.37"></rect>
                <rect id="Rectangle" fill="#9D9CB5" fill-rule="nonzero" x="472.78" y="689.71" width="40.64" height="59.53"></rect>
                <g id="Group" opacity="0.35" transform="translate(431.000000, 774.000000)" fill="#FFC107" fill-rule="nonzero">
                    <rect id="Rectangle" opacity="0.2" x="0.96" y="0.64" width="111.22" height="7.93"></rect>
                </g>
                <g id="Group" opacity="0.35" transform="translate(431.000000, 790.000000)" fill="#FFC107" fill-rule="nonzero">
                    <rect id="Rectangle" opacity="0.2" x="0.96" y="0.41" width="111.22" height="7.93"></rect>
                </g>
                <g id="Group" opacity="0.35" transform="translate(431.000000, 806.000000)" fill="#FFC107" fill-rule="nonzero">
                    <rect id="Rectangle" opacity="0.2" x="0.96" y="0.19" width="111.22" height="7.93"></rect>
                </g>
                <g id="Group" opacity="0.35" transform="translate(431.000000, 821.000000)" fill="#FFC107" fill-rule="nonzero">
                    <rect id="Rectangle" opacity="0.2" x="0.96" y="0.96" width="111.22" height="7.93"></rect>
                </g>
                <g id="Group" opacity="0.35" transform="translate(513.000000, 839.000000)" fill="#FFC107" fill-rule="nonzero">
                    <rect id="Rectangle" opacity="0.2" x="0.42" y="0.52" width="29.77" height="24.06"></rect>
                </g>
                <g id="Group" opacity="0.35" transform="translate(431.000000, 869.000000)" fill="#FFC107" fill-rule="nonzero">
                    <rect id="Rectangle" opacity="0.2" x="0.96" y="0.28" width="29.77" height="24.06"></rect>
                </g>
                <path d="M799.86,717.39 L799.58,717.39 C802.82,704.72 805.26,694.63 805.26,694.63 L791.44,701.13 C791.44,701.13 781.63,688.13 778,690.3 C774.37,692.47 766.4,697.88 766.4,697.88 L755.82,692.46 L751.77,717.39 L668.22,717.39 L668.22,897.28 L673.59,900.49 C678.02,898.9 685.31,896.2 685.31,896.2 L681.96,905.5 L684.22,906.84 L688.03,903.39 L689.44,909.98 L693.97,912.69 L701.12,908.14 L699.12,915.8 L705.83,919.8 L725.34,912.47 L719.46,927.95 L723.33,930.27 L732.16,928.72 C732.16,928.72 731.76,931.81 731.51,935.16 L740.37,940.46 C744,939.05 747.42,937.66 747.42,937.66 C747.42,937.66 747.07,941.04 746.91,944.36 L752.85,947.92 C757.54,945.18 763.51,941.45 763.51,941.45 L758.51,950.75 L871.41,950.75 L871.41,717.39 L799.86,717.39 Z" id="Path" fill="url(#linearGradient-5)" fill-rule="nonzero"></path>
                <path d="M869.19,718.94 L869.19,949.22 L758.46,949.22 L763.4,940.05 C763.4,940.05 757.55,943.72 752.95,946.43 L747.13,942.91 C747.29,939.64 747.64,936.3 747.64,936.3 C747.64,936.3 744.28,937.67 740.72,939.06 L732.03,933.83 C732.28,930.53 732.66,927.48 732.66,927.48 L724.01,929.01 L720.22,926.72 L725.98,911.44 L706.85,918.68 L700.26,914.68 L702.18,907.12 L695.18,911.61 L690.74,908.94 L689.36,902.44 L685.62,905.86 L683.4,904.53 L686.69,895.36 C686.69,895.36 679.54,898.02 675.19,899.59 L669.93,896.43 L669.93,718.94 L869.19,718.94 Z" id="Path" fill="#F6F7F9" fill-rule="nonzero"></path>
                <g id="Group" opacity="0.35" transform="translate(713.000000, 790.000000)" fill="#FFC107" fill-rule="nonzero">
                    <rect id="Rectangle" opacity="0.2" x="0.94" y="0.41" width="111.22" height="7.93"></rect>
                </g>
                <g id="Group" opacity="0.35" transform="translate(713.000000, 814.000000)" fill="#FFC107" fill-rule="nonzero">
                    <rect id="Rectangle" opacity="0.2" x="0.94" y="0.12" width="111.22" height="7.93"></rect>
                </g>
                <g id="Group" opacity="0.35" transform="translate(713.000000, 837.000000)" fill="#FFC107" fill-rule="nonzero">
                    <rect id="Rectangle" opacity="0.2" x="0.94" y="0.82" width="111.22" height="7.93"></rect>
                </g>
                <g id="Group" opacity="0.35" transform="translate(713.000000, 861.000000)" fill="#FFC107" fill-rule="nonzero">
                    <rect id="Rectangle" opacity="0.2" x="0.94" y="0.53" width="22.28" height="7.93"></rect>
                </g>
                <path d="M799.01,718.94 C793.59,740.32 785.69,769.94 783.63,769.42 C780.43,768.55 775.43,762.42 775.43,762.42 C775.43,762.42 763.67,773.47 757.97,767.77 C752.27,762.07 744.42,765.98 744.42,765.98 L752.02,718.93 L799.01,718.94 Z" id="Path" fill="#000000" fill-rule="nonzero" opacity="0.1"></path>
                <path d="M755.83,694.39 L744.42,764.97 C744.42,764.97 752.26,761.05 757.96,766.76 C763.66,772.47 775.43,761.39 775.43,761.39 C775.43,761.39 780.43,767.51 783.63,768.39 C786.83,769.27 804.31,696.53 804.31,696.53 L790.76,702.95 C790.76,702.95 781.14,690.11 777.57,692.25 C774,694.39 766.2,699.74 766.2,699.74 L755.83,694.39 Z" id="Path" fill="#9D9CB5" fill-rule="nonzero"></path>
                <path d="M849.03,386.45 L849.03,379.68 L742.91,379.68 C738.04,379.68 741.02,386.45 741.02,386.45 L683.36,386.45 L683.36,537.39 L936.46,537.39 L936.46,386.39 L849.03,386.45 Z" id="Path" fill="url(#linearGradient-6)" fill-rule="nonzero"></path>
                <rect id="Rectangle" fill="#F6F7F9" fill-rule="nonzero" x="684.96" y="387.17" width="249.98" height="149.19"></rect>
                <path d="M848.59,411.5 L749.4,411.5 C749.4,411.5 748.33,400 751.81,397.87 C755.29,395.74 741.91,388.24 741.91,388.24 C741.761858,387.89021 741.631688,387.533077 741.52,387.17 L848.59,387.17 L848.59,390.65 C848.59,390.65 862.23,402.68 848.59,411.5 Z" id="Path" fill="#000000" fill-rule="nonzero" opacity="0.1"></path>
                <path d="M743.78,380.49 L848.59,380.49 L848.59,389.58 C848.59,389.58 862.23,401.58 848.59,410.43 L749.4,410.43 C749.4,410.43 748.33,398.93 751.81,396.8 C755.29,394.67 741.91,387.17 741.91,387.17 C741.91,387.17 738.97,380.49 743.78,380.49 Z" id="Path" fill="#9D9CB5" fill-rule="nonzero"></path>
                <g id="Group" opacity="0.35" transform="translate(715.000000, 433.000000)" fill="#FFC107" fill-rule="nonzero">
                    <rect id="Rectangle" opacity="0.2" x="0.67" y="0.96" width="188.58" height="3.12"></rect>
                </g>
                <g id="Group" opacity="0.35" transform="translate(715.000000, 445.000000)" fill="#FFC107" fill-rule="nonzero">
                    <rect id="Rectangle" opacity="0.2" x="0.67" y="0.72" width="112.65" height="3.12"></rect>
                </g>
                <g id="Group" opacity="0.35" transform="translate(715.000000, 457.000000)" fill="#FFC107" fill-rule="nonzero">
                    <rect id="Rectangle" opacity="0.2" x="0.67" y="0.49" width="188.58" height="3.12"></rect>
                </g>
                <g id="Group" opacity="0.35" transform="translate(715.000000, 469.000000)" fill="#FFC107" fill-rule="nonzero">
                    <rect id="Rectangle" opacity="0.2" x="0.67" y="0.25" width="188.58" height="3.12"></rect>
                </g>
                <g id="Group" opacity="0.35" transform="translate(715.000000, 481.000000)" fill="#FFC107" fill-rule="nonzero">
                    <rect id="Rectangle" opacity="0.2" x="0.67" y="0.01" width="188.58" height="3.12"></rect>
                </g>
                <path d="M981.82,1075.66 C980.03,1068.04 978.93,1061.36 978.93,1061.36 C978.93,1061.36 979.34,1053.07 975.62,1046.85 L975.62,1044.78 L975.62,1044.78 L975.62,1029.47 C976.674644,1026.69748 977.966082,1024.02092 979.48,1021.47 C982.24,1016.65 979.48,999.01 979.48,999.01 C979.48,999.01 969.26,974.14 971.75,958.37 C974.24,942.6 950.75,888.32 950.75,888.32 C950.894401,883.082776 951.635863,877.879125 952.96,872.81 C953.203808,871.744784 953.304695,870.651847 953.26,869.56 C953.26,869.43 953.26,869.3 953.26,869.16 L953.26,869.29 C952.91,858.89 944.69,839.39 944.69,839.39 L945.79,802.22 C945.79,802.22 951.04,780.3 942.48,750.89 C939.48,740.62 937.57,732.41 936.36,726.07 C936.22,725.35 936.09,724.66 935.97,724 C953.6,721.31 967.06,719.07 967.06,719.07 C967.06,719.07 956.83,676.27 949.93,668.79 C943.03,661.31 937.5,637.79 937.5,637.79 C937.5,637.79 933.9,607.58 939.71,598.79 C945.52,590 946.33,574.72 946.33,574.72 C946.33,574.72 959.59,565.1 961.25,560.82 C962.91,556.54 965.67,546.92 965.67,541.82 C965.67,536.72 964.01,532.19 964.57,529.52 C965.13,526.85 960.7,516.69 962.91,511.87 C963.48417,510.390035 963.782424,508.817423 963.79,507.23 C963.795556,507.183499 963.795556,507.136501 963.79,507.09 C963.79,507.09 963.79,507.09 963.79,507.04 C963.804724,502.828765 963.412907,498.625942 962.62,494.49 C962.62,494.49 956.62,489.2 949.51,487.49 L949.22,486.34 L948.47,483.34 C948.047741,483.056532 947.610433,482.79615 947.16,482.56 L947.16,481.47 L947.04,477.13 L949.12,467.36 C953.19,450.36 930.54,447.85 930.54,447.85 C929.182264,445.231287 926.896652,443.213102 924.13,442.19 C919.57,440.58 923.37,467.73 925.5,469.46 C927.11,470.77 932.06,479.28 934.44,483.46 L934.44,483.46 L934.83,484.15 C934.468463,484.486413 934.134088,484.850882 933.83,485.24 L934.69,491.13 L934.82,492.03 C933.321363,493.899028 932.105076,495.977835 931.21,498.2 C931.21,498.2 935.36,502.74 934.53,507.82 C933.7,512.9 935.8,519.23 935.9,519.58 C935.65,519.3 932.74,516.14 929.83,516.91 C926.92,517.68 918.83,520.12 918.83,520.12 C918.83,520.12 912.75,521.19 913.31,522.53 C913.87,523.87 909.16,529.75 909.16,529.75 L892.83,514.27 C892.67,513.81 892.51,513.35 892.36,512.87 C891.679215,510.658466 891.203868,508.388852 890.94,506.09 C892.7184,505.665593 894.463121,505.110758 896.16,504.43 C897.877335,503.844554 899.427933,502.853131 900.68,501.54 C902.32,499.54 902.68,496.93 903.31,494.54 C904.6,489.78 907.38,485.54 909.37,481.03 C912.731352,473.411469 913.861804,464.995494 912.63,456.76 C912.372414,454.22683 911.51173,451.792226 910.12,449.66 C907.46,445.99 902.62,444.5 899.12,441.57 C895.62,438.64 893.34,434.18 889.24,431.98 C885.54,429.98 881.02,430.23 876.85,430.91 C868.677606,432.255455 860.827162,435.110778 853.7,439.33 C851.32,440.74 848.7,442.33 845.96,441.87 C843.62,441.45 841.9,439.57 840.39,437.78 C840.4087,437.701999 840.432076,437.625194 840.46,437.55 L840.28,437.34 C838.550572,441.178796 837.683562,445.350001 837.74,449.56 C837.74,450.21 837.74,450.86 837.82,451.56 C837.82,451.79 837.82,452.02 837.82,452.25 C837.834788,452.436374 837.834788,452.623626 837.82,452.81 L837.82,452.81 C837.820151,453.10085 837.779763,453.390301 837.7,453.67 C837.352729,454.50696 836.831155,455.260344 836.17,455.88 C835.671281,456.440609 835.226013,457.046574 834.84,457.69 C834.91,457.47 834.98,457.25 835.06,457.03 C834.018037,458.547117 833.431651,460.330563 833.37,462.17 C833.280814,463.513632 833.722471,464.838606 834.6,465.86 C835.413985,466.659241 836.304984,467.37606 837.26,468 C834.953666,480.848871 840.901006,493.773359 852.16,500.38 C852.35,500.84 852.53,501.31 852.72,501.78 C854.8,507.28 856.37,513.68 855.72,519.59 C855.66,520.03 855.6,520.46 855.52,520.89 C855.31,521.11 855.11,521.34 854.93,521.57 L854.93,521.57 C854.93,521.57 827.93,521.83 821.62,516.08 C815.31,510.33 805.62,530.08 805.62,530.08 C805.62,530.08 795.95,531.96 794.02,530.08 C792.09,528.2 780.76,529.82 780.76,529.82 C780.76,529.82 773.85,523.13 763.91,523.67 C760.134453,520.800651 755.969243,518.484027 751.54,516.79 L751.54,516.79 L751.23,516.68 L751.23,516.68 C749.285074,515.977448 747.208662,515.714481 745.15,515.91 C745.15,515.91 731.89,504.91 728.03,499.07 C724.17,493.23 705.74,471.37 705.66,471.27 L705.59,470.27 L705.38,467.09 C704.83405,467.176016 704.282638,467.222802 703.73,467.23 L703.36,466.13 C702.30211,463.027671 700.99103,460.017539 699.44,457.13 C699.44,457.13 699.44,453.13 700.61,452.13 C701.78,451.13 700.13,436.42 700.13,436.42 C700.13,436.42 688.18,408.48 677.48,429.34 C677.48,429.34 657.25,442.83 674.23,458.54 C674.23,458.54 681,461.83 681.96,464.43 C682.59,466.12 684.89,470.83 686.44,473.97 C686.7,474.49 686.93,474.97 687.13,475.37 L686.94,475.53 L687.19,478.15 L687.29,479.15 C684.09,480.97 681.92,482.76 682.45,484.15 C683.39518,486.465665 684.04366,488.891584 684.38,491.37 C684.38,491.37 707.86,520.78 710.9,533.37 C710.9,533.37 773.9,570.8 794.6,573.48 L791.01,592.19 C791.01,592.19 789.9,603.42 790.18,607.43 C790.46,611.44 787.69,629.63 787.69,629.63 C787.69,629.63 784.1,656.36 781.06,660.1 C778.02,663.84 778.58,679.89 778.58,679.89 C777.848495,687.571302 776.460083,695.17579 774.43,702.62 C771.43,712.78 773.61,725.34 773.61,725.34 C773.61,725.34 763.11,749.41 788.25,733.1 C788.25,733.1 800.59,732.33 814.8,731.85 C814.8,732.31 814.8,732.78 814.8,733.26 C814.8,735.09 814.74,737.07 814.72,739.16 C814.53,752.94 814.45,771.93 815.07,786.3 C816.17,811.7 823.91,861.97 823.91,861.97 L823.91,887.22 C823.410625,889.593862 823.165907,892.014222 823.18,894.44 C823.009785,903.341587 825.371423,912.108432 829.99,919.72 L831.7,936.39 C831.7,936.39 836.24,947.49 836.33,954.12 C836.308409,954.66131 836.241509,955.19986 836.13,955.73 C835.960777,956.579118 835.886985,957.44449 835.91,958.31 C835.65,965.96 840.26,984.25 840.26,984.25 C840.26,984.25 840.54,1002.7 843.26,1003.77 C845.62,1004.68 840.11,1014.4 838.46,1017.19 C838.46,1017.01 838.39,1016.84 838.36,1016.66 C838.15,1017.02 838.02,1017.22 838.02,1017.22 C837.452219,1018.70808 837.160778,1020.28728 837.16,1021.88 C836.840558,1024.45283 838.031864,1026.97948 840.22,1028.37 C845.47,1031.58 848.29,1034.25 843.84,1035.37 C842.20066,1035.61998 840.575198,1035.95375 838.97,1036.37 C838.89,1036.16 838.81,1035.95 838.74,1035.75 C837.461035,1036.2781 836.709174,1037.61245 836.92,1038.98 C836.8,1040.33 837.25,1042.3 838.57,1045.24 C842.99,1055.13 846.05,1058.88 846.05,1058.88 L848.17,1058.64 C847.846876,1059.44376 847.434277,1060.20858 846.94,1060.92 C846.132795,1062.08 845.059532,1063.02982 843.81,1063.69 C842.659694,1064.3839 841.374274,1064.82374 840.04,1064.98 C837.007578,1065.08127 834.16104,1066.46637 832.21,1068.79 C829.46,1072.35 827.73,1077.21 833.21,1081.47 L852.97,1088.29 C852.97,1088.29 886.97,1092.7 885.14,1085.08 C883.31,1077.46 882.25,1070.78 882.25,1070.78 C882.25,1070.78 882.63,1063.34 879.49,1057.26 C879.138665,1056.56532 878.737622,1055.89691 878.29,1055.26 L879.49,1055.12 C879.49,1055.12 881.97,1038.28 885.29,1035.12 C886.05,1034.38 886.22,1033.81 886.04,1033.38 C886.39,1032.46 885.52,1031.92 884.41,1031.62 L884.17,1032.28 C883.08567,1032.04339 881.979804,1031.9194 880.87,1031.91 C880.87,1031.91 879.76,1023.09 883.35,1019.91 C883.941062,1019.1738 884.195121,1018.22289 884.05,1017.29 C884.080295,1016.08245 883.955952,1014.87599 883.68,1013.7 C883.68,1013.76 883.6,1013.84 883.55,1013.9 C881.74,1005.9 875.62,993.17 875.62,993.17 C875.62,993.17 875.34,985.17 877.55,981.95 C879.76,978.73 877.28,938.36 877.28,938.36 C877.28,938.36 878.11,918.85 875.62,909.76 C873.13,900.67 878.62,889.97 878.62,889.97 C878.62,889.97 878.62,889.76 878.56,889.39 L878.63,889.25 C878.63,889.25 878.51,888.05 878.31,886.18 C878.282368,886.238238 878.258973,886.298394 878.24,886.36 C877.69,881.2 876.63,871.84 875.86,867.51 C874.75,861.36 876.13,831.95 876.13,831.95 L881.13,819.39 L889.97,841.04 L899.37,869.92 C899.37,869.92 904.02,876.02 904.13,882.2 C904.13,882.5 904.13,882.8 904.07,883.1 C903.9949,883.740566 903.958168,884.385049 903.96,885.03 C903.794506,888.676899 904.796379,892.281543 906.82,895.32 C906.82,895.32 909.31,908.95 913.18,912.43 C917.05,915.91 917.04,922.59 917.04,922.59 C917.04,922.59 921.74,942.37 923.95,945.85 C925.81,948.78 925.95,956.85 925.89,959.3 L925.89,959.3 C925.89,959.76 925.89,960.02 925.89,960.02 C925.89,960.02 926.54,967.09 926.52,973.02 C926.52,973.75 926.52,974.46 926.45,975.13 L926.45,974.98 C926.443338,976.59978 926.252104,978.213525 925.88,979.79 C925.847407,979.878137 925.820682,979.968334 925.8,980.06 C925.8,979.73 925.8,979.39 925.88,979.06 C924.917151,983.098039 924.453684,987.239013 924.5,991.39 C924.37,998.5 925.5,1006.93 929.76,1011.87 C937.22,1020.43 941.92,1019.36 941.92,1019.36 C941.92,1019.36 938.32,1030.05 933.92,1032.19 C933.753999,1032.27456 933.596595,1032.37503 933.45,1032.49 C933.45,1032.28 933.37,1032.08 933.34,1031.87 C932.42,1032.67 932.05,1034.11 932.05,1035.87 C931.73,1040.57 934.69,1048.21 937.52,1051.72 C938.564148,1052.74365 939.845665,1053.49263 941.25,1053.9 C941.024016,1054.05497 940.790388,1054.19848 940.55,1054.33 C940.05884,1054.59854 939.551156,1054.83568 939.03,1055.04 C938.31647,1055.35599 937.556775,1055.5552 936.78,1055.63 C933.745084,1055.6991 930.886065,1057.06851 928.93,1059.39 C926.18,1062.94 924.45,1067.8 929.93,1072.06 L949.69,1078.88 C949.69,1078.88 983.63,1083.28 981.82,1075.66 Z" id="Path" fill="url(#linearGradient-7)" fill-rule="nonzero"></path>
                <path d="M852.06,1088.29 L832.94,1081.47 C827.66,1077.21 829.34,1072.35 832.01,1068.79 C833.862206,1066.48328 836.62386,1065.09334 839.58,1064.98 C840.876282,1064.82175 842.122154,1064.38142 843.23,1063.69 C844.436267,1063.01867 845.46479,1062.06901 846.23,1060.92 C847.628661,1058.70683 848.383513,1056.14795 848.41,1053.53 C848.41,1053.53 869.41,1047.38 875.15,1053.53 C876.175345,1054.64177 877.03121,1055.89862 877.69,1057.26 C880.69,1063.34 880.37,1070.78 880.37,1070.78 C880.37,1070.78 881.44,1077.45 883.17,1085.08 C884.9,1092.71 852.06,1088.29 852.06,1088.29 Z" id="Path" fill="#2D293D" fill-rule="nonzero"></path>
                <path d="M945.63,1078.87 L926.51,1072.05 C921.24,1067.79 922.92,1062.93 925.58,1059.38 C927.427924,1057.068 930.192166,1055.67675 933.15,1055.57 C933.90768,1055.49621 934.647793,1055.29682 935.34,1054.98 C935.844542,1054.7747 936.335531,1054.53756 936.81,1054.27 C942.16,1051.33 942.02,1044.11 942.02,1044.11 C942.02,1044.11 963.02,1037.96 968.76,1044.11 C969.528249,1044.94104 970.199249,1045.85695 970.76,1046.84 C974.36,1053.06 973.96,1061.36 973.96,1061.36 C973.96,1061.36 975.03,1068.04 976.77,1075.66 C978.51,1083.28 945.63,1078.87 945.63,1078.87 Z" id="Path" fill="#2D293D" fill-rule="nonzero"></path>
                <path d="M875.18,1053.53 C876.205345,1054.64177 877.06121,1055.89862 877.72,1057.26 L877.72,1057.26 L846.26,1060.91 C847.658661,1058.69683 848.413513,1056.13795 848.44,1053.52 C848.44,1053.52 869.44,1047.39 875.18,1053.53 Z" id="Path" fill="#000000" fill-rule="nonzero" opacity="0.1"></path>
                <path d="M970.77,1046.84 L970.77,1052.73 C965.88,1060.79 942.21,1059.03 935.34,1054.98 C935.844542,1054.7747 936.335531,1054.53756 936.81,1054.27 C942.16,1051.33 942.02,1044.11 942.02,1044.11 C942.02,1044.11 963.02,1037.96 968.76,1044.11 C969.531747,1044.94051 970.206116,1045.85645 970.77,1046.84 L970.77,1046.84 Z" id="Path" fill="#000000" fill-rule="nonzero" opacity="0.1"></path>
                <path d="M974.51,1021.45 C973.042952,1024.00798 971.791944,1026.68393 970.77,1029.45 L970.77,1050.59 C965.42,1059.41 937.61,1056.47 933.87,1051.66 C930.13,1046.85 926.12,1034.28 930.39,1032.14 C934.66,1030 938.13,1019.31 938.13,1019.31 C938.13,1019.31 933.58,1020.38 926.36,1011.82 C919.14,1003.26 921.28,984.28 922.63,979.74 C923.98,975.2 922.63,959.95 922.63,959.95 C922.63,959.95 922.9,949.26 920.76,945.78 C918.62,942.3 914.13,922.52 914.13,922.52 C914.13,922.52 914.13,915.84 910.38,912.36 C906.63,908.88 904.23,895.25 904.23,895.25 C902.041716,891.842459 901.098464,887.783296 901.56,883.76 C902.36,877.07 897.01,869.85 897.01,869.85 L887.92,840.98 L879.37,819.32 L874.56,831.89 C874.56,831.89 873.22,861.3 874.29,867.45 C875.36,873.6 876.96,889.91 876.96,889.91 C876.96,889.91 871.62,900.6 874.02,909.69 C876.42,918.78 875.63,938.3 875.63,938.3 C875.63,938.3 878.03,978.67 875.89,981.88 C873.75,985.09 874.02,993.11 874.02,993.11 C874.02,993.11 885.02,1016.63 881.51,1019.84 C878,1023.05 879.1,1031.84 879.1,1031.84 C879.1,1031.84 886.59,1031.84 883.38,1035.05 C880.17,1038.26 877.76,1055.05 877.76,1055.05 L845.44,1058.8 C845.44,1058.8 842.44,1055.05 838.2,1045.16 C833.96,1035.27 839,1036.34 843.3,1035.27 C847.6,1034.2 844.88,1031.53 839.8,1028.27 C834.72,1025.01 837.66,1017.84 837.66,1017.84 C837.66,1017.84 845.41,1004.74 842.74,1003.67 C840.07,1002.6 839.8,984.15 839.8,984.15 C839.8,984.15 834.45,962.23 835.8,956.35 C837.15,950.47 831.47,936.39 831.47,936.39 L829.6,919.54 C819.97,902.97 823.72,887.73 823.72,887.73 L823.72,861.83 C823.72,861.83 816.23,811.57 815.16,786.17 C814.48,769.9 814.67,747.7 814.89,733.85 C815.02,726.08 815.16,720.93 815.16,720.93 L930.66,708.93 C930.66,708.93 930.54,714.26 932.76,726.09 C933.93,732.43 935.76,740.64 938.68,750.91 C946.97,780.32 941.89,802.24 941.89,802.24 L940.82,839.39 C940.82,839.39 950.98,864.26 948.82,872.81 C947.537783,877.885438 946.820098,883.086977 946.68,888.32 C946.68,888.32 969.43,942.58 967.02,958.39 C964.61,974.2 974.51,999.03 974.51,999.03 C974.51,999.03 977.18,1016.63 974.51,1021.45 Z" id="Path" fill="#575988" fill-rule="nonzero"></path>
                <path d="M908.47,882.15 L943.63,877.47 C943.63,877.47 923.71,897.79 908.47,882.15 Z" id="Path" fill="#000000" fill-rule="nonzero" opacity="0.05"></path>
                <path d="M938.55,843.12 C938.55,843.12 939.75,855.55 932.13,860.23 C932.13,860.23 945.77,858.09 938.55,843.12 Z" id="Path" fill="#000000" fill-rule="nonzero" opacity="0.1"></path>
                <path d="M936.39,803.55 C936.39,803.55 907,827.74 896.31,825.74 C885.62,823.74 936.39,803.55 936.39,803.55 Z" id="Path" fill="#000000" fill-rule="nonzero" opacity="0.1"></path>
                <path d="M864.89,893.52 C864.89,893.52 842.57,898.59 841.89,907.52 C841.21,916.45 864.89,893.52 864.89,893.52 Z" id="Path" fill="#000000" fill-rule="nonzero" opacity="0.1"></path>
                <path d="M869.8,1005 C869.8,1005 838.25,1010.89 847.21,1014.9 C856.17,1018.91 870.87,1022.11 870.87,1022.11 C870.87,1022.11 881.03,1022.65 869.8,1005 Z" id="Path" fill="#000000" fill-rule="nonzero" opacity="0.05"></path>
                <g id="Group" opacity="0.05" transform="translate(814.000000, 720.000000)" fill="#000000" fill-rule="nonzero">
                    <path d="M26.84,301.26 C25.2302937,300.256957 24.1661932,298.57428 23.95,296.69 L23.63,297.25 C23.63,297.25 20.69,304.47 25.77,307.68 L27.42,308.76 C28.35,308.59 29.36,308.46 30.34,308.21 C34.64,307.14 31.92,304.47 26.84,301.26 Z" id="Path"></path>
                    <path d="M67.48,299.12 C68.34,298.32 68.31,296.27 67.78,293.63 C66.36,295.7 66.02,298.92 65.99,301.37 C66.3202761,300.522194 66.8283425,299.75498 67.48,299.12 L67.48,299.12 Z" id="Path"></path>
                    <path d="M62.62,166.11 C61.4514628,169.270254 60.7344034,172.579501 60.49,175.94 C61.0923137,173.619222 61.9091646,171.359491 62.93,169.19 C62.93,169.19 62.81,167.98 62.62,166.11 Z" id="Path"></path>
                    <path d="M134.85,152.07 C135.068928,151.112711 135.166363,150.13165 135.14,149.15 C134.75,151.15 134.47,153 134.27,154.62 C134.44,153.79 134.63,152.94 134.85,152.07 Z" id="Path"></path>
                    <path d="M61.86,261.16 C62.3,260.5 62.54,258.3 62.66,255.22 C61.66,257.17 61.25,260.32 61.12,262.72 C61.3039981,262.172522 61.5524066,261.64885 61.86,261.16 Z" id="Path"></path>
                    <path d="M68.49,311.58 C66.29,317.58 64.8,328 64.8,328 L32.47,331.74 C32.47,331.74 29.47,328 25.23,318.11 C24.86,317.24 24.56,316.46 24.32,315.75 C22.38,316.64 21.62,318.65 24.16,324.52 C28.44,334.41 31.4,338.16 31.4,338.16 L63.73,334.39 C63.73,334.39 66.14,317.55 69.35,314.39 C70.93,312.79 69.92,311.98 68.49,311.58 Z" id="Path"></path>
                    <path d="M25.77,263.56 C25.77,263.56 26.04,282.01 28.71,283.08 L28.71,283.08 C30.06,280.03 30.96,277.08 29.71,276.65 C27.04,275.59 26.77,257.14 26.77,257.14 C26.77,257.14 21.42,235.21 22.77,229.33 C24.12,223.45 18.49,209.28 18.49,209.28 L16.62,192.44 C6.99,175.86 10.74,160.62 10.74,160.62 L10.74,134.7 C10.74,134.7 3.25,84.43 2.18,59.03 C1.5,42.77 1.69,20.57 1.91,6.72 C1.91,4.21 2,1.99 2.04,0.12 L1.11,0.21 C1.11,0.21 0.97,5.36 0.84,13.13 C0.62,26.98 0.43,49.13 1.11,65.45 C2.18,90.85 9.67,141.11 9.67,141.11 L9.67,167.05 C9.67,167.05 5.92,182.29 15.55,198.86 L17.42,215.71 C17.42,215.71 23.03,229.88 21.7,235.71 C20.37,241.54 25.77,263.56 25.77,263.56 Z" id="Path"></path>
                    <path d="M120.95,324.52 C118.322772,320.718669 116.573882,316.380601 115.83,311.82 C112.53,314.82 116.32,326.37 119.83,330.94 C123.57,335.75 151.38,338.69 156.73,329.87 L156.73,324.78 C149.55,331.95 124.49,329.07 120.95,324.52 Z" id="Path"></path>
                    <path d="M161.59,294.31 C160.117644,296.86667 158.863211,299.542793 157.84,302.31 L157.84,306.06 C158.45,304.69 159.32,302.86 160.52,300.71 C161.29,299.32 161.61,296.87 161.69,294.08 C161.65,294.17 161.62,294.25 161.59,294.31 Z" id="Path"></path>
                    <path d="M122.59,298.52 C123.612619,296.465485 124.494645,294.343945 125.23,292.17 C125.23,292.17 120.68,293.24 113.46,284.69 C108.21,278.46 107.91,266.69 108.66,259.02 C107.31,263.57 105.18,282.55 112.39,291.1 C117.13,296.7 120.68,298.17 122.59,298.52 Z" id="Path"></path>
                    <path d="M108.65,239.23 C109.120791,244.499396 109.297731,249.790924 109.18,255.08 C109.317042,254.243743 109.500661,253.415788 109.73,252.6 C111.08,248.06 109.73,232.82 109.73,232.82 C109.73,232.82 110,222.12 107.86,218.65 C105.72,215.18 101.13,195.39 101.13,195.39 C101.13,195.39 101.13,188.7 97.39,185.23 C93.65,181.76 91.24,168.12 91.24,168.12 C89.0525203,164.708399 88.109432,160.646408 88.57,156.62 C89.37,149.94 84.02,142.72 84.02,142.72 L74.93,113.84 L66.38,92.19 L61.56,104.75 C61.56,104.75 61.49,106.33 61.4,108.81 L65.31,98.6 L73.86,120.26 L82.95,149.13 C82.95,149.13 88.3,156.35 87.5,163.04 C87.0384638,167.063296 87.9817157,171.122459 90.17,174.53 C90.17,174.53 92.58,188.17 96.32,191.64 C100.06,195.11 100.13,201.8 100.13,201.8 C100.13,201.8 104.68,221.59 106.82,225.06 C108.96,228.53 108.65,239.23 108.65,239.23 Z" id="Path"></path>
                </g>
                <path d="M945.13,467.39 L943.13,477.15 L943.25,481.49 L943.33,484.7 L932.13,485.8 L930.88,483.49 L930.88,483.49 C928.57,479.31 923.78,470.8 922.22,469.49 C920.16,467.75 916.48,440.61 920.9,442.22 C923.593074,443.262043 925.80517,445.263972 927.11,447.84 C927.11,447.84 949.05,450.39 945.13,467.39 Z" id="Path" fill="#FFCDD3" fill-rule="nonzero"></path>
                <path d="M943.29,484.65 L932.13,485.8 L930.88,483.49 L930.88,483.49 C932.48,481.84 937.05,478.09 943.2,481.49 L943.29,484.65 Z" id="Path" fill="#000000" fill-rule="nonzero" opacity="0.1"></path>
                <path d="M946.13,489.93 L931.4,493.39 L931.09,491.19 L930.26,485.3 C930.26,485.3 936.07,477.54 944.5,483.35 L945.23,486.35 L946.13,489.93 Z" id="Path" fill="#DCE6F2" fill-rule="nonzero"></path>
                <path d="M707.81,468.39 L692.13,476.83 C692.13,476.83 691.53,475.59 690.71,473.83 C689.21,470.7 686.99,465.98 686.38,464.29 C685.45,461.69 678.89,458.41 678.89,458.41 C662.46,442.7 682.04,429.2 682.04,429.2 C692.4,408.35 703.96,436.28 703.96,436.28 C703.96,436.28 705.56,451 704.43,451.99 C703.3,452.98 703.3,456.99 703.3,456.99 C704.799573,459.883656 706.06366,462.893386 707.08,465.99 C707.55,467.49 707.81,468.39 707.81,468.39 Z" id="Path" fill="#FFCDD3" fill-rule="nonzero"></path>
                <path d="M707.81,468.39 L692.13,476.83 C692.13,476.83 691.53,475.59 690.71,473.83 C692.92,471.98 700.78,465.61 703.36,465.9 C704.593973,466.052945 705.840075,466.083093 707.08,465.99 C707.55,467.49 707.81,468.39 707.81,468.39 Z" id="Path" fill="#000000" fill-rule="nonzero" opacity="0.1"></path>
                <path d="M709.42,473.15 L691.77,481.85 L691.42,478.05 L691.13,475.39 C691.13,475.39 701.35,466.63 704.37,466.97 C705.898413,467.19524 707.451587,467.19524 708.98,466.97 L709.18,470.15 L709.42,473.15 Z" id="Path" fill="#DCE6F2" fill-rule="nonzero"></path>
                <path d="M902.32,532.18 C902.32,532.18 825.38,540.86 839.76,536.18 C849.76,532.92 853.76,526.55 854.58,519.49 C855.26,513.58 853.74,507.19 851.72,501.69 C849.902972,496.835777 847.59782,492.178565 844.84,487.79 C844.84,487.79 903.66,455.43 891.84,484.79 C890.027031,489.240117 888.904093,493.940941 888.51,498.73 C888.150064,503.48604 888.661794,508.267829 890.02,512.84 C892.247671,520.30234 896.506256,526.998358 902.32,532.18 L902.32,532.18 Z" id="Path" fill="#FFCDD3" fill-rule="nonzero"></path>
                <path d="M891.89,484.85 C890.077031,489.300117 888.954093,494.000941 888.56,498.79 C883.02,503.44 876.94,503.14 869.14,503.14 C863.14,503.14 856.51,504.59 851.72,501.7 C849.902972,496.845777 847.59782,492.188565 844.84,487.8 C844.84,487.8 903.66,455.44 891.89,484.85 Z" id="Path" fill="#000000" fill-rule="nonzero" opacity="0.1"></path>
                <circle id="Oval" fill="#FFCDD3" fill-rule="nonzero" cx="868.1" cy="473.36" r="31.82"></circle>
                <path d="M902.32,532.18 C902.32,532.18 825.38,540.86 839.76,536.18 C849.76,532.92 853.76,526.55 854.58,519.49 C858.41,515.35 866.11,512.35 871.05,510.76 C875.580148,509.234815 880.472197,509.154446 885.05,510.53 C886.845969,511.065413 888.554027,511.860485 890.12,512.89 C892.328066,520.32289 896.550665,526.999442 902.32,532.18 Z" id="Path" fill="#000000" fill-rule="nonzero" opacity="0.1"></path>
                <path d="M946.13,489.93 L931.4,493.39 L931.09,491.19 C935.24,485.89 940.47,485.25 945.23,486.36 L946.13,489.93 Z" id="Path" fill="#000000" fill-rule="nonzero" opacity="0.1"></path>
                <path d="M709.42,473.15 L691.77,481.85 L691.42,478.05 C697.73,474.33 708.3,470.5 709.22,470.17 L709.42,473.15 Z" id="Path" fill="#000000" fill-rule="nonzero" opacity="0.1"></path>
                <path d="M932.76,726.06 C902.96,730.76 860.55,736.89 853.82,734.84 C848.24,733.14 830.41,733.32 814.89,733.84 C815.02,726.07 815.16,720.92 815.16,720.92 L930.66,708.92 C930.66,708.92 930.54,714.23 932.76,726.06 Z" id="Path" fill="#000000" fill-rule="nonzero" opacity="0.1"></path>
                <path d="M962.48,719.06 C962.48,719.06 864.36,735.91 853.82,732.7 C843.28,729.49 789.23,732.97 789.23,732.97 C764.9,749.27 775.06,725.21 775.06,725.21 C775.06,725.21 772.92,712.65 775.86,702.49 C777.821123,695.037317 779.159067,687.43445 779.86,679.76 C779.86,679.76 779.33,663.76 782.27,659.98 C785.21,656.2 788.68,629.5 788.68,629.5 C788.68,629.5 791.36,611.32 791.09,607.31 C790.82,603.3 791.89,592.07 791.89,592.07 L795.38,573.39 C775.38,570.72 714.38,533.29 714.38,533.29 C711.44,520.72 688.71,491.29 688.71,491.29 C688.379501,488.816847 687.751625,486.39264 686.84,484.07 C685.23,479.79 709.3,471.24 709.3,471.24 C709.3,471.24 727.21,493.16 730.95,499.04 C734.69,504.92 747.53,515.89 747.53,515.89 C749.523222,515.685078 751.536753,515.948754 753.41,516.66 C753.52,516.66 753.61,516.72 753.72,516.75 C753.83,516.78 753.72,516.75 753.72,516.75 C759.72,518.84 765.72,523.62 765.72,523.62 C775.35,523.09 782.03,529.77 782.03,529.77 C782.03,529.77 793.03,528.17 794.86,530.04 C796.69,531.91 806.09,530.04 806.09,530.04 C806.09,530.04 815.45,510.25 821.6,516.04 C827.75,521.83 853.84,521.52 853.84,521.52 C857.32,516.9 865.78,513.59 871.07,511.88 C875.600148,510.354815 880.492197,510.274446 885.07,511.65 C887.043294,512.212119 888.904186,513.112114 890.57,514.31 L906.4,529.81 C906.4,529.81 910.95,523.93 910.4,522.59 C909.85,521.25 915.75,520.19 915.75,520.19 C915.75,520.19 923.5,517.78 926.44,516.98 C929.38,516.18 932.08,519.36 932.32,519.64 C932.22,519.3 930.21,512.83 930.99,507.89 C931.77,502.95 927.78,498.26 927.78,498.26 C937.14,475.26 958.26,494.52 958.26,494.52 C958.26,494.52 960.67,507.09 958.53,511.9 C956.39,516.71 960.67,526.9 960.13,529.54 C959.59,532.18 961.2,536.76 961.2,541.84 C961.2,546.92 958.53,556.55 956.92,560.84 C955.31,565.13 942.43,574.69 942.43,574.69 C942.43,574.69 941.62,589.93 936.01,598.75 C930.4,607.57 933.87,637.75 933.87,637.75 C933.87,637.75 939.22,661.28 945.87,668.75 C952.52,676.22 962.48,719.06 962.48,719.06 Z" id="Path" fill="#656691" fill-rule="nonzero"></path>
                <path d="M819.44,543.14 C819.44,543.14 816.5,534.32 813.83,533.51 C811.167395,532.531241 808.574702,531.37188 806.07,530.04 L807.79,526.75 C807.79,526.75 817.84,529.5 819.44,532.44 C821.04,535.38 819.44,543.14 819.44,543.14 Z" id="Path" fill="#000000" fill-rule="nonzero" opacity="0.1"></path>
                <path d="M765.7,523.62 C765.17,526.3 741.37,528.7 741.37,528.7 L753.37,516.64 L753.37,516.64 L753.67,516.74 C753.67,516.74 753.67,516.74 753.67,516.74 C759.75,518.84 765.7,523.62 765.7,523.62 Z" id="Path" fill="#000000" fill-rule="nonzero" opacity="0.1"></path>
                <circle id="Oval" fill="#575988" fill-rule="nonzero" cx="696.85" cy="486.92" r="2.14"></circle>
                <circle id="Oval" fill="#575988" fill-rule="nonzero" cx="699.59" cy="491.2" r="2.14"></circle>
                <circle id="Oval" fill="#575988" fill-rule="nonzero" cx="702.27" cy="495.15" r="2.14"></circle>
                <circle id="Oval" fill="#575988" fill-rule="nonzero" cx="705.07" cy="499.42" r="2.14"></circle>
                <circle id="Oval" fill="#575988" fill-rule="nonzero" cx="957.09" cy="499.19" r="1.74"></circle>
                <circle id="Oval" fill="#575988" fill-rule="nonzero" cx="957.36" cy="503.13" r="1.74"></circle>
                <circle id="Oval" fill="#575988" fill-rule="nonzero" cx="957.6" cy="507.08" r="1.74"></circle>
                <path d="M819.569285,615.59 C819.33,615.28 879.57,691.39 926.38,647.41 C926.38,647.39 852.46,657.44 819.569285,615.59 Z" id="Path" fill="#000000" fill-rule="nonzero" opacity="0.1"></path>
                <path d="M784.95,655.16 C784.95,655.16 821.01,656.16 824.79,666.52 L824.79,677.31 C822.705445,678.476572 820.164555,678.476572 818.08,677.31 C814.44,675.31 792.64,664.31 784.95,669.6 L784.95,655.16 Z" id="Path" fill="#000000" fill-rule="nonzero" opacity="0.1"></path>
                <path d="M785.62,655.16 C785.62,655.16 820.11,656.1 823.72,665.99 L823.72,676.28 C821.725187,677.39481 819.294813,677.39481 817.3,676.28 C813.83,674.41 792.97,663.85 785.62,668.93 L785.62,655.16 Z" id="Path" fill="#656691" fill-rule="nonzero"></path>
                <path d="M804.64,576.85 C804.64,576.85 808.77,587.47 818.64,600.85 C824.742034,609.037071 832.135254,616.176982 840.53,621.99 C840.53,621.99 805.24,581.81 804.64,576.85 Z" id="Path" fill="#000000" fill-rule="nonzero" opacity="0.1"></path>
                <path d="M792.84,534.94 C792.84,534.94 798.84,560.94 814.36,569.74 L792.84,534.94 Z" id="Path" fill="#000000" fill-rule="nonzero" opacity="0.1"></path>
                <path d="M783.61,537.57 C783.46,537.09 778.27,558.11 803.61,569.74 C803.6,569.74 792.84,566.09 783.61,537.57 Z" id="Path" fill="#000000" fill-rule="nonzero" opacity="0.1"></path>
                <path d="M941.13,520.15 C940.73,520.15 953.63,528.36 957.13,532.150054 C957.13,532.18 948.71,519.61 941.13,520.15 Z" id="Path" fill="#000000" fill-rule="nonzero" opacity="0.1"></path>
                <path d="M859.5,502.2 C859.95,503.84 860.5,505.64 861.98,506.5 C862.915634,506.949728 863.941931,507.178935 864.98,507.17 C874.68,507.77 884.77,508.17 893.75,504.46 C895.421716,503.864873 896.922135,502.869171 898.12,501.56 C899.71,499.61 900.02,496.96 900.66,494.56 C901.92,489.81 904.6,485.56 906.54,481.05 C909.790499,473.404024 910.880075,465.012555 909.69,456.79 C909.440075,454.264115 908.608327,451.830482 907.26,449.68 C904.68,446.01 900,444.52 896.59,441.6 C893.18,438.68 891,434.21 887.03,432.01 C883.45,430.01 879.03,430.26 875.03,430.94 C867.096337,432.292902 859.493709,435.147281 852.63,439.35 C850.33,440.77 847.8,442.4 845.14,441.9 C842.82,441.46 841.14,439.51 839.64,437.68 C837.740218,442.040542 836.920362,446.79502 837.25,451.54 C837.351948,452.235241 837.328238,452.943138 837.18,453.63 C836.851082,454.461477 836.346205,455.21197 835.7,455.83 C833.31,458.61 831.81,463.01 834.18,465.83 C835.18,467.05 836.79,467.72 837.79,468.96 C839.59,471.2 838.98,474.41 838.94,477.27 C838.833045,478.263166 839.081017,479.262138 839.64,480.09 C840.54,481.18 842.18,481.27 843.57,481.03 C844.96,480.79 846.38,480.32 847.75,480.63 C849.243678,481.127451 850.526056,482.113895 851.39,483.43 C855.87,489.08 857.62,495.39 859.5,502.2 Z" id="Path" fill="#2D293D" fill-rule="nonzero"></path>
                <g id="Group" opacity="0.1" transform="translate(832.000000, 437.000000)" fill="#000000" fill-rule="nonzero">
                    <path d="M67.19,62.11 C65.9921347,63.4191713 64.4917159,64.4148726 62.82,65.01 C53.82,68.75 43.75,68.32 34.05,67.71 C33.0121963,67.7271377 31.9847896,67.5011082 31.05,67.05 C29.58,66.18 29.05,64.39 28.57,62.75 C26.69,55.89 24.94,49.63 20.46,43.93 C19.5960561,42.6138952 18.3136779,41.6274505 16.82,41.13 C15.45,40.82 14.03,41.29 12.64,41.53 C11.25,41.77 9.64,41.68 8.71,40.59 C8.15101659,39.7621383 7.90304466,38.7631656 8.01,37.77 C8.01,34.91 8.65,31.69 6.86,29.46 C5.86,28.21 4.28,27.55 3.24,26.33 C1.76,24.56 1.8,22.17 2.63,19.94 C0.93,22.64 0.19,26.11 2.18,28.46 C3.18,29.69 4.79,30.35 5.79,31.6 C7.58,33.83 6.98,37.05 6.94,39.91 C6.83304466,40.9031656 7.08101659,41.9021383 7.64,42.73 C8.54,43.82 10.18,43.91 11.57,43.67 C12.96,43.43 14.38,42.96 15.75,43.27 C17.2436779,43.7674505 18.5260561,44.7538952 19.39,46.07 C23.87,51.77 25.62,58.07 27.5,64.89 C27.95,66.52 28.5,68.32 29.98,69.19 C30.9147896,69.6411082 31.9421963,69.8671377 32.98,69.85 C42.68,70.46 52.77,70.85 61.75,67.15 C63.4217159,66.5548726 64.9221347,65.5591713 66.12,64.25 C66.7263526,63.4766761 67.1933351,62.603622 67.5,61.67 C67.4,61.82 67.3,61.97 67.19,62.11 Z" id="Path"></path>
                    <path d="M5.28,15.75 C5.72288807,15.2896618 6.06364552,14.7410423 6.28,14.14 C6.42823832,13.4531385 6.45194781,12.745241 6.35,12.05 C6.08647674,8.15272813 6.59276959,4.2417008 7.84,0.54 L7.67,0.33 C5.76945767,4.69031421 4.94956945,9.44497979 5.28,14.19 C5.32994292,14.7088008 5.32994292,15.2311992 5.28,15.75 Z" id="Path"></path>
                </g>
                <path d="M853.82,521.48 C853.82,521.48 893.57,526.75 897.14,520.78" id="Path" fill="#000000" fill-rule="nonzero" opacity="0.1"></path>
                <path d="M931.13,505.04 C931.13,505.04 953.21,505.04 958.07,513.34" id="Path" fill="#000000" fill-rule="nonzero" opacity="0.1"></path>
            </g>
        </g>
    </g>
</svg>