<?xml version="1.0" encoding="UTF-8"?>
<svg width="842px" height="779px" viewBox="0 0 842 779" version="1.1" xmlns="http://www.w3.org/2000/svg" xmlns:xlink="http://www.w3.org/1999/xlink">
    <!-- Generator: Sketch 63.1 (92452) - https://sketch.com -->
    <title>undraw_file_searching_duff</title>
    <desc>Created with Sketch.</desc>
    <defs>
        <linearGradient x1="50%" y1="100%" x2="50%" y2="0%" id="linearGradient-1">
            <stop stop-color="#808080" stop-opacity="0.25" offset="0%"></stop>
            <stop stop-color="#808080" stop-opacity="0.12" offset="54%"></stop>
            <stop stop-color="#808080" stop-opacity="0.1" offset="100%"></stop>
        </linearGradient>
        <linearGradient x1="50%" y1="100%" x2="50%" y2="0%" id="linearGradient-2">
            <stop stop-color="#808080" stop-opacity="0.25" offset="0%"></stop>
            <stop stop-color="#808080" stop-opacity="0.12" offset="54%"></stop>
            <stop stop-color="#808080" stop-opacity="0.1" offset="100%"></stop>
        </linearGradient>
        <linearGradient x1="50%" y1="100%" x2="50%" y2="0%" id="linearGradient-3">
            <stop stop-color="#808080" stop-opacity="0.25" offset="0%"></stop>
            <stop stop-color="#808080" stop-opacity="0.12" offset="54%"></stop>
            <stop stop-color="#808080" stop-opacity="0.1" offset="100%"></stop>
        </linearGradient>
        <rect id="path-4" x="0.54" y="0.72" width="143.79" height="96.93"></rect>
        <rect id="path-6" x="0.54" y="0.42" width="143.79" height="96.93"></rect>
        <linearGradient x1="0%" y1="50%" x2="100%" y2="50%" id="linearGradient-8">
            <stop stop-color="#808080" stop-opacity="0.25" offset="0%"></stop>
            <stop stop-color="#808080" stop-opacity="0.12" offset="54%"></stop>
            <stop stop-color="#808080" stop-opacity="0.1" offset="100%"></stop>
        </linearGradient>
        <linearGradient x1="0.00629643622%" y1="50.0018066%" x2="100.006296%" y2="50.0018066%" id="linearGradient-9">
            <stop stop-color="#808080" stop-opacity="0.25" offset="0%"></stop>
            <stop stop-color="#808080" stop-opacity="0.12" offset="54%"></stop>
            <stop stop-color="#808080" stop-opacity="0.1" offset="100%"></stop>
        </linearGradient>
        <linearGradient x1="50.0002221%" y1="100.000449%" x2="50.0002221%" y2="0.00140337287%" id="linearGradient-10">
            <stop stop-color="#B3B3B3" stop-opacity="0.25" offset="0%"></stop>
            <stop stop-color="#B3B3B3" stop-opacity="0.1" offset="54%"></stop>
            <stop stop-color="#B3B3B3" stop-opacity="0.05" offset="100%"></stop>
        </linearGradient>
        <linearGradient x1="49.9800916%" y1="99.9486916%" x2="49.9800916%" y2="0%" id="linearGradient-11">
            <stop stop-color="#000000" stop-opacity="0.12" offset="0%"></stop>
            <stop stop-color="#000000" stop-opacity="0.09" offset="55%"></stop>
            <stop stop-color="#000000" stop-opacity="0.02" offset="100%"></stop>
        </linearGradient>
        <linearGradient x1="49.9885247%" y1="100.005627%" x2="49.9885247%" y2="0.0076852476%" id="linearGradient-12">
            <stop stop-color="#000000" stop-opacity="0.12" offset="0%"></stop>
            <stop stop-color="#000000" stop-opacity="0.09" offset="55%"></stop>
            <stop stop-color="#000000" stop-opacity="0.02" offset="100%"></stop>
        </linearGradient>
    </defs>
    <g id="illustrations" stroke="none" stroke-width="1" fill="none" fill-rule="evenodd">
        <g id="Notes" transform="translate(-3138.000000, -546.000000)">
            <g id="undraw_file_searching_duff" transform="translate(3138.000000, 545.000000)">
                <g id="Group" opacity="0.5" transform="translate(154.000000, 131.000000)" fill="url(#linearGradient-1)" fill-rule="nonzero">
                    <rect id="Rectangle" x="0.15" y="0.21" width="448.44" height="602.6"></rect>
                </g>
                <rect id="Rectangle" fill="#F2F2F2" fill-rule="nonzero" x="159.99" y="139.39" width="434.43" height="581.58"></rect>
                <rect id="Rectangle" fill="#E0E0E0" fill-rule="nonzero" x="193.86" y="163.91" width="149.48" height="4.67"></rect>
                <rect id="Rectangle" fill="#4285F4" fill-rule="nonzero" opacity="0.7" x="193.86" y="184.93" width="149.48" height="4.67"></rect>
                <rect id="Rectangle" fill="#E0E0E0" fill-rule="nonzero" x="365.53" y="163.91" width="149.48" height="4.67"></rect>
                <rect id="Rectangle" fill="#E0E0E0" fill-rule="nonzero" x="388.88" y="297.05" width="149.48" height="4.67"></rect>
                <rect id="Rectangle" fill="#E0E0E0" fill-rule="nonzero" x="392.39" y="309.89" width="149.48" height="4.67"></rect>
                <rect id="Rectangle" fill="#E0E0E0" fill-rule="nonzero" x="399.4" y="322.74" width="149.48" height="4.67"></rect>
                <rect id="Rectangle" fill="#E0E0E0" fill-rule="nonzero" x="388.88" y="503.75" width="149.48" height="4.67"></rect>
                <rect id="Rectangle" fill="#E0E0E0" fill-rule="nonzero" x="392.39" y="516.6" width="149.48" height="4.67"></rect>
                <rect id="Rectangle" fill="#E0E0E0" fill-rule="nonzero" x="399.4" y="529.44" width="149.48" height="4.67"></rect>
                <g id="Group" opacity="0.5" transform="translate(195.000000, 249.000000)" fill="url(#linearGradient-2)" fill-rule="nonzero">
                    <rect id="Rectangle" x="0.03" y="0.16" width="158.82" height="161.16"></rect>
                </g>
                <rect id="Rectangle" fill="#F5F5F5" fill-rule="nonzero" x="196.03" y="252.67" width="156.32" height="154.15"></rect>
                <g id="Group" opacity="0.5" transform="translate(201.000000, 262.000000)" fill="url(#linearGradient-3)" fill-rule="nonzero">
                    <rect id="Rectangle" x="0.54" y="0.01" width="145.8" height="100.43"></rect>
                </g>
                <rect id="e1f34465-d008-41db-868b-e00503fb87b3" fill="#FFFFFF" fill-rule="nonzero" x="202.54" y="263.18" width="143.79" height="96.93"></rect>
                <g id="Clipped" transform="translate(381.000000, 323.000000)">
                    <mask id="mask-5" fill="white">
                        <use xlink:href="#path-4"></use>
                    </mask>
                    <g id="cf34cfb5-9399-4bae-9cea-d47bbef6cb3a"></g>
                    <g id="Group" mask="url(#mask-5)" fill="#4285F4" fill-rule="nonzero" opacity="0.4">
                        <g transform="translate(-196.000000, -57.000000)">
                            <polygon id="Path" points="5.35 90.61 41.56 34.55 56.74 59.07 89.44 25.21 117.47 59.07 141.99 8.86 205.05 109.29 0.68 102.28"></polygon>
                            <circle id="Oval" cx="33.38" cy="11.19" r="10.51"></circle>
                        </g>
                    </g>
                </g>
                <g id="Group" opacity="0.5" transform="translate(195.000000, 455.000000)" fill="url(#linearGradient-2)" fill-rule="nonzero">
                    <rect id="Rectangle" x="0.03" y="0.87" width="158.82" height="161.16"></rect>
                </g>
                <rect id="Rectangle" fill="#F5F5F5" fill-rule="nonzero" x="196.03" y="459.37" width="156.32" height="154.15"></rect>
                <g id="Group" opacity="0.5" transform="translate(201.000000, 468.000000)" fill="url(#linearGradient-3)" fill-rule="nonzero">
                    <rect id="Rectangle" x="0.54" y="0.72" width="145.8" height="100.43"></rect>
                </g>
                <rect id="c95ac4f6-be4d-44a3-92c2-5c8066e2b531" fill="#FFFFFF" fill-rule="nonzero" x="202.54" y="469.88" width="143.79" height="96.93"></rect>
                <g id="Clipped" transform="translate(381.000000, 530.000000)">
                    <mask id="mask-7" fill="white">
                        <use xlink:href="#path-6"></use>
                    </mask>
                    <g id="7439734d-5f7c-428f-88ce-e68b86a45c07"></g>
                    <g id="Group" mask="url(#mask-7)" fill="#BDBDBD" fill-rule="nonzero" opacity="0.4">
                        <g transform="translate(-196.000000, -57.000000)">
                            <polygon id="Path" points="5.35 90.31 41.56 34.25 56.74 58.78 89.44 24.91 117.47 58.78 141.99 8.56 205.05 108.99 0.68 101.99"></polygon>
                            <circle id="Oval" cx="33.38" cy="10.9" r="10.51"></circle>
                        </g>
                    </g>
                </g>
                <g id="Group" opacity="0.5" transform="translate(219.000000, 101.000000)" fill="url(#linearGradient-8)" fill-rule="nonzero">
                    <rect id="Rectangle" transform="translate(279.634150, 339.662384) rotate(-78.760000) translate(-279.634150, -339.662384) " x="-21.6658498" y="115.442384" width="602.6" height="448.44"></rect>
                </g>
                <rect id="Rectangle" fill="#FFFFFF" fill-rule="nonzero" transform="translate(497.943087, 438.146979) rotate(-78.760000) translate(-497.943087, -438.146979) " x="207.153087" y="220.931979" width="581.58" height="434.43"></rect>
                <rect id="Rectangle" fill="#E0E0E0" fill-rule="nonzero" transform="translate(518.062125, 175.415239) rotate(11.240000) translate(-518.062125, -175.415239) " x="363.907125" y="173.080239" width="308.31" height="4.67"></rect>
                <rect id="Rectangle" fill="#E0E0E0" fill-rule="nonzero" transform="translate(432.018675, 608.395836) rotate(11.240000) translate(-432.018675, -608.395836) " x="277.863675" y="606.060836" width="308.31" height="4.67"></rect>
                <rect id="Rectangle" fill="#E0E0E0" fill-rule="nonzero" transform="translate(392.410454, 627.901849) rotate(11.240000) translate(-392.410454, -627.901849) " x="273.290454" y="625.566849" width="238.24" height="4.67"></rect>
                <rect id="Rectangle" fill="#4285F4" fill-rule="nonzero" opacity="0.7" transform="translate(313.865853, 639.685976) rotate(11.240000) translate(-313.865853, -639.685976) " x="269.490853" y="637.350976" width="88.75" height="4.67"></rect>
                <rect id="Rectangle" fill="#4285F4" fill-rule="nonzero" opacity="0.7" transform="translate(437.216207, 186.740850) rotate(11.240000) translate(-437.216207, -186.740850) " x="360.141207" y="184.40585" width="154.15" height="4.67"></rect>
                <rect id="Rectangle" fill="#E0E0E0" fill-rule="nonzero" transform="translate(492.700315, 225.147259) rotate(11.240000) translate(-492.700315, -225.147259) " x="353.730315" y="222.812259" width="277.94" height="4.67"></rect>
                <rect id="Rectangle" fill="#3AD29F" fill-rule="nonzero" opacity="0.7" transform="translate(384.370836, 231.010244) rotate(11.240000) translate(-384.370836, -231.010244) " x="350.505836" y="228.675244" width="67.73" height="4.67"></rect>
                <rect id="Rectangle" fill="#E0E0E0" fill-rule="nonzero" transform="translate(497.123190, 280.802371) rotate(11.240000) translate(-497.123190, -280.802371) " x="342.96819" y="278.467371" width="308.31" height="4.67"></rect>
                <g id="Group" opacity="0.5" transform="translate(342.000000, 359.000000)" fill="url(#linearGradient-9)" fill-rule="nonzero">
                    <rect id="Rectangle" transform="translate(151.275294, 105.604965) rotate(-78.760000) translate(-151.275294, -105.604965) " x="71.865294" y="-32.7800347" width="158.82" height="276.77"></rect>
                </g>
                <rect id="Rectangle" fill="#FFFFFF" fill-rule="nonzero" transform="translate(493.437958, 464.033547) rotate(11.240000) translate(-493.437958, -464.033547) " x="356.802958" y="386.373547" width="273.27" height="155.32"></rect>
                <rect id="Rectangle" fill="#E0E0E0" fill-rule="nonzero" transform="translate(491.887578, 307.155584) rotate(11.240000) translate(-491.887578, -307.155584) " x="337.732578" y="304.820584" width="308.31" height="4.67"></rect>
                <rect id="Rectangle" fill="#4285F4" fill-rule="nonzero" transform="translate(404.103325, 446.280120) rotate(11.240000) translate(-404.103325, -446.280120) " x="387.168325" y="389.64012" width="33.87" height="113.28"></rect>
                <rect id="Rectangle" fill="#3AD29F" fill-rule="nonzero" transform="translate(460.021005, 476.446413) rotate(11.240000) translate(-460.021005, -476.446413) " x="443.086005" y="438.491413" width="33.87" height="75.91"></rect>
                <rect id="Rectangle" fill="#F55F44" fill-rule="nonzero" transform="translate(516.177456, 505.464499) rotate(11.240000) translate(-516.177456, -505.464499) " x="499.242456" y="485.029499" width="33.87" height="40.87"></rect>
                <rect id="Rectangle" fill="#FDD835" fill-rule="nonzero" transform="translate(579.836829, 496.686362) rotate(11.240000) translate(-579.836829, -496.686362) " x="562.901829" y="455.226362" width="33.87" height="82.92"></rect>
                <path d="M701.45,351.01 C672.341019,320.734291 632.247145,303.484988 590.248916,303.168744 C548.250686,302.852501 507.901601,319.496076 478.34,349.33 C419.34,408.81 418.34,505.66 476.05,566.4 C528.397277,621.498528 612.84788,630.81809 675.95,588.46 L788.64,705.67 C791.545327,708.690291 796.348721,708.784299 799.37,705.88 L827.45,678.88 C830.470291,675.974673 830.564299,671.171279 827.66,668.15 L715,550.95 C759.589178,489.84233 753.876178,405.542907 701.45,351.01 Z M666.35,539.46 C621.958165,582.136717 551.375401,580.747188 508.697622,536.356375 C466.019843,491.965561 467.407681,421.382764 511.797474,378.703922 C556.187266,336.02508 626.770095,337.41123 669.45,381.8 C689.946921,403.1176 701.135482,431.704753 700.554113,461.272064 C699.972744,490.839375 687.669072,518.96461 666.35,539.46 L666.35,539.46 Z" id="Shape" fill="url(#linearGradient-10)" fill-rule="nonzero"></path>
                <path d="M506.49,428.06 C493.95,428.06 493.93,447.55 506.49,447.55 C519.05,447.55 519.05,428.06 506.49,428.06 Z" id="Path" fill="url(#linearGradient-11)" fill-rule="nonzero"></path>
                <path d="M593.9,365.63 C560.15,364.87 529.44,381.8 513.11,407.36 C507.78,415.7 522.91,423.07 528.21,414.77 C541.73,393.61 567.42,380.17 595.21,380.87 C624.33,381.6 650.83,398.26 664.86,421.38 C670.18,430.15 684.13,422.18 678.86,413.46 C661.8,385.46 628.76,366.46 593.9,365.63 Z" id="Path" fill="url(#linearGradient-12)" fill-rule="nonzero"></path>
                <path d="M713.68,345.09 C684.571019,314.814291 644.477145,297.564988 602.478916,297.248744 C560.480686,296.932501 520.131601,313.576076 490.57,343.41 C431.57,402.89 430.57,499.74 488.28,560.48 C540.629881,615.575307 625.080229,624.890615 688.18,582.53 L800.86,699.75 C803.765327,702.770291 808.568721,702.864299 811.59,699.96 L839.67,672.96 C842.690291,670.054673 842.784299,665.251279 839.88,662.23 L727.19,545.02 C771.784215,483.92374 766.088277,399.631448 713.68,345.09 L713.68,345.09 Z M678.58,533.46 C634.188165,576.136717 563.605401,574.747188 520.927622,530.356375 C478.249843,485.965561 479.637681,415.382764 524.027474,372.703922 C568.417266,330.02508 639.000095,331.41123 681.68,375.8 C702.176921,397.1176 713.365482,425.704753 712.784113,455.272064 C712.202744,484.839375 699.899072,512.96461 678.58,533.46 Z" id="Shape" fill="#4285F4" fill-rule="nonzero"></path>
                <path d="M518.72,422.13 C506.18,422.13 506.16,441.62 518.72,441.62 C531.28,441.62 531.28,422.13 518.72,422.13 Z" id="Path" fill="#4285F4" fill-rule="nonzero"></path>
                <path d="M606.13,359.71 C572.38,358.95 541.67,375.88 525.34,401.44 C520.01,409.78 535.14,417.15 540.44,408.85 C553.96,387.69 579.65,374.25 607.44,374.95 C636.56,375.68 663.06,392.34 677.09,415.46 C682.41,424.23 696.36,416.26 691.09,407.54 C674,379.46 641,360.46 606.13,359.71 Z" id="Path" fill="#4285F4" fill-rule="nonzero"></path>
                <rect id="Rectangle" fill="#47E6B1" fill-rule="nonzero" x="121.45" y="664.91" width="3.5" height="19.85"></rect>
                <rect id="Rectangle" fill="#47E6B1" fill-rule="nonzero" transform="translate(123.205000, 674.830000) rotate(90.000000) translate(-123.205000, -674.830000) " x="121.455" y="664.905" width="3.5" height="19.85"></rect>
                <path d="M571.87,8.95 C569.869531,8.07940089 568.841069,5.84604568 569.48,3.76 C569.528927,3.60413464 569.559139,3.44300263 569.57,3.28 L569.57,3.28 C569.635103,2.3281524 569.065139,1.44725082 568.170209,1.11656607 C567.275279,0.785881322 566.269466,1.0845191 565.7,1.85 L565.7,1.85 C565.603783,1.98008864 565.523228,2.12106033 565.46,2.27 C564.589401,4.27046925 562.356046,5.29893147 560.27,4.66 C560.114135,4.61107342 559.953003,4.58086117 559.79,4.57 L559.79,4.57 C558.830461,4.50071815 557.941688,5.07730156 557.613853,5.98175637 C557.286017,6.88621118 557.598923,7.89836469 558.38,8.46 L558.38,8.46 C558.510089,8.55621703 558.65106,8.63677228 558.8,8.7 C560.800469,9.57059911 561.828931,11.8039543 561.19,13.89 C561.141073,14.0458654 561.110861,14.2069974 561.1,14.37 L561.1,14.37 C561.023171,15.3354891 561.601384,16.2331586 562.512225,16.5624626 C563.423066,16.8917665 564.441646,16.5713995 565,15.78 L565,15.78 C565.096217,15.6499114 565.176772,15.5089397 565.24,15.36 C566.110599,13.3595308 568.343954,12.3310685 570.43,12.97 C570.585865,13.0189266 570.746997,13.0491388 570.91,13.06 L570.91,13.06 C571.861848,13.1251027 572.742749,12.5551395 573.073434,11.6602094 C573.404119,10.7652794 573.105481,9.75946572 572.34,9.19 L572.34,9.19 C572.194271,9.09018043 572.036308,9.0095187 571.87,8.95 L571.87,8.95 Z" id="Path" fill="#4D8AF0" fill-rule="nonzero"></path>
                <path d="M137.44,156.1 C135.439531,155.229401 134.411069,152.996046 135.05,150.91 C135.098927,150.754135 135.129139,150.593003 135.14,150.43 L135.14,150.43 C135.205103,149.478152 134.635139,148.597251 133.740209,148.266566 C132.845279,147.935881 131.839466,148.234519 131.27,149 L131.27,149 C131.173783,149.130089 131.093228,149.27106 131.03,149.42 C130.159401,151.420469 127.926046,152.448931 125.84,151.81 C125.684135,151.761073 125.523003,151.730861 125.36,151.72 L125.36,151.72 C124.408152,151.654897 123.527251,152.224861 123.196566,153.119791 C122.865881,154.014721 123.164519,155.020534 123.93,155.59 L123.93,155.59 C124.060089,155.686217 124.20106,155.766772 124.35,155.83 C126.350469,156.700599 127.378931,158.933954 126.74,161.02 C126.691073,161.175865 126.660861,161.336997 126.65,161.5 L126.65,161.5 C126.584897,162.451848 127.154861,163.332749 128.049791,163.663434 C128.944721,163.994119 129.950534,163.695481 130.52,162.93 L130.52,162.93 C130.616217,162.799911 130.696772,162.65894 130.76,162.51 C131.630599,160.509531 133.863954,159.481069 135.95,160.12 C136.105865,160.168927 136.266997,160.199139 136.43,160.21 L136.43,160.21 C137.381848,160.275103 138.262749,159.705139 138.593434,158.810209 C138.924119,157.915279 138.625481,156.909466 137.86,156.34 L137.86,156.34 C137.729911,156.243783 137.58894,156.163228 137.44,156.1 L137.44,156.1 Z" id="Path" fill="#FDD835" fill-rule="nonzero"></path>
                <path d="M755.22,763.36 C753.219531,762.489401 752.191069,760.256046 752.83,758.17 C752.878927,758.014135 752.909139,757.853003 752.92,757.69 L752.92,757.69 C752.985103,756.738152 752.415139,755.857251 751.520209,755.526566 C750.625279,755.195881 749.619466,755.494519 749.05,756.26 L749.05,756.26 C748.953783,756.390089 748.873228,756.53106 748.81,756.68 C747.939401,758.680469 745.706046,759.708931 743.62,759.07 C743.464135,759.021073 743.303003,758.990861 743.14,758.98 L743.14,758.98 C742.188152,758.914897 741.307251,759.484861 740.976566,760.379791 C740.645881,761.274721 740.944519,762.280534 741.71,762.85 L741.71,762.85 C741.840089,762.946217 741.98106,763.026772 742.13,763.09 C744.130469,763.960599 745.158931,766.193954 744.52,768.28 C744.471073,768.435865 744.440861,768.596997 744.43,768.76 L744.43,768.76 C744.364897,769.711848 744.934861,770.592749 745.829791,770.923434 C746.724721,771.254119 747.730534,770.955481 748.3,770.19 L748.3,770.19 C748.396217,770.059911 748.476772,769.91894 748.54,769.77 C749.410599,767.769531 751.643954,766.741069 753.73,767.38 C753.885865,767.428927 754.046997,767.459139 754.21,767.47 L754.21,767.47 C755.161848,767.535103 756.042749,766.965139 756.373434,766.070209 C756.704119,765.175279 756.405481,764.169466 755.64,763.6 L755.64,763.6 C755.509911,763.503783 755.36894,763.423228 755.22,763.36 Z" id="Path" fill="#FDD835" fill-rule="nonzero"></path>
                <circle id="Oval" fill="#F55F44" fill-rule="nonzero" cx="321.15" cy="76.33" r="7.01"></circle>
                <circle id="Oval" fill="#F55F44" fill-rule="nonzero" cx="823.31" cy="163.91" r="7.01"></circle>
                <circle id="Oval" fill="#4D8AF0" fill-rule="nonzero" cx="783.61" cy="372.95" r="7.01"></circle>
                <circle id="Oval" fill="#47E6B1" fill-rule="nonzero" opacity="0.5" cx="7.01" cy="29.61" r="7.01"></circle>
            </g>
        </g>
    </g>
</svg>