<?xml version="1.0" encoding="UTF-8"?>
<svg width="968px" height="732px" viewBox="0 0 968 732" version="1.1" xmlns="http://www.w3.org/2000/svg" xmlns:xlink="http://www.w3.org/1999/xlink">
    <!-- Generator: Sketch 63.1 (92452) - https://sketch.com -->
    <title>undraw_done_checking_ty9a</title>
    <desc>Created with Sketch.</desc>
    <g id="illustrations" stroke="none" stroke-width="1" fill="none" fill-rule="evenodd">
        <g id="Notes" transform="translate(-1518.000000, -464.000000)" fill-rule="nonzero">
            <g id="undraw_done_checking_ty9a" transform="translate(1518.000000, 463.000000)">
                <rect id="Rectangle" fill="#F2F2F2" transform="translate(246.500054, 553.101349) rotate(33.995190) translate(-246.500054, -553.101349) " x="143.000054" y="475.101349" width="207" height="156"></rect>
                <path d="M110.88867,657.56032 L109.11133,656.64232 C132.19333,612.01832 119.85058,554.06712 105.43261,513.31032 C95.6423865,485.915743 83.1551364,459.561422 68.15478,434.63552 L69.84521,433.56716 C84.9234411,458.619767 97.4757906,485.108213 107.31738,512.64236 C121.86816,553.77224 134.29785,612.30154 110.88867,657.56032 Z" id="Path" fill="#2F2E41"></path>
                <rect id="Rectangle" fill="#2F2E41" transform="translate(122.499395, 469.604873) rotate(-79.644778) translate(-122.499395, -469.604873) " x="86.4093129" y="468.605196" width="72.1801649" height="1.99935543"></rect>
                <rect id="Rectangle" fill="#2F2E41" transform="translate(74.499995, 531.101347) rotate(-42.939680) translate(-74.499995, -531.101347) " x="73.4996351" y="481.925642" width="2.00072" height="98.35141"></rect>
                <rect id="Rectangle" fill="#2F2E41" transform="translate(145.999999, 597.601352) rotate(-54.137150) translate(-145.999999, -597.601352) " x="116.995689" y="596.601197" width="58.00862" height="2.00031"></rect>
                <circle id="Oval" fill="#3F3D56" cx="134" cy="405.10134" r="10"></circle>
                <circle id="Oval" fill="#3F3D56" cx="25" cy="482.10134" r="10"></circle>
                <circle id="Oval" fill="#3F3D56" cx="69" cy="492.10134" r="10"></circle>
                <circle id="Oval" fill="#3F3D56" cx="49" cy="531.10134" r="10"></circle>
                <circle id="Oval" fill="#3F3D56" cx="174" cy="556.10134" r="10"></circle>
                <circle id="Oval" fill="#3F3D56" cx="141" cy="567.10134" r="10"></circle>
                <circle id="Oval" fill="#3F3D56" cx="164" cy="599.10134" r="10"></circle>
                <circle id="Oval" fill="#3F3D56" cx="59" cy="417.10134" r="10"></circle>
                <path d="M512,668.10134 C533.2135,690.84255 510.17712,770.35012 256,711.10134 C118.30646,679.0049 -5.68434189e-14,679.69934 -5.68434189e-14,668.10134 C-5.68434189e-14,656.50334 114.6151,669.10134 256,669.10134 C397.3849,669.10134 504.08886,659.62047 512,668.10134 Z" id="Path" fill="#3F3D56"></path>
                <path d="M512,668.10134 C533.2135,690.84255 510.17712,770.35012 256,711.10134 C118.30646,679.0049 -5.68434189e-14,679.69934 -5.68434189e-14,668.10134 C-5.68434189e-14,656.50334 114.6151,669.10134 256,669.10134 C397.3849,669.10134 504.08886,659.62047 512,668.10134 Z" id="Path" fill="#000000" opacity="0.1"></path>
                <path d="M512,668.10134 C533.2135,690.84255 510.17712,748.35012 256,689.10134 C118.30646,657.0049 -5.68434189e-14,679.69934 -5.68434189e-14,668.10134 C-5.68434189e-14,656.50334 114.6151,647.10134 256,647.10134 C397.3849,647.10134 504.08886,659.62047 512,668.10134 Z" id="Path" fill="#3F3D56"></path>
                <path d="M245.77111,160.10134 L257.274,160.10134 C264.597181,160.10134 271.620426,163.010444 276.798701,168.188711 C281.976975,173.366978 284.8861,180.390219 284.8861,187.7134 L284.8861,226.8284 L218.1591,226.8284 L218.1591,187.7134 C218.1591,172.46368 230.52144,160.10134 245.77116,160.10134 L245.77111,160.10134 Z" id="Path" fill="#2F2E41"></path>
                <path d="M239.32002,213.9294 C239.32002,213.9294 242.11772,236.31099 235.8229,237.70984 C229.52808,239.10869 226.73038,247.50178 226.73038,247.50178 L247.71307,260.79085 L269.39524,256.5943 L267.29696,240.50753 C267.29696,240.50753 261.70157,224.42077 264.49926,213.9294 C267.29695,203.43803 239.32002,213.9294 239.32002,213.9294 Z" id="Path" fill="#A0616A"></path>
                <path d="M239.32002,213.9294 C239.32002,213.9294 242.11772,236.31099 235.8229,237.70984 C229.52808,239.10869 226.73038,247.50178 226.73038,247.50178 L247.71307,260.79085 L269.39524,256.5943 L267.29696,240.50753 C267.29696,240.50753 261.70157,224.42077 264.49926,213.9294 C267.29695,203.43803 239.32002,213.9294 239.32002,213.9294 Z" id="Path" fill="#000000" opacity="0.1"></path>
                <path d="M211.34307,473.41593 L216.93847,509.78601 C216.93847,509.78601 215.53962,546.85551 225.33157,579.72847 L235.12347,612.60147 L244.91541,601.41068 L247.71307,556.64747 C247.71307,556.64747 248.4125,540.5607 245.6148,527.97106 L247.71307,469.21939 L211.34307,473.41593 Z" id="Path" fill="#A0616A"></path>
                <path d="M263.10045,467.12111 L267.99645,530.76874 C267.99645,530.76874 265.89817,598.61293 265.19875,600.71121 C264.49933,602.80949 279.18724,605.60721 279.18724,605.60721 C279.18724,605.60721 301.56883,552.45094 294.57458,510.48546 C294.57458,510.48546 290.37803,474.81481 295.97343,465.72229 C301.56883,456.62977 263.10045,467.12111 263.10045,467.12111 Z" id="Path" fill="#A0616A"></path>
                <circle id="Oval" fill="#A0616A" cx="251.21024" cy="200.64033" r="24.47986"></circle>
                <path d="M231.62635,243.30523 C231.62635,243.30523 234.42405,253.7966 247.71311,253.09718 C261.00217,252.39776 267.297,240.50753 267.297,240.50753 C267.297,240.50753 283.38377,248.90063 291.07744,248.2012 L288.97917,282.47301 C288.97917,282.47301 275.6901,318.84309 278.4878,327.23618 C281.2855,335.62927 337.93889,423.75678 330.94464,458.02859 C330.94464,458.02859 337.93889,467.82053 311.36075,469.9188 C284.78261,472.01707 285.48204,467.12111 263.79988,476.91305 C242.11772,486.70499 212.04246,481.1096 205.04821,479.71075 C198.05396,478.3119 173.57411,474.11535 173.57411,474.11535 C173.57411,474.11535 179.1695,370.60047 211.34307,335.62928 L210.64365,272.68107 L207.84595,248.90063 C207.84595,248.90063 230.41338,237.70984 231.01988,240.50753 L231.62635,243.30523 Z" id="Path" fill="#2F2E41"></path>
                <path d="M335.14119,290.16668 C335.14119,290.16668 370.81184,312.54827 356.82335,321.64079 C342.83486,330.73331 292.8925,353.64731 292.8925,353.64731 C292.8925,353.64731 254.70736,335.62931 264.4993,328.63503 C274.29124,321.64075 291.07744,341.22468 291.07744,341.22468 L334.44176,315.34597 L323.25097,302.75632 L335.14119,290.16668 Z" id="Path" fill="#A0616A"></path>
                <path d="M189.66087,309.05115 L189.66087,411.16715 C189.66087,411.16715 186.16375,450.33493 199.45282,447.53723 C212.74189,444.73953 202.25051,409.7683 202.25051,409.7683 L206.44707,349.61777 L206.44707,316.04539 L189.66087,309.05115 Z" id="Path" fill="#A0616A"></path>
                <path d="M247.01369,584.62447 C247.01369,584.62447 240.71887,597.91354 227.4298,590.21987 C227.4298,590.21987 230.92692,602.11008 230.92692,604.90778 C230.92692,607.70548 234.42405,622.3934 235.82292,623.79225 C237.22179,625.1911 235.82292,655.96578 242.81716,657.36463 C249.8114,658.76348 256.10623,641.27786 256.10623,634.98304 C256.10623,628.68822 254.00795,608.40491 254.00795,608.40491 C254.00795,608.40491 255.4068,595.11584 247.71313,590.91929 L247.01369,584.62447 Z" id="Path" fill="#2F2E41"></path>
                <path d="M283.38377,600.01178 L263.79988,597.21408 L259.60333,614.00027 C259.60333,614.00027 248.41254,644.07553 247.71307,648.97147 C247.0136,653.86741 234.42401,674.15076 245.6148,674.15076 C256.80559,674.15076 267.99639,674.85018 270.09466,668.55536 C272.19293,662.26054 276.38948,640.57836 279.88661,632.88471 C283.38377,625.19106 278.48776,617.49737 278.48776,617.49737 L283.38377,600.01178 Z" id="Path" fill="#2F2E41"></path>
                <path d="M284.78262,250.9989 L291.07744,248.2012 C291.07744,248.2012 297.37226,248.2012 307.1642,259.392 C316.95614,270.5828 342.83486,292.96438 342.83486,292.96438 C342.83486,292.96438 325.34924,310.44999 321.1527,309.05115 C316.95616,307.65231 284.78262,276.87761 284.78262,276.87761 L284.78262,250.9989 Z" id="Path" fill="#2F2E41"></path>
                <path d="M211.34307,248.90063 L207.84595,248.90063 C207.84595,248.90063 193.15803,250.29948 191.05976,268.48452 C188.96149,286.66956 185.46436,308.35172 184.06551,310.44999 C182.66666,312.54826 202.25051,321.64079 205.74768,321.64079 C209.24485,321.64079 214.8402,267.08567 214.8402,267.08567 L211.34307,248.90063 Z" id="Path" fill="#2F2E41"></path>
                <polygon id="Path" fill="#2F2E41" points="269.403 189.506 235.713 189.506 228.086 171.976 275.124 171.976"></polygon>
                <ellipse id="Oval" fill="#A0616A" transform="translate(226.537098, 197.988700) rotate(-16.160120) translate(-226.537098, -197.988700) " cx="226.537098" cy="197.9887" rx="1.69645" ry="4.52387"></ellipse>
                <ellipse id="Oval" fill="#A0616A" transform="translate(275.243184, 199.387613) rotate(-73.839880) translate(-275.243184, -199.387613) " cx="275.243184" cy="199.387613" rx="4.52387" ry="1.69645"></ellipse>
                <rect id="Rectangle" fill="#F2F2F2" transform="translate(712.997744, 219.096208) rotate(28.948478) translate(-712.997744, -219.096208) " x="491.999085" y="92.0969782" width="441.997318" height="253.998459"></rect>
                <rect id="Rectangle" fill="#4285F4" x="448.87964" y="182.56251" width="147" height="193"></rect>
                <rect id="Rectangle" fill="#3F3D56" x="489.37964" y="213.06251" width="66" height="66"></rect>
                <rect id="Rectangle" fill="#3F3D56" x="464.37964" y="293.06251" width="116" height="8"></rect>
                <rect id="Rectangle" fill="#3F3D56" x="464.37964" y="315.06251" width="116" height="8"></rect>
                <rect id="Rectangle" fill="#3F3D56" x="464.37964" y="337.06251" width="116" height="8"></rect>
                <rect id="Rectangle" fill="#4285F4" x="760.87964" y="351.56251" width="147" height="193"></rect>
                <rect id="Rectangle" fill="#3F3D56" x="782.37964" y="377.06251" width="104" height="12"></rect>
                <rect id="Rectangle" fill="#3F3D56" x="782.37964" y="403.06251" width="104" height="12"></rect>
                <rect id="Rectangle" fill="#3F3D56" x="782.37964" y="429.06251" width="104" height="12"></rect>
                <rect id="Rectangle" fill="#3F3D56" x="782.37964" y="455.06251" width="104" height="12"></rect>
                <rect id="Rectangle" fill="#3F3D56" x="782.37964" y="481.06251" width="104" height="12"></rect>
                <rect id="Rectangle" fill="#3F3D56" x="782.37964" y="507.06251" width="104" height="12"></rect>
                <rect id="Rectangle" fill="#4285F4" x="717.87964" y="26.56251" width="147" height="193"></rect>
                <rect id="Rectangle" fill="#3F3D56" x="739.37964" y="91.06251" width="104" height="12"></rect>
                <rect id="Rectangle" fill="#3F3D56" x="739.37964" y="117.06251" width="104" height="12"></rect>
                <rect id="Rectangle" fill="#3F3D56" x="739.37964" y="143.06251" width="104" height="12"></rect>
                <ellipse id="Oval" fill="#FFFFFF" cx="862.03454" cy="26.36096" rx="17.75167" ry="17.78395"></ellipse>
                <path d="M862.03454,5.54623 C850.317593,5.54623 840.81913,15.0446926 840.81913,26.76164 C840.81913,38.4785874 850.317593,47.97705 862.03454,47.97705 C873.751487,47.97705 883.24995,38.4785874 883.24995,26.76164 C883.215697,15.0589102 873.73727,5.58048337 862.03454,5.54623 L862.03454,5.54623 Z M857.67926,38.07312 L846.80636,27.20022 L849.85607,24.15047 L857.68945,31.98385 L874.22319,15.45011 L877.2729,18.49983 L857.67925,38.07312 L857.67926,38.07312 Z" id="Shape" fill="#57B894"></path>
                <ellipse id="Oval" fill="#FFFFFF" cx="908.03454" cy="347.36096" rx="17.75167" ry="17.78395"></ellipse>
                <path d="M908.03454,326.54623 C896.317593,326.54623 886.81913,336.044693 886.81913,347.76164 C886.81913,359.478587 896.317593,368.97705 908.03454,368.97705 C919.751487,368.97705 929.24995,359.478587 929.24995,347.76164 C929.215697,336.05891 919.73727,326.580483 908.03454,326.54623 L908.03454,326.54623 Z M903.67926,359.07312 L892.80636,348.20022 L895.85608,345.15051 L903.68946,352.98389 L920.2232,336.45015 L923.27291,339.49987 L903.67926,359.07312 L903.67926,359.07312 Z" id="Shape" fill="#57B894"></path>
                <ellipse id="Oval" fill="#FFFFFF" cx="596.03454" cy="180.36096" rx="17.75167" ry="17.78395"></ellipse>
                <path d="M596.03454,159.54623 C584.317593,159.54623 574.81913,169.044693 574.81913,180.76164 C574.81913,192.478587 584.317593,201.97705 596.03454,201.97705 C607.751487,201.97705 617.24995,192.478587 617.24995,180.76164 C617.215697,169.05891 607.73727,159.580483 596.03454,159.54623 L596.03454,159.54623 Z M591.67926,192.07312 L580.80636,181.20022 L583.85607,178.15047 L591.68945,185.98385 L608.22319,169.45011 L611.2729,172.49983 L591.67925,192.07312 L591.67926,192.07312 Z" id="Shape" fill="#57B894"></path>
            </g>
        </g>
    </g>
</svg>