<?xml version="1.0" encoding="UTF-8"?>
<svg width="1420px" height="1123px" viewBox="0 0 1420 1123" version="1.1" xmlns="http://www.w3.org/2000/svg" xmlns:xlink="http://www.w3.org/1999/xlink">
    <!-- Generator: Sketch 63.1 (92452) - https://sketch.com -->
    <title>undraw_upload_87y9</title>
    <desc>Created with Sketch.</desc>
    <defs>
        <linearGradient x1="50.0293705%" y1="99.988739%" x2="50.0293705%" y2="-0.000174493934%" id="linearGradient-1">
            <stop stop-color="#808080" stop-opacity="0.25" offset="0%"></stop>
            <stop stop-color="#808080" stop-opacity="0.12" offset="54%"></stop>
            <stop stop-color="#808080" stop-opacity="0.1" offset="100%"></stop>
        </linearGradient>
        <linearGradient x1="50%" y1="100%" x2="50%" y2="0%" id="linearGradient-2">
            <stop stop-color="#808080" stop-opacity="0.25" offset="0%"></stop>
            <stop stop-color="#808080" stop-opacity="0.12" offset="54%"></stop>
            <stop stop-color="#808080" stop-opacity="0.1" offset="100%"></stop>
        </linearGradient>
        <linearGradient x1="4.32548939e-14%" y1="50%" x2="100%" y2="50%" id="linearGradient-3">
            <stop stop-color="#808080" stop-opacity="0.25" offset="0%"></stop>
            <stop stop-color="#808080" stop-opacity="0.12" offset="54%"></stop>
            <stop stop-color="#808080" stop-opacity="0.1" offset="100%"></stop>
        </linearGradient>
        <linearGradient x1="0.00381898033%" y1="50%" x2="100.003819%" y2="50%" id="linearGradient-4">
            <stop stop-color="#808080" stop-opacity="0.25" offset="0%"></stop>
            <stop stop-color="#808080" stop-opacity="0.12" offset="54%"></stop>
            <stop stop-color="#808080" stop-opacity="0.1" offset="100%"></stop>
        </linearGradient>
        <linearGradient x1="4.34167797e-14%" y1="49.987556%" x2="100%" y2="49.987556%" id="linearGradient-5">
            <stop stop-color="#808080" stop-opacity="0.25" offset="0%"></stop>
            <stop stop-color="#808080" stop-opacity="0.12" offset="54%"></stop>
            <stop stop-color="#808080" stop-opacity="0.1" offset="100%"></stop>
        </linearGradient>
        <linearGradient x1="50%" y1="100%" x2="50%" y2="0%" id="linearGradient-6">
            <stop stop-color="#808080" stop-opacity="0.25" offset="0%"></stop>
            <stop stop-color="#808080" stop-opacity="0.12" offset="54%"></stop>
            <stop stop-color="#808080" stop-opacity="0.1" offset="100%"></stop>
        </linearGradient>
        <linearGradient x1="0%" y1="50.0032742%" x2="100%" y2="50.0032742%" id="linearGradient-7">
            <stop stop-color="#808080" stop-opacity="0.25" offset="0%"></stop>
            <stop stop-color="#808080" stop-opacity="0.12" offset="54%"></stop>
            <stop stop-color="#808080" stop-opacity="0.1" offset="100%"></stop>
        </linearGradient>
        <linearGradient x1="49.9820152%" y1="99.9961634%" x2="49.9820152%" y2="0.0118747299%" id="linearGradient-8">
            <stop stop-color="#808080" stop-opacity="0.25" offset="0%"></stop>
            <stop stop-color="#808080" stop-opacity="0.12" offset="54%"></stop>
            <stop stop-color="#808080" stop-opacity="0.1" offset="100%"></stop>
        </linearGradient>
    </defs>
    <g id="illustrations" stroke="none" stroke-width="1" fill="none" fill-rule="evenodd">
        <g id="Drive" transform="translate(-254.000000, -909.000000)">
            <g id="undraw_upload_87y9" transform="translate(254.000000, 909.000000)">
                <path d="M1399.09204,662.479352 C1357.80167,587.146889 1350.62572,498.31035 1379.42449,416.452454 C1398.08274,363.415542 1400.99982,281.488512 1385.60301,227.122701 C1336.12343,52.460771 1107.29276,-51.60434 886.651283,26.1477953 C684.351413,97.4359491 634.820381,391.556715 479.486727,359.582474 C114.142922,284.380596 -17.4463928,537.075036 1.82535037,742.781745 C14.2734162,875.656319 129.116224,1040.002 374.432176,1022.74551 C446.658664,1017.6642 517.59087,1034.8938 578.715029,1069.19553 C683.10067,1127.77465 849.01419,1141.50917 1021.37537,1095.53539 C1280.63158,1026.3827 1456.24628,848.35243 1413.626,697.894905 C1410.11917,685.504646 1405.23889,673.6905 1399.09204,662.479352" id="Fill-3" fill="#7191F8" opacity="0.676106771"></path>
                <path d="M694.34,221.33 C657.17,206.22 617.89,193.57 577.79,195.18 C518.79,197.5 462.28,232.96 434.52,285.03 C411,329.14 408.1,380.85 397.97,429.8 C385.49,490.12 361.59,547.44 336.05,603.5 C322.33,633.57 307.86,664.37 305.61,697.38 C302.48,743.2 324.39,788.87 358.74,819.38 C393.09,849.89 438.74,865.94 484.51,869.45 C508.88,871.32 534.34,869.59 555.99,858.25 C578.89,846.25 595.58,824.56 618.57,812.74 C639.88,801.74 664.8,800.24 688.72,801.67 C720.050723,803.544713 750.92359,810.104229 780.31,821.13 C813.74,833.69 844.83,851.87 878.19,864.6 C911.55,877.33 948.82,884.44 982.92,873.81 C1014.92,863.81 1040.26,839.61 1063.09,815.06 C1100.56185,774.764323 1134.7383,731.525435 1165.29,685.76 C1185.88,654.92 1205.04,622.38 1214.15,586.43 C1231.55,517.71 1207.6,440.17 1154.46,393.23 C1110.46,354.35 1051.37,337.47 993.54,327.23 C940.81,317.89 879.84,317.31 831.3,292.97 C785,269.72 742.88,241.07 694.34,221.33 Z" id="Path" fill="#6C63FF" fill-rule="nonzero" opacity="0.1"></path>
                <path d="M1084.19,285.27 C1069.91,285.84 1069.19,322.71 1070.08,324.32 C1070.97,325.93 1066.84,342.57 1066.84,342.57 C1066.84,342.57 1060.36,367.8 1061.11,372.49 C1061.86,377.18 1057.62,380.25 1057.62,380.25 C1051.28,382.75 1043.33,390.81 1041.22,393.02 L1040.69,393.59 C1040.69,393.59 1034.55,397.59 1033.47,399.17 C1032.39,400.75 1029.47,399.49 1029.47,399.49 C1029.47,399.49 1021.17,398.69 1020.09,399.01 C1019.35,399.23 1018.19,397.87 1017.53,397.01 C1017.22,396.6 1017.02,396.29 1017.02,396.29 L1016.77,388.85 C1016.45746,388.611542 1016.12256,388.403906 1015.77,388.23 C1015.94,387.39 1016.15,386.52 1016.41,385.63 C1020.14103,383.809955 1023.28937,380.983723 1025.5,377.47 C1025.74,377.09 1025.96,376.7 1026.17,376.31 C1026.72274,376.693605 1027.38839,376.880268 1028.06,376.84 C1028.35546,376.848107 1028.65084,376.821254 1028.94,376.76 C1029.87207,376.50827 1030.7431,376.06935 1031.5,375.47 C1033.56432,374.077181 1035.20996,372.148044 1036.26,369.89 C1036.44422,369.458989 1036.59467,369.014318 1036.71,368.56 C1036.56,368.81 1036.4,369.06 1036.24,369.3 C1037.03316,367.164927 1036.83906,364.788096 1035.71,362.81 C1034.93,361.55 1033.71,360.53 1033.21,359.13 C1032.37,356.72 1033.96,354.23 1034.94,351.87 C1035.88789,349.722924 1036.19689,347.348151 1035.83,345.03 C1035.43377,342.683099 1034.09754,340.599301 1032.13,339.26 C1028.2,336.71 1022.87,338.11 1018.32,336.88 C1016.69489,336.352607 1015.10783,335.714445 1013.57,334.97 C1011.23336,333.961824 1008.7964,333.204256 1006.3,332.71 C1003.83,332.22 1000.84,332.17 999.3,334.1 C998.870361,334.712691 998.489204,335.357985 998.16,336.03 C997.157943,337.65352 995.548593,338.809227 993.69,339.24 C992.782886,339.412252 991.86309,339.509248 990.94,339.53 C991.022385,339.154465 991.022385,338.765535 990.94,338.39 C989.78,334.59 993.1,331.77 997.42,330.07 C1001.74,328.37 1018.17,315.43 1020.08,312.36 C1021.99,309.29 1035.36,299.66 1035.36,299.66 C1035.36,299.66 1055.36,294 1061.92,273.38 C1068.48,252.76 1030.54,287.78 1026.72,288.83 C1022.9,289.88 1017.43,293.83 1017.43,293.83 L993.1,307.9 C988.461875,310.517332 984.070571,313.549742 979.98,316.96 C974.09,322.05 970.36,330.7 970.36,330.7 C970.36,330.7 968.03,334.5 964.63,340 C962.754708,343.134404 960.223472,345.825975 957.21,347.89 L957.32,347.69 C957.05,348.02 948.68,358.59 947.94,363.21 C947.2,367.83 943.79,386.66 943.79,386.66 C943.79,386.66 940.79,401.45 938.73,404.36 C938.73,404.36 937.06,412.85 936.07,413.99 C935.08,415.13 931.07,427.16 931.75,428.38 C931.75,428.38 927.93,436.71 928.6,439.86 L921.71,456.36 C921.71,456.36 917.97,464.52 918.22,469.29 C918.34,471.6 918.44,474.29 918.51,476.49 C918.51,476.84 918.51,477.17 918.51,477.49 L918.51,477.49 C918.51,477.84 918.51,478.18 918.51,478.49 C918.14,479.11 917.19,480.69 916.2,482.6 C914.78,485.38 913.27,488.85 913.36,490.99 C913.52,494.75 913.53,503.93 911.8,507.3 L911.29,507.1 C910.68352,508.105293 910.339637,509.246983 910.29,510.42 L910.41,510.48 C910.41,510.77 910.32,511.07 910.29,511.39 C909.87,515.22 910.48,520.55 909.52,521.72 C908.19,523.34 908.85,559.24 908.85,559.24 C908.85,559.24 906.69,581.71 911.01,595.95 L910.68,607.1 C910.68,607.1 910.51,617.61 911.01,619.1 C911.51,620.59 911.68,631.23 911.68,631.23 L914.17,649.02 C914.17,649.02 910.84,676.51 913.67,683.3 C915.309565,687.045964 916.323042,691.035685 916.67,695.11 C918.110582,695.902293 919.651006,696.497609 921.25,696.88 L921.25,697.88 L920.6,714.6 L920.6,715.52 C920.6,715.52 920.52,715.96 920.46,716.69 L920.46,716.69 C920.46,716.82 920.46,716.96 920.46,717.1 C920.455084,717.139849 920.455084,717.180151 920.46,717.22 C920.46,717.33 920.46,717.45 920.46,717.57 C920.455017,717.659931 920.455017,717.750069 920.46,717.84 C920.464979,717.919923 920.464979,718.000077 920.46,718.08 L920.46,718.28 C920.46,718.69 920.46,719.13 920.46,719.59 L920.46,719.59 C920.46,719.77 920.46,719.96 920.46,720.15 C920.46,720.34 920.46,720.26 920.46,720.31 L920.46,720.56 C920.46,720.67 920.46,720.78 920.46,720.89 L920.46,721.05 C920.46,721.22 920.51,721.38 920.54,721.55 C920.535183,721.589855 920.535183,721.630145 920.54,721.67 C920.54,721.86 920.61,722.04 920.65,722.22 L920.65,722.22 C920.65,722.4 920.73,722.58 920.78,722.76 C920.784679,722.779726 920.784679,722.800274 920.78,722.82 L920.78,722.82 C920.78,722.91 920.83,723.01 920.86,723.1 C920.854343,723.143149 920.854343,723.186851 920.86,723.23 C920.86,723.34 920.93,723.45 920.96,723.57 L920.96,723.65 C921.06,723.93 921.16,724.21 921.28,724.49 C921.276235,724.519882 921.276235,724.550118 921.28,724.58 C921.28,724.68 921.37,724.79 921.42,724.89 L921.48,725.03 L921.61,725.3 L921.69,725.45 L921.83,725.7 L921.92,725.85 C921.92,725.93 922.01,726.01 922.06,726.09 C922.11,726.17 922.13,726.19 922.16,726.25 L922.31,726.48 L922.42,726.63 L922.58,726.86 L922.7,727.01 L922.88,727.23 L923,727.37 L923.21,727.61 L923.32,727.73 L923.66,728.06 C923.691688,728.09843 923.728733,728.132107 923.77,728.16 C923.848478,728.241782 923.931973,728.318597 924.02,728.39 L924.18,728.52 L924.4,728.7 L924.59,728.84 L924.81,729 L925.02,729.14 L925.24,729.28 L925.47,729.41 L925.7,729.55 L925.94,729.67 L926.19,729.79 L926.44,729.91 L926.69,730.02 L926.96,730.13 L927.23,730.23 L927.51,730.33 L927.81,730.42 L928.28,730.56 L928.67,730.66 L928.98,730.72 L929.3,730.79 L929.64,730.79 L929.97,730.84 L930.32,730.84 L930.67,730.84 L931.03,730.84 L931.4,730.84 L931.77,730.84 L933.35,730.84 L933.81,730.84 L934.19,730.84 L934.73,730.79 L935.06,730.79 L935.97,730.69 C935.97,730.69 947.3,732.38 947.67,727.9 C947.67,727.67 947.67,727.43 947.72,727.18 L947.72,726.61 C947.715028,726.540088 947.715028,726.469912 947.72,726.4 C947.72,726.18 947.72,725.94 947.72,725.7 L947.72,725.59 C947.72,725.34 947.72,725.09 947.72,724.83 L947.72,724.29 C947.72,723.85 947.72,723.4 947.72,722.95 C947.72,722.78 947.72,722.62 947.72,722.45 C947.72,721.99 947.72,721.54 947.72,721.09 L947.72,721.02 C947.72,720.91 947.72,720.82 947.72,720.71 C947.65,718.49 947.54,716.43 947.47,715.28 C947.47,714.67 947.41,714.28 947.41,714.28 C947.41,714.28 943.55,708.46 944.18,706.28 C944.81,704.1 944.67,696.7 944.67,696.7 C944.67,696.7 943.17,693.15 942.16,690.01 C942.08,689.77 942.01,689.53 941.94,689.3 C942.777868,688.341361 943.565587,687.340023 944.3,686.3 C945.734914,678.591078 944.749885,670.627013 941.48,663.5 C941.096816,663.233884 940.868792,662.796526 940.87,662.33 C940.865084,662.290151 940.865084,662.249849 940.87,662.21 L942.8,638.6 L941.63,624.86 C941.63,624.86 940.8,615.47 942.63,611.43 L946.28,575.86 L951.46,555.17 C951.46,555.17 953.12,554.36 954.46,558.25 C955.8,562.14 959.1,579.75 959.1,579.75 L967.1,608.86 C967.1,608.86 968.43,619.21 969.59,620.67 C970.75,622.13 970.76,628.59 970.76,628.59 C970.76,628.59 973.25,633.77 972.92,636.03 C972.59,638.29 972.92,644.44 973.74,646.54 C974.56,648.64 974.91,663.54 974.91,663.54 C973.954437,668.412815 974.067025,673.434903 975.24,678.26 C977.24,685.7 976.07,695.08 976.07,695.08 C976.280679,695.404594 976.507635,695.718328 976.75,696.02 C976.67,696.24 976.58,696.46 976.5,696.66 C975.98,698.01 975.57,698.96 975.57,698.96 C975.57,698.96 975.45,706.36 976.07,708.54 C976.69,710.72 972.83,716.54 972.83,716.54 C972.83,716.54 972.83,716.9 972.77,717.54 C972.7,718.69 972.59,720.74 972.52,722.97 C972.52,723.07 972.52,723.17 972.52,723.28 L972.52,723.36 L972.52,724.7 C972.52,724.87 972.52,725.04 972.52,725.21 C972.52,725.66 972.52,726.11 972.52,726.55 C972.52,726.63 972.52,726.72 972.52,726.8 C972.52,726.88 972.52,726.93 972.52,726.99 L972.52,727.08 C972.52,727.34 972.52,727.6 972.52,727.85 L972.52,727.96 C972.52,728.2 972.52,728.44 972.52,728.67 C972.515293,728.733246 972.515293,728.796754 972.52,728.86 C972.52,729.05 972.52,729.25 972.52,729.44 C972.52,729.63 972.52,729.93 972.57,730.16 C972.95,734.64 984.28,732.95 984.28,732.95 L985.19,733.06 L985.51,733.06 L986.06,733.06 L986.43,733.06 L986.9,733.06 L988.46,733.06 L988.83,733.06 L989.2,733.06 L989.56,733.06 L989.91,733.06 L990.25,733.06 L990.59,733 L990.92,732.95 L991.24,732.88 L991.56,732.82 L991.95,732.72 L992.42,732.58 L992.71,732.49 L992.99,732.39 C993.082133,732.362737 993.172336,732.329329 993.26,732.29 L993.53,732.18 L993.79,732.07 L994.04,731.96 L994.29,731.83 L994.52,731.71 L994.76,731.58 L994.98,731.44 L995.21,731.3 L995.41,731.16 L995.63,731 C995.697357,730.959056 995.76094,730.912205 995.82,730.86 C995.897516,730.808963 995.971059,730.752134 996.04,730.69 L996.21,730.55 L996.46,730.33 L996.57,730.22 L996.91,729.89 L997.01,729.77 L997.23,729.54 L997.34,729.39 C997.408586,729.321372 997.472087,729.247845 997.53,729.17 L997.64,729.02 L997.81,728.79 L997.91,728.64 L998.07,728.41 C998.099697,728.354479 998.133107,728.301024 998.17,728.25 C998.17,728.17 998.26,728.09 998.31,728.01 L998.4,727.86 C998.4,727.77 998.49,727.69 998.53,727.61 C998.560531,727.562159 998.587279,727.512006 998.61,727.46 C998.61,727.37 998.7,727.28 998.74,727.19 L998.81,727.05 C998.81,726.95 998.9,726.85 998.95,726.74 L998.95,726.65 C999.06,726.37 999.17,726.09 999.26,725.81 L999.26,725.73 C999.26,725.62 999.33,725.51 999.37,725.4 C999.365576,725.353438 999.365576,725.306562 999.37,725.26 C999.37,725.17 999.37,725.07 999.45,724.98 L999.45,724.93 C999.454679,724.910274 999.454679,724.889726 999.45,724.87 C999.45,724.69 999.55,724.51 999.59,724.34 L999.59,724.34 C999.59,724.16 999.67,723.98 999.7,723.8 L999.7,723.67 C999.7,723.5 999.76,723.34 999.78,723.18 C999.8,723.02 999.78,723.07 999.78,723.01 C999.78,722.95 999.78,722.79 999.78,722.68 C999.78,722.57 999.78,722.51 999.78,722.43 C999.78,722.35 999.78,722.33 999.78,722.27 C999.78,722.21 999.78,721.9 999.78,721.71 L999.78,721.71 C999.78,721.25 999.78,720.81 999.78,720.4 L999.78,719.96 C999.775017,719.870069 999.775017,719.779931 999.78,719.69 C999.78,719.57 999.78,719.46 999.78,719.34 C999.775084,719.300151 999.775084,719.259849 999.78,719.22 C999.78,719.08 999.78,718.94 999.78,718.82 L999.78,718.82 C999.72,718.09 999.65,717.65 999.65,717.65 L999.65,716.74 L999.02,700.56 L999.02,699.56 C999.95,699.04 1000.9,698.45 1001.89,697.76 C1001.89,697.76 1001.72,688.54 1004.38,684.83 C1007.04,681.12 1003.05,671.4 1003.05,671.4 L1001.39,636.63 L1002.05,620.63 C1000.73215,618.256346 1000.04365,615.584942 1000.05,612.87 C999.787043,609.401246 998.88523,606.010969 997.39,602.87 C997.39,602.87 995.73,597.37 997.73,595.75 C999.73,594.13 995.57,558.75 995.57,558.75 C995.57,558.75 996.57,532.9 994.67,517.55 L994.67,517.3 L995.2,517.06 C995.04,515.83 994.87,514.68 994.68,513.61 L994.12,513.78 C993.885068,512.423978 993.550835,511.087046 993.12,509.78 L990.46,497.57 C990.46,497.57 990.4,496.93 990.33,496 C990.24,494.9 990.14,493.41 990.12,492.1 C990.111483,491.547971 990.171951,490.99704 990.3,490.46 L990.16,490.34 C990.172762,490.052114 990.21976,489.766772 990.3,489.49 L989.72,489 C989.72,489 989.64,488.45 989.58,487.61 C989.45,485.75 989.38,482.51 990.3,480.68 C991.63,478.01 1005.3,467.9 1005.3,467.9 L1012.96,452.57 C1012.96,452.57 1020.6,441.81 1026.41,439.71 C1032.22,437.61 1050.32,425.57 1050.32,425.57 C1050.32,425.57 1056.63,419.1 1057.13,417.57 L1057.34,417.25 L1057.46,417.25 L1057.46,417.04 L1074.46,391.57 C1081.26,386.07 1081.51,374.35 1081.51,374.35 L1083.28,347.57 L1082.7,331.73 L1083.52,322.73 C1083.52,322.73 1098.46,284.71 1084.19,285.27 Z M986.81,354.57 C984.963001,357.804755 983.991051,361.465078 983.99,365.19 C983.99,365.37 983.99,365.55 983.99,365.73 C983.99,365.91 983.99,366.02 983.99,366.16 C983.990367,369.486528 984.767679,372.766993 986.26,375.74 C985.504817,376.586019 984.941904,377.585616 984.61,378.67 C983.77,377.61 981.31,374.37 981.17,372.22 C981,369.64 978.51,367.86 978.51,367.86 C978.51,367.86 978.05,362.96 978.67,362.12 L978.76,362.04 C978.76,362.04 978.83,361.92 978.97,361.72 L978.97,361.72 C979.68,360.65 982.07,357.04 984.54,352.93 C984.950647,353.105788 985.375514,353.246295 985.81,353.35 L987.33,353.73 L986.81,354.57 Z" id="Shape" fill="url(#linearGradient-1)" fill-rule="nonzero"></path>
                <path d="M1035.25,351.87 C1035.4,351.53 1035.52,351.17 1035.64,350.81 C1035.25807,351.605979 1034.92414,352.424109 1034.64,353.26 C1034.85,352.79 1035.06,352.33 1035.25,351.87 Z" id="Path" fill="url(#linearGradient-2)" fill-rule="nonzero"></path>
                <path d="M991.25,375.65 C991.25,375.65 988.12,390.57 982.35,392.5 C976.58,394.43 989.35,411.5 989.35,411.5 L1015.82,410.05 L1016.3,404.52 C1016.3,404.52 1011.3,393.45 1019.67,379.98 C1028.04,366.51 991.25,375.65 991.25,375.65 Z" id="Path" fill="#F6BAC2" fill-rule="nonzero"></path>
                <path d="M949.74,727.92 C949.38,732.37 938.43,730.69 938.43,730.69 C920.27,733.21 923.27,715.41 923.27,715.41 L923.27,714.5 L923.9,697.9 L924.08,693.27 C924.08,693.27 944.08,684.13 943.57,686.05 C943.38,686.77 943.8,688.5 944.38,690.37 C945.38,693.48 946.81,697 946.81,697 C946.81,697 946.93,704.34 946.33,706.5 C945.73,708.66 949.46,714.44 949.46,714.44 C949.46,714.44 949.46,714.8 949.52,715.44 C949.81595,719.593095 949.889388,723.759054 949.74,727.92 L949.74,727.92 Z" id="Path" fill="#B77983" fill-rule="nonzero"></path>
                <path d="M984.75,732.73 C984.75,732.73 973.8,734.42 973.44,729.96 C973.27372,725.789673 973.33715,721.613354 973.63,717.45 C973.63,716.85 973.68,716.45 973.68,716.45 C973.68,716.45 977.41,710.67 976.81,708.51 C976.21,706.35 976.33,699 976.33,699 C976.33,699 976.72,698.07 977.23,696.73 C978.3,693.92 979.91,689.36 979.58,688.06 C979.1,686.13 999.07,695.27 999.07,695.27 L999.27,700.45 L999.88,716.5 L999.88,717.41 C999.88,717.41 1002.92,735.26 984.75,732.73 Z" id="Path" fill="#B77983" fill-rule="nonzero"></path>
                <path d="M1059.82,276.92 C1053.46,297.37 1034.16,302.99 1034.16,302.99 C1034.16,302.99 1021.24,312.57 1019.4,315.57 C1017.56,318.57 1001.68,331.45 997.5,333.14 C993.32,334.83 990.13,337.63 991.25,341.39 C992.25,344.88 981.31,361.96 979.66,364.5 L979.66,364.5 L979.46,364.82 L976.01,368.43 L964.3,374.36 L954.76,371.31 L953.55,359.85 L958.61,350.85 L958.61,350.85 L958.61,350.85 C961.536568,348.787462 963.982473,346.116411 965.78,343.02 C969.07,337.56 971.32,333.8 971.32,333.8 C971.32,333.8 974.93,325.22 980.62,320.16 C984.556672,316.775596 988.798089,313.76275 993.29,311.16 L1016.8,297.16 C1016.8,297.16 1022.09,293.23 1025.8,292.16 C1029.51,291.09 1066.16,256.47 1059.82,276.92 Z" id="Path" fill="#F6BAC2" fill-rule="nonzero"></path>
                <path d="M964.3,366.99 L979.94,363.86 C979.770552,364.03529 979.670977,364.266445 979.66,364.51 L979.66,364.51 L979.46,364.83 L976.01,368.44 L964.3,374.37 L954.76,371.32 L953.55,359.86 L958.61,350.86 L958.61,350.86 C953.82,360.86 958.49,367.96 958.49,367.96 L964.3,366.99 Z" id="Path" fill="#000000" fill-rule="nonzero" opacity="0.05"></path>
                <path d="M1055.76,418.65 C1055.71718,418.754451 1055.68045,418.861297 1055.65,418.97 C1055.50159,419.327443 1055.30657,419.663691 1055.07,419.97 L1048.76,423.05 L1039.13,424.05 L1034.13,411.94 L1037.46,398.67 L1039.3,396.19 L1039.81,395.63 C1040,398.03 1040.97,410.55 1040.91,414.31 C1040.83,418.48 1043.91,418.81 1043.91,418.81 L1055.76,418.65 Z" id="Path" fill="#000000" fill-rule="nonzero" opacity="0.05"></path>
                <path d="M1055.28,419.57 C1055.23718,419.674451 1055.20045,419.781297 1055.17,419.89 C1054.69,421.41 1048.6,427.83 1048.6,427.83 C1048.6,427.83 1031.11,439.78 1025.5,441.83 C1019.89,443.88 1012.5,454.58 1012.5,454.58 L1005.12,469.81 C1005.12,469.81 991.89,479.81 990.61,482.49 C989.72,484.31 989.79,487.49 989.92,489.37 C989.92,490.2 990.04,490.75 990.04,490.75 L986.14,494.82 L983.03,498.06 L978.65,502.62 L971.52,501.62 L949.3,498.09 L945.04,495.69 L921.39,482.37 C921.39,482.37 921.39,481.54 921.33,480.27 C921.33,479.71 921.33,479.07 921.27,478.36 C921.2,476.2 921.1,473.51 920.99,471.22 C920.75,466.49 924.36,458.39 924.36,458.39 L931.01,442.02 C930.37,438.9 934.06,430.63 934.06,430.63 C933.42,429.43 937.27,417.48 938.23,416.36 C939.19,415.24 940.8,406.81 940.8,406.81 C942.8,403.93 945.69,389.25 945.69,389.25 C945.69,389.25 948.98,370.64 949.69,365.99 C950.4,361.34 958.49,350.92 958.75,350.6 C952.98,361.18 958.03,368.88 958.03,368.88 L963.81,367.88 L979.46,364.83 C978.74,365.31 979.22,370.6 979.22,370.6 C980.605731,371.65392 981.524468,373.207879 981.78,374.93 C981.93,377.28 984.78,380.93 985.31,381.58 L985.39,381.67 C985.797217,379.410714 987.175411,377.443953 989.16,376.29 L992.77,381.11 L993.98,386.88 C993.98,386.88 993.65,387.69 991.57,389.29 C989.49,390.89 992.45,395.06 992.45,395.06 C993.45,396.75 993.74,403 993.74,403 L993.74,403 C996.39,400.68 1000.55,400.68 1000.55,400.68 C1002.244,398.979596 1003.62812,396.996488 1004.64,394.82 C1004.81104,394.098185 1005.30368,393.494689 1005.97664,393.182594 C1006.64959,392.870499 1007.42851,392.884286 1008.09,393.22 C1009.29772,392.170938 1010.61538,391.255613 1012.02,390.49 C1013.95,389.49 1016.19,391.49 1016.19,391.49 L1016.43,398.88 C1016.43,398.88 1016.62,399.18 1016.93,399.59 C1017.56,400.47 1018.69,401.82 1019.4,401.59 C1020.4,401.27 1028.46,402.07 1028.46,402.07 C1028.46,402.07 1031.27,403.27 1032.31,401.75 C1033.35,400.23 1039.31,396.22 1039.31,396.22 C1039.31,396.22 1040.46,411.11 1040.46,415.27 C1040.46,419.43 1043.46,419.77 1043.46,419.77 L1055.28,419.57 Z" id="Path" fill="#D39999" fill-rule="nonzero"></path>
                <path d="M1055.46,419.57 L1055.25,419.57 C1055.63,418.57 1055.46,419.57 1055.46,419.57 Z" id="Path"></path>
                <circle id="Oval" fill="#4B4442" fill-rule="nonzero" cx="989.65" cy="409.82" r="1.44"></circle>
                <circle id="Oval" fill="#4B4442" fill-rule="nonzero" cx="979.14" cy="430.76" r="1.44"></circle>
                <circle id="Oval" fill="#4B4442" fill-rule="nonzero" cx="958.45" cy="475.59" r="1.44"></circle>
                <circle id="Oval" fill="#4B4442" fill-rule="nonzero" cx="968.23" cy="452.97" r="1.44"></circle>
                <path d="M944.46,690.37 C936.94,699.31 928.82,699.16 923.98,697.9 L924.16,693.27 C924.16,693.27 944.16,684.13 943.65,686.05 C943.46,686.77 943.84,688.5 944.46,690.37 Z" id="Path" fill="#000000" fill-rule="nonzero" opacity="0.05"></path>
                <path d="M999.27,700.49 C986.5,707.87 979.01,699.22 977.27,696.77 C978.34,693.96 979.95,689.4 979.62,688.1 C979.14,686.17 999.11,695.31 999.11,695.31 L999.27,700.49 Z" id="Path" fill="#000000" fill-rule="nonzero" opacity="0.05"></path>
                <path d="M1004.4,684.93 C1001.84,688.62 1001.99,697.76 1001.99,697.76 C985.47,709.63 976.81,695.19 976.81,695.19 C976.81,695.19 977.93,685.89 976.01,678.51 C974.872217,673.720703 974.763151,668.744549 975.69,663.91 C975.69,663.91 975.37,649.15 974.56,647.07 C973.75,644.99 973.44,638.89 973.76,636.64 C974.08,634.39 971.68,629.27 971.68,629.27 C971.68,629.27 971.68,622.85 970.55,621.41 C969.42,619.97 968.15,609.69 968.15,609.69 L960.46,580.82 C960.46,580.82 957.25,563.34 955.97,559.49 C954.69,555.64 953.08,556.44 953.08,556.44 L948.46,577.13 L944.93,612.42 C943.16,616.42 943.93,625.74 943.93,625.74 L945.05,639.37 L943.19,662.79 C943.185084,662.829849 943.185084,662.870151 943.19,662.91 C943.186797,663.367148 943.40236,663.798273 943.77,664.07 C946.925375,671.166717 947.863008,679.051194 946.46,686.69 C934.27,704.34 919.51,695.19 919.51,695.19 C919.188152,691.160059 918.215552,687.208875 916.63,683.49 C913.9,676.75 917.11,649.49 917.11,649.49 L914.7,631.84 C914.7,631.84 914.54,621.25 914.06,619.84 C913.58,618.43 913.74,607.97 913.74,607.97 L914.06,596.9 C909.89,582.78 911.97,560.49 911.97,560.49 C911.97,560.49 911.33,524.88 912.62,523.27 C913.55,522.11 912.96,516.83 913.36,513.02 C913.402442,511.863418 913.725011,510.734425 914.3,509.73 L914.46,509.57 C916.55,507 916.55,496.74 916.38,492.72 C916.3,490.6 917.75,487.16 919.13,484.4 C920.13,482.46 921.04,480.86 921.38,480.28 L921.52,480.05 C921.52,480.05 930.66,482.3 954.88,493.85 C959.217152,495.996782 963.868891,497.438214 968.66,498.12 C971.044055,498.438564 973.457315,498.475484 975.85,498.23 C979.500753,497.878889 983.030208,496.731987 986.19,494.87 C987.860497,493.917283 989.369253,492.705553 990.66,491.28 C990.33,492.28 990.53,495.7 990.66,497.74 C990.72,498.67 990.79,499.3 990.79,499.3 L993.46,511.2 C993.894876,512.6112 994.229049,514.051485 994.46,515.51 C994.65,516.57 994.81,517.72 994.96,518.94 C996.83,534.16 995.83,559.81 995.83,559.81 C995.83,559.81 999.83,594.94 997.92,596.54 C996.01,598.14 997.59,603.6 997.59,603.6 C999.041953,606.730214 999.912776,610.098302 1000.16,613.54 C1000.1463,616.228041 1000.81006,618.876209 1002.09,621.24 L1001.44,637.12 L1003.12,671.57 C1003.12,671.57 1006.97,681.24 1004.4,684.93 Z" id="Path" fill="#8499F0" fill-rule="nonzero"></path>
                <path d="M985.59,626.86 C985.59,626.86 997.74,619.86 1000.39,623.01 C1003.04,626.16 985.59,626.86 985.59,626.86 Z" id="Path" fill="#000000" fill-rule="nonzero" opacity="0.05"></path>
                <path d="M992.93,630.71 C992.93,630.71 990.93,631.71 995.34,632.99 C999.75,634.27 992.93,630.71 992.93,630.71 Z" id="Path" fill="#000000" fill-rule="nonzero" opacity="0.05"></path>
                <path d="M919.46,611.46 C919.05,611.58 929.57,618.56 939.07,612.78 C939.03,612.78 921.83,610.74 919.46,611.46 Z" id="Path" fill="#000000" fill-rule="nonzero" opacity="0.05"></path>
                <path d="M938.55,624.81 C938.55,624.81 935.67,630.47 929.77,631.31 C923.87,632.15 938.55,624.81 938.55,624.81 Z" id="Path" fill="#000000" fill-rule="nonzero" opacity="0.05"></path>
                <path d="M977.17,637.09 C977.17,637.09 991.01,659.09 988.36,664.28 C985.71,669.47 977.17,637.09 977.17,637.09 Z" id="Path" fill="#000000" fill-rule="nonzero" opacity="0.05"></path>
                <path d="M953.83,503.66 L952.39,546.73 C952.39,546.73 960.93,546.37 962.39,532.18 C963.85,517.99 964.92,506.43 964.92,506.43 L953.83,503.66 Z" id="Path" fill="#000000" fill-rule="nonzero" opacity="0.05"></path>
                <path d="M953.35,502.7 L951.91,545.77 C951.91,545.77 960.45,545.41 961.91,531.21 C963.37,517.01 964.46,505.47 964.46,505.47 L953.35,502.7 Z" id="Path" fill="#8499F0" fill-rule="nonzero"></path>
                <path d="M936.03,504.63 C936.03,504.63 929.29,522.7 913.87,513.95 C913.910845,512.793165 914.233521,511.663797 914.81,510.66 C919.03,512.43 928.81,515.02 932.81,503.3 L936.03,504.63 Z" id="Path" fill="#000000" fill-rule="nonzero" opacity="0.05"></path>
                <path d="M935.55,502.7 C935.55,502.7 928.81,520.77 913.39,512.02 C913.432442,510.863418 913.755011,509.734425 914.33,508.73 C918.55,510.51 928.33,513.09 932.33,501.38 L935.55,502.7 Z" id="Path" fill="#000000" fill-rule="nonzero" opacity="0.05"></path>
                <path d="M935.55,503.66 C935.55,503.66 928.81,521.73 913.39,512.98 C913.432442,511.823418 913.755011,510.694425 914.33,509.69 C918.55,511.47 928.33,514.05 932.33,502.34 L935.55,503.66 Z" id="Path" fill="#8499F0" fill-rule="nonzero"></path>
                <path d="M994.55,519.9 C977.61,527.96 971.4,508.96 971.4,508.96 L975.4,509.08 C976.1,521.23 989.49,517.96 994.08,516.47 C994.24,517.57 994.4,518.68 994.55,519.9 Z" id="Path" fill="#000000" fill-rule="nonzero" opacity="0.05"></path>
                <path d="M995.51,518.46 C978.58,526.51 972.36,507.51 972.36,507.51 L976.36,507.63 C977.06,519.78 990.45,516.52 995.04,515.03 C995.2,516.09 995.36,517.24 995.51,518.46 Z" id="Path" fill="#000000" fill-rule="nonzero" opacity="0.05"></path>
                <path d="M995.03,518.94 C978.1,526.99 971.88,507.99 971.88,507.99 L975.88,508.11 C976.58,520.27 989.97,517 994.56,515.51 C994.72,516.57 994.88,517.72 995.03,518.94 Z" id="Path" fill="#8499F0" fill-rule="nonzero"></path>
                <path d="M935.55,503.66 C935.55,503.66 928.81,521.73 913.39,512.98 C913.432442,511.823418 913.755011,510.694425 914.33,509.69 C918.55,511.47 928.33,514.05 932.33,502.34 L935.55,503.66 Z" id="Path" fill="#FFFFFF" fill-rule="nonzero" opacity="0.1"></path>
                <path d="M995.03,518.94 C978.1,526.99 971.88,507.99 971.88,507.99 L975.88,508.11 C976.58,520.27 989.97,517 994.56,515.51 C994.72,516.57 994.88,517.72 995.03,518.94 Z" id="Path" fill="#FFFFFF" fill-rule="nonzero" opacity="0.1"></path>
                <path d="M949.86,724.57 C949.86,725.8 949.86,726.95 949.74,727.9 C949.38,732.35 938.43,730.67 938.43,730.67 C928.43,732.06 924.83,727.26 923.64,722.67 C923.265992,721.179111 923.081205,719.64706 923.09,718.11 C923.083521,717.193511 923.143679,716.277764 923.27,715.37 L923.27,714.46 C925.424961,713.810018 927.762331,714.287262 929.49,715.73 C933.94,719.34 939.84,716.57 939.84,716.57 C939.84,716.57 944.17,716.93 945.84,718.37 C946.78,719.18 948.33,717.23 949.51,715.37 C949.58,716.57 949.69,718.74 949.76,721.06 C949.84,722.25 949.86,723.45 949.86,724.57 Z" id="Path" fill="#000000" fill-rule="nonzero" opacity="0.05"></path>
                <path d="M932.3,724.31 C932.3,724.31 929.3,727.25 923.64,722.71 C923.265992,721.219111 923.081205,719.68706 923.09,718.15 C925.98,720.35 931.34,724.31 932.3,724.31 Z" id="Path" fill="#000000" fill-rule="nonzero" opacity="0.05"></path>
                <path d="M949.86,724.57 C949.366596,724.950563 948.737959,725.110525 948.122667,725.012079 C947.507376,724.913632 946.960031,724.565513 946.61,724.05 C947.776652,723.162299 948.848955,722.157015 949.81,721.05 C949.84,722.25 949.86,723.45 949.86,724.57 Z" id="Path" fill="#000000" fill-rule="nonzero" opacity="0.05"></path>
                <path d="M973.33,726.63 C973.33,727.87 973.33,729.02 973.44,729.96 C973.8,734.42 984.75,732.73 984.75,732.73 C994.75,734.13 998.35,729.33 999.54,724.73 C1000.1294,722.342773 1000.25501,719.864587 999.91,717.43 L999.91,716.52 C997.751343,715.881187 995.41635,716.357181 993.68,717.79 C989.23,721.4 983.34,718.63 983.34,718.63 C983.34,718.63 979.01,719 977.34,720.44 C976.4,721.25 974.85,719.3 973.68,717.44 C973.61,718.64 973.49,720.81 973.42,723.13 C973.34,724.3 973.32,725.5 973.33,726.63 Z" id="Path" fill="#000000" fill-rule="nonzero" opacity="0.05"></path>
                <path d="M990.89,726.35 C990.89,726.35 993.89,729.29 999.54,724.75 C999.917277,723.26292 1000.10543,721.734182 1000.1,720.2 C997.2,722.39 991.84,726.35 990.89,726.35 Z" id="Path" fill="#000000" fill-rule="nonzero" opacity="0.05"></path>
                <path d="M973.33,726.63 C973.821768,727.010118 974.44887,727.169876 975.062567,727.071381 C975.676264,726.972887 976.22188,726.624915 976.57,726.11 C975.40224,725.223611 974.329807,724.218205 973.37,723.11 C973.34,724.3 973.32,725.5 973.33,726.63 Z" id="Path" fill="#000000" fill-rule="nonzero" opacity="0.05"></path>
                <path d="M960.13,419.57 C960.13,419.57 944.73,462.08 950.66,465.77 C956.59,469.46 960.13,419.57 960.13,419.57 Z" id="Path" fill="#000000" fill-rule="nonzero" opacity="0.05"></path>
                <path d="M971.36,406.45 C971.36,406.45 968.46,420.57 969.91,421.85 C971.36,423.13 971.36,406.45 971.36,406.45 Z" id="Path" fill="#000000" fill-rule="nonzero" opacity="0.05"></path>
                <path d="M1002.46,439.34 C1002.46,439.34 983.53,456.98 984.81,458.43 C986.09,459.88 1002.46,439.34 1002.46,439.34 Z" id="Path" fill="#000000" fill-rule="nonzero" opacity="0.05"></path>
                <path d="M1016.93,400.51 C1009.76,402.7 993,407.82 992.81,407.78 L993.74,403.96 C996.39,401.64 1000.55,401.64 1000.55,401.64 C1002.244,399.939596 1003.62812,397.956488 1004.64,395.78 C1004.81104,395.058185 1005.30368,394.454689 1005.97664,394.142594 C1006.64959,393.830499 1007.42851,393.844286 1008.09,394.18 C1009.30048,393.134494 1010.61775,392.219442 1012.02,391.45 C1013.95,390.45 1016.19,392.45 1016.19,392.45 L1016.43,399.83 C1016.43,399.83 1016.62,400.1 1016.93,400.51 Z" id="Path" fill="#000000" fill-rule="nonzero" opacity="0.05"></path>
                <path d="M1016.93,399.57 C1009.76,401.76 993,406.88 992.81,406.83 L993.74,403.02 C996.39,400.7 1000.55,400.7 1000.55,400.7 C1002.244,398.999596 1003.62812,397.016488 1004.64,394.84 C1004.81104,394.118185 1005.30368,393.514689 1005.97664,393.202594 C1006.64959,392.890499 1007.42851,392.904286 1008.09,393.24 C1009.29772,392.190938 1010.61538,391.275613 1012.02,390.51 C1013.95,389.51 1016.19,391.51 1016.19,391.51 L1016.43,398.9 C1016.43,398.9 1016.62,399.14 1016.93,399.57 Z" id="Path" fill="#D39999" fill-rule="nonzero"></path>
                <path d="M991.97,395.57 C992.97,397.26 993.25,403.51 993.25,403.51 L990.46,405.73 L985.16,390.45 L984.92,382.51 L984.82,382.06 L984.9,382.15 C985.304793,379.892263 986.68403,377.927674 988.67,376.78 L992.28,381.59 L993.49,387.36 C993.49,387.36 993.16,388.17 991.08,389.77 C989,391.37 991.97,395.57 991.97,395.57 Z" id="Path" fill="#000000" fill-rule="nonzero" opacity="0.05"></path>
                <path d="M992.46,395.06 C993.46,396.75 993.75,403 993.75,403 L990.96,405.25 L985.66,389.97 L985.42,382.03 L985.31,381.58 L985.39,381.67 C985.797217,379.410714 987.175411,377.443953 989.16,376.29 L992.77,381.11 L993.98,386.88 C993.98,386.88 993.65,387.69 991.57,389.29 C989.49,390.89 992.46,395.06 992.46,395.06 Z" id="Path" fill="#D39999" fill-rule="nonzero"></path>
                <path d="M1027.82,368.92 C1027.81448,380.875662 1018.119,390.56368 1006.16334,390.56 C994.207674,390.556318 984.518163,380.862331 984.520003,368.906668 C984.521842,356.951006 994.214337,347.260001 1006.17,347.26 C1011.92841,347.211494 1017.46492,349.478268 1021.53593,353.551161 C1025.60695,357.624055 1027.87117,363.161615 1027.82,368.92 L1027.82,368.92 Z" id="Path" fill="#000000" fill-rule="nonzero" opacity="0.05"></path>
                <path d="M1027.82034,367.95 C1027.82404,376.712471 1022.54824,384.614194 1014.45354,387.969315 C1006.35885,391.324436 997.040073,389.471934 990.844069,383.275931 C984.648066,377.079927 982.795564,367.761151 986.150685,359.666456 C989.505806,351.571762 997.407529,346.295955 1006.17,346.299663 C1011.92173,346.267852 1017.44719,348.538502 1021.51435,352.605655 C1025.5815,356.672807 1027.85215,362.198268 1027.82034,367.95 Z" id="Path" fill="#F6BAC2" fill-rule="nonzero"></path>
                <path d="M1027.82003,367.95 C1027.82693,371.918649 1026.7368,375.811994 1024.67,379.2 C1024.35,378.63 1024.16,377.97 1023.84,377.39 C1023.39,376.58 1022.35,375.9 1021.58,376.39 C1021.25755,376.653272 1021.01224,376.998783 1020.87,377.39 C1020.24,378.72 1019.12,380.05 1017.65,380.02 C1016.34141,379.879884 1015.2532,378.950529 1014.91,377.68 C1014.60135,376.430236 1014.54694,375.131197 1014.75,373.86 C1014.97,371.26 1015.01,368.26 1013.08,366.51 C1011.83418,365.598773 1010.40965,364.961481 1008.9,364.64 C1007.43,364.16 1005.9,363.4 1005.3,361.98 C1004.9,360.98 1005,359.92 1004.64,358.98 C1003.88462,357.451602 1002.43413,356.385168 1000.75,356.12 C998.838545,357.698378 996.417713,358.526651 993.94,358.45 C991.669449,358.396378 989.416215,358.039897 987.24,357.39 C992.040939,348.77577 1002.05472,344.492005 1011.60033,346.96897 C1021.14593,349.445935 1027.81334,358.058259 1027.82003,367.92 L1027.82003,367.95 Z" id="Path" fill="#000000" fill-rule="nonzero" opacity="0.05"></path>
                <path d="M1004.64,358.04 C1005,359.04 1004.9,360.12 1005.3,361.04 C1005.89,362.46 1007.43,363.22 1008.9,363.7 C1010.40829,364.020186 1011.83243,364.65389 1013.08,365.56 C1015.01,367.32 1014.97,370.32 1014.75,372.92 C1014.54694,374.191197 1014.60135,375.490236 1014.91,376.74 C1015.25814,378.007392 1016.34374,378.934505 1017.65,379.08 C1019.12,379.08 1020.24,377.78 1020.87,376.45 C1021.01312,376.059244 1021.25828,375.713949 1021.58,375.45 C1022.35,374.94 1023.39,375.62 1023.84,376.45 C1024.15493,377.316038 1024.58911,378.133918 1025.13,378.88 C1025.85301,379.503586 1026.83807,379.728315 1027.76,379.48 C1028.66459,379.232815 1029.50645,378.796545 1030.23,378.2 C1032.23388,376.805122 1033.8233,374.894359 1034.83,372.67 C1035.82365,370.417864 1035.71653,367.832229 1034.54,365.67 C1033.79,364.41 1032.6,363.4 1032.13,362.01 C1031.31,359.62 1032.85,357.16 1033.8,354.82 C1034.71043,352.680069 1035.00483,350.328322 1034.65,348.03 C1034.27764,345.718134 1032.99109,343.653181 1031.08,342.3 C1027.28,339.77 1022.14,341.16 1017.74,339.94 C1016.16578,339.42325 1014.63165,338.79155 1013.15,338.05 C1010.90446,337.052591 1008.55742,336.301538 1006.15,335.81 C1003.76,335.33 1000.87,335.27 999.36,337.18 C998.946992,337.792312 998.579344,338.434026 998.26,339.1 C997.306978,340.69849 995.749471,341.844988 993.94,342.28 C992.65,342.59 991.3,342.51 989.94,342.7 C988.596144,342.793346 987.369095,343.497149 986.61,344.61 C985.95,345.81 986.23,347.27 986.39,348.61 C986.55,349.95 986.47,351.55 985.39,352.38 C984.88,352.77 984.18,352.96 983.87,353.51 C983.577358,354.173467 983.770683,354.950882 984.34,355.4 C984.902252,355.825452 985.556425,356.113151 986.25,356.24 C988.736862,357.01653 991.316378,357.457099 993.92,357.55 C996.551504,357.635509 999.112736,356.692086 1001.06,354.92 C1000.89,355.09 999.79,355.02 999.59,355.01 C1001.53,355.22 1003.91,356.08 1004.64,358.04 Z" id="Path" fill="#7E646B" fill-rule="nonzero"></path>
                <g id="Group" opacity="0.05" transform="translate(984.000000, 343.000000)" fill="#000000" fill-rule="nonzero">
                    <path d="M47.46,32.77 C46.7343838,33.3656535 45.8934482,33.8048465 44.99,34.06 C44.0694757,34.2985198 43.0905024,34.0705909 42.37,33.45 C41.8239143,32.7055641 41.3862187,31.88741 41.07,31.02 C40.62,30.21 39.58,29.53 38.81,30.02 C38.4923817,30.2877497 38.2480604,30.6318642 38.1,31.02 C37.48,32.35 36.35,33.68 34.88,33.65 C33.5728642,33.5114435 32.4868413,32.5805667 32.15,31.31 C31.8380207,30.0609096 31.7802099,28.7618654 31.98,27.49 C32.21,24.89 32.24,21.9 30.32,20.14 C29.0703097,19.2290672 27.6425878,18.5918739 26.13,18.27 C24.67,17.79 23.13,17.03 22.53,15.61 C22.13,14.61 22.23,13.55 21.87,12.61 C21.28,11.02 19.61,10.15 17.98,9.75 C16.0619398,11.3176082 13.6464964,12.1475844 11.17,12.09 C8.56645286,11.9887995 5.98759038,11.5449796 3.5,10.77 C2.8085652,10.6419653 2.15537713,10.3581192 1.59,9.94 C1.47344373,9.83205279 1.3694514,9.71128751 1.28,9.58 C0.838193111,9.76908129 0.452487721,10.0686917 0.16,10.45 C-0.132642218,11.1134671 0.0606832847,11.8908824 0.63,12.34 C1.19225214,12.7654523 1.84642484,13.0531513 2.54,13.18 C5.02686154,13.9565301 7.60637775,14.3970994 10.21,14.49 C12.6830597,14.5560201 15.0971232,13.7288484 17.01,12.16 C18.64,12.56 20.32,13.42 20.91,15.01 C21.27,16.01 21.17,17.09 21.57,18.01 C22.17,19.43 23.7,20.19 25.17,20.67 C26.6782949,20.9901855 28.1024273,21.6238904 29.35,22.53 C31.28,24.29 31.24,27.29 31.02,29.89 C30.8169398,31.1611973 30.8713498,32.4602356 31.18,33.71 C31.5281448,34.9773917 32.613739,35.904505 33.92,36.05 C35.39,36.05 36.51,34.75 37.14,33.42 C37.2831195,33.0292442 37.5282792,32.6839489 37.85,32.42 C38.62,31.91 39.66,32.59 40.11,33.42 C40.4243368,34.2882501 40.8621711,35.1066634 41.41,35.85 C42.1290968,36.4734839 43.1112349,36.698401 44.03,36.45 C44.9345906,36.2028146 45.7764541,35.7665452 46.5,35.17 C48.5038785,33.7751223 50.093302,31.8643588 51.1,29.64 C51.2777149,29.2119526 51.4214915,28.7705919 51.53,28.32 C50.5060831,30.0765184 49.11839,31.593775 47.46,32.77 L47.46,32.77 Z" id="Path"></path>
                    <path d="M49.46,13.15 C49.67,12.69 49.87,12.23 50.06,11.78 C50.25,11.33 50.32,11.08 50.43,10.72 C50.0620553,11.5114721 49.7382261,12.3227143 49.46,13.15 Z" id="Path"></path>
                    <path d="M2.7,6.86 C3.7,6.01 3.77,4.49 3.61,3.18 C3.49209951,2.41546434 3.42860668,1.64352519 3.42,0.87 C3.20678006,1.07822002 3.02186205,1.31357021 2.87,1.57 C2.21,2.77 2.49,4.23 2.65,5.57 C2.7023294,5.99787598 2.71905348,6.42935724 2.7,6.86 Z" id="Path"></path>
                </g>
                <path d="M990.64,498.73 C988.78,498.86 986.17,499 983.03,499.11 C980.85,499.18 978.41,499.23 975.8,499.23 C973.52,499.23 971.11,499.23 968.61,499.12 C960.702629,498.915853 952.822695,498.103454 945.04,496.69 C934.65,494.69 925.04,491.24 919.04,485.4 C920.04,483.46 920.95,481.85 921.29,481.28 C921.29,480.72 921.29,480.07 921.23,479.37 C931.78,484.37 964.67,498.26 989.88,490.37 C989.88,491.2 990,491.75 990,491.75 L990.57,492.23 C990.28,493.27 990.46,496.69 990.64,498.73 Z" id="Path" fill="#000000" fill-rule="nonzero" opacity="0.05"></path>
                <path d="M990.64,497.77 C988.78,497.9 986.17,498.04 983.03,498.14 C980.85,498.22 978.41,498.26 975.8,498.26 C973.52,498.26 971.11,498.26 968.61,498.15 C960.702877,497.949313 952.822933,497.140256 945.04,495.73 C934.65,493.73 925.04,490.27 919.04,484.43 C920.04,482.49 920.95,480.89 921.29,480.31 C921.29,479.75 921.29,479.11 921.23,478.4 C931.78,483.4 964.67,497.3 989.88,489.45 C989.88,490.28 990,490.83 990,490.83 L990.57,491.31 C990.28,492.31 990.46,495.73 990.64,497.77 Z" id="Path" fill="#4B4442" fill-rule="nonzero"></path>
                <path d="M491.53,935.44 C489.106522,932.522742 487.995603,928.734037 488.46,924.97 L532.6,563.8 L536.26,533.8 C537.108474,526.896793 542.945051,521.69351 549.9,521.64 L679.19,520.78 C682.909106,520.757203 686.46229,519.237441 689.047556,516.563742 C691.632822,513.890042 693.03226,510.28777 692.93,506.57 L692.88,505.2 C692.752592,501.4504 694.152909,497.80973 696.760176,495.111973 C699.367442,492.414215 702.958236,490.89 706.71,490.89 L842.57,490.89 C850.196398,490.89 856.383457,497.06362 856.4,504.69 C856.399225,505.311909 856.359145,505.933147 856.28,506.55 C855.759113,510.442454 856.917612,514.372816 859.466449,517.36045 C862.015286,520.348083 865.71409,522.111237 869.64,522.21 L1000.12,525.54 C1004.13465,525.638722 1007.90781,527.478848 1010.45749,530.58147 C1013.00717,533.684093 1014.08118,537.742332 1013.4,541.7 L948.17,922.7 L946.94,929.9 C946.635968,931.739425 945.95506,933.496167 944.94,935.06 L491.53,935.44 Z" id="Path" fill="#B7B6CC" fill-rule="nonzero"></path>
                <g id="Group" opacity="0.5" transform="translate(734.000000, 411.000000)" fill="url(#linearGradient-3)" fill-rule="nonzero">
                    <rect id="Rectangle" transform="translate(108.530153, 131.407498) rotate(-55.360000) translate(-108.530153, -131.407498) " x="-22.8848467" y="91.2274984" width="262.83" height="80.36"></rect>
                </g>
                <rect id="Rectangle" fill="#F9FAFB" fill-rule="nonzero" transform="translate(843.017738, 542.758469) rotate(34.640000) translate(-843.017738, -542.758469) " x="804.817738" y="413.103469" width="76.4" height="259.31"></rect>
                <rect id="Rectangle" fill="#F7B643" fill-rule="nonzero" transform="translate(896.567050, 462.017950) rotate(34.804012) translate(-896.567050, -462.017950) " x="869.598531" y="435.049431" width="53.9370372" height="53.9370372"></rect>
                <rect id="Rectangle" fill="#F7B643" fill-rule="nonzero" opacity="0.5" transform="translate(861.989780, 515.420501) rotate(34.640000) translate(-861.989780, -515.420501) " x="834.98478" y="488.415501" width="54.01" height="54.01"></rect>
                <rect id="Rectangle" fill="#F7B643" fill-rule="nonzero" opacity="0.3" transform="translate(824.915178, 569.069223) rotate(34.640000) translate(-824.915178, -569.069223) " x="797.910178" y="542.064223" width="54.01" height="54.01"></rect>
                <g id="Group" opacity="0.5" transform="translate(720.000000, 398.000000)" fill="url(#linearGradient-4)" fill-rule="nonzero">
                    <rect id="Rectangle" transform="translate(76.279673, 137.513642) rotate(-73.710000) translate(-76.279673, -137.513642) " x="-54.6453272" y="97.3336418" width="261.85" height="80.36"></rect>
                </g>
                <rect id="Rectangle" fill="#F9FAFB" fill-rule="nonzero" transform="translate(796.913973, 535.705363) rotate(16.290000) translate(-796.913973, -535.705363) " x="758.713973" y="406.540363" width="76.4" height="258.33"></rect>
                <rect id="Rectangle" fill="#F97878" fill-rule="nonzero" transform="translate(824.451704, 441.664213) rotate(16.290000) translate(-824.451704, -441.664213) " x="797.446704" y="414.659213" width="54.01" height="54.01"></rect>
                <rect id="Rectangle" fill="#F97878" fill-rule="nonzero" opacity="0.5" transform="translate(806.159525, 504.251161) rotate(16.290000) translate(-806.159525, -504.251161) " x="779.154525" y="477.246161" width="54.01" height="54.01"></rect>
                <rect id="Rectangle" fill="#F97878" fill-rule="nonzero" opacity="0.3" transform="translate(787.870152, 566.828511) rotate(16.290000) translate(-787.870152, -566.828511) " x="760.865152" y="539.823511" width="54.01" height="54.01"></rect>
                <g id="Group" opacity="0.5" transform="translate(721.000000, 402.000000)" fill="url(#linearGradient-5)" fill-rule="nonzero">
                    <rect id="Rectangle" transform="translate(50.675847, 134.668819) rotate(-85.400000) translate(-50.675847, -134.668819) " x="-80.2491525" y="94.4888189" width="261.85" height="80.36"></rect>
                </g>
                <rect id="Rectangle" fill="#F9FAFB" fill-rule="nonzero" transform="translate(772.250462, 536.733233) rotate(4.600000) translate(-772.250462, -536.733233) " x="734.050462" y="407.568233" width="76.4" height="258.33"></rect>
                <rect id="Rectangle" fill="#73B53B" fill-rule="nonzero" transform="translate(780.123157, 439.068604) rotate(4.600000) translate(-780.123157, -439.068604) " x="753.118157" y="412.063604" width="54.01" height="54.01"></rect>
                <rect id="Rectangle" fill="#73B53B" fill-rule="nonzero" opacity="0.5" transform="translate(774.887875, 504.049823) rotate(4.600000) translate(-774.887875, -504.049823) " x="747.882875" y="477.044823" width="54.01" height="54.01"></rect>
                <rect id="Rectangle" fill="#73B53B" fill-rule="nonzero" opacity="0.3" transform="translate(769.661760, 569.051812) rotate(4.600000) translate(-769.661760, -569.051812) " x="742.65676" y="542.046812" width="54.01" height="54.01"></rect>
                <g id="Group" opacity="0.5" transform="translate(707.000000, 409.000000)" fill="url(#linearGradient-6)" fill-rule="nonzero">
                    <rect id="Rectangle" transform="translate(46.656117, 133.595524) rotate(-2.610000) translate(-46.656117, -133.595524) " x="6.47611698" y="2.67052403" width="80.36" height="261.85"></rect>
                </g>
                <rect id="Rectangle" fill="#FFFFFF" fill-rule="nonzero" transform="translate(754.314066, 542.565501) rotate(-2.610000) translate(-754.314066, -542.565501) " x="716.114066" y="413.400501" width="76.4" height="258.33"></rect>
                <rect id="Rectangle" fill="#6C63FF" fill-rule="nonzero" transform="translate(749.856037, 444.669917) rotate(-2.610000) translate(-749.856037, -444.669917) " x="722.851037" y="417.664917" width="54.01" height="54.01"></rect>
                <rect id="Rectangle" fill="#6C63FF" fill-rule="nonzero" opacity="0.5" transform="translate(755.088750, 507.648250) rotate(-2.862405) translate(-755.088750, -507.648250) " x="728.050015" y="480.609515" width="54.0774704" height="54.0774704"></rect>
                <rect id="Rectangle" fill="#6C63FF" fill-rule="nonzero" opacity="0.3" transform="translate(755.792035, 574.944743) rotate(-2.610000) translate(-755.792035, -574.944743) " x="728.787035" y="547.939743" width="54.01" height="54.01"></rect>
                <path d="M742.68,755.71 L674.8,781.97 L575.59,820.32 C571.84,813.32 566.32,803.86 559.49,792.57 C535.99,753.63 497.11,693.06 462.49,639.83 C423.49,579.83 389.92,529.2 389.92,529.2 L414.22,522.2 L612.72,464.57 L742.68,755.71 Z" id="Path" fill="#E6ECF8" fill-rule="nonzero"></path>
                <path d="M742.68,755.71 L674.8,781.97 C636.880351,789.870125 598.18439,793.426369 559.46,792.57 C535.96,753.63 497.08,693.06 462.46,639.83 L414.23,522.16 L612.72,464.57 L742.68,755.71 Z" id="Path" fill="#000000" fill-rule="nonzero" opacity="0.1"></path>
                <path d="M793.18,739.37 C793.18,739.37 687.73,801.75 530.29,787.64 L404.78,481.64 L464.93,471.3 L672.87,435.59 L790.87,733.42 L793.18,739.37 Z" id="Path" fill="#6C63FF" fill-rule="nonzero"></path>
                <path d="M790.83,733.46 C766,734.68 737.27,734.56 708.37,731.11 C677.09,727.43 645.63,719.85 618.66,705.95 C596.11,694.34 576.83,681.71 560.02,666.56 C516.29,627.23 489.23,570.97 464.93,471.34 L672.87,435.63 L790.83,733.46 Z" id="Path" fill="#000000" fill-rule="nonzero" opacity="0.1"></path>
                <path d="M868.19,716.35 C868.19,716.35 790.46,731.57 711.34,722.2 C680.06,718.52 648.6,710.94 621.63,697.04 C599.08,685.43 579.81,672.8 562.99,657.65 C508.87,608.96 480.29,534.34 450.82,383.65 C450.82,383.65 580.04,414.84 707.82,346.52 C707.78,346.57 750.85,615.35 868.19,716.35 Z" id="Path" fill="#F9FAFB" fill-rule="nonzero"></path>
                <path d="M711.34,722.2 C680.06,718.52 648.6,710.94 621.63,697.04 C599.08,685.43 579.81,672.8 562.99,657.65 C609.07,653.91 615.69,628.72 615.69,628.72 C649.85,682.93 711.34,722.2 711.34,722.2 Z" id="Path" fill="#000000" fill-rule="nonzero" opacity="0.1"></path>
                <path d="M517.66,438.97 C517.66,438.97 622.74,433.03 652.08,410.38 L656.53,424.68 C656.53,424.68 587.1,455.31 517.66,455.68 L517.66,438.97 Z" id="Path" fill="#6C63FF" fill-rule="nonzero" opacity="0.3"></path>
                <path d="M517.66,509.57 C517.66,509.57 619.4,504 696.27,466.87 L698.87,472.81 C698.87,472.81 637.87,508.42 517.66,517.74 L517.66,509.57 Z" id="Path" fill="#6C63FF" fill-rule="nonzero" opacity="0.3"></path>
                <path d="M525.85,537.08 C525.85,537.08 627.59,531.51 704.45,494.38 L707.05,500.32 C707.05,500.32 646.05,535.92 525.85,545.25 L525.85,537.08 Z" id="Path" fill="#6C63FF" fill-rule="nonzero" opacity="0.3"></path>
                <path d="M534.03,564.63 C534.03,564.63 635.77,559.06 712.64,521.93 L715.23,527.87 C715.23,527.87 654.23,563.48 534.03,572.8 L534.03,564.63 Z" id="Path" fill="#6C63FF" fill-rule="nonzero" opacity="0.3"></path>
                <path d="M542.22,592.18 C542.22,592.18 643.96,586.61 720.82,549.48 L723.42,555.42 C723.42,555.42 662.42,591.03 542.22,600.35 L542.22,592.18 Z" id="Path" fill="#6C63FF" fill-rule="nonzero" opacity="0.3"></path>
                <path d="M550.4,619.74 C550.4,619.74 652.14,614.17 729.01,577.04 L731.6,582.98 C731.6,582.98 670.6,618.58 550.4,627.91 L550.4,619.74 Z" id="Path" fill="#6C63FF" fill-rule="nonzero" opacity="0.3"></path>
                <path d="M1265.77,961.81 C1265.77,961.81 1223.49,959.26 1228.47,988.89 C1228.47,988.89 1227.47,994.12 1232.23,996.5 C1232.23,996.5 1232.3,994.3 1236.56,995.05 C1238.07918,995.305525 1239.62337,995.379377 1241.16,995.27 C1243.23341,995.131056 1245.20407,994.316094 1246.77,992.95 L1246.77,992.95 C1246.77,992.95 1258.66,988.04 1263.28,968.62 C1263.28,968.62 1266.7,964.38 1266.56,963.29 L1259.43,966.29 C1259.43,966.29 1261.87,971.44 1259.95,975.71 C1259.95,975.71 1259.72,966.48 1258.35,966.71 C1258.07,966.71 1254.64,968.49 1254.64,968.49 C1254.64,968.49 1258.83,977.49 1255.64,983.97 C1255.64,983.97 1256.84,972.92 1253.3,969.14 L1248.3,972.07 C1248.3,972.07 1253.2,981.33 1249.88,988.89 C1249.88,988.89 1250.73,977.3 1247.24,972.78 L1242.69,976.33 C1242.69,976.33 1247.3,985.46 1244.49,991.73 C1244.49,991.73 1244.12,978.23 1241.7,977.21 C1241.7,977.21 1237.7,980.72 1237.12,982.21 C1237.12,982.21 1240.27,988.83 1238.31,992.33 C1238.31,992.33 1237.11,983.33 1236.13,983.33 C1236.13,983.33 1232.13,989.33 1231.75,993.33 C1231.75,993.33 1231.92,987.25 1235.17,982.72 C1232.88041,983.157205 1230.76771,984.251775 1229.09,985.87 C1229.09,985.87 1229.71,981.65 1236.15,981.29 C1236.15,981.29 1239.43,976.77 1240.3,976.49 C1240.3,976.49 1233.9,975.96 1230.02,977.68 C1230.02,977.68 1233.44,973.68 1241.48,975.51 L1245.97,971.85 C1245.97,971.85 1237.54,970.69 1233.97,971.97 C1233.97,971.97 1238.08,968.45 1247.18,970.97 L1252.07,968.05 C1252.07,968.05 1244.89,966.5 1240.61,967.05 C1240.61,967.05 1245.12,964.61 1253.51,967.25 L1257,965.68 C1257,965.68 1251.74,964.68 1250.2,964.48 C1248.66,964.28 1248.57,963.9 1248.57,963.9 C1251.90475,963.337601 1255.33032,963.718605 1258.46,965 C1258.46,965 1265.89,962.28 1265.77,961.81 Z" id="Path" fill="#6C63FF" fill-rule="nonzero"></path>
                <ellipse id="Oval" fill="#6C63FF" fill-rule="nonzero" opacity="0.1" cx="1236.65" cy="999.08" rx="29.92" ry="5.06"></ellipse>
                <ellipse id="Oval" fill="#6C63FF" fill-rule="nonzero" opacity="0.1" cx="1026.75" cy="980.19" rx="102" ry="9.24"></ellipse>
                <path d="M1285.46,864 C1285.46,864 1261.63,862.56 1264.46,879.27 C1264.16086,881.005934 1265.01241,882.737287 1266.57,883.56 C1266.57,883.56 1266.62,882.32 1269.02,882.74 C1269.87569,882.880948 1270.74494,882.921222 1271.61,882.86 C1272.77729,882.784462 1273.88748,882.327737 1274.77,881.56 L1274.77,881.56 C1274.77,881.56 1281.47,878.79 1284.08,867.84 C1284.08,867.84 1286.01,865.45 1285.93,864.84 L1281.93,866.55 C1281.93,866.55 1283.3,869.46 1282.22,871.87 C1282.22,871.87 1282.09,866.66 1281.32,866.78 C1281.16,866.78 1279.23,867.78 1279.23,867.78 C1279.23,867.78 1281.59,872.78 1279.81,876.51 C1279.81,876.51 1280.49,870.28 1278.49,868.14 L1275.66,869.8 C1275.66,869.8 1278.42,875.02 1276.55,879.28 C1276.55,879.28 1277.03,872.74 1275.06,870.2 L1272.5,872.2 C1272.5,872.2 1275.09,877.35 1273.5,880.88 C1273.5,880.88 1273.29,873.27 1271.93,872.7 C1270.95871,873.523614 1270.08923,874.460242 1269.34,875.49 C1269.34,875.49 1271.12,879.23 1270.02,881.2 C1270.02,881.2 1269.34,876.13 1268.79,876.11 C1268.79,876.11 1266.55,879.46 1266.32,881.76 C1266.42854,879.625814 1267.09394,877.557233 1268.25,875.76 C1266.95666,876.003579 1265.7637,876.622668 1264.82,877.54 C1264.82,877.54 1265.17,875.16 1268.82,874.96 C1268.82,874.96 1270.67,872.41 1271.16,872.25 C1271.16,872.25 1267.55,871.95 1265.36,872.92 C1265.36,872.92 1267.29,870.68 1271.82,871.7 L1274.36,869.63 C1274.36,869.63 1269.6,868.98 1267.59,869.7 C1267.59,869.7 1269.91,867.7 1275.04,869.16 L1277.8,867.51 C1275.67657,867.045157 1273.50143,866.860253 1271.33,866.96 C1271.33,866.96 1273.88,865.58 1278.6,867.07 L1280.6,866.19 C1280.6,866.19 1277.6,865.6 1276.76,865.51 C1275.92,865.42 1275.84,865.18 1275.84,865.18 C1277.72156,864.86703 1279.65304,865.081639 1281.42,865.8 C1281.42,865.8 1285.54,864.26 1285.46,864 Z" id="Path" fill="#6C63FF" fill-rule="nonzero"></path>
                <ellipse id="Oval" fill="#6C63FF" fill-rule="nonzero" opacity="0.1" cx="1269.06" cy="885.01" rx="16.87" ry="2.85"></ellipse>
                <path d="M1144.78,878.5 C1144.78,878.5 1116,876.76 1119.4,896.93 C1119.03776,899.026805 1120.06736,901.118298 1121.95,902.11 C1121.95,902.11 1121.95,900.61 1124.95,901.11 C1125.98361,901.284672 1127.03442,901.33503 1128.08,901.26 C1129.49202,901.165961 1130.8341,900.610861 1131.9,899.68 L1131.9,899.68 C1131.9,899.68 1139.99,896.34 1143.14,883.12 C1143.14,883.12 1145.47,880.24 1145.37,879.49 L1140.46,881.57 C1140.46,881.57 1142.12,885.07 1140.81,887.98 C1140.81,887.98 1140.65,881.7 1139.72,881.84 C1139.53,881.84 1137.2,883.06 1137.2,883.06 C1137.2,883.06 1140.05,889.16 1137.9,893.6 C1137.9,893.6 1138.72,886.08 1136.31,883.5 L1132.89,885.5 C1132.89,885.5 1136.22,891.81 1133.96,896.95 C1133.96,896.95 1134.54,889.06 1132.17,885.95 L1129.07,888.37 C1129.07,888.37 1132.21,894.58 1130.29,898.85 C1130.29,898.85 1130.05,889.66 1128.4,888.97 C1128.4,888.97 1125.69,891.36 1125.28,892.34 C1125.28,892.34 1127.42,896.85 1126.09,899.23 C1126.09,899.23 1125.27,893.11 1124.6,893.08 C1124.6,893.08 1121.91,897.14 1121.6,899.91 C1121.73478,897.341514 1122.53794,894.852745 1123.93,892.69 C1122.37258,892.98702 1120.93658,893.734577 1119.8,894.84 C1119.8,894.84 1120.22,891.97 1124.6,891.72 C1124.6,891.72 1126.83,888.64 1127.43,888.46 C1127.43,888.46 1123.07,888.09 1120.43,889.26 C1120.43,889.26 1122.75,886.56 1128.22,887.79 L1131.28,885.29 C1131.28,885.29 1125.55,884.51 1123.11,885.37 C1123.11,885.37 1125.91,882.98 1132.11,884.73 L1135.44,882.73 C1135.44,882.73 1130.55,881.68 1127.63,882.06 C1127.63,882.06 1130.71,880.4 1136.41,882.2 L1138.79,881.13 C1138.79,881.13 1135.21,880.43 1134.16,880.32 C1133.11,880.21 1133.06,879.92 1133.06,879.92 C1135.32848,879.535455 1137.65927,879.791738 1139.79,880.66 C1139.79,880.66 1144.87,878.81 1144.78,878.5 Z" id="Path" fill="#6C63FF" fill-rule="nonzero"></path>
                <ellipse id="Oval" fill="#6C63FF" fill-rule="nonzero" opacity="0.1" cx="1124.96" cy="903.87" rx="20.37" ry="3.44"></ellipse>
                <ellipse id="Oval" fill="#6C63FF" fill-rule="nonzero" opacity="0.1" cx="267.65" cy="984" rx="29.92" ry="5.06"></ellipse>
                <path d="M247.56,960.49 C247.56,960.49 264.62,959.97 269.77,956.31 C274.92,952.65 296.02,948.31 297.3,954.14 C298.58,959.97 322.95,983.36 303.68,983.52 C284.41,983.68 258.91,980.52 253.77,977.39 C248.63,974.26 247.56,960.49 247.56,960.49 Z" id="Path" fill="#A8A8A8" fill-rule="nonzero"></path>
                <path d="M304.02,981.47 C284.75,981.63 259.25,978.47 254.11,975.34 C250.21,972.96 248.65,964.41 248.11,960.47 L247.54,960.47 C247.54,960.47 248.62,974.24 253.75,977.37 C258.88,980.5 284.46,983.67 303.68,983.57 C309.24,983.52 311.16,981.57 311.06,978.57 C310.28,980.33 308.16,981.44 304.02,981.47 Z" id="Path" fill="#000000" fill-rule="nonzero" opacity="0.2"></path>
                <rect id="Rectangle" fill="url(#linearGradient-7)" fill-rule="nonzero" transform="translate(1174.321442, 293.368597) rotate(-71.990000) translate(-1174.321442, -293.368597) " x="1088.98644" y="140.658597" width="170.67" height="305.42"></rect>
                <rect id="Rectangle" fill="#F6F7F9" fill-rule="nonzero" transform="translate(1174.319896, 293.373352) rotate(-71.990000) translate(-1174.319896, -293.373352) " x="1090.1599" y="142.773352" width="168.32" height="301.2"></rect>
                <g id="Group" opacity="0.2" transform="translate(1056.000000, 224.000000)" fill="#6C63FF" fill-rule="nonzero">
                    <circle id="Oval" cx="31.94" cy="31.37" r="31.36"></circle>
                </g>
                <g id="Group" opacity="0.2" transform="translate(1162.000000, 241.000000)" fill="#6C63FF" fill-rule="nonzero">
                    <rect id="Rectangle" transform="translate(67.267021, 25.761611) rotate(-71.990000) translate(-67.267021, -25.761611) " x="62.9720213" y="-42.5533888" width="8.59" height="136.63"></rect>
                </g>
                <g id="Group" opacity="0.2" transform="translate(1156.000000, 262.000000)" fill="#6C63FF" fill-rule="nonzero">
                    <rect id="Rectangle" transform="translate(34.621943, 15.227042) rotate(-71.990000) translate(-34.621943, -15.227042) " x="30.3269429" y="-19.5729578" width="8.59" height="69.6"></rect>
                </g>
                <g id="Group" opacity="0.2" transform="translate(1149.000000, 283.000000)" fill="#6C63FF" fill-rule="nonzero">
                    <rect id="Rectangle" transform="translate(55.271086, 21.710659) rotate(-71.990000) translate(-55.271086, -21.710659) " x="50.9760861" y="-34.5743405" width="8.59" height="112.57"></rect>
                </g>
                <g id="Group" opacity="0.2" transform="translate(1142.000000, 304.000000)" fill="#6C63FF" fill-rule="nonzero">
                    <rect id="Rectangle" transform="translate(66.941594, 25.263011) rotate(-71.990000) translate(-66.941594, -25.263011) " x="62.6465937" y="-43.0519885" width="8.59" height="136.63"></rect>
                </g>
                <g id="Group" opacity="0.5" transform="translate(1224.000000, 364.000000)" fill="#6C63FF" fill-rule="nonzero">
                    <rect id="Rectangle" transform="translate(20.914192, 14.434884) rotate(-71.990000) translate(-20.914192, -14.434884) " x="12.6091918" y="-4.47011557" width="16.61" height="37.81"></rect>
                </g>
                <path d="M1147.97,647.96 C1147.95503,647.625085 1147.92165,647.291247 1147.87,646.96 C1147.87,646.61 1147.76,646.26 1147.7,645.96 C1147.57,645.28 1147.43,644.61 1147.27,643.96 C1147.19,643.65 1147.11,643.33 1147.02,643.03 C1146.07297,639.482731 1144.36701,636.183391 1142.02,633.36 C1141.89,633.2 1141.75,633.05 1141.62,632.9 C1141.49,632.75 1141.08,632.32 1140.81,632.05 C1140.54,631.78 1140.29,631.54 1140.03,631.31 C1139.77,631.08 1139.53,630.87 1139.29,630.67 C1138.81,630.28 1138.36,629.95 1137.97,629.67 C1137.58,629.39 1137.4,629.29 1137.16,629.15 C1136.58713,628.807996 1135.94454,628.599497 1135.28,628.54 L1131.13,628.13 L1131.13,628.13 L1125.46,627.57 L1105.19,619.7 L1104.39,619.98 C1103.79576,618.34307 1103.29495,616.673716 1102.89,614.98 C1103.504,614.714357 1104.05072,614.314573 1104.49,613.81 C1104.96791,613.438486 1105.34593,612.953943 1105.59,612.4 C1106.1,611.22 1105.12,608.71 1105.32,607.27 C1105.64,604.96 1106.84,602.73 1107.82,600.64 C1109.9,596.15 1111.42,591.28 1111.17,586.35 C1110.92,581.42 1108.67,576.42 1104.51,573.67 C1102.36,572.24 1099.83,571.48 1097.59,570.18 C1095.85,569.18 1094.32,567.84 1092.66,566.7 C1084.35495,561.163024 1073.74947,560.40332 1064.74,564.7 C1060.53,566.77 1056.94,569.87 1052.97,572.36 C1049,574.85 1044.32,576.76 1039.67,576.02 C1039.60565,576.208632 1039.55878,576.402783 1039.53,576.6 L1039.14,576.55 C1038.34,578.73 1040.3,580.89 1042.14,582.38 C1045.57,585.21 1049.46,588.03 1053.93,588.13 C1055.66,588.13 1057.49,587.8 1059.06,588.51 C1059.41695,588.66771 1059.75287,588.869261 1060.06,589.11 C1058.03081,597.240636 1060.73549,605.822227 1067.06,611.32 L1056.71,607.6 C1056.71,607.6 1056.28,607.82 1055.61,608.24 L1041.25,598.68 C1041.25,598.68 1012.46,588.24 1004.46,604.5 C996.46,620.76 1039.13,612.37 1039.13,612.37 L1048.26,617.37 C1047.95293,619.257315 1048.30612,621.192785 1049.26,622.85 L1074.15,638.23 C1069.15,639.78 1060.86,642.23 1059.39,642.23 C1057.26,642.23 1051.39,644.33 1047.66,652.72 C1043.93,661.11 1030.59,702.04 1018.86,708.86 C1007.13,715.68 976.2,761.33 976.2,761.33 L976.34,761.69 C975.79,761.84 975.25,761.99 974.72,762.17 C968.224843,764.42474 962.603068,768.664685 958.65,774.29 C957.583654,775.772062 957.383556,777.708568 958.124326,779.377358 C958.865096,781.046149 960.435536,782.196719 962.25,782.4 C974.46,783.95 981.13,778.32 984.34,774.07 C984.55,773.8 984.74,773.53 984.92,773.26 C985.870056,773.6684 986.936039,773.718146 987.92,773.4 L1002.85,761.33 C1002.85,761.33 991.17,772.83 998.02,783.33 L997.5,784.06 C985.953867,800.544408 977.484228,818.981119 972.5,838.48 C972.5,838.48 966.1,843.2 965.57,862.09 C965.04,880.98 958.63,911.41 958.63,911.41 C958.63,911.41 954.37,947.62 957.03,958.63 C957.03,958.63 957.34,959.07 957.91,959.74 C957.71,959.98 957.49,960.24 957.25,960.5 C954.92,963.02 950.72,966.5 945.83,965.5 C938.37,963.92 938.37,977.04 949.03,978.09 C955.9,978.76 969.4,981.83 978.15,983.93 C980.084432,984.417866 982.135272,983.933862 983.64746,982.632584 C985.159649,981.331306 985.944006,979.375548 985.75,977.39 C985.23,972.69 984.28,967 982.55,962.95 C982.44,962.7 982.33,962.45 982.22,962.22 C982.53,961.92 982.85,961.62 983.16,961.3 C983.16,961.3 983.16,938.21 986.9,931.92 C986.9,931.92 997.03,884.17 996.49,872.1 C996.08,862.66 1022.78,825.89 1034.4,810.36 L1034.3,809.77 C1037.3,805.77 1039.16,803.37 1039.16,803.37 L1048.15,860.57 C1048.15,860.57 1052.42,873.16 1057.75,879.98 C1057.75,879.98 1080.68,923.53 1083.35,937.17 C1085.35,947.52 1089.53,953.63 1091.43,955.99 L1090.74,956.65 C1088.31,958.88 1084.74,961.11 1080.68,960.26 C1073.22,958.68 1073.22,971.8 1083.88,972.85 C1090.75,973.53 1104.25,976.6 1112.99,978.7 C1114.92712,979.187671 1116.9804,978.702518 1118.49439,977.399409 C1120.00839,976.0963 1120.79383,974.13814 1120.6,972.15 C1119.99,966.69 1118.8,959.9 1116.5,955.89 C1116.31417,955.5463 1116.11056,955.212514 1115.89,954.89 C1116.70308,954.565251 1117.42904,954.055023 1118.01,953.4 C1118.01,953.4 1104.14,920.34 1104.14,911.4 C1104.14,911.4 1098.28,877.3 1078.55,864.71 C1078.55,864.71 1080.41,822.05 1086.03,798.31 C1086.17,797.73 1086.31,797.15 1086.45,796.59 C1091.68767,795.771356 1096.88089,794.689992 1102.01,793.35 L1102.54,777.61 L1105.21,790.2 L1135.07,771.84 C1135.07,771.84 1134.81,768.53 1134.31,763.46 C1134.05,760.92 1133.74,757.94 1133.37,754.71 C1133.07,752.13 1132.73,749.39 1132.37,746.59 C1132.27,745.89 1132.18,745.18 1132.08,744.48 C1131.69,741.65 1131.26,738.79 1130.8,735.99 C1130.62,734.936667 1130.44,733.896667 1130.26,732.87 C1130.01,731.5 1129.76,730.16 1129.5,728.87 C1129.37,728.22 1129.23,727.57 1129.1,726.94 C1128.97,726.31 1128.82,725.68 1128.68,725.07 C1128.54,724.46 1128.4,723.87 1128.26,723.28 C1128.18,722.99 1128.11,722.7 1128.04,722.42 C1127.89,721.85 1127.74,721.29 1127.59,720.75 C1126.96413,718.506371 1126.60169,716.197484 1126.51,713.87 C1126.51,712.95 1126.51,712.02 1126.51,711.1 C1126.51,710.18 1126.65,709.26 1126.78,708.34 C1126.84,707.89 1126.92,707.43 1127.01,706.98 C1127.349,705.151064 1127.85443,703.356937 1128.52,701.62 C1128.85,700.75 1129.23,699.89 1129.64,699.04 C1130.64,697.04 1131.64,694.91 1132.7,692.64 C1133.24,691.51 1133.78,690.35 1134.32,689.17 C1134.86,687.99 1135.41,686.79 1135.96,685.57 C1141.15,674 1146.27,661.11 1147.64,652.64 C1147.78,651.75 1147.89,650.91 1147.94,650.12 C1147.99841,649.401486 1148.00843,648.679858 1147.97,647.96 Z" id="Path" fill="url(#linearGradient-8)" fill-rule="nonzero"></path>
                <path d="M1058.9,616.57 L1041.31,604.68 C1041.31,604.68 1013.38,594.33 1005.62,610.37 C997.86,626.41 1039.24,618.13 1039.24,618.13 L1056.83,627.95 L1058.9,616.57 Z" id="Path" fill="#AE6E79" fill-rule="nonzero"></path>
                <rect id="Rectangle" fill="#F9FAFB" fill-rule="nonzero" transform="translate(1023.709200, 715.276600) rotate(-57.264774) translate(-1023.709200, -715.276600) " x="939.587219" y="584.320325" width="168.243963" height="261.912551"></rect>
                <rect id="Rectangle" fill="#B7B6CC" fill-rule="nonzero" transform="translate(918.197697, 688.266004) rotate(-57.570000) translate(-918.197697, -688.266004) " x="894.397697" y="682.666004" width="47.6" height="11.2"></rect>
                <rect id="Rectangle" fill="#B7B6CC" fill-rule="nonzero" transform="translate(963.289355, 672.125216) rotate(-57.570000) translate(-963.289355, -672.125216) " x="911.019355" y="666.990216" width="104.54" height="10.27"></rect>
                <rect id="Rectangle" fill="#B7B6CC" fill-rule="nonzero" transform="translate(981.807049, 683.879982) rotate(-57.570000) translate(-981.807049, -683.879982) " x="929.537049" y="678.744982" width="104.54" height="10.27"></rect>
                <rect id="Rectangle" fill="#B7B6CC" fill-rule="nonzero" transform="translate(1000.319381, 695.653189) rotate(-57.570000) translate(-1000.319381, -695.653189) " x="948.049381" y="690.518189" width="104.54" height="10.27"></rect>
                <rect id="Rectangle" fill="#B7B6CC" fill-rule="nonzero" transform="translate(1019.650600, 712.942300) rotate(-57.264774) translate(-1019.650600, -712.942300) " x="967.453829" y="707.814494" width="104.393541" height="10.2556119"></rect>
                <rect id="Rectangle" fill="#FFFFFF" fill-rule="nonzero" transform="translate(1037.347847, 719.176524) rotate(-57.570000) translate(-1037.347847, -719.176524) " x="985.077847" y="714.041524" width="104.54" height="10.27"></rect>
                <rect id="Rectangle" fill="#FFFFFF" fill-rule="nonzero" transform="translate(1055.865541, 730.931290) rotate(-57.570000) translate(-1055.865541, -730.931290) " x="1003.59554" y="725.79629" width="104.54" height="10.27"></rect>
                <rect id="Rectangle" fill="#B7B6CC" fill-rule="nonzero" transform="translate(1119.924268, 718.006525) rotate(-57.570000) translate(-1119.924268, -718.006525) " x="1106.38927" y="704.471525" width="27.07" height="27.07"></rect>
                <path d="M1110.93,979.21 C1102.44,977.14 1089.35,974.12 1082.69,973.45 C1072.34,972.45 1072.34,959.45 1079.59,961.03 C1083.51,961.88 1086.99,959.67 1089.34,957.48 C1090.05341,956.794101 1090.72148,956.062559 1091.34,955.29 C1092.19506,954.250195 1093.37497,953.528161 1094.69,953.24 C1098.57,952.4 1106.69,951.12 1111.6,953.79 C1112.74795,954.5034 1113.67564,955.521089 1114.28,956.73 C1116.51,960.73 1117.67,967.38 1118.28,972.73 C1118.48841,974.66683 1117.74356,976.584288 1116.28234,977.872541 C1114.82113,979.160795 1112.82544,979.659482 1110.93,979.21 L1110.93,979.21 Z" id="Path" fill="#BEBED0" fill-rule="nonzero"></path>
                <path d="M980.06,984.38 C971.58,982.31 958.49,979.29 951.83,978.62 C941.48,977.62 941.48,964.62 948.72,966.21 C953.46,967.21 957.54,963.8 959.79,961.32 C960.07,961.02 960.32,960.73 960.53,960.46 C961.390098,959.440638 962.565321,958.736912 963.87,958.46 C967.75,957.61 975.87,956.33 980.79,959.01 C982.25,959.79 983.41,961.51 984.34,963.74 C986.01,967.74 986.93,973.34 987.44,977.97 C987.626809,979.901824 986.867637,981.80469 985.402346,983.077389 C983.937055,984.350088 981.94665,984.835403 980.06,984.38 Z" id="Path" fill="#BEBED0" fill-rule="nonzero"></path>
                <path d="M984.34,963.7 C971.99,976.43 961.4,963.46 959.79,961.32 C960.07,961.02 960.32,960.73 960.53,960.46 C961.390098,959.440638 962.565321,958.736912 963.87,958.46 C967.75,957.61 975.87,956.33 980.79,959.01 C982.25,959.75 983.46,961.47 984.34,963.7 Z" id="Path" fill="#000000" fill-rule="nonzero" opacity="0.1"></path>
                <path d="M1114.33,956.73 C1108.98,960.38 1090.97,959.48 1090.97,959.48 C1090.3765,958.855843 1089.83158,958.187228 1089.34,957.48 C1090.05341,956.794101 1090.72148,956.062559 1091.34,955.29 C1092.19506,954.250195 1093.37497,953.528161 1094.69,953.24 C1098.57,952.4 1106.69,951.12 1111.6,953.79 C1112.76639,954.496209 1113.71201,955.514568 1114.33,956.73 Z" id="Path" fill="#000000" fill-rule="nonzero" opacity="0.1"></path>
                <path d="M1115.28,954.31 C1111.65,958.97 1090.97,957.93 1090.97,957.93 C1090.97,957.93 1084.76,951.72 1082.17,938.28 C1079.58,924.84 1057.34,881.9 1057.34,881.9 C1052.17,875.17 1048.03,862.76 1048.03,862.76 L1039.24,806.38 C1039.24,806.38 996.83,862.24 997.35,874.14 C997.87,886.04 988.03,933.14 988.03,933.14 C984.41,939.35 984.41,962.14 984.41,962.14 C970.97,976.14 959.59,959.55 959.59,959.55 C957,948.69 961.14,913 961.14,913 C961.14,913 967.35,883 967.86,864.38 C968.37,845.76 974.59,841.11 974.59,841.11 C979.420555,821.917467 987.646899,803.744325 998.88,787.45 C1002,782.98 1004.07,780.59 1004.07,780.59 L1087.86,790.42 C1086.25326,793.975505 1085.04588,797.698269 1084.26,801.52 C1078.81,824.92 1077,866.97 1077,866.97 C1096.14,879.38 1101.83,912.97 1101.83,912.97 C1101.83,921.72 1115.28,954.31 1115.28,954.31 Z" id="Path" fill="#5C5C8E" fill-rule="nonzero"></path>
                <g id="Group" opacity="0.05" transform="translate(970.000000, 780.000000)" fill="#000000" fill-rule="nonzero">
                    <path d="M64.63,33.27 L63.55,26.38 C63.55,26.38 21.14,82.24 21.66,94.14 C22.18,106.04 12.35,153.14 12.35,153.14 C8.72,159.35 8.72,182.14 8.72,182.14 C6.55435328,184.583887 3.75420129,186.380276 0.63,187.33 C4.7,188.4 9.63,187.61 14.93,182.14 C14.93,182.14 14.93,159.38 18.55,153.14 C18.55,153.14 28.38,106.07 27.86,94.14 C27.46,84.83 53.35,48.57 64.63,33.27 Z" id="Path"></path>
                    <path d="M132.34,132.93 C132.34,132.93 126.65,99.31 107.52,86.93 C107.52,86.93 109.33,44.88 114.77,21.48 C115.558689,17.6577639 116.769444,13.9349442 118.38,10.38 L34.59,0.57 C34.59,0.57 34.39,0.79 34.03,1.23 L112.17,10.4 C110.563259,13.9555047 109.355876,17.6782689 108.57,21.5 C103.12,44.9 101.31,86.95 101.31,86.95 C120.45,99.36 126.14,132.95 126.14,132.95 C126.14,141.74 139.59,174.33 139.59,174.33 C137.45,177.07 129.39,177.84 123.12,178.01 C128.12,178.14 142.79,178.19 145.79,174.33 C145.79,174.31 132.34,141.72 132.34,132.93 Z" id="Path"></path>
                </g>
                <path d="M988.55,773.28 C987.923769,774.807548 987.100092,776.246461 986.1,777.56 C982.99,781.75 976.52,787.29 964.68,785.77 C962.905598,785.542592 961.380833,784.400389 960.663802,782.761462 C959.946772,781.122534 960.142748,779.227506 961.18,777.77 C964.981122,772.225991 970.437866,768.025803 976.77,765.77 C978.912432,765.062916 981.131342,764.613092 983.38,764.43 L988.55,773.28 Z" id="Path" fill="#AE6E79" fill-rule="nonzero"></path>
                <path d="M1097.79,628.62 L1056.31,613.45 C1056.31,613.45 1044.41,619.66 1049.07,628.45 L1089.46,653.8 L1097.79,628.62 Z" id="Path" fill="#42383C" fill-rule="nonzero"></path>
                <path d="M1097.95,628.79 L1056.46,613.62 C1056.46,613.62 1044.56,619.82 1049.22,628.62 L1089.56,653.96 L1097.95,628.79 Z" id="Path" fill="#000000" fill-rule="nonzero" opacity="0.1"></path>
                <path d="M1099.24,603.62 C1099.24,603.62 1098.72,627.93 1109.59,636.21 C1120.46,644.49 1078.03,649.14 1078.03,649.14 C1078.03,649.14 1084.76,624.31 1078.03,611.38 C1071.3,598.45 1099.24,603.62 1099.24,603.62 Z" id="Path" fill="#AE6E79" fill-rule="nonzero"></path>
                <path d="M1087.86,790.35 C1086.25326,793.905505 1085.04588,797.628269 1084.26,801.45 C1034.26,809.09 999.41,788.28 999.41,788.28 C999.22,787.98 999.04,787.68 998.88,787.38 C1002,782.91 1004.07,780.52 1004.07,780.52 L1087.86,790.35 Z" id="Path" fill="#000000" fill-rule="nonzero" opacity="0.1"></path>
                <path d="M988.55,773.28 C987.923769,774.807548 987.100092,776.246461 986.1,777.56 C981.31,776.76 977.48,767.56 976.77,765.82 C978.912432,765.112916 981.131342,764.663092 983.38,764.48 L988.55,773.28 Z" id="Path" fill="#000000" fill-rule="nonzero" opacity="0.1"></path>
                <path d="M1103.38,625.35 L1084.76,632.07 L1077,642.42 C1077,642.42 1061,647.59 1058.9,647.59 C1056.8,647.59 1051.14,649.66 1047.52,657.93 C1043.9,666.2 1030.97,706.57 1019.59,713.28 C1008.21,719.99 978.21,765 978.21,765 C978.21,765 983.38,779 989.59,776.9 L1004.07,765 C1004.07,765 992.69,776.38 999.41,786.73 C999.41,786.73 1041.83,812.07 1100.28,796.55 L1100.79,781.04 L1103.38,793.45 L1132.38,775.35 C1132.38,775.35 1129.79,741.96 1125.12,724.97 C1123.18559,717.82544 1123.8958,710.222672 1127.12,703.56 C1134.63,687.91 1146.22,661.77 1144.81,652.24 C1143.14,641.01 1136.81,636.13 1134.37,634.66 C1133.81675,634.322754 1133.19474,634.114275 1132.55,634.05 L1123.08,633.11 L1103.38,625.35 Z" id="Path" fill="#42383C" fill-rule="nonzero"></path>
                <path d="M1071.57,677.33 C1071.57,677.33 1061.22,725.43 1049.84,733.19 C1038.46,740.95 1007.95,765.78 1006.91,769.92" id="Path" fill="#000000" fill-rule="nonzero" opacity="0.05"></path>
                <path d="M1066.91,675.78 C1066.91,675.78 1056.57,723.88 1045.19,731.64 C1033.81,739.4 1003.29,764.23 1002.26,768.36" id="Path" fill="#42383C" fill-rule="nonzero"></path>
                <path d="M1076.74,642.16 C1076.74,642.16 1112.43,630.26 1122.74,633.36" id="Path" fill="#000000" fill-rule="nonzero" opacity="0.1"></path>
                <g id="Group" opacity="0.05" transform="translate(1101.000000, 625.000000)" fill="#000000" fill-rule="nonzero">
                    <path d="M26.07,78.57 C33.58,62.92 45.17,36.78 43.76,27.25 C42.09,16.02 35.76,11.14 33.32,9.67 C32.766755,9.33275404 32.1447353,9.12427493 31.5,9.06 L27.5,8.66 C27.9239796,8.75700674 28.3293,8.92251256 28.7,9.15 C31.12,10.63 37.47,15.5 39.13,26.74 C40.54,36.26 28.95,62.41 21.45,78.06 C18.2264928,84.7193054 17.5162681,92.3187097 19.45,99.46 C24.13,116.46 26.72,149.84 26.72,149.84 L1.78,165.43 L2.41,168.43 L31.41,150.33 C31.41,150.33 28.82,116.94 24.15,99.95 C22.1982377,92.82432 22.8798825,85.2339209 26.07,78.57 L26.07,78.57 Z" id="Path"></path>
                    <polygon id="Path" points="17.38 7.59 21.86 8.04 2.38 0.35 0.63 0.98"></polygon>
                </g>
                <path d="M1066.91,725.95 C1066.91,725.95 1082.91,717.16 1088.12,719.23 C1093.33,721.3 1112.43,718.71 1112.43,718.71" id="Path" fill="#000000" fill-rule="nonzero" opacity="0.05"></path>
                <path d="M1097.46,610.09 C1096.87,604.9 1099.27,605.69 1099.27,605.69 C1099.27,605.69 1071.34,600.52 1078.06,613.45 C1079.75447,617.013029 1080.72003,620.878679 1080.9,624.820009 L1081.17,624.820009 C1088.93,624.83 1093.46,616.15 1097.46,610.09 Z" id="Path" fill="#000000" fill-rule="nonzero" opacity="0.05"></path>
                <circle id="Oval" fill="#AE6E79" fill-rule="nonzero" cx="1081.14" cy="600.52" r="22.24"></circle>
                <path d="M1105.46,607.1 C1107.46,602.67 1108.95,597.87 1108.71,593.01 C1108.47,588.15 1106.29,583.22 1102.25,580.5 C1100.17,579.1 1097.71,578.35 1095.54,577.07 C1093.85,576.07 1092.36,574.76 1090.75,573.64 C1082.73177,568.174982 1072.40409,567.412229 1063.67,571.64 C1059.59,573.64 1056.11,576.75 1052.26,579.2 C1048.41,581.65 1043.87,583.53 1039.36,582.81 C1038.58,584.96 1040.49,587.08 1042.24,588.56 C1045.57,591.35 1049.34,594.13 1053.68,594.22 C1055.36,594.22 1057.13,593.9 1058.68,594.6 C1059.70698,595.167029 1060.57915,595.977387 1061.22,596.96 C1063.3083,599.737065 1065.07932,602.739074 1066.5,605.91 C1066.93466,607.273291 1067.75424,608.481822 1068.86,609.39 C1070.86,610.67 1073.45,609.6 1075.86,609.51 C1079.54,609.36 1082.86,611.68 1085.58,614.16 C1088.3,616.64 1090.9,619.48 1094.34,620.79 C1096.91,621.79 1102.05,621.73 1103.34,618.66 C1103.83,617.5 1102.88,615.02 1103.08,613.6 C1103.56146,611.331542 1104.3628,609.143001 1105.46,607.1 Z" id="Path" fill="#000000" fill-rule="nonzero" opacity="0.1"></path>
                <path d="M1105.92,606.57 C1107.92,602.14 1109.42,597.34 1109.17,592.49 C1108.92,587.64 1106.76,582.69 1102.72,579.98 C1100.63,578.57 1098.17,577.82 1096.01,576.54 C1094.32,575.54 1092.83,574.24 1091.22,573.11 C1083.20177,567.644982 1072.87409,566.882229 1064.14,571.11 C1060.06,573.11 1056.58,576.21 1052.73,578.66 C1048.88,581.11 1044.34,583 1039.83,582.27 C1039.05,584.43 1040.95,586.55 1042.71,588.02 C1046.04,590.81 1049.81,593.59 1054.15,593.69 C1055.83,593.69 1057.6,593.36 1059.15,594.07 C1060.18117,594.631222 1061.05463,595.442782 1061.69,596.43 C1063.77827,599.201672 1065.54618,602.200752 1066.96,605.37 C1067.39845,606.734001 1068.2214,607.942395 1069.33,608.85 C1071.33,610.13 1073.92,609.06 1076.33,608.97 C1080.01,608.83 1083.33,611.15 1086.04,613.63 C1088.75,616.11 1091.36,618.94 1094.81,620.25 C1097.38,621.25 1102.52,621.19 1103.81,618.12 C1104.31,616.96 1103.36,614.48 1103.56,613.06 C1104.03579,610.795945 1104.83037,608.610839 1105.92,606.57 Z" id="Path" fill="#42383C" fill-rule="nonzero"></path>
                <path d="M944.92,935 C943.055081,936.53052 940.712482,937.358569 938.3,937.340306 L491.53,935.44 C489.106522,932.522742 487.995603,928.734037 488.46,924.97 L532.6,563.8 L560.28,563.5 C565.040696,563.452161 569.233112,566.625244 570.48,571.22 L575.65,590.3 C576.909654,594.94604 581.177541,598.132509 585.99,598.02 L696.46,595.37 C702.139037,595.234229 706.671623,590.590659 706.67,584.91 L706.67,572.27 C706.669623,566.539642 711.280019,561.87574 717.01,561.81 L870.09,560.159543 C875.143821,560.113083 879.508358,563.686364 880.46,568.65 L948.16,922.65 L948.6,924.93 C949.331358,928.709031 947.915656,932.582976 944.92,935 L944.92,935 Z" id="Path" fill="#000000" fill-rule="nonzero" opacity="0.1"></path>
                <path d="M865.09,565.169462 L712.01,566.82 C706.28,566.880259 701.665161,571.539685 701.66,577.27 L701.66,589.92 C701.656329,595.592981 697.13123,600.22899 691.46,600.37 L581,603.02 C576.182691,603.140821 571.907374,599.951889 570.65,595.3 L565.46,576.23 C564.215267,571.629522 560.015566,568.454039 555.25,568.51 L407.7,570.1 C404.640463,570.129965 401.747757,571.499296 399.785213,573.846653 C397.822668,576.19401 396.987466,579.283549 397.5,582.3 L456.86,931.66 C457.710791,936.673882 462.044488,940.349296 467.13,940.37 L933.27,942.37006 C936.393616,942.380537 939.358483,940.994523 941.353613,938.591079 C943.348743,936.187634 944.165326,933.018303 943.58,929.95 L875.46,573.66 C874.512048,568.694168 870.145246,565.119032 865.09,565.169462 L865.09,565.169462 Z" id="Path" fill="#E6E8EE" fill-rule="nonzero"></path>
                <path d="M1080.68,325.93 L1079.88,334.83 L1080.46,350.57 L1078.77,377.12 C1078.77,377.12 1078.53,388.75 1071.96,394.2 L1055.19,419.95 L1055.09,420 L1048.78,423.08 L1039.15,424.08 L1034.15,411.97 L1037.46,398.67 L1039.3,396.19 L1039.81,395.63 C1041.81,393.43 1049.53,385.44 1055.66,382.95 C1055.66,382.95 1059.75,379.95 1059.03,375.25 C1058.31,370.55 1064.55,345.57 1064.55,345.57 C1064.55,345.57 1068.55,329.05 1067.68,327.44 C1066.81,325.83 1067.52,289.26 1081.32,288.7 C1095.12,288.14 1080.68,325.93 1080.68,325.93 Z" id="Path" fill="#F6BAC2" fill-rule="nonzero"></path>
                <ellipse id="Oval" fill="#6C63FF" fill-rule="nonzero" opacity="0.1" cx="364.43" cy="865.88" rx="16.21" ry="2.23"></ellipse>
                <ellipse id="Oval" fill="#6C63FF" fill-rule="nonzero" opacity="0.1" cx="302.34" cy="872.17" rx="16.21" ry="2.23"></ellipse>
                <ellipse id="Oval" fill="#6C63FF" fill-rule="nonzero" opacity="0.1" cx="229.21" cy="863.65" rx="16.21" ry="2.23"></ellipse>
                <ellipse id="Oval" fill="#6C63FF" fill-rule="nonzero" opacity="0.1" cx="327.19" cy="890.1" rx="11.52" ry="1.58"></ellipse>
                <ellipse id="Oval" fill="#6C63FF" fill-rule="nonzero" opacity="0.1" cx="262.75" cy="888.52" rx="11.52" ry="1.58"></ellipse>
                <path d="M301.99,871.68 C301.99,871.68 324.72,797.16 298.43,767.31 C278.76,744.98 256.43,747.65 246.43,750.41 C241.19692,751.807914 236.839983,755.430167 234.51,760.32 C231.01,767.86 231.64,780.1 256.32,794.39 C297.63,818.31 300.2,851.12 300.2,851.12 L301.99,871.68 Z" id="Path" fill="#6C63FF" fill-rule="nonzero"></path>
                <path d="M250,760.98 C250,760.98 317,781.98 302,871.68" id="Path" stroke="#565987"></path>
                <path d="M289.14,768.49 C289.14,768.49 279.91,774.71 282.85,784.06" id="Path" stroke="#565987"></path>
                <path d="M256.72,774.03 C256.72,774.03 262.36,768.29 269.23,771.46" id="Path" stroke="#565987"></path>
                <path d="M283.21,802.89 C283.21,802.89 293.12,797.89 295.68,804.16" id="Path" stroke="#565987"></path>
                <path d="M307.72,813.36 C307.72,813.36 300.28,812.77 300.15,816.36" id="Path" stroke="#565987"></path>
                <path d="M302.91,872.27 C302.91,872.27 276.28,818.11 268.97,819.27 C265.5,819.84 263.9,823.27 263.17,826.69 C262.272439,831.127289 262.779244,835.733968 264.62,839.87 C268.4,848.57 278.55,865.02 302.91,872.27 Z" id="Path" fill="#6C63FF" fill-rule="nonzero"></path>
                <path d="M269.17,829.57 C269.17,829.57 297.11,870.09 302.51,871.87" id="Path" stroke="#565987"></path>
                <line x1="266.6" y1="835.9" x2="273.12" y2="835.9" id="Path" stroke="#565987"></line>
                <line x1="274.41" y1="850.72" x2="284.64" y2="851.16" id="Path" stroke="#565987"></line>
                <line x1="280.64" y1="838.86" x2="279.53" y2="844.19" id="Path" stroke="#565987"></line>
                <line x1="291.51" y1="855.07" x2="291.31" y2="859.91" id="Path" stroke="#565987"></line>
                <path d="M302.12,872.27 C302.12,872.27 328.74,818.11 336.05,819.27 C339.53,819.84 341.13,823.27 341.85,826.69 C342.747561,831.127289 342.240756,835.733968 340.4,839.87 C336.62,848.57 326.46,865.02 302.12,872.27 Z" id="Path" fill="#6C63FF" fill-rule="nonzero"></path>
                <path d="M335.86,829.57 C335.86,829.57 307.86,870.09 302.51,871.87" id="Path" stroke="#565987"></path>
                <line x1="338.43" y1="835.9" x2="331.91" y2="835.9" id="Path" stroke="#565987"></line>
                <line x1="330.62" y1="850.72" x2="320.39" y2="851.16" id="Path" stroke="#565987"></line>
                <line x1="324.39" y1="838.86" x2="325.5" y2="844.19" id="Path" stroke="#565987"></line>
                <line x1="313.52" y1="855.07" x2="313.72" y2="859.91" id="Path" stroke="#565987"></line>
                <path d="M256.4,884.92 C255.675492,884.327993 255.148733,883.529134 254.89,882.63 C254.634951,881.699316 255.080825,880.719235 255.95,880.3 C256.95,879.93 257.95,880.6 258.75,881.3 C259.55,882 260.46,882.74 261.46,882.57 C260.38042,881.591937 259.894323,880.118457 260.18,878.69 C260.220997,878.399261 260.342196,878.125697 260.53,877.9 C261.07,877.32 262.05,877.57 262.7,878.03 C264.7,879.47 265.33,882.26 265.34,884.78 C265.440142,883.856039 265.440142,882.923961 265.34,882 C265.286271,881.054199 265.706009,880.143518 266.46,879.57 C266.946805,879.304265 267.495646,879.173096 268.05,879.19 C268.979289,879.05705 269.921219,879.326173 270.64,879.93 C271.340387,880.883694 271.299105,882.192346 270.54,883.1 C269.773852,883.959481 268.867713,884.68304 267.86,885.24 C267.095123,885.700315 266.442601,886.325506 265.95,887.07 C265.889572,887.170102 265.842505,887.277682 265.81,887.39 L259.99,887.39 C258.687179,886.732739 257.479508,885.901834 256.4,884.92 Z" id="Path" fill="#6C63FF" fill-rule="nonzero"></path>
                <path d="M357.85,863.1 C357.123808,862.513702 356.596438,861.717407 356.34,860.82 C356.083424,859.891833 356.524708,858.912604 357.39,858.49 C358.39,858.12 359.39,858.79 360.19,859.49 C360.99,860.19 361.89,860.95 362.92,860.8 C361.840187,859.826072 361.350506,858.35703 361.63,856.93 C361.674393,856.63837 361.79904,856.36484 361.99,856.14 C362.53,855.56 363.51,855.81 364.16,856.26 C366.21,857.71 366.79,860.5 366.8,863.02 C366.900085,862.092693 366.900085,861.157307 366.8,860.23 C366.709375,859.295573 367.083115,858.376172 367.8,857.77 C368.288937,857.510845 368.836879,857.383336 369.39,857.4 C370.317501,857.269407 371.257216,857.534269 371.98,858.13 C372.682823,859.087988 372.637339,860.402867 371.87,861.31 C371.109559,862.171435 370.20634,862.895364 369.2,863.45 C368.434953,863.90582 367.782187,864.527827 367.29,865.27 C367.231416,865.374554 367.184469,865.485215 367.15,865.6 L361.46,865.6 C360.147489,864.936537 358.932719,864.095283 357.85,863.1 L357.85,863.1 Z" id="Path" fill="#6C63FF" fill-rule="nonzero"></path>
                <path d="M324.04,884.92 C323.31601,884.325591 322.786605,883.528 322.52,882.63 C322.264951,881.699316 322.710825,880.719235 323.58,880.3 C324.58,879.93 325.58,880.6 326.38,881.3 C327.18,882 328.07,882.76 329.11,882.62 C328.031918,881.640696 327.542904,880.169865 327.82,878.74 C327.864393,878.44837 327.98904,878.17484 328.18,877.95 C328.72,877.37 329.7,877.62 330.35,878.08 C332.4,879.52 332.97,882.31 332.99,884.83 C333.090064,883.906035 333.090064,882.973965 332.99,882.05 C332.911377,881.106772 333.304502,880.185737 334.04,879.59 C334.526275,879.322889 335.075497,879.191628 335.63,879.21 C336.5592,879.078343 337.500611,879.347317 338.22,879.95 C338.921222,880.904836 338.875722,882.216068 338.11,883.12 C337.347519,883.979293 336.444693,884.702906 335.44,885.26 C334.675123,885.720315 334.022601,886.345506 333.53,887.09 C333.469572,887.190102 333.422505,887.297682 333.39,887.41 L327.59,887.41 C326.301117,886.741702 325.107235,885.904303 324.04,884.92 L324.04,884.92 Z" id="Path" fill="#6C63FF" fill-rule="nonzero"></path>
                <path d="M228.15,840.82 C228.15,840.82 225.98,843.66 229.15,847.95 C232.32,852.24 234.94,855.86 233.88,858.53 C233.88,858.53 229.09,850.53 225.19,850.46 C221.29,850.39 223.86,845.57 228.15,840.82 Z" id="Path" fill="#6C63FF" fill-rule="nonzero"></path>
                <path d="M228.15,840.82 C227.962709,841.094791 227.814619,841.394337 227.71,841.71 C223.91,846.18 221.88,850.35 225.54,850.46 C228.94,850.56 233.03,856.64 234,858.18 C233.969339,858.29847 233.932625,858.41529 233.89,858.53 C233.89,858.53 229.1,850.53 225.2,850.46 C221.3,850.39 223.86,845.57 228.15,840.82 Z" id="Path" fill="#000000" fill-rule="nonzero" opacity="0.1"></path>
                <path d="M224.12,844.44 C224.12,845.44 224.23,846.25 224.37,846.25 C224.51,846.25 224.62,845.44 224.62,844.44 C224.62,843.44 224.48,843.91 224.34,843.91 C224.2,843.91 224.12,843.44 224.12,844.44 Z" id="Path" fill="#FFD037" fill-rule="nonzero"></path>
                <path d="M222.73,845.64 C223.61,846.12 224.37,846.4 224.44,846.28 C224.51,846.16 223.85,845.68 222.97,845.2 C222.09,844.72 222.44,845.07 222.37,845.2 C222.3,845.33 221.85,845.16 222.73,845.64 Z" id="Path" fill="#FFD037" fill-rule="nonzero"></path>
                <path d="M239.62,840.82 C239.62,840.82 241.8,843.66 238.62,847.95 C235.44,852.24 232.83,855.86 233.89,858.53 C233.89,858.53 238.68,850.53 242.58,850.46 C246.48,850.39 243.91,845.57 239.62,840.82 Z" id="Path" fill="#6C63FF" fill-rule="nonzero"></path>
                <path d="M239.62,840.82 C239.808548,841.09555 239.959857,841.394807 240.07,841.71 C243.87,846.18 245.9,850.35 242.24,850.46 C238.84,850.56 234.75,856.64 233.77,858.18 C233.79942,858.30003 233.839582,858.417169 233.89,858.53 C233.89,858.53 238.68,850.53 242.58,850.46 C246.48,850.39 243.91,845.57 239.62,840.82 Z" id="Path" fill="#000000" fill-rule="nonzero" opacity="0.1"></path>
                <path d="M243.66,844.44 C243.66,845.44 243.55,846.25 243.41,846.25 C243.27,846.25 243.16,845.44 243.16,844.44 C243.16,843.44 243.3,843.91 243.44,843.91 C243.58,843.91 243.66,843.44 243.66,844.44 Z" id="Path" fill="#FFD037" fill-rule="nonzero"></path>
                <path d="M245.05,845.64 C244.17,846.12 243.4,846.4 243.34,846.28 C243.28,846.16 243.93,845.68 244.81,845.2 C245.69,844.72 245.34,845.07 245.4,845.2 C245.46,845.33 245.92,845.16 245.05,845.64 Z" id="Path" fill="#FFD037" fill-rule="nonzero"></path>
                <path d="M242.97,858.16 C242.97,858.16 236.9,857.97 235.07,856.67 C233.24,855.37 225.73,853.81 225.27,855.9 C224.81,857.99 216.15,866.3 223,866.35 C229.85,866.4 238.93,865.28 240.76,864.17 C242.59,863.06 242.97,858.16 242.97,858.16 Z" id="Path" fill="#A8A8A8" fill-rule="nonzero"></path>
                <path d="M222.88,865.62 C229.74,865.68 238.81,864.56 240.64,863.44 C242.03,862.6 242.58,859.56 242.77,858.15 L242.97,858.15 C242.97,858.15 242.59,863.05 240.76,864.15 C238.93,865.25 229.86,866.39 223,866.33 C221,866.33 220.34,865.61 220.38,864.57 C220.65,865.22 221.46,865.57 222.88,865.62 Z" id="Path" fill="#000000" fill-rule="nonzero" opacity="0.2"></path>
                <circle id="Oval" fill="#6C63FF" fill-rule="nonzero" opacity="0.1" cx="246.94" cy="291.71" r="21.63"></circle>
                <circle id="Oval" fill="#6C63FF" fill-rule="nonzero" opacity="0.1" cx="1287.03" cy="464.56" r="21.63"></circle>
                <circle id="Oval" fill="#6C63FF" fill-rule="nonzero" opacity="0.1" cx="898.21" cy="223.02" r="21.63"></circle>
                <circle id="Oval" fill="#6C63FF" fill-rule="nonzero" opacity="0.1" cx="290.2" cy="411.04" r="36.25"></circle>
                <path d="M643.2,753.64 L641.92,752.36 C641.643393,752.100977 641.486429,751.738952 641.486429,751.36 C641.486429,750.981048 641.643393,750.619023 641.92,750.36 L653.15,739.12 C653.409023,738.843393 653.771048,738.686429 654.15,738.686429 C654.528952,738.686429 654.890977,738.843393 655.15,739.12 L666.38,750.35 C666.651312,750.611939 666.804547,750.972876 666.804547,751.35 C666.804547,751.727124 666.651312,752.088061 666.38,752.35 L665.1,753.63 C664.838061,753.901312 664.477124,754.054547 664.1,754.054547 C663.722876,754.054547 663.361939,753.901312 663.1,753.63 L656.46,746.63 L656.46,763.24 C656.462665,763.607728 656.31845,763.961311 656.05936,764.222278 C655.80027,764.483245 655.447738,764.63 655.08,764.63 L653.23,764.63 C652.462324,764.63 651.84,764.007676 651.84,763.24 L651.84,746.65 L645.2,753.65 C644.936707,753.920007 644.575002,754.07144 644.197877,754.069554 C643.820752,754.067669 643.46058,753.912626 643.2,753.64 L643.2,753.64 Z" id="Path" fill="#F6F7F9" fill-rule="nonzero"></path>
                <path d="M654.13,728.91 C666.716569,728.91 676.92,739.113431 676.92,751.7 C676.92,764.286569 666.716569,774.49 654.13,774.49 C641.543431,774.49 631.34,764.286569 631.34,751.7 C631.351027,739.118001 641.548001,728.921027 654.13,728.91 L654.13,728.91 Z M654.13,725.91 C639.886576,725.91 628.34,737.456576 628.34,751.7 C628.34,765.943424 639.886576,777.49 654.13,777.49 C668.373424,777.49 679.92,765.943424 679.92,751.7 C679.92,737.456576 668.373424,725.91 654.13,725.91 L654.13,725.91 Z" id="Shape" fill="#F6F7F9" fill-rule="nonzero"></path>
            </g>
        </g>
    </g>
</svg>