<?xml version="1.0" encoding="UTF-8"?>
<svg width="1036px" height="612px" viewBox="0 0 1036 612" version="1.1" xmlns="http://www.w3.org/2000/svg" xmlns:xlink="http://www.w3.org/1999/xlink">
    <!-- Generator: Sketch 63.1 (92452) - https://sketch.com -->
    <title>undraw_web_devices_ad58</title>
    <desc>Created with Sketch.</desc>
    <defs>
        <linearGradient x1="50%" y1="100.005469%" x2="50%" y2="-0.00273369574%" id="linearGradient-1">
            <stop stop-color="#808080" stop-opacity="0.25" offset="0%"></stop>
            <stop stop-color="#808080" stop-opacity="0.12" offset="54%"></stop>
            <stop stop-color="#808080" stop-opacity="0.1" offset="100%"></stop>
        </linearGradient>
        <linearGradient x1="49.9980158%" y1="100.011974%" x2="49.9980158%" y2="3.14375538e-06%" id="linearGradient-2">
            <stop stop-color="#808080" stop-opacity="0.25" offset="0%"></stop>
            <stop stop-color="#808080" stop-opacity="0.12" offset="54%"></stop>
            <stop stop-color="#808080" stop-opacity="0.1" offset="100%"></stop>
        </linearGradient>
        <linearGradient x1="49.9961829%" y1="99.9999929%" x2="49.9961829%" y2="7.11191695e-06%" id="linearGradient-3">
            <stop stop-color="#808080" stop-opacity="0.25" offset="0%"></stop>
            <stop stop-color="#808080" stop-opacity="0.12" offset="54%"></stop>
            <stop stop-color="#808080" stop-opacity="0.1" offset="100%"></stop>
        </linearGradient>
        <linearGradient x1="50.0023585%" y1="100.026536%" x2="50.0023585%" y2="-0.00215558891%" id="linearGradient-4">
            <stop stop-color="#808080" stop-opacity="0.25" offset="0%"></stop>
            <stop stop-color="#808080" stop-opacity="0.12" offset="54%"></stop>
            <stop stop-color="#808080" stop-opacity="0.1" offset="100%"></stop>
        </linearGradient>
    </defs>
    <g id="illustrations" stroke="none" stroke-width="1" fill="none" fill-rule="evenodd">
        <g id="Drive" transform="translate(-3013.000000, -2032.000000)">
            <g id="undraw_web_devices_ad58" transform="translate(3012.000000, 2032.000000)">
                <path d="M152.4,0.07 C144.34,-0.16 136.08,0.07 128.52,2.39 C107.95,8.71 98.2,29.39 101.37,47.26 C104.54,65.13 117.58,80.7 131.11,94.93 C144.64,109.16 159.3,123.23 166.72,140.24 C170.42,148.73 172.15,158.24 168.39,166.72 C162.59,179.79 145.1,187.09 128.31,188.61 C111.52,190.13 94.66,187.17 77.81,186.18 C70.74,185.77 63.47,185.72 56.81,187.63 C49.5,189.71 43.41,193.96 37.81,198.39 C15.96,215.77 -1.53,239.48 1.3,264.39 C4.5,292.62 33.04,314.93 64.3,326.9 C74.65,330.9 85.6,334.08 94.71,339.74 C118.71,354.67 124.1,382.67 121.71,407.38 C119.32,432.09 111.18,456.83 115.71,481.32 C121.04,509.81 144.63,535.55 176.45,547.57 C204.8,558.28 240.28,557.57 265.45,542.46 C277.72,535.08 287,524.83 295.07,514.23 C307.052609,498.576268 316.952025,481.432967 324.52,463.23 C328.03,454.74 331.33,445.61 339.52,439.71 C344.52,436.08 351,434.05 357.41,432.47 C376.73,427.71 397.08,426.41 416.58,422.17 C436.08,417.93 455.7,410 466.3,395.9 C481.3,375.9 474.3,350.28 474.37,326.76 C474.49,273.1 513.48,225.07 527.87,172.76 C532.57,155.67 534.32,136.76 523.82,121.51 C516.69,111.16 504.66,103.69 492.02,97.92 C464.21,85.23 432.6,79.58 401.51,74.08 C358.3,66.44 305.83,65.45 272.34,40.73 C240.2,17 196.23,0.07 152.4,0.07 Z" id="Path" fill="#4285F4" fill-rule="nonzero" opacity="0.2"></path>
                <ellipse id="Oval" fill="#F5F5F5" fill-rule="nonzero" cx="572" cy="487.48" rx="465" ry="124.52"></ellipse>
                <path d="M958.18,186.86 C958.18,186.86 922.35,222.69 942.58,275.86 C962.81,329.03 907.9,417.45 907.9,417.45 C907.9,417.45 908.49,417.36 909.58,417.17 C983.17,404.17 1019.74,320.01 978.82,257.48 C963.61,234.24 951.12,207 958.18,186.86 Z" id="Path" fill="#4285F4" fill-rule="nonzero"></path>
                <path d="M958.18,186.86 C958.18,186.86 937.95,230.78 958.18,266.61 C978.41,302.44 961.65,403 907.9,417.45" id="Path" stroke="#535461" stroke-width="2"></path>
                <path d="M1022,331.79 C1022,331.79 981.11,325.28 977.39,361.92 C973.67,398.56 898.77,403.64 898.77,403.64 L900.17,404.57 C962.01,445.16 1021.17,430.43 1012.17,376.57 C1008.9,356.49 1009.17,336.36 1022,331.79 Z" id="Path" fill="#4285F4" fill-rule="nonzero"></path>
                <path d="M1022,331.79 C1022,331.79 981.11,325.28 977.39,361.92 C973.67,398.56 898.77,403.64 898.77,403.64 L900.17,404.57 C962.01,445.16 1021.17,430.43 1012.17,376.57 C1008.9,356.49 1009.17,336.36 1022,331.79 Z" id="Path" fill="#F5F5F5" fill-rule="nonzero" opacity="0.2"></path>
                <path d="M1022,331.79 C1022,331.79 990.26,338.79 992.87,367.61 C995.48,396.43 945.74,431.06 898.77,403.61" id="Path" stroke="#535461" stroke-width="2"></path>
                <path d="M927.37,419.92 L863.13,419.92 C864.608339,416.946742 865.375192,413.670501 865.37,410.35 L865.37,117.79 C865.37,105.910355 855.739645,96.2799977 843.86,96.2799977 L346.52,96.2799977 C340.813461,96.2799977 335.339739,98.5424014 331.303668,102.576597 C327.267598,106.610792 324.999999,112.08346 325,117.79 L325,410.36 C324.994808,413.680501 325.761661,416.956742 327.24,419.93 L260.73,419.93 C257.5875,419.93 255.04,422.4775 255.04,425.62 L255.04,430.21 C255.056558,447.771984 269.298008,462 286.86,462 L901.24,462 C918.813701,462 933.06,447.753701 933.06,430.18 L933.06,425.59 C933.048982,422.455313 930.504706,419.919981 927.37,419.92 L927.37,419.92 Z M531.48,438.12 L526,431.87 L662.72,431.87 L656.62,438.13 L531.48,438.12 Z" id="Shape" fill="url(#linearGradient-1)" fill-rule="nonzero"></path>
                <rect id="Rectangle" fill="#535461" fill-rule="nonzero" x="331.11" y="100.42" width="528.12" height="327.99" rx="23.26"></rect>
                <rect id="Rectangle" fill="#FFFFFF" fill-rule="nonzero" x="342.22" y="148.23" width="504.77" height="267.95"></rect>
                <circle id="Oval" fill="#FFFFFF" fill-rule="nonzero" cx="594.61" cy="124.88" r="4.45"></circle>
                <path d="M672.55,416.73 L655.2,434.52 L532.9,434.52 L517.23,416.73 L268.29,416.73 C265.219297,416.73 262.73,419.219297 262.73,422.29 L262.73,426.77 C262.73,443.946056 276.653944,457.87 293.83,457.87 L894.28,457.87 C911.456056,457.87 925.38,443.946056 925.38,426.77 L925.38,422.29 C925.38,419.219297 922.890703,416.73 919.82,416.73 L672.55,416.73 Z" id="Path" fill="#535461" fill-rule="nonzero"></path>
                <path d="M499.41,157.64999 L286.48,157.64999 C275.708822,157.638946 266.966557,166.358829 266.95,177.13 L266.95,472.13 C266.966557,482.901171 275.708822,491.621054 286.48,491.61001 L499.41,491.61001 C510.181178,491.621054 518.923443,482.901171 518.94,472.13 L518.94,177.13 C518.923443,166.358829 510.181178,157.638946 499.41,157.64999 Z" id="Path" fill="url(#linearGradient-2)" fill-rule="nonzero"></path>
                <rect id="Rectangle" fill="#535461" fill-rule="nonzero" x="269.94" y="161.65" width="246" height="327" rx="20"></rect>
                <rect id="Rectangle" fill="#FFFFFF" fill-rule="nonzero" x="282.44" y="192.58" width="221" height="265.14"></rect>
                <circle id="Oval" fill="#FFFFFF" fill-rule="nonzero" cx="391.94" cy="176.65" r="3"></circle>
                <circle id="Oval" fill="#FFFFFF" fill-rule="nonzero" cx="391.94" cy="472.65" r="9"></circle>
                <path d="M337.11,257.649981 L227.78,257.649981 C224.913008,257.644691 222.161332,258.77851 220.130312,260.802028 C218.099292,262.825547 216.955299,265.573008 216.95,268.44 L216.95,507.86 C216.955299,510.726992 218.099292,513.474453 220.130312,515.497972 C222.161332,517.52149 224.913008,518.655309 227.78,518.650019 L337.11,518.650019 C339.976992,518.655309 342.728668,517.52149 344.759688,515.497972 C346.790708,513.474453 347.934701,510.726992 347.94,507.86 L347.94,268.44 C347.934701,265.573008 346.790708,262.825547 344.759688,260.802028 C342.728668,258.77851 339.976992,257.644691 337.11,257.649981 L337.11,257.649981 Z" id="Path" fill="url(#linearGradient-3)" fill-rule="nonzero"></path>
                <rect id="Rectangle" fill="#535461" fill-rule="nonzero" x="217.94" y="259.65" width="129" height="258" rx="11"></rect>
                <rect id="Rectangle" fill="#FFFFFF" fill-rule="nonzero" x="227.44" y="283.65" width="110" height="210"></rect>
                <circle id="Oval" fill="#FFFFFF" fill-rule="nonzero" cx="269.44" cy="271.65" r="1"></circle>
                <rect id="Rectangle" fill="#FFFFFF" fill-rule="nonzero" x="274.44" y="270.65" width="22" height="2" rx="1"></rect>
                <circle id="Oval" fill="#FFFFFF" fill-rule="nonzero" cx="281.94" cy="503.65" r="7"></circle>
                <path d="M204.73,536.25 C204.73,536.25 191.47,491.25 207.22,458.11 C213.924463,444.257611 215.952706,428.603643 213,413.5 C211.540175,406.345294 209.428016,399.339355 206.69,392.57" id="Path" stroke="#535461" stroke-width="2"></path>
                <path d="M216.45,371.63 C216.45,377.15 206.45,393.14 206.45,393.14 C206.45,393.14 196.45,377.14 196.45,371.63 C196.45,366.107153 200.927153,361.63 206.45,361.63 C211.972847,361.63 216.45,366.107153 216.45,371.63 Z" id="Path" fill="#4285F4" fill-rule="nonzero"></path>
                <path d="M233,402.19 C230,406.82 212.92,414.82 212.92,414.82 C212.92,414.82 213.23,395.96 216.23,391.33 C218.088377,388.152262 221.542385,386.252506 225.221258,386.384673 C228.900132,386.51684 232.208911,388.659555 233.834465,391.962456 C235.460019,395.265357 235.139458,399.194286 233,402.19 Z" id="Path" fill="#4285F4" fill-rule="nonzero"></path>
                <path d="M232.24,454.4 C227.31,456.88 208.53,455.17 208.53,455.17 C208.53,455.17 218.32,439.05 223.24,436.57 C228.121099,434.364619 233.873136,436.396741 236.285639,441.178859 C238.698143,445.960977 236.914354,451.794805 232.24,454.41 L232.24,454.4 Z" id="Path" fill="#4285F4" fill-rule="nonzero"></path>
                <path d="M222.8,493.79 C218.36,497.07 199.56,498.55 199.56,498.55 C199.56,498.55 206.48,481.01 210.92,477.73 C215.357304,474.769596 221.337079,475.813179 224.50933,480.101592 C227.68158,484.390005 226.929416,490.413377 222.8,493.79 L222.8,493.79 Z" id="Path" fill="#4285F4" fill-rule="nonzero"></path>
                <path d="M191.91,415.89 C195.91,419.73 214.3,423.72 214.3,423.72 C214.3,423.72 209.79,405.41 205.83,401.57 C203.310485,398.880969 199.516274,397.795464 195.955774,398.745034 C192.395274,399.694604 189.645512,402.525357 188.79967,406.111915 C187.953827,409.698472 189.148984,413.459583 191.91,415.9 L191.91,415.89 Z" id="Path" fill="#4285F4" fill-rule="nonzero"></path>
                <path d="M181.45,462.09 C186.38,464.57 205.16,462.86 205.16,462.86 C205.16,462.86 195.37,446.74 190.45,444.26 C187.242878,442.465688 183.309995,442.575034 180.207525,444.54477 C177.105054,446.514507 175.332946,450.02722 175.592391,453.69299 C175.851837,457.358761 178.101029,460.586866 181.45,462.1 L181.45,462.09 Z" id="Path" fill="#4285F4" fill-rule="nonzero"></path>
                <path d="M177.45,508.39 C181.89,511.67 200.69,513.15 200.69,513.15 C200.69,513.15 193.77,495.61 189.33,492.33 C184.892696,489.369596 178.912921,490.413179 175.74067,494.701592 C172.56842,498.990005 173.320584,505.013377 177.45,508.39 L177.45,508.39 Z" id="Path" fill="#4285F4" fill-rule="nonzero"></path>
                <path d="M996,393.1 C984.93,379.67 971.52,364.24 973.4,346.37 C974.92,331.9 971.28,318.52 972,304 C973,283.37 968.86,267.22 954,254 C945.32,246.27 930.81,240.2 926.49,241.75 C917.93,244.81 908.59,243.64 899.78,245.75 C893.09,247.31 888.64,249.75 885.88,252.75 C880.33,257.75 880.24,264.75 882.77,272.2 C878.304469,280.378053 877.522021,290.06775 880.617487,298.856357 C883.712954,307.644963 890.395074,314.705539 899,318.28 C892.83,320.86 887.5,326.8 885.42,338.86 C883.974124,347.142179 881.788711,355.278072 878.89,363.17 C877.586967,363.779076 876.251645,364.316543 874.89,364.78 C875.19,364.9 875.5,364.98 875.8,365.09 C875.15,365.34 874.51,365.59 873.8,365.81 C874.982493,366.271853 876.204063,366.626611 877.45,366.87 C869.45,387.08 859.45,399.6 859.45,399.6 C859.45,399.6 840.8,403.72 833.55,396.51 C833.55,396.51 834.73,397.89 836.33,399.96 C829.24,397.02 817.6,392.22 807.65,388.27 C800.43,385.4 798.58,388.27 798.65,392.27 C796.888008,392.491104 795.188016,393.062301 793.65,393.95 C791.517206,392.577522 789.280393,391.373856 786.96,390.35 C782.82,389.35 769.35,382.11 755.88,406.82 C748.04,421.19 727.94,447.42 712.49,466.82 C682.44,480.64 643.32,498.14 628.78,502.54 L619.46,502.54 C618.24,500.54 617.39,499.28 617.39,499.28 L616.67,499.76 L616.36,499.28 C616.36,499.28 598.06,511.95 579.48,512.05 C576.837292,512.013747 574.207195,511.678275 571.64,511.05 C563.1,508.9 557.08,507.94 552.78,508.05 C547.69,507.96 544.78,509.17 543.02,511.45 L543.02,511.45 C542.783507,511.74915 542.566397,512.063124 542.37,512.39 L542.37,512.39 C542.172966,512.71385 541.992728,513.047625 541.83,513.39 L541.83,513.39 C541.67,513.75 541.51,514.13 541.37,514.52 C541.252832,515.224628 541.466784,515.943948 541.95,516.47 C542.199139,516.819704 542.469654,517.153674 542.76,517.47 L543.28,518.03 C545.62,520.45 549.88,523.66 555.18,527.24 C556.71,528.24 558.33,529.34 560.02,530.43 L563.23,532.43 L566.1,534.22 L567.25,534.93 L568.53,535.71 L570.82,537.1 L572.18,537.92 L574.75,539.45 L576.83,540.68 C582.27,543.89 587.69,547 592.58,549.76 L596,551.8 L596.33,551.98 L598.53,553.21 L602.33,555.32 L604.94,556.76 L606.16,557.43 L607.47,558.15 L607.73,558.29 L610.01,559.53 C610.959239,559.689415 611.930768,559.426444 612.67,558.81 C613.33,556.01 614.94,550.01 616.67,549.55 C618.4,549.09 625.89,536 628,527.24 L648.22,527.24 C652.203015,526.899536 656.158613,526.291496 660.06,525.42 C654.84,529.14 649.67,531.48 645.65,530.48 C637.15,528.37 629.1,533.55 628.29,538.66 C628.29,538.77 628.22,538.87 628.19,538.98 C628.16,539.09 628.14,539.19 628.12,539.29 C628.1,539.39 628.06,539.54 628.04,539.67 C628.02,539.8 628.04,539.88 628.04,539.99 C628.04,540.1 628.04,540.24 628.04,540.37 C628.04,540.5 628.04,540.58 628.04,540.68 C628.04,540.78 628.04,540.94 628.04,541.07 C628.04,541.2 628.04,541.27 628.04,541.37 C628.04,541.47 628.1,541.64 628.14,541.78 C628.18,541.92 628.14,541.96 628.21,542.04 C628.273127,542.220733 628.346581,542.397691 628.43,542.57 L628.48,542.7 C628.592142,542.918425 628.719106,543.128917 628.86,543.33 L629.02,543.54 C629.12,543.68 629.23,543.82 629.35,543.95 L629.58,544.18 C629.7,544.3 629.83,544.42 629.96,544.54 L630.24,544.77 L630.69,545.1 L631.02,545.32 L631.56,545.64 L631.92,545.83 L632.6,546.15 L632.94,546.3 C633.3,546.45 633.68,546.59 634.09,546.72 C634.74,546.93 635.51,547.15 636.38,547.37 L637.25,547.58 L638.52,547.87 L639.19,548.02 C640.056667,548.206667 640.976667,548.393333 641.95,548.58 L643.3,548.83 L644.4,549.03 L646.93,549.47 C648.51,549.74 650.16,550.01 651.93,550.27 L656.29,550.93 L661.97,551.74 L663.23,551.91 L665.23,552.19 L668.16,552.58 L670.16,552.84 L670.16,552.84 L675.35,553.5 L676.97,553.7 L680.24,554.1 C684.54,554.62 688.7,555.1 692.53,555.53 L696.96,556.03 L699.2,556.28 L700.2,556.38 L702.88,556.67 L704.37,556.83 L706.21,557.02 L708.8,557.29 L709.08,557.29 L710.74,557.46 L710.74,557.46 C711.160514,557.504903 711.580587,557.371404 711.898029,557.091978 C712.215471,556.812553 712.401188,556.412813 712.41,555.99 L712.41,555.99 L712.41,555.99 C712.41,555.94 712.41,555.88 712.41,555.82 C712.562516,555.588099 712.645769,555.317527 712.65,555.04 C712.693528,552.573487 713.005364,550.119036 713.58,547.72 C713.69,547.31 713.82,546.89 713.96,546.47 L714.12,545.99 C714.3,545.48 714.48,544.99 714.69,544.44 C714.840506,544.067327 714.970697,543.686769 715.08,543.3 C715.08,543.18 715.15,543.06 715.19,542.93 C715.23,542.8 715.29,542.52 715.33,542.31 C717.41,535.2 714.9,521.94 714.18,516.73 C713.949036,515.065539 713.567471,513.425478 713.04,511.83 C713.16969,511.842705 713.30031,511.842705 713.43,511.83 C714.503791,511.435105 715.514385,510.886015 716.43,510.2 C731.71,504.75 744.59,498.52 748.66,492.28 C755.251434,490.540141 762.251734,491.272896 768.34,494.34 C776.25,498.27 836.09,517.8 863.95,526.82 C868.95,531.13 872.87,533.65 875.04,533.46 C875.04,533.46 910.51,539.2 924.77,528 C926.04,528.88 926.84,529.35 926.84,529.35 C926.84,529.35 947.56,519.06 950.67,505.67 C951.67,501.33 952.58,494.93 953.51,487.85 C958.316683,483.006996 961.018927,476.463399 961.03,469.64 C961.68,447.16 970.39,421.48 976.85,398.64 C984.69,399.26 987.72,397.78 994.91,394.23 L994.59,393.82 C995.1,393.52 995.55,393.32 996,393.1 Z M877.21,426.77 L873.21,425.44 C874.551673,423.64861 875.707624,421.725375 876.66,419.7 L877.21,426.77 Z M854.92,436.23 L878.92,450.63 L879.13,453.56 C878.837509,455.789637 878.905036,458.05178 879.33,460.26 C868.75,450.86 856.37,439.45 854.91,436.22 L854.92,436.23 Z M845.12,415.23 C842.5,414.15 840.33,413.17 838.84,412.36 C840.84,412.5 842.74,412.62 844.4,412.71 C844.728062,413.522305 844.969401,414.366991 845.12,415.23 L845.12,415.23 Z M780.84,438.7 C780.84,438.7 784.98,429.44 794.31,444.88 C795.76,447.28 798.43,451.1 801.96,455.83 L774.8,452.2 C778,447.24 780.15,442.63 780.84,438.71 L780.84,438.7 Z" id="Shape" fill="url(#linearGradient-4)" fill-rule="nonzero"></path>
                <path d="M840.5,401.5 C840.5,401.5 821.5,393.5 806.5,387.5 C791.5,381.5 800.5,401.5 800.5,401.5 C800.5,401.5 825.5,408.5 825.5,409.5 C825.5,410.5 846.5,411.5 846.5,411.5 L840.5,401.5 Z" id="Path" fill="#F7C4A7" fill-rule="nonzero"></path>
                <path d="M840.5,401.5 C840.5,401.5 821.5,393.5 806.5,387.5 C791.5,381.5 800.5,401.5 800.5,401.5 C800.5,401.5 825.5,408.5 825.5,409.5 C825.5,410.5 846.5,411.5 846.5,411.5 L840.5,401.5 Z" id="Path" fill="#000000" fill-rule="nonzero" opacity="0.05"></path>
                <path d="M921.5,322.5 C921.5,322.5 887.5,304.5 881.5,339.5 C875.5,374.5 856.5,398.5 856.5,398.5 C856.5,398.5 838.5,402.5 831.5,395.5 C831.5,395.5 848.5,415.5 840.5,417.5 C840.5,417.5 858.5,430.5 866.5,426.5 C874.5,422.5 880.5,395.5 883.5,388.5 C886.5,381.5 897.5,320.5 921.5,322.5 Z" id="Path" fill="#575988" fill-rule="nonzero"></path>
                <path d="M921.5,322.5 C921.5,322.5 887.5,304.5 881.5,339.5 C875.5,374.5 856.5,398.5 856.5,398.5 C856.5,398.5 838.5,402.5 831.5,395.5 C831.5,395.5 848.5,415.5 840.5,417.5 C840.5,417.5 858.5,430.5 866.5,426.5 C874.5,422.5 880.5,395.5 883.5,388.5 C886.5,381.5 897.5,320.5 921.5,322.5 Z" id="Path" fill="#000000" fill-rule="nonzero" opacity="0.1"></path>
                <path d="M902.5,310.5 C902.5,310.5 923.5,334.5 924.5,354.5 C925.5,374.5 948.5,333.5 950.5,332.5 C952.5,331.5 930.5,297.5 928.5,286.5 C926.5,275.5 902.5,310.5 902.5,310.5 Z" id="Path" fill="#F7C4A7" fill-rule="nonzero"></path>
                <polygon id="Path" fill="#F7C4A7" fill-rule="nonzero" points="917 320.75 903.75 332.75 910 358 927 342 925 326"></polygon>
                <polygon id="Path" fill="#F7C4A7" fill-rule="nonzero" points="640.5 498.5 617.5 498.5 626.5 520.5 648.5 514.5"></polygon>
                <path d="M622.82,495.33 C622.82,495.33 599,511.92 578.65,506.76 C558.3,501.6 552.77,503.53 550.4,510.19 C548.21,516.32 607.24,548.74 616.65,553.86 C616.945858,554.021998 617.300415,554.036465 617.608488,553.899108 C617.91656,553.76175 618.142766,553.488345 618.22,553.16 C618.86,550.44 620.41,544.61 622.07,544.16 C624.23,543.58 634.07,525.16 633.53,517.92 C632.99,510.68 622.82,495.33 622.82,495.33 Z" id="Path" fill="#000000" fill-rule="nonzero" opacity="0.1"></path>
                <path d="M621.82,495.33 C621.82,495.33 598,511.92 577.65,506.76 C557.3,501.6 551.77,503.53 549.4,510.19 C547.21,516.32 606.24,548.74 615.65,553.86 C615.945858,554.021998 616.300415,554.036465 616.608488,553.899108 C616.91656,553.76175 617.142766,553.488345 617.22,553.16 C617.86,550.44 619.41,544.61 621.07,544.16 C623.23,543.58 633.07,525.16 632.53,517.92 C631.99,510.68 621.82,495.33 621.82,495.33 Z" id="Path" fill="#F3B5B7" fill-rule="nonzero"></path>
                <path d="M818.5,455.5 L751.5,446.5 C751.5,446.5 642.5,498.5 629.5,499.5 L632.5,522.5 L652.5,522.5 C660.5,522.5 738.5,505.5 749.5,488.5 C755.863829,486.808048 762.627949,487.520061 768.5,490.5 C778.5,495.5 874.5,526.5 874.5,526.5 L818.5,455.5 Z" id="Path" fill="#575988" fill-rule="nonzero"></path>
                <path d="M818.5,455.5 L751.5,446.5 C751.5,446.5 642.5,498.5 629.5,499.5 L632.5,522.5 L652.5,522.5 C660.5,522.5 738.5,505.5 749.5,488.5 C755.863829,486.808048 762.627949,487.520061 768.5,490.5 C778.5,495.5 874.5,526.5 874.5,526.5 L818.5,455.5 Z" id="Path" fill="#000000" fill-rule="nonzero" opacity="0.1"></path>
                <polygon id="Path" fill="#F7C4A7" fill-rule="nonzero" points="699.5 486.5 688.5 500.5 699.5 506.5 715.5 494.5"></polygon>
                <path d="M890.5,470.5 C890.5,470.5 854.5,439.68 852.01,434.09 C849.52,428.5 790.5,390.5 786.5,389.5 C782.5,388.5 769.5,381.5 756.5,405.5 C743.5,429.5 695.5,487.5 695.5,487.5 C695.5,487.5 710.5,508.5 715.5,507.5 C720.5,506.5 776.5,459.5 780.5,436.5 C780.5,436.5 784.5,427.5 793.5,442.5 C802.5,457.5 860.5,529.5 871.5,528.5 C871.5,528.5 914.5,535.5 923.5,518.5 C932.5,501.5 890.5,470.5 890.5,470.5 Z" id="Path" fill="#575988" fill-rule="nonzero"></path>
                <path d="M911,324 C911,324 898.5,329.5 897.5,352.5 C896.5,375.5 874.5,414.5 874.5,414.5 L876.5,460.5 C876.5,460.5 900.5,484.5 902.5,499.5 C904.5,514.5 921.5,524.5 921.5,524.5 C921.5,524.5 941.5,514.5 944.5,501.5 C947.5,488.5 949.5,456.5 954.5,444.5 C959.5,432.5 956.5,357.5 956.5,357.5 L941.5,331.5 L933.5,322.5 L912.5,346.5 C912.5,346.5 901,331 911,324 Z" id="Path" fill="#DDDBE2" fill-rule="nonzero"></path>
                <path d="M881.5,445.5 C881.5,445.5 878.5,409.5 887.5,401.5 L905.5,350.5 C905.5,350.5 912,326 911,324 C910,322 887.5,343.5 887.5,343.5 L872.5,396.5 L876.5,452.5 L881.5,445.5 Z" id="Path" fill="#000000" fill-rule="nonzero" opacity="0.1"></path>
                <path d="M880.5,445.5 C880.5,445.5 877.5,409.5 886.5,401.5 L904.5,350.5 C904.5,350.5 911.5,325.5 910.5,323.5 C909.5,321.5 886.5,343.5 886.5,343.5 L871.5,396.5 L875.5,452.5 L880.5,445.5 Z" id="Path" fill="#575988" fill-rule="nonzero"></path>
                <path d="M887.5,429.5 C887.5,429.5 837.5,413.5 834.5,409.5 C831.5,405.5 799.5,379.5 788.5,397.5 C777.5,415.5 829.5,420.5 829.5,420.5 L882.5,452.5 L887.5,429.5 Z" id="Path" fill="#F7C4A7" fill-rule="nonzero"></path>
                <path d="M701.67,500.41 L686.87,497.75 C686.87,497.75 662.63,528.8 650,525.65 C637.37,522.5 625.75,536.09 639.09,540.45 C651.14,544.39 703.18,549.9 713.09,550.92 C713.495601,550.961994 713.900282,550.832451 714.206099,550.562724 C714.511915,550.292998 714.690996,549.90767 714.7,549.5 C714.776129,545.634856 715.55551,541.815886 717,538.23 C719.67,531.68 717,517.61 716.26,512.23 C715.85224,509.076456 714.865703,506.025309 713.35,503.23 L701.67,500.41 Z" id="Path" fill="#000000" fill-rule="nonzero" opacity="0.1"></path>
                <path d="M701.42,501.38 L686.62,498.72 C686.62,498.72 662.38,529.77 649.77,526.63 C637.16,523.49 625.52,537.07 638.86,541.43 C650.91,545.37 702.95,550.88 712.86,551.9 C713.265601,551.941994 713.670282,551.812451 713.976099,551.542724 C714.281915,551.272998 714.460996,550.88767 714.47,550.48 C714.518674,546.6238 715.267499,542.808521 716.68,539.22 C719.35,532.67 716.68,518.6 715.94,513.22 C715.53224,510.066456 714.545703,507.015309 713.03,504.22 L701.42,501.38 Z" id="Path" fill="#F3B5B7" fill-rule="nonzero"></path>
                <circle id="Oval" fill="#000000" fill-rule="nonzero" opacity="0.1" cx="910" cy="290" r="32"></circle>
                <circle id="Oval" fill="#F7C4A7" fill-rule="nonzero" cx="907" cy="290" r="32"></circle>
                <path d="M938.5,321.5 C938.5,321.5 976.5,334.5 976.5,361.5 C976.5,388.5 955.5,431.5 954.5,466.5 C953.5,501.5 898.5,496.5 898.5,496.5 C898.5,496.5 890.5,378.5 898.5,369.5 C906.5,360.5 942.5,325.5 938.5,321.5 Z" id="Path" fill="#575988" fill-rule="nonzero"></path>
                <path d="M931.5,377.5 C931.5,377.5 917.5,439.5 884.5,428.5 C884.5,428.5 867.5,453.5 879.5,464.5 C879.5,464.5 908.5,471.5 927.5,452.5 C946.5,433.5 960.5,426.5 963.5,403.5 C966.5,380.5 968.5,348.5 958.5,351.5 C948.5,354.5 931.5,377.5 931.5,377.5 Z" id="Path" fill="#000000" fill-rule="nonzero" opacity="0.1"></path>
                <path d="M932.5,376.5 C932.5,376.5 918.5,438.5 885.5,427.5 C885.5,427.5 868.5,452.5 880.5,463.5 C880.5,463.5 909.5,470.5 928.5,451.5 C947.5,432.5 961.5,425.5 964.5,402.5 C967.5,379.5 969.5,347.5 959.5,350.5 C949.5,353.5 932.5,376.5 932.5,376.5 Z" id="Path" fill="#575988" fill-rule="nonzero"></path>
                <path d="M717.54,536 C717.54,536.09 717.48,536.2 717.45,536.28 C716.761306,537.989978 716.235639,539.761175 715.88,541.57 C716.12,540.79 716.4,539.99 716.72,539.19 C717.113442,538.16121 717.388545,537.090993 717.54,536 Z" id="Path" fill="#DDDBE2" fill-rule="nonzero"></path>
                <path d="M639.59,538.51 C635.47,537.16 633.74,534.94 633.67,532.6 C631.97,535.86 633.04,539.52 638.86,541.42 C650.91,545.36 702.96,550.87 712.86,551.89 C713.267302,551.932117 713.67357,551.801257 713.97972,551.529335 C714.285869,551.257413 714.463758,550.869426 714.470285,550.46 L714.470285,550.46 C714.48486,549.699113 713.916527,549.052688 713.16,548.97 C702.3,547.81 651.48,542.39 639.59,538.51 Z" id="Path" fill="#DDDBE2" fill-rule="nonzero"></path>
                <path d="M550.78,508.43 C551.045197,507.693157 551.380046,506.983278 551.78,506.31 C550.702516,507.40059 549.897394,508.729897 549.43,510.19 C547.24,516.32 606.27,548.74 615.68,553.86 C615.977255,554.021929 616.333234,554.035123 616.64166,553.895643 C616.950087,553.756164 617.175277,553.480148 617.25,553.15 L617.25,553.15 C617.364329,552.676234 617.147189,552.184596 616.72,551.95 C606.32,546.26 548.62,514.49 550.78,508.43 Z" id="Path" fill="#DDDBE2" fill-rule="nonzero"></path>
                <path d="M622.44,542.41 C621.91,542.55 621.39,543.26 620.9,544.23 L621.06,544.17 C621.5,544.05 622.25,543.17 623.16,541.87 C622.965648,542.103951 622.719012,542.288928 622.44,542.41 L622.44,542.41 Z" id="Path" fill="#DDDBE2" fill-rule="nonzero"></path>
                <path d="M902.56,318.17 C899.74,324.39 899.15,331.4 897.08,337.92 C892.97,350.85 882.66,361.55 870.31,365.68 C880.7,369.82 892.96,364.76 900.99,356.36 C909.02,347.96 913.73,336.78 918.24,325.9 C929.9,333.74 928.48,351.76 932.4,365.79 C935.803885,378.140531 944.394442,388.409075 955.95,393.94 C967.47574,399.111691 980.712946,398.84379 992.02,393.21 C981.33,380.21 966.11,362.28 967.92,344.92 C969.39,330.86 959.3,320.12 959.99,306.01 C960.99,286.01 953.33,275.85 938.99,263.01 C930.61,255.5 943.8,244.91 932.99,248.01 C928.74,249.23 924.26,244.68 920.09,246.18 C911.83,249.18 902.81,248.02 894.31,250.02 C850.13,260.4 906.68,309.09 902.56,318.17 Z" id="Path" fill="#000000" fill-rule="nonzero" opacity="0.1"></path>
                <path d="M903.56,317.17 C900.74,323.39 900.15,330.4 898.08,336.92 C893.97,349.85 883.66,360.55 871.31,364.68 C881.7,368.82 893.96,363.76 901.99,355.36 C910.02,346.96 914.73,335.78 919.24,324.9 C930.9,332.74 929.48,350.76 933.4,364.79 C936.803885,377.140531 945.394442,387.409075 956.95,392.94 C968.47574,398.111691 981.712946,397.84379 993.02,392.21 C982.33,379.21 968.11,364.28 969.92,346.92 C971.39,332.86 969.2,318.41 969.92,304.31 C970.92,284.31 961.11,264.99 946.76,252.15 C938.38,244.64 925.29,243.68 921.11,245.15 C912.85,248.15 903.83,246.99 895.33,248.99 C851.13,259.4 907.68,308.09 903.56,317.17 Z" id="Path" fill="#FC6681" fill-rule="nonzero"></path>
            </g>
        </g>
    </g>
</svg>