<?xml version="1.0" encoding="UTF-8"?>
<svg width="930px" height="794px" viewBox="0 0 930 794" version="1.1" xmlns="http://www.w3.org/2000/svg" xmlns:xlink="http://www.w3.org/1999/xlink">
    <!-- Generator: Sketch 63.1 (92452) - https://sketch.com -->
    <title>undraw_folder_39kl</title>
    <desc>Created with Sketch.</desc>
    <g id="illustrations" stroke="none" stroke-width="1" fill="none" fill-rule="evenodd">
        <g id="Drive" transform="translate(-1674.000000, 0.000000)" fill-rule="nonzero">
            <g id="undraw_folder_39kl" transform="translate(1674.000000, 0.000000)">
                <path d="M837.24842,441.07951 C837.09712,452.91351 836.5552,466.17181 835.34004,480.14071 L869.42745,437.63692 L869.66712,438.30179 C866.876967,428.709131 862.748778,419.557577 857.40435,411.11713 L857.6742,411.74266 L837.24842,441.07951 Z" id="Path" fill="#57B894"></path>
                <path d="M837.27125,439.00348 L857.05755,410.58599 C851.36905,402.01599 844.55641,395.38048 836.77545,391.33299 C836.37067,391.12241 835.96451,390.9261 835.55836,390.73144 C835.86079,393.93491 837.51082,412.74875 837.27125,439.00348 Z" id="Path" fill="#57B894"></path>
                <path d="M873.68985,521.49777 C874.52757,516.54211 875.177993,511.597613 875.64112,506.66428 L824.23647,547.03808 L824.16708,546.68158 C823.393967,549.593753 822.587203,552.45612 821.74679,555.26868 L873.5691,520.71268 L873.68985,521.49777 Z" id="Path" fill="#57B894"></path>
                <path d="M830.10003,519.85133 L876.10692,477.21252 L876.28722,477.95019 C875.695394,464.765978 873.544143,451.698257 869.87842,439.02008 L835.14124,482.33347 C833.942647,495.42073 832.262243,507.926683 830.10003,519.85133 Z" id="Path" fill="#57B894"></path>
                <path d="M834.26742,481.59788 L772.72697,420.44182 L772.99406,419.69482 C768.002706,427.660322 763.828882,436.109726 760.53617,444.91432 L830.56829,511.33267 C832.23556,500.95147 833.42596,490.92422 834.26742,481.59788 Z" id="Path" fill="#57B894"></path>
                <path d="M828.96163,520.62408 C829.432403,518.088613 829.87412,515.569233 830.28678,513.06594 L759.99631,446.40245 L760.25585,445.65005 C759.093343,448.75201 758.002343,451.953703 756.98285,455.25513 L757.2376,454.50043 L828.96163,520.62408 Z" id="Path" fill="#57B894"></path>
                <path d="M824.60361,544.98753 L875.57992,504.95014 L875.72865,505.71469 C876.533789,496.772055 876.734578,487.785281 876.32965,478.81561 L829.70078,522.03117 C828.213833,529.974483 826.514777,537.626603 824.60361,544.98753 Z" id="Path" fill="#57B894"></path>
                <path d="M752.09842,517.90954 L809.73818,584.73054 C813.649169,575.964834 817.030907,566.972453 819.86518,557.80183 L750.49572,492.89969 C750.344497,501.524024 750.771366,510.148798 751.77346,518.71605 L752.09842,517.90954 Z" id="Path" fill="#57B894"></path>
                <path d="M834.57577,390.72923 L835.0435,390.48685 C822.94345,384.89503 810.2759,386.30351 798.46503,393.36585 L836.32442,439.01057 C836.57642,410.60472 834.60476,391.01035 834.57577,390.72923 Z" id="Path" fill="#57B894"></path>
                <path d="M820.27853,560.04708 C817.669432,568.301815 814.612821,576.40837 811.12227,584.33075 L863.41774,553.31934 L863.51705,554.09194 C867.18171,546.995457 869.932438,539.463238 871.70352,531.67523 C872.3857,528.61207 872.992407,525.54495 873.52364,522.47387 L821.0833,557.44148 C820.81612,558.31163 820.55216,559.18671 820.27853,560.04708 Z" id="Path" fill="#57B894"></path>
                <path d="M836.30142,441.127 L797.57371,394.43467 L797.87034,393.72056 C789.00878,399.17492 780.64818,407.82001 773.39174,419.07856 L834.43105,479.73656 C835.62269,465.92543 836.15374,452.82319 836.30142,441.127 Z" id="Path" fill="#57B894"></path>
                <path d="M820.36109,556.19267 C823.727727,545.057587 826.492154,533.749251 828.64236,522.3168 L756.7419,456.03039 C755.380567,460.50935 754.161233,465.1568 753.0839,469.97274 C751.601609,476.874382 750.751936,483.896845 750.54544,490.95285 L820.31142,556.22576 L820.36109,556.19267 Z" id="Path" fill="#57B894"></path>
                <path d="M894.42349,627.90965 C886.75896,636.92754 877.88525,646.79336 868.03982,656.77703 L921.4031,645.78243 L921.16362,646.44743 C925.133005,637.279639 927.790526,627.598174 929.05778,617.68866 L928.86671,618.34266 L894.42349,627.90965 Z" id="Path" fill="#57B894"></path>
                <path d="M925.78818,589.29377 C925.61064,588.87339 925.42307,588.46314 925.2344,588.05413 C923.42422,590.71431 912.69533,606.25694 895.76511,626.32529 L929.12939,617.05836 C930.21431,606.82964 929.19952,597.37384 925.78818,589.29377 Z" id="Path" fill="#57B894"></path>
                <path d="M816.99365,700.89983 C814.540883,702.64963 812.093883,704.339607 809.65265,705.96976 L871.60598,712.40822 L871.19826,713.08985 C875.00434,709.807363 878.65899,706.41403 882.16221,702.90985 L816.81972,701.21867 L816.99365,700.89983 Z" id="Path" fill="#57B894"></path>
                <path d="M838.676,684.01958 L901.30562,680.52348 L900.97401,681.20662 C908.927283,670.674772 915.605246,659.23805 920.86837,647.13541 L866.48817,658.33907 C857.21767,667.65423 847.946947,676.2144 838.676,684.01958 Z" id="Path" fill="#57B894"></path>
                <path d="M818.41042,699.87344 L883.20833,701.55053 L882.83521,702.23427 C889.159056,695.860276 895.04559,689.066824 900.4547,681.90021 L836.97816,685.44376 C830.76658,690.61318 824.577333,695.423073 818.41042,699.87344 Z" id="Path" fill="#57B894"></path>
                <path d="M741.28012,736.35702 C741.71112,735.86674 742.14701,735.36827 742.59642,734.84822 C755.629093,731.984027 768.26915,727.559827 780.24326,721.67129 L779.30872,675.19447 C779.761627,673.979863 780.19794,672.756863 780.61766,671.52547 L781.61258,721.00172 C790.215683,716.744986 798.555734,711.976091 806.58781,706.72072 L795.60081,620.67415 C796.04645,620.408443 796.500743,620.1354 796.96369,619.85502 L807.93669,705.79148 L807.99605,705.79764 C817.691109,699.368783 827.032885,692.422433 835.98079,684.98877 L824.54193,600.35605 C824.983263,599.99191 825.42498,599.624287 825.86708,599.25318 L837.3063,683.88865 C839.286007,682.236143 841.233103,680.577477 843.14759,678.91265 L832.78952,593.16754 C833.228353,592.763273 833.666447,592.355657 834.1038,591.94469 L844.46988,677.75727 C852.37527,670.82516 859.68767,663.86154 866.28421,657.21521 L857.89268,570.86201 L858.57486,570.45701 C856.21219,571.2217 853.81969,572.09011 851.4076,573.04039 C855.727367,567.488138 859.560084,561.573566 862.86312,555.36246 L810.06706,586.67059 C806.726669,594.020152 802.904954,601.141288 798.62682,607.98759 C797.68869,608.98048 796.75645,609.98754 795.83572,611.0212 L795.96982,612.07157 C795.56034,612.68095 795.148413,613.285847 794.73404,613.88626 L794.55567,612.48891 C794.03051,613.09414 793.51097,613.71116 792.99167,614.32863 C799.238434,605.45259 804.635243,596.007876 809.11059,586.11963 L751.89282,519.78757 C752.61182,525.94983 753.57282,532.13943 754.70656,538.2681 C749.304135,530.544378 742.886118,523.583412 735.62556,517.57289 L736.07562,518.08434 L725.71802,552.29808 C729.23202,563.59935 732.81468,576.37592 735.97678,590.03636 L754.99035,539.78258 C755.13457,540.542393 755.281367,541.301037 755.43074,542.05851 L736.4655,592.18315 C739.370833,605.000077 741.638247,617.413053 743.26774,629.42208 L767.05036,586.81761 C767.234253,587.400237 767.41799,587.978763 767.60157,588.55319 L743.56179,631.61854 C744.603003,639.63248 745.352397,647.43505 745.80997,655.02625 L775.34797,610.98388 C775.549897,611.527453 775.74882,612.060223 775.94474,612.58219 L746.09469,657.08994 L745.91854,656.77232 C746.083367,659.78086 746.200803,662.75243 746.27085,665.68703 L779.99407,622.98486 C780.21827,623.53886 780.426427,624.049753 780.61854,624.51754 L746.31154,667.95854 C746.32645,668.86864 746.34578,669.78247 746.35154,670.68526 C746.421755,679.34223 746.020524,687.996601 745.14963,696.60994 L748.42563,692.88449 C747.84563,694.29021 747.28111,695.67637 746.73207,697.04297 L744.86925,699.16133 C744.72135,700.44446 744.55853,701.71494 744.38845,702.97915 C743.753303,704.61795 743.14261,706.216673 742.55637,707.77532 C743.03293,704.8457 743.443967,701.898243 743.78948,698.93295 L668.87048,653.53502 C690.45076,700.53944 728.49519,744.23732 730.92938,747.00987 C732.565693,743.47691 734.041837,739.863507 735.35781,736.16966 C735.80492,736.10114 736.25158,736.02715 736.69823,735.95384 C736.54379,736.39684 736.39285,736.84319 736.23473,737.28276 C736.00133,737.32109 735.767,737.36462 735.53387,737.40162 C735.727237,737.444 735.929993,737.488 736.14214,737.53362 C735.2054,740.121233 734.2053,742.649127 733.14184,745.1173 C734.64066,743.6044 736.88654,741.2663 739.6064,738.24074 C756.81568,741.58645 802.98474,748.18437 841.26009,732.26664 L780.6284,722.7057 C768.130301,728.872988 754.912362,733.458762 741.28012,736.35702 L741.28012,736.35702 Z M778.96612,658.15417 L780.31786,656.61702 L780.36176,658.7999 L779.01002,660.33705 L778.96612,658.15417 Z" id="Shape" fill="#57B894"></path>
                <path d="M924.47915,587.42575 L924.994,587.53739 C919.24116,575.51299 908.58636,568.51825 894.98528,566.42439 L895.03128,625.72679 C913.34309,604.00964 924.32213,587.66072 924.47915,587.42575 Z" id="Path" fill="#57B894"></path>
                <path d="M805.47408,708.7136 C798.199568,713.407177 790.674901,717.701199 782.93349,721.5766 L842.99049,731.04676 L842.57421,731.70509 C849.922913,728.57681 856.845657,724.53006 863.17707,719.66151 C865.656163,717.737337 868.07967,715.762003 870.44759,713.73551 L807.75576,707.22001 C806.99498,707.71983 806.23356,708.22544 805.47408,708.7136 Z" id="Path" fill="#57B894"></path>
                <path d="M867.59749,655.88597 C877.32419,646.00884 886.08994,636.25632 893.66382,627.34225 L893.61716,566.67913 L894.30108,566.3184 C883.99722,564.8673 872.04387,566.19304 859.27425,570.23603 L867.59749,655.88597 Z" id="Path" fill="#57B894"></path>
                <path d="M735.13152,517.1749 C727.0727,510.78282 718.54266,506.57804 709.89168,505.1339 C709.44162,505.05876 708.99468,504.9976 708.54822,504.938 C709.82606,507.891 717.21052,525.27358 725.09806,550.31669 L735.13152,517.1749 Z" id="Path" fill="#57B894"></path>
                <path d="M735.40708,591.75372 L657.97708,552.61442 L658.00018,551.82142 C655.715366,560.939655 654.357648,570.265405 653.94771,579.6566 L741.08005,621.17583 C739.45687,610.78763 737.4895,600.88348 735.40708,591.75372 Z" id="Path" fill="#57B894"></path>
                <path d="M741.34804,622.91119 L653.89413,581.23877 L653.90849,580.44298 C653.76159,583.752313 653.71359,587.134457 653.76449,590.58941 L653.77349,589.79293 L742.42388,630.50881 C742.087987,627.95199 741.729373,625.41945 741.34804,622.91119 Z" id="Path" fill="#57B894"></path>
                <path d="M745.26456,668.67773 L659.23096,628.39565 C661.752909,636.644409 664.824791,644.714896 668.42596,652.55287 L668.48569,651.68542 L743.95699,697.41795 C744.967013,687.872632 745.403654,678.275329 745.26456,668.67773 L745.26456,668.67773 Z" id="Path" fill="#57B894"></path>
                <path d="M707.61313,505.23955 L707.98293,504.86455 C694.74706,503.28655 683.13517,508.54164 674.08567,518.90883 L724.19967,550.61617 C715.65915,523.52336 707.72762,505.49794 707.61313,505.23955 Z" id="Path" fill="#57B894"></path>
                <path d="M724.83207,552.63596 L673.56842,520.20074 L673.62972,519.42994 C666.88813,527.35627 661.609,538.16228 658.188,551.11239 L734.98742,589.93296 C731.8517,576.42986 728.30682,563.80508 724.83207,552.63596 Z" id="Path" fill="#57B894"></path>
                <path d="M745.23879,666.99408 C744.998682,655.363654 744.132347,643.754601 742.64355,632.21736 L653.77503,591.40116 C653.864863,596.08154 654.14177,600.878303 654.60575,605.79145 C655.329362,612.813293 656.691933,619.7545 658.67653,626.52881 L745.20179,667.04088 L745.23879,666.99408 Z" id="Path" fill="#57B894"></path>
                <path d="M672.82195,460.96108 L414.71436,428.42578 C403.01596,331.11571 420.68989,236.11478 450.86467,141.63957 L708.97226,174.17484 C670.02448,266.85941 658.59209,362.52165 672.82195,460.96108 Z" id="Path" fill="#F2F2F2"></path>
                <rect id="Rectangle" fill="#4285F4" transform="translate(564.724615, 194.396254) rotate(7.184420) translate(-564.724615, -194.396254) " x="485.23431" y="185.855974" width="158.98061" height="17.08056"></rect>
                <rect id="Rectangle" fill="#4285F4" opacity="0.3" transform="translate(556.823667, 230.811409) rotate(7.184420) translate(-556.823667, -230.811409) " x="449.084737" y="226.541269" width="215.47786" height="8.54028"></rect>
                <rect id="Rectangle" fill="#4285F4" opacity="0.3" transform="translate(553.372951, 258.186463) rotate(7.184420) translate(-553.372951, -258.186463) " x="445.634021" y="253.916323" width="215.47786" height="8.54028"></rect>
                <rect id="Rectangle" fill="#4285F4" opacity="0.3" transform="translate(549.922236, 285.561515) rotate(7.184420) translate(-549.922236, -285.561515) " x="442.183306" y="281.291375" width="215.47786" height="8.54028"></rect>
                <rect id="Rectangle" fill="#4285F4" opacity="0.3" transform="translate(546.471531, 312.936549) rotate(7.184420) translate(-546.471531, -312.936549) " x="438.732601" y="308.666409" width="215.47786" height="8.54028"></rect>
                <rect id="Rectangle" fill="#4285F4" opacity="0.3" transform="translate(543.020815, 340.311603) rotate(7.184420) translate(-543.020815, -340.311603) " x="435.281885" y="336.041463" width="215.47786" height="8.54028"></rect>
                <rect id="Rectangle" fill="#4285F4" opacity="0.3" transform="translate(539.570109, 367.686657) rotate(7.184420) translate(-539.570109, -367.686657) " x="431.831179" y="363.416517" width="215.47786" height="8.54028"></rect>
                <rect id="Rectangle" fill="#4285F4" opacity="0.3" transform="translate(536.119404, 395.061701) rotate(7.184420) translate(-536.119404, -395.061701) " x="428.380474" y="390.791561" width="215.47786" height="8.54028"></rect>
                <path d="M550.59442,365.09308 L309.11914,268.30588 C322.42447,171.20248 363.56197,83.76538 416.66047,9.99999997e-06 L658.13575,96.78721 C597.0029,176.60028 561.73648,266.25653 550.59442,365.09308 Z" id="Path" fill="#E6E6E6"></path>
                <rect id="Rectangle" fill="#4285F4" transform="translate(513.465679, 79.850571) rotate(21.841710) translate(-513.465679, -79.850571) " x="433.975374" y="71.3102913" width="158.98061" height="17.08056"></rect>
                <rect id="Rectangle" fill="#4285F4" opacity="0.3" transform="translate(496.607469, 113.081434) rotate(21.841710) translate(-496.607469, -113.081434) " x="388.868539" y="108.811294" width="215.47786" height="8.54028"></rect>
                <rect id="Rectangle" fill="#4285F4" opacity="0.3" transform="translate(486.342165, 138.692450) rotate(21.841710) translate(-486.342165, -138.692450) " x="378.603235" y="134.42231" width="215.47786" height="8.54028"></rect>
                <rect id="Rectangle" fill="#4285F4" opacity="0.3" transform="translate(476.076854, 164.303456) rotate(21.841710) translate(-476.076854, -164.303456) " x="368.337924" y="160.033316" width="215.47786" height="8.54028"></rect>
                <rect id="Rectangle" fill="#4285F4" opacity="0.3" transform="translate(465.811543, 189.914472) rotate(21.841710) translate(-465.811543, -189.914472) " x="358.072613" y="185.644332" width="215.47786" height="8.54028"></rect>
                <rect id="Rectangle" fill="#4285F4" opacity="0.3" transform="translate(455.546239, 215.525488) rotate(21.841710) translate(-455.546239, -215.525488) " x="347.807309" y="211.255348" width="215.47786" height="8.54028"></rect>
                <rect id="Rectangle" fill="#4285F4" opacity="0.3" transform="translate(445.280928, 241.136504) rotate(21.841710) translate(-445.280928, -241.136504) " x="337.541998" y="236.866364" width="215.47786" height="8.54028"></rect>
                <rect id="Rectangle" fill="#4285F4" opacity="0.3" transform="translate(435.015613, 266.747519) rotate(21.841710) translate(-435.015613, -266.747519) " x="327.276683" y="262.477379" width="215.47786" height="8.54028"></rect>
                <path d="M490.87683,388.40327 L230.72674,388.40327 C206.95024,293.32027 212.60427,196.85485 230.72674,99.34761 L490.87683,99.34761 C463.8263,196.17542 464.44752,292.51637 490.87683,388.40327 Z" id="Path" fill="#F2F2F2"></path>
                <rect id="Rectangle" fill="#4285F4" x="270.80036" y="128.91011" width="158.98061" height="17.08056"></rect>
                <rect id="Rectangle" fill="#4285F4" opacity="0.3" x="239.26702" y="170.29763" width="215.47786" height="8.54028"></rect>
                <rect id="Rectangle" fill="#4285F4" opacity="0.3" x="239.26702" y="197.88931" width="215.47786" height="8.54028"></rect>
                <rect id="Rectangle" fill="#4285F4" opacity="0.3" x="239.26702" y="225.48098" width="215.47786" height="8.54028"></rect>
                <rect id="Rectangle" fill="#4285F4" opacity="0.3" x="239.26702" y="253.07266" width="215.47786" height="8.54028"></rect>
                <rect id="Rectangle" fill="#4285F4" opacity="0.3" x="239.26702" y="280.66434" width="215.47786" height="8.54028"></rect>
                <rect id="Rectangle" fill="#4285F4" opacity="0.3" x="239.26702" y="308.25601" width="215.47786" height="8.54028"></rect>
                <rect id="Rectangle" fill="#4285F4" opacity="0.3" x="239.26702" y="335.84769" width="215.47786" height="8.54028"></rect>
                <path d="M315.52178,330.69795 L225.8969,261.02076 C224.071693,257.846493 220.689255,255.88966 217.02765,255.88966 L168.65528,255.88966 C163.004899,255.88966 158.42436,260.470199 158.42436,266.12058 L158.42436,693.06167 C158.42436,711.389317 173.281853,726.24681 191.6095,726.24681 L688.17164,726.24681 C696.972885,726.24681 705.413655,722.750528 711.637074,716.527107 C717.860493,710.303686 721.35677,701.862915 721.35677,693.06167 L721.35677,360.86057 C721.35677,344.202219 707.852511,330.697956 691.19416,330.69795 L315.52178,330.69795 Z" id="Path" fill="#3F3D56"></path>
                <rect id="Rectangle" fill="#4285F4" x="614.39961" y="429.7086" width="90.06919" height="31.52422"></rect>
                <path d="M0,791.11121 C0,791.11121 411.93965,555.524 909.3762,791.11121" id="Path" fill="#F2F2F2"></path>
                <path d="M88.22642,250.48496 C88.22642,250.48496 92.64761,273.91723 89.55278,275.6857 C87.0530896,277.256865 84.6871204,279.031342 82.47889,280.99112 L90.43702,292.04412 L109.4481,296.02318 L127.57495,279.22269 L127.57495,262.42216 C127.57495,262.42216 122.26953,254.02191 123.15377,248.71649 C124.03801,243.41107 88.22642,250.48496 88.22642,250.48496 Z" id="Path" fill="#FBBEBE"></path>
                <path d="M88.22642,250.48496 C88.22642,250.48496 92.64761,273.91723 89.55278,275.6857 C87.0530896,277.256865 84.6871204,279.031342 82.47889,280.99112 L90.43702,292.04412 L109.4481,296.02318 L127.57495,279.22269 L127.57495,262.42216 C127.57495,262.42216 122.26953,254.02191 123.15377,248.71649 C124.03801,243.41107 88.22642,250.48496 88.22642,250.48496 Z" id="Path" fill="#000000" opacity="0.1"></path>
                <path d="M57.72021,290.71772 L55.0675,292.04408 C55.0675,292.04408 49.31997,294.25467 46.66726,313.26576 C44.01455,332.27685 37.82489,377.81502 39.59337,379.14138 C41.36185,380.46774 40.4776,389.3101 40.4776,389.3101 L53.74115,319.89753 L57.72021,290.71772 Z" id="Path" fill="#2F2E41"></path>
                <path d="M89.159,182.81608 C88.75457,183.66008 88.61276,184.64548 88.23332,185.50525 C86.51019,189.4097 81.6049,188.53601 78.06681,190.01286 C75.07042,191.26359 72.83408,194.69807 72.59961,198.40916 C72.50007,199.98472 72.73107,201.5738 72.58946,203.14495 C72.32786,206.04717 70.83146,208.60295 70.29884,211.45402 C69.00502,218.38002 72.02392,229.31765 75.43267,225.57995 C76.5076,224.40129 77.8531,223.61995 79.01417,222.55895 C82.02962,219.80341 83.56538,215.42204 86.01478,211.98328 C86.3246237,211.478761 86.751116,211.056045 87.25837,210.7507 C89.04816,209.86134 90.6415,212.2418 92.05637,213.80216 C93.5131261,215.3929 95.583372,216.280711 97.7399661,216.239531 C99.8965601,216.198351 101.931404,215.232154 103.32637,213.58696 C103.758185,212.958771 104.295344,212.409958 104.91412,211.96476 C105.604476,211.646973 106.381675,211.570698 107.12064,211.74821 C110.609472,212.36239 113.752324,214.233682 115.95486,217.00821 C117.13629,218.45414 118.12427,220.15529 119.54039,221.27632 C120.95651,222.39735 123.02258,222.76668 124.29791,221.43432 C126.86469,223.24898 127.82214,227.1012 127.82891,230.60924 C127.83568,234.11728 127.11701,237.60266 127.29232,241.10471 C127.46763,244.60676 128.84253,248.38637 131.63332,249.67127 C132.072734,246.482318 133.727826,243.586655 136.25259,241.58964 C138.15336,240.17489 140.46351,239.47401 142.07096,237.62756 C145.28917,233.93086 144.26944,227.78192 144.39305,222.50805 C144.5455,216.00335 146.79976,209.78465 147.19805,203.29421 C147.39705,200.05063 147.06196,196.57301 145.3548,194.00633 C144.06264,192.296013 142.424689,190.877077 140.54763,189.84194 L125.37252,180.10626 C124.698691,179.608306 123.93464,179.245834 123.12273,179.03894 C120.88878,178.63811 118.95778,180.73323 116.84002,181.65649 C115.073701,182.282863 113.190807,182.511246 111.32596,182.32531 C105.43484,182.16569 103.7767,183.3098 99.81686,179.47155 C99.1919948,178.840086 98.3038611,178.543774 97.42502,178.67355 C95.05665,179.04898 90.45462,180.11223 89.159,182.81608 Z" id="Path" fill="#2F2E41"></path>
                <polygon id="Path" fill="#FBBEBE" points="97.511 716.92 106.795 737.257 88.668 743.447 79.384 738.584 81.595 716.92"></polygon>
                <path d="M89.11061,734.16234 C89.11061,734.16234 74.52071,725.31998 71.868,728.4148 C69.21529,731.50962 47.99361,754.05766 47.99361,754.05766 C47.99361,754.05766 15.27686,771.74239 40.47761,774.3951 C65.67836,777.04781 106.79535,758.92096 106.79535,758.92096 C106.79535,758.92096 109.00594,735.04658 107.23747,734.60446 C105.469,734.16234 97.95299,738.58352 94.41604,737.25717 C92.4627265,736.581274 90.6604318,735.529937 89.11061,734.16234 L89.11061,734.16234 Z" id="Path" fill="#2F2E41"></path>
                <polygon id="Path" fill="#FBBEBE" points="121.385 738.584 121.385 756.71 97.511 751.405 102.816 732.836"></polygon>
                <path d="M97.06874,744.77318 C97.06874,744.77318 121.38524,740.79412 123.59584,752.73131 C125.80644,764.6685 131.55396,782.35323 125.80643,786.77442 C120.0589,791.19561 90.43697,796.94314 89.99485,789.42713 C89.55273,781.91112 93.08968,767.32121 93.08968,767.32121 C93.08968,767.32121 95.30027,755.82614 93.97391,752.73131 C92.64755,749.63648 97.06874,744.77318 97.06874,744.77318 Z" id="Path" fill="#2F2E41"></path>
                <path d="M48.50042,446.22985 C48.50042,446.22985 28.54042,572.78918 44.8988,634.68573 C61.25718,696.58228 72.75224,733.27808 72.75224,733.27808 C72.75224,733.27808 101.0478,725.31995 101.0478,720.01453 C101.0478,714.70911 89.9948,636.01206 87.34214,628.49605 C84.68948,620.98004 80.26825,618.32733 84.24731,612.13767 C88.22637,605.94801 94.85815,566.15737 94.85815,566.15737 C94.85815,566.15737 109.44805,632.03299 110.33229,633.80147 C111.21653,635.56995 101.0478,736.81508 101.0478,736.81508 C101.0478,736.81508 130.23233,757.99424 131.99608,742.1205 C132.4382,738.14144 151.8914,597.10571 151.8914,595.33724 C151.8914,593.56877 159.84953,458.28058 147.0281,451.6488 C134.20667,445.01702 48.50042,446.22985 48.50042,446.22985 Z" id="Path" fill="#2F2E41"></path>
                <circle id="Oval" fill="#FBBEBE" cx="105.46899" cy="229.26328" r="30.06404"></circle>
                <path d="M98.83721,288.94925 L98.83721,285.85442 L89.99485,271.26452 C89.99485,271.26452 81.15248,272.14876 79.82613,276.12782 C78.49978,280.10688 63.46775,311.9394 63.46775,311.9394 L47.55149,454.7436 C47.55149,454.7436 91.3212,465.35444 97.95298,457.83843 C104.58476,450.32242 129.78549,286.73866 129.78549,286.73866 L133.32242,266.84334 C133.32242,266.84334 127.24914,258.00097 125.8646,259.32734 C124.48006,260.65371 101.4899,286.29655 101.4899,286.29655 L101.04778,290.27562 L98.83721,288.94925 Z" id="Path" fill="#4285F4"></path>
                <path d="M89.77379,268.39075 C89.77379,268.39075 81.5946,266.40122 78.94189,271.26452 C76.28918,276.12782 76.28918,277.89629 73.63647,279.66477 C70.98376,281.43325 55.50962,289.39137 54.62539,292.4862 C53.74116,295.58103 34.73006,393.2892 34.73006,393.2892 C34.73006,393.2892 25.44558,422.46901 29.86676,442.36433 C34.28794,462.25965 31.19312,466.23871 40.4776,468.00719 C49.76208,469.77567 51.08844,469.77566 51.08844,467.12295 C51.08844,464.47024 63.02563,374.72023 71.42588,368.53058 C79.82613,362.34093 77.61554,294.69683 77.61554,294.69683 C77.61554,294.69683 89.55273,280.10693 89.55273,277.89633 C89.55273,275.68573 91.54226,268.22493 89.77379,268.39075 Z" id="Path" fill="#2F2E41"></path>
                <path d="M114.75347,284.52808 C115.98696,284.73366 132.88032,262.86428 134.20667,263.74852 C135.53302,264.63276 142.1648,276.12783 143.04904,276.12783 C143.93328,276.12783 181.51333,285.41231 184.60816,302.65493 C187.70299,319.89755 162.94436,374.7202 162.94436,374.7202 C162.94436,374.7202 152.33352,406.1106 154.54411,419.81627 C156.043943,430.253462 155.744875,440.870448 153.65988,451.20666 C152.77564,454.74366 149.68081,458.72266 150.56505,460.49115 C151.44929,462.25964 131.11185,458.28056 122.7116,463.14386 C114.31135,468.00716 76.7313,471.5441 78.94189,466.23868 C81.15248,460.93326 82.47889,440.15368 88.66849,418.04779 C94.85809,395.9419 110.77441,343.77193 108.1217,340.23498 C105.46899,336.69803 112.10076,284.08595 114.75347,284.52808 Z" id="Path" fill="#2F2E41"></path>
                <path d="M179.30274,297.3495 L185.05027,302.65492 C185.05027,302.65492 191.68205,314.14999 190.79781,319.45541 C189.91357,324.76083 209.36681,404.78424 201.40865,407.43695 C193.45049,410.08966 174.43944,423.3532 172.22884,426.89015 C170.01824,430.4271 164.71284,436.61675 161.17589,438.38522 C157.63894,440.15369 154.102,443.24852 151.8914,441.48005 C149.6808,439.71158 144.81751,403.45788 148.35446,402.13153 C151.89141,400.80518 155.42835,396.82611 158.9653,396.82611 C162.50225,396.82611 164.71283,393.28916 164.71283,390.19433 C164.71283,387.0995 162.06012,368.53054 162.06012,368.53054 L156.31259,324.76083 L179.30274,297.3495 Z" id="Path" fill="#2F2E41"></path>
                <path d="M94.46303,187.21544 C94.10543,187.85344 93.98003,188.59839 93.64454,189.24834 C92.12094,192.19993 87.78366,191.53946 84.65526,192.65589 C81.9570185,193.665504 80.0772979,196.133598 79.82115,199.00313 C79.73315,200.19419 79.93738,201.39546 79.81215,202.58319 C79.58085,204.77713 78.2577,206.70919 77.78678,208.86448 C76.64278,214.1002 79.3121,222.36861 82.32613,219.54307 C83.27658,218.65207 84.46629,218.06141 85.49291,217.25935 C88.15919,215.17628 89.51711,211.86415 91.68291,209.2646 C91.9707375,208.871552 92.3475478,208.552247 92.7825,208.33282 C94.36504,207.6605 95.77388,209.46003 97.02491,210.63959 C99.8931032,213.158855 104.205418,213.088455 106.98985,210.47691 C107.384371,209.990985 107.859202,209.576219 108.39375,209.2506 C109.01479,209.009468 109.69221,208.952625 110.34475,209.08689 C113.321421,209.496715 116.073192,210.897517 118.15601,213.06325 C119.095628,214.247919 120.158364,215.329484 121.32635,216.28976 C122.57848,217.13721 124.40535,217.4164 125.53297,216.40922 C127.80253,217.78103 128.64911,220.69313 128.65511,223.34506 C128.66111,225.99699 128.02564,228.63178 128.18065,231.27918 C128.33566,233.92658 129.55135,236.7838 132.01899,237.75518 C132.477218,235.241612 133.955791,233.029982 136.10337,231.64582 C137.78404,230.57633 139.82669,230.04649 141.248,228.65066 C144.09356,225.85611 143.19191,221.20778 143.3012,217.22096 C143.436,212.30369 145.4292,207.60263 145.7814,202.69613 C145.9574,200.24413 145.66107,197.6152 144.15159,195.6749 C142.963086,194.34794 141.51688,193.276826 139.90107,192.52681 L126.48317,185.16705 C125.872056,184.78444 125.198867,184.511398 124.49389,184.36021 C122.51862,184.05721 120.81122,185.64102 118.93869,186.33896 C117.360089,186.814225 115.705673,186.98579 114.06314,186.84456 C108.85414,186.7239 107.38805,187.58879 103.88673,184.68724 C103.29707,184.199412 102.530143,183.98066 101.77186,184.08401 C99.67777,184.36766 95.60862,185.17142 94.46303,187.21544 Z" id="Path" fill="#2F2E41"></path>
            </g>
        </g>
    </g>
</svg>