<?xml version="1.0" encoding="UTF-8"?>
<svg width="1146px" height="820px" viewBox="0 0 1146 820" version="1.1" xmlns="http://www.w3.org/2000/svg" xmlns:xlink="http://www.w3.org/1999/xlink">
    <!-- Generator: Sketch 63.1 (92452) - https://sketch.com -->
    <title>undraw_security_o890</title>
    <desc>Created with Sketch.</desc>
    <defs>
        <linearGradient x1="49.9994739%" y1="100%" x2="49.9994739%" y2="0%" id="linearGradient-1">
            <stop stop-color="#808080" stop-opacity="0.25" offset="0%"></stop>
            <stop stop-color="#808080" stop-opacity="0.12" offset="54%"></stop>
            <stop stop-color="#808080" stop-opacity="0.1" offset="100%"></stop>
        </linearGradient>
        <linearGradient x1="49.9995454%" y1="100.007969%" x2="49.9995454%" y2="0.00176883159%" id="linearGradient-2">
            <stop stop-color="#808080" stop-opacity="0.25" offset="0%"></stop>
            <stop stop-color="#808080" stop-opacity="0.12" offset="54%"></stop>
            <stop stop-color="#808080" stop-opacity="0.1" offset="100%"></stop>
        </linearGradient>
    </defs>
    <g id="illustrations" stroke="none" stroke-width="1" fill="none" fill-rule="evenodd">
        <g id="Drive" transform="translate(-2886.000000, -569.000000)">
            <g id="undraw_security_o890" transform="translate(2886.000000, 569.000000)">
                <path d="M1127.43,551.22 C1100.86,606.03 1046.91,642.68 991,666.85 C915.73,699.4 832.84,712.31 751.09,706.85 C736.763333,705.896667 722.48,704.373333 708.24,702.28 C658.783959,695.064996 610.567802,681.024526 564.97,660.56 C551.81,654.633333 538.916667,648.163333 526.29,641.15 C505.200247,629.460625 484.993081,616.245419 465.83,601.61 C461.01,597.93 456.256667,594.156667 451.57,590.29 C448.32,587.61 445.1,584.87 441.83,582.21 C434.93,576.6 427.83,571.27 419.91,567.28 C417.520303,566.07529 415.070422,564.993871 412.57,564.04 C387.49,554.5 358.57,558.1 332.46,565.54 C312.6,571.2 293.24,578.95 273.4,584.48 C264.575051,587.01462 255.582906,588.925993 246.49,590.2 C226.188752,592.769889 205.572503,590.959233 186.03,584.89 L184.36,584.37 C181.56,583.49 178.783333,582.526667 176.03,581.48 L174.36,580.84 C171.693333,579.813333 169.083333,578.71 166.53,577.53 L164.86,576.77 C162.193333,575.53 159.583333,574.22 157.03,572.84 C156.11,572.36 155.2,571.84 154.3,571.35 C139.772671,563.23636 126.567557,552.95485 115.14,540.86 C114.81,540.53 114.5,540.19 114.14,539.86 C112.55,538.14 110.99,536.39 109.48,534.6 C108.92,533.94 108.36,533.28 107.81,532.6 C106.016667,530.413333 104.286667,528.176667 102.62,525.89 C102.37,525.56 102.13,525.22 101.89,524.89 C95.0615666,515.443405 89.4004779,505.205766 85.03,494.4 C84.89,494.07 84.76,493.73 84.64,493.4 C83.3066667,489.966667 82.09,486.476667 80.99,482.93 C80.54,481.45 80.11,479.93 79.73,478.45 C79.6,478.01 79.48,477.56 79.37,477.12 C73.85,455.39 73.22,432.8 73.22,410.34 C73.22,407.72 73.22,405.103333 73.22,402.49 C73.38,366.16 73.94,329.21 79.3,293.38 C79.3,293.13 79.37,292.88 79.41,292.64 C81.203961,280.577799 83.6441385,268.620596 86.72,256.82 C89.93919,244.437959 94.0533439,232.306051 99.03,220.52 C111.36,191.52 129.29,165.13 149.2,140.67 C199.35,79.12 265.12,27.45 342.1,8.11 C425.05,-12.72 517.24,7.24 584.15,60.51 C604.55,76.75 622.88,95.98 645.79,108.43 C665.79,119.27 689.2,123.76 710.62,115.23 C728.32,108.18 739.84,104.68 759.72,105.75 C800.876121,108.078273 841.448918,116.576447 880.08,130.96 C881.64,131.53 883.2,132.12 884.75,132.71 C985.46,171.24 1072.03,247.79 1117.03,346.16 C1118.22333,348.76 1119.38,351.38 1120.5,354.02 C1147.33,416.69 1157.03,490.14 1127.43,551.22 Z" id="Path" fill="#4285F4" fill-rule="nonzero" opacity="0.1"></path>
                <ellipse id="Oval" fill="#4285F4" fill-rule="nonzero" opacity="0.1" cx="120.3" cy="728.81" rx="88.28" ry="14.18"></ellipse>
                <ellipse id="Oval" fill="#4285F4" fill-rule="nonzero" opacity="0.1" cx="912.26" cy="804.71" rx="156.53" ry="15.2"></ellipse>
                <rect id="Rectangle" fill="url(#linearGradient-1)" fill-rule="nonzero" x="116.14" y="107.75" width="950.33" height="538.33" rx="12.49"></rect>
                <rect id="Rectangle" fill="#FFFFFF" fill-rule="nonzero" x="117.65" y="115.32" width="947.42" height="528.97" rx="12.49"></rect>
                <rect id="Rectangle" fill="#FFFFFF" fill-rule="nonzero" x="117.65" y="115.32" width="947.42" height="528.97" rx="12.49"></rect>
                <rect id="Rectangle" fill="#FFFFFF" fill-rule="nonzero" opacity="0.04" x="117.65" y="115.32" width="947.42" height="528.97" rx="12.49"></rect>
                <path d="M1060.26,109.25 L122.46,109.25 C119.80351,109.25 117.65,111.40351 117.65,114.06 L117.65,134.39 L1065.03,134.39 L1065.03,114.06 C1065.03,111.419053 1062.90086,109.271962 1060.26,109.25 Z" id="Path" fill="#5A5773" fill-rule="nonzero"></path>
                <g id="6c975d28-8d47-4ade-9154-b3b78f637b65" transform="translate(130.000000, 115.000000)" fill="#FFFFFF" fill-rule="nonzero">
                    <circle id="Oval" cx="6.57" cy="6.82" r="6.5"></circle>
                    <circle id="Oval" cx="24.07" cy="6.82" r="6.5"></circle>
                    <circle id="Oval" cx="41.57" cy="6.82" r="6.5"></circle>
                </g>
                <rect id="Rectangle" fill="#4285F4" fill-rule="nonzero" opacity="0.2" x="195.68" y="181.67" width="254.25" height="21.58"></rect>
                <rect id="Rectangle" fill="#5A5773" fill-rule="nonzero" opacity="0.1" x="195.68" y="268.2" width="791.36" height="331.96"></rect>
                <path d="M659.03,289.85 L645.48,289.85 L645.48,263.53 C645.48,233.83 621.8,209.14 592.1,208.69 C577.634965,208.538024 563.707656,214.166285 553.409535,224.32547 C543.111414,234.484656 537.294507,248.334235 537.25,262.8 L537.25,289.85 L523.73,289.85 C511.291933,289.888432 501.218432,299.961933 501.18,312.4 L501.18,420.62 C501.218432,433.058067 511.291933,443.131568 523.73,443.17 L659.03,443.17 C671.466434,443.131541 681.537057,433.05645 681.57,420.62 L681.57,312.4 C681.537057,299.96355 671.466434,289.888459 659.03,289.85 Z M599.28,360.2 L599.28,398.96 C599.307128,403.218894 596.027645,406.769481 591.78,407.08 C589.620531,407.181123 587.51377,406.393991 585.949652,404.901656 C584.385534,403.409321 583.500367,401.341835 583.5,399.18 L583.5,360.18 C575.966768,356.506189 571.966039,348.119169 573.851254,339.952625 C575.736468,331.786081 583.008683,326.001375 591.39,326.001375 C599.771317,326.001375 607.043532,331.786081 608.928746,339.952625 C610.813961,348.119169 606.813232,356.506189 599.28,360.18 L599.28,360.2 Z M629.72,289.85 L553.03,289.85 L553.03,262.8 C553.03,241.630926 570.190926,224.47 591.36,224.47 C612.529074,224.47 629.69,241.630926 629.69,262.8 L629.72,289.85 Z" id="Shape" fill="#000000" fill-rule="nonzero" opacity="0.1"></path>
                <path d="M659.03,287.85 L645.48,287.85 L645.48,261.53 C645.48,231.83 621.8,207.14 592.1,206.69 C577.634965,206.538024 563.707656,212.166285 553.409535,222.32547 C543.111414,232.484656 537.294507,246.334235 537.25,260.8 L537.25,287.85 L523.73,287.85 C511.291933,287.888432 501.218432,297.961933 501.18,310.4 L501.18,418.62 C501.218432,431.058067 511.291933,441.131568 523.73,441.17 L659.03,441.17 C671.466434,441.131541 681.537057,431.05645 681.57,418.62 L681.57,310.4 C681.537057,297.96355 671.466434,287.888459 659.03,287.85 L659.03,287.85 Z M599.28,358.2 L599.28,396.96 C599.307128,401.218894 596.027645,404.769481 591.78,405.08 C589.620531,405.181123 587.51377,404.393991 585.949652,402.901656 C584.385534,401.409321 583.500367,399.341835 583.5,397.18 L583.5,358.18 C575.966768,354.506189 571.966039,346.119169 573.851254,337.952625 C575.736468,329.786081 583.008683,324.001375 591.39,324.001375 C599.771317,324.001375 607.043532,329.786081 608.928746,337.952625 C610.813961,346.119169 606.813232,354.506189 599.28,358.18 L599.28,358.2 Z M629.72,287.85 L553.03,287.85 L553.03,260.8 C553.03,239.630926 570.190926,222.47 591.36,222.47 C612.529074,222.47 629.69,239.630926 629.69,260.8 L629.72,287.85 Z" id="Shape" fill="#4285F4" fill-rule="nonzero"></path>
                <rect id="Rectangle" fill="#5A5773" fill-rule="nonzero" opacity="0.1" x="906.94" y="236.25" width="80.1" height="18.91"></rect>
                <path d="M1014.3,809.29 C1013.77245,806.638973 1012.87006,804.076582 1011.62,801.68 L999.62,783.76 L999.69,783.76 C999.69,783.76 997.8,774.76 999.69,770.34 C1001.58,765.92 992.95,755.05 992.95,755.05 C992.95,755.05 991.9,752.32 994.64,748.96 C997.38,745.6 992.95,735.76 992.95,735.76 C992.95,735.76 990.85,715.21 990.64,712.07 C990.43,708.93 988.74,691.53 988.74,691.53 L984.74,654.64 L977.62,556.87 L977.49,555.04 C978.37,554.61 978.84,554.34 978.84,554.34 L977.42,500.28 L978.65,499.17 C989.39,489.45 1014.16,466.95 1013.91,466.46 C1013.66,465.97 1010.91,428.89 1010.59,419.61 C1010.31496,413.01511 1008.87263,406.521242 1006.33,400.43 C1005.71,399.2 1003.92,391.09 1003.18,387.66 C1002.98,386.72 1002.85,386.13 1002.85,386.13 C1002.85,386.13 995.59,372.29 996.22,366 C996.85,359.71 998.11,355 982.63,352.8 C982.63,352.8 969.63,350.86 961.89,345.57 C957.312493,342.401327 952.309544,339.896486 947.03,338.13 C947.03,338.13 942.69,330.13 939.67,332.84 C938.391176,329.985394 937.435248,326.996861 936.82,323.93 L936.73,323.37 C942.462717,319.372561 946.588206,313.467867 948.37,306.71 C948.47,306.33 948.55,305.94 948.64,305.56 C948.940057,305.661694 949.253371,305.718966 949.57,305.73 C952.2,305.73 953.82,302.8 956.28,301.87 C957.28,301.48 958.51,301.42 959.28,300.63 C959.792887,300.014545 960.031391,299.215918 959.94,298.42 C959.9649,298.147234 959.9649,297.872766 959.94,297.6 C959.944787,297.503393 959.944787,297.406607 959.94,297.31 L959.94,297.41 C959.27,293.77 956.45,290.54 956.76,286.84 C957.06,283.36 960.12,280.3 959.87,276.91 C959.866555,276.641966 959.843157,276.37456 959.8,276.11 L959.8,276.23 C959.42732,274.906498 958.741302,273.692247 957.8,272.69 C956.723531,271.223405 955.310573,270.036795 953.68,269.23 C952.29,268.62 950.68,268.48 949.38,267.75 C945.56,265.67 945.57,260.25 943.3,256.55 C941.316981,253.400759 937.736733,251.628015 934.03,251.96 C931.19,252.24 928.62,253.75 925.81,254.24 C921.97,254.92 918.06,253.67 914.42,252.24 C910.78,250.81 907.09,249.24 903.18,249.24 C899.27,249.24 895.04,251.24 893.86,254.93 C893.23,256.93 893.54,259.08 893.06,261.11 C892.2,264.69 889.06,267.25 885.81,269.03 C883.81,270.14 881.43,271.41 880.81,273.51 C880.81,273.45 880.81,273.4 880.81,273.35 C880.765188,273.517547 880.731778,273.687937 880.71,273.86 C880.690009,274.082886 880.690009,274.307114 880.71,274.53 C880.71,275.97 881.47,277.34 881.98,278.71 C882.93031,281.316394 882.909007,284.178043 881.92,286.77 C881.18,288.67 879.92,290.34 879.2,292.23 C878.860708,293.110412 878.638802,294.03166 878.54,294.97 L878.54,294.81 C878.515155,295.236305 878.515155,295.663695 878.54,296.09 C878.527624,297.550399 878.870832,298.991873 879.54,300.29 C880.466808,302.100916 882.08604,303.460493 884.03,304.06 C886.03,304.52 887.28,302.56 889.39,303.06 C889.76763,303.150924 890.138516,303.26787 890.5,303.41 C890.57,303.86 890.64,304.31 890.72,304.75 C891.995798,311.480123 895.582359,317.553225 900.86,321.92 C900.86,322.16 900.94,322.4 900.97,322.65 L900.97,322.65 C901.608686,326.63687 901.886478,330.673222 901.8,334.71 C901.8,334.71 898.65,330.1 894.33,339 C894.33,339 883.06,345.5 879.17,346.24 C875.28,346.98 861.47,351.79 861.47,351.79 C859.386901,353.296281 856.880634,354.104867 854.31,354.1 C850,354.1 846.42,363.53 846.94,368.66 C847.46,373.79 846.63,377.57 842.62,377.78 C838.61,377.99 840.8,386.12 840.83,386.26 L840.46,388.01 C839.68,391.59 837.98,399.27 837.38,400.47 C834.837362,406.5617 833.39178,413.054971 833.11,419.65 C832.8,428.93 830.11,465.87 829.8,466.5 C829.59,466.91 846.56,482.42 858.49,493.26 L860.22,494.82 L854.73,546.1 C855.053953,550.098707 857.115581,553.754076 860.37,556.1 C860.37,556.7 860.37,557.31 860.31,557.94 C860.07,563.94 859.59,571.2 858.63,573.1 C856.95,576.46 857.37,594.48 857.37,594.48 C857.37,594.48 855.68,631.16 853.58,635.15 C851.48,639.14 851.05,647.51 851.68,649.15 C852.31,650.79 849.57,694.84 849.57,694.84 L847.47,714.55 C847.47,714.55 848.1,733.41 846.2,733.83 C844.3,734.25 843.25,747.25 843.25,747.25 C843.25,747.25 836.52,756.47 839.46,759.82 C842.4,763.17 839.03,764.65 838.72,765.48 C838.41,766.31 832.3,769.48 836.72,781.2 C836.76059,781.315741 836.807323,781.429236 836.86,781.54 C832.72,787.29 819.6,805.84 820.4,808.66 C820.990468,810.453949 822.241938,811.955713 823.9,812.86 C826.99,814.71 832.29,815.57 840.72,812.86 C854.72,808.35 853.72,805.1 853.72,805.1 C853.868851,801.944674 856.461215,799.457763 859.62,799.44 C865.41,799.02 869.73,793.68 869.73,793.68 L869.05,791.15 L868.12,787.65 C868.23,786.65 868.94,784.9 872.12,783.93 C876.97,782.46 875.7,773.24 875.7,773.24 C875.7,773.24 875.28,763.6 877.38,762.34 C879.48,761.08 878.65,745.15 878.65,745.15 C878.65,745.15 880.97,733.62 884.33,725.86 C887.69,718.1 891.71,672 891.71,672 C891.71,672 894.44,649.36 896.97,642.86 C899.5,636.36 901.82,618.13 901.82,618.13 C901.82,618.13 917.41,587.94 917.61,581.23 C917.61,581.23 919.61,574.94 921.61,581.86 C923.61,588.78 929.23,605.34 929.23,605.34 L934.7,625.67 L941.23,656.06 L945.45,681.64 C945.45,681.64 944.81,691.28 946.45,694.64 C948.09,698 950.45,705.74 949.19,707.21 C947.93,708.68 951.71,715.6 952.77,717.06 C953.83,718.52 952.77,749.55 952.77,749.55 C952.77,749.55 957.61,775.96 964.56,780.55 C965.044696,780.868508 965.560718,781.136571 966.1,781.35 C966,784.21 965.9,788.04 966.03,790.04 C966.014612,790.48701 966.089433,790.93254 966.25,791.35 C966.88,792.19 974.04,797.85 975.52,797.85 C977,797.85 982.25,801.52 982.47,803.3 C982.69,805.08 997.86,812.62 1000.01,812.84 C1002.16,813.06 1012.58,814.93 1014.01,812 C1014.36371,811.142956 1014.46435,810.202483 1014.3,809.29 Z M977.03,431.57 L978.11,432.5 C978.11,432.5 979.22,441.15 980.01,443.74 C980.8,446.33 979.85,451.37 979.85,451.37 C979.922643,453.250998 980.297431,455.10806 980.96,456.87 C981.9,458.76 979.06,462.87 979.06,462.87 L976.53,462.87 L975.74,430.49 L977.03,431.57 Z M901.8,334.89 L901.8,334.7 C901.78,334.76 901.77,334.83 901.77,334.89 L901.8,334.89 Z M862.95,459.54 C862.560735,458.702309 862.503559,457.748183 862.79,456.87 C863.014827,456.395263 863.19235,455.899537 863.32,455.39 C863.630749,454.076348 863.824837,452.737812 863.9,451.39 C863.901491,451.373367 863.901491,451.356633 863.9,451.34 C863.81,450.86 863,446.22 863.75,443.76 C864.5,441.3 865.64,432.52 865.64,432.52 L866.36,431.91 L868.03,430.46 C868.03,430.46 868.03,429.92 868.15,429.03 C868.5,436.63 868.78,445.03 868.33,445.45 C867.49,446.28 864.43,454.45 865.17,454.77 C865.41,454.88 865.08,458.15 864.52,462.55 C863.891011,461.605415 863.364693,460.59636 862.95,459.54 L862.95,459.54 Z" id="Shape" fill="url(#linearGradient-2)" fill-rule="nonzero"></path>
                <path d="M943.55,342.88 L943.55,355.32 L918.03,368.15 C918.03,368.15 892.69,352.82 898.94,346.72 C902.94,342.86 902.17,332.26 901.09,324.97 L901.09,324.97 C900.46,320.73 899.73,317.62 899.73,317.62 C899.73,317.62 945.25,304.62 938.37,314.49 C936.07,317.79 935.89,322.06 936.66,326.29 C938.22,334.68 943.55,342.88 943.55,342.88 Z" id="Path" fill="#C37098" fill-rule="nonzero"></path>
                <path d="M873.64,464.53 L870.35,505.05 C870.35,505.05 865.42,500.58 859.04,494.76 C847.21,483.97 830.41,468.54 830.61,468.13 C830.92,467.5 833.61,430.74 833.9,421.5 C834.173414,414.941287 835.601982,408.482265 838.12,402.42 C838.72,401.22 840.41,393.58 841.12,390.01 C841.36,388.9 841.51,388.18 841.51,388.18 L847.03,385.96 C847.03,385.96 870.03,411.62 870.03,412.09 C870.03,412.56 868.46,432.27 868.46,432.27 L866.83,433.69 L866.12,434.3 C866.12,434.3 865.02,442.91 864.24,445.49 C863.46,448.07 864.3,452.55 864.39,453.03 L864.39,453.03 C864.316433,454.377348 864.125714,455.715733 863.82,457.03 C863.689504,457.535438 863.512066,458.027577 863.29,458.5 C863.008173,459.375396 863.065274,460.324698 863.45,461.16 C863.894389,462.319395 864.471568,463.423418 865.17,464.45 L873.64,464.53 Z" id="Path" fill="#3F3D56" fill-rule="nonzero"></path>
                <path d="M1013.03,468.13 C1013.27,468.62 988.74,491.01 978.11,500.68 L973.29,505.05 L970.03,464.53 L978.48,464.53 C978.48,464.53 981.3,460.46 980.36,458.58 C979.704727,456.827189 979.336661,454.980103 979.27,453.11 C979.27,453.11 980.2,448.11 979.42,445.52 C978.64,442.93 977.54,434.33 977.54,434.33 L976.47,433.41 L975.2,432.3 C975.2,432.3 973.63,412.59 973.63,412.12 C973.63,411.65 996.63,385.99 996.63,385.99 L1002.11,388.18 C1002.11,388.18 1002.23,388.77 1002.43,389.71 C1003.17,393.12 1004.94,401.19 1005.55,402.42 C1008.06802,408.482265 1009.49659,414.941287 1009.77,421.5 C1010.03,430.74 1012.71,467.5 1013.03,468.13 Z" id="Path" fill="#3F3D56" fill-rule="nonzero"></path>
                <path d="M1013.13,812.07 C1011.66,814.99 1001.34,813.07 999.21,812.91 C997.08,812.75 982.04,805.18 981.83,803.41 C981.62,801.64 976.41,797.99 974.95,797.99 C973.49,797.99 966.4,792.35 965.77,791.52 C965.610347,791.105988 965.538823,790.663223 965.56,790.22 C965.34,786.79 965.77,777.96 965.77,777.96 L996.02,779.63 L1010.72,801.74 C1011.95896,804.125376 1012.85449,806.673925 1013.38,809.31 C1013.55838,810.235179 1013.47172,811.191932 1013.13,812.07 L1013.13,812.07 Z" id="Path" fill="#3F3D56" fill-rule="nonzero"></path>
                <path d="M1013.13,812.07 C1011.66,814.99 1001.34,813.07 999.21,812.91 C997.08,812.75 982.04,805.18 981.83,803.41 C981.62,801.64 976.41,797.99 974.95,797.99 C973.49,797.99 966.4,792.35 965.77,791.52 C965.610347,791.105988 965.538823,790.663223 965.56,790.22 C965.34,786.79 965.77,777.96 965.77,777.96 L996.02,779.63 L1010.72,801.74 C1011.95896,804.125376 1012.85449,806.673925 1013.38,809.31 C1013.55838,810.235179 1013.47172,811.191932 1013.13,812.07 L1013.13,812.07 Z" id="Path" fill="#000000" fill-rule="nonzero" opacity="0.1"></path>
                <path d="M1013.13,812.07 C1011.66,814.99 1001.34,813.07 999.21,812.91 C997.08,812.75 982.04,805.18 981.83,803.41 C981.62,801.64 976.41,797.99 974.95,797.99 C973.49,797.99 966.4,792.35 965.77,791.52 C965.610347,791.105988 965.538823,790.663223 965.56,790.22 L975.36,796.42 C975.36,796.42 981.62,800.42 983.29,802.79 C984.96,805.16 998.12,810.09 999.21,810.19 C1000.02,810.27 1008.66,808.61 1013.38,809.31 C1013.55838,810.235179 1013.47172,811.191932 1013.13,812.07 L1013.13,812.07 Z" id="Path" fill="#000000" fill-rule="nonzero" opacity="0.1"></path>
                <path d="M870.13,793.82 C870.13,793.82 865.85,799.14 860.13,799.55 C856.995297,799.573559 854.428289,802.048261 854.29,805.18 C854.29,805.18 855.29,808.42 841.46,812.91 C833.11,815.6 827.86,814.75 824.8,812.91 C823.157798,812.003866 821.918433,810.510913 821.33,808.73 C820.39,805.4 838.85,780.05 838.85,780.05 L855.65,779.05 L867.65,784.47 L869.49,791.34 L870.13,793.82 Z" id="Path" fill="#3F3D56" fill-rule="nonzero"></path>
                <path d="M870.13,793.82 C870.13,793.82 865.85,799.14 860.13,799.55 C856.995297,799.573559 854.428289,802.048261 854.29,805.18 C854.29,805.18 855.29,808.42 841.46,812.91 C833.11,815.6 827.86,814.75 824.8,812.91 C823.157798,812.003866 821.918433,810.510913 821.33,808.73 C820.39,805.4 838.85,780.05 838.85,780.05 L855.65,779.05 L867.65,784.47 L869.49,791.34 L870.13,793.82 Z" id="Path" fill="#000000" fill-rule="nonzero" opacity="0.1"></path>
                <path d="M870.13,793.82 C870.13,793.82 865.85,799.14 860.13,799.55 C856.995297,799.573559 854.428289,802.048261 854.29,805.18 C854.29,805.18 855.29,808.42 841.46,812.91 C833.11,815.6 827.86,814.75 824.8,812.91 C832.67,812.09 850.06,807.12 851.8,805.4 C853.89,803.31 856.5,797.57 858.27,797.47 C859.5,797.39 865.75,793.63 869.5,791.3 L870.13,793.82 Z" id="Path"></path>
                <path d="M870.13,793.82 C870.13,793.82 865.85,799.14 860.13,799.55 C856.995297,799.573559 854.428289,802.048261 854.29,805.18 C854.29,805.18 855.29,808.42 841.46,812.91 C833.11,815.6 827.86,814.75 824.8,812.91 C832.67,812.09 850.06,807.12 851.8,805.4 C853.89,803.31 856.5,797.57 858.27,797.47 C859.5,797.39 865.75,793.63 869.5,791.3 L870.13,793.82 Z" id="Path" fill="#000000" fill-rule="nonzero" opacity="0.1"></path>
                <path d="M998.94,770.56 C997.06,774.94 998.94,783.91 998.94,783.91 C998.94,783.91 970.94,785.37 964.1,780.78 C957.26,776.19 952.42,749.9 952.42,749.9 C952.42,749.9 953.42,719.03 952.42,717.57 C951.42,716.11 947.62,709.23 948.87,707.77 C950.12,706.31 947.87,698.59 946.16,695.25 C944.45,691.91 945.16,682.32 945.16,682.32 L940.98,656.86 L934.52,626.62 L929.03,606.38 C929.03,606.38 923.4,589.9 921.49,583.02 C919.58,576.14 917.56,582.39 917.56,582.39 C917.36,589.07 901.92,619.11 901.92,619.11 C901.92,619.11 899.62,637.26 897.12,643.72 C894.62,650.18 891.9,672.72 891.9,672.72 C891.9,672.72 887.9,718.61 884.6,726.33 C881.3,734.05 879.03,745.52 879.03,745.52 C879.03,745.52 879.87,761.38 877.78,762.63 C875.69,763.88 876.03,773.48 876.03,773.48 C876.03,773.48 877.28,782.65 872.48,784.12 C867.68,785.59 868.48,788.71 868.48,788.71 C868.48,788.71 841.78,793.09 837.4,781.4 C833.02,769.71 839.07,766.6 839.4,765.76 C839.73,764.92 843.06,763.47 840.14,760.12 C837.22,756.77 843.89,747.61 843.89,747.61 C843.89,747.61 844.94,734.68 846.81,734.26 C848.68,733.84 848.07,715.07 848.07,715.07 L850.15,695.46 C850.15,695.46 852.87,651.65 852.24,649.98 C851.61,648.31 852.03,639.98 854.12,635.98 C856.21,631.98 857.87,595.5 857.87,595.5 C857.87,595.5 857.45,577.57 859.12,574.23 C860.12,572.34 860.54,565.07 860.78,559.14 C860.96,554.61 861,550.86 861,550.86 L884.36,542.1 L914.36,532.51 L939.6,544.61 L976.53,551.7 L976.99,558.07 L984.04,655.38 L988.04,692.09 C988.04,692.09 989.71,709.4 989.92,712.53 C990.13,715.66 992.21,736.11 992.21,736.11 C992.21,736.11 996.59,745.91 993.88,749.25 C991.17,752.59 992.21,755.25 992.21,755.25 C992.21,755.25 1000.82,766.18 998.94,770.56 Z" id="Path" fill="#3F3D56" fill-rule="nonzero"></path>
                <path d="M938.39,314.49 C936.09,317.79 935.91,322.06 936.68,326.29 C925.87771,333.910794 911.313024,333.366205 901.11,324.96 L901.11,324.96 C900.48,320.72 899.75,317.61 899.75,317.61 C899.75,317.61 945.27,304.63 938.39,314.49 Z" id="Path" fill="#000000" fill-rule="nonzero" opacity="0.1"></path>
                <path d="M949.030338,301.73 C949.030338,317.911943 935.911943,331.03 919.73,331.03 C903.548057,331.03 890.43,317.911943 890.43,301.73 C890.43,285.548057 903.548057,272.429662 919.73,272.429662 C927.512265,272.392546 934.986616,275.467473 940.489571,280.970429 C945.992527,286.473384 949.067454,293.947735 949.030338,301.73 L949.030338,301.73 Z" id="Path" fill="#C37098" fill-rule="nonzero"></path>
                <polygon id="Path" fill="#000000" fill-rule="nonzero" opacity="0.1" points="955.13 350.42 945.53 521.37 893.38 510.42 883.05 441.89 893.28 349.89 900.98 350.88 914.56 352.61 928.01 353.44 942.59 351.82"></polygon>
                <polygon id="Path" fill="#4285F4" fill-rule="nonzero" points="955.13 351.67 945.53 522.62 893.38 511.67 883.05 443.14 893.28 351.15 900.98 352.13 914.56 353.86 928.01 354.69 942.59 353.07"></polygon>
                <path d="M912.26,356.26 L931.04,356.89 L925.76,364.28 C925.76,364.28 926.13,379.21 928.64,383.49 C931.15,387.77 930.41,453.89 930.41,453.89 L925.41,463.38 L916.86,452.74 L916.97,365.44 L912.26,356.26 Z" id="Path" fill="#3F3D56" fill-rule="nonzero"></path>
                <path d="M912.26,356.26 L931.04,356.89 L925.76,364.28 C925.76,364.28 926.13,379.21 928.64,383.49 C931.15,387.77 930.41,453.89 930.41,453.89 L925.41,463.38 L916.86,452.74 L916.97,365.44 L912.26,356.26 Z" id="Path" fill="#000000" fill-rule="nonzero" opacity="0.1"></path>
                <polygon id="Path" fill="#000000" fill-rule="nonzero" opacity="0.1" points="941.67 336.86 924.15 356.26 934.16 366.69 950.75 350.52"></polygon>
                <polygon id="Path" fill="#4285F4" fill-rule="nonzero" points="941.67 335.61 924.15 355.01 934.16 365.44 950.75 349.27"></polygon>
                <polygon id="Path" fill="#000000" fill-rule="nonzero" opacity="0.1" points="916.75 355.32 899.01 337.59 897.34 346.87 905.48 367.21"></polygon>
                <polygon id="Path" fill="#4285F4" fill-rule="nonzero" points="917.37 354.07 899.64 336.34 897.97 345.62 906.11 365.96"></polygon>
                <path d="M977.08,558.1 C968.565525,562.156731 959.445348,564.794827 950.08,565.91 C932.87,568.1 921.61,546.2 921.61,546.2 L915.04,554.75 C912.95,563.83 881.14,566.12 868.21,562.68 C865.527072,562.017287 863.004097,560.823803 860.79,559.17 C860.97,554.64 861.01,550.89 861.01,550.89 L884.37,542.13 L914.37,532.54 L939.61,544.64 L976.54,551.73 L977.08,558.1 Z" id="Path" fill="#000000" fill-rule="nonzero" opacity="0.1"></path>
                <path d="M955.13,351.68 L945.54,522.62 L893.38,511.67 L883.03,443.15 L893.25,351.15 L900.95,352.15 C900.753163,355.501205 900.37595,358.839375 899.82,362.15 C898.57,368 906.29,409.51 906.29,409.51 C906.29,409.51 920.96,456.06 927.56,449.35 C934.16,442.64 943.56,407.21 943.56,407.21 C949.93,394.07 943.67,357.21 943.2,356.47 C942.872538,355.379955 942.671221,354.255939 942.6,353.12 L955.13,351.68 Z" id="Path" fill="#000000" fill-rule="nonzero" opacity="0.1"></path>
                <polygon id="Path" fill="#000000" fill-rule="nonzero" opacity="0.1" points="977.66 483.96 978.1 500.71 973.28 505.08 970.03 464.53 977.23 464.53"></polygon>
                <path d="M864.4,453.06 L864.4,453.06 C864.326433,454.407348 864.135714,455.745733 863.83,457.06 C863.83,456.69 863.83,456.48 863.75,456.45 C863.45,456.37 863.81,454.84 864.4,453.06 Z" id="Path" fill="#000000" fill-rule="nonzero" opacity="0.1"></path>
                <path d="M873.64,464.53 L870.35,505.05 C870.35,505.05 865.42,500.58 859.04,494.76 L859.8,487.58 C859.8,487.58 862.49,469.94 863.47,461.24 C863.914389,462.399395 864.491568,463.503418 865.19,464.53 L873.64,464.53 Z" id="Path" fill="#000000" fill-rule="nonzero" opacity="0.1"></path>
                <path d="M901.93,336.96 C901.93,336.96 898.81,332.37 894.53,341.23 C894.53,341.23 883.37,347.7 879.53,348.43 C875.69,349.16 862.03,353.96 862.03,353.96 C859.966982,355.451295 857.485584,356.252762 854.94,356.25 C850.66,356.25 847.11,365.64 847.63,370.75 C848.15,375.86 847.32,379.62 843.36,379.83 C839.4,380.04 841.58,388.27 841.58,388.27 L867.97,418.52 C867.97,418.52 869.64,446.37 868.81,447.21 C867.98,448.05 864.95,456.21 865.68,456.49 C866.41,456.77 861.68,487.57 861.68,487.57 L855.32,547.34 C855.32,547.34 855.32,557.34 868.26,560.79 C881.2,564.24 913.03,561.96 915.08,552.88 L921.65,544.32 C921.65,544.32 932.91,566.23 950.12,564.04 C967.33,561.85 978.29,555.59 978.29,555.59 L976.41,483.96 L975.16,432.33 L1002.03,388.18 C1002.03,388.18 994.83,374.41 995.46,368.18 C996.09,361.95 997.33,357.23 982,355.04 C982,355.04 969.07,353.11 961.45,347.84 C956.921541,344.695724 951.972983,342.204613 946.75,340.44 C946.75,340.44 942.45,332.44 939.46,335.18 C939.46,335.18 942.46,346.49 942.21,348.18 C941.96,349.87 942.68,357.51 943.15,358.3 C943.62,359.09 949.88,395.9 943.51,409.04 C943.51,409.04 934.16,444.47 927.51,451.18 C920.86,457.89 906.24,411.34 906.24,411.34 C906.24,411.34 898.52,369.82 899.77,363.98 C901.02,358.14 901.93,336.96 901.93,336.96 Z" id="Path" fill="#3F3D56" fill-rule="nonzero"></path>
                <circle id="Oval" fill="#3F3D56" fill-rule="nonzero" cx="924.25" cy="469.12" r="4.59"></circle>
                <circle id="Oval" fill="#3F3D56" fill-rule="nonzero" cx="924.25" cy="490.76" r="4.59"></circle>
                <circle id="Oval" fill="#000000" fill-rule="nonzero" opacity="0.1" cx="924.25" cy="469.12" r="4.59"></circle>
                <circle id="Oval" fill="#000000" fill-rule="nonzero" opacity="0.1" cx="924.25" cy="490.76" r="4.59"></circle>
                <path d="M965.5,764.3 C965.5,764.3 984.34,765.76 986.21,767.22 C988.08,768.68 965.5,764.3 965.5,764.3 Z" id="Path" stroke="#4285F4" fill="#000000" fill-rule="nonzero" opacity="0.1"></path>
                <path d="M853.33,749.49 C853.33,749.49 857.33,754.49 855.63,756.79 C853.93,759.09 853.33,749.49 853.33,749.49 Z" id="Path" stroke="#4285F4" fill="#000000" fill-rule="nonzero" opacity="0.1"></path>
                <path d="M858.13,767.52 C858.13,767.52 865.43,762.72 868.35,765.91 C871.27,769.1 858.13,767.52 858.13,767.52 Z" id="Path" stroke="#4285F4" fill="#000000" fill-rule="nonzero" opacity="0.1"></path>
                <path d="M949.03,301.73 C949.035618,304.230083 948.719693,306.720509 948.09,309.14 C946.827069,308.563897 946.053986,307.2648 946.15,305.88 C946.28,304.69 947.07,303.6 946.9,302.42 C946.65,300.6 944.45,299.86 943.29,298.42 C941.86,296.68 942.17,294.15 942.29,291.9 C942.41,289.65 941.84,286.9 939.73,286.13 C939.1,285.9 938.41,285.88 937.8,285.62 C936.14,284.92 935.63,282.86 934.52,281.44 C932.3,278.58 927.89,278.64 924.52,280 C923.05316,280.70326 921.551183,281.330752 920.02,281.88 C918.47008,282.426704 916.762091,282.299784 915.31,281.53 C914.65,281.11 914.12,280.53 913.44,280.11 C911.18,278.75 908.22,280.11 906.26,281.86 C904.3,283.61 902.73,285.96 900.26,287.03 C899.15,287.53 897.78,287.83 897.26,288.91 C897.002612,289.497964 896.892761,290.139907 896.94,290.78 C896.94,294.67 897.4,298.62 896.59,302.43 C896.07,304.88 894.35,307.66 891.86,307.36 C891.549712,307.314088 891.244839,307.237033 890.95,307.13 C888.90586,296.207123 893.216843,285.067891 902.081597,278.366854 C910.94635,271.665817 922.839045,270.556378 932.790297,275.502118 C942.741549,280.447858 949.038516,290.597501 949.05,301.71 L949.03,301.73 Z" id="Path" fill="#000000" fill-rule="nonzero" opacity="0.1"></path>
                <path d="M889.64,305.47 C890.39,305.64 891.1,306.03 891.87,306.13 C894.36,306.43 896.08,303.65 896.6,301.2 C897.41,297.39 896.99,293.44 896.96,289.55 C896.904149,288.910505 897.010783,288.267265 897.27,287.68 C897.84,286.6 899.21,286.3 900.27,285.8 C902.69,284.72 904.27,282.42 906.27,280.63 C908.27,278.84 911.18,277.52 913.44,278.88 C914.11,279.28 914.65,279.88 915.31,280.3 C916.768908,281.058497 918.475175,281.185021 920.03,280.65 C921.58,280.19 923.03,279.38 924.52,278.77 C927.86,277.41 932.28,277.36 934.52,280.2 C935.63,281.63 936.14,283.68 937.8,284.38 C938.41,284.64 939.1,284.67 939.73,284.9 C941.84,285.69 942.38,288.42 942.29,290.67 C942.2,292.92 941.9,295.45 943.29,297.19 C944.45,298.61 946.65,299.35 946.9,301.19 C947.06,302.37 946.28,303.47 946.15,304.65 C946.089821,305.535882 946.387008,306.408956 946.975161,307.074151 C947.563314,307.739347 948.393416,308.141227 949.28,308.19 C951.88,308.19 953.49,305.28 955.92,304.35 C956.92,303.96 958.13,303.9 958.92,303.11 C959.514384,302.341441 959.741082,301.350548 959.54,300.4 C959.05,296.57 955.98,293.24 956.31,289.4 C956.62,285.72 960.03,282.51 959.31,278.89 C958.943247,277.555197 958.256782,276.329857 957.31,275.32 C956.238077,273.867166 954.840755,272.685607 953.23,271.87 C951.84,271.27 950.23,271.13 948.96,270.4 C945.18,268.33 945.19,262.93 942.96,259.25 C941.008836,256.149558 937.489978,254.397846 933.84,254.71 C931.03,254.99 928.48,256.48 925.7,256.98 C921.89,257.66 918.03,256.41 914.42,254.98 C910.81,253.55 907.16,251.98 903.29,251.98 C899.42,251.98 895.23,253.98 894.05,257.64 C893.43,259.64 893.74,261.78 893.26,263.79 C892.42,267.36 889.26,269.9 886.08,271.67 C883.89,272.89 881.26,274.29 881,276.78 C880.83,278.36 881.7,279.78 882.25,281.31 C883.185441,283.898361 883.164159,286.735961 882.19,289.31 C881.46,291.2 880.24,292.86 879.5,294.74 C878.437622,297.320962 878.532278,300.233467 879.76,302.74 C880.701924,304.565996 882.355255,305.922668 884.33,306.49 C886.3,306.96 887.54,305.01 889.64,305.47 Z" id="Path" fill="#3F3D56" fill-rule="nonzero"></path>
                <g id="Group" opacity="0.1" transform="translate(878.000000, 275.000000)" fill="#000000" fill-rule="nonzero">
                    <path d="M18.6,24.02 C18.08,26.47 16.35,29.25 13.86,28.95 C13.09,28.85 12.39,28.46 11.63,28.29 C9.54,27.83 8.3,29.79 6.33,29.29 C4.35263968,28.722946 2.69607924,27.3665919 1.75,25.54 C1.22699148,24.5221526 0.910901709,23.4107402 0.82,22.27 C0.620823124,24.0406378 0.944106031,25.8308604 1.75,27.42 C2.69607924,29.2465919 4.35263968,30.602946 6.33,31.17 C8.33,31.63 9.54,29.67 11.63,30.17 C12.3617056,30.4247313 13.1060208,30.6416842 13.86,30.82 C16.35,31.13 18.08,28.35 18.6,25.9 C19.0099757,23.7354645 19.1710224,21.5311381 19.08,19.33 C19.0703333,20.9050852 18.9095972,22.4756113 18.6,24.02 Z" id="Path"></path>
                    <path d="M4.9,8.96 C5.0273795,7.32134353 4.8023327,5.67441008 4.24,4.13 C3.78763655,3.10308465 3.40347008,2.04746199 3.09,0.97 C3.04706141,1.13797494 3.01367457,1.30824781 2.99,1.48 C2.82,3.05 3.7,4.48 4.24,6.01 C4.58918322,6.95990946 4.81111011,7.95185542 4.9,8.96 L4.9,8.96 Z" id="Path"></path>
                    <path d="M81.3,3.69 C80.83,6.53 78.53,9.2 78.3,12.19 C78.2445567,12.7018363 78.2445567,13.2181637 78.3,13.73 C78.8,10.24 81.89,7.15 81.3,3.69 Z" id="Path"></path>
                    <path d="M81.47,24.79 C81.3851972,25.2081557 81.188151,25.595334 80.9,25.91 C80.16,26.7 78.9,26.76 77.9,27.15 C75.47,28.08 73.9,31.02 71.26,30.99 C69.8763931,30.9116269 68.6838715,29.9894102 68.26,28.67 C68.1990404,28.8867239 68.1522746,29.1071914 68.12,29.33 C68.0626054,30.2142173 68.3610513,31.0846898 68.9489131,31.7476777 C69.5367748,32.4106655 70.3652694,32.8111515 71.25,32.86 C73.86,32.86 75.46,29.95 77.89,29.03 C78.89,28.64 80.11,28.58 80.89,27.79 C81.4843835,27.0214408 81.7110823,26.0305477 81.51,25.08 C81.5,24.96 81.48,24.88 81.47,24.79 Z" id="Path"></path>
                    <path d="M68.93,23.96 C68.68,22.14 66.48,21.4 65.32,19.96 C64.6087868,19.014123 64.2228826,17.8634269 64.22,16.68 C64.14,18.54 64.17,20.44 65.32,21.84 C66.47,23.24 68.22,23.84 68.78,25.28 C68.9214986,24.8552736 68.9725927,24.4056459 68.93,23.96 L68.93,23.96 Z" id="Path"></path>
                    <path d="M64.28,13.49 C64.36,11.24 63.82,8.49 61.71,7.72 C61.09,7.49 60.4,7.46 59.79,7.21 C58.13,6.51 57.61,4.45 56.51,3.03 C54.28,0.18 49.87,0.23 46.51,1.59 C45.01,2.2 43.58,3.01 42.02,3.47 C40.4700803,4.01670421 38.7620915,3.8897836 37.31,3.12 C36.65,2.7 36.11,2.12 35.44,1.7 C33.17,0.34 30.21,1.7 28.26,3.45 C26.31,5.2 24.73,7.54 22.26,8.62 C21.14,9.12 19.78,9.42 19.2,10.5 C18.9456395,11.0887036 18.8392106,11.73071 18.89,12.37 C18.89,12.76 18.89,13.15 18.89,13.54 C18.9032515,13.1371348 19.0021089,12.7417053 19.18,12.38 C19.76,11.3 21.12,11 22.24,10.5 C24.66,9.42 26.24,7.12 28.24,5.33 C30.24,3.54 33.15,2.22 35.42,3.58 C36.09,3.98 36.63,4.58 37.29,4.99 C38.7406884,5.76463435 40.450751,5.89170907 42,5.34 C43.5284562,4.79591952 45.0271984,4.17172177 46.49,3.47 C49.84,2.11 54.25,2.05 56.49,4.9 C57.59,6.32 58.11,8.38 59.77,9.08 C60.38,9.34 61.07,9.37 61.69,9.6 C63.4,10.24 64.08,12.16 64.23,14.06 L64.28,13.49 Z" id="Path"></path>
                </g>
                <g id="Group" opacity="0.1" transform="translate(893.000000, 291.000000)" fill="#000000" fill-rule="nonzero">
                    <path d="M0.03,7.96 C0.147712871,4.55053503 2.50318293,1.6286111 5.81,0.79 C10.2692037,-0.30001457 14.9474713,-0.0883125493 19.29,1.4 C28.78,4.54 18.09,15.84 18.09,15.84 C18.09,15.84 10.98,22.84 4.35,17.95 C2.39174502,16.4699393 1.02074356,14.3443556 0.48,11.95 C0.155372504,10.6455432 0.00406988653,9.30399335 0.03,7.96 L0.03,7.96 Z" id="Path"></path>
                    <path d="M52.2,7.96 C52.0810511,4.54766681 49.7207728,1.62483523 46.41,0.79 C41.9539635,-0.298058045 37.2794514,-0.0863689308 32.94,1.4 C23.45,4.54 34.14,15.84 34.14,15.84 C34.14,15.84 41.24,22.84 47.88,17.95 C49.838255,16.4699393 51.2092564,14.3443556 51.75,11.95 C52.0746275,10.6455432 52.2259301,9.30399335 52.2,7.96 L52.2,7.96 Z" id="Path"></path>
                    <polygon id="Path" points="17.5 0.48 17.5 0.95 34.83 0.95 34.83 0.39"></polygon>
                    <path d="M23.03,5.49 L23.58,5.49 L23.58,3.9 C23.58,3.9 25.34,2.53 28.26,3.9 L28.26,5.32 L29.26,5.32 L29.26,4.39 L28.77,4.39 C28.77,4.39 28.97,2.46 25.71,2.77 C25.71,2.77 23.09,2.52 23.15,4.18 L22.55,4.18 L23.03,5.49 Z" id="Path"></path>
                </g>
                <path d="M893.03,298.31 C893.147713,294.900535 895.503183,291.978611 898.81,291.14 C903.269911,290.057267 907.946109,290.268875 912.29,291.75 C921.78,294.9 911.09,306.19 911.09,306.19 C911.09,306.19 903.98,313.19 897.35,308.3 C895.387862,306.823548 894.015855,304.696405 893.48,302.3 C893.154334,300.99573 893.003016,299.654042 893.03,298.31 L893.03,298.31 Z" id="Path" fill="#4285F4" fill-rule="nonzero"></path>
                <path d="M945.2,298.31 C945.081051,294.897667 942.720773,291.974835 939.41,291.14 C934.953474,290.056984 930.280395,290.268608 925.94,291.75 C916.45,294.9 927.14,306.19 927.14,306.19 C927.14,306.19 934.24,313.19 940.88,308.3 C942.842138,306.823548 944.214145,304.696405 944.75,302.3 C945.075666,300.99573 945.226984,299.654042 945.2,298.31 Z" id="Path" fill="#4285F4" fill-rule="nonzero"></path>
                <polygon id="Path" fill="#4285F4" fill-rule="nonzero" points="910.5 290.85 910.5 291.33 927.83 291.33 927.83 290.76"></polygon>
                <path d="M916.03,295.86 L916.58,295.86 L916.58,294.27 C916.58,294.27 918.34,292.91 921.26,294.27 L921.26,295.7 L922.26,295.7 L922.26,294.76 L921.77,294.76 C921.77,294.76 921.97,292.84 918.71,293.14 C918.71,293.14 916.09,292.9 916.15,294.55 L915.55,294.55 L916.03,295.86 Z" id="Path" fill="#4285F4" fill-rule="nonzero"></path>
                <rect id="Rectangle" fill="#535461" fill-rule="nonzero" x="117.46" y="457.19" width="5.68" height="127.9"></rect>
                <path d="M158.84,584.7 L158.48,590.46 L157.98,598.59 L157.77,601.98 L157.27,610.12 L157.05,613.51 L156.55,621.64 L150.82,714.11 C150.312673,722.370204 143.465768,728.81 135.19,728.81 L105.41,728.81 C97.1361174,728.81 90.2922484,722.368625 89.79,714.11 L84.03,621.64 L83.53,613.51 L83.32,610.12 L82.83,601.96 L82.62,598.569997 L82.12,590.44 L81.76,584.68 C81.6219804,582.445589 82.4137111,580.253507 83.9476619,578.622975 C85.4816127,576.992442 87.6213307,576.069997 89.86,576.069997 L150.75,576.069997 C152.991578,576.067964 155.133778,576.994927 156.666823,578.630301 C158.199868,580.265676 158.986672,582.463224 158.84,584.7 L158.84,584.7 Z" id="Path" fill="#3F3D56" fill-rule="nonzero"></path>
                <polygon id="Path" fill="#9D9CB5" fill-rule="nonzero" points="158.48 590.46 157.98 598.59 82.61 598.59 82.11 590.46"></polygon>
                <polygon id="Path" fill="#9D9CB5" fill-rule="nonzero" points="157.77 601.98 157.27 610.12 83.33 610.12 82.82 601.98"></polygon>
                <polygon id="Path" fill="#9D9CB5" fill-rule="nonzero" points="157.05 613.51 156.55 621.64 84.05 621.64 83.54 613.51"></polygon>
                <path d="M73.44,505.13 C106.52,529.06 120.3,566.5 120.3,566.5 C120.3,566.5 80.43,565.13 47.3,541.2 C14.17,517.27 0.44,479.83 0.44,479.83 C0.44,479.83 40.35,481.2 73.44,505.13 Z" id="Path" fill="#4285F4" fill-rule="nonzero"></path>
                <path d="M0.49,479.83 C0.49,479.83 41.87,502.83 55.14,521.83 C68.41,540.83 120.3,566.51 120.3,566.51" id="Path" stroke="#535461" stroke-width="2"></path>
                <path d="M94.79,456.96 C112.79,469.96 120.3,490.36 120.3,490.36 C120.3,490.36 98.6,489.62 80.59,476.59 C62.58,463.56 55.09,443.19 55.09,443.19 C55.09,443.19 76.79,443.88 94.79,456.96 Z" id="Path" fill="#4285F4" fill-rule="nonzero"></path>
                <path d="M55.09,443.14 C55.09,443.14 77.61,455.64 84.83,465.99 C92.05,476.34 120.3,490.31 120.3,490.31" id="Path" stroke="#535461" stroke-width="2"></path>
                <path d="M146.47,489.28 C125.78,512.01 121.41,541.71 121.41,541.71 C121.41,541.71 150.57,534.56 171.25,511.83 C191.93,489.1 196.31,459.39 196.31,459.39 C196.31,459.39 167.15,466.54 146.47,489.28 Z" id="Path" fill="#4285F4" fill-rule="nonzero"></path>
                <path d="M196.31,459.39 C196.31,459.39 169.37,482.69 162.52,498.75 C155.67,514.81 121.41,541.75 121.41,541.75" id="Path" stroke="#535461" stroke-width="2"></path>
            </g>
        </g>
    </g>
</svg>