<?xml version="1.0" encoding="UTF-8"?>
<svg width="256px" height="256px" viewBox="0 0 256 256" version="1.1" xmlns="http://www.w3.org/2000/svg" xmlns:xlink="http://www.w3.org/1999/xlink">
    <!-- Generator: Sketch 55.1 (78136) - https://sketchapp.com -->
    <title>bloom_256</title>
    <desc>Created with Sketch.</desc>
    <defs>
        <path d="M109,239 L89.6704238,227.581162 L70,215.960971 L70,128.340875 L70,40.72078 L89.6159248,29.1183214 C103.180466,21.0937644 107.425029,18.6092952 109,18 L109,239 Z" id="path-1"></path>
        <filter x="-6.4%" y="-1.5%" width="125.6%" height="102.8%" filterUnits="objectBoundingBox" id="filter-2">
            <feMorphology radius="1" operator="erode" in="SourceAlpha" result="shadowSpreadOuter1"></feMorphology>
            <feOffset dx="3" dy="0" in="shadowSpreadOuter1" result="shadowOffsetOuter1"></feOffset>
            <feGaussianBlur stdDeviation="2" in="shadowOffsetOuter1" result="shadowBlurOuter1"></feGaussianBlur>
            <feColorMatrix values="0 0 0 0 0   0 0 0 0 0   0 0 0 0 0  0 0 0 0.5 0" type="matrix" in="shadowBlurOuter1"></feColorMatrix>
        </filter>
        <linearGradient x1="50%" y1="0%" x2="50%" y2="99.8152449%" id="linearGradient-3">
            <stop stop-color="#FFC82E" offset="0%"></stop>
            <stop stop-color="#FFE7A2" offset="100%"></stop>
        </linearGradient>
        <polygon id="path-4" points="126.432618 118.381782 167.832792 94.5764323 168.595668 181.413142 168.284539 181.589324 164.961642 183.47098 127.394887 205.170722"></polygon>
        <filter x="-16.6%" y="-8.1%" width="133.2%" height="112.7%" filterUnits="objectBoundingBox" id="filter-5">
            <feOffset dx="0" dy="-2" in="SourceAlpha" result="shadowOffsetOuter1"></feOffset>
            <feGaussianBlur stdDeviation="2" in="shadowOffsetOuter1" result="shadowBlurOuter1"></feGaussianBlur>
            <feColorMatrix values="0 0 0 0 0   0 0 0 0 0   0 0 0 0 0  0 0 0 0.5 0" type="matrix" in="shadowBlurOuter1"></feColorMatrix>
        </filter>
        <linearGradient x1="-62.3795815%" y1="0%" x2="113.873538%" y2="0%" id="linearGradient-6">
            <stop stop-color="#4285F4" offset="0%"></stop>
            <stop stop-color="#73A7FF" offset="100%"></stop>
        </linearGradient>
        <path d="M121.560321,145.786257 C117.19706,148.33228 113.477718,150.499056 110.402296,152.286586 C103.031828,156.570528 102.835149,156.656234 109.812259,152.543706 L69.4577992,176 L69,128.699821 L109.546844,105.019399 L109.546508,104.964817 L184.550573,61 L185,108.926768 L121.560321,145.786257 Z" id="path-7"></path>
        <filter x="-6.9%" y="-4.2%" width="113.8%" height="110.1%" filterUnits="objectBoundingBox" id="filter-8">
            <feMorphology radius="1.5" operator="erode" in="SourceAlpha" result="shadowSpreadOuter1"></feMorphology>
            <feOffset dx="0" dy="1" in="shadowSpreadOuter1" result="shadowOffsetOuter1"></feOffset>
            <feGaussianBlur stdDeviation="4" in="shadowOffsetOuter1" result="shadowBlurOuter1"></feGaussianBlur>
            <feColorMatrix values="0 0 0 0 0   0 0 0 0 0   0 0 0 0 0  0 0 0 0.5 0" type="matrix" in="shadowBlurOuter1"></feColorMatrix>
        </filter>
    </defs>
    <g id="bloom_256" stroke="none" stroke-width="1" fill="none" fill-rule="evenodd">
        <g id="Group">
            <rect id="Rectangle" fill="#FFFFFF" x="0" y="0" width="256" height="256" rx="40"></rect>
            <path d="M126.08848,31.4227818 L166.949647,7.16935064 L166.970365,8.56661582 L167.713225,94.3714119 C141.337567,110.323154 128.146441,118.249182 128.139846,118.149497 C128.082224,117.278539 127.398435,88.3696343 126.08848,31.4227818 Z" id="Rectangle" fill="#4285F4" transform="translate(146.900852, 62.660347) rotate(121.000000) translate(-146.900852, -62.660347) "></path>
            <polygon id="Rectangle" fill="#EDB722" transform="translate(146.854999, 193.806436) rotate(59.000000) translate(-146.854999, -193.806436) " points="127.149699 138.081962 167.900182 162.594208 166.096679 249.530909 125.809816 225.32412"></polygon>
            <g id="Combined-Shape">
                <use fill="black" fill-opacity="1" filter="url(#filter-2)" xlink:href="#path-1"></use>
                <use fill="#DB4437" fill-rule="evenodd" xlink:href="#path-1"></use>
            </g>
            <g id="Rectangle" transform="translate(147.514143, 149.873577) rotate(121.000000) translate(-147.514143, -149.873577) ">
                <use fill="black" fill-opacity="1" filter="url(#filter-5)" xlink:href="#path-4"></use>
                <use fill="url(#linearGradient-3)" fill-rule="evenodd" xlink:href="#path-4"></use>
            </g>
            <g id="Combined-Shape">
                <use fill="black" fill-opacity="1" filter="url(#filter-8)" xlink:href="#path-7"></use>
                <use fill="url(#linearGradient-6)" fill-rule="evenodd" xlink:href="#path-7"></use>
            </g>
            <polygon id="Path-7" fill="#FFFFFF" points="109 153.06952 110.973764 152 114.049401 153.85382 118.144647 156.194787 144 171.661347 109 192"></polygon>
            <polygon id="Path-7" fill="#FFFFFF" points="109 64.1676262 118.144647 69.7909687 144 85 109 105.326135"></polygon>
            <polygon id="Path-7" fill="#FFFFFF" transform="translate(168.248531, 128.500000) scale(-1, -1) translate(-168.248531, -128.500000) " points="151.497063 109 158.582749 113.076792 185 128.5 152.021925 148"></polygon>
            <path d="M184,61.5649035 C188.308545,57.8282651 191.641879,55.9732973 194,56 C196.358121,56.0274771 199.691455,57.9590311 204,61.7946619 L204,116 C195.222525,117.604536 188.889191,118.005385 185,117.202549 C181.110809,116.399712 180.925725,114.653282 184.444748,111.963257 L184,61.5649035 Z" id="Rectangle" fill="#FFFFFF"></path>
            <path d="M184.498283,147.709623 C182.71786,139.376073 183.095241,135.223103 185.630424,135.250713 C188.165607,135.278692 194.955466,139.510239 206,147.945356 L206,203.56034 C196.375646,207.137825 189.887981,208.553253 186.537007,207.806623 C183.186032,207.059993 181.340363,203.787817 181,197.990096 L184.254985,196.102306 L184.498283,147.709623 Z" id="Rectangle" fill="#FFFFFF"></path>
            <path d="M49,123.621383 C53.323898,119.846821 56.6691091,117.973222 59.0356333,118.000587 C61.4021575,118.027952 65.055567,119.90155 69.9958619,123.621383 L69.9958619,128.110681 L69.9958619,128.340875 L69.9958619,175.793203 C70.0056785,175.912788 69.9948085,176.520609 69.9958619,176.645773 C69.9974266,176.831675 69.9974266,177.100967 69.9958619,177.453652 L69.9958619,178.778586 L69.9958619,180 L49.4463329,174.53124 L49,123.621383 Z" id="Rectangle" fill="#FFFFFF"></path>
        </g>
    </g>
</svg>