<svg xmlns="http://www.w3.org/2000/svg" width="100" height="105" viewBox="0 0 100 105">
    <g fill="none" fill-rule="evenodd">
        <path fill="#323440" d="M5.374 92.893c-1.769-1.028-3.106-2.42-4.013-4.174C.453 86.965 0 85 0 82.822c0-2.238.446-4.25 1.338-6.034.891-1.784 2.229-3.19 4.013-4.219 1.784-1.028 3.991-1.542 6.621-1.542 2.268 0 4.293.469 6.077 1.406l-.544 4.174c-1.754-.847-3.492-1.27-5.215-1.27-2.268 0-4.021.665-5.26 1.996-1.24 1.33-1.86 3.13-1.86 5.398 0 2.238.62 4.037 1.86 5.398 1.239 1.361 2.962 2.042 5.17 2.042 1.873 0 3.657-.484 5.35-1.452l.545 4.22c-.787.453-1.74.816-2.858 1.088a14.72 14.72 0 0 1-3.491.408c-2.48 0-4.603-.514-6.372-1.542M23.377 92.825c-.952-1.074-1.428-2.442-1.428-4.106V59.958h5.033V86.36c0 1.27.076 2.17.227 2.7.151.529.423.869.816 1.02.393.152 1.058.227 1.996.227l-.499 4.128h-1.814c-1.935 0-3.378-.536-4.33-1.61M47.616 80.054c0-1.33-.378-2.45-1.133-3.357-.757-.907-1.905-1.36-3.447-1.36-2.933 0-4.777 1.572-5.533 4.717h10.113zm-10 12.793c-1.83-1.058-3.212-2.487-4.149-4.287-.937-1.799-1.406-3.802-1.406-6.01 0-2.117.431-4.045 1.293-5.785.861-1.738 2.131-3.122 3.809-4.15 1.678-1.028 3.65-1.543 5.918-1.543 1.996 0 3.726.416 5.193 1.248 1.466.832 2.585 1.973 3.356 3.425.77 1.451 1.156 3.115 1.156 4.99 0 .968-.106 1.89-.317 2.767H37.322c.272 2.33 1.08 4.023 2.426 5.08 1.345 1.06 3.016 1.589 5.011 1.589 2.449 0 4.671-.56 6.667-1.679l.362 4.22c-2.298 1.149-4.807 1.723-7.528 1.723-2.6 0-4.815-.529-6.643-1.588zM54.282 71.48h5.17l5.805 16.423 5.805-16.423h5.17L67.66 93.981H62.9z"/>
        <path fill="#323440" d="M85.575 92.666L76.188 71.48h5.623l6.213 15.288 6.031-15.288h5.669l-14.013 33.48h-5.215z"/>
        <path fill="#E85056" d="M18.406 20.587c.26-.173 6.482-4.553 16.302-.293 3.209 1.392 6.133 4.842 9.086 8.466a29.618 29.618 0 0 0 4.09-3.214c-5.808-6.407-7.425-10.875-7.425-13.547 0-3.835 1.915-7.121 4.87-9.503C47.334.881 49.654 0 50.284 0h.24l.232.067c.093.026 2.298.67 4.483 2.43 2.955 2.38 4.87 5.667 4.87 9.502 0 2.672-1.617 7.14-7.426 13.547a29.662 29.662 0 0 0 4.091 3.214c2.954-3.624 5.878-7.074 9.087-8.466 9.82-4.26 16.042.12 16.302.293l.764.51v.92c0 .102.34 2.545-.888 5.353-1.142 2.614-3.936 6.082-9.078 7.76-3.488 1.138-7.555.995-11.76-.415a26.574 26.574 0 0 1-3.58-1.505c-.3.382-.6.764-.898 1.146-1.38 1.762-2.797 3.572-4.251 5.267a26.493 26.493 0 0 0 2.893 3.143c2.075-2.452 5.33-4.273 10.257-4.273 3.494 0 6.369 1.108 8.546 3.293 4.069 4.084 4.094 10.452 4.093 10.72l-.006 1.714h-2.418c-9.318 0-15.04-2.318-19.533-6.264-.68 1.903-.726 2.64-.726 4.04 0 5.721 1.075 10.205 1.075 10.205h-4.001s-.51-3.657-.51-10.204c0-1.824.375-4.107 1.365-6.274a30.795 30.795 0 0 1-3.223-3.331 30.785 30.785 0 0 1-3.222 3.331c.99 2.167 1.364 4.112 1.364 6.274 0 6.824-.529 10.204-.529 10.204h-3.965s1.058-4.424 1.058-10.204c0-1.296-.045-2.138-.726-4.04-5.316 3.945-10.215 6.263-19.533 6.263h-2.418l-.005-1.713c-.001-.27-.33-6.637 3.74-10.72 2.177-2.186 5.405-3.294 8.898-3.294 4.928 0 8.182 1.82 10.257 4.273a26.467 26.467 0 0 0 2.894-3.143c-1.454-1.695-2.873-3.505-4.251-5.267a541.34 541.34 0 0 0-.898-1.146 26.582 26.582 0 0 1-3.58 1.505c-4.206 1.41-8.272 1.906-11.761.768-5.142-1.678-7.583-5.499-8.725-8.113-1.227-2.808-1.241-5.25-1.241-5.353v-.92l.765-.51zm43.886 10.87c3.451 1.155 6.862 1.3 9.604.405 5.86-1.912 7.2-6.736 7.505-8.843-1.742-.737-6.018-1.889-12.173.781-2.401 1.042-4.907 3.65-7.403 6.664.815.383 1.639.715 2.467.992zm12.376 19.278c-.268-1.79-.988-4.57-2.934-6.522-1.508-1.514-3.565-2.283-6.112-2.283-3.34 0-5.896 1.015-7.613 3.019 4.81 3.523 10.405 5.464 16.659 5.786zM34.946 41.93c-3.825 0-6.43 1.648-7.962 5.036-.61 1.351-.92 2.727-1.078 3.769 6.251-.322 11.844-2.264 16.654-5.786-1.718-2.004-4.273-3.019-7.614-3.019zm15.34-38.392c-1.494.589-6.038 2.842-6.038 8.46 0 2.793 2.181 6.774 6.036 11.075C54.14 18.772 56.32 14.791 56.32 12c0-5.637-4.517-7.87-6.033-8.46zm-3.734 28.7c1.219 1.558 2.47 3.155 3.732 4.654 1.263-1.499 2.513-3.096 3.733-4.655l.608-.778c-1.506-1-2.96-2.157-4.34-3.452a33.285 33.285 0 0 1-4.342 3.452l.609.778zm-17.88-.376c2.743.895 6.153.75 9.604-.406.828-.277 1.652-.61 2.467-.992-2.496-3.015-5.002-5.622-7.403-6.664-6.157-2.671-10.432-1.517-12.169-.784.315 2.101 1.669 6.943 7.502 8.846z"/>
    </g>
</svg>
