<?xml version="1.0" encoding="UTF-8"?>
<svg width="673px" height="169px" viewBox="0 0 673 169" version="1.1" xmlns="http://www.w3.org/2000/svg" xmlns:xlink="http://www.w3.org/1999/xlink">
    <!-- Generator: Sketch 49.3 (51167) - http://www.bohemiancoding.com/sketch -->
    <title>Cryptio_Logo_C_RGB</title>
    <desc>Created with Sketch.</desc>
    <defs>
        <linearGradient x1="99.7218997%" y1="50.0778816%" x2="21.4825858%" y2="50.0778816%" id="linearGradient-1">
            <stop stop-color="#EAAB00" stop-opacity="0" offset="5.744286%"></stop>
            <stop stop-color="#EAAB00" stop-opacity="0.35" offset="45.14%"></stop>
            <stop stop-color="#EAAB00" offset="96.72%"></stop>
        </linearGradient>
        <linearGradient x1="87.6637899%" y1="-7.43710575%" x2="27.4056285%" y2="96.0282004%" id="linearGradient-2">
            <stop stop-color="#EAAB00" stop-opacity="0" offset="5.744287%"></stop>
            <stop stop-color="#EAAB00" stop-opacity="0.35" offset="45%"></stop>
            <stop stop-color="#EAAB00" offset="96.77%"></stop>
        </linearGradient>
    </defs>
    <g id="Page-1" stroke="none" stroke-width="1" fill="none" fill-rule="evenodd">
        <g id="Cryptio_Logo_C_RGB" fill-rule="nonzero">
            <g id="Group" transform="translate(0.000000, 29.000000)">
                <path d="M16.4,16.1 C-4.4,36.9 -4.4,70.7 16.4,91.5 C37.2,112.3 71,112.3 91.8,91.5 L75.7,75.4 C63.8,87.3 44.5,87.3 32.6,75.4 C20.7,63.5 20.7,44.2 32.6,32.3 L16.4,16.1 Z" id="Shape" fill="#EAAB00"></path>
                <path d="M32.6,32.2 C32.5,32.3 32.3,32.5 32.2,32.6 L16,16.5 C16.1,16.4 16.3,16.2 16.4,16.1 C37.2,-4.7 71,-4.7 91.8,16.1 L75.7,32.2 C63.8,20.3 44.5,20.3 32.6,32.2 Z" id="Shape" fill="url(#linearGradient-1)"></path>
            </g>
            <g id="Group" transform="translate(114.000000, 0.000000)">
                <g fill="#EAAB00">
                    <path d="M504.9,52.3 C521.7,52.3 535.4,65.9 535.4,82.8 C535.4,99.6 521.8,113.3 504.9,113.3 C488.1,113.3 474.4,99.7 474.4,82.8 L451.6,82.8 C451.6,112.2 475.5,136.1 504.9,136.1 C534.3,136.1 558.2,112.2 558.2,82.8 C558.2,53.4 534.3,29.5 504.9,29.5 L504.9,52.3 Z" id="Shape"></path>
                    <polygon id="Shape" points="0.7 33 0.7 133 23.9 133 23.9 53.9 50.1 53.9 60.7 33"></polygon>
                    <g transform="translate(67.000000, 29.000000)" id="Shape">
                        <polygon points="96 4 62.4 69.5 27.1 4 0.6 4 49.7 94.4 26.9 139.2 53 139.2 122.1 4"></polygon>
                        <path d="M183.5,0.5 C162.3,0.5 148.4,3.5 132.3,6.9 L132.3,139.3 L155.5,139.3 L155.5,105 C163.8,106.2 172.7,107.3 183.5,107 C215,106.1 234.1,85.8 234.1,54 C234.1,22 213.8,0.5 183.5,0.5 Z M194.4,82.6 C183.4,87.2 166.4,84.2 155.6,82.6 L155.6,24.4 C166.4,22.7 183.1,19.5 194.2,24.1 C204.9,28.6 211,38.9 211,53.8 C211.1,68.6 205,78.2 194.4,82.6 Z"></path>
                    </g>
                    <rect id="Rectangle-path" x="408.5" y="33" width="23.2" height="100"></rect>
                    <path d="M381.6,112.8 C376.6,113.6 372.3,113.9 368.5,113.9 C359.1,113.9 353.9,111 353.9,95.4 L353.9,53.8 L386.1,53.8 L386.1,33 L353.9,33 L353.9,0.1 L330.7,0.1 L330.7,33 L301.4,33 L312.6,53.9 L330.7,53.9 L330.7,96.7 C330.7,122.8 342.7,136 366.3,136 C374.9,136 380.4,135.1 387.6,133.3 L392,132.2 L381.6,112.8 Z" id="Shape"></path>
                </g>
                <path d="M474.4,82.8 C474.4,83 474.4,83.2 474.4,83.4 L451.6,83.2 C451.6,83.1 451.6,82.9 451.6,82.8 C451.6,53.4 475.5,29.5 504.9,29.5 L504.9,52.3 C488,52.3 474.4,66 474.4,82.8 Z" id="Shape" fill="url(#linearGradient-2)"></path>
            </g>
        </g>
    </g>
</svg>